G04 #@! TF.GenerationSoftware,KiCad,Pcbnew,(5.0.0)*
G04 #@! TF.CreationDate,2018-08-05T21:05:08-04:00*
G04 #@! TF.ProjectId,5vStepDown,357653746570446F776E2E6B69636164,rev?*
G04 #@! TF.SameCoordinates,Original*
G04 #@! TF.FileFunction,Soldermask,Top*
G04 #@! TF.FilePolarity,Negative*
%FSLAX46Y46*%
G04 Gerber Fmt 4.6, Leading zero omitted, Abs format (unit mm)*
G04 Created by KiCad (PCBNEW (5.0.0)) date 08/05/18 21:05:08*
%MOMM*%
%LPD*%
G01*
G04 APERTURE LIST*
%ADD10C,2.000000*%
%ADD11R,2.000000X2.000000*%
%ADD12C,3.000000*%
%ADD13C,0.100000*%
%ADD14C,1.650000*%
%ADD15O,2.100000X2.100000*%
%ADD16R,2.100000X2.100000*%
%ADD17R,2.750000X2.750000*%
%ADD18R,1.950000X1.000000*%
G04 APERTURE END LIST*
D10*
G04 #@! TO.C,C1*
X180308000Y-88900000D03*
D11*
X178308000Y-88900000D03*
G04 #@! TD*
D12*
G04 #@! TO.C,10uH-4A1*
X176356000Y-102108000D03*
X181356000Y-102108000D03*
G04 #@! TD*
D13*
G04 #@! TO.C,C2*
G36*
X172989346Y-101284589D02*
X173021380Y-101289341D01*
X173052794Y-101297210D01*
X173083286Y-101308120D01*
X173112561Y-101321966D01*
X173140338Y-101338615D01*
X173166350Y-101357907D01*
X173190345Y-101379655D01*
X173212093Y-101403650D01*
X173231385Y-101429662D01*
X173248034Y-101457439D01*
X173261880Y-101486714D01*
X173272790Y-101517206D01*
X173280659Y-101548620D01*
X173285411Y-101580654D01*
X173287000Y-101613000D01*
X173287000Y-102603000D01*
X173285411Y-102635346D01*
X173280659Y-102667380D01*
X173272790Y-102698794D01*
X173261880Y-102729286D01*
X173248034Y-102758561D01*
X173231385Y-102786338D01*
X173212093Y-102812350D01*
X173190345Y-102836345D01*
X173166350Y-102858093D01*
X173140338Y-102877385D01*
X173112561Y-102894034D01*
X173083286Y-102907880D01*
X173052794Y-102918790D01*
X173021380Y-102926659D01*
X172989346Y-102931411D01*
X172957000Y-102933000D01*
X171467000Y-102933000D01*
X171434654Y-102931411D01*
X171402620Y-102926659D01*
X171371206Y-102918790D01*
X171340714Y-102907880D01*
X171311439Y-102894034D01*
X171283662Y-102877385D01*
X171257650Y-102858093D01*
X171233655Y-102836345D01*
X171211907Y-102812350D01*
X171192615Y-102786338D01*
X171175966Y-102758561D01*
X171162120Y-102729286D01*
X171151210Y-102698794D01*
X171143341Y-102667380D01*
X171138589Y-102635346D01*
X171137000Y-102603000D01*
X171137000Y-101613000D01*
X171138589Y-101580654D01*
X171143341Y-101548620D01*
X171151210Y-101517206D01*
X171162120Y-101486714D01*
X171175966Y-101457439D01*
X171192615Y-101429662D01*
X171211907Y-101403650D01*
X171233655Y-101379655D01*
X171257650Y-101357907D01*
X171283662Y-101338615D01*
X171311439Y-101321966D01*
X171340714Y-101308120D01*
X171371206Y-101297210D01*
X171402620Y-101289341D01*
X171434654Y-101284589D01*
X171467000Y-101283000D01*
X172957000Y-101283000D01*
X172989346Y-101284589D01*
X172989346Y-101284589D01*
G37*
D14*
X172212000Y-102108000D03*
D13*
G36*
X172989346Y-98484589D02*
X173021380Y-98489341D01*
X173052794Y-98497210D01*
X173083286Y-98508120D01*
X173112561Y-98521966D01*
X173140338Y-98538615D01*
X173166350Y-98557907D01*
X173190345Y-98579655D01*
X173212093Y-98603650D01*
X173231385Y-98629662D01*
X173248034Y-98657439D01*
X173261880Y-98686714D01*
X173272790Y-98717206D01*
X173280659Y-98748620D01*
X173285411Y-98780654D01*
X173287000Y-98813000D01*
X173287000Y-99803000D01*
X173285411Y-99835346D01*
X173280659Y-99867380D01*
X173272790Y-99898794D01*
X173261880Y-99929286D01*
X173248034Y-99958561D01*
X173231385Y-99986338D01*
X173212093Y-100012350D01*
X173190345Y-100036345D01*
X173166350Y-100058093D01*
X173140338Y-100077385D01*
X173112561Y-100094034D01*
X173083286Y-100107880D01*
X173052794Y-100118790D01*
X173021380Y-100126659D01*
X172989346Y-100131411D01*
X172957000Y-100133000D01*
X171467000Y-100133000D01*
X171434654Y-100131411D01*
X171402620Y-100126659D01*
X171371206Y-100118790D01*
X171340714Y-100107880D01*
X171311439Y-100094034D01*
X171283662Y-100077385D01*
X171257650Y-100058093D01*
X171233655Y-100036345D01*
X171211907Y-100012350D01*
X171192615Y-99986338D01*
X171175966Y-99958561D01*
X171162120Y-99929286D01*
X171151210Y-99898794D01*
X171143341Y-99867380D01*
X171138589Y-99835346D01*
X171137000Y-99803000D01*
X171137000Y-98813000D01*
X171138589Y-98780654D01*
X171143341Y-98748620D01*
X171151210Y-98717206D01*
X171162120Y-98686714D01*
X171175966Y-98657439D01*
X171192615Y-98629662D01*
X171211907Y-98603650D01*
X171233655Y-98579655D01*
X171257650Y-98557907D01*
X171283662Y-98538615D01*
X171311439Y-98521966D01*
X171340714Y-98508120D01*
X171371206Y-98497210D01*
X171402620Y-98489341D01*
X171434654Y-98484589D01*
X171467000Y-98483000D01*
X172957000Y-98483000D01*
X172989346Y-98484589D01*
X172989346Y-98484589D01*
G37*
D14*
X172212000Y-99308000D03*
G04 #@! TD*
D13*
G04 #@! TO.C,C3*
G36*
X163864132Y-99774207D02*
X163896166Y-99778959D01*
X163927580Y-99786828D01*
X163958072Y-99797738D01*
X163987347Y-99811584D01*
X164015124Y-99828233D01*
X164041136Y-99847525D01*
X164065131Y-99869273D01*
X164086879Y-99893268D01*
X164106171Y-99919280D01*
X164122820Y-99947057D01*
X164136666Y-99976332D01*
X164147576Y-100006824D01*
X164155445Y-100038238D01*
X164160197Y-100070272D01*
X164161786Y-100102618D01*
X164161786Y-101092618D01*
X164160197Y-101124964D01*
X164155445Y-101156998D01*
X164147576Y-101188412D01*
X164136666Y-101218904D01*
X164122820Y-101248179D01*
X164106171Y-101275956D01*
X164086879Y-101301968D01*
X164065131Y-101325963D01*
X164041136Y-101347711D01*
X164015124Y-101367003D01*
X163987347Y-101383652D01*
X163958072Y-101397498D01*
X163927580Y-101408408D01*
X163896166Y-101416277D01*
X163864132Y-101421029D01*
X163831786Y-101422618D01*
X162341786Y-101422618D01*
X162309440Y-101421029D01*
X162277406Y-101416277D01*
X162245992Y-101408408D01*
X162215500Y-101397498D01*
X162186225Y-101383652D01*
X162158448Y-101367003D01*
X162132436Y-101347711D01*
X162108441Y-101325963D01*
X162086693Y-101301968D01*
X162067401Y-101275956D01*
X162050752Y-101248179D01*
X162036906Y-101218904D01*
X162025996Y-101188412D01*
X162018127Y-101156998D01*
X162013375Y-101124964D01*
X162011786Y-101092618D01*
X162011786Y-100102618D01*
X162013375Y-100070272D01*
X162018127Y-100038238D01*
X162025996Y-100006824D01*
X162036906Y-99976332D01*
X162050752Y-99947057D01*
X162067401Y-99919280D01*
X162086693Y-99893268D01*
X162108441Y-99869273D01*
X162132436Y-99847525D01*
X162158448Y-99828233D01*
X162186225Y-99811584D01*
X162215500Y-99797738D01*
X162245992Y-99786828D01*
X162277406Y-99778959D01*
X162309440Y-99774207D01*
X162341786Y-99772618D01*
X163831786Y-99772618D01*
X163864132Y-99774207D01*
X163864132Y-99774207D01*
G37*
D14*
X163086786Y-100597618D03*
D13*
G36*
X163864132Y-96974207D02*
X163896166Y-96978959D01*
X163927580Y-96986828D01*
X163958072Y-96997738D01*
X163987347Y-97011584D01*
X164015124Y-97028233D01*
X164041136Y-97047525D01*
X164065131Y-97069273D01*
X164086879Y-97093268D01*
X164106171Y-97119280D01*
X164122820Y-97147057D01*
X164136666Y-97176332D01*
X164147576Y-97206824D01*
X164155445Y-97238238D01*
X164160197Y-97270272D01*
X164161786Y-97302618D01*
X164161786Y-98292618D01*
X164160197Y-98324964D01*
X164155445Y-98356998D01*
X164147576Y-98388412D01*
X164136666Y-98418904D01*
X164122820Y-98448179D01*
X164106171Y-98475956D01*
X164086879Y-98501968D01*
X164065131Y-98525963D01*
X164041136Y-98547711D01*
X164015124Y-98567003D01*
X163987347Y-98583652D01*
X163958072Y-98597498D01*
X163927580Y-98608408D01*
X163896166Y-98616277D01*
X163864132Y-98621029D01*
X163831786Y-98622618D01*
X162341786Y-98622618D01*
X162309440Y-98621029D01*
X162277406Y-98616277D01*
X162245992Y-98608408D01*
X162215500Y-98597498D01*
X162186225Y-98583652D01*
X162158448Y-98567003D01*
X162132436Y-98547711D01*
X162108441Y-98525963D01*
X162086693Y-98501968D01*
X162067401Y-98475956D01*
X162050752Y-98448179D01*
X162036906Y-98418904D01*
X162025996Y-98388412D01*
X162018127Y-98356998D01*
X162013375Y-98324964D01*
X162011786Y-98292618D01*
X162011786Y-97302618D01*
X162013375Y-97270272D01*
X162018127Y-97238238D01*
X162025996Y-97206824D01*
X162036906Y-97176332D01*
X162050752Y-97147057D01*
X162067401Y-97119280D01*
X162086693Y-97093268D01*
X162108441Y-97069273D01*
X162132436Y-97047525D01*
X162158448Y-97028233D01*
X162186225Y-97011584D01*
X162215500Y-96997738D01*
X162245992Y-96986828D01*
X162277406Y-96978959D01*
X162309440Y-96974207D01*
X162341786Y-96972618D01*
X163831786Y-96972618D01*
X163864132Y-96974207D01*
X163864132Y-96974207D01*
G37*
D14*
X163086786Y-97797618D03*
G04 #@! TD*
D13*
G04 #@! TO.C,C4*
G36*
X162065346Y-91636589D02*
X162097380Y-91641341D01*
X162128794Y-91649210D01*
X162159286Y-91660120D01*
X162188561Y-91673966D01*
X162216338Y-91690615D01*
X162242350Y-91709907D01*
X162266345Y-91731655D01*
X162288093Y-91755650D01*
X162307385Y-91781662D01*
X162324034Y-91809439D01*
X162337880Y-91838714D01*
X162348790Y-91869206D01*
X162356659Y-91900620D01*
X162361411Y-91932654D01*
X162363000Y-91965000D01*
X162363000Y-93455000D01*
X162361411Y-93487346D01*
X162356659Y-93519380D01*
X162348790Y-93550794D01*
X162337880Y-93581286D01*
X162324034Y-93610561D01*
X162307385Y-93638338D01*
X162288093Y-93664350D01*
X162266345Y-93688345D01*
X162242350Y-93710093D01*
X162216338Y-93729385D01*
X162188561Y-93746034D01*
X162159286Y-93759880D01*
X162128794Y-93770790D01*
X162097380Y-93778659D01*
X162065346Y-93783411D01*
X162033000Y-93785000D01*
X161043000Y-93785000D01*
X161010654Y-93783411D01*
X160978620Y-93778659D01*
X160947206Y-93770790D01*
X160916714Y-93759880D01*
X160887439Y-93746034D01*
X160859662Y-93729385D01*
X160833650Y-93710093D01*
X160809655Y-93688345D01*
X160787907Y-93664350D01*
X160768615Y-93638338D01*
X160751966Y-93610561D01*
X160738120Y-93581286D01*
X160727210Y-93550794D01*
X160719341Y-93519380D01*
X160714589Y-93487346D01*
X160713000Y-93455000D01*
X160713000Y-91965000D01*
X160714589Y-91932654D01*
X160719341Y-91900620D01*
X160727210Y-91869206D01*
X160738120Y-91838714D01*
X160751966Y-91809439D01*
X160768615Y-91781662D01*
X160787907Y-91755650D01*
X160809655Y-91731655D01*
X160833650Y-91709907D01*
X160859662Y-91690615D01*
X160887439Y-91673966D01*
X160916714Y-91660120D01*
X160947206Y-91649210D01*
X160978620Y-91641341D01*
X161010654Y-91636589D01*
X161043000Y-91635000D01*
X162033000Y-91635000D01*
X162065346Y-91636589D01*
X162065346Y-91636589D01*
G37*
D14*
X161538000Y-92710000D03*
D13*
G36*
X164865346Y-91636589D02*
X164897380Y-91641341D01*
X164928794Y-91649210D01*
X164959286Y-91660120D01*
X164988561Y-91673966D01*
X165016338Y-91690615D01*
X165042350Y-91709907D01*
X165066345Y-91731655D01*
X165088093Y-91755650D01*
X165107385Y-91781662D01*
X165124034Y-91809439D01*
X165137880Y-91838714D01*
X165148790Y-91869206D01*
X165156659Y-91900620D01*
X165161411Y-91932654D01*
X165163000Y-91965000D01*
X165163000Y-93455000D01*
X165161411Y-93487346D01*
X165156659Y-93519380D01*
X165148790Y-93550794D01*
X165137880Y-93581286D01*
X165124034Y-93610561D01*
X165107385Y-93638338D01*
X165088093Y-93664350D01*
X165066345Y-93688345D01*
X165042350Y-93710093D01*
X165016338Y-93729385D01*
X164988561Y-93746034D01*
X164959286Y-93759880D01*
X164928794Y-93770790D01*
X164897380Y-93778659D01*
X164865346Y-93783411D01*
X164833000Y-93785000D01*
X163843000Y-93785000D01*
X163810654Y-93783411D01*
X163778620Y-93778659D01*
X163747206Y-93770790D01*
X163716714Y-93759880D01*
X163687439Y-93746034D01*
X163659662Y-93729385D01*
X163633650Y-93710093D01*
X163609655Y-93688345D01*
X163587907Y-93664350D01*
X163568615Y-93638338D01*
X163551966Y-93610561D01*
X163538120Y-93581286D01*
X163527210Y-93550794D01*
X163519341Y-93519380D01*
X163514589Y-93487346D01*
X163513000Y-93455000D01*
X163513000Y-91965000D01*
X163514589Y-91932654D01*
X163519341Y-91900620D01*
X163527210Y-91869206D01*
X163538120Y-91838714D01*
X163551966Y-91809439D01*
X163568615Y-91781662D01*
X163587907Y-91755650D01*
X163609655Y-91731655D01*
X163633650Y-91709907D01*
X163659662Y-91690615D01*
X163687439Y-91673966D01*
X163716714Y-91660120D01*
X163747206Y-91649210D01*
X163778620Y-91641341D01*
X163810654Y-91636589D01*
X163843000Y-91635000D01*
X164833000Y-91635000D01*
X164865346Y-91636589D01*
X164865346Y-91636589D01*
G37*
D14*
X164338000Y-92710000D03*
G04 #@! TD*
D13*
G04 #@! TO.C,C5*
G36*
X181117346Y-92388589D02*
X181149380Y-92393341D01*
X181180794Y-92401210D01*
X181211286Y-92412120D01*
X181240561Y-92425966D01*
X181268338Y-92442615D01*
X181294350Y-92461907D01*
X181318345Y-92483655D01*
X181340093Y-92507650D01*
X181359385Y-92533662D01*
X181376034Y-92561439D01*
X181389880Y-92590714D01*
X181400790Y-92621206D01*
X181408659Y-92652620D01*
X181413411Y-92684654D01*
X181415000Y-92717000D01*
X181415000Y-93707000D01*
X181413411Y-93739346D01*
X181408659Y-93771380D01*
X181400790Y-93802794D01*
X181389880Y-93833286D01*
X181376034Y-93862561D01*
X181359385Y-93890338D01*
X181340093Y-93916350D01*
X181318345Y-93940345D01*
X181294350Y-93962093D01*
X181268338Y-93981385D01*
X181240561Y-93998034D01*
X181211286Y-94011880D01*
X181180794Y-94022790D01*
X181149380Y-94030659D01*
X181117346Y-94035411D01*
X181085000Y-94037000D01*
X179595000Y-94037000D01*
X179562654Y-94035411D01*
X179530620Y-94030659D01*
X179499206Y-94022790D01*
X179468714Y-94011880D01*
X179439439Y-93998034D01*
X179411662Y-93981385D01*
X179385650Y-93962093D01*
X179361655Y-93940345D01*
X179339907Y-93916350D01*
X179320615Y-93890338D01*
X179303966Y-93862561D01*
X179290120Y-93833286D01*
X179279210Y-93802794D01*
X179271341Y-93771380D01*
X179266589Y-93739346D01*
X179265000Y-93707000D01*
X179265000Y-92717000D01*
X179266589Y-92684654D01*
X179271341Y-92652620D01*
X179279210Y-92621206D01*
X179290120Y-92590714D01*
X179303966Y-92561439D01*
X179320615Y-92533662D01*
X179339907Y-92507650D01*
X179361655Y-92483655D01*
X179385650Y-92461907D01*
X179411662Y-92442615D01*
X179439439Y-92425966D01*
X179468714Y-92412120D01*
X179499206Y-92401210D01*
X179530620Y-92393341D01*
X179562654Y-92388589D01*
X179595000Y-92387000D01*
X181085000Y-92387000D01*
X181117346Y-92388589D01*
X181117346Y-92388589D01*
G37*
D14*
X180340000Y-93212000D03*
D13*
G36*
X181117346Y-95188589D02*
X181149380Y-95193341D01*
X181180794Y-95201210D01*
X181211286Y-95212120D01*
X181240561Y-95225966D01*
X181268338Y-95242615D01*
X181294350Y-95261907D01*
X181318345Y-95283655D01*
X181340093Y-95307650D01*
X181359385Y-95333662D01*
X181376034Y-95361439D01*
X181389880Y-95390714D01*
X181400790Y-95421206D01*
X181408659Y-95452620D01*
X181413411Y-95484654D01*
X181415000Y-95517000D01*
X181415000Y-96507000D01*
X181413411Y-96539346D01*
X181408659Y-96571380D01*
X181400790Y-96602794D01*
X181389880Y-96633286D01*
X181376034Y-96662561D01*
X181359385Y-96690338D01*
X181340093Y-96716350D01*
X181318345Y-96740345D01*
X181294350Y-96762093D01*
X181268338Y-96781385D01*
X181240561Y-96798034D01*
X181211286Y-96811880D01*
X181180794Y-96822790D01*
X181149380Y-96830659D01*
X181117346Y-96835411D01*
X181085000Y-96837000D01*
X179595000Y-96837000D01*
X179562654Y-96835411D01*
X179530620Y-96830659D01*
X179499206Y-96822790D01*
X179468714Y-96811880D01*
X179439439Y-96798034D01*
X179411662Y-96781385D01*
X179385650Y-96762093D01*
X179361655Y-96740345D01*
X179339907Y-96716350D01*
X179320615Y-96690338D01*
X179303966Y-96662561D01*
X179290120Y-96633286D01*
X179279210Y-96602794D01*
X179271341Y-96571380D01*
X179266589Y-96539346D01*
X179265000Y-96507000D01*
X179265000Y-95517000D01*
X179266589Y-95484654D01*
X179271341Y-95452620D01*
X179279210Y-95421206D01*
X179290120Y-95390714D01*
X179303966Y-95361439D01*
X179320615Y-95333662D01*
X179339907Y-95307650D01*
X179361655Y-95283655D01*
X179385650Y-95261907D01*
X179411662Y-95242615D01*
X179439439Y-95225966D01*
X179468714Y-95212120D01*
X179499206Y-95201210D01*
X179530620Y-95193341D01*
X179562654Y-95188589D01*
X179595000Y-95187000D01*
X181085000Y-95187000D01*
X181117346Y-95188589D01*
X181117346Y-95188589D01*
G37*
D14*
X180340000Y-96012000D03*
G04 #@! TD*
D13*
G04 #@! TO.C,C6*
G36*
X177561346Y-92394589D02*
X177593380Y-92399341D01*
X177624794Y-92407210D01*
X177655286Y-92418120D01*
X177684561Y-92431966D01*
X177712338Y-92448615D01*
X177738350Y-92467907D01*
X177762345Y-92489655D01*
X177784093Y-92513650D01*
X177803385Y-92539662D01*
X177820034Y-92567439D01*
X177833880Y-92596714D01*
X177844790Y-92627206D01*
X177852659Y-92658620D01*
X177857411Y-92690654D01*
X177859000Y-92723000D01*
X177859000Y-93713000D01*
X177857411Y-93745346D01*
X177852659Y-93777380D01*
X177844790Y-93808794D01*
X177833880Y-93839286D01*
X177820034Y-93868561D01*
X177803385Y-93896338D01*
X177784093Y-93922350D01*
X177762345Y-93946345D01*
X177738350Y-93968093D01*
X177712338Y-93987385D01*
X177684561Y-94004034D01*
X177655286Y-94017880D01*
X177624794Y-94028790D01*
X177593380Y-94036659D01*
X177561346Y-94041411D01*
X177529000Y-94043000D01*
X176039000Y-94043000D01*
X176006654Y-94041411D01*
X175974620Y-94036659D01*
X175943206Y-94028790D01*
X175912714Y-94017880D01*
X175883439Y-94004034D01*
X175855662Y-93987385D01*
X175829650Y-93968093D01*
X175805655Y-93946345D01*
X175783907Y-93922350D01*
X175764615Y-93896338D01*
X175747966Y-93868561D01*
X175734120Y-93839286D01*
X175723210Y-93808794D01*
X175715341Y-93777380D01*
X175710589Y-93745346D01*
X175709000Y-93713000D01*
X175709000Y-92723000D01*
X175710589Y-92690654D01*
X175715341Y-92658620D01*
X175723210Y-92627206D01*
X175734120Y-92596714D01*
X175747966Y-92567439D01*
X175764615Y-92539662D01*
X175783907Y-92513650D01*
X175805655Y-92489655D01*
X175829650Y-92467907D01*
X175855662Y-92448615D01*
X175883439Y-92431966D01*
X175912714Y-92418120D01*
X175943206Y-92407210D01*
X175974620Y-92399341D01*
X176006654Y-92394589D01*
X176039000Y-92393000D01*
X177529000Y-92393000D01*
X177561346Y-92394589D01*
X177561346Y-92394589D01*
G37*
D14*
X176784000Y-93218000D03*
D13*
G36*
X177561346Y-95194589D02*
X177593380Y-95199341D01*
X177624794Y-95207210D01*
X177655286Y-95218120D01*
X177684561Y-95231966D01*
X177712338Y-95248615D01*
X177738350Y-95267907D01*
X177762345Y-95289655D01*
X177784093Y-95313650D01*
X177803385Y-95339662D01*
X177820034Y-95367439D01*
X177833880Y-95396714D01*
X177844790Y-95427206D01*
X177852659Y-95458620D01*
X177857411Y-95490654D01*
X177859000Y-95523000D01*
X177859000Y-96513000D01*
X177857411Y-96545346D01*
X177852659Y-96577380D01*
X177844790Y-96608794D01*
X177833880Y-96639286D01*
X177820034Y-96668561D01*
X177803385Y-96696338D01*
X177784093Y-96722350D01*
X177762345Y-96746345D01*
X177738350Y-96768093D01*
X177712338Y-96787385D01*
X177684561Y-96804034D01*
X177655286Y-96817880D01*
X177624794Y-96828790D01*
X177593380Y-96836659D01*
X177561346Y-96841411D01*
X177529000Y-96843000D01*
X176039000Y-96843000D01*
X176006654Y-96841411D01*
X175974620Y-96836659D01*
X175943206Y-96828790D01*
X175912714Y-96817880D01*
X175883439Y-96804034D01*
X175855662Y-96787385D01*
X175829650Y-96768093D01*
X175805655Y-96746345D01*
X175783907Y-96722350D01*
X175764615Y-96696338D01*
X175747966Y-96668561D01*
X175734120Y-96639286D01*
X175723210Y-96608794D01*
X175715341Y-96577380D01*
X175710589Y-96545346D01*
X175709000Y-96513000D01*
X175709000Y-95523000D01*
X175710589Y-95490654D01*
X175715341Y-95458620D01*
X175723210Y-95427206D01*
X175734120Y-95396714D01*
X175747966Y-95367439D01*
X175764615Y-95339662D01*
X175783907Y-95313650D01*
X175805655Y-95289655D01*
X175829650Y-95267907D01*
X175855662Y-95248615D01*
X175883439Y-95231966D01*
X175912714Y-95218120D01*
X175943206Y-95207210D01*
X175974620Y-95199341D01*
X176006654Y-95194589D01*
X176039000Y-95193000D01*
X177529000Y-95193000D01*
X177561346Y-95194589D01*
X177561346Y-95194589D01*
G37*
D14*
X176784000Y-96018000D03*
G04 #@! TD*
D15*
G04 #@! TO.C,J1*
X183896000Y-95758000D03*
X183896000Y-93218000D03*
D16*
X183896000Y-90678000D03*
G04 #@! TD*
D13*
G04 #@! TO.C,R1*
G36*
X171091346Y-88080589D02*
X171123380Y-88085341D01*
X171154794Y-88093210D01*
X171185286Y-88104120D01*
X171214561Y-88117966D01*
X171242338Y-88134615D01*
X171268350Y-88153907D01*
X171292345Y-88175655D01*
X171314093Y-88199650D01*
X171333385Y-88225662D01*
X171350034Y-88253439D01*
X171363880Y-88282714D01*
X171374790Y-88313206D01*
X171382659Y-88344620D01*
X171387411Y-88376654D01*
X171389000Y-88409000D01*
X171389000Y-89899000D01*
X171387411Y-89931346D01*
X171382659Y-89963380D01*
X171374790Y-89994794D01*
X171363880Y-90025286D01*
X171350034Y-90054561D01*
X171333385Y-90082338D01*
X171314093Y-90108350D01*
X171292345Y-90132345D01*
X171268350Y-90154093D01*
X171242338Y-90173385D01*
X171214561Y-90190034D01*
X171185286Y-90203880D01*
X171154794Y-90214790D01*
X171123380Y-90222659D01*
X171091346Y-90227411D01*
X171059000Y-90229000D01*
X170069000Y-90229000D01*
X170036654Y-90227411D01*
X170004620Y-90222659D01*
X169973206Y-90214790D01*
X169942714Y-90203880D01*
X169913439Y-90190034D01*
X169885662Y-90173385D01*
X169859650Y-90154093D01*
X169835655Y-90132345D01*
X169813907Y-90108350D01*
X169794615Y-90082338D01*
X169777966Y-90054561D01*
X169764120Y-90025286D01*
X169753210Y-89994794D01*
X169745341Y-89963380D01*
X169740589Y-89931346D01*
X169739000Y-89899000D01*
X169739000Y-88409000D01*
X169740589Y-88376654D01*
X169745341Y-88344620D01*
X169753210Y-88313206D01*
X169764120Y-88282714D01*
X169777966Y-88253439D01*
X169794615Y-88225662D01*
X169813907Y-88199650D01*
X169835655Y-88175655D01*
X169859650Y-88153907D01*
X169885662Y-88134615D01*
X169913439Y-88117966D01*
X169942714Y-88104120D01*
X169973206Y-88093210D01*
X170004620Y-88085341D01*
X170036654Y-88080589D01*
X170069000Y-88079000D01*
X171059000Y-88079000D01*
X171091346Y-88080589D01*
X171091346Y-88080589D01*
G37*
D14*
X170564000Y-89154000D03*
D13*
G36*
X168291346Y-88080589D02*
X168323380Y-88085341D01*
X168354794Y-88093210D01*
X168385286Y-88104120D01*
X168414561Y-88117966D01*
X168442338Y-88134615D01*
X168468350Y-88153907D01*
X168492345Y-88175655D01*
X168514093Y-88199650D01*
X168533385Y-88225662D01*
X168550034Y-88253439D01*
X168563880Y-88282714D01*
X168574790Y-88313206D01*
X168582659Y-88344620D01*
X168587411Y-88376654D01*
X168589000Y-88409000D01*
X168589000Y-89899000D01*
X168587411Y-89931346D01*
X168582659Y-89963380D01*
X168574790Y-89994794D01*
X168563880Y-90025286D01*
X168550034Y-90054561D01*
X168533385Y-90082338D01*
X168514093Y-90108350D01*
X168492345Y-90132345D01*
X168468350Y-90154093D01*
X168442338Y-90173385D01*
X168414561Y-90190034D01*
X168385286Y-90203880D01*
X168354794Y-90214790D01*
X168323380Y-90222659D01*
X168291346Y-90227411D01*
X168259000Y-90229000D01*
X167269000Y-90229000D01*
X167236654Y-90227411D01*
X167204620Y-90222659D01*
X167173206Y-90214790D01*
X167142714Y-90203880D01*
X167113439Y-90190034D01*
X167085662Y-90173385D01*
X167059650Y-90154093D01*
X167035655Y-90132345D01*
X167013907Y-90108350D01*
X166994615Y-90082338D01*
X166977966Y-90054561D01*
X166964120Y-90025286D01*
X166953210Y-89994794D01*
X166945341Y-89963380D01*
X166940589Y-89931346D01*
X166939000Y-89899000D01*
X166939000Y-88409000D01*
X166940589Y-88376654D01*
X166945341Y-88344620D01*
X166953210Y-88313206D01*
X166964120Y-88282714D01*
X166977966Y-88253439D01*
X166994615Y-88225662D01*
X167013907Y-88199650D01*
X167035655Y-88175655D01*
X167059650Y-88153907D01*
X167085662Y-88134615D01*
X167113439Y-88117966D01*
X167142714Y-88104120D01*
X167173206Y-88093210D01*
X167204620Y-88085341D01*
X167236654Y-88080589D01*
X167269000Y-88079000D01*
X168259000Y-88079000D01*
X168291346Y-88080589D01*
X168291346Y-88080589D01*
G37*
D14*
X167764000Y-89154000D03*
G04 #@! TD*
D13*
G04 #@! TO.C,R2*
G36*
X164995346Y-94176589D02*
X165027380Y-94181341D01*
X165058794Y-94189210D01*
X165089286Y-94200120D01*
X165118561Y-94213966D01*
X165146338Y-94230615D01*
X165172350Y-94249907D01*
X165196345Y-94271655D01*
X165218093Y-94295650D01*
X165237385Y-94321662D01*
X165254034Y-94349439D01*
X165267880Y-94378714D01*
X165278790Y-94409206D01*
X165286659Y-94440620D01*
X165291411Y-94472654D01*
X165293000Y-94505000D01*
X165293000Y-95995000D01*
X165291411Y-96027346D01*
X165286659Y-96059380D01*
X165278790Y-96090794D01*
X165267880Y-96121286D01*
X165254034Y-96150561D01*
X165237385Y-96178338D01*
X165218093Y-96204350D01*
X165196345Y-96228345D01*
X165172350Y-96250093D01*
X165146338Y-96269385D01*
X165118561Y-96286034D01*
X165089286Y-96299880D01*
X165058794Y-96310790D01*
X165027380Y-96318659D01*
X164995346Y-96323411D01*
X164963000Y-96325000D01*
X163973000Y-96325000D01*
X163940654Y-96323411D01*
X163908620Y-96318659D01*
X163877206Y-96310790D01*
X163846714Y-96299880D01*
X163817439Y-96286034D01*
X163789662Y-96269385D01*
X163763650Y-96250093D01*
X163739655Y-96228345D01*
X163717907Y-96204350D01*
X163698615Y-96178338D01*
X163681966Y-96150561D01*
X163668120Y-96121286D01*
X163657210Y-96090794D01*
X163649341Y-96059380D01*
X163644589Y-96027346D01*
X163643000Y-95995000D01*
X163643000Y-94505000D01*
X163644589Y-94472654D01*
X163649341Y-94440620D01*
X163657210Y-94409206D01*
X163668120Y-94378714D01*
X163681966Y-94349439D01*
X163698615Y-94321662D01*
X163717907Y-94295650D01*
X163739655Y-94271655D01*
X163763650Y-94249907D01*
X163789662Y-94230615D01*
X163817439Y-94213966D01*
X163846714Y-94200120D01*
X163877206Y-94189210D01*
X163908620Y-94181341D01*
X163940654Y-94176589D01*
X163973000Y-94175000D01*
X164963000Y-94175000D01*
X164995346Y-94176589D01*
X164995346Y-94176589D01*
G37*
D14*
X164468000Y-95250000D03*
D13*
G36*
X162195346Y-94176589D02*
X162227380Y-94181341D01*
X162258794Y-94189210D01*
X162289286Y-94200120D01*
X162318561Y-94213966D01*
X162346338Y-94230615D01*
X162372350Y-94249907D01*
X162396345Y-94271655D01*
X162418093Y-94295650D01*
X162437385Y-94321662D01*
X162454034Y-94349439D01*
X162467880Y-94378714D01*
X162478790Y-94409206D01*
X162486659Y-94440620D01*
X162491411Y-94472654D01*
X162493000Y-94505000D01*
X162493000Y-95995000D01*
X162491411Y-96027346D01*
X162486659Y-96059380D01*
X162478790Y-96090794D01*
X162467880Y-96121286D01*
X162454034Y-96150561D01*
X162437385Y-96178338D01*
X162418093Y-96204350D01*
X162396345Y-96228345D01*
X162372350Y-96250093D01*
X162346338Y-96269385D01*
X162318561Y-96286034D01*
X162289286Y-96299880D01*
X162258794Y-96310790D01*
X162227380Y-96318659D01*
X162195346Y-96323411D01*
X162163000Y-96325000D01*
X161173000Y-96325000D01*
X161140654Y-96323411D01*
X161108620Y-96318659D01*
X161077206Y-96310790D01*
X161046714Y-96299880D01*
X161017439Y-96286034D01*
X160989662Y-96269385D01*
X160963650Y-96250093D01*
X160939655Y-96228345D01*
X160917907Y-96204350D01*
X160898615Y-96178338D01*
X160881966Y-96150561D01*
X160868120Y-96121286D01*
X160857210Y-96090794D01*
X160849341Y-96059380D01*
X160844589Y-96027346D01*
X160843000Y-95995000D01*
X160843000Y-94505000D01*
X160844589Y-94472654D01*
X160849341Y-94440620D01*
X160857210Y-94409206D01*
X160868120Y-94378714D01*
X160881966Y-94349439D01*
X160898615Y-94321662D01*
X160917907Y-94295650D01*
X160939655Y-94271655D01*
X160963650Y-94249907D01*
X160989662Y-94230615D01*
X161017439Y-94213966D01*
X161046714Y-94200120D01*
X161077206Y-94189210D01*
X161108620Y-94181341D01*
X161140654Y-94176589D01*
X161173000Y-94175000D01*
X162163000Y-94175000D01*
X162195346Y-94176589D01*
X162195346Y-94176589D01*
G37*
D14*
X161668000Y-95250000D03*
G04 #@! TD*
D13*
G04 #@! TO.C,R3*
G36*
X167147346Y-99890589D02*
X167179380Y-99895341D01*
X167210794Y-99903210D01*
X167241286Y-99914120D01*
X167270561Y-99927966D01*
X167298338Y-99944615D01*
X167324350Y-99963907D01*
X167348345Y-99985655D01*
X167370093Y-100009650D01*
X167389385Y-100035662D01*
X167406034Y-100063439D01*
X167419880Y-100092714D01*
X167430790Y-100123206D01*
X167438659Y-100154620D01*
X167443411Y-100186654D01*
X167445000Y-100219000D01*
X167445000Y-101209000D01*
X167443411Y-101241346D01*
X167438659Y-101273380D01*
X167430790Y-101304794D01*
X167419880Y-101335286D01*
X167406034Y-101364561D01*
X167389385Y-101392338D01*
X167370093Y-101418350D01*
X167348345Y-101442345D01*
X167324350Y-101464093D01*
X167298338Y-101483385D01*
X167270561Y-101500034D01*
X167241286Y-101513880D01*
X167210794Y-101524790D01*
X167179380Y-101532659D01*
X167147346Y-101537411D01*
X167115000Y-101539000D01*
X165625000Y-101539000D01*
X165592654Y-101537411D01*
X165560620Y-101532659D01*
X165529206Y-101524790D01*
X165498714Y-101513880D01*
X165469439Y-101500034D01*
X165441662Y-101483385D01*
X165415650Y-101464093D01*
X165391655Y-101442345D01*
X165369907Y-101418350D01*
X165350615Y-101392338D01*
X165333966Y-101364561D01*
X165320120Y-101335286D01*
X165309210Y-101304794D01*
X165301341Y-101273380D01*
X165296589Y-101241346D01*
X165295000Y-101209000D01*
X165295000Y-100219000D01*
X165296589Y-100186654D01*
X165301341Y-100154620D01*
X165309210Y-100123206D01*
X165320120Y-100092714D01*
X165333966Y-100063439D01*
X165350615Y-100035662D01*
X165369907Y-100009650D01*
X165391655Y-99985655D01*
X165415650Y-99963907D01*
X165441662Y-99944615D01*
X165469439Y-99927966D01*
X165498714Y-99914120D01*
X165529206Y-99903210D01*
X165560620Y-99895341D01*
X165592654Y-99890589D01*
X165625000Y-99889000D01*
X167115000Y-99889000D01*
X167147346Y-99890589D01*
X167147346Y-99890589D01*
G37*
D14*
X166370000Y-100714000D03*
D13*
G36*
X167147346Y-97090589D02*
X167179380Y-97095341D01*
X167210794Y-97103210D01*
X167241286Y-97114120D01*
X167270561Y-97127966D01*
X167298338Y-97144615D01*
X167324350Y-97163907D01*
X167348345Y-97185655D01*
X167370093Y-97209650D01*
X167389385Y-97235662D01*
X167406034Y-97263439D01*
X167419880Y-97292714D01*
X167430790Y-97323206D01*
X167438659Y-97354620D01*
X167443411Y-97386654D01*
X167445000Y-97419000D01*
X167445000Y-98409000D01*
X167443411Y-98441346D01*
X167438659Y-98473380D01*
X167430790Y-98504794D01*
X167419880Y-98535286D01*
X167406034Y-98564561D01*
X167389385Y-98592338D01*
X167370093Y-98618350D01*
X167348345Y-98642345D01*
X167324350Y-98664093D01*
X167298338Y-98683385D01*
X167270561Y-98700034D01*
X167241286Y-98713880D01*
X167210794Y-98724790D01*
X167179380Y-98732659D01*
X167147346Y-98737411D01*
X167115000Y-98739000D01*
X165625000Y-98739000D01*
X165592654Y-98737411D01*
X165560620Y-98732659D01*
X165529206Y-98724790D01*
X165498714Y-98713880D01*
X165469439Y-98700034D01*
X165441662Y-98683385D01*
X165415650Y-98664093D01*
X165391655Y-98642345D01*
X165369907Y-98618350D01*
X165350615Y-98592338D01*
X165333966Y-98564561D01*
X165320120Y-98535286D01*
X165309210Y-98504794D01*
X165301341Y-98473380D01*
X165296589Y-98441346D01*
X165295000Y-98409000D01*
X165295000Y-97419000D01*
X165296589Y-97386654D01*
X165301341Y-97354620D01*
X165309210Y-97323206D01*
X165320120Y-97292714D01*
X165333966Y-97263439D01*
X165350615Y-97235662D01*
X165369907Y-97209650D01*
X165391655Y-97185655D01*
X165415650Y-97163907D01*
X165441662Y-97144615D01*
X165469439Y-97127966D01*
X165498714Y-97114120D01*
X165529206Y-97103210D01*
X165560620Y-97095341D01*
X165592654Y-97090589D01*
X165625000Y-97089000D01*
X167115000Y-97089000D01*
X167147346Y-97090589D01*
X167147346Y-97090589D01*
G37*
D14*
X166370000Y-97914000D03*
G04 #@! TD*
D13*
G04 #@! TO.C,R4*
G36*
X169941346Y-99890589D02*
X169973380Y-99895341D01*
X170004794Y-99903210D01*
X170035286Y-99914120D01*
X170064561Y-99927966D01*
X170092338Y-99944615D01*
X170118350Y-99963907D01*
X170142345Y-99985655D01*
X170164093Y-100009650D01*
X170183385Y-100035662D01*
X170200034Y-100063439D01*
X170213880Y-100092714D01*
X170224790Y-100123206D01*
X170232659Y-100154620D01*
X170237411Y-100186654D01*
X170239000Y-100219000D01*
X170239000Y-101209000D01*
X170237411Y-101241346D01*
X170232659Y-101273380D01*
X170224790Y-101304794D01*
X170213880Y-101335286D01*
X170200034Y-101364561D01*
X170183385Y-101392338D01*
X170164093Y-101418350D01*
X170142345Y-101442345D01*
X170118350Y-101464093D01*
X170092338Y-101483385D01*
X170064561Y-101500034D01*
X170035286Y-101513880D01*
X170004794Y-101524790D01*
X169973380Y-101532659D01*
X169941346Y-101537411D01*
X169909000Y-101539000D01*
X168419000Y-101539000D01*
X168386654Y-101537411D01*
X168354620Y-101532659D01*
X168323206Y-101524790D01*
X168292714Y-101513880D01*
X168263439Y-101500034D01*
X168235662Y-101483385D01*
X168209650Y-101464093D01*
X168185655Y-101442345D01*
X168163907Y-101418350D01*
X168144615Y-101392338D01*
X168127966Y-101364561D01*
X168114120Y-101335286D01*
X168103210Y-101304794D01*
X168095341Y-101273380D01*
X168090589Y-101241346D01*
X168089000Y-101209000D01*
X168089000Y-100219000D01*
X168090589Y-100186654D01*
X168095341Y-100154620D01*
X168103210Y-100123206D01*
X168114120Y-100092714D01*
X168127966Y-100063439D01*
X168144615Y-100035662D01*
X168163907Y-100009650D01*
X168185655Y-99985655D01*
X168209650Y-99963907D01*
X168235662Y-99944615D01*
X168263439Y-99927966D01*
X168292714Y-99914120D01*
X168323206Y-99903210D01*
X168354620Y-99895341D01*
X168386654Y-99890589D01*
X168419000Y-99889000D01*
X169909000Y-99889000D01*
X169941346Y-99890589D01*
X169941346Y-99890589D01*
G37*
D14*
X169164000Y-100714000D03*
D13*
G36*
X169941346Y-97090589D02*
X169973380Y-97095341D01*
X170004794Y-97103210D01*
X170035286Y-97114120D01*
X170064561Y-97127966D01*
X170092338Y-97144615D01*
X170118350Y-97163907D01*
X170142345Y-97185655D01*
X170164093Y-97209650D01*
X170183385Y-97235662D01*
X170200034Y-97263439D01*
X170213880Y-97292714D01*
X170224790Y-97323206D01*
X170232659Y-97354620D01*
X170237411Y-97386654D01*
X170239000Y-97419000D01*
X170239000Y-98409000D01*
X170237411Y-98441346D01*
X170232659Y-98473380D01*
X170224790Y-98504794D01*
X170213880Y-98535286D01*
X170200034Y-98564561D01*
X170183385Y-98592338D01*
X170164093Y-98618350D01*
X170142345Y-98642345D01*
X170118350Y-98664093D01*
X170092338Y-98683385D01*
X170064561Y-98700034D01*
X170035286Y-98713880D01*
X170004794Y-98724790D01*
X169973380Y-98732659D01*
X169941346Y-98737411D01*
X169909000Y-98739000D01*
X168419000Y-98739000D01*
X168386654Y-98737411D01*
X168354620Y-98732659D01*
X168323206Y-98724790D01*
X168292714Y-98713880D01*
X168263439Y-98700034D01*
X168235662Y-98683385D01*
X168209650Y-98664093D01*
X168185655Y-98642345D01*
X168163907Y-98618350D01*
X168144615Y-98592338D01*
X168127966Y-98564561D01*
X168114120Y-98535286D01*
X168103210Y-98504794D01*
X168095341Y-98473380D01*
X168090589Y-98441346D01*
X168089000Y-98409000D01*
X168089000Y-97419000D01*
X168090589Y-97386654D01*
X168095341Y-97354620D01*
X168103210Y-97323206D01*
X168114120Y-97292714D01*
X168127966Y-97263439D01*
X168144615Y-97235662D01*
X168163907Y-97209650D01*
X168185655Y-97185655D01*
X168209650Y-97163907D01*
X168235662Y-97144615D01*
X168263439Y-97127966D01*
X168292714Y-97114120D01*
X168323206Y-97103210D01*
X168354620Y-97095341D01*
X168386654Y-97090589D01*
X168419000Y-97089000D01*
X169909000Y-97089000D01*
X169941346Y-97090589D01*
X169941346Y-97090589D01*
G37*
D14*
X169164000Y-97914000D03*
G04 #@! TD*
D17*
G04 #@! TO.C,U1*
X170180000Y-93472000D03*
D18*
X167480000Y-95377000D03*
X167480000Y-94107000D03*
X167480000Y-92837000D03*
X167480000Y-91567000D03*
X172880000Y-91567000D03*
X172880000Y-92837000D03*
X172880000Y-94107000D03*
X172880000Y-95377000D03*
G04 #@! TD*
M02*
