G04 #@! TF.GenerationSoftware,KiCad,Pcbnew,(5.0.0)*
G04 #@! TF.CreationDate,2018-08-05T21:05:08-04:00*
G04 #@! TF.ProjectId,5vStepDown,357653746570446F776E2E6B69636164,rev?*
G04 #@! TF.SameCoordinates,Original*
G04 #@! TF.FileFunction,Legend,Top*
G04 #@! TF.FilePolarity,Positive*
%FSLAX46Y46*%
G04 Gerber Fmt 4.6, Leading zero omitted, Abs format (unit mm)*
G04 Created by KiCad (PCBNEW (5.0.0)) date 08/05/18 21:05:08*
%MOMM*%
%LPD*%
G01*
G04 APERTURE LIST*
%ADD10C,0.120000*%
%ADD11C,0.150000*%
%ADD12C,0.010000*%
G04 APERTURE END LIST*
D10*
G04 #@! TO.C,C1*
X176753225Y-87175000D02*
X176753225Y-87675000D01*
X176503225Y-87425000D02*
X177003225Y-87425000D01*
X181909000Y-88616000D02*
X181909000Y-89184000D01*
X181869000Y-88382000D02*
X181869000Y-89418000D01*
X181829000Y-88223000D02*
X181829000Y-89577000D01*
X181789000Y-88095000D02*
X181789000Y-89705000D01*
X181749000Y-87985000D02*
X181749000Y-89815000D01*
X181709000Y-87889000D02*
X181709000Y-89911000D01*
X181669000Y-87802000D02*
X181669000Y-89998000D01*
X181629000Y-87722000D02*
X181629000Y-90078000D01*
X181589000Y-87649000D02*
X181589000Y-90151000D01*
X181549000Y-87581000D02*
X181549000Y-90219000D01*
X181509000Y-87517000D02*
X181509000Y-90283000D01*
X181469000Y-87457000D02*
X181469000Y-90343000D01*
X181429000Y-87400000D02*
X181429000Y-90400000D01*
X181389000Y-87346000D02*
X181389000Y-90454000D01*
X181349000Y-87295000D02*
X181349000Y-90505000D01*
X181309000Y-89940000D02*
X181309000Y-90553000D01*
X181309000Y-87247000D02*
X181309000Y-87860000D01*
X181269000Y-89940000D02*
X181269000Y-90599000D01*
X181269000Y-87201000D02*
X181269000Y-87860000D01*
X181229000Y-89940000D02*
X181229000Y-90643000D01*
X181229000Y-87157000D02*
X181229000Y-87860000D01*
X181189000Y-89940000D02*
X181189000Y-90685000D01*
X181189000Y-87115000D02*
X181189000Y-87860000D01*
X181149000Y-89940000D02*
X181149000Y-90726000D01*
X181149000Y-87074000D02*
X181149000Y-87860000D01*
X181109000Y-89940000D02*
X181109000Y-90764000D01*
X181109000Y-87036000D02*
X181109000Y-87860000D01*
X181069000Y-89940000D02*
X181069000Y-90801000D01*
X181069000Y-86999000D02*
X181069000Y-87860000D01*
X181029000Y-89940000D02*
X181029000Y-90837000D01*
X181029000Y-86963000D02*
X181029000Y-87860000D01*
X180989000Y-89940000D02*
X180989000Y-90871000D01*
X180989000Y-86929000D02*
X180989000Y-87860000D01*
X180949000Y-89940000D02*
X180949000Y-90904000D01*
X180949000Y-86896000D02*
X180949000Y-87860000D01*
X180909000Y-89940000D02*
X180909000Y-90935000D01*
X180909000Y-86865000D02*
X180909000Y-87860000D01*
X180869000Y-89940000D02*
X180869000Y-90965000D01*
X180869000Y-86835000D02*
X180869000Y-87860000D01*
X180829000Y-89940000D02*
X180829000Y-90995000D01*
X180829000Y-86805000D02*
X180829000Y-87860000D01*
X180789000Y-89940000D02*
X180789000Y-91022000D01*
X180789000Y-86778000D02*
X180789000Y-87860000D01*
X180749000Y-89940000D02*
X180749000Y-91049000D01*
X180749000Y-86751000D02*
X180749000Y-87860000D01*
X180709000Y-89940000D02*
X180709000Y-91075000D01*
X180709000Y-86725000D02*
X180709000Y-87860000D01*
X180669000Y-89940000D02*
X180669000Y-91100000D01*
X180669000Y-86700000D02*
X180669000Y-87860000D01*
X180629000Y-89940000D02*
X180629000Y-91124000D01*
X180629000Y-86676000D02*
X180629000Y-87860000D01*
X180589000Y-89940000D02*
X180589000Y-91147000D01*
X180589000Y-86653000D02*
X180589000Y-87860000D01*
X180549000Y-89940000D02*
X180549000Y-91168000D01*
X180549000Y-86632000D02*
X180549000Y-87860000D01*
X180509000Y-89940000D02*
X180509000Y-91190000D01*
X180509000Y-86610000D02*
X180509000Y-87860000D01*
X180469000Y-89940000D02*
X180469000Y-91210000D01*
X180469000Y-86590000D02*
X180469000Y-87860000D01*
X180429000Y-89940000D02*
X180429000Y-91229000D01*
X180429000Y-86571000D02*
X180429000Y-87860000D01*
X180389000Y-89940000D02*
X180389000Y-91248000D01*
X180389000Y-86552000D02*
X180389000Y-87860000D01*
X180349000Y-89940000D02*
X180349000Y-91265000D01*
X180349000Y-86535000D02*
X180349000Y-87860000D01*
X180309000Y-89940000D02*
X180309000Y-91282000D01*
X180309000Y-86518000D02*
X180309000Y-87860000D01*
X180269000Y-89940000D02*
X180269000Y-91298000D01*
X180269000Y-86502000D02*
X180269000Y-87860000D01*
X180229000Y-89940000D02*
X180229000Y-91314000D01*
X180229000Y-86486000D02*
X180229000Y-87860000D01*
X180189000Y-89940000D02*
X180189000Y-91328000D01*
X180189000Y-86472000D02*
X180189000Y-87860000D01*
X180149000Y-89940000D02*
X180149000Y-91342000D01*
X180149000Y-86458000D02*
X180149000Y-87860000D01*
X180109000Y-89940000D02*
X180109000Y-91355000D01*
X180109000Y-86445000D02*
X180109000Y-87860000D01*
X180069000Y-89940000D02*
X180069000Y-91368000D01*
X180069000Y-86432000D02*
X180069000Y-87860000D01*
X180029000Y-89940000D02*
X180029000Y-91380000D01*
X180029000Y-86420000D02*
X180029000Y-87860000D01*
X179988000Y-89940000D02*
X179988000Y-91391000D01*
X179988000Y-86409000D02*
X179988000Y-87860000D01*
X179948000Y-89940000D02*
X179948000Y-91401000D01*
X179948000Y-86399000D02*
X179948000Y-87860000D01*
X179908000Y-89940000D02*
X179908000Y-91411000D01*
X179908000Y-86389000D02*
X179908000Y-87860000D01*
X179868000Y-89940000D02*
X179868000Y-91420000D01*
X179868000Y-86380000D02*
X179868000Y-87860000D01*
X179828000Y-89940000D02*
X179828000Y-91428000D01*
X179828000Y-86372000D02*
X179828000Y-87860000D01*
X179788000Y-89940000D02*
X179788000Y-91436000D01*
X179788000Y-86364000D02*
X179788000Y-87860000D01*
X179748000Y-89940000D02*
X179748000Y-91443000D01*
X179748000Y-86357000D02*
X179748000Y-87860000D01*
X179708000Y-89940000D02*
X179708000Y-91450000D01*
X179708000Y-86350000D02*
X179708000Y-87860000D01*
X179668000Y-89940000D02*
X179668000Y-91456000D01*
X179668000Y-86344000D02*
X179668000Y-87860000D01*
X179628000Y-89940000D02*
X179628000Y-91461000D01*
X179628000Y-86339000D02*
X179628000Y-87860000D01*
X179588000Y-89940000D02*
X179588000Y-91465000D01*
X179588000Y-86335000D02*
X179588000Y-87860000D01*
X179548000Y-89940000D02*
X179548000Y-91469000D01*
X179548000Y-86331000D02*
X179548000Y-87860000D01*
X179508000Y-89940000D02*
X179508000Y-91473000D01*
X179508000Y-86327000D02*
X179508000Y-87860000D01*
X179468000Y-89940000D02*
X179468000Y-91476000D01*
X179468000Y-86324000D02*
X179468000Y-87860000D01*
X179428000Y-89940000D02*
X179428000Y-91478000D01*
X179428000Y-86322000D02*
X179428000Y-87860000D01*
X179388000Y-89940000D02*
X179388000Y-91479000D01*
X179388000Y-86321000D02*
X179388000Y-87860000D01*
X179348000Y-86320000D02*
X179348000Y-87860000D01*
X179348000Y-89940000D02*
X179348000Y-91480000D01*
X179308000Y-86320000D02*
X179308000Y-87860000D01*
X179308000Y-89940000D02*
X179308000Y-91480000D01*
X181928000Y-88900000D02*
G75*
G03X181928000Y-88900000I-2620000J0D01*
G01*
G04 #@! TO.C,10uH-4A1*
X183726000Y-102108000D02*
G75*
G03X183726000Y-102108000I-4870000J0D01*
G01*
G04 #@! TO.C,C2*
X171302000Y-100105936D02*
X171302000Y-101310064D01*
X173122000Y-100105936D02*
X173122000Y-101310064D01*
G04 #@! TO.C,C3*
X162176786Y-98595554D02*
X162176786Y-99799682D01*
X163996786Y-98595554D02*
X163996786Y-99799682D01*
G04 #@! TO.C,C4*
X163540064Y-91800000D02*
X162335936Y-91800000D01*
X163540064Y-93620000D02*
X162335936Y-93620000D01*
G04 #@! TO.C,C5*
X181250000Y-95214064D02*
X181250000Y-94009936D01*
X179430000Y-95214064D02*
X179430000Y-94009936D01*
G04 #@! TO.C,C6*
X177694000Y-95220064D02*
X177694000Y-94015936D01*
X175874000Y-95220064D02*
X175874000Y-94015936D01*
G04 #@! TO.C,J1*
X182626000Y-89408000D02*
X183896000Y-89408000D01*
X182626000Y-90678000D02*
X182626000Y-89408000D01*
X184938929Y-96138000D02*
X185336000Y-96138000D01*
X184938929Y-95378000D02*
X185336000Y-95378000D01*
X193996000Y-96138000D02*
X187996000Y-96138000D01*
X193996000Y-95378000D02*
X193996000Y-96138000D01*
X187996000Y-95378000D02*
X193996000Y-95378000D01*
X185336000Y-94488000D02*
X187996000Y-94488000D01*
X184938929Y-93598000D02*
X185336000Y-93598000D01*
X184938929Y-92838000D02*
X185336000Y-92838000D01*
X193996000Y-93598000D02*
X187996000Y-93598000D01*
X193996000Y-92838000D02*
X193996000Y-93598000D01*
X187996000Y-92838000D02*
X193996000Y-92838000D01*
X185336000Y-91948000D02*
X187996000Y-91948000D01*
X185006000Y-91058000D02*
X185336000Y-91058000D01*
X185006000Y-90298000D02*
X185336000Y-90298000D01*
X187996000Y-90958000D02*
X193996000Y-90958000D01*
X187996000Y-90838000D02*
X193996000Y-90838000D01*
X187996000Y-90718000D02*
X193996000Y-90718000D01*
X187996000Y-90598000D02*
X193996000Y-90598000D01*
X187996000Y-90478000D02*
X193996000Y-90478000D01*
X187996000Y-90358000D02*
X193996000Y-90358000D01*
X193996000Y-91058000D02*
X187996000Y-91058000D01*
X193996000Y-90298000D02*
X193996000Y-91058000D01*
X187996000Y-90298000D02*
X193996000Y-90298000D01*
X187996000Y-89348000D02*
X185336000Y-89348000D01*
X187996000Y-97088000D02*
X187996000Y-89348000D01*
X185336000Y-97088000D02*
X187996000Y-97088000D01*
X185336000Y-89348000D02*
X185336000Y-97088000D01*
G04 #@! TO.C,R1*
X168561936Y-90064000D02*
X169766064Y-90064000D01*
X168561936Y-88244000D02*
X169766064Y-88244000D01*
G04 #@! TO.C,R2*
X162465936Y-96160000D02*
X163670064Y-96160000D01*
X162465936Y-94340000D02*
X163670064Y-94340000D01*
G04 #@! TO.C,R3*
X165460000Y-98711936D02*
X165460000Y-99916064D01*
X167280000Y-98711936D02*
X167280000Y-99916064D01*
G04 #@! TO.C,R4*
X168254000Y-98711936D02*
X168254000Y-99916064D01*
X170074000Y-98711936D02*
X170074000Y-99916064D01*
D11*
G04 #@! TO.C,U1*
X172255000Y-95997000D02*
X173655000Y-95997000D01*
X172255000Y-90897000D02*
X168105000Y-90897000D01*
X172255000Y-96047000D02*
X168105000Y-96047000D01*
X172255000Y-90897000D02*
X172255000Y-91042000D01*
X168105000Y-90897000D02*
X168105000Y-91042000D01*
X168105000Y-96047000D02*
X168105000Y-95902000D01*
X172255000Y-96047000D02*
X172255000Y-95997000D01*
D12*
G04 #@! TO.C,G\002A\002A\002A*
G36*
X167627681Y-103491735D02*
X167627716Y-103499971D01*
X167627644Y-103513102D01*
X167627469Y-103530754D01*
X167627198Y-103552553D01*
X167626835Y-103578125D01*
X167626386Y-103607095D01*
X167625857Y-103639091D01*
X167625254Y-103673738D01*
X167624581Y-103710661D01*
X167623845Y-103749487D01*
X167623207Y-103781965D01*
X167622401Y-103822738D01*
X167621629Y-103862379D01*
X167620897Y-103900466D01*
X167620214Y-103936575D01*
X167619587Y-103970286D01*
X167619024Y-104001175D01*
X167618533Y-104028820D01*
X167618121Y-104052800D01*
X167617796Y-104072692D01*
X167617565Y-104088073D01*
X167617436Y-104098521D01*
X167617411Y-104102606D01*
X167617423Y-104131534D01*
X167495446Y-104131534D01*
X167497201Y-104074384D01*
X167497752Y-104055263D01*
X167498331Y-104033040D01*
X167498927Y-104008256D01*
X167499531Y-103981452D01*
X167500135Y-103953169D01*
X167500728Y-103923949D01*
X167501301Y-103894331D01*
X167501844Y-103864859D01*
X167502349Y-103836071D01*
X167502806Y-103808510D01*
X167503205Y-103782716D01*
X167503536Y-103759231D01*
X167503791Y-103738595D01*
X167503960Y-103721350D01*
X167504034Y-103708037D01*
X167504002Y-103699196D01*
X167503856Y-103695370D01*
X167503821Y-103695258D01*
X167501250Y-103696451D01*
X167494031Y-103700231D01*
X167482448Y-103706439D01*
X167466788Y-103714921D01*
X167447335Y-103725519D01*
X167424374Y-103738077D01*
X167398190Y-103752439D01*
X167369069Y-103768447D01*
X167337296Y-103785946D01*
X167303156Y-103804779D01*
X167266934Y-103824789D01*
X167228915Y-103845820D01*
X167189385Y-103867716D01*
X167168417Y-103879341D01*
X167128151Y-103901663D01*
X167089210Y-103923232D01*
X167051884Y-103943889D01*
X167016461Y-103963475D01*
X166983229Y-103981831D01*
X166952477Y-103998798D01*
X166924494Y-104014217D01*
X166899568Y-104027929D01*
X166877988Y-104039775D01*
X166860043Y-104049596D01*
X166846021Y-104057234D01*
X166836211Y-104062528D01*
X166830901Y-104065320D01*
X166830023Y-104065729D01*
X166827359Y-104064247D01*
X166822926Y-104058702D01*
X166816551Y-104048828D01*
X166808059Y-104034358D01*
X166798978Y-104018122D01*
X166790670Y-104002890D01*
X166783339Y-103989160D01*
X166777418Y-103977764D01*
X166773337Y-103969537D01*
X166771529Y-103965310D01*
X166771486Y-103965121D01*
X166773147Y-103963294D01*
X166778500Y-103959531D01*
X166787681Y-103953753D01*
X166800827Y-103945883D01*
X166818075Y-103935842D01*
X166839562Y-103923550D01*
X166865426Y-103908929D01*
X166895802Y-103891901D01*
X166930828Y-103872386D01*
X166970640Y-103850306D01*
X166985975Y-103841823D01*
X167025284Y-103820085D01*
X167068414Y-103796225D01*
X167114344Y-103770809D01*
X167162054Y-103744402D01*
X167210522Y-103717569D01*
X167258728Y-103690876D01*
X167305649Y-103664889D01*
X167350264Y-103640172D01*
X167391553Y-103617290D01*
X167413597Y-103605071D01*
X167445533Y-103587391D01*
X167476048Y-103570549D01*
X167504781Y-103554741D01*
X167531375Y-103540161D01*
X167555470Y-103527004D01*
X167576707Y-103515467D01*
X167594727Y-103505743D01*
X167609171Y-103498028D01*
X167619680Y-103492517D01*
X167625896Y-103489405D01*
X167627532Y-103488769D01*
X167627681Y-103491735D01*
X167627681Y-103491735D01*
G37*
X167627681Y-103491735D02*
X167627716Y-103499971D01*
X167627644Y-103513102D01*
X167627469Y-103530754D01*
X167627198Y-103552553D01*
X167626835Y-103578125D01*
X167626386Y-103607095D01*
X167625857Y-103639091D01*
X167625254Y-103673738D01*
X167624581Y-103710661D01*
X167623845Y-103749487D01*
X167623207Y-103781965D01*
X167622401Y-103822738D01*
X167621629Y-103862379D01*
X167620897Y-103900466D01*
X167620214Y-103936575D01*
X167619587Y-103970286D01*
X167619024Y-104001175D01*
X167618533Y-104028820D01*
X167618121Y-104052800D01*
X167617796Y-104072692D01*
X167617565Y-104088073D01*
X167617436Y-104098521D01*
X167617411Y-104102606D01*
X167617423Y-104131534D01*
X167495446Y-104131534D01*
X167497201Y-104074384D01*
X167497752Y-104055263D01*
X167498331Y-104033040D01*
X167498927Y-104008256D01*
X167499531Y-103981452D01*
X167500135Y-103953169D01*
X167500728Y-103923949D01*
X167501301Y-103894331D01*
X167501844Y-103864859D01*
X167502349Y-103836071D01*
X167502806Y-103808510D01*
X167503205Y-103782716D01*
X167503536Y-103759231D01*
X167503791Y-103738595D01*
X167503960Y-103721350D01*
X167504034Y-103708037D01*
X167504002Y-103699196D01*
X167503856Y-103695370D01*
X167503821Y-103695258D01*
X167501250Y-103696451D01*
X167494031Y-103700231D01*
X167482448Y-103706439D01*
X167466788Y-103714921D01*
X167447335Y-103725519D01*
X167424374Y-103738077D01*
X167398190Y-103752439D01*
X167369069Y-103768447D01*
X167337296Y-103785946D01*
X167303156Y-103804779D01*
X167266934Y-103824789D01*
X167228915Y-103845820D01*
X167189385Y-103867716D01*
X167168417Y-103879341D01*
X167128151Y-103901663D01*
X167089210Y-103923232D01*
X167051884Y-103943889D01*
X167016461Y-103963475D01*
X166983229Y-103981831D01*
X166952477Y-103998798D01*
X166924494Y-104014217D01*
X166899568Y-104027929D01*
X166877988Y-104039775D01*
X166860043Y-104049596D01*
X166846021Y-104057234D01*
X166836211Y-104062528D01*
X166830901Y-104065320D01*
X166830023Y-104065729D01*
X166827359Y-104064247D01*
X166822926Y-104058702D01*
X166816551Y-104048828D01*
X166808059Y-104034358D01*
X166798978Y-104018122D01*
X166790670Y-104002890D01*
X166783339Y-103989160D01*
X166777418Y-103977764D01*
X166773337Y-103969537D01*
X166771529Y-103965310D01*
X166771486Y-103965121D01*
X166773147Y-103963294D01*
X166778500Y-103959531D01*
X166787681Y-103953753D01*
X166800827Y-103945883D01*
X166818075Y-103935842D01*
X166839562Y-103923550D01*
X166865426Y-103908929D01*
X166895802Y-103891901D01*
X166930828Y-103872386D01*
X166970640Y-103850306D01*
X166985975Y-103841823D01*
X167025284Y-103820085D01*
X167068414Y-103796225D01*
X167114344Y-103770809D01*
X167162054Y-103744402D01*
X167210522Y-103717569D01*
X167258728Y-103690876D01*
X167305649Y-103664889D01*
X167350264Y-103640172D01*
X167391553Y-103617290D01*
X167413597Y-103605071D01*
X167445533Y-103587391D01*
X167476048Y-103570549D01*
X167504781Y-103554741D01*
X167531375Y-103540161D01*
X167555470Y-103527004D01*
X167576707Y-103515467D01*
X167594727Y-103505743D01*
X167609171Y-103498028D01*
X167619680Y-103492517D01*
X167625896Y-103489405D01*
X167627532Y-103488769D01*
X167627681Y-103491735D01*
G36*
X165208208Y-103489914D02*
X165215427Y-103493598D01*
X165226899Y-103499656D01*
X165242282Y-103507905D01*
X165261236Y-103518158D01*
X165283423Y-103530231D01*
X165308501Y-103543938D01*
X165336130Y-103559094D01*
X165365972Y-103575515D01*
X165397685Y-103593014D01*
X165430929Y-103611407D01*
X165443527Y-103618388D01*
X165483028Y-103640287D01*
X165525237Y-103663678D01*
X165569331Y-103688106D01*
X165614488Y-103713116D01*
X165659887Y-103738254D01*
X165704706Y-103763064D01*
X165748124Y-103787092D01*
X165789318Y-103809882D01*
X165827468Y-103830981D01*
X165861750Y-103849932D01*
X165871176Y-103855141D01*
X165907439Y-103875200D01*
X165939031Y-103892731D01*
X165966239Y-103907900D01*
X165989349Y-103920875D01*
X166008650Y-103931823D01*
X166024429Y-103940911D01*
X166036973Y-103948307D01*
X166046568Y-103954178D01*
X166053504Y-103958692D01*
X166058066Y-103962016D01*
X166060542Y-103964317D01*
X166061219Y-103965762D01*
X166061205Y-103965841D01*
X166059522Y-103969810D01*
X166055537Y-103977853D01*
X166049697Y-103989112D01*
X166042445Y-104002731D01*
X166034229Y-104017852D01*
X166033685Y-104018842D01*
X166023352Y-104037306D01*
X166015272Y-104050943D01*
X166009271Y-104060022D01*
X166005172Y-104064812D01*
X166003111Y-104065729D01*
X166000175Y-104064255D01*
X165992593Y-104060200D01*
X165980654Y-104053722D01*
X165964646Y-104044979D01*
X165944859Y-104034132D01*
X165921580Y-104021339D01*
X165895099Y-104006759D01*
X165865704Y-103990551D01*
X165833684Y-103972874D01*
X165799327Y-103953887D01*
X165762922Y-103933749D01*
X165724758Y-103912618D01*
X165685123Y-103890655D01*
X165664717Y-103879341D01*
X165624516Y-103857059D01*
X165585678Y-103835561D01*
X165548489Y-103815004D01*
X165513234Y-103795543D01*
X165480198Y-103777335D01*
X165449667Y-103760537D01*
X165421925Y-103745305D01*
X165397258Y-103731796D01*
X165375951Y-103720166D01*
X165358289Y-103710571D01*
X165344557Y-103703168D01*
X165335040Y-103698114D01*
X165330024Y-103695566D01*
X165329289Y-103695282D01*
X165329122Y-103698241D01*
X165329070Y-103706303D01*
X165329125Y-103718925D01*
X165329277Y-103735567D01*
X165329516Y-103755687D01*
X165329833Y-103778745D01*
X165330220Y-103804198D01*
X165330665Y-103831506D01*
X165331160Y-103860128D01*
X165331696Y-103889522D01*
X165332262Y-103919147D01*
X165332850Y-103948462D01*
X165333451Y-103976926D01*
X165334054Y-104003998D01*
X165334650Y-104029136D01*
X165335230Y-104051800D01*
X165335784Y-104071447D01*
X165335917Y-104075795D01*
X165337647Y-104131534D01*
X165215711Y-104131534D01*
X165215721Y-104102606D01*
X165215666Y-104095769D01*
X165215503Y-104083711D01*
X165215240Y-104066854D01*
X165214885Y-104045621D01*
X165214445Y-104020434D01*
X165213928Y-103991715D01*
X165213342Y-103959886D01*
X165212694Y-103925370D01*
X165211992Y-103888589D01*
X165211244Y-103849965D01*
X165210457Y-103809920D01*
X165209902Y-103781988D01*
X165209115Y-103741899D01*
X165208389Y-103703411D01*
X165207727Y-103666898D01*
X165207137Y-103632733D01*
X165206623Y-103601291D01*
X165206190Y-103572946D01*
X165205845Y-103548071D01*
X165205593Y-103527042D01*
X165205439Y-103510232D01*
X165205389Y-103498014D01*
X165205449Y-103490764D01*
X165205580Y-103488791D01*
X165208208Y-103489914D01*
X165208208Y-103489914D01*
G37*
X165208208Y-103489914D02*
X165215427Y-103493598D01*
X165226899Y-103499656D01*
X165242282Y-103507905D01*
X165261236Y-103518158D01*
X165283423Y-103530231D01*
X165308501Y-103543938D01*
X165336130Y-103559094D01*
X165365972Y-103575515D01*
X165397685Y-103593014D01*
X165430929Y-103611407D01*
X165443527Y-103618388D01*
X165483028Y-103640287D01*
X165525237Y-103663678D01*
X165569331Y-103688106D01*
X165614488Y-103713116D01*
X165659887Y-103738254D01*
X165704706Y-103763064D01*
X165748124Y-103787092D01*
X165789318Y-103809882D01*
X165827468Y-103830981D01*
X165861750Y-103849932D01*
X165871176Y-103855141D01*
X165907439Y-103875200D01*
X165939031Y-103892731D01*
X165966239Y-103907900D01*
X165989349Y-103920875D01*
X166008650Y-103931823D01*
X166024429Y-103940911D01*
X166036973Y-103948307D01*
X166046568Y-103954178D01*
X166053504Y-103958692D01*
X166058066Y-103962016D01*
X166060542Y-103964317D01*
X166061219Y-103965762D01*
X166061205Y-103965841D01*
X166059522Y-103969810D01*
X166055537Y-103977853D01*
X166049697Y-103989112D01*
X166042445Y-104002731D01*
X166034229Y-104017852D01*
X166033685Y-104018842D01*
X166023352Y-104037306D01*
X166015272Y-104050943D01*
X166009271Y-104060022D01*
X166005172Y-104064812D01*
X166003111Y-104065729D01*
X166000175Y-104064255D01*
X165992593Y-104060200D01*
X165980654Y-104053722D01*
X165964646Y-104044979D01*
X165944859Y-104034132D01*
X165921580Y-104021339D01*
X165895099Y-104006759D01*
X165865704Y-103990551D01*
X165833684Y-103972874D01*
X165799327Y-103953887D01*
X165762922Y-103933749D01*
X165724758Y-103912618D01*
X165685123Y-103890655D01*
X165664717Y-103879341D01*
X165624516Y-103857059D01*
X165585678Y-103835561D01*
X165548489Y-103815004D01*
X165513234Y-103795543D01*
X165480198Y-103777335D01*
X165449667Y-103760537D01*
X165421925Y-103745305D01*
X165397258Y-103731796D01*
X165375951Y-103720166D01*
X165358289Y-103710571D01*
X165344557Y-103703168D01*
X165335040Y-103698114D01*
X165330024Y-103695566D01*
X165329289Y-103695282D01*
X165329122Y-103698241D01*
X165329070Y-103706303D01*
X165329125Y-103718925D01*
X165329277Y-103735567D01*
X165329516Y-103755687D01*
X165329833Y-103778745D01*
X165330220Y-103804198D01*
X165330665Y-103831506D01*
X165331160Y-103860128D01*
X165331696Y-103889522D01*
X165332262Y-103919147D01*
X165332850Y-103948462D01*
X165333451Y-103976926D01*
X165334054Y-104003998D01*
X165334650Y-104029136D01*
X165335230Y-104051800D01*
X165335784Y-104071447D01*
X165335917Y-104075795D01*
X165337647Y-104131534D01*
X165215711Y-104131534D01*
X165215721Y-104102606D01*
X165215666Y-104095769D01*
X165215503Y-104083711D01*
X165215240Y-104066854D01*
X165214885Y-104045621D01*
X165214445Y-104020434D01*
X165213928Y-103991715D01*
X165213342Y-103959886D01*
X165212694Y-103925370D01*
X165211992Y-103888589D01*
X165211244Y-103849965D01*
X165210457Y-103809920D01*
X165209902Y-103781988D01*
X165209115Y-103741899D01*
X165208389Y-103703411D01*
X165207727Y-103666898D01*
X165207137Y-103632733D01*
X165206623Y-103601291D01*
X165206190Y-103572946D01*
X165205845Y-103548071D01*
X165205593Y-103527042D01*
X165205439Y-103510232D01*
X165205389Y-103498014D01*
X165205449Y-103490764D01*
X165205580Y-103488791D01*
X165208208Y-103489914D01*
G36*
X164751763Y-104465411D02*
X164759699Y-104467911D01*
X164772404Y-104471961D01*
X164789582Y-104477464D01*
X164810934Y-104484323D01*
X164836163Y-104492443D01*
X164864972Y-104501726D01*
X164897063Y-104512077D01*
X164932140Y-104523400D01*
X164969904Y-104535597D01*
X165010058Y-104548573D01*
X165052304Y-104562231D01*
X165096346Y-104576475D01*
X165141887Y-104591208D01*
X165188627Y-104606335D01*
X165236271Y-104621758D01*
X165284521Y-104637382D01*
X165333079Y-104653110D01*
X165381648Y-104668846D01*
X165429931Y-104684494D01*
X165477630Y-104699956D01*
X165524448Y-104715138D01*
X165570087Y-104729941D01*
X165614251Y-104744271D01*
X165656641Y-104758031D01*
X165696960Y-104771124D01*
X165734911Y-104783454D01*
X165770197Y-104794925D01*
X165802519Y-104805441D01*
X165831581Y-104814904D01*
X165857086Y-104823219D01*
X165878735Y-104830290D01*
X165896232Y-104836020D01*
X165909279Y-104840312D01*
X165917579Y-104843071D01*
X165920834Y-104844199D01*
X165920870Y-104844219D01*
X165920489Y-104847183D01*
X165918619Y-104854509D01*
X165915564Y-104865234D01*
X165911627Y-104878401D01*
X165907113Y-104893047D01*
X165902325Y-104908214D01*
X165897566Y-104922940D01*
X165893142Y-104936267D01*
X165889354Y-104947233D01*
X165886508Y-104954879D01*
X165884906Y-104958244D01*
X165884775Y-104958321D01*
X165881976Y-104957453D01*
X165874051Y-104954926D01*
X165861245Y-104950818D01*
X165843801Y-104945208D01*
X165821965Y-104938176D01*
X165795980Y-104929800D01*
X165766090Y-104920159D01*
X165732541Y-104909332D01*
X165695576Y-104897398D01*
X165655440Y-104884435D01*
X165612376Y-104870523D01*
X165566630Y-104855740D01*
X165518445Y-104840166D01*
X165468067Y-104823879D01*
X165415738Y-104806957D01*
X165361704Y-104789481D01*
X165306209Y-104771528D01*
X165297556Y-104768729D01*
X165241871Y-104750712D01*
X165187618Y-104733157D01*
X165135041Y-104716144D01*
X165084383Y-104699750D01*
X165035889Y-104684055D01*
X164989802Y-104669139D01*
X164946366Y-104655079D01*
X164905824Y-104641954D01*
X164868421Y-104629845D01*
X164834400Y-104618829D01*
X164804005Y-104608985D01*
X164777480Y-104600393D01*
X164755068Y-104593131D01*
X164737013Y-104587278D01*
X164723559Y-104582913D01*
X164714950Y-104580116D01*
X164711429Y-104578964D01*
X164711354Y-104578938D01*
X164711896Y-104576252D01*
X164713945Y-104569174D01*
X164717189Y-104558655D01*
X164721317Y-104545646D01*
X164726016Y-104531098D01*
X164730975Y-104515962D01*
X164735880Y-104501189D01*
X164740421Y-104487730D01*
X164744285Y-104476536D01*
X164747159Y-104468558D01*
X164748732Y-104464747D01*
X164748893Y-104464556D01*
X164751763Y-104465411D01*
X164751763Y-104465411D01*
G37*
X164751763Y-104465411D02*
X164759699Y-104467911D01*
X164772404Y-104471961D01*
X164789582Y-104477464D01*
X164810934Y-104484323D01*
X164836163Y-104492443D01*
X164864972Y-104501726D01*
X164897063Y-104512077D01*
X164932140Y-104523400D01*
X164969904Y-104535597D01*
X165010058Y-104548573D01*
X165052304Y-104562231D01*
X165096346Y-104576475D01*
X165141887Y-104591208D01*
X165188627Y-104606335D01*
X165236271Y-104621758D01*
X165284521Y-104637382D01*
X165333079Y-104653110D01*
X165381648Y-104668846D01*
X165429931Y-104684494D01*
X165477630Y-104699956D01*
X165524448Y-104715138D01*
X165570087Y-104729941D01*
X165614251Y-104744271D01*
X165656641Y-104758031D01*
X165696960Y-104771124D01*
X165734911Y-104783454D01*
X165770197Y-104794925D01*
X165802519Y-104805441D01*
X165831581Y-104814904D01*
X165857086Y-104823219D01*
X165878735Y-104830290D01*
X165896232Y-104836020D01*
X165909279Y-104840312D01*
X165917579Y-104843071D01*
X165920834Y-104844199D01*
X165920870Y-104844219D01*
X165920489Y-104847183D01*
X165918619Y-104854509D01*
X165915564Y-104865234D01*
X165911627Y-104878401D01*
X165907113Y-104893047D01*
X165902325Y-104908214D01*
X165897566Y-104922940D01*
X165893142Y-104936267D01*
X165889354Y-104947233D01*
X165886508Y-104954879D01*
X165884906Y-104958244D01*
X165884775Y-104958321D01*
X165881976Y-104957453D01*
X165874051Y-104954926D01*
X165861245Y-104950818D01*
X165843801Y-104945208D01*
X165821965Y-104938176D01*
X165795980Y-104929800D01*
X165766090Y-104920159D01*
X165732541Y-104909332D01*
X165695576Y-104897398D01*
X165655440Y-104884435D01*
X165612376Y-104870523D01*
X165566630Y-104855740D01*
X165518445Y-104840166D01*
X165468067Y-104823879D01*
X165415738Y-104806957D01*
X165361704Y-104789481D01*
X165306209Y-104771528D01*
X165297556Y-104768729D01*
X165241871Y-104750712D01*
X165187618Y-104733157D01*
X165135041Y-104716144D01*
X165084383Y-104699750D01*
X165035889Y-104684055D01*
X164989802Y-104669139D01*
X164946366Y-104655079D01*
X164905824Y-104641954D01*
X164868421Y-104629845D01*
X164834400Y-104618829D01*
X164804005Y-104608985D01*
X164777480Y-104600393D01*
X164755068Y-104593131D01*
X164737013Y-104587278D01*
X164723559Y-104582913D01*
X164714950Y-104580116D01*
X164711429Y-104578964D01*
X164711354Y-104578938D01*
X164711896Y-104576252D01*
X164713945Y-104569174D01*
X164717189Y-104558655D01*
X164721317Y-104545646D01*
X164726016Y-104531098D01*
X164730975Y-104515962D01*
X164735880Y-104501189D01*
X164740421Y-104487730D01*
X164744285Y-104476536D01*
X164747159Y-104468558D01*
X164748732Y-104464747D01*
X164748893Y-104464556D01*
X164751763Y-104465411D01*
G36*
X168020105Y-104474008D02*
X168021734Y-104477392D01*
X168024597Y-104485071D01*
X168028386Y-104496069D01*
X168032795Y-104509409D01*
X168037519Y-104524117D01*
X168042250Y-104539215D01*
X168046683Y-104553729D01*
X168050511Y-104566681D01*
X168053428Y-104577097D01*
X168055128Y-104583999D01*
X168055372Y-104586394D01*
X168052616Y-104587366D01*
X168044788Y-104589978D01*
X168032185Y-104594135D01*
X168015105Y-104599739D01*
X167993846Y-104606694D01*
X167968706Y-104614904D01*
X167939983Y-104624271D01*
X167907975Y-104634700D01*
X167872979Y-104646093D01*
X167835294Y-104658354D01*
X167795217Y-104671386D01*
X167753046Y-104685093D01*
X167709079Y-104699378D01*
X167663614Y-104714144D01*
X167616949Y-104729296D01*
X167569382Y-104744735D01*
X167521209Y-104760366D01*
X167472731Y-104776092D01*
X167424243Y-104791817D01*
X167376045Y-104807443D01*
X167328433Y-104822874D01*
X167281706Y-104838014D01*
X167236162Y-104852766D01*
X167192099Y-104867033D01*
X167149814Y-104880719D01*
X167109605Y-104893726D01*
X167071770Y-104905959D01*
X167036608Y-104917321D01*
X167004415Y-104927715D01*
X166975490Y-104937045D01*
X166950130Y-104945214D01*
X166928634Y-104952125D01*
X166911300Y-104957681D01*
X166898424Y-104961787D01*
X166890306Y-104964345D01*
X166887878Y-104965087D01*
X166885858Y-104965232D01*
X166883903Y-104963977D01*
X166881731Y-104960674D01*
X166879062Y-104954677D01*
X166875613Y-104945340D01*
X166871103Y-104932017D01*
X166865250Y-104914061D01*
X166864079Y-104910430D01*
X166858740Y-104893597D01*
X166854162Y-104878632D01*
X166850579Y-104866345D01*
X166848223Y-104857546D01*
X166847331Y-104853046D01*
X166847388Y-104852650D01*
X166850246Y-104851577D01*
X166858171Y-104848878D01*
X166870864Y-104844647D01*
X166888028Y-104838981D01*
X166909367Y-104831976D01*
X166934582Y-104823728D01*
X166963378Y-104814332D01*
X166995456Y-104803885D01*
X167030520Y-104792482D01*
X167068272Y-104780220D01*
X167108416Y-104767194D01*
X167150654Y-104753501D01*
X167194689Y-104739236D01*
X167240224Y-104724495D01*
X167286962Y-104709374D01*
X167334605Y-104693970D01*
X167382857Y-104678377D01*
X167431420Y-104662692D01*
X167479997Y-104647012D01*
X167528292Y-104631431D01*
X167576006Y-104616046D01*
X167622843Y-104600953D01*
X167668506Y-104586247D01*
X167712697Y-104572025D01*
X167755120Y-104558383D01*
X167795477Y-104545416D01*
X167833471Y-104533220D01*
X167868805Y-104521892D01*
X167901181Y-104511528D01*
X167930303Y-104502222D01*
X167955874Y-104494072D01*
X167977596Y-104487173D01*
X167995172Y-104481621D01*
X168008306Y-104477512D01*
X168016699Y-104474942D01*
X168020055Y-104474007D01*
X168020105Y-104474008D01*
X168020105Y-104474008D01*
G37*
X168020105Y-104474008D02*
X168021734Y-104477392D01*
X168024597Y-104485071D01*
X168028386Y-104496069D01*
X168032795Y-104509409D01*
X168037519Y-104524117D01*
X168042250Y-104539215D01*
X168046683Y-104553729D01*
X168050511Y-104566681D01*
X168053428Y-104577097D01*
X168055128Y-104583999D01*
X168055372Y-104586394D01*
X168052616Y-104587366D01*
X168044788Y-104589978D01*
X168032185Y-104594135D01*
X168015105Y-104599739D01*
X167993846Y-104606694D01*
X167968706Y-104614904D01*
X167939983Y-104624271D01*
X167907975Y-104634700D01*
X167872979Y-104646093D01*
X167835294Y-104658354D01*
X167795217Y-104671386D01*
X167753046Y-104685093D01*
X167709079Y-104699378D01*
X167663614Y-104714144D01*
X167616949Y-104729296D01*
X167569382Y-104744735D01*
X167521209Y-104760366D01*
X167472731Y-104776092D01*
X167424243Y-104791817D01*
X167376045Y-104807443D01*
X167328433Y-104822874D01*
X167281706Y-104838014D01*
X167236162Y-104852766D01*
X167192099Y-104867033D01*
X167149814Y-104880719D01*
X167109605Y-104893726D01*
X167071770Y-104905959D01*
X167036608Y-104917321D01*
X167004415Y-104927715D01*
X166975490Y-104937045D01*
X166950130Y-104945214D01*
X166928634Y-104952125D01*
X166911300Y-104957681D01*
X166898424Y-104961787D01*
X166890306Y-104964345D01*
X166887878Y-104965087D01*
X166885858Y-104965232D01*
X166883903Y-104963977D01*
X166881731Y-104960674D01*
X166879062Y-104954677D01*
X166875613Y-104945340D01*
X166871103Y-104932017D01*
X166865250Y-104914061D01*
X166864079Y-104910430D01*
X166858740Y-104893597D01*
X166854162Y-104878632D01*
X166850579Y-104866345D01*
X166848223Y-104857546D01*
X166847331Y-104853046D01*
X166847388Y-104852650D01*
X166850246Y-104851577D01*
X166858171Y-104848878D01*
X166870864Y-104844647D01*
X166888028Y-104838981D01*
X166909367Y-104831976D01*
X166934582Y-104823728D01*
X166963378Y-104814332D01*
X166995456Y-104803885D01*
X167030520Y-104792482D01*
X167068272Y-104780220D01*
X167108416Y-104767194D01*
X167150654Y-104753501D01*
X167194689Y-104739236D01*
X167240224Y-104724495D01*
X167286962Y-104709374D01*
X167334605Y-104693970D01*
X167382857Y-104678377D01*
X167431420Y-104662692D01*
X167479997Y-104647012D01*
X167528292Y-104631431D01*
X167576006Y-104616046D01*
X167622843Y-104600953D01*
X167668506Y-104586247D01*
X167712697Y-104572025D01*
X167755120Y-104558383D01*
X167795477Y-104545416D01*
X167833471Y-104533220D01*
X167868805Y-104521892D01*
X167901181Y-104511528D01*
X167930303Y-104502222D01*
X167955874Y-104494072D01*
X167977596Y-104487173D01*
X167995172Y-104481621D01*
X168008306Y-104477512D01*
X168016699Y-104474942D01*
X168020055Y-104474007D01*
X168020105Y-104474008D01*
G36*
X165883682Y-105074814D02*
X165884442Y-105082427D01*
X165885386Y-105093626D01*
X165886445Y-105107389D01*
X165887549Y-105122693D01*
X165888627Y-105138515D01*
X165889611Y-105153831D01*
X165890430Y-105167619D01*
X165891015Y-105178855D01*
X165891296Y-105186517D01*
X165891203Y-105189581D01*
X165891202Y-105189583D01*
X165888352Y-105189881D01*
X165880186Y-105190537D01*
X165867020Y-105191531D01*
X165849171Y-105192840D01*
X165826955Y-105194443D01*
X165800686Y-105196318D01*
X165770682Y-105198444D01*
X165737258Y-105200798D01*
X165700730Y-105203359D01*
X165661414Y-105206106D01*
X165619626Y-105209016D01*
X165575683Y-105212068D01*
X165529899Y-105215241D01*
X165482591Y-105218512D01*
X165434076Y-105221860D01*
X165384668Y-105225264D01*
X165334684Y-105228701D01*
X165284441Y-105232150D01*
X165234253Y-105235589D01*
X165184437Y-105238997D01*
X165135308Y-105242351D01*
X165087184Y-105245631D01*
X165040379Y-105248814D01*
X164995210Y-105251879D01*
X164951993Y-105254804D01*
X164911043Y-105257568D01*
X164872677Y-105260148D01*
X164837211Y-105262524D01*
X164804960Y-105264672D01*
X164776241Y-105266573D01*
X164751369Y-105268203D01*
X164730661Y-105269542D01*
X164714432Y-105270568D01*
X164702999Y-105271258D01*
X164696677Y-105271592D01*
X164695717Y-105271621D01*
X164687632Y-105271479D01*
X164683678Y-105270234D01*
X164682342Y-105266873D01*
X164682151Y-105262539D01*
X164681892Y-105256739D01*
X164681274Y-105246447D01*
X164680373Y-105232799D01*
X164679262Y-105216930D01*
X164678316Y-105203978D01*
X164677154Y-105187952D01*
X164676203Y-105174018D01*
X164675520Y-105163093D01*
X164675162Y-105156092D01*
X164675160Y-105153907D01*
X164677997Y-105153625D01*
X164686152Y-105152986D01*
X164699310Y-105152013D01*
X164717157Y-105150726D01*
X164739379Y-105149147D01*
X164765660Y-105147297D01*
X164795688Y-105145197D01*
X164829147Y-105142870D01*
X164865724Y-105140336D01*
X164905103Y-105137616D01*
X164946971Y-105134733D01*
X164991014Y-105131707D01*
X165036916Y-105128559D01*
X165084364Y-105125312D01*
X165133044Y-105121986D01*
X165182640Y-105118604D01*
X165232839Y-105115185D01*
X165283327Y-105111752D01*
X165333789Y-105108325D01*
X165383911Y-105104927D01*
X165433378Y-105101579D01*
X165481876Y-105098301D01*
X165529092Y-105095116D01*
X165574709Y-105092045D01*
X165618415Y-105089108D01*
X165659895Y-105086328D01*
X165698835Y-105083726D01*
X165734920Y-105081323D01*
X165767835Y-105079141D01*
X165797268Y-105077200D01*
X165822903Y-105075523D01*
X165844426Y-105074130D01*
X165861522Y-105073043D01*
X165873878Y-105072284D01*
X165881179Y-105071873D01*
X165883175Y-105071812D01*
X165883682Y-105074814D01*
X165883682Y-105074814D01*
G37*
X165883682Y-105074814D02*
X165884442Y-105082427D01*
X165885386Y-105093626D01*
X165886445Y-105107389D01*
X165887549Y-105122693D01*
X165888627Y-105138515D01*
X165889611Y-105153831D01*
X165890430Y-105167619D01*
X165891015Y-105178855D01*
X165891296Y-105186517D01*
X165891203Y-105189581D01*
X165891202Y-105189583D01*
X165888352Y-105189881D01*
X165880186Y-105190537D01*
X165867020Y-105191531D01*
X165849171Y-105192840D01*
X165826955Y-105194443D01*
X165800686Y-105196318D01*
X165770682Y-105198444D01*
X165737258Y-105200798D01*
X165700730Y-105203359D01*
X165661414Y-105206106D01*
X165619626Y-105209016D01*
X165575683Y-105212068D01*
X165529899Y-105215241D01*
X165482591Y-105218512D01*
X165434076Y-105221860D01*
X165384668Y-105225264D01*
X165334684Y-105228701D01*
X165284441Y-105232150D01*
X165234253Y-105235589D01*
X165184437Y-105238997D01*
X165135308Y-105242351D01*
X165087184Y-105245631D01*
X165040379Y-105248814D01*
X164995210Y-105251879D01*
X164951993Y-105254804D01*
X164911043Y-105257568D01*
X164872677Y-105260148D01*
X164837211Y-105262524D01*
X164804960Y-105264672D01*
X164776241Y-105266573D01*
X164751369Y-105268203D01*
X164730661Y-105269542D01*
X164714432Y-105270568D01*
X164702999Y-105271258D01*
X164696677Y-105271592D01*
X164695717Y-105271621D01*
X164687632Y-105271479D01*
X164683678Y-105270234D01*
X164682342Y-105266873D01*
X164682151Y-105262539D01*
X164681892Y-105256739D01*
X164681274Y-105246447D01*
X164680373Y-105232799D01*
X164679262Y-105216930D01*
X164678316Y-105203978D01*
X164677154Y-105187952D01*
X164676203Y-105174018D01*
X164675520Y-105163093D01*
X164675162Y-105156092D01*
X164675160Y-105153907D01*
X164677997Y-105153625D01*
X164686152Y-105152986D01*
X164699310Y-105152013D01*
X164717157Y-105150726D01*
X164739379Y-105149147D01*
X164765660Y-105147297D01*
X164795688Y-105145197D01*
X164829147Y-105142870D01*
X164865724Y-105140336D01*
X164905103Y-105137616D01*
X164946971Y-105134733D01*
X164991014Y-105131707D01*
X165036916Y-105128559D01*
X165084364Y-105125312D01*
X165133044Y-105121986D01*
X165182640Y-105118604D01*
X165232839Y-105115185D01*
X165283327Y-105111752D01*
X165333789Y-105108325D01*
X165383911Y-105104927D01*
X165433378Y-105101579D01*
X165481876Y-105098301D01*
X165529092Y-105095116D01*
X165574709Y-105092045D01*
X165618415Y-105089108D01*
X165659895Y-105086328D01*
X165698835Y-105083726D01*
X165734920Y-105081323D01*
X165767835Y-105079141D01*
X165797268Y-105077200D01*
X165822903Y-105075523D01*
X165844426Y-105074130D01*
X165861522Y-105073043D01*
X165873878Y-105072284D01*
X165881179Y-105071873D01*
X165883175Y-105071812D01*
X165883682Y-105074814D01*
G36*
X166888109Y-105080253D02*
X166896277Y-105080715D01*
X166909447Y-105081522D01*
X166927305Y-105082654D01*
X166949537Y-105084088D01*
X166975828Y-105085805D01*
X167005864Y-105087781D01*
X167039331Y-105089997D01*
X167075914Y-105092430D01*
X167115299Y-105095059D01*
X167157172Y-105097863D01*
X167201218Y-105100820D01*
X167247123Y-105103909D01*
X167294572Y-105107109D01*
X167343252Y-105110399D01*
X167392848Y-105113756D01*
X167443045Y-105117160D01*
X167493529Y-105120589D01*
X167543986Y-105124022D01*
X167594102Y-105127438D01*
X167643562Y-105130814D01*
X167692052Y-105134131D01*
X167739257Y-105137365D01*
X167784863Y-105140497D01*
X167828556Y-105143505D01*
X167870022Y-105146366D01*
X167908945Y-105149061D01*
X167945012Y-105151567D01*
X167977909Y-105153864D01*
X168007321Y-105155929D01*
X168032933Y-105157742D01*
X168054432Y-105159280D01*
X168071503Y-105160524D01*
X168083832Y-105161451D01*
X168091104Y-105162040D01*
X168093073Y-105162256D01*
X168093117Y-105165185D01*
X168092777Y-105172849D01*
X168092105Y-105184356D01*
X168091154Y-105198813D01*
X168089980Y-105215267D01*
X168088744Y-105232257D01*
X168087660Y-105247642D01*
X168086798Y-105260402D01*
X168086227Y-105269512D01*
X168086017Y-105273828D01*
X168085569Y-105277190D01*
X168083530Y-105279058D01*
X168078648Y-105279823D01*
X168069669Y-105279879D01*
X168066861Y-105279832D01*
X168062207Y-105279605D01*
X168052194Y-105279005D01*
X168037097Y-105278051D01*
X168017189Y-105276760D01*
X167992742Y-105275152D01*
X167964031Y-105273245D01*
X167931327Y-105271057D01*
X167894905Y-105268606D01*
X167855038Y-105265912D01*
X167811998Y-105262992D01*
X167766059Y-105259865D01*
X167717493Y-105256550D01*
X167666575Y-105253065D01*
X167613578Y-105249428D01*
X167558773Y-105245658D01*
X167502436Y-105241773D01*
X167463611Y-105239091D01*
X167406664Y-105235153D01*
X167351217Y-105231318D01*
X167297534Y-105227604D01*
X167245875Y-105224030D01*
X167196505Y-105220613D01*
X167149686Y-105217372D01*
X167105679Y-105214325D01*
X167064749Y-105211490D01*
X167027157Y-105208885D01*
X166993165Y-105206529D01*
X166963038Y-105204440D01*
X166937036Y-105202636D01*
X166915423Y-105201134D01*
X166898460Y-105199954D01*
X166886412Y-105199114D01*
X166879540Y-105198631D01*
X166877942Y-105198515D01*
X166877728Y-105195817D01*
X166877874Y-105188494D01*
X166878320Y-105177553D01*
X166879002Y-105163996D01*
X166879860Y-105148829D01*
X166880830Y-105133057D01*
X166881851Y-105117683D01*
X166882860Y-105103712D01*
X166883796Y-105092150D01*
X166884596Y-105083999D01*
X166885198Y-105080266D01*
X166885258Y-105080159D01*
X166888109Y-105080253D01*
X166888109Y-105080253D01*
G37*
X166888109Y-105080253D02*
X166896277Y-105080715D01*
X166909447Y-105081522D01*
X166927305Y-105082654D01*
X166949537Y-105084088D01*
X166975828Y-105085805D01*
X167005864Y-105087781D01*
X167039331Y-105089997D01*
X167075914Y-105092430D01*
X167115299Y-105095059D01*
X167157172Y-105097863D01*
X167201218Y-105100820D01*
X167247123Y-105103909D01*
X167294572Y-105107109D01*
X167343252Y-105110399D01*
X167392848Y-105113756D01*
X167443045Y-105117160D01*
X167493529Y-105120589D01*
X167543986Y-105124022D01*
X167594102Y-105127438D01*
X167643562Y-105130814D01*
X167692052Y-105134131D01*
X167739257Y-105137365D01*
X167784863Y-105140497D01*
X167828556Y-105143505D01*
X167870022Y-105146366D01*
X167908945Y-105149061D01*
X167945012Y-105151567D01*
X167977909Y-105153864D01*
X168007321Y-105155929D01*
X168032933Y-105157742D01*
X168054432Y-105159280D01*
X168071503Y-105160524D01*
X168083832Y-105161451D01*
X168091104Y-105162040D01*
X168093073Y-105162256D01*
X168093117Y-105165185D01*
X168092777Y-105172849D01*
X168092105Y-105184356D01*
X168091154Y-105198813D01*
X168089980Y-105215267D01*
X168088744Y-105232257D01*
X168087660Y-105247642D01*
X168086798Y-105260402D01*
X168086227Y-105269512D01*
X168086017Y-105273828D01*
X168085569Y-105277190D01*
X168083530Y-105279058D01*
X168078648Y-105279823D01*
X168069669Y-105279879D01*
X168066861Y-105279832D01*
X168062207Y-105279605D01*
X168052194Y-105279005D01*
X168037097Y-105278051D01*
X168017189Y-105276760D01*
X167992742Y-105275152D01*
X167964031Y-105273245D01*
X167931327Y-105271057D01*
X167894905Y-105268606D01*
X167855038Y-105265912D01*
X167811998Y-105262992D01*
X167766059Y-105259865D01*
X167717493Y-105256550D01*
X167666575Y-105253065D01*
X167613578Y-105249428D01*
X167558773Y-105245658D01*
X167502436Y-105241773D01*
X167463611Y-105239091D01*
X167406664Y-105235153D01*
X167351217Y-105231318D01*
X167297534Y-105227604D01*
X167245875Y-105224030D01*
X167196505Y-105220613D01*
X167149686Y-105217372D01*
X167105679Y-105214325D01*
X167064749Y-105211490D01*
X167027157Y-105208885D01*
X166993165Y-105206529D01*
X166963038Y-105204440D01*
X166937036Y-105202636D01*
X166915423Y-105201134D01*
X166898460Y-105199954D01*
X166886412Y-105199114D01*
X166879540Y-105198631D01*
X166877942Y-105198515D01*
X166877728Y-105195817D01*
X166877874Y-105188494D01*
X166878320Y-105177553D01*
X166879002Y-105163996D01*
X166879860Y-105148829D01*
X166880830Y-105133057D01*
X166881851Y-105117683D01*
X166882860Y-105103712D01*
X166883796Y-105092150D01*
X166884596Y-105083999D01*
X166885198Y-105080266D01*
X166885258Y-105080159D01*
X166888109Y-105080253D01*
G36*
X166649400Y-104568978D02*
X166460311Y-104568978D01*
X166460311Y-105562400D01*
X166274045Y-105562400D01*
X166274045Y-104568978D01*
X166084956Y-104568978D01*
X166084956Y-104399645D01*
X166649400Y-104399645D01*
X166649400Y-104568978D01*
X166649400Y-104568978D01*
G37*
X166649400Y-104568978D02*
X166460311Y-104568978D01*
X166460311Y-105562400D01*
X166274045Y-105562400D01*
X166274045Y-104568978D01*
X166084956Y-104568978D01*
X166084956Y-104399645D01*
X166649400Y-104399645D01*
X166649400Y-104568978D01*
G36*
X165881329Y-105313753D02*
X165883933Y-105320710D01*
X165887611Y-105331139D01*
X165892047Y-105344087D01*
X165896927Y-105358601D01*
X165901935Y-105373729D01*
X165906757Y-105388515D01*
X165911078Y-105402009D01*
X165914581Y-105413255D01*
X165916953Y-105421301D01*
X165917878Y-105425194D01*
X165917850Y-105425404D01*
X165915126Y-105426314D01*
X165907277Y-105428881D01*
X165894549Y-105433025D01*
X165877186Y-105438667D01*
X165855434Y-105445726D01*
X165829538Y-105454124D01*
X165799745Y-105463781D01*
X165766299Y-105474617D01*
X165729446Y-105486554D01*
X165689432Y-105499511D01*
X165646502Y-105513409D01*
X165600901Y-105528168D01*
X165552876Y-105543709D01*
X165502670Y-105559953D01*
X165450531Y-105576819D01*
X165396703Y-105594229D01*
X165341432Y-105612103D01*
X165338859Y-105612935D01*
X165283482Y-105630843D01*
X165229511Y-105648298D01*
X165177194Y-105665220D01*
X165126778Y-105681530D01*
X165078510Y-105697147D01*
X165032637Y-105711990D01*
X164989407Y-105725981D01*
X164949067Y-105739039D01*
X164911863Y-105751084D01*
X164878044Y-105762036D01*
X164847856Y-105771815D01*
X164821547Y-105780341D01*
X164799363Y-105787533D01*
X164781553Y-105793313D01*
X164768363Y-105797599D01*
X164760040Y-105800312D01*
X164756832Y-105801372D01*
X164756815Y-105801378D01*
X164752916Y-105800241D01*
X164750365Y-105796077D01*
X164747920Y-105789187D01*
X164744455Y-105778817D01*
X164740276Y-105765945D01*
X164735688Y-105751549D01*
X164730996Y-105736609D01*
X164726504Y-105722104D01*
X164722519Y-105709010D01*
X164719345Y-105698308D01*
X164717288Y-105690977D01*
X164716652Y-105687993D01*
X164716661Y-105687977D01*
X164719383Y-105687039D01*
X164727178Y-105684461D01*
X164739747Y-105680341D01*
X164756792Y-105674774D01*
X164778014Y-105667858D01*
X164803116Y-105659689D01*
X164831798Y-105650363D01*
X164863763Y-105639978D01*
X164898711Y-105628630D01*
X164936345Y-105616416D01*
X164976367Y-105603431D01*
X165018478Y-105589774D01*
X165062379Y-105575540D01*
X165107772Y-105560825D01*
X165154360Y-105545728D01*
X165201843Y-105530343D01*
X165249923Y-105514769D01*
X165298302Y-105499101D01*
X165346682Y-105483436D01*
X165394764Y-105467871D01*
X165442250Y-105452502D01*
X165488841Y-105437426D01*
X165534239Y-105422740D01*
X165578146Y-105408539D01*
X165620264Y-105394922D01*
X165660293Y-105381984D01*
X165697937Y-105369821D01*
X165732895Y-105358532D01*
X165764871Y-105348211D01*
X165793565Y-105338957D01*
X165818680Y-105330865D01*
X165839916Y-105324032D01*
X165856977Y-105318554D01*
X165869562Y-105314529D01*
X165877374Y-105312053D01*
X165880113Y-105311222D01*
X165881329Y-105313753D01*
X165881329Y-105313753D01*
G37*
X165881329Y-105313753D02*
X165883933Y-105320710D01*
X165887611Y-105331139D01*
X165892047Y-105344087D01*
X165896927Y-105358601D01*
X165901935Y-105373729D01*
X165906757Y-105388515D01*
X165911078Y-105402009D01*
X165914581Y-105413255D01*
X165916953Y-105421301D01*
X165917878Y-105425194D01*
X165917850Y-105425404D01*
X165915126Y-105426314D01*
X165907277Y-105428881D01*
X165894549Y-105433025D01*
X165877186Y-105438667D01*
X165855434Y-105445726D01*
X165829538Y-105454124D01*
X165799745Y-105463781D01*
X165766299Y-105474617D01*
X165729446Y-105486554D01*
X165689432Y-105499511D01*
X165646502Y-105513409D01*
X165600901Y-105528168D01*
X165552876Y-105543709D01*
X165502670Y-105559953D01*
X165450531Y-105576819D01*
X165396703Y-105594229D01*
X165341432Y-105612103D01*
X165338859Y-105612935D01*
X165283482Y-105630843D01*
X165229511Y-105648298D01*
X165177194Y-105665220D01*
X165126778Y-105681530D01*
X165078510Y-105697147D01*
X165032637Y-105711990D01*
X164989407Y-105725981D01*
X164949067Y-105739039D01*
X164911863Y-105751084D01*
X164878044Y-105762036D01*
X164847856Y-105771815D01*
X164821547Y-105780341D01*
X164799363Y-105787533D01*
X164781553Y-105793313D01*
X164768363Y-105797599D01*
X164760040Y-105800312D01*
X164756832Y-105801372D01*
X164756815Y-105801378D01*
X164752916Y-105800241D01*
X164750365Y-105796077D01*
X164747920Y-105789187D01*
X164744455Y-105778817D01*
X164740276Y-105765945D01*
X164735688Y-105751549D01*
X164730996Y-105736609D01*
X164726504Y-105722104D01*
X164722519Y-105709010D01*
X164719345Y-105698308D01*
X164717288Y-105690977D01*
X164716652Y-105687993D01*
X164716661Y-105687977D01*
X164719383Y-105687039D01*
X164727178Y-105684461D01*
X164739747Y-105680341D01*
X164756792Y-105674774D01*
X164778014Y-105667858D01*
X164803116Y-105659689D01*
X164831798Y-105650363D01*
X164863763Y-105639978D01*
X164898711Y-105628630D01*
X164936345Y-105616416D01*
X164976367Y-105603431D01*
X165018478Y-105589774D01*
X165062379Y-105575540D01*
X165107772Y-105560825D01*
X165154360Y-105545728D01*
X165201843Y-105530343D01*
X165249923Y-105514769D01*
X165298302Y-105499101D01*
X165346682Y-105483436D01*
X165394764Y-105467871D01*
X165442250Y-105452502D01*
X165488841Y-105437426D01*
X165534239Y-105422740D01*
X165578146Y-105408539D01*
X165620264Y-105394922D01*
X165660293Y-105381984D01*
X165697937Y-105369821D01*
X165732895Y-105358532D01*
X165764871Y-105348211D01*
X165793565Y-105338957D01*
X165818680Y-105330865D01*
X165839916Y-105324032D01*
X165856977Y-105318554D01*
X165869562Y-105314529D01*
X165877374Y-105312053D01*
X165880113Y-105311222D01*
X165881329Y-105313753D01*
G36*
X166892986Y-105320782D02*
X166896710Y-105321922D01*
X166905449Y-105324691D01*
X166918904Y-105328993D01*
X166936775Y-105334731D01*
X166958765Y-105341807D01*
X166984572Y-105350125D01*
X167013899Y-105359588D01*
X167046447Y-105370099D01*
X167081916Y-105381560D01*
X167120008Y-105393876D01*
X167160423Y-105406949D01*
X167202862Y-105420682D01*
X167247027Y-105434978D01*
X167292618Y-105449740D01*
X167339337Y-105464872D01*
X167386884Y-105480276D01*
X167434960Y-105495856D01*
X167483266Y-105511514D01*
X167531504Y-105527154D01*
X167579374Y-105542678D01*
X167626577Y-105557990D01*
X167672814Y-105572993D01*
X167717787Y-105587590D01*
X167761195Y-105601683D01*
X167802741Y-105615177D01*
X167842124Y-105627974D01*
X167879047Y-105639976D01*
X167913210Y-105651088D01*
X167944313Y-105661213D01*
X167972059Y-105670252D01*
X167996147Y-105678110D01*
X168016280Y-105684689D01*
X168032157Y-105689893D01*
X168043480Y-105693624D01*
X168049950Y-105695786D01*
X168051437Y-105696318D01*
X168050995Y-105699237D01*
X168049064Y-105706533D01*
X168045954Y-105717231D01*
X168041973Y-105730357D01*
X168037432Y-105744939D01*
X168032640Y-105760001D01*
X168027906Y-105774571D01*
X168023540Y-105787674D01*
X168019852Y-105798336D01*
X168017151Y-105805584D01*
X168015808Y-105808396D01*
X168012985Y-105807719D01*
X168005038Y-105805378D01*
X167992214Y-105801451D01*
X167974757Y-105796016D01*
X167952914Y-105789153D01*
X167926930Y-105780940D01*
X167897051Y-105771454D01*
X167863522Y-105760774D01*
X167826588Y-105748980D01*
X167786496Y-105736148D01*
X167743490Y-105722359D01*
X167697817Y-105707689D01*
X167649722Y-105692218D01*
X167599450Y-105676023D01*
X167547247Y-105659184D01*
X167493358Y-105641779D01*
X167438029Y-105623886D01*
X167433978Y-105622575D01*
X167378545Y-105604629D01*
X167324536Y-105587133D01*
X167272196Y-105570166D01*
X167221772Y-105553809D01*
X167173508Y-105538141D01*
X167127650Y-105523242D01*
X167084445Y-105509193D01*
X167044137Y-105496074D01*
X167006972Y-105483964D01*
X166973197Y-105472944D01*
X166943056Y-105463094D01*
X166916795Y-105454494D01*
X166894660Y-105447223D01*
X166876896Y-105441363D01*
X166863750Y-105436992D01*
X166855466Y-105434191D01*
X166852291Y-105433040D01*
X166852266Y-105433023D01*
X166852576Y-105429904D01*
X166854439Y-105422248D01*
X166857622Y-105410875D01*
X166861895Y-105396604D01*
X166867024Y-105380253D01*
X166868663Y-105375164D01*
X166874758Y-105356459D01*
X166879447Y-105342481D01*
X166883023Y-105332576D01*
X166885779Y-105326088D01*
X166888008Y-105322363D01*
X166890003Y-105320746D01*
X166892056Y-105320581D01*
X166892986Y-105320782D01*
X166892986Y-105320782D01*
G37*
X166892986Y-105320782D02*
X166896710Y-105321922D01*
X166905449Y-105324691D01*
X166918904Y-105328993D01*
X166936775Y-105334731D01*
X166958765Y-105341807D01*
X166984572Y-105350125D01*
X167013899Y-105359588D01*
X167046447Y-105370099D01*
X167081916Y-105381560D01*
X167120008Y-105393876D01*
X167160423Y-105406949D01*
X167202862Y-105420682D01*
X167247027Y-105434978D01*
X167292618Y-105449740D01*
X167339337Y-105464872D01*
X167386884Y-105480276D01*
X167434960Y-105495856D01*
X167483266Y-105511514D01*
X167531504Y-105527154D01*
X167579374Y-105542678D01*
X167626577Y-105557990D01*
X167672814Y-105572993D01*
X167717787Y-105587590D01*
X167761195Y-105601683D01*
X167802741Y-105615177D01*
X167842124Y-105627974D01*
X167879047Y-105639976D01*
X167913210Y-105651088D01*
X167944313Y-105661213D01*
X167972059Y-105670252D01*
X167996147Y-105678110D01*
X168016280Y-105684689D01*
X168032157Y-105689893D01*
X168043480Y-105693624D01*
X168049950Y-105695786D01*
X168051437Y-105696318D01*
X168050995Y-105699237D01*
X168049064Y-105706533D01*
X168045954Y-105717231D01*
X168041973Y-105730357D01*
X168037432Y-105744939D01*
X168032640Y-105760001D01*
X168027906Y-105774571D01*
X168023540Y-105787674D01*
X168019852Y-105798336D01*
X168017151Y-105805584D01*
X168015808Y-105808396D01*
X168012985Y-105807719D01*
X168005038Y-105805378D01*
X167992214Y-105801451D01*
X167974757Y-105796016D01*
X167952914Y-105789153D01*
X167926930Y-105780940D01*
X167897051Y-105771454D01*
X167863522Y-105760774D01*
X167826588Y-105748980D01*
X167786496Y-105736148D01*
X167743490Y-105722359D01*
X167697817Y-105707689D01*
X167649722Y-105692218D01*
X167599450Y-105676023D01*
X167547247Y-105659184D01*
X167493358Y-105641779D01*
X167438029Y-105623886D01*
X167433978Y-105622575D01*
X167378545Y-105604629D01*
X167324536Y-105587133D01*
X167272196Y-105570166D01*
X167221772Y-105553809D01*
X167173508Y-105538141D01*
X167127650Y-105523242D01*
X167084445Y-105509193D01*
X167044137Y-105496074D01*
X167006972Y-105483964D01*
X166973197Y-105472944D01*
X166943056Y-105463094D01*
X166916795Y-105454494D01*
X166894660Y-105447223D01*
X166876896Y-105441363D01*
X166863750Y-105436992D01*
X166855466Y-105434191D01*
X166852291Y-105433040D01*
X166852266Y-105433023D01*
X166852576Y-105429904D01*
X166854439Y-105422248D01*
X166857622Y-105410875D01*
X166861895Y-105396604D01*
X166867024Y-105380253D01*
X166868663Y-105375164D01*
X166874758Y-105356459D01*
X166879447Y-105342481D01*
X166883023Y-105332576D01*
X166885779Y-105326088D01*
X166888008Y-105322363D01*
X166890003Y-105320746D01*
X166892056Y-105320581D01*
X166892986Y-105320782D01*
G04 #@! TO.C,REF\002A\002A*
D11*
X-1333333Y-952380D02*
X-1666666Y-476190D01*
X-1904761Y-952380D02*
X-1904761Y47619D01*
X-1523809Y47619D01*
X-1428571Y0D01*
X-1380952Y-47619D01*
X-1333333Y-142857D01*
X-1333333Y-285714D01*
X-1380952Y-380952D01*
X-1428571Y-428571D01*
X-1523809Y-476190D01*
X-1904761Y-476190D01*
X-904761Y-428571D02*
X-571428Y-428571D01*
X-428571Y-952380D02*
X-904761Y-952380D01*
X-904761Y47619D01*
X-428571Y47619D01*
X333333Y-428571D02*
X0Y-428571D01*
X0Y-952380D02*
X0Y47619D01*
X476190Y47619D01*
X999999Y47619D02*
X999999Y-190476D01*
X761904Y-95238D02*
X999999Y-190476D01*
X1238095Y-95238D01*
X857142Y-380952D02*
X999999Y-190476D01*
X1142857Y-380952D01*
X1761904Y47619D02*
X1761904Y-190476D01*
X1523809Y-95238D02*
X1761904Y-190476D01*
X1999999Y-95238D01*
X1619047Y-380952D02*
X1761904Y-190476D01*
X1904761Y-380952D01*
X-1333333Y-952380D02*
X-1666666Y-476190D01*
X-1904761Y-952380D02*
X-1904761Y47619D01*
X-1523809Y47619D01*
X-1428571Y0D01*
X-1380952Y-47619D01*
X-1333333Y-142857D01*
X-1333333Y-285714D01*
X-1380952Y-380952D01*
X-1428571Y-428571D01*
X-1523809Y-476190D01*
X-1904761Y-476190D01*
X-904761Y-428571D02*
X-571428Y-428571D01*
X-428571Y-952380D02*
X-904761Y-952380D01*
X-904761Y47619D01*
X-428571Y47619D01*
X333333Y-428571D02*
X0Y-428571D01*
X0Y-952380D02*
X0Y47619D01*
X476190Y47619D01*
X999999Y47619D02*
X999999Y-190476D01*
X761904Y-95238D02*
X999999Y-190476D01*
X1238095Y-95238D01*
X857142Y-380952D02*
X999999Y-190476D01*
X1142857Y-380952D01*
X1761904Y47619D02*
X1761904Y-190476D01*
X1523809Y-95238D02*
X1761904Y-190476D01*
X1999999Y-95238D01*
X1619047Y-380952D02*
X1761904Y-190476D01*
X1904761Y-380952D01*
G04 #@! TO.C,C1*
X176379142Y-89066666D02*
X176426761Y-89114285D01*
X176474380Y-89257142D01*
X176474380Y-89352380D01*
X176426761Y-89495238D01*
X176331523Y-89590476D01*
X176236285Y-89638095D01*
X176045809Y-89685714D01*
X175902952Y-89685714D01*
X175712476Y-89638095D01*
X175617238Y-89590476D01*
X175522000Y-89495238D01*
X175474380Y-89352380D01*
X175474380Y-89257142D01*
X175522000Y-89114285D01*
X175569619Y-89066666D01*
X176474380Y-88114285D02*
X176474380Y-88685714D01*
X176474380Y-88400000D02*
X175474380Y-88400000D01*
X175617238Y-88495238D01*
X175712476Y-88590476D01*
X175760095Y-88685714D01*
G04 #@! TO.C,10uH-4A1*
X174887333Y-105100380D02*
X174315904Y-105100380D01*
X174601619Y-105100380D02*
X174601619Y-104100380D01*
X174506380Y-104243238D01*
X174411142Y-104338476D01*
X174315904Y-104386095D01*
X175506380Y-104100380D02*
X175601619Y-104100380D01*
X175696857Y-104148000D01*
X175744476Y-104195619D01*
X175792095Y-104290857D01*
X175839714Y-104481333D01*
X175839714Y-104719428D01*
X175792095Y-104909904D01*
X175744476Y-105005142D01*
X175696857Y-105052761D01*
X175601619Y-105100380D01*
X175506380Y-105100380D01*
X175411142Y-105052761D01*
X175363523Y-105005142D01*
X175315904Y-104909904D01*
X175268285Y-104719428D01*
X175268285Y-104481333D01*
X175315904Y-104290857D01*
X175363523Y-104195619D01*
X175411142Y-104148000D01*
X175506380Y-104100380D01*
X176696857Y-104433714D02*
X176696857Y-105100380D01*
X176268285Y-104433714D02*
X176268285Y-104957523D01*
X176315904Y-105052761D01*
X176411142Y-105100380D01*
X176554000Y-105100380D01*
X176649238Y-105052761D01*
X176696857Y-105005142D01*
X177173047Y-105100380D02*
X177173047Y-104100380D01*
X177173047Y-104576571D02*
X177744476Y-104576571D01*
X177744476Y-105100380D02*
X177744476Y-104100380D01*
X178220666Y-104719428D02*
X178982571Y-104719428D01*
X179887333Y-104433714D02*
X179887333Y-105100380D01*
X179649238Y-104052761D02*
X179411142Y-104767047D01*
X180030190Y-104767047D01*
X180363523Y-104814666D02*
X180839714Y-104814666D01*
X180268285Y-105100380D02*
X180601619Y-104100380D01*
X180934952Y-105100380D01*
X181792095Y-105100380D02*
X181220666Y-105100380D01*
X181506380Y-105100380D02*
X181506380Y-104100380D01*
X181411142Y-104243238D01*
X181315904Y-104338476D01*
X181220666Y-104386095D01*
G04 #@! TO.C,C2*
X172045333Y-103989142D02*
X171997714Y-104036761D01*
X171854857Y-104084380D01*
X171759619Y-104084380D01*
X171616761Y-104036761D01*
X171521523Y-103941523D01*
X171473904Y-103846285D01*
X171426285Y-103655809D01*
X171426285Y-103512952D01*
X171473904Y-103322476D01*
X171521523Y-103227238D01*
X171616761Y-103132000D01*
X171759619Y-103084380D01*
X171854857Y-103084380D01*
X171997714Y-103132000D01*
X172045333Y-103179619D01*
X172426285Y-103179619D02*
X172473904Y-103132000D01*
X172569142Y-103084380D01*
X172807238Y-103084380D01*
X172902476Y-103132000D01*
X172950095Y-103179619D01*
X172997714Y-103274857D01*
X172997714Y-103370095D01*
X172950095Y-103512952D01*
X172378666Y-104084380D01*
X172997714Y-104084380D01*
G04 #@! TO.C,C3*
X162901333Y-102719142D02*
X162853714Y-102766761D01*
X162710857Y-102814380D01*
X162615619Y-102814380D01*
X162472761Y-102766761D01*
X162377523Y-102671523D01*
X162329904Y-102576285D01*
X162282285Y-102385809D01*
X162282285Y-102242952D01*
X162329904Y-102052476D01*
X162377523Y-101957238D01*
X162472761Y-101862000D01*
X162615619Y-101814380D01*
X162710857Y-101814380D01*
X162853714Y-101862000D01*
X162901333Y-101909619D01*
X163234666Y-101814380D02*
X163853714Y-101814380D01*
X163520380Y-102195333D01*
X163663238Y-102195333D01*
X163758476Y-102242952D01*
X163806095Y-102290571D01*
X163853714Y-102385809D01*
X163853714Y-102623904D01*
X163806095Y-102719142D01*
X163758476Y-102766761D01*
X163663238Y-102814380D01*
X163377523Y-102814380D01*
X163282285Y-102766761D01*
X163234666Y-102719142D01*
G04 #@! TO.C,C4*
X163425142Y-95416666D02*
X163472761Y-95464285D01*
X163520380Y-95607142D01*
X163520380Y-95702380D01*
X163472761Y-95845238D01*
X163377523Y-95940476D01*
X163282285Y-95988095D01*
X163091809Y-96035714D01*
X162948952Y-96035714D01*
X162758476Y-95988095D01*
X162663238Y-95940476D01*
X162568000Y-95845238D01*
X162520380Y-95702380D01*
X162520380Y-95607142D01*
X162568000Y-95464285D01*
X162615619Y-95416666D01*
X162853714Y-94559523D02*
X163520380Y-94559523D01*
X162472761Y-94797619D02*
X163187047Y-95035714D01*
X163187047Y-94416666D01*
G04 #@! TO.C,C5*
X178877142Y-94778666D02*
X178924761Y-94826285D01*
X178972380Y-94969142D01*
X178972380Y-95064380D01*
X178924761Y-95207238D01*
X178829523Y-95302476D01*
X178734285Y-95350095D01*
X178543809Y-95397714D01*
X178400952Y-95397714D01*
X178210476Y-95350095D01*
X178115238Y-95302476D01*
X178020000Y-95207238D01*
X177972380Y-95064380D01*
X177972380Y-94969142D01*
X178020000Y-94826285D01*
X178067619Y-94778666D01*
X177972380Y-93873904D02*
X177972380Y-94350095D01*
X178448571Y-94397714D01*
X178400952Y-94350095D01*
X178353333Y-94254857D01*
X178353333Y-94016761D01*
X178400952Y-93921523D01*
X178448571Y-93873904D01*
X178543809Y-93826285D01*
X178781904Y-93826285D01*
X178877142Y-93873904D01*
X178924761Y-93921523D01*
X178972380Y-94016761D01*
X178972380Y-94254857D01*
X178924761Y-94350095D01*
X178877142Y-94397714D01*
G04 #@! TO.C,C6*
X175321142Y-94784666D02*
X175368761Y-94832285D01*
X175416380Y-94975142D01*
X175416380Y-95070380D01*
X175368761Y-95213238D01*
X175273523Y-95308476D01*
X175178285Y-95356095D01*
X174987809Y-95403714D01*
X174844952Y-95403714D01*
X174654476Y-95356095D01*
X174559238Y-95308476D01*
X174464000Y-95213238D01*
X174416380Y-95070380D01*
X174416380Y-94975142D01*
X174464000Y-94832285D01*
X174511619Y-94784666D01*
X174416380Y-93927523D02*
X174416380Y-94118000D01*
X174464000Y-94213238D01*
X174511619Y-94260857D01*
X174654476Y-94356095D01*
X174844952Y-94403714D01*
X175225904Y-94403714D01*
X175321142Y-94356095D01*
X175368761Y-94308476D01*
X175416380Y-94213238D01*
X175416380Y-94022761D01*
X175368761Y-93927523D01*
X175321142Y-93879904D01*
X175225904Y-93832285D01*
X174987809Y-93832285D01*
X174892571Y-93879904D01*
X174844952Y-93927523D01*
X174797333Y-94022761D01*
X174797333Y-94213238D01*
X174844952Y-94308476D01*
X174892571Y-94356095D01*
X174987809Y-94403714D01*
G04 #@! TO.C,J1*
X186356666Y-87590380D02*
X186356666Y-88304666D01*
X186309047Y-88447523D01*
X186213809Y-88542761D01*
X186070952Y-88590380D01*
X185975714Y-88590380D01*
X187356666Y-88590380D02*
X186785238Y-88590380D01*
X187070952Y-88590380D02*
X187070952Y-87590380D01*
X186975714Y-87733238D01*
X186880476Y-87828476D01*
X186785238Y-87876095D01*
G04 #@! TO.C,R1*
X168997333Y-87828380D02*
X168664000Y-87352190D01*
X168425904Y-87828380D02*
X168425904Y-86828380D01*
X168806857Y-86828380D01*
X168902095Y-86876000D01*
X168949714Y-86923619D01*
X168997333Y-87018857D01*
X168997333Y-87161714D01*
X168949714Y-87256952D01*
X168902095Y-87304571D01*
X168806857Y-87352190D01*
X168425904Y-87352190D01*
X169949714Y-87828380D02*
X169378285Y-87828380D01*
X169664000Y-87828380D02*
X169664000Y-86828380D01*
X169568761Y-86971238D01*
X169473523Y-87066476D01*
X169378285Y-87114095D01*
G04 #@! TO.C,R2*
X162901333Y-91384380D02*
X162568000Y-90908190D01*
X162329904Y-91384380D02*
X162329904Y-90384380D01*
X162710857Y-90384380D01*
X162806095Y-90432000D01*
X162853714Y-90479619D01*
X162901333Y-90574857D01*
X162901333Y-90717714D01*
X162853714Y-90812952D01*
X162806095Y-90860571D01*
X162710857Y-90908190D01*
X162329904Y-90908190D01*
X163282285Y-90479619D02*
X163329904Y-90432000D01*
X163425142Y-90384380D01*
X163663238Y-90384380D01*
X163758476Y-90432000D01*
X163806095Y-90479619D01*
X163853714Y-90574857D01*
X163853714Y-90670095D01*
X163806095Y-90812952D01*
X163234666Y-91384380D01*
X163853714Y-91384380D01*
G04 #@! TO.C,R3*
X166203333Y-102814380D02*
X165870000Y-102338190D01*
X165631904Y-102814380D02*
X165631904Y-101814380D01*
X166012857Y-101814380D01*
X166108095Y-101862000D01*
X166155714Y-101909619D01*
X166203333Y-102004857D01*
X166203333Y-102147714D01*
X166155714Y-102242952D01*
X166108095Y-102290571D01*
X166012857Y-102338190D01*
X165631904Y-102338190D01*
X166536666Y-101814380D02*
X167155714Y-101814380D01*
X166822380Y-102195333D01*
X166965238Y-102195333D01*
X167060476Y-102242952D01*
X167108095Y-102290571D01*
X167155714Y-102385809D01*
X167155714Y-102623904D01*
X167108095Y-102719142D01*
X167060476Y-102766761D01*
X166965238Y-102814380D01*
X166679523Y-102814380D01*
X166584285Y-102766761D01*
X166536666Y-102719142D01*
G04 #@! TO.C,R4*
X168997333Y-102814380D02*
X168664000Y-102338190D01*
X168425904Y-102814380D02*
X168425904Y-101814380D01*
X168806857Y-101814380D01*
X168902095Y-101862000D01*
X168949714Y-101909619D01*
X168997333Y-102004857D01*
X168997333Y-102147714D01*
X168949714Y-102242952D01*
X168902095Y-102290571D01*
X168806857Y-102338190D01*
X168425904Y-102338190D01*
X169854476Y-102147714D02*
X169854476Y-102814380D01*
X169616380Y-101766761D02*
X169378285Y-102481047D01*
X169997333Y-102481047D01*
G04 #@! TO.C,U1*
X171450095Y-96424380D02*
X171450095Y-97233904D01*
X171497714Y-97329142D01*
X171545333Y-97376761D01*
X171640571Y-97424380D01*
X171831047Y-97424380D01*
X171926285Y-97376761D01*
X171973904Y-97329142D01*
X172021523Y-97233904D01*
X172021523Y-96424380D01*
X173021523Y-97424380D02*
X172450095Y-97424380D01*
X172735809Y-97424380D02*
X172735809Y-96424380D01*
X172640571Y-96567238D01*
X172545333Y-96662476D01*
X172450095Y-96710095D01*
G04 #@! TD*
M02*
