G04 #@! TF.GenerationSoftware,KiCad,Pcbnew,(5.0.0)*
G04 #@! TF.CreationDate,2018-08-05T21:05:08-04:00*
G04 #@! TF.ProjectId,5vStepDown,357653746570446F776E2E6B69636164,rev?*
G04 #@! TF.SameCoordinates,Original*
G04 #@! TF.FileFunction,Copper,L2,Bot,Signal*
G04 #@! TF.FilePolarity,Positive*
%FSLAX46Y46*%
G04 Gerber Fmt 4.6, Leading zero omitted, Abs format (unit mm)*
G04 Created by KiCad (PCBNEW (5.0.0)) date 08/05/18 21:05:08*
%MOMM*%
%LPD*%
G01*
G04 APERTURE LIST*
G04 #@! TA.AperFunction,ComponentPad*
%ADD10C,1.600000*%
G04 #@! TD*
G04 #@! TA.AperFunction,ComponentPad*
%ADD11R,1.600000X1.600000*%
G04 #@! TD*
G04 #@! TA.AperFunction,ComponentPad*
%ADD12C,2.600000*%
G04 #@! TD*
G04 #@! TA.AperFunction,ComponentPad*
%ADD13O,1.700000X1.700000*%
G04 #@! TD*
G04 #@! TA.AperFunction,ComponentPad*
%ADD14R,1.700000X1.700000*%
G04 #@! TD*
G04 #@! TA.AperFunction,ViaPad*
%ADD15C,0.800000*%
G04 #@! TD*
G04 #@! TA.AperFunction,Conductor*
%ADD16C,0.500000*%
G04 #@! TD*
G04 #@! TA.AperFunction,Conductor*
%ADD17C,0.250000*%
G04 #@! TD*
G04 #@! TA.AperFunction,Conductor*
%ADD18C,0.254000*%
G04 #@! TD*
G04 APERTURE END LIST*
D10*
G04 #@! TO.P,C1,2*
G04 #@! TO.N,GND*
X180308000Y-88900000D03*
D11*
G04 #@! TO.P,C1,1*
G04 #@! TO.N,INPUT*
X178308000Y-88900000D03*
G04 #@! TD*
D12*
G04 #@! TO.P,10uH-4A1,2*
G04 #@! TO.N,Net-(10uH-4A1-Pad2)*
X176356000Y-102108000D03*
G04 #@! TO.P,10uH-4A1,1*
G04 #@! TO.N,OUTPUT*
X181356000Y-102108000D03*
G04 #@! TD*
D13*
G04 #@! TO.P,J1,3*
G04 #@! TO.N,OUTPUT*
X183896000Y-95758000D03*
G04 #@! TO.P,J1,2*
G04 #@! TO.N,GND*
X183896000Y-93218000D03*
D14*
G04 #@! TO.P,J1,1*
G04 #@! TO.N,INPUT*
X183896000Y-90678000D03*
G04 #@! TD*
D15*
G04 #@! TO.N,OUTPUT*
X170688000Y-96774000D03*
G04 #@! TO.N,Net-(10uH-4A1-Pad2)*
X174493347Y-91943347D03*
X173980001Y-100339999D03*
G04 #@! TO.N,GND*
X181610000Y-91694000D03*
G04 #@! TO.N,Net-(R1-Pad1)*
X165862000Y-93980000D03*
X165862000Y-90424000D03*
G04 #@! TO.N,Net-(R3-Pad1)*
X169164000Y-91694000D03*
X167640000Y-96520000D03*
G04 #@! TD*
D16*
G04 #@! TO.N,Net-(10uH-4A1-Pad2)*
X173990000Y-100330000D02*
X173980001Y-100339999D01*
X173990000Y-92446694D02*
X173990000Y-100330000D01*
X174493347Y-91943347D02*
X173990000Y-92446694D01*
G04 #@! TO.N,GND*
X181610000Y-90202000D02*
X180308000Y-88900000D01*
X181610000Y-91694000D02*
X181610000Y-90202000D01*
D17*
G04 #@! TO.N,Net-(R1-Pad1)*
X165862000Y-93980000D02*
X165862000Y-90424000D01*
G04 #@! TO.N,Net-(R3-Pad1)*
X169164000Y-91694000D02*
X169164000Y-94996000D01*
X169164000Y-94996000D02*
X167640000Y-96520000D01*
G04 #@! TD*
D18*
G04 #@! TO.N,OUTPUT*
G36*
X185293000Y-89503674D02*
X185203809Y-89370191D01*
X184993765Y-89229843D01*
X184746000Y-89180560D01*
X183046000Y-89180560D01*
X182798235Y-89229843D01*
X182588191Y-89370191D01*
X182447843Y-89580235D01*
X182404506Y-89798105D01*
X182334669Y-89693586D01*
X182297424Y-89637845D01*
X182297423Y-89637844D01*
X182248049Y-89563951D01*
X182174156Y-89514577D01*
X181743000Y-89083421D01*
X181743000Y-88614561D01*
X181524534Y-88087138D01*
X181120862Y-87683466D01*
X180593439Y-87465000D01*
X180022561Y-87465000D01*
X179572090Y-87651591D01*
X179565809Y-87642191D01*
X179355765Y-87501843D01*
X179108000Y-87452560D01*
X177508000Y-87452560D01*
X177260235Y-87501843D01*
X177050191Y-87642191D01*
X176909843Y-87852235D01*
X176860560Y-88100000D01*
X176860560Y-89700000D01*
X176909843Y-89947765D01*
X177050191Y-90157809D01*
X177260235Y-90298157D01*
X177508000Y-90347440D01*
X179108000Y-90347440D01*
X179355765Y-90298157D01*
X179565809Y-90157809D01*
X179572090Y-90148409D01*
X180022561Y-90335000D01*
X180491421Y-90335000D01*
X180725001Y-90568580D01*
X180725000Y-91125992D01*
X180575000Y-91488126D01*
X180575000Y-91899874D01*
X180732569Y-92280280D01*
X181023720Y-92571431D01*
X181404126Y-92729000D01*
X181815874Y-92729000D01*
X182196280Y-92571431D01*
X182487431Y-92280280D01*
X182604806Y-91996911D01*
X182798235Y-92126157D01*
X182843619Y-92135184D01*
X182825375Y-92147375D01*
X182497161Y-92638582D01*
X182381908Y-93218000D01*
X182497161Y-93797418D01*
X182825375Y-94288625D01*
X183144478Y-94501843D01*
X183014642Y-94562817D01*
X182624355Y-94991076D01*
X182454524Y-95401110D01*
X182575845Y-95631000D01*
X183769000Y-95631000D01*
X183769000Y-95611000D01*
X184023000Y-95611000D01*
X184023000Y-95631000D01*
X184043000Y-95631000D01*
X184043000Y-95885000D01*
X184023000Y-95885000D01*
X184023000Y-97078819D01*
X184252892Y-97199486D01*
X184777358Y-96953183D01*
X185167645Y-96524924D01*
X185293000Y-96222271D01*
X185293000Y-105970000D01*
X161218233Y-105970000D01*
X160907953Y-105863692D01*
X160699317Y-105701786D01*
X160554375Y-105481029D01*
X160477804Y-105182541D01*
X160476000Y-105140698D01*
X160476000Y-100472834D01*
X160480456Y-100134125D01*
X172945001Y-100134125D01*
X172945001Y-100545873D01*
X173102570Y-100926279D01*
X173393721Y-101217430D01*
X173774127Y-101374999D01*
X174185875Y-101374999D01*
X174566281Y-101217430D01*
X174675836Y-101107875D01*
X174421000Y-101723105D01*
X174421000Y-102492895D01*
X174715586Y-103204090D01*
X175259910Y-103748414D01*
X175971105Y-104043000D01*
X176740895Y-104043000D01*
X177452090Y-103748414D01*
X177723045Y-103477459D01*
X180166146Y-103477459D01*
X180301504Y-103775455D01*
X181019880Y-104052066D01*
X181789427Y-104032710D01*
X182410496Y-103775455D01*
X182545854Y-103477459D01*
X181356000Y-102287605D01*
X180166146Y-103477459D01*
X177723045Y-103477459D01*
X177996414Y-103204090D01*
X178291000Y-102492895D01*
X178291000Y-101771880D01*
X179411934Y-101771880D01*
X179431290Y-102541427D01*
X179688545Y-103162496D01*
X179986541Y-103297854D01*
X181176395Y-102108000D01*
X181535605Y-102108000D01*
X182725459Y-103297854D01*
X183023455Y-103162496D01*
X183300066Y-102444120D01*
X183280710Y-101674573D01*
X183023455Y-101053504D01*
X182725459Y-100918146D01*
X181535605Y-102108000D01*
X181176395Y-102108000D01*
X179986541Y-100918146D01*
X179688545Y-101053504D01*
X179411934Y-101771880D01*
X178291000Y-101771880D01*
X178291000Y-101723105D01*
X177996414Y-101011910D01*
X177723045Y-100738541D01*
X180166146Y-100738541D01*
X181356000Y-101928395D01*
X182545854Y-100738541D01*
X182410496Y-100440545D01*
X181692120Y-100163934D01*
X180922573Y-100183290D01*
X180301504Y-100440545D01*
X180166146Y-100738541D01*
X177723045Y-100738541D01*
X177452090Y-100467586D01*
X176740895Y-100173000D01*
X175971105Y-100173000D01*
X175259910Y-100467586D01*
X174897182Y-100830314D01*
X175015001Y-100545873D01*
X175015001Y-100134125D01*
X174875000Y-99796132D01*
X174875000Y-96114890D01*
X182454524Y-96114890D01*
X182624355Y-96524924D01*
X183014642Y-96953183D01*
X183539108Y-97199486D01*
X183769000Y-97078819D01*
X183769000Y-95885000D01*
X182575845Y-95885000D01*
X182454524Y-96114890D01*
X174875000Y-96114890D01*
X174875000Y-92905537D01*
X175079627Y-92820778D01*
X175370778Y-92529627D01*
X175528347Y-92149221D01*
X175528347Y-91737473D01*
X175370778Y-91357067D01*
X175079627Y-91065916D01*
X174699221Y-90908347D01*
X174287473Y-90908347D01*
X173907067Y-91065916D01*
X173615916Y-91357067D01*
X173465916Y-91719200D01*
X173425847Y-91759269D01*
X173351951Y-91808645D01*
X173156348Y-92101385D01*
X173105000Y-92359530D01*
X173105000Y-92359533D01*
X173087663Y-92446694D01*
X173105000Y-92533855D01*
X173105001Y-99751288D01*
X173102570Y-99753719D01*
X172945001Y-100134125D01*
X160480456Y-100134125D01*
X160530719Y-96314126D01*
X166605000Y-96314126D01*
X166605000Y-96725874D01*
X166762569Y-97106280D01*
X167053720Y-97397431D01*
X167434126Y-97555000D01*
X167845874Y-97555000D01*
X168226280Y-97397431D01*
X168517431Y-97106280D01*
X168675000Y-96725874D01*
X168675000Y-96559802D01*
X169648476Y-95586327D01*
X169711929Y-95543929D01*
X169754327Y-95480476D01*
X169754329Y-95480474D01*
X169879903Y-95292538D01*
X169879904Y-95292537D01*
X169924000Y-95070852D01*
X169924000Y-95070848D01*
X169938888Y-94996001D01*
X169924000Y-94921154D01*
X169924000Y-92397711D01*
X170041431Y-92280280D01*
X170199000Y-91899874D01*
X170199000Y-91488126D01*
X170041431Y-91107720D01*
X169750280Y-90816569D01*
X169369874Y-90659000D01*
X168958126Y-90659000D01*
X168577720Y-90816569D01*
X168286569Y-91107720D01*
X168129000Y-91488126D01*
X168129000Y-91899874D01*
X168286569Y-92280280D01*
X168404000Y-92397711D01*
X168404001Y-94681196D01*
X167600198Y-95485000D01*
X167434126Y-95485000D01*
X167053720Y-95642569D01*
X166762569Y-95933720D01*
X166605000Y-96314126D01*
X160530719Y-96314126D01*
X160610930Y-90218126D01*
X164827000Y-90218126D01*
X164827000Y-90629874D01*
X164984569Y-91010280D01*
X165102001Y-91127712D01*
X165102000Y-93276289D01*
X164984569Y-93393720D01*
X164827000Y-93774126D01*
X164827000Y-94185874D01*
X164984569Y-94566280D01*
X165275720Y-94857431D01*
X165656126Y-95015000D01*
X166067874Y-95015000D01*
X166448280Y-94857431D01*
X166739431Y-94566280D01*
X166897000Y-94185874D01*
X166897000Y-93774126D01*
X166739431Y-93393720D01*
X166622000Y-93276289D01*
X166622000Y-91127711D01*
X166739431Y-91010280D01*
X166897000Y-90629874D01*
X166897000Y-90218126D01*
X166739431Y-89837720D01*
X166448280Y-89546569D01*
X166067874Y-89389000D01*
X165656126Y-89389000D01*
X165275720Y-89546569D01*
X164984569Y-89837720D01*
X164827000Y-90218126D01*
X160610930Y-90218126D01*
X160650010Y-87248043D01*
X160761477Y-87154512D01*
X160970465Y-87078445D01*
X161066996Y-87070000D01*
X185293000Y-87070000D01*
X185293000Y-89503674D01*
X185293000Y-89503674D01*
G37*
X185293000Y-89503674D02*
X185203809Y-89370191D01*
X184993765Y-89229843D01*
X184746000Y-89180560D01*
X183046000Y-89180560D01*
X182798235Y-89229843D01*
X182588191Y-89370191D01*
X182447843Y-89580235D01*
X182404506Y-89798105D01*
X182334669Y-89693586D01*
X182297424Y-89637845D01*
X182297423Y-89637844D01*
X182248049Y-89563951D01*
X182174156Y-89514577D01*
X181743000Y-89083421D01*
X181743000Y-88614561D01*
X181524534Y-88087138D01*
X181120862Y-87683466D01*
X180593439Y-87465000D01*
X180022561Y-87465000D01*
X179572090Y-87651591D01*
X179565809Y-87642191D01*
X179355765Y-87501843D01*
X179108000Y-87452560D01*
X177508000Y-87452560D01*
X177260235Y-87501843D01*
X177050191Y-87642191D01*
X176909843Y-87852235D01*
X176860560Y-88100000D01*
X176860560Y-89700000D01*
X176909843Y-89947765D01*
X177050191Y-90157809D01*
X177260235Y-90298157D01*
X177508000Y-90347440D01*
X179108000Y-90347440D01*
X179355765Y-90298157D01*
X179565809Y-90157809D01*
X179572090Y-90148409D01*
X180022561Y-90335000D01*
X180491421Y-90335000D01*
X180725001Y-90568580D01*
X180725000Y-91125992D01*
X180575000Y-91488126D01*
X180575000Y-91899874D01*
X180732569Y-92280280D01*
X181023720Y-92571431D01*
X181404126Y-92729000D01*
X181815874Y-92729000D01*
X182196280Y-92571431D01*
X182487431Y-92280280D01*
X182604806Y-91996911D01*
X182798235Y-92126157D01*
X182843619Y-92135184D01*
X182825375Y-92147375D01*
X182497161Y-92638582D01*
X182381908Y-93218000D01*
X182497161Y-93797418D01*
X182825375Y-94288625D01*
X183144478Y-94501843D01*
X183014642Y-94562817D01*
X182624355Y-94991076D01*
X182454524Y-95401110D01*
X182575845Y-95631000D01*
X183769000Y-95631000D01*
X183769000Y-95611000D01*
X184023000Y-95611000D01*
X184023000Y-95631000D01*
X184043000Y-95631000D01*
X184043000Y-95885000D01*
X184023000Y-95885000D01*
X184023000Y-97078819D01*
X184252892Y-97199486D01*
X184777358Y-96953183D01*
X185167645Y-96524924D01*
X185293000Y-96222271D01*
X185293000Y-105970000D01*
X161218233Y-105970000D01*
X160907953Y-105863692D01*
X160699317Y-105701786D01*
X160554375Y-105481029D01*
X160477804Y-105182541D01*
X160476000Y-105140698D01*
X160476000Y-100472834D01*
X160480456Y-100134125D01*
X172945001Y-100134125D01*
X172945001Y-100545873D01*
X173102570Y-100926279D01*
X173393721Y-101217430D01*
X173774127Y-101374999D01*
X174185875Y-101374999D01*
X174566281Y-101217430D01*
X174675836Y-101107875D01*
X174421000Y-101723105D01*
X174421000Y-102492895D01*
X174715586Y-103204090D01*
X175259910Y-103748414D01*
X175971105Y-104043000D01*
X176740895Y-104043000D01*
X177452090Y-103748414D01*
X177723045Y-103477459D01*
X180166146Y-103477459D01*
X180301504Y-103775455D01*
X181019880Y-104052066D01*
X181789427Y-104032710D01*
X182410496Y-103775455D01*
X182545854Y-103477459D01*
X181356000Y-102287605D01*
X180166146Y-103477459D01*
X177723045Y-103477459D01*
X177996414Y-103204090D01*
X178291000Y-102492895D01*
X178291000Y-101771880D01*
X179411934Y-101771880D01*
X179431290Y-102541427D01*
X179688545Y-103162496D01*
X179986541Y-103297854D01*
X181176395Y-102108000D01*
X181535605Y-102108000D01*
X182725459Y-103297854D01*
X183023455Y-103162496D01*
X183300066Y-102444120D01*
X183280710Y-101674573D01*
X183023455Y-101053504D01*
X182725459Y-100918146D01*
X181535605Y-102108000D01*
X181176395Y-102108000D01*
X179986541Y-100918146D01*
X179688545Y-101053504D01*
X179411934Y-101771880D01*
X178291000Y-101771880D01*
X178291000Y-101723105D01*
X177996414Y-101011910D01*
X177723045Y-100738541D01*
X180166146Y-100738541D01*
X181356000Y-101928395D01*
X182545854Y-100738541D01*
X182410496Y-100440545D01*
X181692120Y-100163934D01*
X180922573Y-100183290D01*
X180301504Y-100440545D01*
X180166146Y-100738541D01*
X177723045Y-100738541D01*
X177452090Y-100467586D01*
X176740895Y-100173000D01*
X175971105Y-100173000D01*
X175259910Y-100467586D01*
X174897182Y-100830314D01*
X175015001Y-100545873D01*
X175015001Y-100134125D01*
X174875000Y-99796132D01*
X174875000Y-96114890D01*
X182454524Y-96114890D01*
X182624355Y-96524924D01*
X183014642Y-96953183D01*
X183539108Y-97199486D01*
X183769000Y-97078819D01*
X183769000Y-95885000D01*
X182575845Y-95885000D01*
X182454524Y-96114890D01*
X174875000Y-96114890D01*
X174875000Y-92905537D01*
X175079627Y-92820778D01*
X175370778Y-92529627D01*
X175528347Y-92149221D01*
X175528347Y-91737473D01*
X175370778Y-91357067D01*
X175079627Y-91065916D01*
X174699221Y-90908347D01*
X174287473Y-90908347D01*
X173907067Y-91065916D01*
X173615916Y-91357067D01*
X173465916Y-91719200D01*
X173425847Y-91759269D01*
X173351951Y-91808645D01*
X173156348Y-92101385D01*
X173105000Y-92359530D01*
X173105000Y-92359533D01*
X173087663Y-92446694D01*
X173105000Y-92533855D01*
X173105001Y-99751288D01*
X173102570Y-99753719D01*
X172945001Y-100134125D01*
X160480456Y-100134125D01*
X160530719Y-96314126D01*
X166605000Y-96314126D01*
X166605000Y-96725874D01*
X166762569Y-97106280D01*
X167053720Y-97397431D01*
X167434126Y-97555000D01*
X167845874Y-97555000D01*
X168226280Y-97397431D01*
X168517431Y-97106280D01*
X168675000Y-96725874D01*
X168675000Y-96559802D01*
X169648476Y-95586327D01*
X169711929Y-95543929D01*
X169754327Y-95480476D01*
X169754329Y-95480474D01*
X169879903Y-95292538D01*
X169879904Y-95292537D01*
X169924000Y-95070852D01*
X169924000Y-95070848D01*
X169938888Y-94996001D01*
X169924000Y-94921154D01*
X169924000Y-92397711D01*
X170041431Y-92280280D01*
X170199000Y-91899874D01*
X170199000Y-91488126D01*
X170041431Y-91107720D01*
X169750280Y-90816569D01*
X169369874Y-90659000D01*
X168958126Y-90659000D01*
X168577720Y-90816569D01*
X168286569Y-91107720D01*
X168129000Y-91488126D01*
X168129000Y-91899874D01*
X168286569Y-92280280D01*
X168404000Y-92397711D01*
X168404001Y-94681196D01*
X167600198Y-95485000D01*
X167434126Y-95485000D01*
X167053720Y-95642569D01*
X166762569Y-95933720D01*
X166605000Y-96314126D01*
X160530719Y-96314126D01*
X160610930Y-90218126D01*
X164827000Y-90218126D01*
X164827000Y-90629874D01*
X164984569Y-91010280D01*
X165102001Y-91127712D01*
X165102000Y-93276289D01*
X164984569Y-93393720D01*
X164827000Y-93774126D01*
X164827000Y-94185874D01*
X164984569Y-94566280D01*
X165275720Y-94857431D01*
X165656126Y-95015000D01*
X166067874Y-95015000D01*
X166448280Y-94857431D01*
X166739431Y-94566280D01*
X166897000Y-94185874D01*
X166897000Y-93774126D01*
X166739431Y-93393720D01*
X166622000Y-93276289D01*
X166622000Y-91127711D01*
X166739431Y-91010280D01*
X166897000Y-90629874D01*
X166897000Y-90218126D01*
X166739431Y-89837720D01*
X166448280Y-89546569D01*
X166067874Y-89389000D01*
X165656126Y-89389000D01*
X165275720Y-89546569D01*
X164984569Y-89837720D01*
X164827000Y-90218126D01*
X160610930Y-90218126D01*
X160650010Y-87248043D01*
X160761477Y-87154512D01*
X160970465Y-87078445D01*
X161066996Y-87070000D01*
X185293000Y-87070000D01*
X185293000Y-89503674D01*
G04 #@! TD*
M02*
