G04 #@! TF.GenerationSoftware,KiCad,Pcbnew,(5.0.0)*
G04 #@! TF.CreationDate,2019-03-30T00:16:56-04:00*
G04 #@! TF.ProjectId,EthTester,4574685465737465722E6B696361645F,rev?*
G04 #@! TF.SameCoordinates,Original*
G04 #@! TF.FileFunction,Copper,L2,Bot,Signal*
G04 #@! TF.FilePolarity,Positive*
%FSLAX46Y46*%
G04 Gerber Fmt 4.6, Leading zero omitted, Abs format (unit mm)*
G04 Created by KiCad (PCBNEW (5.0.0)) date 03/30/19 00:16:56*
%MOMM*%
%LPD*%
G01*
G04 APERTURE LIST*
G04 #@! TA.AperFunction,ComponentPad*
%ADD10R,1.500000X1.500000*%
G04 #@! TD*
G04 #@! TA.AperFunction,ComponentPad*
%ADD11C,1.500000*%
G04 #@! TD*
G04 #@! TA.AperFunction,ViaPad*
%ADD12C,0.800000*%
G04 #@! TD*
G04 #@! TA.AperFunction,Conductor*
%ADD13C,0.250000*%
G04 #@! TD*
G04 APERTURE END LIST*
D10*
G04 #@! TO.P,J1,1*
G04 #@! TO.N,Net-(J1-Pad1)*
X109047280Y-88935560D03*
D11*
G04 #@! TO.P,J1,2*
G04 #@! TO.N,Net-(J1-Pad2)*
X111587280Y-90205560D03*
G04 #@! TO.P,J1,3*
G04 #@! TO.N,Net-(J1-Pad3)*
X109047280Y-91475560D03*
G04 #@! TO.P,J1,4*
G04 #@! TO.N,N/C*
X111587280Y-92745560D03*
G04 #@! TO.P,J1,5*
X109047280Y-94015560D03*
G04 #@! TO.P,J1,6*
G04 #@! TO.N,Net-(J1-Pad6)*
X111587280Y-95285560D03*
G04 #@! TO.P,J1,7*
G04 #@! TO.N,N/C*
X109047280Y-96555560D03*
G04 #@! TO.P,J1,8*
X111587280Y-97825560D03*
G04 #@! TD*
D10*
G04 #@! TO.P,J2,1*
G04 #@! TO.N,Net-(J2-Pad1)*
X109159040Y-105587800D03*
D11*
G04 #@! TO.P,J2,2*
G04 #@! TO.N,Net-(J2-Pad2)*
X111699040Y-106857800D03*
G04 #@! TO.P,J2,3*
G04 #@! TO.N,Net-(J2-Pad3)*
X109159040Y-108127800D03*
G04 #@! TO.P,J2,4*
G04 #@! TO.N,N/C*
X111699040Y-109397800D03*
G04 #@! TO.P,J2,5*
X109159040Y-110667800D03*
G04 #@! TO.P,J2,6*
G04 #@! TO.N,Net-(J2-Pad6)*
X111699040Y-111937800D03*
G04 #@! TO.P,J2,7*
G04 #@! TO.N,N/C*
X109159040Y-113207800D03*
G04 #@! TO.P,J2,8*
X111699040Y-114477800D03*
G04 #@! TD*
D10*
G04 #@! TO.P,J3,1*
G04 #@! TO.N,Net-(J3-Pad1)*
X153410920Y-81208880D03*
D11*
G04 #@! TO.P,J3,2*
G04 #@! TO.N,Net-(J3-Pad2)*
X150870920Y-79938880D03*
G04 #@! TO.P,J3,3*
G04 #@! TO.N,Net-(J3-Pad3)*
X153410920Y-78668880D03*
G04 #@! TO.P,J3,4*
G04 #@! TO.N,N/C*
X150870920Y-77398880D03*
G04 #@! TO.P,J3,5*
X153410920Y-76128880D03*
G04 #@! TO.P,J3,6*
G04 #@! TO.N,Net-(J3-Pad6)*
X150870920Y-74858880D03*
G04 #@! TO.P,J3,7*
G04 #@! TO.N,N/C*
X153410920Y-73588880D03*
G04 #@! TO.P,J3,8*
X150870920Y-72318880D03*
G04 #@! TD*
G04 #@! TO.P,J4,8*
G04 #@! TO.N,N/C*
X150764240Y-88976200D03*
G04 #@! TO.P,J4,7*
X153304240Y-90246200D03*
G04 #@! TO.P,J4,6*
G04 #@! TO.N,Net-(J1-Pad6)*
X150764240Y-91516200D03*
G04 #@! TO.P,J4,5*
G04 #@! TO.N,N/C*
X153304240Y-92786200D03*
G04 #@! TO.P,J4,4*
X150764240Y-94056200D03*
G04 #@! TO.P,J4,3*
G04 #@! TO.N,Net-(J1-Pad3)*
X153304240Y-95326200D03*
G04 #@! TO.P,J4,2*
G04 #@! TO.N,Net-(J1-Pad2)*
X150764240Y-96596200D03*
D10*
G04 #@! TO.P,J4,1*
G04 #@! TO.N,Net-(J1-Pad1)*
X153304240Y-97866200D03*
G04 #@! TD*
D11*
G04 #@! TO.P,J5,8*
G04 #@! TO.N,N/C*
X150657560Y-105628440D03*
G04 #@! TO.P,J5,7*
X153197560Y-106898440D03*
G04 #@! TO.P,J5,6*
G04 #@! TO.N,Net-(J2-Pad6)*
X150657560Y-108168440D03*
G04 #@! TO.P,J5,5*
G04 #@! TO.N,N/C*
X153197560Y-109438440D03*
G04 #@! TO.P,J5,4*
X150657560Y-110708440D03*
G04 #@! TO.P,J5,3*
G04 #@! TO.N,Net-(J2-Pad3)*
X153197560Y-111978440D03*
G04 #@! TO.P,J5,2*
G04 #@! TO.N,Net-(J2-Pad2)*
X150657560Y-113248440D03*
D10*
G04 #@! TO.P,J5,1*
G04 #@! TO.N,Net-(J2-Pad1)*
X153197560Y-114518440D03*
G04 #@! TD*
D11*
G04 #@! TO.P,J6,8*
G04 #@! TO.N,N/C*
X111506000Y-81026000D03*
G04 #@! TO.P,J6,7*
X108966000Y-79756000D03*
G04 #@! TO.P,J6,6*
G04 #@! TO.N,Net-(J3-Pad6)*
X111506000Y-78486000D03*
G04 #@! TO.P,J6,5*
G04 #@! TO.N,N/C*
X108966000Y-77216000D03*
G04 #@! TO.P,J6,4*
X111506000Y-75946000D03*
G04 #@! TO.P,J6,3*
G04 #@! TO.N,Net-(J3-Pad3)*
X108966000Y-74676000D03*
G04 #@! TO.P,J6,2*
G04 #@! TO.N,Net-(J3-Pad2)*
X111506000Y-73406000D03*
D10*
G04 #@! TO.P,J6,1*
G04 #@! TO.N,Net-(J3-Pad1)*
X108966000Y-72136000D03*
G04 #@! TD*
D12*
G04 #@! TO.N,Net-(J2-Pad1)*
X135509000Y-107950000D03*
G04 #@! TO.N,Net-(J2-Pad2)*
X136779000Y-108077000D03*
G04 #@! TO.N,Net-(J2-Pad3)*
X144399000Y-110617000D03*
G04 #@! TO.N,Net-(J2-Pad6)*
X145542000Y-110363000D03*
G04 #@! TD*
D13*
G04 #@! TO.N,Net-(J1-Pad1)*
X108047280Y-88935560D02*
X109047280Y-88935560D01*
X105410000Y-95758000D02*
X106426000Y-95758000D01*
X104902000Y-95250000D02*
X105410000Y-95758000D01*
X106426000Y-95758000D02*
X106807000Y-95377000D01*
X103632000Y-89789000D02*
X104521000Y-89789000D01*
X104521000Y-89789000D02*
X104902000Y-90170000D01*
X102997000Y-90424000D02*
X103632000Y-89789000D01*
X102997000Y-95123000D02*
X102997000Y-90424000D01*
X106807000Y-90175840D02*
X108047280Y-88935560D01*
X108679561Y-98900561D02*
X106172000Y-96393000D01*
X109164869Y-98900561D02*
X108679561Y-98900561D01*
X109705308Y-99441000D02*
X109164869Y-98900561D01*
X104902000Y-90170000D02*
X104902000Y-95250000D01*
X106172000Y-96393000D02*
X100457000Y-96393000D01*
X99822000Y-90551000D02*
X100457000Y-89916000D01*
X106807000Y-95377000D02*
X106807000Y-90175840D01*
X152304240Y-97866200D02*
X150729440Y-99441000D01*
X153304240Y-97866200D02*
X152304240Y-97866200D01*
X100457000Y-96393000D02*
X99822000Y-95758000D01*
X102108000Y-95377000D02*
X102743000Y-95377000D01*
X100457000Y-89916000D02*
X101219000Y-89916000D01*
X150729440Y-99441000D02*
X109705308Y-99441000D01*
X101219000Y-89916000D02*
X101727000Y-90424000D01*
X102743000Y-95377000D02*
X102997000Y-95123000D01*
X101727000Y-90424000D02*
X101727000Y-94996000D01*
X99822000Y-95758000D02*
X99822000Y-90551000D01*
X101727000Y-94996000D02*
X102108000Y-95377000D01*
G04 #@! TO.N,Net-(J1-Pad2)*
X150014241Y-97346199D02*
X150764240Y-96596200D01*
X111587280Y-90205560D02*
X108295440Y-90205560D01*
X108295440Y-90205560D02*
X107569000Y-90932000D01*
X107569000Y-96668282D02*
X109801279Y-98900561D01*
X109801279Y-98900561D02*
X148459879Y-98900561D01*
X107569000Y-90932000D02*
X107569000Y-96668282D01*
X148459879Y-98900561D02*
X150014241Y-97346199D01*
G04 #@! TO.N,Net-(J1-Pad3)*
X111461277Y-91670559D02*
X132945559Y-91670559D01*
X110516279Y-90725561D02*
X111461277Y-91670559D01*
X109047280Y-91475560D02*
X109797279Y-90725561D01*
X109797279Y-90725561D02*
X110516279Y-90725561D01*
X132945559Y-91670559D02*
X133604000Y-91012118D01*
X133604000Y-91012118D02*
X133604000Y-90043000D01*
X133604000Y-90043000D02*
X132715000Y-89154000D01*
X132715000Y-89154000D02*
X114046000Y-89154000D01*
X114046000Y-89154000D02*
X113411000Y-88519000D01*
X113411000Y-88519000D02*
X113411000Y-87376000D01*
X113411000Y-87376000D02*
X114427000Y-86360000D01*
X151009042Y-86360000D02*
X155829000Y-91179958D01*
X114427000Y-86360000D02*
X151009042Y-86360000D01*
X155829000Y-92801440D02*
X153304240Y-95326200D01*
X155829000Y-91179958D02*
X155829000Y-92801440D01*
G04 #@! TO.N,Net-(J1-Pad6)*
X146994880Y-95285560D02*
X111587280Y-95285560D01*
X150764240Y-91516200D02*
X146994880Y-95285560D01*
G04 #@! TO.N,Net-(J2-Pad1)*
X142077440Y-114518440D02*
X153197560Y-114518440D01*
X135509000Y-107950000D02*
X142077440Y-114518440D01*
G04 #@! TO.N,Net-(J2-Pad2)*
X149596900Y-113248440D02*
X148799340Y-114046000D01*
X150657560Y-113248440D02*
X149596900Y-113248440D01*
X148799340Y-114046000D02*
X142241410Y-114046000D01*
X137178999Y-108476999D02*
X137178999Y-108983589D01*
X136779000Y-108077000D02*
X137178999Y-108476999D01*
X137178999Y-108983589D02*
X142241410Y-114046000D01*
G04 #@! TO.N,Net-(J2-Pad3)*
X152136900Y-111978440D02*
X153197560Y-111978440D01*
X145194755Y-111978440D02*
X152136900Y-111978440D01*
X144399000Y-111182685D02*
X145194755Y-111978440D01*
X144399000Y-110617000D02*
X144399000Y-111182685D01*
G04 #@! TO.N,Net-(J2-Pad6)*
X147736560Y-108168440D02*
X150657560Y-108168440D01*
X145542000Y-110363000D02*
X147736560Y-108168440D01*
G04 #@! TO.N,Net-(J3-Pad1)*
X147176046Y-84246549D02*
X147223549Y-84199046D01*
X147119165Y-84282290D02*
X147176046Y-84246549D01*
X147223549Y-84199046D02*
X147259290Y-84142165D01*
X116624756Y-80002478D02*
X116558000Y-80010000D01*
X116688165Y-79980290D02*
X116624756Y-80002478D01*
X116745046Y-79944549D02*
X116688165Y-79980290D01*
X116792549Y-79897046D02*
X116745046Y-79944549D01*
X116828290Y-79840165D02*
X116792549Y-79897046D01*
X116850478Y-79776756D02*
X116828290Y-79840165D01*
X116858000Y-79710000D02*
X116850478Y-79776756D01*
X116858000Y-79310000D02*
X116858000Y-79710000D01*
X116865521Y-79243243D02*
X116858000Y-79310000D01*
X116887709Y-79179834D02*
X116865521Y-79243243D01*
X116923450Y-79122953D02*
X116887709Y-79179834D01*
X116970953Y-79075450D02*
X116923450Y-79122953D01*
X117027834Y-79039709D02*
X116970953Y-79075450D01*
X117091243Y-79017521D02*
X117027834Y-79039709D01*
X117158000Y-79010000D02*
X117091243Y-79017521D01*
X117224756Y-79017521D02*
X117158000Y-79010000D01*
X117288165Y-79039709D02*
X117224756Y-79017521D01*
X117345046Y-79075450D02*
X117288165Y-79039709D01*
X117392549Y-79122953D02*
X117345046Y-79075450D01*
X117428290Y-79179834D02*
X117392549Y-79122953D01*
X117450478Y-79243243D02*
X117428290Y-79179834D01*
X117458000Y-79310000D02*
X117450478Y-79243243D01*
X117458000Y-80710000D02*
X117458000Y-79310000D01*
X117465521Y-80776757D02*
X117458000Y-80710000D01*
X117487709Y-80840166D02*
X117465521Y-80776757D01*
X117523450Y-80897047D02*
X117487709Y-80840166D01*
X117570953Y-80944550D02*
X117523450Y-80897047D01*
X117627834Y-80980291D02*
X117570953Y-80944550D01*
X117691243Y-81002479D02*
X117627834Y-80980291D01*
X117758000Y-81010000D02*
X117691243Y-81002479D01*
X117824756Y-81002479D02*
X117758000Y-81010000D01*
X117888165Y-80980291D02*
X117824756Y-81002479D01*
X117945046Y-80944550D02*
X117888165Y-80980291D01*
X117992549Y-80897047D02*
X117945046Y-80944550D01*
X118028290Y-80840166D02*
X117992549Y-80897047D01*
X118050478Y-80776757D02*
X118028290Y-80840166D01*
X118058000Y-80710000D02*
X118050478Y-80776757D01*
X118058000Y-79310000D02*
X118058000Y-80710000D01*
X118065521Y-79243243D02*
X118058000Y-79310000D01*
X118087709Y-79179834D02*
X118065521Y-79243243D01*
X118123450Y-79122953D02*
X118087709Y-79179834D01*
X118170953Y-79075450D02*
X118123450Y-79122953D01*
X118227834Y-79039709D02*
X118170953Y-79075450D01*
X118291243Y-79017521D02*
X118227834Y-79039709D01*
X118358000Y-79010000D02*
X118291243Y-79017521D01*
X118424756Y-79017521D02*
X118358000Y-79010000D01*
X118488165Y-79039709D02*
X118424756Y-79017521D01*
X133687709Y-79179834D02*
X133665521Y-79243243D01*
X134024756Y-79017521D02*
X133958000Y-79010000D01*
X134192549Y-79122953D02*
X134145046Y-79075450D01*
X134265521Y-80776757D02*
X134258000Y-80710000D01*
X134287709Y-80840166D02*
X134265521Y-80776757D01*
X134323450Y-80897047D02*
X134287709Y-80840166D01*
X134427834Y-80980291D02*
X134370953Y-80944550D01*
X134491243Y-81002479D02*
X134427834Y-80980291D01*
X134558000Y-81010000D02*
X134491243Y-81002479D01*
X134828290Y-80840166D02*
X134792549Y-80897047D01*
X134923450Y-79122953D02*
X134887709Y-79179834D01*
X135027834Y-79039709D02*
X134970953Y-79075450D01*
X135392549Y-79122953D02*
X135345046Y-79075450D01*
X135465521Y-80776757D02*
X135458000Y-80710000D01*
X135487709Y-80840166D02*
X135465521Y-80776757D01*
X135523450Y-80897047D02*
X135487709Y-80840166D01*
X135691243Y-81002479D02*
X135627834Y-80980291D01*
X135758000Y-81010000D02*
X135691243Y-81002479D01*
X135824756Y-81002479D02*
X135758000Y-81010000D01*
X135888165Y-80980291D02*
X135824756Y-81002479D01*
X135945046Y-80944550D02*
X135888165Y-80980291D01*
X135992549Y-80897047D02*
X135945046Y-80944550D01*
X136028290Y-80840166D02*
X135992549Y-80897047D01*
X136050478Y-80776757D02*
X136028290Y-80840166D01*
X136058000Y-79310000D02*
X136058000Y-80710000D01*
X136065521Y-79243243D02*
X136058000Y-79310000D01*
X136087709Y-79179834D02*
X136065521Y-79243243D01*
X136123450Y-79122953D02*
X136087709Y-79179834D01*
X136170953Y-79075450D02*
X136123450Y-79122953D01*
X136227834Y-79039709D02*
X136170953Y-79075450D01*
X136291243Y-79017521D02*
X136227834Y-79039709D01*
X136358000Y-79010000D02*
X136291243Y-79017521D01*
X136424756Y-79017521D02*
X136358000Y-79010000D01*
X136488165Y-79039709D02*
X136424756Y-79017521D01*
X136592549Y-79122953D02*
X136545046Y-79075450D01*
X136628290Y-79179834D02*
X136592549Y-79122953D01*
X136650478Y-79243243D02*
X136628290Y-79179834D01*
X136658000Y-79310000D02*
X136650478Y-79243243D01*
X136658000Y-80710000D02*
X136658000Y-79310000D01*
X136665521Y-80776757D02*
X136658000Y-80710000D01*
X136687709Y-80840166D02*
X136665521Y-80776757D01*
X136723450Y-80897047D02*
X136687709Y-80840166D01*
X136770953Y-80944550D02*
X136723450Y-80897047D01*
X136827834Y-80980291D02*
X136770953Y-80944550D01*
X136891243Y-81002479D02*
X136827834Y-80980291D01*
X136958000Y-81010000D02*
X136891243Y-81002479D01*
X137024756Y-81002479D02*
X136958000Y-81010000D01*
X137088165Y-80980291D02*
X137024756Y-81002479D01*
X137145046Y-80944550D02*
X137088165Y-80980291D01*
X137192549Y-80897047D02*
X137145046Y-80944550D01*
X137228290Y-80840166D02*
X137192549Y-80897047D01*
X137250478Y-80776757D02*
X137228290Y-80840166D01*
X137258000Y-80710000D02*
X137250478Y-80776757D01*
X137258000Y-79310000D02*
X137258000Y-80710000D01*
X137287709Y-79179834D02*
X137265521Y-79243243D01*
X137323450Y-79122953D02*
X137287709Y-79179834D01*
X137370953Y-79075450D02*
X137323450Y-79122953D01*
X137491243Y-79017521D02*
X137427834Y-79039709D01*
X137558000Y-79010000D02*
X137491243Y-79017521D01*
X137624756Y-79017521D02*
X137558000Y-79010000D01*
X137688165Y-79039709D02*
X137624756Y-79017521D01*
X137745046Y-79075450D02*
X137688165Y-79039709D01*
X137792549Y-79122953D02*
X137745046Y-79075450D01*
X137828290Y-79179834D02*
X137792549Y-79122953D01*
X137858000Y-79310000D02*
X137850478Y-79243243D01*
X137858000Y-80710000D02*
X137858000Y-79310000D01*
X137865521Y-80776757D02*
X137858000Y-80710000D01*
X137923450Y-80897047D02*
X137887709Y-80840166D01*
X137970953Y-80944550D02*
X137923450Y-80897047D01*
X138027834Y-80980291D02*
X137970953Y-80944550D01*
X138091243Y-81002479D02*
X138027834Y-80980291D01*
X138158000Y-81010000D02*
X138091243Y-81002479D01*
X138224756Y-81002479D02*
X138158000Y-81010000D01*
X138288165Y-80980291D02*
X138224756Y-81002479D01*
X138345046Y-80944550D02*
X138288165Y-80980291D01*
X138392549Y-80897047D02*
X138345046Y-80944550D01*
X138428290Y-80840166D02*
X138392549Y-80897047D01*
X138450478Y-80776757D02*
X138428290Y-80840166D01*
X138458000Y-80710000D02*
X138450478Y-80776757D01*
X138458000Y-79310000D02*
X138458000Y-80710000D01*
X138465521Y-79243243D02*
X138458000Y-79310000D01*
X138487709Y-79179834D02*
X138465521Y-79243243D01*
X138523450Y-79122953D02*
X138487709Y-79179834D01*
X138570953Y-79075450D02*
X138523450Y-79122953D01*
X138627834Y-79039709D02*
X138570953Y-79075450D01*
X138691243Y-79017521D02*
X138627834Y-79039709D01*
X138758000Y-79010000D02*
X138691243Y-79017521D01*
X138824756Y-79017521D02*
X138758000Y-79010000D01*
X138888165Y-79039709D02*
X138824756Y-79017521D01*
X138945046Y-79075450D02*
X138888165Y-79039709D01*
X138992549Y-79122953D02*
X138945046Y-79075450D01*
X139028290Y-79179834D02*
X138992549Y-79122953D01*
X139050478Y-79243243D02*
X139028290Y-79179834D01*
X139058000Y-79310000D02*
X139050478Y-79243243D01*
X139058000Y-80710000D02*
X139058000Y-79310000D01*
X139065521Y-80776757D02*
X139058000Y-80710000D01*
X139087709Y-80840166D02*
X139065521Y-80776757D01*
X139123450Y-80897047D02*
X139087709Y-80840166D01*
X139170953Y-80944550D02*
X139123450Y-80897047D01*
X139227834Y-80980291D02*
X139170953Y-80944550D01*
X139291243Y-81002479D02*
X139227834Y-80980291D01*
X139358000Y-81010000D02*
X139291243Y-81002479D01*
X139424756Y-81002479D02*
X139358000Y-81010000D01*
X139488165Y-80980291D02*
X139424756Y-81002479D01*
X139545046Y-80944550D02*
X139488165Y-80980291D01*
X139592549Y-80897047D02*
X139545046Y-80944550D01*
X139628290Y-80840166D02*
X139592549Y-80897047D01*
X139650478Y-80776757D02*
X139628290Y-80840166D01*
X139658000Y-80710000D02*
X139650478Y-80776757D01*
X139658000Y-79310000D02*
X139658000Y-80710000D01*
X139665521Y-79243243D02*
X139658000Y-79310000D01*
X139687709Y-79179834D02*
X139665521Y-79243243D01*
X139723450Y-79122953D02*
X139687709Y-79179834D01*
X139770953Y-79075450D02*
X139723450Y-79122953D01*
X139827834Y-79039709D02*
X139770953Y-79075450D01*
X139891243Y-79017521D02*
X139827834Y-79039709D01*
X139958000Y-79010000D02*
X139891243Y-79017521D01*
X140024756Y-79017521D02*
X139958000Y-79010000D01*
X140088165Y-79039709D02*
X140024756Y-79017521D01*
X140145046Y-79075450D02*
X140088165Y-79039709D01*
X140192549Y-79122953D02*
X140145046Y-79075450D01*
X140323450Y-80897047D02*
X140287709Y-80840166D01*
X135458000Y-79310000D02*
X135450478Y-79243243D01*
X134887709Y-79179834D02*
X134865521Y-79243243D01*
X144945046Y-79075450D02*
X144888165Y-79039709D01*
X142065521Y-79243243D02*
X142058000Y-79310000D01*
X133628290Y-80840166D02*
X133592549Y-80897047D01*
X140558000Y-81010000D02*
X140491243Y-81002479D01*
X135428290Y-79179834D02*
X135392549Y-79122953D01*
X145592549Y-80897047D02*
X145545046Y-80944550D01*
X142058000Y-79310000D02*
X142058000Y-80710000D01*
X144570953Y-79075450D02*
X144523450Y-79122953D01*
X140792549Y-80897047D02*
X140745046Y-80944550D01*
X140688165Y-80980291D02*
X140624756Y-81002479D01*
X140287709Y-80840166D02*
X140265521Y-80776757D01*
X135091243Y-79017521D02*
X135027834Y-79039709D01*
X133658000Y-79310000D02*
X133658000Y-80710000D01*
X133650478Y-80776757D02*
X133628290Y-80840166D01*
X140258000Y-79310000D02*
X140250478Y-79243243D01*
X140370953Y-80944550D02*
X140323450Y-80897047D01*
X135450478Y-79243243D02*
X135428290Y-79179834D01*
X140624756Y-81002479D02*
X140558000Y-81010000D01*
X134745046Y-80944550D02*
X134688165Y-80980291D01*
X134858000Y-79310000D02*
X134858000Y-80710000D01*
X133358000Y-81010000D02*
X133291243Y-81002479D01*
X145545046Y-80944550D02*
X145488165Y-80980291D01*
X142488165Y-79039709D02*
X142424756Y-79017521D01*
X133658000Y-80710000D02*
X133650478Y-80776757D01*
X140491243Y-81002479D02*
X140427834Y-80980291D01*
X133827834Y-79039709D02*
X133770953Y-79075450D01*
X143865521Y-80776757D02*
X143858000Y-80710000D01*
X142723450Y-80897047D02*
X142687709Y-80840166D01*
X134865521Y-79243243D02*
X134858000Y-79310000D01*
X142628290Y-79179834D02*
X142592549Y-79122953D01*
X145028290Y-79179834D02*
X144992549Y-79122953D01*
X140745046Y-80944550D02*
X140688165Y-80980291D01*
X134970953Y-79075450D02*
X134923450Y-79122953D01*
X142687709Y-80840166D02*
X142665521Y-80776757D01*
X133545046Y-80944550D02*
X133488165Y-80980291D01*
X134228290Y-79179834D02*
X134192549Y-79122953D01*
X143792549Y-79122953D02*
X143745046Y-79075450D01*
X143088165Y-80980291D02*
X143024756Y-81002479D01*
X141027834Y-79039709D02*
X140970953Y-79075450D01*
X135345046Y-79075450D02*
X135288165Y-79039709D01*
X137887709Y-80840166D02*
X137865521Y-80776757D01*
X134145046Y-79075450D02*
X134088165Y-79039709D01*
X134088165Y-79039709D02*
X134024756Y-79017521D01*
X142891243Y-81002479D02*
X142827834Y-80980291D01*
X144523450Y-79122953D02*
X144487709Y-79179834D01*
X140265521Y-80776757D02*
X140258000Y-80710000D01*
X137850478Y-79243243D02*
X137828290Y-79179834D01*
X145628290Y-80840166D02*
X145592549Y-80897047D01*
X142658000Y-80710000D02*
X142658000Y-79310000D01*
X133424756Y-81002479D02*
X133358000Y-81010000D01*
X137427834Y-79039709D02*
X137370953Y-79075450D01*
X144345046Y-80944550D02*
X144288165Y-80980291D01*
X119865521Y-80776757D02*
X119858000Y-80710000D01*
X141450478Y-79243243D02*
X141428290Y-79179834D01*
X135158000Y-79010000D02*
X135091243Y-79017521D01*
X143265521Y-79243243D02*
X143258000Y-79310000D01*
X141465521Y-80776757D02*
X141458000Y-80710000D01*
X135458000Y-80710000D02*
X135458000Y-79310000D01*
X145170953Y-80944550D02*
X145123450Y-80897047D01*
X141392549Y-79122953D02*
X141345046Y-79075450D01*
X134258000Y-80710000D02*
X134258000Y-79310000D01*
X141345046Y-79075450D02*
X141288165Y-79039709D01*
X135627834Y-80980291D02*
X135570953Y-80944550D01*
X134624756Y-81002479D02*
X134558000Y-81010000D01*
X140970953Y-79075450D02*
X140923450Y-79122953D01*
X145723450Y-79122953D02*
X145687709Y-79179834D01*
X141487709Y-80840166D02*
X141465521Y-80776757D01*
X133958000Y-79010000D02*
X133891243Y-79017521D01*
X141824756Y-81002479D02*
X141758000Y-81010000D01*
X143228290Y-80840166D02*
X143192549Y-80897047D01*
X144992549Y-79122953D02*
X144945046Y-79075450D01*
X140427834Y-80980291D02*
X140370953Y-80944550D01*
X136058000Y-80710000D02*
X136050478Y-80776757D01*
X145665521Y-79243243D02*
X145658000Y-79310000D01*
X142291243Y-79017521D02*
X142227834Y-79039709D01*
X133770953Y-79075450D02*
X133723450Y-79122953D01*
X140858000Y-80710000D02*
X140850478Y-80776757D01*
X134370953Y-80944550D02*
X134323450Y-80897047D01*
X137265521Y-79243243D02*
X137258000Y-79310000D01*
X140250478Y-79243243D02*
X140228290Y-79179834D01*
X145050478Y-79243243D02*
X145028290Y-79179834D01*
X141224756Y-79017521D02*
X141158000Y-79010000D01*
X135570953Y-80944550D02*
X135523450Y-80897047D01*
X133891243Y-79017521D02*
X133827834Y-79039709D01*
X140850478Y-80776757D02*
X140828290Y-80840166D01*
X134258000Y-79310000D02*
X134250478Y-79243243D01*
X142028290Y-80840166D02*
X141992549Y-80897047D01*
X134250478Y-79243243D02*
X134228290Y-79179834D01*
X136545046Y-79075450D02*
X136488165Y-79039709D01*
X134850478Y-80776757D02*
X134828290Y-80840166D01*
X140887709Y-79179834D02*
X140865521Y-79243243D01*
X133488165Y-80980291D02*
X133424756Y-81002479D01*
X135224756Y-79017521D02*
X135158000Y-79010000D01*
X140923450Y-79122953D02*
X140887709Y-79179834D01*
X133723450Y-79122953D02*
X133687709Y-79179834D01*
X134858000Y-80710000D02*
X134850478Y-80776757D01*
X141458000Y-79310000D02*
X141450478Y-79243243D01*
X134688165Y-80980291D02*
X134624756Y-81002479D01*
X143258000Y-79310000D02*
X143258000Y-80710000D01*
X141458000Y-80710000D02*
X141458000Y-79310000D01*
X144027834Y-80980291D02*
X143970953Y-80944550D01*
X143192549Y-80897047D02*
X143145046Y-80944550D01*
X134792549Y-80897047D02*
X134745046Y-80944550D01*
X133592549Y-80897047D02*
X133545046Y-80944550D01*
X140228290Y-79179834D02*
X140192549Y-79122953D01*
X133665521Y-79243243D02*
X133658000Y-79310000D01*
X135288165Y-79039709D02*
X135224756Y-79017521D01*
X142358000Y-79010000D02*
X142291243Y-79017521D01*
X143427834Y-79039709D02*
X143370953Y-79075450D01*
X140258000Y-80710000D02*
X140258000Y-79310000D01*
X144091243Y-81002479D02*
X144027834Y-80980291D01*
X142050478Y-80776757D02*
X142028290Y-80840166D01*
X144824756Y-79017521D02*
X144758000Y-79010000D01*
X142827834Y-80980291D02*
X142770953Y-80944550D01*
X143970953Y-80944550D02*
X143923450Y-80897047D01*
X142958000Y-81010000D02*
X142891243Y-81002479D01*
X143923450Y-80897047D02*
X143887709Y-80840166D01*
X142650478Y-79243243D02*
X142628290Y-79179834D01*
X144158000Y-81010000D02*
X144091243Y-81002479D01*
X143250478Y-80776757D02*
X143228290Y-80840166D01*
X143887709Y-80840166D02*
X143865521Y-80776757D01*
X143145046Y-80944550D02*
X143088165Y-80980291D01*
X143024756Y-81002479D02*
X142958000Y-81010000D01*
X143370953Y-79075450D02*
X143323450Y-79122953D01*
X142770953Y-80944550D02*
X142723450Y-80897047D01*
X144458000Y-79310000D02*
X144458000Y-80710000D01*
X142665521Y-80776757D02*
X142658000Y-80710000D01*
X142658000Y-79310000D02*
X142650478Y-79243243D01*
X142592549Y-79122953D02*
X142545046Y-79075450D01*
X143491243Y-79017521D02*
X143427834Y-79039709D01*
X142545046Y-79075450D02*
X142488165Y-79039709D01*
X143858000Y-80710000D02*
X143858000Y-79310000D01*
X142424756Y-79017521D02*
X142358000Y-79010000D01*
X144465521Y-79243243D02*
X144458000Y-79310000D01*
X142227834Y-79039709D02*
X142170953Y-79075450D01*
X145488165Y-80980291D02*
X145424756Y-81002479D01*
X142170953Y-79075450D02*
X142123450Y-79122953D01*
X144450478Y-80776757D02*
X144428290Y-80840166D01*
X142123450Y-79122953D02*
X142087709Y-79179834D01*
X143745046Y-79075450D02*
X143688165Y-79039709D01*
X142087709Y-79179834D02*
X142065521Y-79243243D01*
X144392549Y-80897047D02*
X144345046Y-80944550D01*
X142058000Y-80710000D02*
X142050478Y-80776757D01*
X143323450Y-79122953D02*
X143287709Y-79179834D01*
X141992549Y-80897047D02*
X141945046Y-80944550D01*
X145424756Y-81002479D02*
X145358000Y-81010000D01*
X141945046Y-80944550D02*
X141888165Y-80980291D01*
X143850478Y-79243243D02*
X143828290Y-79179834D01*
X141888165Y-80980291D02*
X141824756Y-81002479D01*
X144458000Y-80710000D02*
X144450478Y-80776757D01*
X141758000Y-81010000D02*
X141691243Y-81002479D01*
X143558000Y-79010000D02*
X143491243Y-79017521D01*
X141691243Y-81002479D02*
X141627834Y-80980291D01*
X144627834Y-79039709D02*
X144570953Y-79075450D01*
X141627834Y-80980291D02*
X141570953Y-80944550D01*
X144428290Y-80840166D02*
X144392549Y-80897047D01*
X141570953Y-80944550D02*
X141523450Y-80897047D01*
X143828290Y-79179834D02*
X143792549Y-79122953D01*
X141523450Y-80897047D02*
X141487709Y-80840166D01*
X143287709Y-79179834D02*
X143265521Y-79243243D01*
X141428290Y-79179834D02*
X141392549Y-79122953D01*
X143858000Y-79310000D02*
X143850478Y-79243243D01*
X141288165Y-79039709D02*
X141224756Y-79017521D01*
X145658000Y-79310000D02*
X145658000Y-80710000D01*
X141158000Y-79010000D02*
X141091243Y-79017521D01*
X145058000Y-80710000D02*
X145058000Y-79310000D01*
X141091243Y-79017521D02*
X141027834Y-79039709D01*
X140865521Y-79243243D02*
X140858000Y-79310000D01*
X140858000Y-79310000D02*
X140858000Y-80710000D01*
X140828290Y-80840166D02*
X140792549Y-80897047D01*
X133291243Y-81002479D02*
X133227834Y-80980291D01*
X133227834Y-80980291D02*
X133170953Y-80944550D01*
X133170953Y-80944550D02*
X133123450Y-80897047D01*
X133123450Y-80897047D02*
X133087709Y-80840166D01*
X133087709Y-80840166D02*
X133065521Y-80776757D01*
X133065521Y-80776757D02*
X133058000Y-80710000D01*
X133058000Y-80710000D02*
X133058000Y-79310000D01*
X133058000Y-79310000D02*
X133050478Y-79243243D01*
X133050478Y-79243243D02*
X133028290Y-79179834D01*
X133028290Y-79179834D02*
X132992549Y-79122953D01*
X132992549Y-79122953D02*
X132945046Y-79075450D01*
X132945046Y-79075450D02*
X132888165Y-79039709D01*
X132888165Y-79039709D02*
X132824756Y-79017521D01*
X132824756Y-79017521D02*
X132758000Y-79010000D01*
X132758000Y-79010000D02*
X132691243Y-79017521D01*
X132691243Y-79017521D02*
X132627834Y-79039709D01*
X132627834Y-79039709D02*
X132570953Y-79075450D01*
X132570953Y-79075450D02*
X132523450Y-79122953D01*
X132523450Y-79122953D02*
X132487709Y-79179834D01*
X132487709Y-79179834D02*
X132465521Y-79243243D01*
X132465521Y-79243243D02*
X132458000Y-79310000D01*
X132458000Y-79310000D02*
X132458000Y-80710000D01*
X132458000Y-80710000D02*
X132450478Y-80776757D01*
X132450478Y-80776757D02*
X132428290Y-80840166D01*
X132428290Y-80840166D02*
X132392549Y-80897047D01*
X132392549Y-80897047D02*
X132345046Y-80944550D01*
X132345046Y-80944550D02*
X132288165Y-80980291D01*
X132288165Y-80980291D02*
X132224756Y-81002479D01*
X132224756Y-81002479D02*
X132158000Y-81010000D01*
X132158000Y-81010000D02*
X132091243Y-81002479D01*
X132091243Y-81002479D02*
X132027834Y-80980291D01*
X132027834Y-80980291D02*
X131970953Y-80944550D01*
X131970953Y-80944550D02*
X131923450Y-80897047D01*
X131923450Y-80897047D02*
X131887709Y-80840166D01*
X131887709Y-80840166D02*
X131865521Y-80776757D01*
X131865521Y-80776757D02*
X131858000Y-80710000D01*
X131858000Y-80710000D02*
X131858000Y-79310000D01*
X131858000Y-79310000D02*
X131850478Y-79243243D01*
X131850478Y-79243243D02*
X131828290Y-79179834D01*
X131828290Y-79179834D02*
X131792549Y-79122953D01*
X131792549Y-79122953D02*
X131745046Y-79075450D01*
X131745046Y-79075450D02*
X131688165Y-79039709D01*
X131688165Y-79039709D02*
X131624756Y-79017521D01*
X131624756Y-79017521D02*
X131558000Y-79010000D01*
X131558000Y-79010000D02*
X131491243Y-79017521D01*
X131491243Y-79017521D02*
X131427834Y-79039709D01*
X131427834Y-79039709D02*
X131370953Y-79075450D01*
X131370953Y-79075450D02*
X131323450Y-79122953D01*
X131323450Y-79122953D02*
X131287709Y-79179834D01*
X131287709Y-79179834D02*
X131265521Y-79243243D01*
X131265521Y-79243243D02*
X131258000Y-79310000D01*
X131258000Y-79310000D02*
X131258000Y-80710000D01*
X131258000Y-80710000D02*
X131250478Y-80776757D01*
X131250478Y-80776757D02*
X131228290Y-80840166D01*
X131228290Y-80840166D02*
X131192549Y-80897047D01*
X131192549Y-80897047D02*
X131145046Y-80944550D01*
X131145046Y-80944550D02*
X131088165Y-80980291D01*
X131088165Y-80980291D02*
X131024756Y-81002479D01*
X131024756Y-81002479D02*
X130958000Y-81010000D01*
X130958000Y-81010000D02*
X130891243Y-81002479D01*
X130891243Y-81002479D02*
X130827834Y-80980291D01*
X130827834Y-80980291D02*
X130770953Y-80944550D01*
X130770953Y-80944550D02*
X130723450Y-80897047D01*
X130723450Y-80897047D02*
X130687709Y-80840166D01*
X130687709Y-80840166D02*
X130665521Y-80776757D01*
X130665521Y-80776757D02*
X130658000Y-80710000D01*
X130658000Y-80710000D02*
X130658000Y-79310000D01*
X130658000Y-79310000D02*
X130650478Y-79243243D01*
X130650478Y-79243243D02*
X130628290Y-79179834D01*
X130628290Y-79179834D02*
X130592549Y-79122953D01*
X130592549Y-79122953D02*
X130545046Y-79075450D01*
X130545046Y-79075450D02*
X130488165Y-79039709D01*
X130488165Y-79039709D02*
X130424756Y-79017521D01*
X130424756Y-79017521D02*
X130358000Y-79010000D01*
X130358000Y-79010000D02*
X130291243Y-79017521D01*
X130291243Y-79017521D02*
X130227834Y-79039709D01*
X130227834Y-79039709D02*
X130170953Y-79075450D01*
X130170953Y-79075450D02*
X130123450Y-79122953D01*
X130123450Y-79122953D02*
X130087709Y-79179834D01*
X130087709Y-79179834D02*
X130065521Y-79243243D01*
X130065521Y-79243243D02*
X130058000Y-79310000D01*
X130058000Y-79310000D02*
X130058000Y-80710000D01*
X130058000Y-80710000D02*
X130050478Y-80776757D01*
X130050478Y-80776757D02*
X130028290Y-80840166D01*
X130028290Y-80840166D02*
X129992549Y-80897047D01*
X129992549Y-80897047D02*
X129945046Y-80944550D01*
X129945046Y-80944550D02*
X129888165Y-80980291D01*
X129888165Y-80980291D02*
X129824756Y-81002479D01*
X129824756Y-81002479D02*
X129758000Y-81010000D01*
X129758000Y-81010000D02*
X129691243Y-81002479D01*
X129691243Y-81002479D02*
X129627834Y-80980291D01*
X129627834Y-80980291D02*
X129570953Y-80944550D01*
X129570953Y-80944550D02*
X129523450Y-80897047D01*
X129523450Y-80897047D02*
X129487709Y-80840166D01*
X129487709Y-80840166D02*
X129465521Y-80776757D01*
X129465521Y-80776757D02*
X129458000Y-80710000D01*
X129458000Y-80710000D02*
X129458000Y-79310000D01*
X129458000Y-79310000D02*
X129450478Y-79243243D01*
X129450478Y-79243243D02*
X129428290Y-79179834D01*
X129428290Y-79179834D02*
X129392549Y-79122953D01*
X129392549Y-79122953D02*
X129345046Y-79075450D01*
X129345046Y-79075450D02*
X129288165Y-79039709D01*
X129288165Y-79039709D02*
X129224756Y-79017521D01*
X129224756Y-79017521D02*
X129158000Y-79010000D01*
X129158000Y-79010000D02*
X129091243Y-79017521D01*
X129091243Y-79017521D02*
X129027834Y-79039709D01*
X129027834Y-79039709D02*
X128970953Y-79075450D01*
X128970953Y-79075450D02*
X128923450Y-79122953D01*
X128923450Y-79122953D02*
X128887709Y-79179834D01*
X128887709Y-79179834D02*
X128865521Y-79243243D01*
X128865521Y-79243243D02*
X128858000Y-79310000D01*
X128858000Y-79310000D02*
X128858000Y-80710000D01*
X128858000Y-80710000D02*
X128850478Y-80776757D01*
X128850478Y-80776757D02*
X128828290Y-80840166D01*
X128828290Y-80840166D02*
X128792549Y-80897047D01*
X128792549Y-80897047D02*
X128745046Y-80944550D01*
X128745046Y-80944550D02*
X128688165Y-80980291D01*
X128688165Y-80980291D02*
X128624756Y-81002479D01*
X128624756Y-81002479D02*
X128558000Y-81010000D01*
X128558000Y-81010000D02*
X128491243Y-81002479D01*
X128491243Y-81002479D02*
X128427834Y-80980291D01*
X128427834Y-80980291D02*
X128370953Y-80944550D01*
X128370953Y-80944550D02*
X128323450Y-80897047D01*
X128323450Y-80897047D02*
X128287709Y-80840166D01*
X128287709Y-80840166D02*
X128265521Y-80776757D01*
X128265521Y-80776757D02*
X128258000Y-80710000D01*
X128258000Y-80710000D02*
X128258000Y-79310000D01*
X128258000Y-79310000D02*
X128250478Y-79243243D01*
X128250478Y-79243243D02*
X128228290Y-79179834D01*
X128228290Y-79179834D02*
X128192549Y-79122953D01*
X128192549Y-79122953D02*
X128145046Y-79075450D01*
X128145046Y-79075450D02*
X128088165Y-79039709D01*
X128088165Y-79039709D02*
X128024756Y-79017521D01*
X128024756Y-79017521D02*
X127958000Y-79010000D01*
X127958000Y-79010000D02*
X127891243Y-79017521D01*
X127891243Y-79017521D02*
X127827834Y-79039709D01*
X127827834Y-79039709D02*
X127770953Y-79075450D01*
X127770953Y-79075450D02*
X127723450Y-79122953D01*
X127723450Y-79122953D02*
X127687709Y-79179834D01*
X127687709Y-79179834D02*
X127665521Y-79243243D01*
X127665521Y-79243243D02*
X127658000Y-79310000D01*
X127658000Y-79310000D02*
X127658000Y-80710000D01*
X127658000Y-80710000D02*
X127650478Y-80776757D01*
X127650478Y-80776757D02*
X127628290Y-80840166D01*
X127628290Y-80840166D02*
X127592549Y-80897047D01*
X127592549Y-80897047D02*
X127545046Y-80944550D01*
X127545046Y-80944550D02*
X127488165Y-80980291D01*
X127488165Y-80980291D02*
X127424756Y-81002479D01*
X127424756Y-81002479D02*
X127358000Y-81010000D01*
X127358000Y-81010000D02*
X127291243Y-81002479D01*
X127291243Y-81002479D02*
X127227834Y-80980291D01*
X127227834Y-80980291D02*
X127170953Y-80944550D01*
X127170953Y-80944550D02*
X127123450Y-80897047D01*
X127123450Y-80897047D02*
X127087709Y-80840166D01*
X127087709Y-80840166D02*
X127065521Y-80776757D01*
X127065521Y-80776757D02*
X127058000Y-80710000D01*
X127058000Y-80710000D02*
X127058000Y-79310000D01*
X127058000Y-79310000D02*
X127050478Y-79243243D01*
X127050478Y-79243243D02*
X127028290Y-79179834D01*
X127028290Y-79179834D02*
X126992549Y-79122953D01*
X126992549Y-79122953D02*
X126945046Y-79075450D01*
X126945046Y-79075450D02*
X126888165Y-79039709D01*
X126888165Y-79039709D02*
X126824756Y-79017521D01*
X126824756Y-79017521D02*
X126758000Y-79010000D01*
X126758000Y-79010000D02*
X126691243Y-79017521D01*
X126691243Y-79017521D02*
X126627834Y-79039709D01*
X126627834Y-79039709D02*
X126570953Y-79075450D01*
X126570953Y-79075450D02*
X126523450Y-79122953D01*
X126523450Y-79122953D02*
X126487709Y-79179834D01*
X126487709Y-79179834D02*
X126465521Y-79243243D01*
X126465521Y-79243243D02*
X126458000Y-79310000D01*
X126458000Y-79310000D02*
X126458000Y-80710000D01*
X126458000Y-80710000D02*
X126450478Y-80776757D01*
X126450478Y-80776757D02*
X126428290Y-80840166D01*
X126428290Y-80840166D02*
X126392549Y-80897047D01*
X126392549Y-80897047D02*
X126345046Y-80944550D01*
X126345046Y-80944550D02*
X126288165Y-80980291D01*
X126288165Y-80980291D02*
X126224756Y-81002479D01*
X126224756Y-81002479D02*
X126158000Y-81010000D01*
X126158000Y-81010000D02*
X126091243Y-81002479D01*
X126091243Y-81002479D02*
X126027834Y-80980291D01*
X126027834Y-80980291D02*
X125970953Y-80944550D01*
X125970953Y-80944550D02*
X125923450Y-80897047D01*
X125923450Y-80897047D02*
X125887709Y-80840166D01*
X125887709Y-80840166D02*
X125865521Y-80776757D01*
X125865521Y-80776757D02*
X125858000Y-80710000D01*
X125858000Y-80710000D02*
X125858000Y-79310000D01*
X125858000Y-79310000D02*
X125850478Y-79243243D01*
X125850478Y-79243243D02*
X125828290Y-79179834D01*
X125828290Y-79179834D02*
X125792549Y-79122953D01*
X125792549Y-79122953D02*
X125745046Y-79075450D01*
X125745046Y-79075450D02*
X125688165Y-79039709D01*
X125688165Y-79039709D02*
X125624756Y-79017521D01*
X125624756Y-79017521D02*
X125558000Y-79010000D01*
X125558000Y-79010000D02*
X125491243Y-79017521D01*
X125491243Y-79017521D02*
X125427834Y-79039709D01*
X125427834Y-79039709D02*
X125370953Y-79075450D01*
X125370953Y-79075450D02*
X125323450Y-79122953D01*
X125323450Y-79122953D02*
X125287709Y-79179834D01*
X125287709Y-79179834D02*
X125265521Y-79243243D01*
X125265521Y-79243243D02*
X125258000Y-79310000D01*
X125258000Y-79310000D02*
X125258000Y-80710000D01*
X125258000Y-80710000D02*
X125250478Y-80776757D01*
X125250478Y-80776757D02*
X125228290Y-80840166D01*
X125228290Y-80840166D02*
X125192549Y-80897047D01*
X125192549Y-80897047D02*
X125145046Y-80944550D01*
X125145046Y-80944550D02*
X125088165Y-80980291D01*
X125088165Y-80980291D02*
X125024756Y-81002479D01*
X125024756Y-81002479D02*
X124958000Y-81010000D01*
X124958000Y-81010000D02*
X124891243Y-81002479D01*
X119745046Y-79075450D02*
X119688165Y-79039709D01*
X124891243Y-81002479D02*
X124827834Y-80980291D01*
X119370953Y-79075450D02*
X119323450Y-79122953D01*
X124827834Y-80980291D02*
X124770953Y-80944550D01*
X119258000Y-80710000D02*
X119250478Y-80776757D01*
X124770953Y-80944550D02*
X124723450Y-80897047D01*
X118770953Y-80944550D02*
X118723450Y-80897047D01*
X124723450Y-80897047D02*
X124687709Y-80840166D01*
X124687709Y-80840166D02*
X124665521Y-80776757D01*
X124665521Y-80776757D02*
X124658000Y-80710000D01*
X118545046Y-79075450D02*
X118488165Y-79039709D01*
X124658000Y-80710000D02*
X124658000Y-79310000D01*
X124658000Y-79310000D02*
X124650478Y-79243243D01*
X119228290Y-80840166D02*
X119192549Y-80897047D01*
X124650478Y-79243243D02*
X124628290Y-79179834D01*
X119265521Y-79243243D02*
X119258000Y-79310000D01*
X124628290Y-79179834D02*
X124592549Y-79122953D01*
X124592549Y-79122953D02*
X124545046Y-79075450D01*
X118628290Y-79179834D02*
X118592549Y-79122953D01*
X124545046Y-79075450D02*
X124488165Y-79039709D01*
X118827834Y-80980291D02*
X118770953Y-80944550D01*
X124488165Y-79039709D02*
X124424756Y-79017521D01*
X146265521Y-79776756D02*
X146258000Y-79710000D01*
X124424756Y-79017521D02*
X124358000Y-79010000D01*
X124358000Y-79010000D02*
X124291243Y-79017521D01*
X119088165Y-80980291D02*
X119024756Y-81002479D01*
X146287709Y-79840165D02*
X146265521Y-79776756D01*
X124291243Y-79017521D02*
X124227834Y-79039709D01*
X124227834Y-79039709D02*
X124170953Y-79075450D01*
X124170953Y-79075450D02*
X124123450Y-79122953D01*
X124123450Y-79122953D02*
X124087709Y-79179834D01*
X119850478Y-79243243D02*
X119828290Y-79179834D01*
X124087709Y-79179834D02*
X124065521Y-79243243D01*
X124065521Y-79243243D02*
X124058000Y-79310000D01*
X124058000Y-79310000D02*
X124058000Y-80710000D01*
X118658000Y-80710000D02*
X118658000Y-79310000D01*
X124058000Y-80710000D02*
X124050478Y-80776757D01*
X124050478Y-80776757D02*
X124028290Y-80840166D01*
X118658000Y-79310000D02*
X118650478Y-79243243D01*
X124028290Y-80840166D02*
X123992549Y-80897047D01*
X119858000Y-79310000D02*
X119850478Y-79243243D01*
X123992549Y-80897047D02*
X123945046Y-80944550D01*
X118650478Y-79243243D02*
X118628290Y-79179834D01*
X123945046Y-80944550D02*
X123888165Y-80980291D01*
X119145046Y-80944550D02*
X119088165Y-80980291D01*
X143258000Y-80710000D02*
X143250478Y-80776757D01*
X123888165Y-80980291D02*
X123824756Y-81002479D01*
X123824756Y-81002479D02*
X123758000Y-81010000D01*
X119192549Y-80897047D02*
X119145046Y-80944550D01*
X123758000Y-81010000D02*
X123691243Y-81002479D01*
X119287709Y-79179834D02*
X119265521Y-79243243D01*
X123691243Y-81002479D02*
X123627834Y-80980291D01*
X123627834Y-80980291D02*
X123570953Y-80944550D01*
X119792549Y-79122953D02*
X119745046Y-79075450D01*
X123570953Y-80944550D02*
X123523450Y-80897047D01*
X146192549Y-79122953D02*
X146145046Y-79075450D01*
X123523450Y-80897047D02*
X123487709Y-80840166D01*
X123487709Y-80840166D02*
X123465521Y-80776757D01*
X119688165Y-79039709D02*
X119624756Y-79017521D01*
X145770953Y-79075450D02*
X145723450Y-79122953D01*
X123465521Y-80776757D02*
X123458000Y-80710000D01*
X123458000Y-80710000D02*
X123458000Y-79310000D01*
X119250478Y-80776757D02*
X119228290Y-80840166D01*
X146323450Y-79897046D02*
X146287709Y-79840165D01*
X123458000Y-79310000D02*
X123450478Y-79243243D01*
X123450478Y-79243243D02*
X123428290Y-79179834D01*
X118958000Y-81010000D02*
X118891243Y-81002479D01*
X123428290Y-79179834D02*
X123392549Y-79122953D01*
X123392549Y-79122953D02*
X123345046Y-79075450D01*
X118891243Y-81002479D02*
X118827834Y-80980291D01*
X123345046Y-79075450D02*
X123288165Y-79039709D01*
X119427834Y-79039709D02*
X119370953Y-79075450D01*
X123288165Y-79039709D02*
X123224756Y-79017521D01*
X118687709Y-80840166D02*
X118665521Y-80776757D01*
X123224756Y-79017521D02*
X123158000Y-79010000D01*
X119624756Y-79017521D02*
X119558000Y-79010000D01*
X123158000Y-79010000D02*
X123091243Y-79017521D01*
X119558000Y-79010000D02*
X119491243Y-79017521D01*
X123091243Y-79017521D02*
X123027834Y-79039709D01*
X118723450Y-80897047D02*
X118687709Y-80840166D01*
X123027834Y-79039709D02*
X122970953Y-79075450D01*
X119323450Y-79122953D02*
X119287709Y-79179834D01*
X122970953Y-79075450D02*
X122923450Y-79122953D01*
X122923450Y-79122953D02*
X122887709Y-79179834D01*
X122887709Y-79179834D02*
X122865521Y-79243243D01*
X119491243Y-79017521D02*
X119427834Y-79039709D01*
X122865521Y-79243243D02*
X122858000Y-79310000D01*
X118665521Y-80776757D02*
X118658000Y-80710000D01*
X122858000Y-79310000D02*
X122858000Y-80710000D01*
X119828290Y-79179834D02*
X119792549Y-79122953D01*
X122858000Y-80710000D02*
X122850478Y-80776757D01*
X122850478Y-80776757D02*
X122828290Y-80840166D01*
X119258000Y-79310000D02*
X119258000Y-80710000D01*
X122828290Y-80840166D02*
X122792549Y-80897047D01*
X119024756Y-81002479D02*
X118958000Y-81010000D01*
X122792549Y-80897047D02*
X122745046Y-80944550D01*
X122745046Y-80944550D02*
X122688165Y-80980291D01*
X118592549Y-79122953D02*
X118545046Y-79075450D01*
X122688165Y-80980291D02*
X122624756Y-81002479D01*
X119858000Y-80710000D02*
X119858000Y-79310000D01*
X122624756Y-81002479D02*
X122558000Y-81010000D01*
X122558000Y-81010000D02*
X122491243Y-81002479D01*
X122491243Y-81002479D02*
X122427834Y-80980291D01*
X122427834Y-80980291D02*
X122370953Y-80944550D01*
X144224756Y-81002479D02*
X144158000Y-81010000D01*
X122370953Y-80944550D02*
X122323450Y-80897047D01*
X145227834Y-80980291D02*
X145170953Y-80944550D01*
X122323450Y-80897047D02*
X122287709Y-80840166D01*
X122287709Y-80840166D02*
X122265521Y-80776757D01*
X122265521Y-80776757D02*
X122258000Y-80710000D01*
X145658000Y-80710000D02*
X145650478Y-80776757D01*
X122258000Y-80710000D02*
X122258000Y-79310000D01*
X122258000Y-79310000D02*
X122250478Y-79243243D01*
X122250478Y-79243243D02*
X122228290Y-79179834D01*
X146088165Y-79039709D02*
X146024756Y-79017521D01*
X122228290Y-79179834D02*
X122192549Y-79122953D01*
X122192549Y-79122953D02*
X122145046Y-79075450D01*
X122145046Y-79075450D02*
X122088165Y-79039709D01*
X144288165Y-80980291D02*
X144224756Y-81002479D01*
X122088165Y-79039709D02*
X122024756Y-79017521D01*
X122024756Y-79017521D02*
X121958000Y-79010000D01*
X121958000Y-79010000D02*
X121891243Y-79017521D01*
X121891243Y-79017521D02*
X121827834Y-79039709D01*
X121827834Y-79039709D02*
X121770953Y-79075450D01*
X146228290Y-79179834D02*
X146192549Y-79122953D01*
X121770953Y-79075450D02*
X121723450Y-79122953D01*
X145827834Y-79039709D02*
X145770953Y-79075450D01*
X121723450Y-79122953D02*
X121687709Y-79179834D01*
X145650478Y-80776757D02*
X145628290Y-80840166D01*
X121687709Y-79179834D02*
X121665521Y-79243243D01*
X121665521Y-79243243D02*
X121658000Y-79310000D01*
X121658000Y-79310000D02*
X121658000Y-80710000D01*
X121658000Y-80710000D02*
X121650478Y-80776757D01*
X121650478Y-80776757D02*
X121628290Y-80840166D01*
X121628290Y-80840166D02*
X121592549Y-80897047D01*
X145058000Y-79310000D02*
X145050478Y-79243243D01*
X121592549Y-80897047D02*
X121545046Y-80944550D01*
X121545046Y-80944550D02*
X121488165Y-80980291D01*
X121488165Y-80980291D02*
X121424756Y-81002479D01*
X146024756Y-79017521D02*
X145958000Y-79010000D01*
X121424756Y-81002479D02*
X121358000Y-81010000D01*
X146145046Y-79075450D02*
X146088165Y-79039709D01*
X121358000Y-81010000D02*
X121291243Y-81002479D01*
X121291243Y-81002479D02*
X121227834Y-80980291D01*
X145065521Y-80776757D02*
X145058000Y-80710000D01*
X121227834Y-80980291D02*
X121170953Y-80944550D01*
X121170953Y-80944550D02*
X121123450Y-80897047D01*
X146258000Y-79310000D02*
X146250478Y-79243243D01*
X121123450Y-80897047D02*
X121087709Y-80840166D01*
X121087709Y-80840166D02*
X121065521Y-80776757D01*
X148971000Y-81153000D02*
X147828000Y-80010000D01*
X121065521Y-80776757D02*
X121058000Y-80710000D01*
X121058000Y-80710000D02*
X121058000Y-79310000D01*
X147828000Y-80010000D02*
X146558000Y-80010000D01*
X121058000Y-79310000D02*
X121050478Y-79243243D01*
X121050478Y-79243243D02*
X121028290Y-79179834D01*
X121028290Y-79179834D02*
X120992549Y-79122953D01*
X144758000Y-79010000D02*
X144691243Y-79017521D01*
X120992549Y-79122953D02*
X120945046Y-79075450D01*
X120945046Y-79075450D02*
X120888165Y-79039709D01*
X146370953Y-79944549D02*
X146323450Y-79897046D01*
X120888165Y-79039709D02*
X120824756Y-79017521D01*
X146491243Y-80002478D02*
X146427834Y-79980290D01*
X120824756Y-79017521D02*
X120758000Y-79010000D01*
X146558000Y-80010000D02*
X146491243Y-80002478D01*
X120758000Y-79010000D02*
X120691243Y-79017521D01*
X145958000Y-79010000D02*
X145891243Y-79017521D01*
X120691243Y-79017521D02*
X120627834Y-79039709D01*
X146427834Y-79980290D02*
X146370953Y-79944549D01*
X120627834Y-79039709D02*
X120570953Y-79075450D01*
X144487709Y-79179834D02*
X144465521Y-79243243D01*
X120570953Y-79075450D02*
X120523450Y-79122953D01*
X143688165Y-79039709D02*
X143624756Y-79017521D01*
X120523450Y-79122953D02*
X120487709Y-79179834D01*
X146250478Y-79243243D02*
X146228290Y-79179834D01*
X120487709Y-79179834D02*
X120465521Y-79243243D01*
X120465521Y-79243243D02*
X120458000Y-79310000D01*
X120458000Y-79310000D02*
X120458000Y-80710000D01*
X144691243Y-79017521D02*
X144627834Y-79039709D01*
X120458000Y-80710000D02*
X120450478Y-80776757D01*
X120450478Y-80776757D02*
X120428290Y-80840166D01*
X145123450Y-80897047D02*
X145087709Y-80840166D01*
X120428290Y-80840166D02*
X120392549Y-80897047D01*
X120392549Y-80897047D02*
X120345046Y-80944550D01*
X120345046Y-80944550D02*
X120288165Y-80980291D01*
X145891243Y-79017521D02*
X145827834Y-79039709D01*
X120288165Y-80980291D02*
X120224756Y-81002479D01*
X145687709Y-79179834D02*
X145665521Y-79243243D01*
X120224756Y-81002479D02*
X120158000Y-81010000D01*
X143624756Y-79017521D02*
X143558000Y-79010000D01*
X120158000Y-81010000D02*
X120091243Y-81002479D01*
X146258000Y-79710000D02*
X146258000Y-79310000D01*
X120091243Y-81002479D02*
X120027834Y-80980291D01*
X144888165Y-79039709D02*
X144824756Y-79017521D01*
X120027834Y-80980291D02*
X119970953Y-80944550D01*
X145358000Y-81010000D02*
X145291243Y-81002479D01*
X119970953Y-80944550D02*
X119923450Y-80897047D01*
X145087709Y-80840166D02*
X145065521Y-80776757D01*
X119923450Y-80897047D02*
X119887709Y-80840166D01*
X145291243Y-81002479D02*
X145227834Y-80980291D01*
X119887709Y-80840166D02*
X119865521Y-80776757D01*
X150169880Y-81208880D02*
X153410920Y-81208880D01*
X147320000Y-78359000D02*
X150169880Y-81208880D01*
X147119165Y-84274835D02*
X148971000Y-82423000D01*
X147119165Y-84282290D02*
X147119165Y-84274835D01*
X148971000Y-82423000D02*
X148971000Y-81153000D01*
X115824000Y-79502000D02*
X116332000Y-80010000D01*
X116558000Y-80010000D02*
X116332000Y-80010000D01*
X115824000Y-78867000D02*
X116332000Y-78359000D01*
X116332000Y-78359000D02*
X147320000Y-78359000D01*
X115824000Y-78867000D02*
X115824000Y-79502000D01*
X147055756Y-84304478D02*
X147119165Y-84282290D01*
X146989000Y-84312000D02*
X147055756Y-84304478D01*
X146922243Y-84304478D02*
X146989000Y-84312000D01*
X146858834Y-84282290D02*
X146922243Y-84304478D01*
X146801953Y-84246549D02*
X146858834Y-84282290D01*
X146754450Y-84199046D02*
X146801953Y-84246549D01*
X146718709Y-84142165D02*
X146754450Y-84199046D01*
X146696521Y-84078756D02*
X146718709Y-84142165D01*
X146689000Y-84012000D02*
X146696521Y-84078756D01*
X146689000Y-82612000D02*
X146689000Y-84012000D01*
X146681478Y-82545244D02*
X146689000Y-82612000D01*
X146659290Y-82481835D02*
X146681478Y-82545244D01*
X146623549Y-82424954D02*
X146659290Y-82481835D01*
X146576046Y-82377451D02*
X146623549Y-82424954D01*
X146519165Y-82341710D02*
X146576046Y-82377451D01*
X146455756Y-82319522D02*
X146519165Y-82341710D01*
X146389000Y-82312000D02*
X146455756Y-82319522D01*
X146322243Y-82319522D02*
X146389000Y-82312000D01*
X146258834Y-82341710D02*
X146322243Y-82319522D01*
X146201953Y-82377451D02*
X146258834Y-82341710D01*
X146154450Y-82424954D02*
X146201953Y-82377451D01*
X146118709Y-82481835D02*
X146154450Y-82424954D01*
X146096521Y-82545244D02*
X146118709Y-82481835D01*
X146089000Y-82612000D02*
X146096521Y-82545244D01*
X146089000Y-84012000D02*
X146089000Y-82612000D01*
X146081478Y-84078756D02*
X146089000Y-84012000D01*
X146059290Y-84142165D02*
X146081478Y-84078756D01*
X146023549Y-84199046D02*
X146059290Y-84142165D01*
X145976046Y-84246549D02*
X146023549Y-84199046D01*
X145919165Y-84282290D02*
X145976046Y-84246549D01*
X145855756Y-84304478D02*
X145919165Y-84282290D01*
X145789000Y-84312000D02*
X145855756Y-84304478D01*
X145722243Y-84304478D02*
X145789000Y-84312000D01*
X145658834Y-84282290D02*
X145722243Y-84304478D01*
X145601953Y-84246549D02*
X145658834Y-84282290D01*
X145554450Y-84199046D02*
X145601953Y-84246549D01*
X145518709Y-84142165D02*
X145554450Y-84199046D01*
X145496521Y-84078756D02*
X145518709Y-84142165D01*
X145489000Y-84012000D02*
X145496521Y-84078756D01*
X145489000Y-82612000D02*
X145489000Y-84012000D01*
X145481478Y-82545244D02*
X145489000Y-82612000D01*
X145459290Y-82481835D02*
X145481478Y-82545244D01*
X145423549Y-82424954D02*
X145459290Y-82481835D01*
X145376046Y-82377451D02*
X145423549Y-82424954D01*
X145319165Y-82341710D02*
X145376046Y-82377451D01*
X145255756Y-82319522D02*
X145319165Y-82341710D01*
X145189000Y-82312000D02*
X145255756Y-82319522D01*
X140258834Y-82341710D02*
X140322243Y-82319522D01*
X140201953Y-82377451D02*
X140258834Y-82341710D01*
X139554450Y-84199046D02*
X139601953Y-84246549D01*
X138289000Y-82612000D02*
X138289000Y-84012000D01*
X138281478Y-82545244D02*
X138289000Y-82612000D01*
X138259290Y-82481835D02*
X138281478Y-82545244D01*
X138223549Y-82424954D02*
X138259290Y-82481835D01*
X138176046Y-82377451D02*
X138223549Y-82424954D01*
X138119165Y-82341710D02*
X138176046Y-82377451D01*
X138055756Y-82319522D02*
X138119165Y-82341710D01*
X137989000Y-82312000D02*
X138055756Y-82319522D01*
X137922243Y-82319522D02*
X137989000Y-82312000D01*
X137858834Y-82341710D02*
X137922243Y-82319522D01*
X137801953Y-82377451D02*
X137858834Y-82341710D01*
X137754450Y-82424954D02*
X137801953Y-82377451D01*
X137718709Y-82481835D02*
X137754450Y-82424954D01*
X137696521Y-82545244D02*
X137718709Y-82481835D01*
X137689000Y-82612000D02*
X137696521Y-82545244D01*
X137689000Y-84012000D02*
X137689000Y-82612000D01*
X137681478Y-84078756D02*
X137689000Y-84012000D01*
X137659290Y-84142165D02*
X137681478Y-84078756D01*
X137623549Y-84199046D02*
X137659290Y-84142165D01*
X137576046Y-84246549D02*
X137623549Y-84199046D01*
X137519165Y-84282290D02*
X137576046Y-84246549D01*
X137455756Y-84304478D02*
X137519165Y-84282290D01*
X137389000Y-84312000D02*
X137455756Y-84304478D01*
X137322243Y-84304478D02*
X137389000Y-84312000D01*
X137258834Y-84282290D02*
X137322243Y-84304478D01*
X137201953Y-84246549D02*
X137258834Y-84282290D01*
X137154450Y-84199046D02*
X137201953Y-84246549D01*
X137118709Y-84142165D02*
X137154450Y-84199046D01*
X137096521Y-84078756D02*
X137118709Y-84142165D01*
X137089000Y-84012000D02*
X137096521Y-84078756D01*
X137089000Y-82612000D02*
X137089000Y-84012000D01*
X137081478Y-82545244D02*
X137089000Y-82612000D01*
X137059290Y-82481835D02*
X137081478Y-82545244D01*
X137023549Y-82424954D02*
X137059290Y-82481835D01*
X136976046Y-82377451D02*
X137023549Y-82424954D01*
X136919165Y-82341710D02*
X136976046Y-82377451D01*
X136855756Y-82319522D02*
X136919165Y-82341710D01*
X136789000Y-82312000D02*
X136855756Y-82319522D01*
X136722243Y-82319522D02*
X136789000Y-82312000D01*
X136658834Y-82341710D02*
X136722243Y-82319522D01*
X136601953Y-82377451D02*
X136658834Y-82341710D01*
X136554450Y-82424954D02*
X136601953Y-82377451D01*
X136518709Y-82481835D02*
X136554450Y-82424954D01*
X136496521Y-82545244D02*
X136518709Y-82481835D01*
X136489000Y-82612000D02*
X136496521Y-82545244D01*
X136489000Y-84012000D02*
X136489000Y-82612000D01*
X136481478Y-84078756D02*
X136489000Y-84012000D01*
X136459290Y-84142165D02*
X136481478Y-84078756D01*
X136423549Y-84199046D02*
X136459290Y-84142165D01*
X136376046Y-84246549D02*
X136423549Y-84199046D01*
X136319165Y-84282290D02*
X136376046Y-84246549D01*
X136255756Y-84304478D02*
X136319165Y-84282290D01*
X136189000Y-84312000D02*
X136255756Y-84304478D01*
X136122243Y-84304478D02*
X136189000Y-84312000D01*
X136058834Y-84282290D02*
X136122243Y-84304478D01*
X136001953Y-84246549D02*
X136058834Y-84282290D01*
X135954450Y-84199046D02*
X136001953Y-84246549D01*
X135918709Y-84142165D02*
X135954450Y-84199046D01*
X135896521Y-84078756D02*
X135918709Y-84142165D01*
X135889000Y-84012000D02*
X135896521Y-84078756D01*
X135889000Y-82612000D02*
X135889000Y-84012000D01*
X135881478Y-82545244D02*
X135889000Y-82612000D01*
X135859290Y-82481835D02*
X135881478Y-82545244D01*
X135823549Y-82424954D02*
X135859290Y-82481835D01*
X135776046Y-82377451D02*
X135823549Y-82424954D01*
X135719165Y-82341710D02*
X135776046Y-82377451D01*
X135655756Y-82319522D02*
X135719165Y-82341710D01*
X135589000Y-82312000D02*
X135655756Y-82319522D01*
X135522243Y-82319522D02*
X135589000Y-82312000D01*
X135458834Y-82341710D02*
X135522243Y-82319522D01*
X135401953Y-82377451D02*
X135458834Y-82341710D01*
X135354450Y-82424954D02*
X135401953Y-82377451D01*
X135318709Y-82481835D02*
X135354450Y-82424954D01*
X135296521Y-82545244D02*
X135318709Y-82481835D01*
X135289000Y-82612000D02*
X135296521Y-82545244D01*
X135289000Y-84012000D02*
X135289000Y-82612000D01*
X135281478Y-84078756D02*
X135289000Y-84012000D01*
X135259290Y-84142165D02*
X135281478Y-84078756D01*
X135223549Y-84199046D02*
X135259290Y-84142165D01*
X135176046Y-84246549D02*
X135223549Y-84199046D01*
X135119165Y-84282290D02*
X135176046Y-84246549D01*
X135055756Y-84304478D02*
X135119165Y-84282290D01*
X134989000Y-84312000D02*
X135055756Y-84304478D01*
X134922243Y-84304478D02*
X134989000Y-84312000D01*
X134858834Y-84282290D02*
X134922243Y-84304478D01*
X134801953Y-84246549D02*
X134858834Y-84282290D01*
X134754450Y-84199046D02*
X134801953Y-84246549D01*
X134718709Y-84142165D02*
X134754450Y-84199046D01*
X134696521Y-84078756D02*
X134718709Y-84142165D01*
X134689000Y-84012000D02*
X134696521Y-84078756D01*
X134689000Y-82612000D02*
X134689000Y-84012000D01*
X134681478Y-82545244D02*
X134689000Y-82612000D01*
X134659290Y-82481835D02*
X134681478Y-82545244D01*
X134623549Y-82424954D02*
X134659290Y-82481835D01*
X134576046Y-82377451D02*
X134623549Y-82424954D01*
X134519165Y-82341710D02*
X134576046Y-82377451D01*
X134455756Y-82319522D02*
X134519165Y-82341710D01*
X134389000Y-82312000D02*
X134455756Y-82319522D01*
X134322243Y-82319522D02*
X134389000Y-82312000D01*
X134258834Y-82341710D02*
X134322243Y-82319522D01*
X134201953Y-82377451D02*
X134258834Y-82341710D01*
X134154450Y-82424954D02*
X134201953Y-82377451D01*
X134118709Y-82481835D02*
X134154450Y-82424954D01*
X134096521Y-82545244D02*
X134118709Y-82481835D01*
X134089000Y-82612000D02*
X134096521Y-82545244D01*
X134089000Y-84012000D02*
X134089000Y-82612000D01*
X134081478Y-84078756D02*
X134089000Y-84012000D01*
X134059290Y-84142165D02*
X134081478Y-84078756D01*
X134023549Y-84199046D02*
X134059290Y-84142165D01*
X133976046Y-84246549D02*
X134023549Y-84199046D01*
X133919165Y-84282290D02*
X133976046Y-84246549D01*
X133855756Y-84304478D02*
X133919165Y-84282290D01*
X133789000Y-84312000D02*
X133855756Y-84304478D01*
X133722243Y-84304478D02*
X133789000Y-84312000D01*
X133658834Y-84282290D02*
X133722243Y-84304478D01*
X133601953Y-84246549D02*
X133658834Y-84282290D01*
X133554450Y-84199046D02*
X133601953Y-84246549D01*
X133518709Y-84142165D02*
X133554450Y-84199046D01*
X133496521Y-84078756D02*
X133518709Y-84142165D01*
X133489000Y-84012000D02*
X133496521Y-84078756D01*
X133489000Y-82612000D02*
X133489000Y-84012000D01*
X133481478Y-82545244D02*
X133489000Y-82612000D01*
X133459290Y-82481835D02*
X133481478Y-82545244D01*
X133423549Y-82424954D02*
X133459290Y-82481835D01*
X133376046Y-82377451D02*
X133423549Y-82424954D01*
X133319165Y-82341710D02*
X133376046Y-82377451D01*
X133255756Y-82319522D02*
X133319165Y-82341710D01*
X133189000Y-82312000D02*
X133255756Y-82319522D01*
X133122243Y-82319522D02*
X133189000Y-82312000D01*
X133058834Y-82341710D02*
X133122243Y-82319522D01*
X133001953Y-82377451D02*
X133058834Y-82341710D01*
X132954450Y-82424954D02*
X133001953Y-82377451D01*
X132918709Y-82481835D02*
X132954450Y-82424954D01*
X132896521Y-82545244D02*
X132918709Y-82481835D01*
X132889000Y-82612000D02*
X132896521Y-82545244D01*
X132889000Y-84012000D02*
X132889000Y-82612000D01*
X132881478Y-84078756D02*
X132889000Y-84012000D01*
X132859290Y-84142165D02*
X132881478Y-84078756D01*
X132823549Y-84199046D02*
X132859290Y-84142165D01*
X132776046Y-84246549D02*
X132823549Y-84199046D01*
X132719165Y-84282290D02*
X132776046Y-84246549D01*
X132655756Y-84304478D02*
X132719165Y-84282290D01*
X132589000Y-84312000D02*
X132655756Y-84304478D01*
X132522243Y-84304478D02*
X132589000Y-84312000D01*
X132458834Y-84282290D02*
X132522243Y-84304478D01*
X132401953Y-84246549D02*
X132458834Y-84282290D01*
X132354450Y-84199046D02*
X132401953Y-84246549D01*
X132318709Y-84142165D02*
X132354450Y-84199046D01*
X132296521Y-84078756D02*
X132318709Y-84142165D01*
X132289000Y-84012000D02*
X132296521Y-84078756D01*
X132289000Y-82612000D02*
X132289000Y-84012000D01*
X132281478Y-82545244D02*
X132289000Y-82612000D01*
X132259290Y-82481835D02*
X132281478Y-82545244D01*
X132223549Y-82424954D02*
X132259290Y-82481835D01*
X132176046Y-82377451D02*
X132223549Y-82424954D01*
X132119165Y-82341710D02*
X132176046Y-82377451D01*
X132055756Y-82319522D02*
X132119165Y-82341710D01*
X131989000Y-82312000D02*
X132055756Y-82319522D01*
X131922243Y-82319522D02*
X131989000Y-82312000D01*
X131858834Y-82341710D02*
X131922243Y-82319522D01*
X131801953Y-82377451D02*
X131858834Y-82341710D01*
X131754450Y-82424954D02*
X131801953Y-82377451D01*
X131718709Y-82481835D02*
X131754450Y-82424954D01*
X131696521Y-82545244D02*
X131718709Y-82481835D01*
X131689000Y-82612000D02*
X131696521Y-82545244D01*
X131689000Y-84012000D02*
X131689000Y-82612000D01*
X131681478Y-84078756D02*
X131689000Y-84012000D01*
X131659290Y-84142165D02*
X131681478Y-84078756D01*
X131623549Y-84199046D02*
X131659290Y-84142165D01*
X131576046Y-84246549D02*
X131623549Y-84199046D01*
X131519165Y-84282290D02*
X131576046Y-84246549D01*
X131455756Y-84304478D02*
X131519165Y-84282290D01*
X131389000Y-84312000D02*
X131455756Y-84304478D01*
X131322243Y-84304478D02*
X131389000Y-84312000D01*
X131258834Y-84282290D02*
X131322243Y-84304478D01*
X131201953Y-84246549D02*
X131258834Y-84282290D01*
X131154450Y-84199046D02*
X131201953Y-84246549D01*
X131118709Y-84142165D02*
X131154450Y-84199046D01*
X131096521Y-84078756D02*
X131118709Y-84142165D01*
X131089000Y-84012000D02*
X131096521Y-84078756D01*
X131089000Y-82612000D02*
X131089000Y-84012000D01*
X131081478Y-82545244D02*
X131089000Y-82612000D01*
X131059290Y-82481835D02*
X131081478Y-82545244D01*
X131023549Y-82424954D02*
X131059290Y-82481835D01*
X130976046Y-82377451D02*
X131023549Y-82424954D01*
X130919165Y-82341710D02*
X130976046Y-82377451D01*
X130855756Y-82319522D02*
X130919165Y-82341710D01*
X130789000Y-82312000D02*
X130855756Y-82319522D01*
X130722243Y-82319522D02*
X130789000Y-82312000D01*
X130658834Y-82341710D02*
X130722243Y-82319522D01*
X130601953Y-82377451D02*
X130658834Y-82341710D01*
X130554450Y-82424954D02*
X130601953Y-82377451D01*
X130518709Y-82481835D02*
X130554450Y-82424954D01*
X130496521Y-82545244D02*
X130518709Y-82481835D01*
X130489000Y-82612000D02*
X130496521Y-82545244D01*
X130489000Y-84012000D02*
X130489000Y-82612000D01*
X130481478Y-84078756D02*
X130489000Y-84012000D01*
X130459290Y-84142165D02*
X130481478Y-84078756D01*
X130423549Y-84199046D02*
X130459290Y-84142165D01*
X130376046Y-84246549D02*
X130423549Y-84199046D01*
X130319165Y-84282290D02*
X130376046Y-84246549D01*
X130255756Y-84304478D02*
X130319165Y-84282290D01*
X130189000Y-84312000D02*
X130255756Y-84304478D01*
X130122243Y-84304478D02*
X130189000Y-84312000D01*
X130058834Y-84282290D02*
X130122243Y-84304478D01*
X130001953Y-84246549D02*
X130058834Y-84282290D01*
X129954450Y-84199046D02*
X130001953Y-84246549D01*
X129918709Y-84142165D02*
X129954450Y-84199046D01*
X129896521Y-84078756D02*
X129918709Y-84142165D01*
X129889000Y-84012000D02*
X129896521Y-84078756D01*
X129889000Y-82612000D02*
X129889000Y-84012000D01*
X129881478Y-82545244D02*
X129889000Y-82612000D01*
X129859290Y-82481835D02*
X129881478Y-82545244D01*
X129823549Y-82424954D02*
X129859290Y-82481835D01*
X129776046Y-82377451D02*
X129823549Y-82424954D01*
X129719165Y-82341710D02*
X129776046Y-82377451D01*
X129655756Y-82319522D02*
X129719165Y-82341710D01*
X129589000Y-82312000D02*
X129655756Y-82319522D01*
X129522243Y-82319522D02*
X129589000Y-82312000D01*
X129458834Y-82341710D02*
X129522243Y-82319522D01*
X129401953Y-82377451D02*
X129458834Y-82341710D01*
X129354450Y-82424954D02*
X129401953Y-82377451D01*
X129318709Y-82481835D02*
X129354450Y-82424954D01*
X129296521Y-82545244D02*
X129318709Y-82481835D01*
X129289000Y-82612000D02*
X129296521Y-82545244D01*
X129289000Y-84012000D02*
X129289000Y-82612000D01*
X129281478Y-84078756D02*
X129289000Y-84012000D01*
X129259290Y-84142165D02*
X129281478Y-84078756D01*
X129223549Y-84199046D02*
X129259290Y-84142165D01*
X129176046Y-84246549D02*
X129223549Y-84199046D01*
X129119165Y-84282290D02*
X129176046Y-84246549D01*
X129055756Y-84304478D02*
X129119165Y-84282290D01*
X128989000Y-84312000D02*
X129055756Y-84304478D01*
X128922243Y-84304478D02*
X128989000Y-84312000D01*
X128858834Y-84282290D02*
X128922243Y-84304478D01*
X128801953Y-84246549D02*
X128858834Y-84282290D01*
X128754450Y-84199046D02*
X128801953Y-84246549D01*
X128718709Y-84142165D02*
X128754450Y-84199046D01*
X128696521Y-84078756D02*
X128718709Y-84142165D01*
X128689000Y-84012000D02*
X128696521Y-84078756D01*
X128689000Y-82612000D02*
X128689000Y-84012000D01*
X128681478Y-82545244D02*
X128689000Y-82612000D01*
X128659290Y-82481835D02*
X128681478Y-82545244D01*
X128623549Y-82424954D02*
X128659290Y-82481835D01*
X128576046Y-82377451D02*
X128623549Y-82424954D01*
X128519165Y-82341710D02*
X128576046Y-82377451D01*
X128455756Y-82319522D02*
X128519165Y-82341710D01*
X128389000Y-82312000D02*
X128455756Y-82319522D01*
X128322243Y-82319522D02*
X128389000Y-82312000D01*
X128258834Y-82341710D02*
X128322243Y-82319522D01*
X128201953Y-82377451D02*
X128258834Y-82341710D01*
X128154450Y-82424954D02*
X128201953Y-82377451D01*
X128118709Y-82481835D02*
X128154450Y-82424954D01*
X128096521Y-82545244D02*
X128118709Y-82481835D01*
X128089000Y-82612000D02*
X128096521Y-82545244D01*
X128089000Y-84012000D02*
X128089000Y-82612000D01*
X128081478Y-84078756D02*
X128089000Y-84012000D01*
X128059290Y-84142165D02*
X128081478Y-84078756D01*
X128023549Y-84199046D02*
X128059290Y-84142165D01*
X127976046Y-84246549D02*
X128023549Y-84199046D01*
X127919165Y-84282290D02*
X127976046Y-84246549D01*
X127855756Y-84304478D02*
X127919165Y-84282290D01*
X127789000Y-84312000D02*
X127855756Y-84304478D01*
X127722243Y-84304478D02*
X127789000Y-84312000D01*
X127658834Y-84282290D02*
X127722243Y-84304478D01*
X127601953Y-84246549D02*
X127658834Y-84282290D01*
X127554450Y-84199046D02*
X127601953Y-84246549D01*
X127518709Y-84142165D02*
X127554450Y-84199046D01*
X127496521Y-84078756D02*
X127518709Y-84142165D01*
X127489000Y-84012000D02*
X127496521Y-84078756D01*
X127489000Y-82612000D02*
X127489000Y-84012000D01*
X127481478Y-82545244D02*
X127489000Y-82612000D01*
X127459290Y-82481835D02*
X127481478Y-82545244D01*
X127423549Y-82424954D02*
X127459290Y-82481835D01*
X127376046Y-82377451D02*
X127423549Y-82424954D01*
X127319165Y-82341710D02*
X127376046Y-82377451D01*
X127255756Y-82319522D02*
X127319165Y-82341710D01*
X127189000Y-82312000D02*
X127255756Y-82319522D01*
X127122243Y-82319522D02*
X127189000Y-82312000D01*
X127058834Y-82341710D02*
X127122243Y-82319522D01*
X127001953Y-82377451D02*
X127058834Y-82341710D01*
X126954450Y-82424954D02*
X127001953Y-82377451D01*
X126918709Y-82481835D02*
X126954450Y-82424954D01*
X126896521Y-82545244D02*
X126918709Y-82481835D01*
X126889000Y-82612000D02*
X126896521Y-82545244D01*
X126889000Y-84012000D02*
X126889000Y-82612000D01*
X126881478Y-84078756D02*
X126889000Y-84012000D01*
X126859290Y-84142165D02*
X126881478Y-84078756D01*
X126823549Y-84199046D02*
X126859290Y-84142165D01*
X126776046Y-84246549D02*
X126823549Y-84199046D01*
X126719165Y-84282290D02*
X126776046Y-84246549D01*
X126655756Y-84304478D02*
X126719165Y-84282290D01*
X126589000Y-84312000D02*
X126655756Y-84304478D01*
X126522243Y-84304478D02*
X126589000Y-84312000D01*
X126458834Y-84282290D02*
X126522243Y-84304478D01*
X126401953Y-84246549D02*
X126458834Y-84282290D01*
X126354450Y-84199046D02*
X126401953Y-84246549D01*
X126318709Y-84142165D02*
X126354450Y-84199046D01*
X126296521Y-84078756D02*
X126318709Y-84142165D01*
X126289000Y-84012000D02*
X126296521Y-84078756D01*
X126289000Y-82612000D02*
X126289000Y-84012000D01*
X126281478Y-82545244D02*
X126289000Y-82612000D01*
X126259290Y-82481835D02*
X126281478Y-82545244D01*
X126223549Y-82424954D02*
X126259290Y-82481835D01*
X126176046Y-82377451D02*
X126223549Y-82424954D01*
X126119165Y-82341710D02*
X126176046Y-82377451D01*
X126055756Y-82319522D02*
X126119165Y-82341710D01*
X125989000Y-82312000D02*
X126055756Y-82319522D01*
X125922243Y-82319522D02*
X125989000Y-82312000D01*
X125858834Y-82341710D02*
X125922243Y-82319522D01*
X125801953Y-82377451D02*
X125858834Y-82341710D01*
X125754450Y-82424954D02*
X125801953Y-82377451D01*
X125718709Y-82481835D02*
X125754450Y-82424954D01*
X125696521Y-82545244D02*
X125718709Y-82481835D01*
X125689000Y-82612000D02*
X125696521Y-82545244D01*
X125689000Y-84012000D02*
X125689000Y-82612000D01*
X125681478Y-84078756D02*
X125689000Y-84012000D01*
X125659290Y-84142165D02*
X125681478Y-84078756D01*
X125623549Y-84199046D02*
X125659290Y-84142165D01*
X125576046Y-84246549D02*
X125623549Y-84199046D01*
X125519165Y-84282290D02*
X125576046Y-84246549D01*
X125455756Y-84304478D02*
X125519165Y-84282290D01*
X125389000Y-84312000D02*
X125455756Y-84304478D01*
X125322243Y-84304478D02*
X125389000Y-84312000D01*
X125258834Y-84282290D02*
X125322243Y-84304478D01*
X125201953Y-84246549D02*
X125258834Y-84282290D01*
X125154450Y-84199046D02*
X125201953Y-84246549D01*
X125118709Y-84142165D02*
X125154450Y-84199046D01*
X125096521Y-84078756D02*
X125118709Y-84142165D01*
X125089000Y-84012000D02*
X125096521Y-84078756D01*
X125089000Y-82612000D02*
X125089000Y-84012000D01*
X125081478Y-82545244D02*
X125089000Y-82612000D01*
X125059290Y-82481835D02*
X125081478Y-82545244D01*
X125023549Y-82424954D02*
X125059290Y-82481835D01*
X124976046Y-82377451D02*
X125023549Y-82424954D01*
X124919165Y-82341710D02*
X124976046Y-82377451D01*
X124855756Y-82319522D02*
X124919165Y-82341710D01*
X124789000Y-82312000D02*
X124855756Y-82319522D01*
X124722243Y-82319522D02*
X124789000Y-82312000D01*
X124658834Y-82341710D02*
X124722243Y-82319522D01*
X124601953Y-82377451D02*
X124658834Y-82341710D01*
X124554450Y-82424954D02*
X124601953Y-82377451D01*
X124518709Y-82481835D02*
X124554450Y-82424954D01*
X124496521Y-82545244D02*
X124518709Y-82481835D01*
X124489000Y-82612000D02*
X124496521Y-82545244D01*
X124489000Y-84012000D02*
X124489000Y-82612000D01*
X124481478Y-84078756D02*
X124489000Y-84012000D01*
X124459290Y-84142165D02*
X124481478Y-84078756D01*
X124423549Y-84199046D02*
X124459290Y-84142165D01*
X124376046Y-84246549D02*
X124423549Y-84199046D01*
X124319165Y-84282290D02*
X124376046Y-84246549D01*
X124255756Y-84304478D02*
X124319165Y-84282290D01*
X124189000Y-84312000D02*
X124255756Y-84304478D01*
X124122243Y-84304478D02*
X124189000Y-84312000D01*
X124058834Y-84282290D02*
X124122243Y-84304478D01*
X124001953Y-84246549D02*
X124058834Y-84282290D01*
X123954450Y-84199046D02*
X124001953Y-84246549D01*
X123918709Y-84142165D02*
X123954450Y-84199046D01*
X123896521Y-84078756D02*
X123918709Y-84142165D01*
X123889000Y-84012000D02*
X123896521Y-84078756D01*
X123889000Y-82612000D02*
X123889000Y-84012000D01*
X123881478Y-82545244D02*
X123889000Y-82612000D01*
X123859290Y-82481835D02*
X123881478Y-82545244D01*
X123823549Y-82424954D02*
X123859290Y-82481835D01*
X123776046Y-82377451D02*
X123823549Y-82424954D01*
X123719165Y-82341710D02*
X123776046Y-82377451D01*
X123655756Y-82319522D02*
X123719165Y-82341710D01*
X123589000Y-82312000D02*
X123655756Y-82319522D01*
X123522243Y-82319522D02*
X123589000Y-82312000D01*
X123458834Y-82341710D02*
X123522243Y-82319522D01*
X123401953Y-82377451D02*
X123458834Y-82341710D01*
X123354450Y-82424954D02*
X123401953Y-82377451D01*
X123318709Y-82481835D02*
X123354450Y-82424954D01*
X123296521Y-82545244D02*
X123318709Y-82481835D01*
X106562381Y-82230033D02*
X106577331Y-82295528D01*
X144719165Y-84282290D02*
X144776046Y-84246549D01*
X107709345Y-80881314D02*
X107680197Y-80941840D01*
X143623549Y-84199046D02*
X143659290Y-84142165D01*
X107724294Y-80815820D02*
X107709345Y-80881314D01*
X144318709Y-84142165D02*
X144354450Y-84199046D01*
X107724294Y-80748641D02*
X107724294Y-80815820D01*
X144655756Y-84304478D02*
X144719165Y-84282290D01*
X107525263Y-80499066D02*
X107585789Y-80528213D01*
X143689000Y-84012000D02*
X143689000Y-82612000D01*
X107266570Y-80528213D02*
X107327096Y-80499066D01*
X144881478Y-84078756D02*
X144889000Y-84012000D01*
X106224099Y-81560048D02*
X107214047Y-80570099D01*
X106111050Y-81631081D02*
X106171576Y-81601933D01*
X144259290Y-82481835D02*
X144281478Y-82545244D01*
X106045555Y-81646029D02*
X106111050Y-81631081D01*
X144776046Y-84246549D02*
X144823549Y-84199046D01*
X105978377Y-81646030D02*
X106045555Y-81646029D01*
X143519165Y-84282290D02*
X143576046Y-84246549D01*
X105852356Y-81601932D02*
X105912882Y-81631080D01*
X143659290Y-84142165D02*
X143681478Y-84078756D01*
X105757948Y-81507524D02*
X105799835Y-81560048D01*
X143455756Y-84304478D02*
X143519165Y-84282290D01*
X105728802Y-81446999D02*
X105757948Y-81507524D01*
X144289000Y-82612000D02*
X144289000Y-84012000D01*
X106860816Y-80032785D02*
X106831668Y-80093311D01*
X144055756Y-82319522D02*
X144119165Y-82341710D01*
X106875765Y-79967291D02*
X106860816Y-80032785D01*
X144281478Y-82545244D02*
X144289000Y-82612000D01*
X106737260Y-79679684D02*
X106789783Y-79721570D01*
X143696521Y-82545244D02*
X143718709Y-82481835D01*
X106030152Y-80046297D02*
X106082675Y-80004412D01*
X144223549Y-82424954D02*
X144259290Y-82481835D01*
X105969626Y-80075445D02*
X106030152Y-80046297D01*
X105836953Y-80090394D02*
X105904132Y-80090394D01*
X141719165Y-82341710D02*
X141776046Y-82377451D01*
X105771459Y-80075445D02*
X105836953Y-80090394D01*
X142554450Y-82424954D02*
X142601953Y-82377451D01*
X105710933Y-80046297D02*
X105771459Y-80075445D01*
X143201953Y-84246549D02*
X143258834Y-84282290D01*
X105658411Y-80004412D02*
X105710933Y-80046297D01*
X143059290Y-82481835D02*
X143081478Y-82545244D01*
X105029000Y-79375000D02*
X105658411Y-80004412D01*
X142789000Y-82312000D02*
X142855756Y-82319522D01*
X104394000Y-79375000D02*
X105029000Y-79375000D01*
X141281478Y-84078756D02*
X141289000Y-84012000D01*
X104327243Y-79367478D02*
X104394000Y-79375000D01*
X123289000Y-84012000D02*
X123289000Y-82612000D01*
X142489000Y-84012000D02*
X142489000Y-82612000D01*
X104263834Y-79345290D02*
X104327243Y-79367478D01*
X123223549Y-84199046D02*
X123259290Y-84142165D01*
X142489000Y-82612000D02*
X142496521Y-82545244D01*
X104206953Y-79309549D02*
X104263834Y-79345290D01*
X141881478Y-82545244D02*
X141889000Y-82612000D01*
X104159450Y-79262046D02*
X104206953Y-79309549D01*
X142601953Y-82377451D02*
X142658834Y-82341710D01*
X104123709Y-79205165D02*
X104159450Y-79262046D01*
X141223549Y-84199046D02*
X141259290Y-84142165D01*
X104101521Y-79141756D02*
X104123709Y-79205165D01*
X143089000Y-82612000D02*
X143089000Y-84012000D01*
X104094000Y-79075000D02*
X104101521Y-79141756D01*
X141896521Y-84078756D02*
X141918709Y-84142165D01*
X104094000Y-78675000D02*
X104094000Y-79075000D01*
X141823549Y-82424954D02*
X141859290Y-82481835D01*
X104086478Y-78608243D02*
X104094000Y-78675000D01*
X123119165Y-84282290D02*
X123176046Y-84246549D01*
X142518709Y-82481835D02*
X142554450Y-82424954D01*
X104064290Y-78544834D02*
X104086478Y-78608243D01*
X141259290Y-84142165D02*
X141281478Y-84078756D01*
X104028549Y-78487953D02*
X104064290Y-78544834D01*
X123281478Y-84078756D02*
X123289000Y-84012000D01*
X142496521Y-82545244D02*
X142518709Y-82481835D01*
X103981046Y-78440450D02*
X104028549Y-78487953D01*
X140989000Y-84312000D02*
X141055756Y-84304478D01*
X103924165Y-78404709D02*
X103981046Y-78440450D01*
X141354450Y-82424954D02*
X141401953Y-82377451D01*
X103860756Y-78382521D02*
X103924165Y-78404709D01*
X141522243Y-82319522D02*
X141589000Y-82312000D01*
X103794000Y-78375000D02*
X103860756Y-78382521D01*
X122922243Y-84304478D02*
X122989000Y-84312000D01*
X142423549Y-84199046D02*
X142459290Y-84142165D01*
X103727243Y-78382521D02*
X103794000Y-78375000D01*
X141176046Y-84246549D02*
X141223549Y-84199046D01*
X103663834Y-78404709D02*
X103727243Y-78382521D01*
X142122243Y-84304478D02*
X142189000Y-84312000D01*
X103606953Y-78440450D02*
X103663834Y-78404709D01*
X141289000Y-84012000D02*
X141289000Y-82612000D01*
X103559450Y-78487953D02*
X103606953Y-78440450D01*
X141889000Y-84012000D02*
X141896521Y-84078756D01*
X103523709Y-78544834D02*
X103559450Y-78487953D01*
X143389000Y-84312000D02*
X143455756Y-84304478D01*
X103501521Y-78608243D02*
X103523709Y-78544834D01*
X141954450Y-84199046D02*
X142001953Y-84246549D01*
X103494000Y-78675000D02*
X103501521Y-78608243D01*
X141589000Y-82312000D02*
X141655756Y-82319522D01*
X103494000Y-80075000D02*
X103494000Y-78675000D01*
X141318709Y-82481835D02*
X141354450Y-82424954D01*
X103486478Y-80141757D02*
X103494000Y-80075000D01*
X141119165Y-84282290D02*
X141176046Y-84246549D01*
X103464290Y-80205166D02*
X103486478Y-80141757D01*
X142855756Y-82319522D02*
X142919165Y-82341710D01*
X103428549Y-80262047D02*
X103464290Y-80205166D01*
X123259290Y-84142165D02*
X123281478Y-84078756D01*
X141889000Y-82612000D02*
X141889000Y-84012000D01*
X103381046Y-80309550D02*
X103428549Y-80262047D01*
X123055756Y-84304478D02*
X123119165Y-84282290D01*
X140858834Y-84282290D02*
X140922243Y-84304478D01*
X103324165Y-80345291D02*
X103381046Y-80309550D01*
X141289000Y-82612000D02*
X141296521Y-82545244D01*
X103260756Y-80367479D02*
X103324165Y-80345291D01*
X140922243Y-84304478D02*
X140989000Y-84312000D01*
X103194000Y-80375000D02*
X103260756Y-80367479D01*
X123289000Y-82612000D02*
X123296521Y-82545244D01*
X143023549Y-82424954D02*
X143059290Y-82481835D01*
X103127243Y-80367479D02*
X103194000Y-80375000D01*
X141401953Y-82377451D02*
X141458834Y-82341710D01*
X103063834Y-80345291D02*
X103127243Y-80367479D01*
X143118709Y-84142165D02*
X143154450Y-84199046D01*
X103006953Y-80309550D02*
X103063834Y-80345291D01*
X141655756Y-82319522D02*
X141719165Y-82341710D01*
X102959450Y-80262047D02*
X103006953Y-80309550D01*
X142001953Y-84246549D02*
X142058834Y-84282290D01*
X102923709Y-80205166D02*
X102959450Y-80262047D01*
X142658834Y-82341710D02*
X142722243Y-82319522D01*
X102901521Y-80141757D02*
X102923709Y-80205166D01*
X143322243Y-84304478D02*
X143389000Y-84312000D01*
X102894000Y-80075000D02*
X102901521Y-80141757D01*
X142376046Y-84246549D02*
X142423549Y-84199046D01*
X102894000Y-78675000D02*
X102894000Y-80075000D01*
X142255756Y-84304478D02*
X142319165Y-84282290D01*
X102886478Y-78608243D02*
X102894000Y-78675000D01*
X140801953Y-84246549D02*
X140858834Y-84282290D01*
X102864290Y-78544834D02*
X102886478Y-78608243D01*
X143081478Y-82545244D02*
X143089000Y-82612000D01*
X102828549Y-78487953D02*
X102864290Y-78544834D01*
X144889000Y-82612000D02*
X144896521Y-82545244D01*
X102781046Y-78440450D02*
X102828549Y-78487953D01*
X143258834Y-84282290D02*
X143322243Y-84304478D01*
X102724165Y-78404709D02*
X102781046Y-78440450D01*
X142459290Y-84142165D02*
X142481478Y-84078756D01*
X102660756Y-78382521D02*
X102724165Y-78404709D01*
X144918709Y-82481835D02*
X144954450Y-82424954D01*
X102594000Y-78375000D02*
X102660756Y-78382521D01*
X142722243Y-82319522D02*
X142789000Y-82312000D01*
X102527243Y-78382521D02*
X102594000Y-78375000D01*
X143096521Y-84078756D02*
X143118709Y-84142165D01*
X102463834Y-78404709D02*
X102527243Y-78382521D01*
X142919165Y-82341710D02*
X142976046Y-82377451D01*
X102406953Y-78440450D02*
X102463834Y-78404709D01*
X142058834Y-84282290D02*
X142122243Y-84304478D01*
X102359450Y-78487953D02*
X102406953Y-78440450D01*
X141296521Y-82545244D02*
X141318709Y-82481835D01*
X102323709Y-78544834D02*
X102359450Y-78487953D01*
X141859290Y-82481835D02*
X141881478Y-82545244D01*
X102301521Y-78608243D02*
X102323709Y-78544834D01*
X141776046Y-82377451D02*
X141823549Y-82424954D01*
X102294000Y-78675000D02*
X102301521Y-78608243D01*
X142189000Y-84312000D02*
X142255756Y-84304478D01*
X102294000Y-80075000D02*
X102294000Y-78675000D01*
X142481478Y-84078756D02*
X142489000Y-84012000D01*
X102286478Y-80141757D02*
X102294000Y-80075000D01*
X142319165Y-84282290D02*
X142376046Y-84246549D01*
X102264290Y-80205166D02*
X102286478Y-80141757D01*
X145122243Y-82319522D02*
X145189000Y-82312000D01*
X102228549Y-80262047D02*
X102264290Y-80205166D01*
X142976046Y-82377451D02*
X143023549Y-82424954D01*
X102181046Y-80309550D02*
X102228549Y-80262047D01*
X141458834Y-82341710D02*
X141522243Y-82319522D01*
X102124165Y-80345291D02*
X102181046Y-80309550D01*
X141055756Y-84304478D02*
X141119165Y-84282290D01*
X102060756Y-80367479D02*
X102124165Y-80345291D01*
X123176046Y-84246549D02*
X123223549Y-84199046D01*
X139423549Y-82424954D02*
X139459290Y-82481835D01*
X101994000Y-80375000D02*
X102060756Y-80367479D01*
X138881478Y-84078756D02*
X138889000Y-84012000D01*
X101927243Y-80367479D02*
X101994000Y-80375000D01*
X138776046Y-84246549D02*
X138823549Y-84199046D01*
X101863834Y-80345291D02*
X101927243Y-80367479D01*
X139255756Y-82319522D02*
X139319165Y-82341710D01*
X101806953Y-80309550D02*
X101863834Y-80345291D01*
X140696521Y-84078756D02*
X140718709Y-84142165D01*
X101759450Y-80262047D02*
X101806953Y-80309550D01*
X140689000Y-84012000D02*
X140696521Y-84078756D01*
X101723709Y-80205166D02*
X101759450Y-80262047D01*
X139518709Y-84142165D02*
X139554450Y-84199046D01*
X101701521Y-80141757D02*
X101723709Y-80205166D01*
X138918709Y-82481835D02*
X138954450Y-82424954D01*
X101694000Y-80075000D02*
X101701521Y-80141757D01*
X140681478Y-82545244D02*
X140689000Y-82612000D01*
X101694000Y-78675000D02*
X101694000Y-80075000D01*
X138889000Y-82612000D02*
X138896521Y-82545244D01*
X101686478Y-78608243D02*
X101694000Y-78675000D01*
X140389000Y-82312000D02*
X140455756Y-82319522D01*
X101664290Y-78544834D02*
X101686478Y-78608243D01*
X140455756Y-82319522D02*
X140519165Y-82341710D01*
X101628549Y-78487953D02*
X101664290Y-78544834D01*
X140089000Y-84012000D02*
X140089000Y-82612000D01*
X101581046Y-78440450D02*
X101628549Y-78487953D01*
X140623549Y-82424954D02*
X140659290Y-82481835D01*
X101524165Y-78404709D02*
X101581046Y-78440450D01*
X140576046Y-82377451D02*
X140623549Y-82424954D01*
X101460756Y-78382521D02*
X101524165Y-78404709D01*
X139122243Y-82319522D02*
X139189000Y-82312000D01*
X101394000Y-78375000D02*
X101460756Y-78382521D01*
X139919165Y-84282290D02*
X139976046Y-84246549D01*
X101327243Y-78382521D02*
X101394000Y-78375000D01*
X140023549Y-84199046D02*
X140059290Y-84142165D01*
X101263834Y-78404709D02*
X101327243Y-78382521D01*
X138823549Y-84199046D02*
X138859290Y-84142165D01*
X101206953Y-78440450D02*
X101263834Y-78404709D01*
X139855756Y-84304478D02*
X139919165Y-84282290D01*
X101159450Y-78487953D02*
X101206953Y-78440450D01*
X139459290Y-82481835D02*
X139481478Y-82545244D01*
X101123709Y-78544834D02*
X101159450Y-78487953D01*
X140089000Y-82612000D02*
X140096521Y-82545244D01*
X101101521Y-78608243D02*
X101123709Y-78544834D01*
X140322243Y-82319522D02*
X140389000Y-82312000D01*
X101094000Y-78675000D02*
X101101521Y-78608243D01*
X138401953Y-84246549D02*
X138458834Y-84282290D01*
X101094000Y-80075000D02*
X101094000Y-78675000D01*
X139189000Y-82312000D02*
X139255756Y-82319522D01*
X101086478Y-80141757D02*
X101094000Y-80075000D01*
X140689000Y-82612000D02*
X140689000Y-84012000D01*
X101064290Y-80205166D02*
X101086478Y-80141757D01*
X139481478Y-82545244D02*
X139489000Y-82612000D01*
X101028549Y-80262047D02*
X101064290Y-80205166D01*
X139722243Y-84304478D02*
X139789000Y-84312000D01*
X100981046Y-80309550D02*
X101028549Y-80262047D01*
X140059290Y-84142165D02*
X140081478Y-84078756D01*
X100924165Y-80345291D02*
X100981046Y-80309550D01*
X138719165Y-84282290D02*
X138776046Y-84246549D01*
X100860756Y-80367479D02*
X100924165Y-80345291D01*
X141918709Y-84142165D02*
X141954450Y-84199046D01*
X100794000Y-80375000D02*
X100860756Y-80367479D01*
X122989000Y-84312000D02*
X123055756Y-84304478D01*
X138589000Y-84312000D02*
X138655756Y-84304478D01*
X100727243Y-80367479D02*
X100794000Y-80375000D01*
X143154450Y-84199046D02*
X143201953Y-84246549D01*
X100663834Y-80345291D02*
X100727243Y-80367479D01*
X140154450Y-82424954D02*
X140201953Y-82377451D01*
X100606953Y-80309550D02*
X100663834Y-80345291D01*
X139001953Y-82377451D02*
X139058834Y-82341710D01*
X100559450Y-80262047D02*
X100606953Y-80309550D01*
X139658834Y-84282290D02*
X139722243Y-84304478D01*
X100523709Y-80205166D02*
X100559450Y-80262047D01*
X138896521Y-82545244D02*
X138918709Y-82481835D01*
X100501521Y-80141757D02*
X100523709Y-80205166D01*
X140754450Y-84199046D02*
X140801953Y-84246549D01*
X100494000Y-80075000D02*
X100501521Y-80141757D01*
X138458834Y-84282290D02*
X138522243Y-84304478D01*
X100494000Y-77216000D02*
X100494000Y-80075000D01*
X140118709Y-82481835D02*
X140154450Y-82424954D01*
X99989040Y-76711040D02*
X100494000Y-77216000D01*
X140718709Y-84142165D02*
X140754450Y-84199046D01*
X99989040Y-73015390D02*
X99989040Y-76711040D01*
X138289000Y-84012000D02*
X138296521Y-84078756D01*
X99996561Y-72948633D02*
X99989040Y-73015390D01*
X139789000Y-84312000D02*
X139855756Y-84304478D01*
X100018749Y-72885224D02*
X99996561Y-72948633D01*
X138859290Y-84142165D02*
X138881478Y-84078756D01*
X100054490Y-72828343D02*
X100018749Y-72885224D01*
X138522243Y-84304478D02*
X138589000Y-84312000D01*
X100101993Y-72780840D02*
X100054490Y-72828343D01*
X139976046Y-84246549D02*
X140023549Y-84199046D01*
X100158874Y-72745099D02*
X100101993Y-72780840D01*
X139489000Y-84012000D02*
X139496521Y-84078756D01*
X100222283Y-72722911D02*
X100158874Y-72745099D01*
X139058834Y-82341710D02*
X139122243Y-82319522D01*
X100289040Y-72715390D02*
X100222283Y-72722911D01*
X138655756Y-84304478D02*
X138719165Y-84282290D01*
X100355796Y-72722911D02*
X100289040Y-72715390D01*
X106676734Y-79650537D02*
X106737260Y-79679684D01*
X138318709Y-84142165D02*
X138354450Y-84199046D01*
X100758874Y-74574901D02*
X100701993Y-74539160D01*
X101189040Y-73015390D02*
X101189040Y-74304610D01*
X113810709Y-82481834D02*
X113846450Y-82424953D01*
X144289000Y-84012000D02*
X144296521Y-84078756D01*
X106082675Y-80004412D02*
X106365518Y-79721570D01*
X143576046Y-84246549D02*
X143623549Y-84199046D01*
X105757949Y-81188306D02*
X105728801Y-81248831D01*
X107459769Y-80484117D02*
X107525263Y-80499066D01*
X144954450Y-82424954D02*
X145001953Y-82377451D01*
X106606478Y-82036835D02*
X106577330Y-82097360D01*
X101723589Y-72828343D02*
X101676086Y-72780840D01*
X115658834Y-84282290D02*
X115722243Y-84304478D01*
X144354450Y-84199046D02*
X144401953Y-84246549D01*
X106831668Y-79774092D02*
X106860816Y-79834618D01*
X144176046Y-82377451D02*
X144223549Y-82424954D01*
X106611240Y-79635588D02*
X106676734Y-79650537D01*
X144458834Y-84282290D02*
X144522243Y-84304478D01*
X107709345Y-80683147D02*
X107724294Y-80748641D01*
X139376046Y-82377451D02*
X139423549Y-82424954D01*
X100419205Y-72745099D02*
X100355796Y-72722911D01*
X102155796Y-74597089D02*
X102089040Y-74604610D01*
X115722243Y-84304478D02*
X115789000Y-84312000D01*
X107214047Y-80570099D02*
X107266570Y-80528213D01*
X140081478Y-84078756D02*
X140089000Y-84012000D01*
X100581518Y-72948633D02*
X100559330Y-72885224D01*
X105904132Y-80090394D02*
X105969626Y-80075445D01*
X107585789Y-80528213D02*
X107638312Y-80570099D01*
X144889000Y-84012000D02*
X144889000Y-82612000D01*
X107638312Y-80994363D02*
X106648363Y-81984311D01*
X106831668Y-80093311D02*
X106789783Y-80145834D01*
X145058834Y-82341710D02*
X145122243Y-82319522D01*
X106860816Y-79834618D02*
X106875765Y-79900112D01*
X101159330Y-74434776D02*
X101123589Y-74491657D01*
X114381000Y-82612000D02*
X114381000Y-83012000D01*
X144859290Y-84142165D02*
X144881478Y-84078756D01*
X106606477Y-82356053D02*
X106648364Y-82408577D01*
X144823549Y-84199046D02*
X144859290Y-84142165D01*
X106544061Y-79635588D02*
X106611240Y-79635588D01*
X107680197Y-80622621D02*
X107709345Y-80683147D01*
X144896521Y-82545244D02*
X144918709Y-82481835D01*
X106418041Y-79679684D02*
X106478567Y-79650537D01*
X139319165Y-82341710D02*
X139376046Y-82377451D01*
X100596561Y-74371367D02*
X100589040Y-74304610D01*
X106478567Y-79650537D02*
X106544061Y-79635588D01*
X138889000Y-84012000D02*
X138889000Y-82612000D01*
X100701993Y-74539160D02*
X100654490Y-74491657D01*
X101901993Y-74539160D02*
X101854490Y-74491657D01*
X115459290Y-83481834D02*
X115481478Y-83545243D01*
X143754450Y-82424954D02*
X143801953Y-82377451D01*
X106577330Y-82097360D02*
X106562382Y-82162855D01*
X143989000Y-82312000D02*
X144055756Y-82319522D01*
X106562382Y-82162855D02*
X106562381Y-82230033D01*
X140096521Y-82545244D02*
X140118709Y-82481835D01*
X100889040Y-74604610D02*
X100822283Y-74597089D01*
X106789783Y-79721570D02*
X106831668Y-79774092D01*
X143089000Y-84012000D02*
X143096521Y-84078756D01*
X100476086Y-72780840D02*
X100419205Y-72745099D01*
X107638312Y-80570099D02*
X107680197Y-80622621D01*
X101181518Y-74371367D02*
X101159330Y-74434776D01*
X113350834Y-84282291D02*
X113414243Y-84304479D01*
X144522243Y-84304478D02*
X144589000Y-84312000D01*
X106648363Y-81984311D02*
X106606478Y-82036835D01*
X106789783Y-80145834D02*
X105799834Y-81135782D01*
X101358874Y-72745099D02*
X101301993Y-72780840D01*
X115319165Y-83341709D02*
X115376046Y-83377450D01*
X105799835Y-81560048D02*
X105852356Y-81601932D01*
X101218749Y-72885224D02*
X101196561Y-72948633D01*
X115376046Y-83377450D02*
X115423549Y-83424953D01*
X144296521Y-84078756D02*
X144318709Y-84142165D01*
X106875765Y-79900112D02*
X106875765Y-79967291D01*
X101489040Y-72715390D02*
X101422283Y-72722911D01*
X116154450Y-82424954D02*
X116201953Y-82377451D01*
X143801953Y-82377451D02*
X143858834Y-82341710D01*
X107680197Y-80941840D02*
X107638312Y-80994363D01*
X101555796Y-72722911D02*
X101489040Y-72715390D01*
X113773478Y-84078757D02*
X113781000Y-84012000D01*
X143922243Y-82319522D02*
X143989000Y-82312000D01*
X107327096Y-80499066D02*
X107392590Y-80484117D01*
X139496521Y-84078756D02*
X139518709Y-84142165D01*
X100589040Y-74304610D02*
X100589040Y-73015390D01*
X143689000Y-82612000D02*
X143696521Y-82545244D01*
X106365518Y-79721570D02*
X106418041Y-79679684D01*
X144589000Y-84312000D02*
X144655756Y-84304478D01*
X105912882Y-81631080D02*
X105978377Y-81646030D01*
X145001953Y-82377451D02*
X145058834Y-82341710D01*
X105799834Y-81135782D02*
X105757949Y-81188306D01*
X144401953Y-84246549D02*
X144458834Y-84282290D01*
X105713853Y-81314326D02*
X105713852Y-81381504D01*
X143681478Y-84078756D02*
X143689000Y-84012000D01*
X105713852Y-81381504D02*
X105728802Y-81446999D01*
X101759330Y-72885224D02*
X101723589Y-72828343D01*
X110788521Y-84078757D02*
X110810709Y-84142166D01*
X105728801Y-81248831D02*
X105713853Y-81314326D01*
X143858834Y-82341710D02*
X143922243Y-82319522D01*
X106577331Y-82295528D02*
X106606477Y-82356053D01*
X140519165Y-82341710D02*
X140576046Y-82377451D01*
X100559330Y-72885224D02*
X100523589Y-72828343D01*
X106171576Y-81601933D02*
X106224099Y-81560048D01*
X107392590Y-80484117D02*
X107459769Y-80484117D01*
X101301993Y-72780840D02*
X101254490Y-72828343D01*
X115423549Y-83424953D02*
X115459290Y-83481834D01*
X102276086Y-74539160D02*
X102219205Y-74574901D01*
X114614243Y-83304478D02*
X114681000Y-83312000D01*
X101422283Y-72722911D02*
X101358874Y-72745099D01*
X113668046Y-84246550D02*
X113715549Y-84199047D01*
X101254490Y-72828343D02*
X101218749Y-72885224D01*
X113846450Y-82424953D02*
X113893953Y-82377450D01*
X102359330Y-74434776D02*
X102323589Y-74491657D01*
X115976046Y-84246549D02*
X116023549Y-84199046D01*
X101189040Y-74304610D02*
X101181518Y-74371367D01*
X116089000Y-82612000D02*
X116096521Y-82545244D01*
X101781518Y-72948633D02*
X101759330Y-72885224D01*
X112588521Y-82545243D02*
X112610709Y-82481834D01*
X102381518Y-74371367D02*
X102359330Y-74434776D01*
X116201953Y-82377451D02*
X116258834Y-82341710D01*
X101619205Y-72745099D02*
X101555796Y-72722911D01*
X113788521Y-82545243D02*
X113810709Y-82481834D01*
X101196561Y-72948633D02*
X101189040Y-73015390D01*
X114446450Y-83199046D02*
X114493953Y-83246549D01*
X101123589Y-74491657D02*
X101076086Y-74539160D01*
X115489000Y-83612000D02*
X115489000Y-84012000D01*
X102089040Y-74604610D02*
X102022283Y-74597089D01*
X111981000Y-82612000D02*
X111981000Y-84012000D01*
X101796561Y-74371367D02*
X101789040Y-74304610D01*
X110950834Y-84282291D02*
X111014243Y-84304479D01*
X101818749Y-74434776D02*
X101796561Y-74371367D01*
X116389000Y-82312000D02*
X116455756Y-82319522D01*
X101076086Y-74539160D02*
X101019205Y-74574901D01*
X114493953Y-83246549D02*
X114550834Y-83282290D01*
X101676086Y-72780840D02*
X101619205Y-72745099D01*
X115554450Y-84199046D02*
X115601953Y-84246549D01*
X101789040Y-73015390D02*
X101781518Y-72948633D01*
X112150834Y-84282291D02*
X112214243Y-84304479D01*
X101958874Y-74574901D02*
X101901993Y-74539160D01*
X111614243Y-82319521D02*
X111681000Y-82312000D01*
X101789040Y-74304610D02*
X101789040Y-73015390D01*
X111147756Y-84304479D02*
X111211165Y-84282291D01*
X101019205Y-74574901D02*
X100955796Y-74597089D01*
X112347756Y-84304479D02*
X112411165Y-84282291D01*
X101854490Y-74491657D02*
X101818749Y-74434776D01*
X111550834Y-82341709D02*
X111614243Y-82319521D01*
X102219205Y-74574901D02*
X102155796Y-74597089D01*
X112947756Y-82319521D02*
X113011165Y-82341709D01*
X102323589Y-74491657D02*
X102276086Y-74539160D01*
X113068046Y-82377450D02*
X113115549Y-82424953D01*
X102022283Y-74597089D02*
X101958874Y-74574901D01*
X111388521Y-82545243D02*
X111410709Y-82481834D01*
X138954450Y-82424954D02*
X139001953Y-82377451D01*
X100955796Y-74597089D02*
X100889040Y-74604610D01*
X139601953Y-84246549D02*
X139658834Y-84282290D01*
X100822283Y-74597089D02*
X100758874Y-74574901D01*
X138354450Y-84199046D02*
X138401953Y-84246549D01*
X100654490Y-74491657D02*
X100618749Y-74434776D01*
X140659290Y-82481835D02*
X140681478Y-82545244D01*
X100618749Y-74434776D02*
X100596561Y-74371367D01*
X139489000Y-82612000D02*
X139489000Y-84012000D01*
X100589040Y-73015390D02*
X100581518Y-72948633D01*
X138296521Y-84078756D02*
X138318709Y-84142165D01*
X100523589Y-72828343D02*
X100476086Y-72780840D01*
X106648364Y-82408577D02*
X106700885Y-82450461D01*
X143718709Y-82481835D02*
X143754450Y-82424954D01*
X106700885Y-82450461D02*
X106761411Y-82479609D01*
X144119165Y-82341710D02*
X144176046Y-82377451D01*
X106761411Y-82479609D02*
X106826906Y-82494559D01*
X106826906Y-82494559D02*
X106894084Y-82494558D01*
X106894084Y-82494558D02*
X106959579Y-82479610D01*
X106959579Y-82479610D02*
X107020105Y-82450462D01*
X107020105Y-82450462D02*
X107072628Y-82408577D01*
X107072628Y-82408577D02*
X108062577Y-81418628D01*
X111410709Y-82481834D02*
X111446450Y-82424953D01*
X108062577Y-81418628D02*
X108115100Y-81376742D01*
X111373478Y-84078757D02*
X111381000Y-84012000D01*
X108115100Y-81376742D02*
X108175626Y-81347595D01*
X112214243Y-84304479D02*
X112281000Y-84312000D01*
X108175626Y-81347595D02*
X108241120Y-81332646D01*
X111315549Y-84199047D02*
X111351290Y-84142166D01*
X108241120Y-81332646D02*
X108308299Y-81332646D01*
X112515549Y-84199047D02*
X112551290Y-84142166D01*
X108308299Y-81332646D02*
X108373793Y-81347595D01*
X110810709Y-84142166D02*
X110846450Y-84199047D01*
X108373793Y-81347595D02*
X108434319Y-81376742D01*
X112646450Y-82424953D02*
X112693953Y-82377450D01*
X108434319Y-81376742D02*
X108486842Y-81418628D01*
X111493953Y-82377450D02*
X111550834Y-82341709D01*
X108486842Y-81418628D02*
X108528727Y-81471150D01*
X113011165Y-82341709D02*
X113068046Y-82377450D01*
X108528727Y-81471150D02*
X108557875Y-81531676D01*
X111747756Y-82319521D02*
X111811165Y-82341709D01*
X108557875Y-81531676D02*
X108572824Y-81597170D01*
X113181000Y-82612000D02*
X113181000Y-84012000D01*
X108572824Y-81597170D02*
X108572824Y-81664349D01*
X108572824Y-81664349D02*
X108557875Y-81729843D01*
X111811165Y-82341709D02*
X111868046Y-82377450D01*
X108557875Y-81729843D02*
X108528727Y-81790369D01*
X110893953Y-84246550D02*
X110950834Y-84282291D01*
X108528727Y-81790369D02*
X108486842Y-81842892D01*
X112551290Y-84142166D02*
X112573478Y-84078757D01*
X108486842Y-81842892D02*
X108204000Y-82125735D01*
X111915549Y-82424953D02*
X111951290Y-82481834D01*
X108204000Y-82125735D02*
X108162114Y-82178258D01*
X111973478Y-82545243D02*
X111981000Y-82612000D01*
X108162114Y-82178258D02*
X108132967Y-82238784D01*
X113246450Y-84199047D02*
X113293953Y-84246550D01*
X108132967Y-82238784D02*
X108118018Y-82304278D01*
X111381000Y-82612000D02*
X111388521Y-82545243D01*
X108118018Y-82304278D02*
X108118018Y-82371457D01*
X112693953Y-82377450D02*
X112750834Y-82341709D01*
X108118018Y-82371457D02*
X108132967Y-82436951D01*
X112610709Y-82481834D02*
X112646450Y-82424953D01*
X108132967Y-82436951D02*
X108162114Y-82497477D01*
X112581000Y-82612000D02*
X112588521Y-82545243D01*
X108162114Y-82497477D02*
X108204000Y-82550000D01*
X113115549Y-82424953D02*
X113151290Y-82481834D01*
X108204000Y-82550000D02*
X108966000Y-83312000D01*
X111981000Y-84012000D02*
X111988521Y-84078757D01*
X108966000Y-83312000D02*
X109281000Y-83312000D01*
X112093953Y-84246550D02*
X112150834Y-84282291D01*
X109281000Y-83312000D02*
X109347756Y-83319522D01*
X111081000Y-84312000D02*
X111147756Y-84304479D01*
X109347756Y-83319522D02*
X109411165Y-83341710D01*
X112814243Y-82319521D02*
X112881000Y-82312000D01*
X109411165Y-83341710D02*
X109468046Y-83377451D01*
X111351290Y-84142166D02*
X111373478Y-84078757D01*
X109468046Y-83377451D02*
X109515549Y-83424954D01*
X112411165Y-84282291D02*
X112468046Y-84246550D01*
X109515549Y-83424954D02*
X109551290Y-83481835D01*
X111681000Y-82312000D02*
X111747756Y-82319521D01*
X109551290Y-83481835D02*
X109573478Y-83545244D01*
X109573478Y-83545244D02*
X109581000Y-83612000D01*
X113181000Y-84012000D02*
X113188521Y-84078757D01*
X109581000Y-83612000D02*
X109581000Y-84012000D01*
X113210709Y-84142166D02*
X113246450Y-84199047D01*
X109581000Y-84012000D02*
X109588521Y-84078757D01*
X109588521Y-84078757D02*
X109610709Y-84142166D01*
X111951290Y-82481834D02*
X111973478Y-82545243D01*
X109610709Y-84142166D02*
X109646450Y-84199047D01*
X112468046Y-84246550D02*
X112515549Y-84199047D01*
X109646450Y-84199047D02*
X109693953Y-84246550D01*
X110846450Y-84199047D02*
X110893953Y-84246550D01*
X109693953Y-84246550D02*
X109750834Y-84282291D01*
X109750834Y-84282291D02*
X109814243Y-84304479D01*
X113151290Y-82481834D02*
X113173478Y-82545243D01*
X109814243Y-84304479D02*
X109881000Y-84312000D01*
X111014243Y-84304479D02*
X111081000Y-84312000D01*
X109881000Y-84312000D02*
X109947756Y-84304479D01*
X109947756Y-84304479D02*
X110011165Y-84282291D01*
X112573478Y-84078757D02*
X112581000Y-84012000D01*
X110011165Y-84282291D02*
X110068046Y-84246550D01*
X113188521Y-84078757D02*
X113210709Y-84142166D01*
X110068046Y-84246550D02*
X110115549Y-84199047D01*
X112581000Y-84012000D02*
X112581000Y-82612000D01*
X110115549Y-84199047D02*
X110151290Y-84142166D01*
X113173478Y-82545243D02*
X113181000Y-82612000D01*
X110151290Y-84142166D02*
X110173478Y-84078757D01*
X110173478Y-84078757D02*
X110181000Y-84012000D01*
X110181000Y-84012000D02*
X110181000Y-82612000D01*
X110181000Y-82612000D02*
X110188521Y-82545243D01*
X112750834Y-82341709D02*
X112814243Y-82319521D01*
X110188521Y-82545243D02*
X110210709Y-82481834D01*
X110210709Y-82481834D02*
X110246450Y-82424953D01*
X111381000Y-84012000D02*
X111381000Y-82612000D01*
X110246450Y-82424953D02*
X110293953Y-82377450D01*
X113293953Y-84246550D02*
X113350834Y-84282291D01*
X110293953Y-82377450D02*
X110350834Y-82341709D01*
X111268046Y-84246550D02*
X111315549Y-84199047D01*
X110350834Y-82341709D02*
X110414243Y-82319521D01*
X111211165Y-84282291D02*
X111268046Y-84246550D01*
X110414243Y-82319521D02*
X110481000Y-82312000D01*
X112010709Y-84142166D02*
X112046450Y-84199047D01*
X110481000Y-82312000D02*
X110547756Y-82319521D01*
X111446450Y-82424953D02*
X111493953Y-82377450D01*
X110547756Y-82319521D02*
X110611165Y-82341709D01*
X110611165Y-82341709D02*
X110668046Y-82377450D01*
X112281000Y-84312000D02*
X112347756Y-84304479D01*
X110668046Y-82377450D02*
X110715549Y-82424953D01*
X111988521Y-84078757D02*
X112010709Y-84142166D01*
X110715549Y-82424953D02*
X110751290Y-82481834D01*
X112046450Y-84199047D02*
X112093953Y-84246550D01*
X110751290Y-82481834D02*
X110773478Y-82545243D01*
X112881000Y-82312000D02*
X112947756Y-82319521D01*
X110773478Y-82545243D02*
X110781000Y-82612000D01*
X110781000Y-82612000D02*
X110781000Y-84012000D01*
X111868046Y-82377450D02*
X111915549Y-82424953D01*
X110781000Y-84012000D02*
X110788521Y-84078757D01*
X105323589Y-72828343D02*
X105276086Y-72780840D01*
X113414243Y-84304479D02*
X113481000Y-84312000D01*
X113481000Y-84312000D02*
X113547756Y-84304479D01*
X113547756Y-84304479D02*
X113611165Y-84282291D01*
X113611165Y-84282291D02*
X113668046Y-84246550D01*
X106158874Y-72745099D02*
X106101993Y-72780840D01*
X113715549Y-84199047D02*
X113751290Y-84142166D01*
X113751290Y-84142166D02*
X113773478Y-84078757D01*
X113781000Y-84012000D02*
X113781000Y-82612000D01*
X113781000Y-82612000D02*
X113788521Y-82545243D01*
X113893953Y-82377450D02*
X113950834Y-82341709D01*
X109372400Y-72176640D02*
X108372400Y-72176640D01*
X113950834Y-82341709D02*
X114014243Y-82319521D01*
X114014243Y-82319521D02*
X114081000Y-82312000D01*
X114081000Y-82312000D02*
X114147756Y-82319521D01*
X114147756Y-82319521D02*
X114211165Y-82341709D01*
X114211165Y-82341709D02*
X114268046Y-82377450D01*
X114268046Y-82377450D02*
X114315549Y-82424953D01*
X114315549Y-82424953D02*
X114351290Y-82481834D01*
X114351290Y-82481834D02*
X114373478Y-82545243D01*
X114373478Y-82545243D02*
X114381000Y-82612000D01*
X114381000Y-83012000D02*
X114388521Y-83078756D01*
X114388521Y-83078756D02*
X114410709Y-83142165D01*
X114410709Y-83142165D02*
X114446450Y-83199046D01*
X114550834Y-83282290D02*
X114614243Y-83304478D01*
X105155796Y-72722911D02*
X105089040Y-72715390D01*
X114681000Y-83312000D02*
X115189000Y-83312000D01*
X105501993Y-74539160D02*
X105454490Y-74491657D01*
X115189000Y-83312000D02*
X115255756Y-83319521D01*
X105418749Y-74434776D02*
X105396561Y-74371367D01*
X115255756Y-83319521D02*
X115319165Y-83341709D01*
X105276086Y-72780840D02*
X105219205Y-72745099D01*
X115481478Y-83545243D02*
X115489000Y-83612000D01*
X115489000Y-84012000D02*
X115496521Y-84078756D01*
X115496521Y-84078756D02*
X115518709Y-84142165D01*
X115518709Y-84142165D02*
X115554450Y-84199046D01*
X115601953Y-84246549D02*
X115658834Y-84282290D01*
X115789000Y-84312000D02*
X115855756Y-84304478D01*
X115855756Y-84304478D02*
X115919165Y-84282290D01*
X115919165Y-84282290D02*
X115976046Y-84246549D01*
X116023549Y-84199046D02*
X116059290Y-84142165D01*
X116059290Y-84142165D02*
X116081478Y-84078756D01*
X116081478Y-84078756D02*
X116089000Y-84012000D01*
X116089000Y-84012000D02*
X116089000Y-82612000D01*
X116096521Y-82545244D02*
X116118709Y-82481835D01*
X116118709Y-82481835D02*
X116154450Y-82424954D01*
X116258834Y-82341710D02*
X116322243Y-82319522D01*
X116322243Y-82319522D02*
X116389000Y-82312000D01*
X105022283Y-72722911D02*
X104958874Y-72745099D01*
X116455756Y-82319522D02*
X116519165Y-82341710D01*
X116519165Y-82341710D02*
X116576046Y-82377451D01*
X105996561Y-72948633D02*
X105989040Y-73015390D01*
X116576046Y-82377451D02*
X116623549Y-82424954D01*
X105381518Y-72948633D02*
X105359330Y-72885224D01*
X116623549Y-82424954D02*
X116659290Y-82481835D01*
X103654490Y-72828343D02*
X103618749Y-72885224D01*
X116659290Y-82481835D02*
X116681478Y-82545244D01*
X106523589Y-72828343D02*
X106476086Y-72780840D01*
X116681478Y-82545244D02*
X116689000Y-82612000D01*
X104723589Y-74491657D02*
X104676086Y-74539160D01*
X116689000Y-82612000D02*
X116689000Y-84012000D01*
X106054490Y-72828343D02*
X106018749Y-72885224D01*
X116689000Y-84012000D02*
X116696521Y-84078756D01*
X106581518Y-72948633D02*
X106559330Y-72885224D01*
X116696521Y-84078756D02*
X116718709Y-84142165D01*
X103955796Y-72722911D02*
X103889040Y-72715390D01*
X116718709Y-84142165D02*
X116754450Y-84199046D01*
X116754450Y-84199046D02*
X116801953Y-84246549D01*
X105876086Y-74539160D02*
X105819205Y-74574901D01*
X116801953Y-84246549D02*
X116858834Y-84282290D01*
X104676086Y-74539160D02*
X104619205Y-74574901D01*
X116858834Y-84282290D02*
X116922243Y-84304478D01*
X105923589Y-74491657D02*
X105876086Y-74539160D01*
X116922243Y-84304478D02*
X116989000Y-84312000D01*
X116989000Y-84312000D02*
X117055756Y-84304478D01*
X106758874Y-73630290D02*
X106701993Y-73594549D01*
X117055756Y-84304478D02*
X117119165Y-84282290D01*
X106018749Y-72885224D02*
X105996561Y-72948633D01*
X117119165Y-84282290D02*
X117176046Y-84246549D01*
X105989040Y-73015390D02*
X105989040Y-74304610D01*
X117176046Y-84246549D02*
X117223549Y-84199046D01*
X105396561Y-74371367D02*
X105389040Y-74304610D01*
X117223549Y-84199046D02*
X117259290Y-84142165D01*
X105558874Y-74574901D02*
X105501993Y-74539160D01*
X117259290Y-84142165D02*
X117281478Y-84078756D01*
X103822283Y-72722911D02*
X103758874Y-72745099D01*
X117281478Y-84078756D02*
X117289000Y-84012000D01*
X103596561Y-72948633D02*
X103589040Y-73015390D01*
X117289000Y-84012000D02*
X117289000Y-82612000D01*
X106559330Y-72885224D02*
X106523589Y-72828343D01*
X117289000Y-82612000D02*
X117296521Y-82545244D01*
X104854490Y-72828343D02*
X104818749Y-72885224D01*
X117296521Y-82545244D02*
X117318709Y-82481835D01*
X106596561Y-73426756D02*
X106589040Y-73360000D01*
X117318709Y-82481835D02*
X117354450Y-82424954D01*
X105959330Y-74434776D02*
X105923589Y-74491657D01*
X117354450Y-82424954D02*
X117401953Y-82377451D01*
X105219205Y-72745099D02*
X105155796Y-72722911D01*
X117401953Y-82377451D02*
X117458834Y-82341710D01*
X106589040Y-73360000D02*
X106589040Y-73015390D01*
X117458834Y-82341710D02*
X117522243Y-82319522D01*
X106618749Y-73490165D02*
X106596561Y-73426756D01*
X117522243Y-82319522D02*
X117589000Y-82312000D01*
X105989040Y-74304610D02*
X105981518Y-74371367D01*
X117589000Y-82312000D02*
X117655756Y-82319522D01*
X105359330Y-72885224D02*
X105323589Y-72828343D01*
X117655756Y-82319522D02*
X117719165Y-82341710D01*
X106101993Y-72780840D02*
X106054490Y-72828343D01*
X117719165Y-82341710D02*
X117776046Y-82377451D01*
X117776046Y-82377451D02*
X117823549Y-82424954D01*
X106419205Y-72745099D02*
X106355796Y-72722911D01*
X117823549Y-82424954D02*
X117859290Y-82481835D01*
X106589040Y-73015390D02*
X106581518Y-72948633D01*
X117859290Y-82481835D02*
X117881478Y-82545244D01*
X117881478Y-82545244D02*
X117889000Y-82612000D01*
X105981518Y-74371367D02*
X105959330Y-74434776D01*
X117889000Y-82612000D02*
X117889000Y-84012000D01*
X104958874Y-72745099D02*
X104901993Y-72780840D01*
X117889000Y-84012000D02*
X117896521Y-84078756D01*
X117896521Y-84078756D02*
X117918709Y-84142165D01*
X117918709Y-84142165D02*
X117954450Y-84199046D01*
X117954450Y-84199046D02*
X118001953Y-84246549D01*
X106701993Y-73594549D02*
X106654490Y-73547046D01*
X118001953Y-84246549D02*
X118058834Y-84282290D01*
X105755796Y-74597089D02*
X105689040Y-74604610D01*
X118058834Y-84282290D02*
X118122243Y-84304478D01*
X118122243Y-84304478D02*
X118189000Y-84312000D01*
X106889040Y-73660000D02*
X106822283Y-73652478D01*
X118189000Y-84312000D02*
X118255756Y-84304478D01*
X105622283Y-74597089D02*
X105558874Y-74574901D01*
X118255756Y-84304478D02*
X118319165Y-84282290D01*
X105454490Y-74491657D02*
X105418749Y-74434776D01*
X118319165Y-84282290D02*
X118376046Y-84246549D01*
X106289040Y-72715390D02*
X106222283Y-72722911D01*
X118376046Y-84246549D02*
X118423549Y-84199046D01*
X105389040Y-74304610D02*
X105389040Y-73015390D01*
X118423549Y-84199046D02*
X118459290Y-84142165D01*
X104901993Y-72780840D02*
X104854490Y-72828343D01*
X118459290Y-84142165D02*
X118481478Y-84078756D01*
X105819205Y-74574901D02*
X105755796Y-74597089D01*
X118481478Y-84078756D02*
X118489000Y-84012000D01*
X105389040Y-73015390D02*
X105381518Y-72948633D01*
X118489000Y-84012000D02*
X118489000Y-82612000D01*
X104123589Y-72828343D02*
X104076086Y-72780840D01*
X118489000Y-82612000D02*
X118496521Y-82545244D01*
X118496521Y-82545244D02*
X118518709Y-82481835D01*
X105089040Y-72715390D02*
X105022283Y-72722911D01*
X118518709Y-82481835D02*
X118554450Y-82424954D01*
X105689040Y-74604610D02*
X105622283Y-74597089D01*
X118554450Y-82424954D02*
X118601953Y-82377451D01*
X106222283Y-72722911D02*
X106158874Y-72745099D01*
X118601953Y-82377451D02*
X118658834Y-82341710D01*
X106355796Y-72722911D02*
X106289040Y-72715390D01*
X118658834Y-82341710D02*
X118722243Y-82319522D01*
X108372400Y-72176640D02*
X106889040Y-73660000D01*
X118722243Y-82319522D02*
X118789000Y-82312000D01*
X106654490Y-73547046D02*
X106618749Y-73490165D01*
X118789000Y-82312000D02*
X118855756Y-82319522D01*
X106476086Y-72780840D02*
X106419205Y-72745099D01*
X118855756Y-82319522D02*
X118919165Y-82341710D01*
X106822283Y-73652478D02*
X106758874Y-73630290D01*
X118919165Y-82341710D02*
X118976046Y-82377451D01*
X118976046Y-82377451D02*
X119023549Y-82424954D01*
X104796561Y-72948633D02*
X104789040Y-73015390D01*
X119023549Y-82424954D02*
X119059290Y-82481835D01*
X104301993Y-74539160D02*
X104254490Y-74491657D01*
X119059290Y-82481835D02*
X119081478Y-82545244D01*
X104218749Y-74434776D02*
X104196561Y-74371367D01*
X119081478Y-82545244D02*
X119089000Y-82612000D01*
X103476086Y-74539160D02*
X103419205Y-74574901D01*
X119089000Y-82612000D02*
X119089000Y-84012000D01*
X102389040Y-74304610D02*
X102381518Y-74371367D01*
X119089000Y-84012000D02*
X119096521Y-84078756D01*
X104422283Y-74597089D02*
X104358874Y-74574901D01*
X119096521Y-84078756D02*
X119118709Y-84142165D01*
X102819205Y-72895099D02*
X102755796Y-72872911D01*
X119118709Y-84142165D02*
X119154450Y-84199046D01*
X104189040Y-73015390D02*
X104181518Y-72948633D01*
X119154450Y-84199046D02*
X119201953Y-84246549D01*
X102454490Y-72978343D02*
X102418749Y-73035224D01*
X119201953Y-84246549D02*
X119258834Y-84282290D01*
X103559330Y-74434776D02*
X103523589Y-74491657D01*
X119258834Y-84282290D02*
X119322243Y-84304478D01*
X102876086Y-72930840D02*
X102819205Y-72895099D01*
X119322243Y-84304478D02*
X119389000Y-84312000D01*
X103581518Y-74371367D02*
X103559330Y-74434776D01*
X119389000Y-84312000D02*
X119455756Y-84304478D01*
X103158874Y-74574901D02*
X103101993Y-74539160D01*
X119455756Y-84304478D02*
X119519165Y-84282290D01*
X103589040Y-74304610D02*
X103581518Y-74371367D01*
X119519165Y-84282290D02*
X119576046Y-84246549D01*
X119576046Y-84246549D02*
X119623549Y-84199046D01*
X103618749Y-72885224D02*
X103596561Y-72948633D01*
X119623549Y-84199046D02*
X119659290Y-84142165D01*
X103758874Y-72745099D02*
X103701993Y-72780840D01*
X119659290Y-84142165D02*
X119681478Y-84078756D01*
X104818749Y-72885224D02*
X104796561Y-72948633D01*
X119681478Y-84078756D02*
X119689000Y-84012000D01*
X104555796Y-74597089D02*
X104489040Y-74604610D01*
X119689000Y-84012000D02*
X119689000Y-82612000D01*
X104789040Y-74304610D02*
X104781518Y-74371367D01*
X119689000Y-82612000D02*
X119696521Y-82545244D01*
X119696521Y-82545244D02*
X119718709Y-82481835D01*
X102755796Y-72872911D02*
X102689040Y-72865390D01*
X119718709Y-82481835D02*
X119754450Y-82424954D01*
X104789040Y-73015390D02*
X104789040Y-74304610D01*
X119754450Y-82424954D02*
X119801953Y-82377451D01*
X104181518Y-72948633D02*
X104159330Y-72885224D01*
X119801953Y-82377451D02*
X119858834Y-82341710D01*
X104619205Y-74574901D02*
X104555796Y-74597089D01*
X119858834Y-82341710D02*
X119922243Y-82319522D01*
X104076086Y-72780840D02*
X104019205Y-72745099D01*
X119922243Y-82319522D02*
X119989000Y-82312000D01*
X103054490Y-74491657D02*
X103018749Y-74434776D01*
X119989000Y-82312000D02*
X120055756Y-82319522D01*
X103701993Y-72780840D02*
X103654490Y-72828343D01*
X120055756Y-82319522D02*
X120119165Y-82341710D01*
X102989040Y-73165390D02*
X102981518Y-73098633D01*
X120119165Y-82341710D02*
X120176046Y-82377451D01*
X103355796Y-74597089D02*
X103289040Y-74604610D01*
X120176046Y-82377451D02*
X120223549Y-82424954D01*
X104189040Y-74304610D02*
X104189040Y-73015390D01*
X120223549Y-82424954D02*
X120259290Y-82481835D01*
X103222283Y-74597089D02*
X103158874Y-74574901D01*
X120259290Y-82481835D02*
X120281478Y-82545244D01*
X120281478Y-82545244D02*
X120289000Y-82612000D01*
X103419205Y-74574901D02*
X103355796Y-74597089D01*
X120289000Y-82612000D02*
X120289000Y-84012000D01*
X102923589Y-72978343D02*
X102876086Y-72930840D01*
X120289000Y-84012000D02*
X120296521Y-84078756D01*
X104759330Y-74434776D02*
X104723589Y-74491657D01*
X120296521Y-84078756D02*
X120318709Y-84142165D01*
X102389040Y-73165390D02*
X102389040Y-74304610D01*
X120318709Y-84142165D02*
X120354450Y-84199046D01*
X103101993Y-74539160D02*
X103054490Y-74491657D01*
X120354450Y-84199046D02*
X120401953Y-84246549D01*
X102959330Y-73035224D02*
X102923589Y-72978343D01*
X120401953Y-84246549D02*
X120458834Y-84282290D01*
X104358874Y-74574901D02*
X104301993Y-74539160D01*
X120458834Y-84282290D02*
X120522243Y-84304478D01*
X103889040Y-72715390D02*
X103822283Y-72722911D01*
X120522243Y-84304478D02*
X120589000Y-84312000D01*
X103523589Y-74491657D02*
X103476086Y-74539160D01*
X120589000Y-84312000D02*
X120655756Y-84304478D01*
X104196561Y-74371367D02*
X104189040Y-74304610D01*
X120655756Y-84304478D02*
X120719165Y-84282290D01*
X103018749Y-74434776D02*
X102996561Y-74371367D01*
X120719165Y-84282290D02*
X120776046Y-84246549D01*
X102996561Y-74371367D02*
X102989040Y-74304610D01*
X120776046Y-84246549D02*
X120823549Y-84199046D01*
X102622283Y-72872911D02*
X102558874Y-72895099D01*
X120823549Y-84199046D02*
X120859290Y-84142165D01*
X102418749Y-73035224D02*
X102396561Y-73098633D01*
X120859290Y-84142165D02*
X120881478Y-84078756D01*
X102396561Y-73098633D02*
X102389040Y-73165390D01*
X120881478Y-84078756D02*
X120889000Y-84012000D01*
X104781518Y-74371367D02*
X104759330Y-74434776D01*
X120889000Y-84012000D02*
X120889000Y-82612000D01*
X104489040Y-74604610D02*
X104422283Y-74597089D01*
X120889000Y-82612000D02*
X120896521Y-82545244D01*
X102501993Y-72930840D02*
X102454490Y-72978343D01*
X120896521Y-82545244D02*
X120918709Y-82481835D01*
X104254490Y-74491657D02*
X104218749Y-74434776D01*
X120918709Y-82481835D02*
X120954450Y-82424954D01*
X102689040Y-72865390D02*
X102622283Y-72872911D01*
X120954450Y-82424954D02*
X121001953Y-82377451D01*
X103289040Y-74604610D02*
X103222283Y-74597089D01*
X121001953Y-82377451D02*
X121058834Y-82341710D01*
X104019205Y-72745099D02*
X103955796Y-72722911D01*
X121058834Y-82341710D02*
X121122243Y-82319522D01*
X102981518Y-73098633D02*
X102959330Y-73035224D01*
X121122243Y-82319522D02*
X121189000Y-82312000D01*
X102558874Y-72895099D02*
X102501993Y-72930840D01*
X121189000Y-82312000D02*
X121255756Y-82319522D01*
X121255756Y-82319522D02*
X121319165Y-82341710D01*
X104159330Y-72885224D02*
X104123589Y-72828343D01*
X121319165Y-82341710D02*
X121376046Y-82377451D01*
X121376046Y-82377451D02*
X121423549Y-82424954D01*
X121423549Y-82424954D02*
X121459290Y-82481835D01*
X121459290Y-82481835D02*
X121481478Y-82545244D01*
X121481478Y-82545244D02*
X121489000Y-82612000D01*
X103589040Y-73015390D02*
X103589040Y-74304610D01*
X121489000Y-82612000D02*
X121489000Y-84012000D01*
X102989040Y-74304610D02*
X102989040Y-73165390D01*
X121489000Y-84012000D02*
X121496521Y-84078756D01*
X121496521Y-84078756D02*
X121518709Y-84142165D01*
X121518709Y-84142165D02*
X121554450Y-84199046D01*
X121554450Y-84199046D02*
X121601953Y-84246549D01*
X121601953Y-84246549D02*
X121658834Y-84282290D01*
X121658834Y-84282290D02*
X121722243Y-84304478D01*
X121722243Y-84304478D02*
X121789000Y-84312000D01*
X121789000Y-84312000D02*
X121855756Y-84304478D01*
X121855756Y-84304478D02*
X121919165Y-84282290D01*
X121919165Y-84282290D02*
X121976046Y-84246549D01*
X121976046Y-84246549D02*
X122023549Y-84199046D01*
X122023549Y-84199046D02*
X122059290Y-84142165D01*
X122059290Y-84142165D02*
X122081478Y-84078756D01*
X122081478Y-84078756D02*
X122089000Y-84012000D01*
X122089000Y-84012000D02*
X122089000Y-82612000D01*
X122089000Y-82612000D02*
X122096521Y-82545244D01*
X122096521Y-82545244D02*
X122118709Y-82481835D01*
X122118709Y-82481835D02*
X122154450Y-82424954D01*
X122154450Y-82424954D02*
X122201953Y-82377451D01*
X122201953Y-82377451D02*
X122258834Y-82341710D01*
X122258834Y-82341710D02*
X122322243Y-82319522D01*
X122322243Y-82319522D02*
X122389000Y-82312000D01*
X122389000Y-82312000D02*
X122455756Y-82319522D01*
X122455756Y-82319522D02*
X122519165Y-82341710D01*
X122519165Y-82341710D02*
X122576046Y-82377451D01*
X122576046Y-82377451D02*
X122623549Y-82424954D01*
X122623549Y-82424954D02*
X122659290Y-82481835D01*
X122659290Y-82481835D02*
X122681478Y-82545244D01*
X122681478Y-82545244D02*
X122689000Y-82612000D01*
X122689000Y-82612000D02*
X122689000Y-84012000D01*
X122689000Y-84012000D02*
X122696521Y-84078756D01*
X122696521Y-84078756D02*
X122718709Y-84142165D01*
X122718709Y-84142165D02*
X122754450Y-84199046D01*
X122754450Y-84199046D02*
X122801953Y-84246549D01*
X122801953Y-84246549D02*
X122858834Y-84282290D01*
X122858834Y-84282290D02*
X122922243Y-84304478D01*
G04 #@! TO.N,Net-(J3-Pad6)*
X115133120Y-74858880D02*
X111506000Y-78486000D01*
X150870920Y-74858880D02*
X115133120Y-74858880D01*
G04 #@! TD*
M02*
