M48
;DRILL file {KiCad (5.0.0)} date 03/30/19 00:16:58
;FORMAT={-:-/ absolute / inch / decimal}
FMAT,2
INCH,TZ
T1C0.0157
T2C0.0299
%
G90
G05
M72
T1
X5.335Y-4.25
X5.385Y-4.255
X5.685Y-4.355
X5.73Y-4.345
T2
X5.9314Y-4.1586
X5.9314Y-4.2586
X5.9314Y-4.3586
X5.9314Y-4.4586
X6.0314Y-4.2086
X6.0314Y-4.3086
X6.0314Y-4.4086
X6.0314Y-4.5086
X4.2932Y-3.5014
X4.2932Y-3.6014
X4.2932Y-3.7014
X4.2932Y-3.8014
X4.3932Y-3.5514
X4.3932Y-3.6514
X4.3932Y-3.7514
X4.3932Y-3.8514
X4.2976Y-4.157
X4.2976Y-4.257
X4.2976Y-4.357
X4.2976Y-4.457
X4.3976Y-4.207
X4.3976Y-4.307
X4.3976Y-4.407
X4.3976Y-4.507
X5.9398Y-2.8472
X5.9398Y-2.9472
X5.9398Y-3.0472
X5.9398Y-3.1472
X6.0398Y-2.8972
X6.0398Y-2.9972
X6.0398Y-3.0972
X6.0398Y-3.1972
X4.29Y-2.84
X4.29Y-2.94
X4.29Y-3.04
X4.29Y-3.14
X4.39Y-2.89
X4.39Y-2.99
X4.39Y-3.09
X4.39Y-3.19
X5.9356Y-3.503
X5.9356Y-3.603
X5.9356Y-3.703
X5.9356Y-3.803
X6.0356Y-3.553
X6.0356Y-3.653
X6.0356Y-3.753
X6.0356Y-3.853
T0
M30
