G04 #@! TF.GenerationSoftware,KiCad,Pcbnew,(5.0.0)*
G04 #@! TF.CreationDate,2019-01-08T20:03:17-05:00*
G04 #@! TF.ProjectId,Headphone Breakout,4865616470686F6E6520427265616B6F,rev?*
G04 #@! TF.SameCoordinates,Original*
G04 #@! TF.FileFunction,Soldermask,Top*
G04 #@! TF.FilePolarity,Negative*
%FSLAX46Y46*%
G04 Gerber Fmt 4.6, Leading zero omitted, Abs format (unit mm)*
G04 Created by KiCad (PCBNEW (5.0.0)) date 01/08/19 20:03:17*
%MOMM*%
%LPD*%
G01*
G04 APERTURE LIST*
%ADD10R,2.100000X1.000000*%
%ADD11R,3.200000X1.400000*%
%ADD12R,1.600000X2.900000*%
%ADD13C,1.900000*%
%ADD14C,0.500000*%
%ADD15C,0.100000*%
G04 APERTURE END LIST*
D10*
G04 #@! TO.C,J1*
X123870000Y-100915000D03*
X123870000Y-99665000D03*
X123870000Y-98415000D03*
X123870000Y-97165000D03*
X123870000Y-95915000D03*
X123870000Y-94665000D03*
D11*
X120520000Y-102765000D03*
X120520000Y-92815000D03*
G04 #@! TD*
D10*
G04 #@! TO.C,J2*
X123870000Y-88215000D03*
X123870000Y-86965000D03*
X123870000Y-85715000D03*
X123870000Y-84465000D03*
X123870000Y-83215000D03*
X123870000Y-81965000D03*
D11*
X120520000Y-90065000D03*
X120520000Y-80115000D03*
G04 #@! TD*
D12*
G04 #@! TO.C,J3*
X129441000Y-81078000D03*
X130541000Y-87578000D03*
X134541000Y-87578000D03*
X137541000Y-87578000D03*
D13*
X139141000Y-84328000D03*
X132141000Y-84328000D03*
G04 #@! TD*
D14*
G04 #@! TO.C,JP1*
X129616200Y-94035400D03*
D15*
G36*
X128670043Y-93496382D02*
X128681424Y-93458863D01*
X128699906Y-93424286D01*
X128724779Y-93393979D01*
X128755086Y-93369106D01*
X128789663Y-93350624D01*
X128827182Y-93339243D01*
X128866200Y-93335400D01*
X129116200Y-93335400D01*
X129116200Y-93135400D01*
X129120043Y-93096382D01*
X129131424Y-93058863D01*
X129149906Y-93024286D01*
X129174779Y-92993979D01*
X129205086Y-92969106D01*
X129239663Y-92950624D01*
X129277182Y-92939243D01*
X129316200Y-92935400D01*
X129916200Y-92935400D01*
X129955218Y-92939243D01*
X129992737Y-92950624D01*
X130027314Y-92969106D01*
X130057621Y-92993979D01*
X130082494Y-93024286D01*
X130100976Y-93058863D01*
X130112357Y-93096382D01*
X130116200Y-93135400D01*
X130116200Y-93335400D01*
X130366200Y-93335400D01*
X130405218Y-93339243D01*
X130442737Y-93350624D01*
X130477314Y-93369106D01*
X130507621Y-93393979D01*
X130532494Y-93424286D01*
X130550976Y-93458863D01*
X130562357Y-93496382D01*
X130566200Y-93535400D01*
X130566200Y-94035400D01*
X130565598Y-94041512D01*
X130565598Y-94059934D01*
X130564635Y-94079540D01*
X130559825Y-94128371D01*
X130556946Y-94147780D01*
X130547374Y-94195905D01*
X130542604Y-94214948D01*
X130528360Y-94261903D01*
X130521749Y-94280380D01*
X130502972Y-94325713D01*
X130494577Y-94343461D01*
X130471446Y-94386734D01*
X130461360Y-94403562D01*
X130434100Y-94444361D01*
X130422405Y-94460130D01*
X130391277Y-94498059D01*
X130378097Y-94512600D01*
X130343400Y-94547297D01*
X130328859Y-94560477D01*
X130290930Y-94591605D01*
X130275161Y-94603300D01*
X130234362Y-94630560D01*
X130217534Y-94640646D01*
X130174261Y-94663777D01*
X130156513Y-94672172D01*
X130111180Y-94690949D01*
X130092703Y-94697560D01*
X130045748Y-94711804D01*
X130026705Y-94716574D01*
X129978580Y-94726146D01*
X129959171Y-94729025D01*
X129910340Y-94733835D01*
X129890734Y-94734798D01*
X129872312Y-94734798D01*
X129866200Y-94735400D01*
X129366200Y-94735400D01*
X129360088Y-94734798D01*
X129341666Y-94734798D01*
X129322060Y-94733835D01*
X129273229Y-94729025D01*
X129253820Y-94726146D01*
X129205695Y-94716574D01*
X129186652Y-94711804D01*
X129139697Y-94697560D01*
X129121220Y-94690949D01*
X129075887Y-94672172D01*
X129058139Y-94663777D01*
X129014866Y-94640646D01*
X128998038Y-94630560D01*
X128957239Y-94603300D01*
X128941470Y-94591605D01*
X128903541Y-94560477D01*
X128889000Y-94547297D01*
X128854303Y-94512600D01*
X128841123Y-94498059D01*
X128809995Y-94460130D01*
X128798300Y-94444361D01*
X128771040Y-94403562D01*
X128760954Y-94386734D01*
X128737823Y-94343461D01*
X128729428Y-94325713D01*
X128710651Y-94280380D01*
X128704040Y-94261903D01*
X128689796Y-94214948D01*
X128685026Y-94195905D01*
X128675454Y-94147780D01*
X128672575Y-94128371D01*
X128667765Y-94079540D01*
X128666802Y-94059934D01*
X128666802Y-94041512D01*
X128666200Y-94035400D01*
X128666200Y-93535400D01*
X128670043Y-93496382D01*
X128670043Y-93496382D01*
G37*
D14*
X129616200Y-92735400D03*
D15*
G36*
X128666802Y-92729288D02*
X128666802Y-92710866D01*
X128667765Y-92691260D01*
X128672575Y-92642429D01*
X128675454Y-92623020D01*
X128685026Y-92574895D01*
X128689796Y-92555852D01*
X128704040Y-92508897D01*
X128710651Y-92490420D01*
X128729428Y-92445087D01*
X128737823Y-92427339D01*
X128760954Y-92384066D01*
X128771040Y-92367238D01*
X128798300Y-92326439D01*
X128809995Y-92310670D01*
X128841123Y-92272741D01*
X128854303Y-92258200D01*
X128889000Y-92223503D01*
X128903541Y-92210323D01*
X128941470Y-92179195D01*
X128957239Y-92167500D01*
X128998038Y-92140240D01*
X129014866Y-92130154D01*
X129058139Y-92107023D01*
X129075887Y-92098628D01*
X129121220Y-92079851D01*
X129139697Y-92073240D01*
X129186652Y-92058996D01*
X129205695Y-92054226D01*
X129253820Y-92044654D01*
X129273229Y-92041775D01*
X129322060Y-92036965D01*
X129341666Y-92036002D01*
X129360088Y-92036002D01*
X129366200Y-92035400D01*
X129866200Y-92035400D01*
X129872312Y-92036002D01*
X129890734Y-92036002D01*
X129910340Y-92036965D01*
X129959171Y-92041775D01*
X129978580Y-92044654D01*
X130026705Y-92054226D01*
X130045748Y-92058996D01*
X130092703Y-92073240D01*
X130111180Y-92079851D01*
X130156513Y-92098628D01*
X130174261Y-92107023D01*
X130217534Y-92130154D01*
X130234362Y-92140240D01*
X130275161Y-92167500D01*
X130290930Y-92179195D01*
X130328859Y-92210323D01*
X130343400Y-92223503D01*
X130378097Y-92258200D01*
X130391277Y-92272741D01*
X130422405Y-92310670D01*
X130434100Y-92326439D01*
X130461360Y-92367238D01*
X130471446Y-92384066D01*
X130494577Y-92427339D01*
X130502972Y-92445087D01*
X130521749Y-92490420D01*
X130528360Y-92508897D01*
X130542604Y-92555852D01*
X130547374Y-92574895D01*
X130556946Y-92623020D01*
X130559825Y-92642429D01*
X130564635Y-92691260D01*
X130565598Y-92710866D01*
X130565598Y-92729288D01*
X130566200Y-92735400D01*
X130566200Y-93235400D01*
X130562357Y-93274418D01*
X130550976Y-93311937D01*
X130532494Y-93346514D01*
X130507621Y-93376821D01*
X130477314Y-93401694D01*
X130442737Y-93420176D01*
X130405218Y-93431557D01*
X130366200Y-93435400D01*
X128866200Y-93435400D01*
X128827182Y-93431557D01*
X128789663Y-93420176D01*
X128755086Y-93401694D01*
X128724779Y-93376821D01*
X128699906Y-93346514D01*
X128681424Y-93311937D01*
X128670043Y-93274418D01*
X128666200Y-93235400D01*
X128666200Y-92735400D01*
X128666802Y-92729288D01*
X128666802Y-92729288D01*
G37*
G04 #@! TD*
D14*
G04 #@! TO.C,JP2*
X133604000Y-92680000D03*
D15*
G36*
X132654602Y-92673888D02*
X132654602Y-92655466D01*
X132655565Y-92635860D01*
X132660375Y-92587029D01*
X132663254Y-92567620D01*
X132672826Y-92519495D01*
X132677596Y-92500452D01*
X132691840Y-92453497D01*
X132698451Y-92435020D01*
X132717228Y-92389687D01*
X132725623Y-92371939D01*
X132748754Y-92328666D01*
X132758840Y-92311838D01*
X132786100Y-92271039D01*
X132797795Y-92255270D01*
X132828923Y-92217341D01*
X132842103Y-92202800D01*
X132876800Y-92168103D01*
X132891341Y-92154923D01*
X132929270Y-92123795D01*
X132945039Y-92112100D01*
X132985838Y-92084840D01*
X133002666Y-92074754D01*
X133045939Y-92051623D01*
X133063687Y-92043228D01*
X133109020Y-92024451D01*
X133127497Y-92017840D01*
X133174452Y-92003596D01*
X133193495Y-91998826D01*
X133241620Y-91989254D01*
X133261029Y-91986375D01*
X133309860Y-91981565D01*
X133329466Y-91980602D01*
X133347888Y-91980602D01*
X133354000Y-91980000D01*
X133854000Y-91980000D01*
X133860112Y-91980602D01*
X133878534Y-91980602D01*
X133898140Y-91981565D01*
X133946971Y-91986375D01*
X133966380Y-91989254D01*
X134014505Y-91998826D01*
X134033548Y-92003596D01*
X134080503Y-92017840D01*
X134098980Y-92024451D01*
X134144313Y-92043228D01*
X134162061Y-92051623D01*
X134205334Y-92074754D01*
X134222162Y-92084840D01*
X134262961Y-92112100D01*
X134278730Y-92123795D01*
X134316659Y-92154923D01*
X134331200Y-92168103D01*
X134365897Y-92202800D01*
X134379077Y-92217341D01*
X134410205Y-92255270D01*
X134421900Y-92271039D01*
X134449160Y-92311838D01*
X134459246Y-92328666D01*
X134482377Y-92371939D01*
X134490772Y-92389687D01*
X134509549Y-92435020D01*
X134516160Y-92453497D01*
X134530404Y-92500452D01*
X134535174Y-92519495D01*
X134544746Y-92567620D01*
X134547625Y-92587029D01*
X134552435Y-92635860D01*
X134553398Y-92655466D01*
X134553398Y-92673888D01*
X134554000Y-92680000D01*
X134554000Y-93180000D01*
X134550157Y-93219018D01*
X134538776Y-93256537D01*
X134520294Y-93291114D01*
X134495421Y-93321421D01*
X134465114Y-93346294D01*
X134430537Y-93364776D01*
X134393018Y-93376157D01*
X134354000Y-93380000D01*
X132854000Y-93380000D01*
X132814982Y-93376157D01*
X132777463Y-93364776D01*
X132742886Y-93346294D01*
X132712579Y-93321421D01*
X132687706Y-93291114D01*
X132669224Y-93256537D01*
X132657843Y-93219018D01*
X132654000Y-93180000D01*
X132654000Y-92680000D01*
X132654602Y-92673888D01*
X132654602Y-92673888D01*
G37*
D14*
X133604000Y-93980000D03*
D15*
G36*
X132657843Y-93440982D02*
X132669224Y-93403463D01*
X132687706Y-93368886D01*
X132712579Y-93338579D01*
X132742886Y-93313706D01*
X132777463Y-93295224D01*
X132814982Y-93283843D01*
X132854000Y-93280000D01*
X133104000Y-93280000D01*
X133104000Y-93080000D01*
X133107843Y-93040982D01*
X133119224Y-93003463D01*
X133137706Y-92968886D01*
X133162579Y-92938579D01*
X133192886Y-92913706D01*
X133227463Y-92895224D01*
X133264982Y-92883843D01*
X133304000Y-92880000D01*
X133904000Y-92880000D01*
X133943018Y-92883843D01*
X133980537Y-92895224D01*
X134015114Y-92913706D01*
X134045421Y-92938579D01*
X134070294Y-92968886D01*
X134088776Y-93003463D01*
X134100157Y-93040982D01*
X134104000Y-93080000D01*
X134104000Y-93280000D01*
X134354000Y-93280000D01*
X134393018Y-93283843D01*
X134430537Y-93295224D01*
X134465114Y-93313706D01*
X134495421Y-93338579D01*
X134520294Y-93368886D01*
X134538776Y-93403463D01*
X134550157Y-93440982D01*
X134554000Y-93480000D01*
X134554000Y-93980000D01*
X134553398Y-93986112D01*
X134553398Y-94004534D01*
X134552435Y-94024140D01*
X134547625Y-94072971D01*
X134544746Y-94092380D01*
X134535174Y-94140505D01*
X134530404Y-94159548D01*
X134516160Y-94206503D01*
X134509549Y-94224980D01*
X134490772Y-94270313D01*
X134482377Y-94288061D01*
X134459246Y-94331334D01*
X134449160Y-94348162D01*
X134421900Y-94388961D01*
X134410205Y-94404730D01*
X134379077Y-94442659D01*
X134365897Y-94457200D01*
X134331200Y-94491897D01*
X134316659Y-94505077D01*
X134278730Y-94536205D01*
X134262961Y-94547900D01*
X134222162Y-94575160D01*
X134205334Y-94585246D01*
X134162061Y-94608377D01*
X134144313Y-94616772D01*
X134098980Y-94635549D01*
X134080503Y-94642160D01*
X134033548Y-94656404D01*
X134014505Y-94661174D01*
X133966380Y-94670746D01*
X133946971Y-94673625D01*
X133898140Y-94678435D01*
X133878534Y-94679398D01*
X133860112Y-94679398D01*
X133854000Y-94680000D01*
X133354000Y-94680000D01*
X133347888Y-94679398D01*
X133329466Y-94679398D01*
X133309860Y-94678435D01*
X133261029Y-94673625D01*
X133241620Y-94670746D01*
X133193495Y-94661174D01*
X133174452Y-94656404D01*
X133127497Y-94642160D01*
X133109020Y-94635549D01*
X133063687Y-94616772D01*
X133045939Y-94608377D01*
X133002666Y-94585246D01*
X132985838Y-94575160D01*
X132945039Y-94547900D01*
X132929270Y-94536205D01*
X132891341Y-94505077D01*
X132876800Y-94491897D01*
X132842103Y-94457200D01*
X132828923Y-94442659D01*
X132797795Y-94404730D01*
X132786100Y-94388961D01*
X132758840Y-94348162D01*
X132748754Y-94331334D01*
X132725623Y-94288061D01*
X132717228Y-94270313D01*
X132698451Y-94224980D01*
X132691840Y-94206503D01*
X132677596Y-94159548D01*
X132672826Y-94140505D01*
X132663254Y-94092380D01*
X132660375Y-94072971D01*
X132655565Y-94024140D01*
X132654602Y-94004534D01*
X132654602Y-93986112D01*
X132654000Y-93980000D01*
X132654000Y-93480000D01*
X132657843Y-93440982D01*
X132657843Y-93440982D01*
G37*
G04 #@! TD*
D14*
G04 #@! TO.C,JP3*
X137668000Y-92710000D03*
D15*
G36*
X136718602Y-92703888D02*
X136718602Y-92685466D01*
X136719565Y-92665860D01*
X136724375Y-92617029D01*
X136727254Y-92597620D01*
X136736826Y-92549495D01*
X136741596Y-92530452D01*
X136755840Y-92483497D01*
X136762451Y-92465020D01*
X136781228Y-92419687D01*
X136789623Y-92401939D01*
X136812754Y-92358666D01*
X136822840Y-92341838D01*
X136850100Y-92301039D01*
X136861795Y-92285270D01*
X136892923Y-92247341D01*
X136906103Y-92232800D01*
X136940800Y-92198103D01*
X136955341Y-92184923D01*
X136993270Y-92153795D01*
X137009039Y-92142100D01*
X137049838Y-92114840D01*
X137066666Y-92104754D01*
X137109939Y-92081623D01*
X137127687Y-92073228D01*
X137173020Y-92054451D01*
X137191497Y-92047840D01*
X137238452Y-92033596D01*
X137257495Y-92028826D01*
X137305620Y-92019254D01*
X137325029Y-92016375D01*
X137373860Y-92011565D01*
X137393466Y-92010602D01*
X137411888Y-92010602D01*
X137418000Y-92010000D01*
X137918000Y-92010000D01*
X137924112Y-92010602D01*
X137942534Y-92010602D01*
X137962140Y-92011565D01*
X138010971Y-92016375D01*
X138030380Y-92019254D01*
X138078505Y-92028826D01*
X138097548Y-92033596D01*
X138144503Y-92047840D01*
X138162980Y-92054451D01*
X138208313Y-92073228D01*
X138226061Y-92081623D01*
X138269334Y-92104754D01*
X138286162Y-92114840D01*
X138326961Y-92142100D01*
X138342730Y-92153795D01*
X138380659Y-92184923D01*
X138395200Y-92198103D01*
X138429897Y-92232800D01*
X138443077Y-92247341D01*
X138474205Y-92285270D01*
X138485900Y-92301039D01*
X138513160Y-92341838D01*
X138523246Y-92358666D01*
X138546377Y-92401939D01*
X138554772Y-92419687D01*
X138573549Y-92465020D01*
X138580160Y-92483497D01*
X138594404Y-92530452D01*
X138599174Y-92549495D01*
X138608746Y-92597620D01*
X138611625Y-92617029D01*
X138616435Y-92665860D01*
X138617398Y-92685466D01*
X138617398Y-92703888D01*
X138618000Y-92710000D01*
X138618000Y-93210000D01*
X138614157Y-93249018D01*
X138602776Y-93286537D01*
X138584294Y-93321114D01*
X138559421Y-93351421D01*
X138529114Y-93376294D01*
X138494537Y-93394776D01*
X138457018Y-93406157D01*
X138418000Y-93410000D01*
X136918000Y-93410000D01*
X136878982Y-93406157D01*
X136841463Y-93394776D01*
X136806886Y-93376294D01*
X136776579Y-93351421D01*
X136751706Y-93321114D01*
X136733224Y-93286537D01*
X136721843Y-93249018D01*
X136718000Y-93210000D01*
X136718000Y-92710000D01*
X136718602Y-92703888D01*
X136718602Y-92703888D01*
G37*
D14*
X137668000Y-94010000D03*
D15*
G36*
X136721843Y-93470982D02*
X136733224Y-93433463D01*
X136751706Y-93398886D01*
X136776579Y-93368579D01*
X136806886Y-93343706D01*
X136841463Y-93325224D01*
X136878982Y-93313843D01*
X136918000Y-93310000D01*
X137168000Y-93310000D01*
X137168000Y-93110000D01*
X137171843Y-93070982D01*
X137183224Y-93033463D01*
X137201706Y-92998886D01*
X137226579Y-92968579D01*
X137256886Y-92943706D01*
X137291463Y-92925224D01*
X137328982Y-92913843D01*
X137368000Y-92910000D01*
X137968000Y-92910000D01*
X138007018Y-92913843D01*
X138044537Y-92925224D01*
X138079114Y-92943706D01*
X138109421Y-92968579D01*
X138134294Y-92998886D01*
X138152776Y-93033463D01*
X138164157Y-93070982D01*
X138168000Y-93110000D01*
X138168000Y-93310000D01*
X138418000Y-93310000D01*
X138457018Y-93313843D01*
X138494537Y-93325224D01*
X138529114Y-93343706D01*
X138559421Y-93368579D01*
X138584294Y-93398886D01*
X138602776Y-93433463D01*
X138614157Y-93470982D01*
X138618000Y-93510000D01*
X138618000Y-94010000D01*
X138617398Y-94016112D01*
X138617398Y-94034534D01*
X138616435Y-94054140D01*
X138611625Y-94102971D01*
X138608746Y-94122380D01*
X138599174Y-94170505D01*
X138594404Y-94189548D01*
X138580160Y-94236503D01*
X138573549Y-94254980D01*
X138554772Y-94300313D01*
X138546377Y-94318061D01*
X138523246Y-94361334D01*
X138513160Y-94378162D01*
X138485900Y-94418961D01*
X138474205Y-94434730D01*
X138443077Y-94472659D01*
X138429897Y-94487200D01*
X138395200Y-94521897D01*
X138380659Y-94535077D01*
X138342730Y-94566205D01*
X138326961Y-94577900D01*
X138286162Y-94605160D01*
X138269334Y-94615246D01*
X138226061Y-94638377D01*
X138208313Y-94646772D01*
X138162980Y-94665549D01*
X138144503Y-94672160D01*
X138097548Y-94686404D01*
X138078505Y-94691174D01*
X138030380Y-94700746D01*
X138010971Y-94703625D01*
X137962140Y-94708435D01*
X137942534Y-94709398D01*
X137924112Y-94709398D01*
X137918000Y-94710000D01*
X137418000Y-94710000D01*
X137411888Y-94709398D01*
X137393466Y-94709398D01*
X137373860Y-94708435D01*
X137325029Y-94703625D01*
X137305620Y-94700746D01*
X137257495Y-94691174D01*
X137238452Y-94686404D01*
X137191497Y-94672160D01*
X137173020Y-94665549D01*
X137127687Y-94646772D01*
X137109939Y-94638377D01*
X137066666Y-94615246D01*
X137049838Y-94605160D01*
X137009039Y-94577900D01*
X136993270Y-94566205D01*
X136955341Y-94535077D01*
X136940800Y-94521897D01*
X136906103Y-94487200D01*
X136892923Y-94472659D01*
X136861795Y-94434730D01*
X136850100Y-94418961D01*
X136822840Y-94378162D01*
X136812754Y-94361334D01*
X136789623Y-94318061D01*
X136781228Y-94300313D01*
X136762451Y-94254980D01*
X136755840Y-94236503D01*
X136741596Y-94189548D01*
X136736826Y-94170505D01*
X136727254Y-94122380D01*
X136724375Y-94102971D01*
X136719565Y-94054140D01*
X136718602Y-94034534D01*
X136718602Y-94016112D01*
X136718000Y-94010000D01*
X136718000Y-93510000D01*
X136721843Y-93470982D01*
X136721843Y-93470982D01*
G37*
G04 #@! TD*
D14*
G04 #@! TO.C,JP4*
X141478000Y-94122000D03*
D15*
G36*
X140531843Y-93582982D02*
X140543224Y-93545463D01*
X140561706Y-93510886D01*
X140586579Y-93480579D01*
X140616886Y-93455706D01*
X140651463Y-93437224D01*
X140688982Y-93425843D01*
X140728000Y-93422000D01*
X140978000Y-93422000D01*
X140978000Y-93222000D01*
X140981843Y-93182982D01*
X140993224Y-93145463D01*
X141011706Y-93110886D01*
X141036579Y-93080579D01*
X141066886Y-93055706D01*
X141101463Y-93037224D01*
X141138982Y-93025843D01*
X141178000Y-93022000D01*
X141778000Y-93022000D01*
X141817018Y-93025843D01*
X141854537Y-93037224D01*
X141889114Y-93055706D01*
X141919421Y-93080579D01*
X141944294Y-93110886D01*
X141962776Y-93145463D01*
X141974157Y-93182982D01*
X141978000Y-93222000D01*
X141978000Y-93422000D01*
X142228000Y-93422000D01*
X142267018Y-93425843D01*
X142304537Y-93437224D01*
X142339114Y-93455706D01*
X142369421Y-93480579D01*
X142394294Y-93510886D01*
X142412776Y-93545463D01*
X142424157Y-93582982D01*
X142428000Y-93622000D01*
X142428000Y-94122000D01*
X142427398Y-94128112D01*
X142427398Y-94146534D01*
X142426435Y-94166140D01*
X142421625Y-94214971D01*
X142418746Y-94234380D01*
X142409174Y-94282505D01*
X142404404Y-94301548D01*
X142390160Y-94348503D01*
X142383549Y-94366980D01*
X142364772Y-94412313D01*
X142356377Y-94430061D01*
X142333246Y-94473334D01*
X142323160Y-94490162D01*
X142295900Y-94530961D01*
X142284205Y-94546730D01*
X142253077Y-94584659D01*
X142239897Y-94599200D01*
X142205200Y-94633897D01*
X142190659Y-94647077D01*
X142152730Y-94678205D01*
X142136961Y-94689900D01*
X142096162Y-94717160D01*
X142079334Y-94727246D01*
X142036061Y-94750377D01*
X142018313Y-94758772D01*
X141972980Y-94777549D01*
X141954503Y-94784160D01*
X141907548Y-94798404D01*
X141888505Y-94803174D01*
X141840380Y-94812746D01*
X141820971Y-94815625D01*
X141772140Y-94820435D01*
X141752534Y-94821398D01*
X141734112Y-94821398D01*
X141728000Y-94822000D01*
X141228000Y-94822000D01*
X141221888Y-94821398D01*
X141203466Y-94821398D01*
X141183860Y-94820435D01*
X141135029Y-94815625D01*
X141115620Y-94812746D01*
X141067495Y-94803174D01*
X141048452Y-94798404D01*
X141001497Y-94784160D01*
X140983020Y-94777549D01*
X140937687Y-94758772D01*
X140919939Y-94750377D01*
X140876666Y-94727246D01*
X140859838Y-94717160D01*
X140819039Y-94689900D01*
X140803270Y-94678205D01*
X140765341Y-94647077D01*
X140750800Y-94633897D01*
X140716103Y-94599200D01*
X140702923Y-94584659D01*
X140671795Y-94546730D01*
X140660100Y-94530961D01*
X140632840Y-94490162D01*
X140622754Y-94473334D01*
X140599623Y-94430061D01*
X140591228Y-94412313D01*
X140572451Y-94366980D01*
X140565840Y-94348503D01*
X140551596Y-94301548D01*
X140546826Y-94282505D01*
X140537254Y-94234380D01*
X140534375Y-94214971D01*
X140529565Y-94166140D01*
X140528602Y-94146534D01*
X140528602Y-94128112D01*
X140528000Y-94122000D01*
X140528000Y-93622000D01*
X140531843Y-93582982D01*
X140531843Y-93582982D01*
G37*
D14*
X141478000Y-92822000D03*
D15*
G36*
X140528602Y-92815888D02*
X140528602Y-92797466D01*
X140529565Y-92777860D01*
X140534375Y-92729029D01*
X140537254Y-92709620D01*
X140546826Y-92661495D01*
X140551596Y-92642452D01*
X140565840Y-92595497D01*
X140572451Y-92577020D01*
X140591228Y-92531687D01*
X140599623Y-92513939D01*
X140622754Y-92470666D01*
X140632840Y-92453838D01*
X140660100Y-92413039D01*
X140671795Y-92397270D01*
X140702923Y-92359341D01*
X140716103Y-92344800D01*
X140750800Y-92310103D01*
X140765341Y-92296923D01*
X140803270Y-92265795D01*
X140819039Y-92254100D01*
X140859838Y-92226840D01*
X140876666Y-92216754D01*
X140919939Y-92193623D01*
X140937687Y-92185228D01*
X140983020Y-92166451D01*
X141001497Y-92159840D01*
X141048452Y-92145596D01*
X141067495Y-92140826D01*
X141115620Y-92131254D01*
X141135029Y-92128375D01*
X141183860Y-92123565D01*
X141203466Y-92122602D01*
X141221888Y-92122602D01*
X141228000Y-92122000D01*
X141728000Y-92122000D01*
X141734112Y-92122602D01*
X141752534Y-92122602D01*
X141772140Y-92123565D01*
X141820971Y-92128375D01*
X141840380Y-92131254D01*
X141888505Y-92140826D01*
X141907548Y-92145596D01*
X141954503Y-92159840D01*
X141972980Y-92166451D01*
X142018313Y-92185228D01*
X142036061Y-92193623D01*
X142079334Y-92216754D01*
X142096162Y-92226840D01*
X142136961Y-92254100D01*
X142152730Y-92265795D01*
X142190659Y-92296923D01*
X142205200Y-92310103D01*
X142239897Y-92344800D01*
X142253077Y-92359341D01*
X142284205Y-92397270D01*
X142295900Y-92413039D01*
X142323160Y-92453838D01*
X142333246Y-92470666D01*
X142356377Y-92513939D01*
X142364772Y-92531687D01*
X142383549Y-92577020D01*
X142390160Y-92595497D01*
X142404404Y-92642452D01*
X142409174Y-92661495D01*
X142418746Y-92709620D01*
X142421625Y-92729029D01*
X142426435Y-92777860D01*
X142427398Y-92797466D01*
X142427398Y-92815888D01*
X142428000Y-92822000D01*
X142428000Y-93322000D01*
X142424157Y-93361018D01*
X142412776Y-93398537D01*
X142394294Y-93433114D01*
X142369421Y-93463421D01*
X142339114Y-93488294D01*
X142304537Y-93506776D01*
X142267018Y-93518157D01*
X142228000Y-93522000D01*
X140728000Y-93522000D01*
X140688982Y-93518157D01*
X140651463Y-93506776D01*
X140616886Y-93488294D01*
X140586579Y-93463421D01*
X140561706Y-93433114D01*
X140543224Y-93398537D01*
X140531843Y-93361018D01*
X140528000Y-93322000D01*
X140528000Y-92822000D01*
X140528602Y-92815888D01*
X140528602Y-92815888D01*
G37*
G04 #@! TD*
M02*
