G04 #@! TF.GenerationSoftware,KiCad,Pcbnew,(5.0.0)*
G04 #@! TF.CreationDate,2019-01-08T20:03:17-05:00*
G04 #@! TF.ProjectId,Headphone Breakout,4865616470686F6E6520427265616B6F,rev?*
G04 #@! TF.SameCoordinates,Original*
G04 #@! TF.FileFunction,Copper,L1,Top,Signal*
G04 #@! TF.FilePolarity,Positive*
%FSLAX46Y46*%
G04 Gerber Fmt 4.6, Leading zero omitted, Abs format (unit mm)*
G04 Created by KiCad (PCBNEW (5.0.0)) date 01/08/19 20:03:17*
%MOMM*%
%LPD*%
G01*
G04 APERTURE LIST*
G04 #@! TA.AperFunction,SMDPad,CuDef*
%ADD10R,1.700000X0.600000*%
G04 #@! TD*
G04 #@! TA.AperFunction,SMDPad,CuDef*
%ADD11R,2.800000X1.000000*%
G04 #@! TD*
G04 #@! TA.AperFunction,SMDPad,CuDef*
%ADD12R,1.200000X2.500000*%
G04 #@! TD*
G04 #@! TA.AperFunction,SMDPad,CuDef*
%ADD13C,0.500000*%
G04 #@! TD*
G04 #@! TA.AperFunction,Conductor*
%ADD14C,0.100000*%
G04 #@! TD*
G04 #@! TA.AperFunction,ViaPad*
%ADD15C,0.800000*%
G04 #@! TD*
G04 #@! TA.AperFunction,Conductor*
%ADD16C,0.500000*%
G04 #@! TD*
G04 APERTURE END LIST*
D10*
G04 #@! TO.P,J1,1*
G04 #@! TO.N,DGND*
X123870000Y-100915000D03*
G04 #@! TO.P,J1,2*
G04 #@! TO.N,AGND*
X123870000Y-99665000D03*
G04 #@! TO.P,J1,3*
G04 #@! TO.N,HP0*
X123870000Y-98415000D03*
G04 #@! TO.P,J1,4*
G04 #@! TO.N,HP1*
X123870000Y-97165000D03*
G04 #@! TO.P,J1,5*
G04 #@! TO.N,3V3*
X123870000Y-95915000D03*
G04 #@! TO.P,J1,6*
G04 #@! TO.N,5V*
X123870000Y-94665000D03*
D11*
G04 #@! TO.P,J1,MP*
G04 #@! TO.N,N/C*
X120520000Y-102765000D03*
X120520000Y-92815000D03*
G04 #@! TD*
D10*
G04 #@! TO.P,J2,1*
G04 #@! TO.N,DGND*
X123870000Y-88215000D03*
G04 #@! TO.P,J2,2*
G04 #@! TO.N,AGND*
X123870000Y-86965000D03*
G04 #@! TO.P,J2,3*
G04 #@! TO.N,MIC_0*
X123870000Y-85715000D03*
G04 #@! TO.P,J2,4*
G04 #@! TO.N,MIC_1*
X123870000Y-84465000D03*
G04 #@! TO.P,J2,5*
G04 #@! TO.N,3V3*
X123870000Y-83215000D03*
G04 #@! TO.P,J2,6*
G04 #@! TO.N,5V*
X123870000Y-81965000D03*
D11*
G04 #@! TO.P,J2,MP*
G04 #@! TO.N,N/C*
X120520000Y-90065000D03*
X120520000Y-80115000D03*
G04 #@! TD*
D12*
G04 #@! TO.P,J3,4*
G04 #@! TO.N,Net-(J3-Pad4)*
X129441000Y-81078000D03*
G04 #@! TO.P,J3,1*
G04 #@! TO.N,Net-(J3-Pad1)*
X130541000Y-87578000D03*
G04 #@! TO.P,J3,2*
G04 #@! TO.N,Net-(J3-Pad2)*
X134541000Y-87578000D03*
G04 #@! TO.P,J3,3*
G04 #@! TO.N,Net-(J3-Pad3)*
X137541000Y-87578000D03*
G04 #@! TD*
D13*
G04 #@! TO.P,JP1,1*
G04 #@! TO.N,AGND*
X129616200Y-94035400D03*
D14*
G04 #@! TD*
G04 #@! TO.N,AGND*
G04 #@! TO.C,JP1*
G36*
X129316200Y-93535400D02*
X129316200Y-93135400D01*
X129916200Y-93135400D01*
X129916200Y-93535400D01*
X130366200Y-93535400D01*
X130366200Y-94035400D01*
X130365598Y-94035400D01*
X130365598Y-94059934D01*
X130360788Y-94108765D01*
X130351216Y-94156890D01*
X130336972Y-94203845D01*
X130318195Y-94249178D01*
X130295064Y-94292451D01*
X130267804Y-94333250D01*
X130236676Y-94371179D01*
X130201979Y-94405876D01*
X130164050Y-94437004D01*
X130123251Y-94464264D01*
X130079978Y-94487395D01*
X130034645Y-94506172D01*
X129987690Y-94520416D01*
X129939565Y-94529988D01*
X129890734Y-94534798D01*
X129866200Y-94534798D01*
X129866200Y-94535400D01*
X129366200Y-94535400D01*
X129366200Y-94534798D01*
X129341666Y-94534798D01*
X129292835Y-94529988D01*
X129244710Y-94520416D01*
X129197755Y-94506172D01*
X129152422Y-94487395D01*
X129109149Y-94464264D01*
X129068350Y-94437004D01*
X129030421Y-94405876D01*
X128995724Y-94371179D01*
X128964596Y-94333250D01*
X128937336Y-94292451D01*
X128914205Y-94249178D01*
X128895428Y-94203845D01*
X128881184Y-94156890D01*
X128871612Y-94108765D01*
X128866802Y-94059934D01*
X128866802Y-94035400D01*
X128866200Y-94035400D01*
X128866200Y-93535400D01*
X129316200Y-93535400D01*
X129316200Y-93535400D01*
G37*
D13*
G04 #@! TO.P,JP1,2*
G04 #@! TO.N,Net-(J3-Pad4)*
X129616200Y-92735400D03*
D14*
G04 #@! TD*
G04 #@! TO.N,Net-(J3-Pad4)*
G04 #@! TO.C,JP1*
G36*
X128866802Y-92735400D02*
X128866802Y-92710866D01*
X128871612Y-92662035D01*
X128881184Y-92613910D01*
X128895428Y-92566955D01*
X128914205Y-92521622D01*
X128937336Y-92478349D01*
X128964596Y-92437550D01*
X128995724Y-92399621D01*
X129030421Y-92364924D01*
X129068350Y-92333796D01*
X129109149Y-92306536D01*
X129152422Y-92283405D01*
X129197755Y-92264628D01*
X129244710Y-92250384D01*
X129292835Y-92240812D01*
X129341666Y-92236002D01*
X129366200Y-92236002D01*
X129366200Y-92235400D01*
X129866200Y-92235400D01*
X129866200Y-92236002D01*
X129890734Y-92236002D01*
X129939565Y-92240812D01*
X129987690Y-92250384D01*
X130034645Y-92264628D01*
X130079978Y-92283405D01*
X130123251Y-92306536D01*
X130164050Y-92333796D01*
X130201979Y-92364924D01*
X130236676Y-92399621D01*
X130267804Y-92437550D01*
X130295064Y-92478349D01*
X130318195Y-92521622D01*
X130336972Y-92566955D01*
X130351216Y-92613910D01*
X130360788Y-92662035D01*
X130365598Y-92710866D01*
X130365598Y-92735400D01*
X130366200Y-92735400D01*
X130366200Y-93235400D01*
X128866200Y-93235400D01*
X128866200Y-92735400D01*
X128866802Y-92735400D01*
X128866802Y-92735400D01*
G37*
D13*
G04 #@! TO.P,JP2,2*
G04 #@! TO.N,Net-(J3-Pad3)*
X133604000Y-92680000D03*
D14*
G04 #@! TD*
G04 #@! TO.N,Net-(J3-Pad3)*
G04 #@! TO.C,JP2*
G36*
X132854602Y-92680000D02*
X132854602Y-92655466D01*
X132859412Y-92606635D01*
X132868984Y-92558510D01*
X132883228Y-92511555D01*
X132902005Y-92466222D01*
X132925136Y-92422949D01*
X132952396Y-92382150D01*
X132983524Y-92344221D01*
X133018221Y-92309524D01*
X133056150Y-92278396D01*
X133096949Y-92251136D01*
X133140222Y-92228005D01*
X133185555Y-92209228D01*
X133232510Y-92194984D01*
X133280635Y-92185412D01*
X133329466Y-92180602D01*
X133354000Y-92180602D01*
X133354000Y-92180000D01*
X133854000Y-92180000D01*
X133854000Y-92180602D01*
X133878534Y-92180602D01*
X133927365Y-92185412D01*
X133975490Y-92194984D01*
X134022445Y-92209228D01*
X134067778Y-92228005D01*
X134111051Y-92251136D01*
X134151850Y-92278396D01*
X134189779Y-92309524D01*
X134224476Y-92344221D01*
X134255604Y-92382150D01*
X134282864Y-92422949D01*
X134305995Y-92466222D01*
X134324772Y-92511555D01*
X134339016Y-92558510D01*
X134348588Y-92606635D01*
X134353398Y-92655466D01*
X134353398Y-92680000D01*
X134354000Y-92680000D01*
X134354000Y-93180000D01*
X132854000Y-93180000D01*
X132854000Y-92680000D01*
X132854602Y-92680000D01*
X132854602Y-92680000D01*
G37*
D13*
G04 #@! TO.P,JP2,1*
G04 #@! TO.N,MIC_0*
X133604000Y-93980000D03*
D14*
G04 #@! TD*
G04 #@! TO.N,MIC_0*
G04 #@! TO.C,JP2*
G36*
X133304000Y-93480000D02*
X133304000Y-93080000D01*
X133904000Y-93080000D01*
X133904000Y-93480000D01*
X134354000Y-93480000D01*
X134354000Y-93980000D01*
X134353398Y-93980000D01*
X134353398Y-94004534D01*
X134348588Y-94053365D01*
X134339016Y-94101490D01*
X134324772Y-94148445D01*
X134305995Y-94193778D01*
X134282864Y-94237051D01*
X134255604Y-94277850D01*
X134224476Y-94315779D01*
X134189779Y-94350476D01*
X134151850Y-94381604D01*
X134111051Y-94408864D01*
X134067778Y-94431995D01*
X134022445Y-94450772D01*
X133975490Y-94465016D01*
X133927365Y-94474588D01*
X133878534Y-94479398D01*
X133854000Y-94479398D01*
X133854000Y-94480000D01*
X133354000Y-94480000D01*
X133354000Y-94479398D01*
X133329466Y-94479398D01*
X133280635Y-94474588D01*
X133232510Y-94465016D01*
X133185555Y-94450772D01*
X133140222Y-94431995D01*
X133096949Y-94408864D01*
X133056150Y-94381604D01*
X133018221Y-94350476D01*
X132983524Y-94315779D01*
X132952396Y-94277850D01*
X132925136Y-94237051D01*
X132902005Y-94193778D01*
X132883228Y-94148445D01*
X132868984Y-94101490D01*
X132859412Y-94053365D01*
X132854602Y-94004534D01*
X132854602Y-93980000D01*
X132854000Y-93980000D01*
X132854000Y-93480000D01*
X133304000Y-93480000D01*
X133304000Y-93480000D01*
G37*
D13*
G04 #@! TO.P,JP3,2*
G04 #@! TO.N,Net-(J3-Pad2)*
X137668000Y-92710000D03*
D14*
G04 #@! TD*
G04 #@! TO.N,Net-(J3-Pad2)*
G04 #@! TO.C,JP3*
G36*
X136918602Y-92710000D02*
X136918602Y-92685466D01*
X136923412Y-92636635D01*
X136932984Y-92588510D01*
X136947228Y-92541555D01*
X136966005Y-92496222D01*
X136989136Y-92452949D01*
X137016396Y-92412150D01*
X137047524Y-92374221D01*
X137082221Y-92339524D01*
X137120150Y-92308396D01*
X137160949Y-92281136D01*
X137204222Y-92258005D01*
X137249555Y-92239228D01*
X137296510Y-92224984D01*
X137344635Y-92215412D01*
X137393466Y-92210602D01*
X137418000Y-92210602D01*
X137418000Y-92210000D01*
X137918000Y-92210000D01*
X137918000Y-92210602D01*
X137942534Y-92210602D01*
X137991365Y-92215412D01*
X138039490Y-92224984D01*
X138086445Y-92239228D01*
X138131778Y-92258005D01*
X138175051Y-92281136D01*
X138215850Y-92308396D01*
X138253779Y-92339524D01*
X138288476Y-92374221D01*
X138319604Y-92412150D01*
X138346864Y-92452949D01*
X138369995Y-92496222D01*
X138388772Y-92541555D01*
X138403016Y-92588510D01*
X138412588Y-92636635D01*
X138417398Y-92685466D01*
X138417398Y-92710000D01*
X138418000Y-92710000D01*
X138418000Y-93210000D01*
X136918000Y-93210000D01*
X136918000Y-92710000D01*
X136918602Y-92710000D01*
X136918602Y-92710000D01*
G37*
D13*
G04 #@! TO.P,JP3,1*
G04 #@! TO.N,HP1*
X137668000Y-94010000D03*
D14*
G04 #@! TD*
G04 #@! TO.N,HP1*
G04 #@! TO.C,JP3*
G36*
X137368000Y-93510000D02*
X137368000Y-93110000D01*
X137968000Y-93110000D01*
X137968000Y-93510000D01*
X138418000Y-93510000D01*
X138418000Y-94010000D01*
X138417398Y-94010000D01*
X138417398Y-94034534D01*
X138412588Y-94083365D01*
X138403016Y-94131490D01*
X138388772Y-94178445D01*
X138369995Y-94223778D01*
X138346864Y-94267051D01*
X138319604Y-94307850D01*
X138288476Y-94345779D01*
X138253779Y-94380476D01*
X138215850Y-94411604D01*
X138175051Y-94438864D01*
X138131778Y-94461995D01*
X138086445Y-94480772D01*
X138039490Y-94495016D01*
X137991365Y-94504588D01*
X137942534Y-94509398D01*
X137918000Y-94509398D01*
X137918000Y-94510000D01*
X137418000Y-94510000D01*
X137418000Y-94509398D01*
X137393466Y-94509398D01*
X137344635Y-94504588D01*
X137296510Y-94495016D01*
X137249555Y-94480772D01*
X137204222Y-94461995D01*
X137160949Y-94438864D01*
X137120150Y-94411604D01*
X137082221Y-94380476D01*
X137047524Y-94345779D01*
X137016396Y-94307850D01*
X136989136Y-94267051D01*
X136966005Y-94223778D01*
X136947228Y-94178445D01*
X136932984Y-94131490D01*
X136923412Y-94083365D01*
X136918602Y-94034534D01*
X136918602Y-94010000D01*
X136918000Y-94010000D01*
X136918000Y-93510000D01*
X137368000Y-93510000D01*
X137368000Y-93510000D01*
G37*
D13*
G04 #@! TO.P,JP4,1*
G04 #@! TO.N,HP0*
X141478000Y-94122000D03*
D14*
G04 #@! TD*
G04 #@! TO.N,HP0*
G04 #@! TO.C,JP4*
G36*
X141178000Y-93622000D02*
X141178000Y-93222000D01*
X141778000Y-93222000D01*
X141778000Y-93622000D01*
X142228000Y-93622000D01*
X142228000Y-94122000D01*
X142227398Y-94122000D01*
X142227398Y-94146534D01*
X142222588Y-94195365D01*
X142213016Y-94243490D01*
X142198772Y-94290445D01*
X142179995Y-94335778D01*
X142156864Y-94379051D01*
X142129604Y-94419850D01*
X142098476Y-94457779D01*
X142063779Y-94492476D01*
X142025850Y-94523604D01*
X141985051Y-94550864D01*
X141941778Y-94573995D01*
X141896445Y-94592772D01*
X141849490Y-94607016D01*
X141801365Y-94616588D01*
X141752534Y-94621398D01*
X141728000Y-94621398D01*
X141728000Y-94622000D01*
X141228000Y-94622000D01*
X141228000Y-94621398D01*
X141203466Y-94621398D01*
X141154635Y-94616588D01*
X141106510Y-94607016D01*
X141059555Y-94592772D01*
X141014222Y-94573995D01*
X140970949Y-94550864D01*
X140930150Y-94523604D01*
X140892221Y-94492476D01*
X140857524Y-94457779D01*
X140826396Y-94419850D01*
X140799136Y-94379051D01*
X140776005Y-94335778D01*
X140757228Y-94290445D01*
X140742984Y-94243490D01*
X140733412Y-94195365D01*
X140728602Y-94146534D01*
X140728602Y-94122000D01*
X140728000Y-94122000D01*
X140728000Y-93622000D01*
X141178000Y-93622000D01*
X141178000Y-93622000D01*
G37*
D13*
G04 #@! TO.P,JP4,2*
G04 #@! TO.N,Net-(J3-Pad1)*
X141478000Y-92822000D03*
D14*
G04 #@! TD*
G04 #@! TO.N,Net-(J3-Pad1)*
G04 #@! TO.C,JP4*
G36*
X140728602Y-92822000D02*
X140728602Y-92797466D01*
X140733412Y-92748635D01*
X140742984Y-92700510D01*
X140757228Y-92653555D01*
X140776005Y-92608222D01*
X140799136Y-92564949D01*
X140826396Y-92524150D01*
X140857524Y-92486221D01*
X140892221Y-92451524D01*
X140930150Y-92420396D01*
X140970949Y-92393136D01*
X141014222Y-92370005D01*
X141059555Y-92351228D01*
X141106510Y-92336984D01*
X141154635Y-92327412D01*
X141203466Y-92322602D01*
X141228000Y-92322602D01*
X141228000Y-92322000D01*
X141728000Y-92322000D01*
X141728000Y-92322602D01*
X141752534Y-92322602D01*
X141801365Y-92327412D01*
X141849490Y-92336984D01*
X141896445Y-92351228D01*
X141941778Y-92370005D01*
X141985051Y-92393136D01*
X142025850Y-92420396D01*
X142063779Y-92451524D01*
X142098476Y-92486221D01*
X142129604Y-92524150D01*
X142156864Y-92564949D01*
X142179995Y-92608222D01*
X142198772Y-92653555D01*
X142213016Y-92700510D01*
X142222588Y-92748635D01*
X142227398Y-92797466D01*
X142227398Y-92822000D01*
X142228000Y-92822000D01*
X142228000Y-93322000D01*
X140728000Y-93322000D01*
X140728000Y-92822000D01*
X140728602Y-92822000D01*
X140728602Y-92822000D01*
G37*
D15*
G04 #@! TO.N,AGND*
X127635000Y-93980000D03*
X121793000Y-99695000D03*
X121539000Y-86995000D03*
G04 #@! TD*
D16*
G04 #@! TO.N,AGND*
X129616200Y-94035400D02*
X127690400Y-94035400D01*
X127690400Y-94035400D02*
X127635000Y-93980000D01*
X123870000Y-99665000D02*
X121823000Y-99665000D01*
X121823000Y-99665000D02*
X121793000Y-99695000D01*
X123870000Y-86965000D02*
X121569000Y-86965000D01*
X121569000Y-86965000D02*
X121539000Y-86995000D01*
G04 #@! TO.N,HP0*
X141478000Y-96901000D02*
X141478000Y-94122000D01*
X139954000Y-98425000D02*
X141478000Y-96901000D01*
X125230000Y-98425000D02*
X139954000Y-98425000D01*
X123870000Y-98415000D02*
X125220000Y-98415000D01*
X125220000Y-98415000D02*
X125230000Y-98425000D01*
G04 #@! TO.N,HP1*
X125220000Y-97165000D02*
X125230000Y-97155000D01*
X123870000Y-97165000D02*
X125220000Y-97165000D01*
X125230000Y-97155000D02*
X136525000Y-97155000D01*
X137668000Y-96012000D02*
X136525000Y-97155000D01*
X137668000Y-94010000D02*
X137668000Y-96012000D01*
G04 #@! TO.N,MIC_0*
X133604000Y-93980000D02*
X133604000Y-95504000D01*
X133604000Y-95504000D02*
X132969000Y-96139000D01*
X132969000Y-96139000D02*
X127000000Y-96139000D01*
X127000000Y-96139000D02*
X125857000Y-94996000D01*
X124420000Y-85715000D02*
X123870000Y-85715000D01*
X125857000Y-94996000D02*
X125857000Y-87152000D01*
X125857000Y-87152000D02*
X124420000Y-85715000D01*
G04 #@! TO.N,Net-(J3-Pad4)*
X128341000Y-81078000D02*
X127889000Y-81530000D01*
X129441000Y-81078000D02*
X128341000Y-81078000D01*
X127889000Y-91008200D02*
X129566190Y-92685390D01*
X127889000Y-81530000D02*
X127889000Y-91008200D01*
G04 #@! TO.N,Net-(J3-Pad1)*
X130541000Y-87578000D02*
X130541000Y-83454000D01*
X130541000Y-83454000D02*
X131699000Y-82296000D01*
X131699000Y-82296000D02*
X140716000Y-82296000D01*
X141478000Y-83058000D02*
X141478000Y-92771990D01*
X140716000Y-82296000D02*
X141478000Y-83058000D01*
G04 #@! TO.N,Net-(J3-Pad2)*
X137668000Y-92455000D02*
X137668000Y-92659990D01*
X134541000Y-89328000D02*
X137668000Y-92455000D01*
X134541000Y-87578000D02*
X134541000Y-89328000D01*
G04 #@! TO.N,Net-(J3-Pad3)*
X137541000Y-85828000D02*
X136930000Y-85217000D01*
X137541000Y-87578000D02*
X137541000Y-85828000D01*
X136930000Y-85217000D02*
X133985000Y-85217000D01*
X133985000Y-85217000D02*
X132842000Y-86360000D01*
X132842000Y-91918000D02*
X133553990Y-92629990D01*
X132842000Y-86360000D02*
X132842000Y-91918000D01*
G04 #@! TD*
M02*
