G04 #@! TF.GenerationSoftware,KiCad,Pcbnew,(5.0.0)*
G04 #@! TF.CreationDate,2019-01-08T20:03:17-05:00*
G04 #@! TF.ProjectId,Headphone Breakout,4865616470686F6E6520427265616B6F,rev?*
G04 #@! TF.SameCoordinates,Original*
G04 #@! TF.FileFunction,Legend,Top*
G04 #@! TF.FilePolarity,Positive*
%FSLAX46Y46*%
G04 Gerber Fmt 4.6, Leading zero omitted, Abs format (unit mm)*
G04 Created by KiCad (PCBNEW (5.0.0)) date 01/08/19 20:03:17*
%MOMM*%
%LPD*%
G01*
G04 APERTURE LIST*
%ADD10C,0.300000*%
%ADD11C,0.120000*%
%ADD12C,0.010000*%
%ADD13C,0.150000*%
G04 APERTURE END LIST*
D10*
X125773571Y-104429571D02*
X124273571Y-104429571D01*
X124987857Y-104429571D02*
X124987857Y-103572428D01*
X125773571Y-103572428D02*
X124273571Y-103572428D01*
X125773571Y-102858142D02*
X124273571Y-102858142D01*
X124273571Y-102286714D01*
X124345000Y-102143857D01*
X124416428Y-102072428D01*
X124559285Y-102001000D01*
X124773571Y-102001000D01*
X124916428Y-102072428D01*
X124987857Y-102143857D01*
X125059285Y-102286714D01*
X125059285Y-102858142D01*
X126662571Y-81744142D02*
X125162571Y-81744142D01*
X126234000Y-81244142D01*
X125162571Y-80744142D01*
X126662571Y-80744142D01*
X126662571Y-80029857D02*
X125162571Y-80029857D01*
X126519714Y-78458428D02*
X126591142Y-78529857D01*
X126662571Y-78744142D01*
X126662571Y-78887000D01*
X126591142Y-79101285D01*
X126448285Y-79244142D01*
X126305428Y-79315571D01*
X126019714Y-79387000D01*
X125805428Y-79387000D01*
X125519714Y-79315571D01*
X125376857Y-79244142D01*
X125234000Y-79101285D01*
X125162571Y-78887000D01*
X125162571Y-78744142D01*
X125234000Y-78529857D01*
X125305428Y-78458428D01*
X142283571Y-99301857D02*
X140783571Y-99301857D01*
X141497857Y-99301857D02*
X141497857Y-98444714D01*
X142283571Y-98444714D02*
X140783571Y-98444714D01*
X142283571Y-97730428D02*
X140783571Y-97730428D01*
X140783571Y-97159000D01*
X140855000Y-97016142D01*
X140926428Y-96944714D01*
X141069285Y-96873285D01*
X141283571Y-96873285D01*
X141426428Y-96944714D01*
X141497857Y-97016142D01*
X141569285Y-97159000D01*
X141569285Y-97730428D01*
X140783571Y-95944714D02*
X140783571Y-95801857D01*
X140855000Y-95659000D01*
X140926428Y-95587571D01*
X141069285Y-95516142D01*
X141355000Y-95444714D01*
X141712142Y-95444714D01*
X141997857Y-95516142D01*
X142140714Y-95587571D01*
X142212142Y-95659000D01*
X142283571Y-95801857D01*
X142283571Y-95944714D01*
X142212142Y-96087571D01*
X142140714Y-96159000D01*
X141997857Y-96230428D01*
X141712142Y-96301857D01*
X141355000Y-96301857D01*
X141069285Y-96230428D01*
X140926428Y-96159000D01*
X140855000Y-96087571D01*
X140783571Y-95944714D01*
X138346571Y-99301857D02*
X136846571Y-99301857D01*
X137560857Y-99301857D02*
X137560857Y-98444714D01*
X138346571Y-98444714D02*
X136846571Y-98444714D01*
X138346571Y-97730428D02*
X136846571Y-97730428D01*
X136846571Y-97159000D01*
X136918000Y-97016142D01*
X136989428Y-96944714D01*
X137132285Y-96873285D01*
X137346571Y-96873285D01*
X137489428Y-96944714D01*
X137560857Y-97016142D01*
X137632285Y-97159000D01*
X137632285Y-97730428D01*
X138346571Y-95444714D02*
X138346571Y-96301857D01*
X138346571Y-95873285D02*
X136846571Y-95873285D01*
X137060857Y-96016142D01*
X137203714Y-96159000D01*
X137275142Y-96301857D01*
X134282571Y-98762142D02*
X132782571Y-98762142D01*
X133854000Y-98262142D01*
X132782571Y-97762142D01*
X134282571Y-97762142D01*
X134282571Y-97047857D02*
X132782571Y-97047857D01*
X134139714Y-95476428D02*
X134211142Y-95547857D01*
X134282571Y-95762142D01*
X134282571Y-95905000D01*
X134211142Y-96119285D01*
X134068285Y-96262142D01*
X133925428Y-96333571D01*
X133639714Y-96405000D01*
X133425428Y-96405000D01*
X133139714Y-96333571D01*
X132996857Y-96262142D01*
X132854000Y-96119285D01*
X132782571Y-95905000D01*
X132782571Y-95762142D01*
X132854000Y-95547857D01*
X132925428Y-95476428D01*
X129917000Y-100559857D02*
X129917000Y-99845571D01*
X130345571Y-100702714D02*
X128845571Y-100202714D01*
X130345571Y-99702714D01*
X128917000Y-98417000D02*
X128845571Y-98559857D01*
X128845571Y-98774142D01*
X128917000Y-98988428D01*
X129059857Y-99131285D01*
X129202714Y-99202714D01*
X129488428Y-99274142D01*
X129702714Y-99274142D01*
X129988428Y-99202714D01*
X130131285Y-99131285D01*
X130274142Y-98988428D01*
X130345571Y-98774142D01*
X130345571Y-98631285D01*
X130274142Y-98417000D01*
X130202714Y-98345571D01*
X129702714Y-98345571D01*
X129702714Y-98631285D01*
X130345571Y-97702714D02*
X128845571Y-97702714D01*
X130345571Y-96845571D01*
X128845571Y-96845571D01*
X130345571Y-96131285D02*
X128845571Y-96131285D01*
X128845571Y-95774142D01*
X128917000Y-95559857D01*
X129059857Y-95417000D01*
X129202714Y-95345571D01*
X129488428Y-95274142D01*
X129702714Y-95274142D01*
X129988428Y-95345571D01*
X130131285Y-95417000D01*
X130274142Y-95559857D01*
X130345571Y-95774142D01*
X130345571Y-96131285D01*
D11*
G04 #@! TO.C,J1*
X122180000Y-103275000D02*
X123780000Y-103275000D01*
X123780000Y-103275000D02*
X123780000Y-101475000D01*
X123780000Y-101475000D02*
X124720000Y-101475000D01*
X122180000Y-92305000D02*
X123780000Y-92305000D01*
X123780000Y-92305000D02*
X123780000Y-94105000D01*
X119310000Y-102005000D02*
X119310000Y-93575000D01*
G04 #@! TO.C,J2*
X122180000Y-90575000D02*
X123780000Y-90575000D01*
X123780000Y-90575000D02*
X123780000Y-88775000D01*
X123780000Y-88775000D02*
X124720000Y-88775000D01*
X122180000Y-79605000D02*
X123780000Y-79605000D01*
X123780000Y-79605000D02*
X123780000Y-81405000D01*
X119310000Y-89305000D02*
X119310000Y-80875000D01*
G04 #@! TO.C,J3*
X131316000Y-87428000D02*
X131316000Y-88828000D01*
X129766000Y-87428000D02*
X129766000Y-88828000D01*
X130216000Y-81228000D02*
X140741000Y-81228000D01*
X129766000Y-87428000D02*
X128641000Y-87428000D01*
X133716000Y-87428000D02*
X131316000Y-87428000D01*
X136716000Y-87428000D02*
X135366000Y-87428000D01*
X140741000Y-87428000D02*
X138366000Y-87428000D01*
X128641000Y-81228000D02*
X128641000Y-87428000D01*
X140741000Y-87428000D02*
X140741000Y-86828000D01*
X140741000Y-81828000D02*
X140741000Y-81228000D01*
X142741000Y-86828000D02*
X142741000Y-81828000D01*
X140741000Y-86828000D02*
X142741000Y-86828000D01*
X140741000Y-81828000D02*
X142741000Y-81828000D01*
G04 #@! TO.C,JP1*
X128616200Y-92685400D02*
G75*
G02X129316200Y-91985400I700000J0D01*
G01*
X129916200Y-91985400D02*
G75*
G02X130616200Y-92685400I0J-700000D01*
G01*
X130616200Y-94085400D02*
G75*
G02X129916200Y-94785400I-700000J0D01*
G01*
X129316200Y-94785400D02*
G75*
G02X128616200Y-94085400I0J700000D01*
G01*
X129916200Y-94785400D02*
X129316200Y-94785400D01*
X130616200Y-92685400D02*
X130616200Y-94085400D01*
X129316200Y-91985400D02*
X129916200Y-91985400D01*
X128616200Y-94085400D02*
X128616200Y-92685400D01*
G04 #@! TO.C,JP2*
X132604000Y-94030000D02*
X132604000Y-92630000D01*
X133304000Y-91930000D02*
X133904000Y-91930000D01*
X134604000Y-92630000D02*
X134604000Y-94030000D01*
X133904000Y-94730000D02*
X133304000Y-94730000D01*
X133304000Y-94730000D02*
G75*
G02X132604000Y-94030000I0J700000D01*
G01*
X134604000Y-94030000D02*
G75*
G02X133904000Y-94730000I-700000J0D01*
G01*
X133904000Y-91930000D02*
G75*
G02X134604000Y-92630000I0J-700000D01*
G01*
X132604000Y-92630000D02*
G75*
G02X133304000Y-91930000I700000J0D01*
G01*
G04 #@! TO.C,JP3*
X136668000Y-94060000D02*
X136668000Y-92660000D01*
X137368000Y-91960000D02*
X137968000Y-91960000D01*
X138668000Y-92660000D02*
X138668000Y-94060000D01*
X137968000Y-94760000D02*
X137368000Y-94760000D01*
X137368000Y-94760000D02*
G75*
G02X136668000Y-94060000I0J700000D01*
G01*
X138668000Y-94060000D02*
G75*
G02X137968000Y-94760000I-700000J0D01*
G01*
X137968000Y-91960000D02*
G75*
G02X138668000Y-92660000I0J-700000D01*
G01*
X136668000Y-92660000D02*
G75*
G02X137368000Y-91960000I700000J0D01*
G01*
G04 #@! TO.C,JP4*
X140478000Y-92772000D02*
G75*
G02X141178000Y-92072000I700000J0D01*
G01*
X141778000Y-92072000D02*
G75*
G02X142478000Y-92772000I0J-700000D01*
G01*
X142478000Y-94172000D02*
G75*
G02X141778000Y-94872000I-700000J0D01*
G01*
X141178000Y-94872000D02*
G75*
G02X140478000Y-94172000I0J700000D01*
G01*
X141778000Y-94872000D02*
X141178000Y-94872000D01*
X142478000Y-92772000D02*
X142478000Y-94172000D01*
X141178000Y-92072000D02*
X141778000Y-92072000D01*
X140478000Y-94172000D02*
X140478000Y-92772000D01*
D12*
G04 #@! TO.C,G\002A\002A\002A*
G36*
X135650986Y-103288782D02*
X135654710Y-103289922D01*
X135663449Y-103292691D01*
X135676904Y-103296993D01*
X135694775Y-103302731D01*
X135716765Y-103309807D01*
X135742572Y-103318125D01*
X135771899Y-103327588D01*
X135804447Y-103338099D01*
X135839916Y-103349560D01*
X135878008Y-103361876D01*
X135918423Y-103374949D01*
X135960862Y-103388682D01*
X136005027Y-103402978D01*
X136050618Y-103417740D01*
X136097337Y-103432872D01*
X136144884Y-103448276D01*
X136192960Y-103463856D01*
X136241266Y-103479514D01*
X136289504Y-103495154D01*
X136337374Y-103510678D01*
X136384577Y-103525990D01*
X136430814Y-103540993D01*
X136475787Y-103555590D01*
X136519195Y-103569683D01*
X136560741Y-103583177D01*
X136600124Y-103595974D01*
X136637047Y-103607976D01*
X136671210Y-103619088D01*
X136702313Y-103629213D01*
X136730059Y-103638252D01*
X136754147Y-103646110D01*
X136774280Y-103652689D01*
X136790157Y-103657893D01*
X136801480Y-103661624D01*
X136807950Y-103663786D01*
X136809437Y-103664318D01*
X136808995Y-103667237D01*
X136807064Y-103674533D01*
X136803954Y-103685231D01*
X136799973Y-103698357D01*
X136795432Y-103712939D01*
X136790640Y-103728001D01*
X136785906Y-103742571D01*
X136781540Y-103755674D01*
X136777852Y-103766336D01*
X136775151Y-103773584D01*
X136773808Y-103776396D01*
X136770985Y-103775719D01*
X136763038Y-103773378D01*
X136750214Y-103769451D01*
X136732757Y-103764016D01*
X136710914Y-103757153D01*
X136684930Y-103748940D01*
X136655051Y-103739454D01*
X136621522Y-103728774D01*
X136584588Y-103716980D01*
X136544496Y-103704148D01*
X136501490Y-103690359D01*
X136455817Y-103675689D01*
X136407722Y-103660218D01*
X136357450Y-103644023D01*
X136305247Y-103627184D01*
X136251358Y-103609779D01*
X136196029Y-103591886D01*
X136191978Y-103590575D01*
X136136545Y-103572629D01*
X136082536Y-103555133D01*
X136030196Y-103538166D01*
X135979772Y-103521809D01*
X135931508Y-103506141D01*
X135885650Y-103491242D01*
X135842445Y-103477193D01*
X135802137Y-103464074D01*
X135764972Y-103451964D01*
X135731197Y-103440944D01*
X135701056Y-103431094D01*
X135674795Y-103422494D01*
X135652660Y-103415223D01*
X135634896Y-103409363D01*
X135621750Y-103404992D01*
X135613466Y-103402191D01*
X135610291Y-103401040D01*
X135610266Y-103401023D01*
X135610576Y-103397904D01*
X135612439Y-103390248D01*
X135615622Y-103378875D01*
X135619895Y-103364604D01*
X135625024Y-103348253D01*
X135626663Y-103343164D01*
X135632758Y-103324459D01*
X135637447Y-103310481D01*
X135641023Y-103300576D01*
X135643779Y-103294088D01*
X135646008Y-103290363D01*
X135648003Y-103288746D01*
X135650056Y-103288581D01*
X135650986Y-103288782D01*
X135650986Y-103288782D01*
G37*
X135650986Y-103288782D02*
X135654710Y-103289922D01*
X135663449Y-103292691D01*
X135676904Y-103296993D01*
X135694775Y-103302731D01*
X135716765Y-103309807D01*
X135742572Y-103318125D01*
X135771899Y-103327588D01*
X135804447Y-103338099D01*
X135839916Y-103349560D01*
X135878008Y-103361876D01*
X135918423Y-103374949D01*
X135960862Y-103388682D01*
X136005027Y-103402978D01*
X136050618Y-103417740D01*
X136097337Y-103432872D01*
X136144884Y-103448276D01*
X136192960Y-103463856D01*
X136241266Y-103479514D01*
X136289504Y-103495154D01*
X136337374Y-103510678D01*
X136384577Y-103525990D01*
X136430814Y-103540993D01*
X136475787Y-103555590D01*
X136519195Y-103569683D01*
X136560741Y-103583177D01*
X136600124Y-103595974D01*
X136637047Y-103607976D01*
X136671210Y-103619088D01*
X136702313Y-103629213D01*
X136730059Y-103638252D01*
X136754147Y-103646110D01*
X136774280Y-103652689D01*
X136790157Y-103657893D01*
X136801480Y-103661624D01*
X136807950Y-103663786D01*
X136809437Y-103664318D01*
X136808995Y-103667237D01*
X136807064Y-103674533D01*
X136803954Y-103685231D01*
X136799973Y-103698357D01*
X136795432Y-103712939D01*
X136790640Y-103728001D01*
X136785906Y-103742571D01*
X136781540Y-103755674D01*
X136777852Y-103766336D01*
X136775151Y-103773584D01*
X136773808Y-103776396D01*
X136770985Y-103775719D01*
X136763038Y-103773378D01*
X136750214Y-103769451D01*
X136732757Y-103764016D01*
X136710914Y-103757153D01*
X136684930Y-103748940D01*
X136655051Y-103739454D01*
X136621522Y-103728774D01*
X136584588Y-103716980D01*
X136544496Y-103704148D01*
X136501490Y-103690359D01*
X136455817Y-103675689D01*
X136407722Y-103660218D01*
X136357450Y-103644023D01*
X136305247Y-103627184D01*
X136251358Y-103609779D01*
X136196029Y-103591886D01*
X136191978Y-103590575D01*
X136136545Y-103572629D01*
X136082536Y-103555133D01*
X136030196Y-103538166D01*
X135979772Y-103521809D01*
X135931508Y-103506141D01*
X135885650Y-103491242D01*
X135842445Y-103477193D01*
X135802137Y-103464074D01*
X135764972Y-103451964D01*
X135731197Y-103440944D01*
X135701056Y-103431094D01*
X135674795Y-103422494D01*
X135652660Y-103415223D01*
X135634896Y-103409363D01*
X135621750Y-103404992D01*
X135613466Y-103402191D01*
X135610291Y-103401040D01*
X135610266Y-103401023D01*
X135610576Y-103397904D01*
X135612439Y-103390248D01*
X135615622Y-103378875D01*
X135619895Y-103364604D01*
X135625024Y-103348253D01*
X135626663Y-103343164D01*
X135632758Y-103324459D01*
X135637447Y-103310481D01*
X135641023Y-103300576D01*
X135643779Y-103294088D01*
X135646008Y-103290363D01*
X135648003Y-103288746D01*
X135650056Y-103288581D01*
X135650986Y-103288782D01*
G36*
X134639329Y-103281753D02*
X134641933Y-103288710D01*
X134645611Y-103299139D01*
X134650047Y-103312087D01*
X134654927Y-103326601D01*
X134659935Y-103341729D01*
X134664757Y-103356515D01*
X134669078Y-103370009D01*
X134672581Y-103381255D01*
X134674953Y-103389301D01*
X134675878Y-103393194D01*
X134675850Y-103393404D01*
X134673126Y-103394314D01*
X134665277Y-103396881D01*
X134652549Y-103401025D01*
X134635186Y-103406667D01*
X134613434Y-103413726D01*
X134587538Y-103422124D01*
X134557745Y-103431781D01*
X134524299Y-103442617D01*
X134487446Y-103454554D01*
X134447432Y-103467511D01*
X134404502Y-103481409D01*
X134358901Y-103496168D01*
X134310876Y-103511709D01*
X134260670Y-103527953D01*
X134208531Y-103544819D01*
X134154703Y-103562229D01*
X134099432Y-103580103D01*
X134096859Y-103580935D01*
X134041482Y-103598843D01*
X133987511Y-103616298D01*
X133935194Y-103633220D01*
X133884778Y-103649530D01*
X133836510Y-103665147D01*
X133790637Y-103679990D01*
X133747407Y-103693981D01*
X133707067Y-103707039D01*
X133669863Y-103719084D01*
X133636044Y-103730036D01*
X133605856Y-103739815D01*
X133579547Y-103748341D01*
X133557363Y-103755533D01*
X133539553Y-103761313D01*
X133526363Y-103765599D01*
X133518040Y-103768312D01*
X133514832Y-103769372D01*
X133514815Y-103769378D01*
X133510916Y-103768241D01*
X133508365Y-103764077D01*
X133505920Y-103757187D01*
X133502455Y-103746817D01*
X133498276Y-103733945D01*
X133493688Y-103719549D01*
X133488996Y-103704609D01*
X133484504Y-103690104D01*
X133480519Y-103677010D01*
X133477345Y-103666308D01*
X133475288Y-103658977D01*
X133474652Y-103655993D01*
X133474661Y-103655977D01*
X133477383Y-103655039D01*
X133485178Y-103652461D01*
X133497747Y-103648341D01*
X133514792Y-103642774D01*
X133536014Y-103635858D01*
X133561116Y-103627689D01*
X133589798Y-103618363D01*
X133621763Y-103607978D01*
X133656711Y-103596630D01*
X133694345Y-103584416D01*
X133734367Y-103571431D01*
X133776478Y-103557774D01*
X133820379Y-103543540D01*
X133865772Y-103528825D01*
X133912360Y-103513728D01*
X133959843Y-103498343D01*
X134007923Y-103482769D01*
X134056302Y-103467101D01*
X134104682Y-103451436D01*
X134152764Y-103435871D01*
X134200250Y-103420502D01*
X134246841Y-103405426D01*
X134292239Y-103390740D01*
X134336146Y-103376539D01*
X134378264Y-103362922D01*
X134418293Y-103349984D01*
X134455937Y-103337821D01*
X134490895Y-103326532D01*
X134522871Y-103316211D01*
X134551565Y-103306957D01*
X134576680Y-103298865D01*
X134597916Y-103292032D01*
X134614977Y-103286554D01*
X134627562Y-103282529D01*
X134635374Y-103280053D01*
X134638113Y-103279222D01*
X134639329Y-103281753D01*
X134639329Y-103281753D01*
G37*
X134639329Y-103281753D02*
X134641933Y-103288710D01*
X134645611Y-103299139D01*
X134650047Y-103312087D01*
X134654927Y-103326601D01*
X134659935Y-103341729D01*
X134664757Y-103356515D01*
X134669078Y-103370009D01*
X134672581Y-103381255D01*
X134674953Y-103389301D01*
X134675878Y-103393194D01*
X134675850Y-103393404D01*
X134673126Y-103394314D01*
X134665277Y-103396881D01*
X134652549Y-103401025D01*
X134635186Y-103406667D01*
X134613434Y-103413726D01*
X134587538Y-103422124D01*
X134557745Y-103431781D01*
X134524299Y-103442617D01*
X134487446Y-103454554D01*
X134447432Y-103467511D01*
X134404502Y-103481409D01*
X134358901Y-103496168D01*
X134310876Y-103511709D01*
X134260670Y-103527953D01*
X134208531Y-103544819D01*
X134154703Y-103562229D01*
X134099432Y-103580103D01*
X134096859Y-103580935D01*
X134041482Y-103598843D01*
X133987511Y-103616298D01*
X133935194Y-103633220D01*
X133884778Y-103649530D01*
X133836510Y-103665147D01*
X133790637Y-103679990D01*
X133747407Y-103693981D01*
X133707067Y-103707039D01*
X133669863Y-103719084D01*
X133636044Y-103730036D01*
X133605856Y-103739815D01*
X133579547Y-103748341D01*
X133557363Y-103755533D01*
X133539553Y-103761313D01*
X133526363Y-103765599D01*
X133518040Y-103768312D01*
X133514832Y-103769372D01*
X133514815Y-103769378D01*
X133510916Y-103768241D01*
X133508365Y-103764077D01*
X133505920Y-103757187D01*
X133502455Y-103746817D01*
X133498276Y-103733945D01*
X133493688Y-103719549D01*
X133488996Y-103704609D01*
X133484504Y-103690104D01*
X133480519Y-103677010D01*
X133477345Y-103666308D01*
X133475288Y-103658977D01*
X133474652Y-103655993D01*
X133474661Y-103655977D01*
X133477383Y-103655039D01*
X133485178Y-103652461D01*
X133497747Y-103648341D01*
X133514792Y-103642774D01*
X133536014Y-103635858D01*
X133561116Y-103627689D01*
X133589798Y-103618363D01*
X133621763Y-103607978D01*
X133656711Y-103596630D01*
X133694345Y-103584416D01*
X133734367Y-103571431D01*
X133776478Y-103557774D01*
X133820379Y-103543540D01*
X133865772Y-103528825D01*
X133912360Y-103513728D01*
X133959843Y-103498343D01*
X134007923Y-103482769D01*
X134056302Y-103467101D01*
X134104682Y-103451436D01*
X134152764Y-103435871D01*
X134200250Y-103420502D01*
X134246841Y-103405426D01*
X134292239Y-103390740D01*
X134336146Y-103376539D01*
X134378264Y-103362922D01*
X134418293Y-103349984D01*
X134455937Y-103337821D01*
X134490895Y-103326532D01*
X134522871Y-103316211D01*
X134551565Y-103306957D01*
X134576680Y-103298865D01*
X134597916Y-103292032D01*
X134614977Y-103286554D01*
X134627562Y-103282529D01*
X134635374Y-103280053D01*
X134638113Y-103279222D01*
X134639329Y-103281753D01*
G36*
X135407400Y-102536978D02*
X135218311Y-102536978D01*
X135218311Y-103530400D01*
X135032045Y-103530400D01*
X135032045Y-102536978D01*
X134842956Y-102536978D01*
X134842956Y-102367645D01*
X135407400Y-102367645D01*
X135407400Y-102536978D01*
X135407400Y-102536978D01*
G37*
X135407400Y-102536978D02*
X135218311Y-102536978D01*
X135218311Y-103530400D01*
X135032045Y-103530400D01*
X135032045Y-102536978D01*
X134842956Y-102536978D01*
X134842956Y-102367645D01*
X135407400Y-102367645D01*
X135407400Y-102536978D01*
G36*
X135646109Y-103048253D02*
X135654277Y-103048715D01*
X135667447Y-103049522D01*
X135685305Y-103050654D01*
X135707537Y-103052088D01*
X135733828Y-103053805D01*
X135763864Y-103055781D01*
X135797331Y-103057997D01*
X135833914Y-103060430D01*
X135873299Y-103063059D01*
X135915172Y-103065863D01*
X135959218Y-103068820D01*
X136005123Y-103071909D01*
X136052572Y-103075109D01*
X136101252Y-103078399D01*
X136150848Y-103081756D01*
X136201045Y-103085160D01*
X136251529Y-103088589D01*
X136301986Y-103092022D01*
X136352102Y-103095438D01*
X136401562Y-103098814D01*
X136450052Y-103102131D01*
X136497257Y-103105365D01*
X136542863Y-103108497D01*
X136586556Y-103111505D01*
X136628022Y-103114366D01*
X136666945Y-103117061D01*
X136703012Y-103119567D01*
X136735909Y-103121864D01*
X136765321Y-103123929D01*
X136790933Y-103125742D01*
X136812432Y-103127280D01*
X136829503Y-103128524D01*
X136841832Y-103129451D01*
X136849104Y-103130040D01*
X136851073Y-103130256D01*
X136851117Y-103133185D01*
X136850777Y-103140849D01*
X136850105Y-103152356D01*
X136849154Y-103166813D01*
X136847980Y-103183267D01*
X136846744Y-103200257D01*
X136845660Y-103215642D01*
X136844798Y-103228402D01*
X136844227Y-103237512D01*
X136844017Y-103241828D01*
X136843569Y-103245190D01*
X136841530Y-103247058D01*
X136836648Y-103247823D01*
X136827669Y-103247879D01*
X136824861Y-103247832D01*
X136820207Y-103247605D01*
X136810194Y-103247005D01*
X136795097Y-103246051D01*
X136775189Y-103244760D01*
X136750742Y-103243152D01*
X136722031Y-103241245D01*
X136689327Y-103239057D01*
X136652905Y-103236606D01*
X136613038Y-103233912D01*
X136569998Y-103230992D01*
X136524059Y-103227865D01*
X136475493Y-103224550D01*
X136424575Y-103221065D01*
X136371578Y-103217428D01*
X136316773Y-103213658D01*
X136260436Y-103209773D01*
X136221611Y-103207091D01*
X136164664Y-103203153D01*
X136109217Y-103199318D01*
X136055534Y-103195604D01*
X136003875Y-103192030D01*
X135954505Y-103188613D01*
X135907686Y-103185372D01*
X135863679Y-103182325D01*
X135822749Y-103179490D01*
X135785157Y-103176885D01*
X135751165Y-103174529D01*
X135721038Y-103172440D01*
X135695036Y-103170636D01*
X135673423Y-103169134D01*
X135656460Y-103167954D01*
X135644412Y-103167114D01*
X135637540Y-103166631D01*
X135635942Y-103166515D01*
X135635728Y-103163817D01*
X135635874Y-103156494D01*
X135636320Y-103145553D01*
X135637002Y-103131996D01*
X135637860Y-103116829D01*
X135638830Y-103101057D01*
X135639851Y-103085683D01*
X135640860Y-103071712D01*
X135641796Y-103060150D01*
X135642596Y-103051999D01*
X135643198Y-103048266D01*
X135643258Y-103048159D01*
X135646109Y-103048253D01*
X135646109Y-103048253D01*
G37*
X135646109Y-103048253D02*
X135654277Y-103048715D01*
X135667447Y-103049522D01*
X135685305Y-103050654D01*
X135707537Y-103052088D01*
X135733828Y-103053805D01*
X135763864Y-103055781D01*
X135797331Y-103057997D01*
X135833914Y-103060430D01*
X135873299Y-103063059D01*
X135915172Y-103065863D01*
X135959218Y-103068820D01*
X136005123Y-103071909D01*
X136052572Y-103075109D01*
X136101252Y-103078399D01*
X136150848Y-103081756D01*
X136201045Y-103085160D01*
X136251529Y-103088589D01*
X136301986Y-103092022D01*
X136352102Y-103095438D01*
X136401562Y-103098814D01*
X136450052Y-103102131D01*
X136497257Y-103105365D01*
X136542863Y-103108497D01*
X136586556Y-103111505D01*
X136628022Y-103114366D01*
X136666945Y-103117061D01*
X136703012Y-103119567D01*
X136735909Y-103121864D01*
X136765321Y-103123929D01*
X136790933Y-103125742D01*
X136812432Y-103127280D01*
X136829503Y-103128524D01*
X136841832Y-103129451D01*
X136849104Y-103130040D01*
X136851073Y-103130256D01*
X136851117Y-103133185D01*
X136850777Y-103140849D01*
X136850105Y-103152356D01*
X136849154Y-103166813D01*
X136847980Y-103183267D01*
X136846744Y-103200257D01*
X136845660Y-103215642D01*
X136844798Y-103228402D01*
X136844227Y-103237512D01*
X136844017Y-103241828D01*
X136843569Y-103245190D01*
X136841530Y-103247058D01*
X136836648Y-103247823D01*
X136827669Y-103247879D01*
X136824861Y-103247832D01*
X136820207Y-103247605D01*
X136810194Y-103247005D01*
X136795097Y-103246051D01*
X136775189Y-103244760D01*
X136750742Y-103243152D01*
X136722031Y-103241245D01*
X136689327Y-103239057D01*
X136652905Y-103236606D01*
X136613038Y-103233912D01*
X136569998Y-103230992D01*
X136524059Y-103227865D01*
X136475493Y-103224550D01*
X136424575Y-103221065D01*
X136371578Y-103217428D01*
X136316773Y-103213658D01*
X136260436Y-103209773D01*
X136221611Y-103207091D01*
X136164664Y-103203153D01*
X136109217Y-103199318D01*
X136055534Y-103195604D01*
X136003875Y-103192030D01*
X135954505Y-103188613D01*
X135907686Y-103185372D01*
X135863679Y-103182325D01*
X135822749Y-103179490D01*
X135785157Y-103176885D01*
X135751165Y-103174529D01*
X135721038Y-103172440D01*
X135695036Y-103170636D01*
X135673423Y-103169134D01*
X135656460Y-103167954D01*
X135644412Y-103167114D01*
X135637540Y-103166631D01*
X135635942Y-103166515D01*
X135635728Y-103163817D01*
X135635874Y-103156494D01*
X135636320Y-103145553D01*
X135637002Y-103131996D01*
X135637860Y-103116829D01*
X135638830Y-103101057D01*
X135639851Y-103085683D01*
X135640860Y-103071712D01*
X135641796Y-103060150D01*
X135642596Y-103051999D01*
X135643198Y-103048266D01*
X135643258Y-103048159D01*
X135646109Y-103048253D01*
G36*
X134641682Y-103042814D02*
X134642442Y-103050427D01*
X134643386Y-103061626D01*
X134644445Y-103075389D01*
X134645549Y-103090693D01*
X134646627Y-103106515D01*
X134647611Y-103121831D01*
X134648430Y-103135619D01*
X134649015Y-103146855D01*
X134649296Y-103154517D01*
X134649203Y-103157581D01*
X134649202Y-103157583D01*
X134646352Y-103157881D01*
X134638186Y-103158537D01*
X134625020Y-103159531D01*
X134607171Y-103160840D01*
X134584955Y-103162443D01*
X134558686Y-103164318D01*
X134528682Y-103166444D01*
X134495258Y-103168798D01*
X134458730Y-103171359D01*
X134419414Y-103174106D01*
X134377626Y-103177016D01*
X134333683Y-103180068D01*
X134287899Y-103183241D01*
X134240591Y-103186512D01*
X134192076Y-103189860D01*
X134142668Y-103193264D01*
X134092684Y-103196701D01*
X134042441Y-103200150D01*
X133992253Y-103203589D01*
X133942437Y-103206997D01*
X133893308Y-103210351D01*
X133845184Y-103213631D01*
X133798379Y-103216814D01*
X133753210Y-103219879D01*
X133709993Y-103222804D01*
X133669043Y-103225568D01*
X133630677Y-103228148D01*
X133595211Y-103230524D01*
X133562960Y-103232672D01*
X133534241Y-103234573D01*
X133509369Y-103236203D01*
X133488661Y-103237542D01*
X133472432Y-103238568D01*
X133460999Y-103239258D01*
X133454677Y-103239592D01*
X133453717Y-103239621D01*
X133445632Y-103239479D01*
X133441678Y-103238234D01*
X133440342Y-103234873D01*
X133440151Y-103230539D01*
X133439892Y-103224739D01*
X133439274Y-103214447D01*
X133438373Y-103200799D01*
X133437262Y-103184930D01*
X133436316Y-103171978D01*
X133435154Y-103155952D01*
X133434203Y-103142018D01*
X133433520Y-103131093D01*
X133433162Y-103124092D01*
X133433160Y-103121907D01*
X133435997Y-103121625D01*
X133444152Y-103120986D01*
X133457310Y-103120013D01*
X133475157Y-103118726D01*
X133497379Y-103117147D01*
X133523660Y-103115297D01*
X133553688Y-103113197D01*
X133587147Y-103110870D01*
X133623724Y-103108336D01*
X133663103Y-103105616D01*
X133704971Y-103102733D01*
X133749014Y-103099707D01*
X133794916Y-103096559D01*
X133842364Y-103093312D01*
X133891044Y-103089986D01*
X133940640Y-103086604D01*
X133990839Y-103083185D01*
X134041327Y-103079752D01*
X134091789Y-103076325D01*
X134141911Y-103072927D01*
X134191378Y-103069579D01*
X134239876Y-103066301D01*
X134287092Y-103063116D01*
X134332709Y-103060045D01*
X134376415Y-103057108D01*
X134417895Y-103054328D01*
X134456835Y-103051726D01*
X134492920Y-103049323D01*
X134525835Y-103047141D01*
X134555268Y-103045200D01*
X134580903Y-103043523D01*
X134602426Y-103042130D01*
X134619522Y-103041043D01*
X134631878Y-103040284D01*
X134639179Y-103039873D01*
X134641175Y-103039812D01*
X134641682Y-103042814D01*
X134641682Y-103042814D01*
G37*
X134641682Y-103042814D02*
X134642442Y-103050427D01*
X134643386Y-103061626D01*
X134644445Y-103075389D01*
X134645549Y-103090693D01*
X134646627Y-103106515D01*
X134647611Y-103121831D01*
X134648430Y-103135619D01*
X134649015Y-103146855D01*
X134649296Y-103154517D01*
X134649203Y-103157581D01*
X134649202Y-103157583D01*
X134646352Y-103157881D01*
X134638186Y-103158537D01*
X134625020Y-103159531D01*
X134607171Y-103160840D01*
X134584955Y-103162443D01*
X134558686Y-103164318D01*
X134528682Y-103166444D01*
X134495258Y-103168798D01*
X134458730Y-103171359D01*
X134419414Y-103174106D01*
X134377626Y-103177016D01*
X134333683Y-103180068D01*
X134287899Y-103183241D01*
X134240591Y-103186512D01*
X134192076Y-103189860D01*
X134142668Y-103193264D01*
X134092684Y-103196701D01*
X134042441Y-103200150D01*
X133992253Y-103203589D01*
X133942437Y-103206997D01*
X133893308Y-103210351D01*
X133845184Y-103213631D01*
X133798379Y-103216814D01*
X133753210Y-103219879D01*
X133709993Y-103222804D01*
X133669043Y-103225568D01*
X133630677Y-103228148D01*
X133595211Y-103230524D01*
X133562960Y-103232672D01*
X133534241Y-103234573D01*
X133509369Y-103236203D01*
X133488661Y-103237542D01*
X133472432Y-103238568D01*
X133460999Y-103239258D01*
X133454677Y-103239592D01*
X133453717Y-103239621D01*
X133445632Y-103239479D01*
X133441678Y-103238234D01*
X133440342Y-103234873D01*
X133440151Y-103230539D01*
X133439892Y-103224739D01*
X133439274Y-103214447D01*
X133438373Y-103200799D01*
X133437262Y-103184930D01*
X133436316Y-103171978D01*
X133435154Y-103155952D01*
X133434203Y-103142018D01*
X133433520Y-103131093D01*
X133433162Y-103124092D01*
X133433160Y-103121907D01*
X133435997Y-103121625D01*
X133444152Y-103120986D01*
X133457310Y-103120013D01*
X133475157Y-103118726D01*
X133497379Y-103117147D01*
X133523660Y-103115297D01*
X133553688Y-103113197D01*
X133587147Y-103110870D01*
X133623724Y-103108336D01*
X133663103Y-103105616D01*
X133704971Y-103102733D01*
X133749014Y-103099707D01*
X133794916Y-103096559D01*
X133842364Y-103093312D01*
X133891044Y-103089986D01*
X133940640Y-103086604D01*
X133990839Y-103083185D01*
X134041327Y-103079752D01*
X134091789Y-103076325D01*
X134141911Y-103072927D01*
X134191378Y-103069579D01*
X134239876Y-103066301D01*
X134287092Y-103063116D01*
X134332709Y-103060045D01*
X134376415Y-103057108D01*
X134417895Y-103054328D01*
X134456835Y-103051726D01*
X134492920Y-103049323D01*
X134525835Y-103047141D01*
X134555268Y-103045200D01*
X134580903Y-103043523D01*
X134602426Y-103042130D01*
X134619522Y-103041043D01*
X134631878Y-103040284D01*
X134639179Y-103039873D01*
X134641175Y-103039812D01*
X134641682Y-103042814D01*
G36*
X136778105Y-102442008D02*
X136779734Y-102445392D01*
X136782597Y-102453071D01*
X136786386Y-102464069D01*
X136790795Y-102477409D01*
X136795519Y-102492117D01*
X136800250Y-102507215D01*
X136804683Y-102521729D01*
X136808511Y-102534681D01*
X136811428Y-102545097D01*
X136813128Y-102551999D01*
X136813372Y-102554394D01*
X136810616Y-102555366D01*
X136802788Y-102557978D01*
X136790185Y-102562135D01*
X136773105Y-102567739D01*
X136751846Y-102574694D01*
X136726706Y-102582904D01*
X136697983Y-102592271D01*
X136665975Y-102602700D01*
X136630979Y-102614093D01*
X136593294Y-102626354D01*
X136553217Y-102639386D01*
X136511046Y-102653093D01*
X136467079Y-102667378D01*
X136421614Y-102682144D01*
X136374949Y-102697296D01*
X136327382Y-102712735D01*
X136279209Y-102728366D01*
X136230731Y-102744092D01*
X136182243Y-102759817D01*
X136134045Y-102775443D01*
X136086433Y-102790874D01*
X136039706Y-102806014D01*
X135994162Y-102820766D01*
X135950099Y-102835033D01*
X135907814Y-102848719D01*
X135867605Y-102861726D01*
X135829770Y-102873959D01*
X135794608Y-102885321D01*
X135762415Y-102895715D01*
X135733490Y-102905045D01*
X135708130Y-102913214D01*
X135686634Y-102920125D01*
X135669300Y-102925681D01*
X135656424Y-102929787D01*
X135648306Y-102932345D01*
X135645878Y-102933087D01*
X135643858Y-102933232D01*
X135641903Y-102931977D01*
X135639731Y-102928674D01*
X135637062Y-102922677D01*
X135633613Y-102913340D01*
X135629103Y-102900017D01*
X135623250Y-102882061D01*
X135622079Y-102878430D01*
X135616740Y-102861597D01*
X135612162Y-102846632D01*
X135608579Y-102834345D01*
X135606223Y-102825546D01*
X135605331Y-102821046D01*
X135605388Y-102820650D01*
X135608246Y-102819577D01*
X135616171Y-102816878D01*
X135628864Y-102812647D01*
X135646028Y-102806981D01*
X135667367Y-102799976D01*
X135692582Y-102791728D01*
X135721378Y-102782332D01*
X135753456Y-102771885D01*
X135788520Y-102760482D01*
X135826272Y-102748220D01*
X135866416Y-102735194D01*
X135908654Y-102721501D01*
X135952689Y-102707236D01*
X135998224Y-102692495D01*
X136044962Y-102677374D01*
X136092605Y-102661970D01*
X136140857Y-102646377D01*
X136189420Y-102630692D01*
X136237997Y-102615012D01*
X136286292Y-102599431D01*
X136334006Y-102584046D01*
X136380843Y-102568953D01*
X136426506Y-102554247D01*
X136470697Y-102540025D01*
X136513120Y-102526383D01*
X136553477Y-102513416D01*
X136591471Y-102501220D01*
X136626805Y-102489892D01*
X136659181Y-102479528D01*
X136688303Y-102470222D01*
X136713874Y-102462072D01*
X136735596Y-102455173D01*
X136753172Y-102449621D01*
X136766306Y-102445512D01*
X136774699Y-102442942D01*
X136778055Y-102442007D01*
X136778105Y-102442008D01*
X136778105Y-102442008D01*
G37*
X136778105Y-102442008D02*
X136779734Y-102445392D01*
X136782597Y-102453071D01*
X136786386Y-102464069D01*
X136790795Y-102477409D01*
X136795519Y-102492117D01*
X136800250Y-102507215D01*
X136804683Y-102521729D01*
X136808511Y-102534681D01*
X136811428Y-102545097D01*
X136813128Y-102551999D01*
X136813372Y-102554394D01*
X136810616Y-102555366D01*
X136802788Y-102557978D01*
X136790185Y-102562135D01*
X136773105Y-102567739D01*
X136751846Y-102574694D01*
X136726706Y-102582904D01*
X136697983Y-102592271D01*
X136665975Y-102602700D01*
X136630979Y-102614093D01*
X136593294Y-102626354D01*
X136553217Y-102639386D01*
X136511046Y-102653093D01*
X136467079Y-102667378D01*
X136421614Y-102682144D01*
X136374949Y-102697296D01*
X136327382Y-102712735D01*
X136279209Y-102728366D01*
X136230731Y-102744092D01*
X136182243Y-102759817D01*
X136134045Y-102775443D01*
X136086433Y-102790874D01*
X136039706Y-102806014D01*
X135994162Y-102820766D01*
X135950099Y-102835033D01*
X135907814Y-102848719D01*
X135867605Y-102861726D01*
X135829770Y-102873959D01*
X135794608Y-102885321D01*
X135762415Y-102895715D01*
X135733490Y-102905045D01*
X135708130Y-102913214D01*
X135686634Y-102920125D01*
X135669300Y-102925681D01*
X135656424Y-102929787D01*
X135648306Y-102932345D01*
X135645878Y-102933087D01*
X135643858Y-102933232D01*
X135641903Y-102931977D01*
X135639731Y-102928674D01*
X135637062Y-102922677D01*
X135633613Y-102913340D01*
X135629103Y-102900017D01*
X135623250Y-102882061D01*
X135622079Y-102878430D01*
X135616740Y-102861597D01*
X135612162Y-102846632D01*
X135608579Y-102834345D01*
X135606223Y-102825546D01*
X135605331Y-102821046D01*
X135605388Y-102820650D01*
X135608246Y-102819577D01*
X135616171Y-102816878D01*
X135628864Y-102812647D01*
X135646028Y-102806981D01*
X135667367Y-102799976D01*
X135692582Y-102791728D01*
X135721378Y-102782332D01*
X135753456Y-102771885D01*
X135788520Y-102760482D01*
X135826272Y-102748220D01*
X135866416Y-102735194D01*
X135908654Y-102721501D01*
X135952689Y-102707236D01*
X135998224Y-102692495D01*
X136044962Y-102677374D01*
X136092605Y-102661970D01*
X136140857Y-102646377D01*
X136189420Y-102630692D01*
X136237997Y-102615012D01*
X136286292Y-102599431D01*
X136334006Y-102584046D01*
X136380843Y-102568953D01*
X136426506Y-102554247D01*
X136470697Y-102540025D01*
X136513120Y-102526383D01*
X136553477Y-102513416D01*
X136591471Y-102501220D01*
X136626805Y-102489892D01*
X136659181Y-102479528D01*
X136688303Y-102470222D01*
X136713874Y-102462072D01*
X136735596Y-102455173D01*
X136753172Y-102449621D01*
X136766306Y-102445512D01*
X136774699Y-102442942D01*
X136778055Y-102442007D01*
X136778105Y-102442008D01*
G36*
X133509763Y-102433411D02*
X133517699Y-102435911D01*
X133530404Y-102439961D01*
X133547582Y-102445464D01*
X133568934Y-102452323D01*
X133594163Y-102460443D01*
X133622972Y-102469726D01*
X133655063Y-102480077D01*
X133690140Y-102491400D01*
X133727904Y-102503597D01*
X133768058Y-102516573D01*
X133810304Y-102530231D01*
X133854346Y-102544475D01*
X133899887Y-102559208D01*
X133946627Y-102574335D01*
X133994271Y-102589758D01*
X134042521Y-102605382D01*
X134091079Y-102621110D01*
X134139648Y-102636846D01*
X134187931Y-102652494D01*
X134235630Y-102667956D01*
X134282448Y-102683138D01*
X134328087Y-102697941D01*
X134372251Y-102712271D01*
X134414641Y-102726031D01*
X134454960Y-102739124D01*
X134492911Y-102751454D01*
X134528197Y-102762925D01*
X134560519Y-102773441D01*
X134589581Y-102782904D01*
X134615086Y-102791219D01*
X134636735Y-102798290D01*
X134654232Y-102804020D01*
X134667279Y-102808312D01*
X134675579Y-102811071D01*
X134678834Y-102812199D01*
X134678870Y-102812219D01*
X134678489Y-102815183D01*
X134676619Y-102822509D01*
X134673564Y-102833234D01*
X134669627Y-102846401D01*
X134665113Y-102861047D01*
X134660325Y-102876214D01*
X134655566Y-102890940D01*
X134651142Y-102904267D01*
X134647354Y-102915233D01*
X134644508Y-102922879D01*
X134642906Y-102926244D01*
X134642775Y-102926321D01*
X134639976Y-102925453D01*
X134632051Y-102922926D01*
X134619245Y-102918818D01*
X134601801Y-102913208D01*
X134579965Y-102906176D01*
X134553980Y-102897800D01*
X134524090Y-102888159D01*
X134490541Y-102877332D01*
X134453576Y-102865398D01*
X134413440Y-102852435D01*
X134370376Y-102838523D01*
X134324630Y-102823740D01*
X134276445Y-102808166D01*
X134226067Y-102791879D01*
X134173738Y-102774957D01*
X134119704Y-102757481D01*
X134064209Y-102739528D01*
X134055556Y-102736729D01*
X133999871Y-102718712D01*
X133945618Y-102701157D01*
X133893041Y-102684144D01*
X133842383Y-102667750D01*
X133793889Y-102652055D01*
X133747802Y-102637139D01*
X133704366Y-102623079D01*
X133663824Y-102609954D01*
X133626421Y-102597845D01*
X133592400Y-102586829D01*
X133562005Y-102576985D01*
X133535480Y-102568393D01*
X133513068Y-102561131D01*
X133495013Y-102555278D01*
X133481559Y-102550913D01*
X133472950Y-102548116D01*
X133469429Y-102546964D01*
X133469354Y-102546938D01*
X133469896Y-102544252D01*
X133471945Y-102537174D01*
X133475189Y-102526655D01*
X133479317Y-102513646D01*
X133484016Y-102499098D01*
X133488975Y-102483962D01*
X133493880Y-102469189D01*
X133498421Y-102455730D01*
X133502285Y-102444536D01*
X133505159Y-102436558D01*
X133506732Y-102432747D01*
X133506893Y-102432556D01*
X133509763Y-102433411D01*
X133509763Y-102433411D01*
G37*
X133509763Y-102433411D02*
X133517699Y-102435911D01*
X133530404Y-102439961D01*
X133547582Y-102445464D01*
X133568934Y-102452323D01*
X133594163Y-102460443D01*
X133622972Y-102469726D01*
X133655063Y-102480077D01*
X133690140Y-102491400D01*
X133727904Y-102503597D01*
X133768058Y-102516573D01*
X133810304Y-102530231D01*
X133854346Y-102544475D01*
X133899887Y-102559208D01*
X133946627Y-102574335D01*
X133994271Y-102589758D01*
X134042521Y-102605382D01*
X134091079Y-102621110D01*
X134139648Y-102636846D01*
X134187931Y-102652494D01*
X134235630Y-102667956D01*
X134282448Y-102683138D01*
X134328087Y-102697941D01*
X134372251Y-102712271D01*
X134414641Y-102726031D01*
X134454960Y-102739124D01*
X134492911Y-102751454D01*
X134528197Y-102762925D01*
X134560519Y-102773441D01*
X134589581Y-102782904D01*
X134615086Y-102791219D01*
X134636735Y-102798290D01*
X134654232Y-102804020D01*
X134667279Y-102808312D01*
X134675579Y-102811071D01*
X134678834Y-102812199D01*
X134678870Y-102812219D01*
X134678489Y-102815183D01*
X134676619Y-102822509D01*
X134673564Y-102833234D01*
X134669627Y-102846401D01*
X134665113Y-102861047D01*
X134660325Y-102876214D01*
X134655566Y-102890940D01*
X134651142Y-102904267D01*
X134647354Y-102915233D01*
X134644508Y-102922879D01*
X134642906Y-102926244D01*
X134642775Y-102926321D01*
X134639976Y-102925453D01*
X134632051Y-102922926D01*
X134619245Y-102918818D01*
X134601801Y-102913208D01*
X134579965Y-102906176D01*
X134553980Y-102897800D01*
X134524090Y-102888159D01*
X134490541Y-102877332D01*
X134453576Y-102865398D01*
X134413440Y-102852435D01*
X134370376Y-102838523D01*
X134324630Y-102823740D01*
X134276445Y-102808166D01*
X134226067Y-102791879D01*
X134173738Y-102774957D01*
X134119704Y-102757481D01*
X134064209Y-102739528D01*
X134055556Y-102736729D01*
X133999871Y-102718712D01*
X133945618Y-102701157D01*
X133893041Y-102684144D01*
X133842383Y-102667750D01*
X133793889Y-102652055D01*
X133747802Y-102637139D01*
X133704366Y-102623079D01*
X133663824Y-102609954D01*
X133626421Y-102597845D01*
X133592400Y-102586829D01*
X133562005Y-102576985D01*
X133535480Y-102568393D01*
X133513068Y-102561131D01*
X133495013Y-102555278D01*
X133481559Y-102550913D01*
X133472950Y-102548116D01*
X133469429Y-102546964D01*
X133469354Y-102546938D01*
X133469896Y-102544252D01*
X133471945Y-102537174D01*
X133475189Y-102526655D01*
X133479317Y-102513646D01*
X133484016Y-102499098D01*
X133488975Y-102483962D01*
X133493880Y-102469189D01*
X133498421Y-102455730D01*
X133502285Y-102444536D01*
X133505159Y-102436558D01*
X133506732Y-102432747D01*
X133506893Y-102432556D01*
X133509763Y-102433411D01*
G36*
X133966208Y-101457914D02*
X133973427Y-101461598D01*
X133984899Y-101467656D01*
X134000282Y-101475905D01*
X134019236Y-101486158D01*
X134041423Y-101498231D01*
X134066501Y-101511938D01*
X134094130Y-101527094D01*
X134123972Y-101543515D01*
X134155685Y-101561014D01*
X134188929Y-101579407D01*
X134201527Y-101586388D01*
X134241028Y-101608287D01*
X134283237Y-101631678D01*
X134327331Y-101656106D01*
X134372488Y-101681116D01*
X134417887Y-101706254D01*
X134462706Y-101731064D01*
X134506124Y-101755092D01*
X134547318Y-101777882D01*
X134585468Y-101798981D01*
X134619750Y-101817932D01*
X134629176Y-101823141D01*
X134665439Y-101843200D01*
X134697031Y-101860731D01*
X134724239Y-101875900D01*
X134747349Y-101888875D01*
X134766650Y-101899823D01*
X134782429Y-101908911D01*
X134794973Y-101916307D01*
X134804568Y-101922178D01*
X134811504Y-101926692D01*
X134816066Y-101930016D01*
X134818542Y-101932317D01*
X134819219Y-101933762D01*
X134819205Y-101933841D01*
X134817522Y-101937810D01*
X134813537Y-101945853D01*
X134807697Y-101957112D01*
X134800445Y-101970731D01*
X134792229Y-101985852D01*
X134791685Y-101986842D01*
X134781352Y-102005306D01*
X134773272Y-102018943D01*
X134767271Y-102028022D01*
X134763172Y-102032812D01*
X134761111Y-102033729D01*
X134758175Y-102032255D01*
X134750593Y-102028200D01*
X134738654Y-102021722D01*
X134722646Y-102012979D01*
X134702859Y-102002132D01*
X134679580Y-101989339D01*
X134653099Y-101974759D01*
X134623704Y-101958551D01*
X134591684Y-101940874D01*
X134557327Y-101921887D01*
X134520922Y-101901749D01*
X134482758Y-101880618D01*
X134443123Y-101858655D01*
X134422717Y-101847341D01*
X134382516Y-101825059D01*
X134343678Y-101803561D01*
X134306489Y-101783004D01*
X134271234Y-101763543D01*
X134238198Y-101745335D01*
X134207667Y-101728537D01*
X134179925Y-101713305D01*
X134155258Y-101699796D01*
X134133951Y-101688166D01*
X134116289Y-101678571D01*
X134102557Y-101671168D01*
X134093040Y-101666114D01*
X134088024Y-101663566D01*
X134087289Y-101663282D01*
X134087122Y-101666241D01*
X134087070Y-101674303D01*
X134087125Y-101686925D01*
X134087277Y-101703567D01*
X134087516Y-101723687D01*
X134087833Y-101746745D01*
X134088220Y-101772198D01*
X134088665Y-101799506D01*
X134089160Y-101828128D01*
X134089696Y-101857522D01*
X134090262Y-101887147D01*
X134090850Y-101916462D01*
X134091451Y-101944926D01*
X134092054Y-101971998D01*
X134092650Y-101997136D01*
X134093230Y-102019800D01*
X134093784Y-102039447D01*
X134093917Y-102043795D01*
X134095647Y-102099534D01*
X133973711Y-102099534D01*
X133973721Y-102070606D01*
X133973666Y-102063769D01*
X133973503Y-102051711D01*
X133973240Y-102034854D01*
X133972885Y-102013621D01*
X133972445Y-101988434D01*
X133971928Y-101959715D01*
X133971342Y-101927886D01*
X133970694Y-101893370D01*
X133969992Y-101856589D01*
X133969244Y-101817965D01*
X133968457Y-101777920D01*
X133967902Y-101749988D01*
X133967115Y-101709899D01*
X133966389Y-101671411D01*
X133965727Y-101634898D01*
X133965137Y-101600733D01*
X133964623Y-101569291D01*
X133964190Y-101540946D01*
X133963845Y-101516071D01*
X133963593Y-101495042D01*
X133963439Y-101478232D01*
X133963389Y-101466014D01*
X133963449Y-101458764D01*
X133963580Y-101456791D01*
X133966208Y-101457914D01*
X133966208Y-101457914D01*
G37*
X133966208Y-101457914D02*
X133973427Y-101461598D01*
X133984899Y-101467656D01*
X134000282Y-101475905D01*
X134019236Y-101486158D01*
X134041423Y-101498231D01*
X134066501Y-101511938D01*
X134094130Y-101527094D01*
X134123972Y-101543515D01*
X134155685Y-101561014D01*
X134188929Y-101579407D01*
X134201527Y-101586388D01*
X134241028Y-101608287D01*
X134283237Y-101631678D01*
X134327331Y-101656106D01*
X134372488Y-101681116D01*
X134417887Y-101706254D01*
X134462706Y-101731064D01*
X134506124Y-101755092D01*
X134547318Y-101777882D01*
X134585468Y-101798981D01*
X134619750Y-101817932D01*
X134629176Y-101823141D01*
X134665439Y-101843200D01*
X134697031Y-101860731D01*
X134724239Y-101875900D01*
X134747349Y-101888875D01*
X134766650Y-101899823D01*
X134782429Y-101908911D01*
X134794973Y-101916307D01*
X134804568Y-101922178D01*
X134811504Y-101926692D01*
X134816066Y-101930016D01*
X134818542Y-101932317D01*
X134819219Y-101933762D01*
X134819205Y-101933841D01*
X134817522Y-101937810D01*
X134813537Y-101945853D01*
X134807697Y-101957112D01*
X134800445Y-101970731D01*
X134792229Y-101985852D01*
X134791685Y-101986842D01*
X134781352Y-102005306D01*
X134773272Y-102018943D01*
X134767271Y-102028022D01*
X134763172Y-102032812D01*
X134761111Y-102033729D01*
X134758175Y-102032255D01*
X134750593Y-102028200D01*
X134738654Y-102021722D01*
X134722646Y-102012979D01*
X134702859Y-102002132D01*
X134679580Y-101989339D01*
X134653099Y-101974759D01*
X134623704Y-101958551D01*
X134591684Y-101940874D01*
X134557327Y-101921887D01*
X134520922Y-101901749D01*
X134482758Y-101880618D01*
X134443123Y-101858655D01*
X134422717Y-101847341D01*
X134382516Y-101825059D01*
X134343678Y-101803561D01*
X134306489Y-101783004D01*
X134271234Y-101763543D01*
X134238198Y-101745335D01*
X134207667Y-101728537D01*
X134179925Y-101713305D01*
X134155258Y-101699796D01*
X134133951Y-101688166D01*
X134116289Y-101678571D01*
X134102557Y-101671168D01*
X134093040Y-101666114D01*
X134088024Y-101663566D01*
X134087289Y-101663282D01*
X134087122Y-101666241D01*
X134087070Y-101674303D01*
X134087125Y-101686925D01*
X134087277Y-101703567D01*
X134087516Y-101723687D01*
X134087833Y-101746745D01*
X134088220Y-101772198D01*
X134088665Y-101799506D01*
X134089160Y-101828128D01*
X134089696Y-101857522D01*
X134090262Y-101887147D01*
X134090850Y-101916462D01*
X134091451Y-101944926D01*
X134092054Y-101971998D01*
X134092650Y-101997136D01*
X134093230Y-102019800D01*
X134093784Y-102039447D01*
X134093917Y-102043795D01*
X134095647Y-102099534D01*
X133973711Y-102099534D01*
X133973721Y-102070606D01*
X133973666Y-102063769D01*
X133973503Y-102051711D01*
X133973240Y-102034854D01*
X133972885Y-102013621D01*
X133972445Y-101988434D01*
X133971928Y-101959715D01*
X133971342Y-101927886D01*
X133970694Y-101893370D01*
X133969992Y-101856589D01*
X133969244Y-101817965D01*
X133968457Y-101777920D01*
X133967902Y-101749988D01*
X133967115Y-101709899D01*
X133966389Y-101671411D01*
X133965727Y-101634898D01*
X133965137Y-101600733D01*
X133964623Y-101569291D01*
X133964190Y-101540946D01*
X133963845Y-101516071D01*
X133963593Y-101495042D01*
X133963439Y-101478232D01*
X133963389Y-101466014D01*
X133963449Y-101458764D01*
X133963580Y-101456791D01*
X133966208Y-101457914D01*
G36*
X136385681Y-101459735D02*
X136385716Y-101467971D01*
X136385644Y-101481102D01*
X136385469Y-101498754D01*
X136385198Y-101520553D01*
X136384835Y-101546125D01*
X136384386Y-101575095D01*
X136383857Y-101607091D01*
X136383254Y-101641738D01*
X136382581Y-101678661D01*
X136381845Y-101717487D01*
X136381207Y-101749965D01*
X136380401Y-101790738D01*
X136379629Y-101830379D01*
X136378897Y-101868466D01*
X136378214Y-101904575D01*
X136377587Y-101938286D01*
X136377024Y-101969175D01*
X136376533Y-101996820D01*
X136376121Y-102020800D01*
X136375796Y-102040692D01*
X136375565Y-102056073D01*
X136375436Y-102066521D01*
X136375411Y-102070606D01*
X136375423Y-102099534D01*
X136253446Y-102099534D01*
X136255201Y-102042384D01*
X136255752Y-102023263D01*
X136256331Y-102001040D01*
X136256927Y-101976256D01*
X136257531Y-101949452D01*
X136258135Y-101921169D01*
X136258728Y-101891949D01*
X136259301Y-101862331D01*
X136259844Y-101832859D01*
X136260349Y-101804071D01*
X136260806Y-101776510D01*
X136261205Y-101750716D01*
X136261536Y-101727231D01*
X136261791Y-101706595D01*
X136261960Y-101689350D01*
X136262034Y-101676037D01*
X136262002Y-101667196D01*
X136261856Y-101663370D01*
X136261821Y-101663258D01*
X136259250Y-101664451D01*
X136252031Y-101668231D01*
X136240448Y-101674439D01*
X136224788Y-101682921D01*
X136205335Y-101693519D01*
X136182374Y-101706077D01*
X136156190Y-101720439D01*
X136127069Y-101736447D01*
X136095296Y-101753946D01*
X136061156Y-101772779D01*
X136024934Y-101792789D01*
X135986915Y-101813820D01*
X135947385Y-101835716D01*
X135926417Y-101847341D01*
X135886151Y-101869663D01*
X135847210Y-101891232D01*
X135809884Y-101911889D01*
X135774461Y-101931475D01*
X135741229Y-101949831D01*
X135710477Y-101966798D01*
X135682494Y-101982217D01*
X135657568Y-101995929D01*
X135635988Y-102007775D01*
X135618043Y-102017596D01*
X135604021Y-102025234D01*
X135594211Y-102030528D01*
X135588901Y-102033320D01*
X135588023Y-102033729D01*
X135585359Y-102032247D01*
X135580926Y-102026702D01*
X135574551Y-102016828D01*
X135566059Y-102002358D01*
X135556978Y-101986122D01*
X135548670Y-101970890D01*
X135541339Y-101957160D01*
X135535418Y-101945764D01*
X135531337Y-101937537D01*
X135529529Y-101933310D01*
X135529486Y-101933121D01*
X135531147Y-101931294D01*
X135536500Y-101927531D01*
X135545681Y-101921753D01*
X135558827Y-101913883D01*
X135576075Y-101903842D01*
X135597562Y-101891550D01*
X135623426Y-101876929D01*
X135653802Y-101859901D01*
X135688828Y-101840386D01*
X135728640Y-101818306D01*
X135743975Y-101809823D01*
X135783284Y-101788085D01*
X135826414Y-101764225D01*
X135872344Y-101738809D01*
X135920054Y-101712402D01*
X135968522Y-101685569D01*
X136016728Y-101658876D01*
X136063649Y-101632889D01*
X136108264Y-101608172D01*
X136149553Y-101585290D01*
X136171597Y-101573071D01*
X136203533Y-101555391D01*
X136234048Y-101538549D01*
X136262781Y-101522741D01*
X136289375Y-101508161D01*
X136313470Y-101495004D01*
X136334707Y-101483467D01*
X136352727Y-101473743D01*
X136367171Y-101466028D01*
X136377680Y-101460517D01*
X136383896Y-101457405D01*
X136385532Y-101456769D01*
X136385681Y-101459735D01*
X136385681Y-101459735D01*
G37*
X136385681Y-101459735D02*
X136385716Y-101467971D01*
X136385644Y-101481102D01*
X136385469Y-101498754D01*
X136385198Y-101520553D01*
X136384835Y-101546125D01*
X136384386Y-101575095D01*
X136383857Y-101607091D01*
X136383254Y-101641738D01*
X136382581Y-101678661D01*
X136381845Y-101717487D01*
X136381207Y-101749965D01*
X136380401Y-101790738D01*
X136379629Y-101830379D01*
X136378897Y-101868466D01*
X136378214Y-101904575D01*
X136377587Y-101938286D01*
X136377024Y-101969175D01*
X136376533Y-101996820D01*
X136376121Y-102020800D01*
X136375796Y-102040692D01*
X136375565Y-102056073D01*
X136375436Y-102066521D01*
X136375411Y-102070606D01*
X136375423Y-102099534D01*
X136253446Y-102099534D01*
X136255201Y-102042384D01*
X136255752Y-102023263D01*
X136256331Y-102001040D01*
X136256927Y-101976256D01*
X136257531Y-101949452D01*
X136258135Y-101921169D01*
X136258728Y-101891949D01*
X136259301Y-101862331D01*
X136259844Y-101832859D01*
X136260349Y-101804071D01*
X136260806Y-101776510D01*
X136261205Y-101750716D01*
X136261536Y-101727231D01*
X136261791Y-101706595D01*
X136261960Y-101689350D01*
X136262034Y-101676037D01*
X136262002Y-101667196D01*
X136261856Y-101663370D01*
X136261821Y-101663258D01*
X136259250Y-101664451D01*
X136252031Y-101668231D01*
X136240448Y-101674439D01*
X136224788Y-101682921D01*
X136205335Y-101693519D01*
X136182374Y-101706077D01*
X136156190Y-101720439D01*
X136127069Y-101736447D01*
X136095296Y-101753946D01*
X136061156Y-101772779D01*
X136024934Y-101792789D01*
X135986915Y-101813820D01*
X135947385Y-101835716D01*
X135926417Y-101847341D01*
X135886151Y-101869663D01*
X135847210Y-101891232D01*
X135809884Y-101911889D01*
X135774461Y-101931475D01*
X135741229Y-101949831D01*
X135710477Y-101966798D01*
X135682494Y-101982217D01*
X135657568Y-101995929D01*
X135635988Y-102007775D01*
X135618043Y-102017596D01*
X135604021Y-102025234D01*
X135594211Y-102030528D01*
X135588901Y-102033320D01*
X135588023Y-102033729D01*
X135585359Y-102032247D01*
X135580926Y-102026702D01*
X135574551Y-102016828D01*
X135566059Y-102002358D01*
X135556978Y-101986122D01*
X135548670Y-101970890D01*
X135541339Y-101957160D01*
X135535418Y-101945764D01*
X135531337Y-101937537D01*
X135529529Y-101933310D01*
X135529486Y-101933121D01*
X135531147Y-101931294D01*
X135536500Y-101927531D01*
X135545681Y-101921753D01*
X135558827Y-101913883D01*
X135576075Y-101903842D01*
X135597562Y-101891550D01*
X135623426Y-101876929D01*
X135653802Y-101859901D01*
X135688828Y-101840386D01*
X135728640Y-101818306D01*
X135743975Y-101809823D01*
X135783284Y-101788085D01*
X135826414Y-101764225D01*
X135872344Y-101738809D01*
X135920054Y-101712402D01*
X135968522Y-101685569D01*
X136016728Y-101658876D01*
X136063649Y-101632889D01*
X136108264Y-101608172D01*
X136149553Y-101585290D01*
X136171597Y-101573071D01*
X136203533Y-101555391D01*
X136234048Y-101538549D01*
X136262781Y-101522741D01*
X136289375Y-101508161D01*
X136313470Y-101495004D01*
X136334707Y-101483467D01*
X136352727Y-101473743D01*
X136367171Y-101466028D01*
X136377680Y-101460517D01*
X136383896Y-101457405D01*
X136385532Y-101456769D01*
X136385681Y-101459735D01*
G04 #@! TO.C,J1*
D13*
X119848380Y-98123333D02*
X120562666Y-98123333D01*
X120705523Y-98170952D01*
X120800761Y-98266190D01*
X120848380Y-98409047D01*
X120848380Y-98504285D01*
X120848380Y-97123333D02*
X120848380Y-97694761D01*
X120848380Y-97409047D02*
X119848380Y-97409047D01*
X119991238Y-97504285D01*
X120086476Y-97599523D01*
X120134095Y-97694761D01*
G04 #@! TO.C,J2*
X119848380Y-85423333D02*
X120562666Y-85423333D01*
X120705523Y-85470952D01*
X120800761Y-85566190D01*
X120848380Y-85709047D01*
X120848380Y-85804285D01*
X119943619Y-84994761D02*
X119896000Y-84947142D01*
X119848380Y-84851904D01*
X119848380Y-84613809D01*
X119896000Y-84518571D01*
X119943619Y-84470952D01*
X120038857Y-84423333D01*
X120134095Y-84423333D01*
X120276952Y-84470952D01*
X120848380Y-85042380D01*
X120848380Y-84423333D01*
G04 #@! TO.C,J3*
X135175666Y-83780380D02*
X135175666Y-84494666D01*
X135128047Y-84637523D01*
X135032809Y-84732761D01*
X134889952Y-84780380D01*
X134794714Y-84780380D01*
X135556619Y-83780380D02*
X136175666Y-83780380D01*
X135842333Y-84161333D01*
X135985190Y-84161333D01*
X136080428Y-84208952D01*
X136128047Y-84256571D01*
X136175666Y-84351809D01*
X136175666Y-84589904D01*
X136128047Y-84685142D01*
X136080428Y-84732761D01*
X135985190Y-84780380D01*
X135699476Y-84780380D01*
X135604238Y-84732761D01*
X135556619Y-84685142D01*
G04 #@! TO.C,JP1*
X127268580Y-94218733D02*
X127982866Y-94218733D01*
X128125723Y-94266352D01*
X128220961Y-94361590D01*
X128268580Y-94504447D01*
X128268580Y-94599685D01*
X128268580Y-93742542D02*
X127268580Y-93742542D01*
X127268580Y-93361590D01*
X127316200Y-93266352D01*
X127363819Y-93218733D01*
X127459057Y-93171114D01*
X127601914Y-93171114D01*
X127697152Y-93218733D01*
X127744771Y-93266352D01*
X127792390Y-93361590D01*
X127792390Y-93742542D01*
X128268580Y-92218733D02*
X128268580Y-92790161D01*
X128268580Y-92504447D02*
X127268580Y-92504447D01*
X127411438Y-92599685D01*
X127506676Y-92694923D01*
X127554295Y-92790161D01*
G04 #@! TO.C,JP2*
X131256380Y-94163333D02*
X131970666Y-94163333D01*
X132113523Y-94210952D01*
X132208761Y-94306190D01*
X132256380Y-94449047D01*
X132256380Y-94544285D01*
X132256380Y-93687142D02*
X131256380Y-93687142D01*
X131256380Y-93306190D01*
X131304000Y-93210952D01*
X131351619Y-93163333D01*
X131446857Y-93115714D01*
X131589714Y-93115714D01*
X131684952Y-93163333D01*
X131732571Y-93210952D01*
X131780190Y-93306190D01*
X131780190Y-93687142D01*
X131351619Y-92734761D02*
X131304000Y-92687142D01*
X131256380Y-92591904D01*
X131256380Y-92353809D01*
X131304000Y-92258571D01*
X131351619Y-92210952D01*
X131446857Y-92163333D01*
X131542095Y-92163333D01*
X131684952Y-92210952D01*
X132256380Y-92782380D01*
X132256380Y-92163333D01*
G04 #@! TO.C,JP3*
X135320380Y-94193333D02*
X136034666Y-94193333D01*
X136177523Y-94240952D01*
X136272761Y-94336190D01*
X136320380Y-94479047D01*
X136320380Y-94574285D01*
X136320380Y-93717142D02*
X135320380Y-93717142D01*
X135320380Y-93336190D01*
X135368000Y-93240952D01*
X135415619Y-93193333D01*
X135510857Y-93145714D01*
X135653714Y-93145714D01*
X135748952Y-93193333D01*
X135796571Y-93240952D01*
X135844190Y-93336190D01*
X135844190Y-93717142D01*
X135320380Y-92812380D02*
X135320380Y-92193333D01*
X135701333Y-92526666D01*
X135701333Y-92383809D01*
X135748952Y-92288571D01*
X135796571Y-92240952D01*
X135891809Y-92193333D01*
X136129904Y-92193333D01*
X136225142Y-92240952D01*
X136272761Y-92288571D01*
X136320380Y-92383809D01*
X136320380Y-92669523D01*
X136272761Y-92764761D01*
X136225142Y-92812380D01*
G04 #@! TO.C,JP4*
X139130380Y-94305333D02*
X139844666Y-94305333D01*
X139987523Y-94352952D01*
X140082761Y-94448190D01*
X140130380Y-94591047D01*
X140130380Y-94686285D01*
X140130380Y-93829142D02*
X139130380Y-93829142D01*
X139130380Y-93448190D01*
X139178000Y-93352952D01*
X139225619Y-93305333D01*
X139320857Y-93257714D01*
X139463714Y-93257714D01*
X139558952Y-93305333D01*
X139606571Y-93352952D01*
X139654190Y-93448190D01*
X139654190Y-93829142D01*
X139463714Y-92400571D02*
X140130380Y-92400571D01*
X139082761Y-92638666D02*
X139797047Y-92876761D01*
X139797047Y-92257714D01*
G04 #@! TD*
M02*
