G04 #@! TF.GenerationSoftware,KiCad,Pcbnew,(5.1.4)-1*
G04 #@! TF.CreationDate,2019-09-11T21:16:34-04:00*
G04 #@! TF.ProjectId,HeaderCrossJumper,48656164-6572-4437-926f-73734a756d70,rev?*
G04 #@! TF.SameCoordinates,Original*
G04 #@! TF.FileFunction,Legend,Top*
G04 #@! TF.FilePolarity,Positive*
%FSLAX46Y46*%
G04 Gerber Fmt 4.6, Leading zero omitted, Abs format (unit mm)*
G04 Created by KiCad (PCBNEW (5.1.4)-1) date 2019-09-11 21:16:34*
%MOMM*%
%LPD*%
G04 APERTURE LIST*
%ADD10C,0.120000*%
%ADD11C,0.150000*%
G04 APERTURE END LIST*
D10*
X158810000Y-108710000D02*
X158810000Y-109730000D01*
X153610000Y-108710000D02*
X153610000Y-109730000D01*
X158810000Y-111250000D02*
X158810000Y-111820000D01*
X153610000Y-111250000D02*
X153610000Y-111820000D01*
X158810000Y-106620000D02*
X158810000Y-107190000D01*
X153610000Y-106620000D02*
X153610000Y-107190000D01*
X152170000Y-107190000D02*
X153610000Y-107190000D01*
X153610000Y-111820000D02*
X158810000Y-111820000D01*
X153610000Y-106620000D02*
X158810000Y-106620000D01*
D11*
X154876666Y-106072380D02*
X154543333Y-105596190D01*
X154305238Y-106072380D02*
X154305238Y-105072380D01*
X154686190Y-105072380D01*
X154781428Y-105120000D01*
X154829047Y-105167619D01*
X154876666Y-105262857D01*
X154876666Y-105405714D01*
X154829047Y-105500952D01*
X154781428Y-105548571D01*
X154686190Y-105596190D01*
X154305238Y-105596190D01*
X155305238Y-105548571D02*
X155638571Y-105548571D01*
X155781428Y-106072380D02*
X155305238Y-106072380D01*
X155305238Y-105072380D01*
X155781428Y-105072380D01*
X156543333Y-105548571D02*
X156210000Y-105548571D01*
X156210000Y-106072380D02*
X156210000Y-105072380D01*
X156686190Y-105072380D01*
X157210000Y-105072380D02*
X157210000Y-105310476D01*
X156971904Y-105215238D02*
X157210000Y-105310476D01*
X157448095Y-105215238D01*
X157067142Y-105500952D02*
X157210000Y-105310476D01*
X157352857Y-105500952D01*
X157971904Y-105072380D02*
X157971904Y-105310476D01*
X157733809Y-105215238D02*
X157971904Y-105310476D01*
X158210000Y-105215238D01*
X157829047Y-105500952D02*
X157971904Y-105310476D01*
X158114761Y-105500952D01*
M02*
