G04 #@! TF.GenerationSoftware,KiCad,Pcbnew,(5.0.0)*
G04 #@! TF.CreationDate,2019-01-08T23:43:22-05:00*
G04 #@! TF.ProjectId,JST Breakout,4A535420427265616B6F75742E6B6963,rev?*
G04 #@! TF.SameCoordinates,Original*
G04 #@! TF.FileFunction,Legend,Top*
G04 #@! TF.FilePolarity,Positive*
%FSLAX46Y46*%
G04 Gerber Fmt 4.6, Leading zero omitted, Abs format (unit mm)*
G04 Created by KiCad (PCBNEW (5.0.0)) date 01/08/19 23:43:22*
%MOMM*%
%LPD*%
G01*
G04 APERTURE LIST*
%ADD10C,0.120000*%
%ADD11C,0.010000*%
%ADD12C,0.150000*%
G04 APERTURE END LIST*
D10*
G04 #@! TO.C,J2*
X115126601Y-80479601D02*
X115126601Y-95839601D01*
X115126601Y-95839601D02*
X117786601Y-95839601D01*
X117786601Y-95839601D02*
X117786601Y-80479601D01*
X117786601Y-80479601D02*
X115126601Y-80479601D01*
X117786601Y-81429601D02*
X123786601Y-81429601D01*
X123786601Y-81429601D02*
X123786601Y-82189601D01*
X123786601Y-82189601D02*
X117786601Y-82189601D01*
X117786601Y-81489601D02*
X123786601Y-81489601D01*
X117786601Y-81609601D02*
X123786601Y-81609601D01*
X117786601Y-81729601D02*
X123786601Y-81729601D01*
X117786601Y-81849601D02*
X123786601Y-81849601D01*
X117786601Y-81969601D02*
X123786601Y-81969601D01*
X117786601Y-82089601D02*
X123786601Y-82089601D01*
X114796601Y-81429601D02*
X115126601Y-81429601D01*
X114796601Y-82189601D02*
X115126601Y-82189601D01*
X115126601Y-83079601D02*
X117786601Y-83079601D01*
X117786601Y-83969601D02*
X123786601Y-83969601D01*
X123786601Y-83969601D02*
X123786601Y-84729601D01*
X123786601Y-84729601D02*
X117786601Y-84729601D01*
X114729530Y-83969601D02*
X115126601Y-83969601D01*
X114729530Y-84729601D02*
X115126601Y-84729601D01*
X115126601Y-85619601D02*
X117786601Y-85619601D01*
X117786601Y-86509601D02*
X123786601Y-86509601D01*
X123786601Y-86509601D02*
X123786601Y-87269601D01*
X123786601Y-87269601D02*
X117786601Y-87269601D01*
X114729530Y-86509601D02*
X115126601Y-86509601D01*
X114729530Y-87269601D02*
X115126601Y-87269601D01*
X115126601Y-88159601D02*
X117786601Y-88159601D01*
X117786601Y-89049601D02*
X123786601Y-89049601D01*
X123786601Y-89049601D02*
X123786601Y-89809601D01*
X123786601Y-89809601D02*
X117786601Y-89809601D01*
X114729530Y-89049601D02*
X115126601Y-89049601D01*
X114729530Y-89809601D02*
X115126601Y-89809601D01*
X115126601Y-90699601D02*
X117786601Y-90699601D01*
X117786601Y-91589601D02*
X123786601Y-91589601D01*
X123786601Y-91589601D02*
X123786601Y-92349601D01*
X123786601Y-92349601D02*
X117786601Y-92349601D01*
X114729530Y-91589601D02*
X115126601Y-91589601D01*
X114729530Y-92349601D02*
X115126601Y-92349601D01*
X115126601Y-93239601D02*
X117786601Y-93239601D01*
X117786601Y-94129601D02*
X123786601Y-94129601D01*
X123786601Y-94129601D02*
X123786601Y-94889601D01*
X123786601Y-94889601D02*
X117786601Y-94889601D01*
X114729530Y-94129601D02*
X115126601Y-94129601D01*
X114729530Y-94889601D02*
X115126601Y-94889601D01*
X112416601Y-81809601D02*
X112416601Y-80539601D01*
X112416601Y-80539601D02*
X113686601Y-80539601D01*
G04 #@! TO.C,J1*
X104050200Y-93491400D02*
X105650200Y-93491400D01*
X105650200Y-93491400D02*
X105650200Y-91691400D01*
X105650200Y-91691400D02*
X106590200Y-91691400D01*
X104050200Y-82521400D02*
X105650200Y-82521400D01*
X105650200Y-82521400D02*
X105650200Y-84321400D01*
X101180200Y-92221400D02*
X101180200Y-83791400D01*
D11*
G04 #@! TO.C,G\002A\002A\002A*
G36*
X108470135Y-86829519D02*
X108478371Y-86829484D01*
X108491502Y-86829556D01*
X108509154Y-86829731D01*
X108530953Y-86830002D01*
X108556525Y-86830365D01*
X108585495Y-86830814D01*
X108617491Y-86831343D01*
X108652138Y-86831946D01*
X108689061Y-86832619D01*
X108727887Y-86833355D01*
X108760365Y-86833993D01*
X108801138Y-86834799D01*
X108840779Y-86835571D01*
X108878866Y-86836303D01*
X108914975Y-86836986D01*
X108948686Y-86837613D01*
X108979575Y-86838176D01*
X109007220Y-86838667D01*
X109031200Y-86839079D01*
X109051092Y-86839404D01*
X109066473Y-86839635D01*
X109076921Y-86839764D01*
X109081006Y-86839789D01*
X109109934Y-86839777D01*
X109109934Y-86961754D01*
X109052784Y-86959999D01*
X109033663Y-86959448D01*
X109011440Y-86958869D01*
X108986656Y-86958273D01*
X108959852Y-86957669D01*
X108931569Y-86957065D01*
X108902349Y-86956472D01*
X108872731Y-86955899D01*
X108843259Y-86955356D01*
X108814471Y-86954851D01*
X108786910Y-86954394D01*
X108761116Y-86953995D01*
X108737631Y-86953664D01*
X108716995Y-86953409D01*
X108699750Y-86953240D01*
X108686437Y-86953166D01*
X108677596Y-86953198D01*
X108673770Y-86953344D01*
X108673658Y-86953379D01*
X108674851Y-86955950D01*
X108678631Y-86963169D01*
X108684839Y-86974752D01*
X108693321Y-86990412D01*
X108703919Y-87009865D01*
X108716477Y-87032826D01*
X108730839Y-87059010D01*
X108746847Y-87088131D01*
X108764346Y-87119904D01*
X108783179Y-87154044D01*
X108803189Y-87190266D01*
X108824220Y-87228285D01*
X108846116Y-87267815D01*
X108857741Y-87288783D01*
X108880063Y-87329049D01*
X108901632Y-87367990D01*
X108922289Y-87405316D01*
X108941875Y-87440739D01*
X108960231Y-87473971D01*
X108977198Y-87504723D01*
X108992617Y-87532706D01*
X109006329Y-87557632D01*
X109018175Y-87579212D01*
X109027996Y-87597157D01*
X109035634Y-87611179D01*
X109040928Y-87620989D01*
X109043720Y-87626299D01*
X109044129Y-87627177D01*
X109042647Y-87629841D01*
X109037102Y-87634274D01*
X109027228Y-87640649D01*
X109012758Y-87649141D01*
X108996522Y-87658222D01*
X108981290Y-87666530D01*
X108967560Y-87673861D01*
X108956164Y-87679782D01*
X108947937Y-87683863D01*
X108943710Y-87685671D01*
X108943521Y-87685714D01*
X108941694Y-87684053D01*
X108937931Y-87678700D01*
X108932153Y-87669519D01*
X108924283Y-87656373D01*
X108914242Y-87639125D01*
X108901950Y-87617638D01*
X108887329Y-87591774D01*
X108870301Y-87561398D01*
X108850786Y-87526372D01*
X108828706Y-87486560D01*
X108820223Y-87471225D01*
X108798485Y-87431916D01*
X108774625Y-87388786D01*
X108749209Y-87342856D01*
X108722802Y-87295146D01*
X108695969Y-87246678D01*
X108669276Y-87198472D01*
X108643289Y-87151551D01*
X108618572Y-87106936D01*
X108595690Y-87065647D01*
X108583471Y-87043603D01*
X108565791Y-87011667D01*
X108548949Y-86981152D01*
X108533141Y-86952419D01*
X108518561Y-86925825D01*
X108505404Y-86901730D01*
X108493867Y-86880493D01*
X108484143Y-86862473D01*
X108476428Y-86848029D01*
X108470917Y-86837520D01*
X108467805Y-86831304D01*
X108467169Y-86829668D01*
X108470135Y-86829519D01*
X108470135Y-86829519D01*
G37*
X108470135Y-86829519D02*
X108478371Y-86829484D01*
X108491502Y-86829556D01*
X108509154Y-86829731D01*
X108530953Y-86830002D01*
X108556525Y-86830365D01*
X108585495Y-86830814D01*
X108617491Y-86831343D01*
X108652138Y-86831946D01*
X108689061Y-86832619D01*
X108727887Y-86833355D01*
X108760365Y-86833993D01*
X108801138Y-86834799D01*
X108840779Y-86835571D01*
X108878866Y-86836303D01*
X108914975Y-86836986D01*
X108948686Y-86837613D01*
X108979575Y-86838176D01*
X109007220Y-86838667D01*
X109031200Y-86839079D01*
X109051092Y-86839404D01*
X109066473Y-86839635D01*
X109076921Y-86839764D01*
X109081006Y-86839789D01*
X109109934Y-86839777D01*
X109109934Y-86961754D01*
X109052784Y-86959999D01*
X109033663Y-86959448D01*
X109011440Y-86958869D01*
X108986656Y-86958273D01*
X108959852Y-86957669D01*
X108931569Y-86957065D01*
X108902349Y-86956472D01*
X108872731Y-86955899D01*
X108843259Y-86955356D01*
X108814471Y-86954851D01*
X108786910Y-86954394D01*
X108761116Y-86953995D01*
X108737631Y-86953664D01*
X108716995Y-86953409D01*
X108699750Y-86953240D01*
X108686437Y-86953166D01*
X108677596Y-86953198D01*
X108673770Y-86953344D01*
X108673658Y-86953379D01*
X108674851Y-86955950D01*
X108678631Y-86963169D01*
X108684839Y-86974752D01*
X108693321Y-86990412D01*
X108703919Y-87009865D01*
X108716477Y-87032826D01*
X108730839Y-87059010D01*
X108746847Y-87088131D01*
X108764346Y-87119904D01*
X108783179Y-87154044D01*
X108803189Y-87190266D01*
X108824220Y-87228285D01*
X108846116Y-87267815D01*
X108857741Y-87288783D01*
X108880063Y-87329049D01*
X108901632Y-87367990D01*
X108922289Y-87405316D01*
X108941875Y-87440739D01*
X108960231Y-87473971D01*
X108977198Y-87504723D01*
X108992617Y-87532706D01*
X109006329Y-87557632D01*
X109018175Y-87579212D01*
X109027996Y-87597157D01*
X109035634Y-87611179D01*
X109040928Y-87620989D01*
X109043720Y-87626299D01*
X109044129Y-87627177D01*
X109042647Y-87629841D01*
X109037102Y-87634274D01*
X109027228Y-87640649D01*
X109012758Y-87649141D01*
X108996522Y-87658222D01*
X108981290Y-87666530D01*
X108967560Y-87673861D01*
X108956164Y-87679782D01*
X108947937Y-87683863D01*
X108943710Y-87685671D01*
X108943521Y-87685714D01*
X108941694Y-87684053D01*
X108937931Y-87678700D01*
X108932153Y-87669519D01*
X108924283Y-87656373D01*
X108914242Y-87639125D01*
X108901950Y-87617638D01*
X108887329Y-87591774D01*
X108870301Y-87561398D01*
X108850786Y-87526372D01*
X108828706Y-87486560D01*
X108820223Y-87471225D01*
X108798485Y-87431916D01*
X108774625Y-87388786D01*
X108749209Y-87342856D01*
X108722802Y-87295146D01*
X108695969Y-87246678D01*
X108669276Y-87198472D01*
X108643289Y-87151551D01*
X108618572Y-87106936D01*
X108595690Y-87065647D01*
X108583471Y-87043603D01*
X108565791Y-87011667D01*
X108548949Y-86981152D01*
X108533141Y-86952419D01*
X108518561Y-86925825D01*
X108505404Y-86901730D01*
X108493867Y-86880493D01*
X108484143Y-86862473D01*
X108476428Y-86848029D01*
X108470917Y-86837520D01*
X108467805Y-86831304D01*
X108467169Y-86829668D01*
X108470135Y-86829519D01*
G36*
X108468314Y-89248992D02*
X108471998Y-89241773D01*
X108478056Y-89230301D01*
X108486305Y-89214918D01*
X108496558Y-89195964D01*
X108508631Y-89173777D01*
X108522338Y-89148699D01*
X108537494Y-89121070D01*
X108553915Y-89091228D01*
X108571414Y-89059515D01*
X108589807Y-89026271D01*
X108596788Y-89013673D01*
X108618687Y-88974172D01*
X108642078Y-88931963D01*
X108666506Y-88887869D01*
X108691516Y-88842712D01*
X108716654Y-88797313D01*
X108741464Y-88752494D01*
X108765492Y-88709076D01*
X108788282Y-88667882D01*
X108809381Y-88629732D01*
X108828332Y-88595450D01*
X108833541Y-88586024D01*
X108853600Y-88549761D01*
X108871131Y-88518169D01*
X108886300Y-88490961D01*
X108899275Y-88467851D01*
X108910223Y-88448550D01*
X108919311Y-88432771D01*
X108926707Y-88420227D01*
X108932578Y-88410632D01*
X108937092Y-88403696D01*
X108940416Y-88399134D01*
X108942717Y-88396658D01*
X108944162Y-88395981D01*
X108944241Y-88395995D01*
X108948210Y-88397678D01*
X108956253Y-88401663D01*
X108967512Y-88407503D01*
X108981131Y-88414755D01*
X108996252Y-88422971D01*
X108997242Y-88423515D01*
X109015706Y-88433848D01*
X109029343Y-88441928D01*
X109038422Y-88447929D01*
X109043212Y-88452028D01*
X109044129Y-88454089D01*
X109042655Y-88457025D01*
X109038600Y-88464607D01*
X109032122Y-88476546D01*
X109023379Y-88492554D01*
X109012532Y-88512341D01*
X108999739Y-88535620D01*
X108985159Y-88562101D01*
X108968951Y-88591496D01*
X108951274Y-88623516D01*
X108932287Y-88657873D01*
X108912149Y-88694278D01*
X108891018Y-88732442D01*
X108869055Y-88772077D01*
X108857741Y-88792483D01*
X108835459Y-88832684D01*
X108813961Y-88871522D01*
X108793404Y-88908711D01*
X108773943Y-88943966D01*
X108755735Y-88977002D01*
X108738937Y-89007533D01*
X108723705Y-89035275D01*
X108710196Y-89059942D01*
X108698566Y-89081249D01*
X108688971Y-89098911D01*
X108681568Y-89112643D01*
X108676514Y-89122160D01*
X108673966Y-89127176D01*
X108673682Y-89127911D01*
X108676641Y-89128078D01*
X108684703Y-89128130D01*
X108697325Y-89128075D01*
X108713967Y-89127923D01*
X108734087Y-89127684D01*
X108757145Y-89127367D01*
X108782598Y-89126980D01*
X108809906Y-89126535D01*
X108838528Y-89126040D01*
X108867922Y-89125504D01*
X108897547Y-89124938D01*
X108926862Y-89124350D01*
X108955326Y-89123749D01*
X108982398Y-89123146D01*
X109007536Y-89122550D01*
X109030200Y-89121970D01*
X109049847Y-89121416D01*
X109054195Y-89121283D01*
X109109934Y-89119553D01*
X109109934Y-89241489D01*
X109081006Y-89241479D01*
X109074169Y-89241534D01*
X109062111Y-89241697D01*
X109045254Y-89241960D01*
X109024021Y-89242315D01*
X108998834Y-89242755D01*
X108970115Y-89243272D01*
X108938286Y-89243858D01*
X108903770Y-89244506D01*
X108866989Y-89245208D01*
X108828365Y-89245956D01*
X108788320Y-89246743D01*
X108760388Y-89247298D01*
X108720299Y-89248085D01*
X108681811Y-89248811D01*
X108645298Y-89249473D01*
X108611133Y-89250063D01*
X108579691Y-89250577D01*
X108551346Y-89251010D01*
X108526471Y-89251355D01*
X108505442Y-89251607D01*
X108488632Y-89251761D01*
X108476414Y-89251811D01*
X108469164Y-89251751D01*
X108467191Y-89251620D01*
X108468314Y-89248992D01*
X108468314Y-89248992D01*
G37*
X108468314Y-89248992D02*
X108471998Y-89241773D01*
X108478056Y-89230301D01*
X108486305Y-89214918D01*
X108496558Y-89195964D01*
X108508631Y-89173777D01*
X108522338Y-89148699D01*
X108537494Y-89121070D01*
X108553915Y-89091228D01*
X108571414Y-89059515D01*
X108589807Y-89026271D01*
X108596788Y-89013673D01*
X108618687Y-88974172D01*
X108642078Y-88931963D01*
X108666506Y-88887869D01*
X108691516Y-88842712D01*
X108716654Y-88797313D01*
X108741464Y-88752494D01*
X108765492Y-88709076D01*
X108788282Y-88667882D01*
X108809381Y-88629732D01*
X108828332Y-88595450D01*
X108833541Y-88586024D01*
X108853600Y-88549761D01*
X108871131Y-88518169D01*
X108886300Y-88490961D01*
X108899275Y-88467851D01*
X108910223Y-88448550D01*
X108919311Y-88432771D01*
X108926707Y-88420227D01*
X108932578Y-88410632D01*
X108937092Y-88403696D01*
X108940416Y-88399134D01*
X108942717Y-88396658D01*
X108944162Y-88395981D01*
X108944241Y-88395995D01*
X108948210Y-88397678D01*
X108956253Y-88401663D01*
X108967512Y-88407503D01*
X108981131Y-88414755D01*
X108996252Y-88422971D01*
X108997242Y-88423515D01*
X109015706Y-88433848D01*
X109029343Y-88441928D01*
X109038422Y-88447929D01*
X109043212Y-88452028D01*
X109044129Y-88454089D01*
X109042655Y-88457025D01*
X109038600Y-88464607D01*
X109032122Y-88476546D01*
X109023379Y-88492554D01*
X109012532Y-88512341D01*
X108999739Y-88535620D01*
X108985159Y-88562101D01*
X108968951Y-88591496D01*
X108951274Y-88623516D01*
X108932287Y-88657873D01*
X108912149Y-88694278D01*
X108891018Y-88732442D01*
X108869055Y-88772077D01*
X108857741Y-88792483D01*
X108835459Y-88832684D01*
X108813961Y-88871522D01*
X108793404Y-88908711D01*
X108773943Y-88943966D01*
X108755735Y-88977002D01*
X108738937Y-89007533D01*
X108723705Y-89035275D01*
X108710196Y-89059942D01*
X108698566Y-89081249D01*
X108688971Y-89098911D01*
X108681568Y-89112643D01*
X108676514Y-89122160D01*
X108673966Y-89127176D01*
X108673682Y-89127911D01*
X108676641Y-89128078D01*
X108684703Y-89128130D01*
X108697325Y-89128075D01*
X108713967Y-89127923D01*
X108734087Y-89127684D01*
X108757145Y-89127367D01*
X108782598Y-89126980D01*
X108809906Y-89126535D01*
X108838528Y-89126040D01*
X108867922Y-89125504D01*
X108897547Y-89124938D01*
X108926862Y-89124350D01*
X108955326Y-89123749D01*
X108982398Y-89123146D01*
X109007536Y-89122550D01*
X109030200Y-89121970D01*
X109049847Y-89121416D01*
X109054195Y-89121283D01*
X109109934Y-89119553D01*
X109109934Y-89241489D01*
X109081006Y-89241479D01*
X109074169Y-89241534D01*
X109062111Y-89241697D01*
X109045254Y-89241960D01*
X109024021Y-89242315D01*
X108998834Y-89242755D01*
X108970115Y-89243272D01*
X108938286Y-89243858D01*
X108903770Y-89244506D01*
X108866989Y-89245208D01*
X108828365Y-89245956D01*
X108788320Y-89246743D01*
X108760388Y-89247298D01*
X108720299Y-89248085D01*
X108681811Y-89248811D01*
X108645298Y-89249473D01*
X108611133Y-89250063D01*
X108579691Y-89250577D01*
X108551346Y-89251010D01*
X108526471Y-89251355D01*
X108505442Y-89251607D01*
X108488632Y-89251761D01*
X108476414Y-89251811D01*
X108469164Y-89251751D01*
X108467191Y-89251620D01*
X108468314Y-89248992D01*
G36*
X109443811Y-89705437D02*
X109446311Y-89697501D01*
X109450361Y-89684796D01*
X109455864Y-89667618D01*
X109462723Y-89646266D01*
X109470843Y-89621037D01*
X109480126Y-89592228D01*
X109490477Y-89560137D01*
X109501800Y-89525060D01*
X109513997Y-89487296D01*
X109526973Y-89447142D01*
X109540631Y-89404896D01*
X109554875Y-89360854D01*
X109569608Y-89315313D01*
X109584735Y-89268573D01*
X109600158Y-89220929D01*
X109615782Y-89172679D01*
X109631510Y-89124121D01*
X109647246Y-89075552D01*
X109662894Y-89027269D01*
X109678356Y-88979570D01*
X109693538Y-88932752D01*
X109708341Y-88887113D01*
X109722671Y-88842949D01*
X109736431Y-88800559D01*
X109749524Y-88760240D01*
X109761854Y-88722289D01*
X109773325Y-88687003D01*
X109783841Y-88654681D01*
X109793304Y-88625619D01*
X109801619Y-88600114D01*
X109808690Y-88578465D01*
X109814420Y-88560968D01*
X109818712Y-88547921D01*
X109821471Y-88539621D01*
X109822599Y-88536366D01*
X109822619Y-88536330D01*
X109825583Y-88536711D01*
X109832909Y-88538581D01*
X109843634Y-88541636D01*
X109856801Y-88545573D01*
X109871447Y-88550087D01*
X109886614Y-88554875D01*
X109901340Y-88559634D01*
X109914667Y-88564058D01*
X109925633Y-88567846D01*
X109933279Y-88570692D01*
X109936644Y-88572294D01*
X109936721Y-88572425D01*
X109935853Y-88575224D01*
X109933326Y-88583149D01*
X109929218Y-88595955D01*
X109923608Y-88613399D01*
X109916576Y-88635235D01*
X109908200Y-88661220D01*
X109898559Y-88691110D01*
X109887732Y-88724659D01*
X109875798Y-88761624D01*
X109862835Y-88801760D01*
X109848923Y-88844824D01*
X109834140Y-88890570D01*
X109818566Y-88938755D01*
X109802279Y-88989133D01*
X109785357Y-89041462D01*
X109767881Y-89095496D01*
X109749928Y-89150991D01*
X109747129Y-89159644D01*
X109729112Y-89215329D01*
X109711557Y-89269582D01*
X109694544Y-89322159D01*
X109678150Y-89372817D01*
X109662455Y-89421311D01*
X109647539Y-89467398D01*
X109633479Y-89510834D01*
X109620354Y-89551376D01*
X109608245Y-89588779D01*
X109597229Y-89622800D01*
X109587385Y-89653195D01*
X109578793Y-89679720D01*
X109571531Y-89702132D01*
X109565678Y-89720187D01*
X109561313Y-89733641D01*
X109558516Y-89742250D01*
X109557364Y-89745771D01*
X109557338Y-89745846D01*
X109554652Y-89745304D01*
X109547574Y-89743255D01*
X109537055Y-89740011D01*
X109524046Y-89735883D01*
X109509498Y-89731184D01*
X109494362Y-89726225D01*
X109479589Y-89721320D01*
X109466130Y-89716779D01*
X109454936Y-89712915D01*
X109446958Y-89710041D01*
X109443147Y-89708468D01*
X109442956Y-89708307D01*
X109443811Y-89705437D01*
X109443811Y-89705437D01*
G37*
X109443811Y-89705437D02*
X109446311Y-89697501D01*
X109450361Y-89684796D01*
X109455864Y-89667618D01*
X109462723Y-89646266D01*
X109470843Y-89621037D01*
X109480126Y-89592228D01*
X109490477Y-89560137D01*
X109501800Y-89525060D01*
X109513997Y-89487296D01*
X109526973Y-89447142D01*
X109540631Y-89404896D01*
X109554875Y-89360854D01*
X109569608Y-89315313D01*
X109584735Y-89268573D01*
X109600158Y-89220929D01*
X109615782Y-89172679D01*
X109631510Y-89124121D01*
X109647246Y-89075552D01*
X109662894Y-89027269D01*
X109678356Y-88979570D01*
X109693538Y-88932752D01*
X109708341Y-88887113D01*
X109722671Y-88842949D01*
X109736431Y-88800559D01*
X109749524Y-88760240D01*
X109761854Y-88722289D01*
X109773325Y-88687003D01*
X109783841Y-88654681D01*
X109793304Y-88625619D01*
X109801619Y-88600114D01*
X109808690Y-88578465D01*
X109814420Y-88560968D01*
X109818712Y-88547921D01*
X109821471Y-88539621D01*
X109822599Y-88536366D01*
X109822619Y-88536330D01*
X109825583Y-88536711D01*
X109832909Y-88538581D01*
X109843634Y-88541636D01*
X109856801Y-88545573D01*
X109871447Y-88550087D01*
X109886614Y-88554875D01*
X109901340Y-88559634D01*
X109914667Y-88564058D01*
X109925633Y-88567846D01*
X109933279Y-88570692D01*
X109936644Y-88572294D01*
X109936721Y-88572425D01*
X109935853Y-88575224D01*
X109933326Y-88583149D01*
X109929218Y-88595955D01*
X109923608Y-88613399D01*
X109916576Y-88635235D01*
X109908200Y-88661220D01*
X109898559Y-88691110D01*
X109887732Y-88724659D01*
X109875798Y-88761624D01*
X109862835Y-88801760D01*
X109848923Y-88844824D01*
X109834140Y-88890570D01*
X109818566Y-88938755D01*
X109802279Y-88989133D01*
X109785357Y-89041462D01*
X109767881Y-89095496D01*
X109749928Y-89150991D01*
X109747129Y-89159644D01*
X109729112Y-89215329D01*
X109711557Y-89269582D01*
X109694544Y-89322159D01*
X109678150Y-89372817D01*
X109662455Y-89421311D01*
X109647539Y-89467398D01*
X109633479Y-89510834D01*
X109620354Y-89551376D01*
X109608245Y-89588779D01*
X109597229Y-89622800D01*
X109587385Y-89653195D01*
X109578793Y-89679720D01*
X109571531Y-89702132D01*
X109565678Y-89720187D01*
X109561313Y-89733641D01*
X109558516Y-89742250D01*
X109557364Y-89745771D01*
X109557338Y-89745846D01*
X109554652Y-89745304D01*
X109547574Y-89743255D01*
X109537055Y-89740011D01*
X109524046Y-89735883D01*
X109509498Y-89731184D01*
X109494362Y-89726225D01*
X109479589Y-89721320D01*
X109466130Y-89716779D01*
X109454936Y-89712915D01*
X109446958Y-89710041D01*
X109443147Y-89708468D01*
X109442956Y-89708307D01*
X109443811Y-89705437D01*
G36*
X109452408Y-86437095D02*
X109455792Y-86435466D01*
X109463471Y-86432603D01*
X109474469Y-86428814D01*
X109487809Y-86424405D01*
X109502517Y-86419681D01*
X109517615Y-86414950D01*
X109532129Y-86410517D01*
X109545081Y-86406689D01*
X109555497Y-86403772D01*
X109562399Y-86402072D01*
X109564794Y-86401828D01*
X109565766Y-86404584D01*
X109568378Y-86412412D01*
X109572535Y-86425015D01*
X109578139Y-86442095D01*
X109585094Y-86463354D01*
X109593304Y-86488494D01*
X109602671Y-86517217D01*
X109613100Y-86549225D01*
X109624493Y-86584221D01*
X109636754Y-86621906D01*
X109649786Y-86661983D01*
X109663493Y-86704154D01*
X109677778Y-86748121D01*
X109692544Y-86793586D01*
X109707696Y-86840251D01*
X109723135Y-86887818D01*
X109738766Y-86935991D01*
X109754492Y-86984469D01*
X109770217Y-87032957D01*
X109785843Y-87081155D01*
X109801274Y-87128767D01*
X109816414Y-87175494D01*
X109831166Y-87221038D01*
X109845433Y-87265101D01*
X109859119Y-87307386D01*
X109872126Y-87347595D01*
X109884359Y-87385430D01*
X109895721Y-87420592D01*
X109906115Y-87452785D01*
X109915445Y-87481710D01*
X109923614Y-87507070D01*
X109930525Y-87528566D01*
X109936081Y-87545900D01*
X109940187Y-87558776D01*
X109942745Y-87566894D01*
X109943487Y-87569322D01*
X109943632Y-87571342D01*
X109942377Y-87573297D01*
X109939074Y-87575469D01*
X109933077Y-87578138D01*
X109923740Y-87581587D01*
X109910417Y-87586097D01*
X109892461Y-87591950D01*
X109888830Y-87593121D01*
X109871997Y-87598460D01*
X109857032Y-87603038D01*
X109844745Y-87606621D01*
X109835946Y-87608977D01*
X109831446Y-87609869D01*
X109831050Y-87609812D01*
X109829977Y-87606954D01*
X109827278Y-87599029D01*
X109823047Y-87586336D01*
X109817381Y-87569172D01*
X109810376Y-87547833D01*
X109802128Y-87522618D01*
X109792732Y-87493822D01*
X109782285Y-87461744D01*
X109770882Y-87426680D01*
X109758620Y-87388928D01*
X109745594Y-87348784D01*
X109731901Y-87306546D01*
X109717636Y-87262511D01*
X109702895Y-87216976D01*
X109687774Y-87170238D01*
X109672370Y-87122595D01*
X109656777Y-87074343D01*
X109641092Y-87025780D01*
X109625412Y-86977203D01*
X109609831Y-86928908D01*
X109594446Y-86881194D01*
X109579353Y-86834357D01*
X109564647Y-86788694D01*
X109550425Y-86744503D01*
X109536783Y-86702080D01*
X109523816Y-86661723D01*
X109511620Y-86623729D01*
X109500292Y-86588395D01*
X109489928Y-86556019D01*
X109480622Y-86526897D01*
X109472472Y-86501326D01*
X109465573Y-86479604D01*
X109460021Y-86462028D01*
X109455912Y-86448894D01*
X109453342Y-86440501D01*
X109452407Y-86437145D01*
X109452408Y-86437095D01*
X109452408Y-86437095D01*
G37*
X109452408Y-86437095D02*
X109455792Y-86435466D01*
X109463471Y-86432603D01*
X109474469Y-86428814D01*
X109487809Y-86424405D01*
X109502517Y-86419681D01*
X109517615Y-86414950D01*
X109532129Y-86410517D01*
X109545081Y-86406689D01*
X109555497Y-86403772D01*
X109562399Y-86402072D01*
X109564794Y-86401828D01*
X109565766Y-86404584D01*
X109568378Y-86412412D01*
X109572535Y-86425015D01*
X109578139Y-86442095D01*
X109585094Y-86463354D01*
X109593304Y-86488494D01*
X109602671Y-86517217D01*
X109613100Y-86549225D01*
X109624493Y-86584221D01*
X109636754Y-86621906D01*
X109649786Y-86661983D01*
X109663493Y-86704154D01*
X109677778Y-86748121D01*
X109692544Y-86793586D01*
X109707696Y-86840251D01*
X109723135Y-86887818D01*
X109738766Y-86935991D01*
X109754492Y-86984469D01*
X109770217Y-87032957D01*
X109785843Y-87081155D01*
X109801274Y-87128767D01*
X109816414Y-87175494D01*
X109831166Y-87221038D01*
X109845433Y-87265101D01*
X109859119Y-87307386D01*
X109872126Y-87347595D01*
X109884359Y-87385430D01*
X109895721Y-87420592D01*
X109906115Y-87452785D01*
X109915445Y-87481710D01*
X109923614Y-87507070D01*
X109930525Y-87528566D01*
X109936081Y-87545900D01*
X109940187Y-87558776D01*
X109942745Y-87566894D01*
X109943487Y-87569322D01*
X109943632Y-87571342D01*
X109942377Y-87573297D01*
X109939074Y-87575469D01*
X109933077Y-87578138D01*
X109923740Y-87581587D01*
X109910417Y-87586097D01*
X109892461Y-87591950D01*
X109888830Y-87593121D01*
X109871997Y-87598460D01*
X109857032Y-87603038D01*
X109844745Y-87606621D01*
X109835946Y-87608977D01*
X109831446Y-87609869D01*
X109831050Y-87609812D01*
X109829977Y-87606954D01*
X109827278Y-87599029D01*
X109823047Y-87586336D01*
X109817381Y-87569172D01*
X109810376Y-87547833D01*
X109802128Y-87522618D01*
X109792732Y-87493822D01*
X109782285Y-87461744D01*
X109770882Y-87426680D01*
X109758620Y-87388928D01*
X109745594Y-87348784D01*
X109731901Y-87306546D01*
X109717636Y-87262511D01*
X109702895Y-87216976D01*
X109687774Y-87170238D01*
X109672370Y-87122595D01*
X109656777Y-87074343D01*
X109641092Y-87025780D01*
X109625412Y-86977203D01*
X109609831Y-86928908D01*
X109594446Y-86881194D01*
X109579353Y-86834357D01*
X109564647Y-86788694D01*
X109550425Y-86744503D01*
X109536783Y-86702080D01*
X109523816Y-86661723D01*
X109511620Y-86623729D01*
X109500292Y-86588395D01*
X109489928Y-86556019D01*
X109480622Y-86526897D01*
X109472472Y-86501326D01*
X109465573Y-86479604D01*
X109460021Y-86462028D01*
X109455912Y-86448894D01*
X109453342Y-86440501D01*
X109452407Y-86437145D01*
X109452408Y-86437095D01*
G36*
X110053214Y-88573518D02*
X110060827Y-88572758D01*
X110072026Y-88571814D01*
X110085789Y-88570755D01*
X110101093Y-88569651D01*
X110116915Y-88568573D01*
X110132231Y-88567589D01*
X110146019Y-88566770D01*
X110157255Y-88566185D01*
X110164917Y-88565904D01*
X110167981Y-88565997D01*
X110167983Y-88565998D01*
X110168281Y-88568848D01*
X110168937Y-88577014D01*
X110169931Y-88590180D01*
X110171240Y-88608029D01*
X110172843Y-88630245D01*
X110174718Y-88656514D01*
X110176844Y-88686518D01*
X110179198Y-88719942D01*
X110181759Y-88756470D01*
X110184506Y-88795786D01*
X110187416Y-88837574D01*
X110190468Y-88881517D01*
X110193641Y-88927301D01*
X110196912Y-88974609D01*
X110200260Y-89023124D01*
X110203664Y-89072532D01*
X110207101Y-89122516D01*
X110210550Y-89172759D01*
X110213989Y-89222947D01*
X110217397Y-89272763D01*
X110220751Y-89321892D01*
X110224031Y-89370016D01*
X110227214Y-89416821D01*
X110230279Y-89461990D01*
X110233204Y-89505207D01*
X110235968Y-89546157D01*
X110238548Y-89584523D01*
X110240924Y-89619989D01*
X110243072Y-89652240D01*
X110244973Y-89680959D01*
X110246603Y-89705831D01*
X110247942Y-89726539D01*
X110248968Y-89742768D01*
X110249658Y-89754201D01*
X110249992Y-89760523D01*
X110250021Y-89761483D01*
X110249879Y-89769568D01*
X110248634Y-89773522D01*
X110245273Y-89774858D01*
X110240939Y-89775049D01*
X110235139Y-89775308D01*
X110224847Y-89775926D01*
X110211199Y-89776827D01*
X110195330Y-89777938D01*
X110182378Y-89778884D01*
X110166352Y-89780046D01*
X110152418Y-89780997D01*
X110141493Y-89781680D01*
X110134492Y-89782038D01*
X110132307Y-89782040D01*
X110132025Y-89779203D01*
X110131386Y-89771048D01*
X110130413Y-89757890D01*
X110129126Y-89740043D01*
X110127547Y-89717821D01*
X110125697Y-89691540D01*
X110123597Y-89661512D01*
X110121270Y-89628053D01*
X110118736Y-89591476D01*
X110116016Y-89552097D01*
X110113133Y-89510229D01*
X110110107Y-89466186D01*
X110106959Y-89420284D01*
X110103712Y-89372836D01*
X110100386Y-89324156D01*
X110097004Y-89274560D01*
X110093585Y-89224361D01*
X110090152Y-89173873D01*
X110086725Y-89123411D01*
X110083327Y-89073289D01*
X110079979Y-89023822D01*
X110076701Y-88975324D01*
X110073516Y-88928108D01*
X110070445Y-88882491D01*
X110067508Y-88838785D01*
X110064728Y-88797305D01*
X110062126Y-88758365D01*
X110059723Y-88722280D01*
X110057541Y-88689365D01*
X110055600Y-88659932D01*
X110053923Y-88634297D01*
X110052530Y-88612774D01*
X110051443Y-88595678D01*
X110050684Y-88583322D01*
X110050273Y-88576021D01*
X110050212Y-88574025D01*
X110053214Y-88573518D01*
X110053214Y-88573518D01*
G37*
X110053214Y-88573518D02*
X110060827Y-88572758D01*
X110072026Y-88571814D01*
X110085789Y-88570755D01*
X110101093Y-88569651D01*
X110116915Y-88568573D01*
X110132231Y-88567589D01*
X110146019Y-88566770D01*
X110157255Y-88566185D01*
X110164917Y-88565904D01*
X110167981Y-88565997D01*
X110167983Y-88565998D01*
X110168281Y-88568848D01*
X110168937Y-88577014D01*
X110169931Y-88590180D01*
X110171240Y-88608029D01*
X110172843Y-88630245D01*
X110174718Y-88656514D01*
X110176844Y-88686518D01*
X110179198Y-88719942D01*
X110181759Y-88756470D01*
X110184506Y-88795786D01*
X110187416Y-88837574D01*
X110190468Y-88881517D01*
X110193641Y-88927301D01*
X110196912Y-88974609D01*
X110200260Y-89023124D01*
X110203664Y-89072532D01*
X110207101Y-89122516D01*
X110210550Y-89172759D01*
X110213989Y-89222947D01*
X110217397Y-89272763D01*
X110220751Y-89321892D01*
X110224031Y-89370016D01*
X110227214Y-89416821D01*
X110230279Y-89461990D01*
X110233204Y-89505207D01*
X110235968Y-89546157D01*
X110238548Y-89584523D01*
X110240924Y-89619989D01*
X110243072Y-89652240D01*
X110244973Y-89680959D01*
X110246603Y-89705831D01*
X110247942Y-89726539D01*
X110248968Y-89742768D01*
X110249658Y-89754201D01*
X110249992Y-89760523D01*
X110250021Y-89761483D01*
X110249879Y-89769568D01*
X110248634Y-89773522D01*
X110245273Y-89774858D01*
X110240939Y-89775049D01*
X110235139Y-89775308D01*
X110224847Y-89775926D01*
X110211199Y-89776827D01*
X110195330Y-89777938D01*
X110182378Y-89778884D01*
X110166352Y-89780046D01*
X110152418Y-89780997D01*
X110141493Y-89781680D01*
X110134492Y-89782038D01*
X110132307Y-89782040D01*
X110132025Y-89779203D01*
X110131386Y-89771048D01*
X110130413Y-89757890D01*
X110129126Y-89740043D01*
X110127547Y-89717821D01*
X110125697Y-89691540D01*
X110123597Y-89661512D01*
X110121270Y-89628053D01*
X110118736Y-89591476D01*
X110116016Y-89552097D01*
X110113133Y-89510229D01*
X110110107Y-89466186D01*
X110106959Y-89420284D01*
X110103712Y-89372836D01*
X110100386Y-89324156D01*
X110097004Y-89274560D01*
X110093585Y-89224361D01*
X110090152Y-89173873D01*
X110086725Y-89123411D01*
X110083327Y-89073289D01*
X110079979Y-89023822D01*
X110076701Y-88975324D01*
X110073516Y-88928108D01*
X110070445Y-88882491D01*
X110067508Y-88838785D01*
X110064728Y-88797305D01*
X110062126Y-88758365D01*
X110059723Y-88722280D01*
X110057541Y-88689365D01*
X110055600Y-88659932D01*
X110053923Y-88634297D01*
X110052530Y-88612774D01*
X110051443Y-88595678D01*
X110050684Y-88583322D01*
X110050273Y-88576021D01*
X110050212Y-88574025D01*
X110053214Y-88573518D01*
G36*
X110058653Y-87569091D02*
X110059115Y-87560923D01*
X110059922Y-87547753D01*
X110061054Y-87529895D01*
X110062488Y-87507663D01*
X110064205Y-87481372D01*
X110066181Y-87451336D01*
X110068397Y-87417869D01*
X110070830Y-87381286D01*
X110073459Y-87341901D01*
X110076263Y-87300028D01*
X110079220Y-87255982D01*
X110082309Y-87210077D01*
X110085509Y-87162628D01*
X110088799Y-87113948D01*
X110092156Y-87064352D01*
X110095560Y-87014155D01*
X110098989Y-86963671D01*
X110102422Y-86913214D01*
X110105838Y-86863098D01*
X110109214Y-86813638D01*
X110112531Y-86765148D01*
X110115765Y-86717943D01*
X110118897Y-86672337D01*
X110121905Y-86628644D01*
X110124766Y-86587178D01*
X110127461Y-86548255D01*
X110129967Y-86512188D01*
X110132264Y-86479291D01*
X110134329Y-86449879D01*
X110136142Y-86424267D01*
X110137680Y-86402768D01*
X110138924Y-86385697D01*
X110139851Y-86373368D01*
X110140440Y-86366096D01*
X110140656Y-86364127D01*
X110143585Y-86364083D01*
X110151249Y-86364423D01*
X110162756Y-86365095D01*
X110177213Y-86366046D01*
X110193667Y-86367220D01*
X110210657Y-86368456D01*
X110226042Y-86369540D01*
X110238802Y-86370402D01*
X110247912Y-86370973D01*
X110252228Y-86371183D01*
X110255590Y-86371631D01*
X110257458Y-86373670D01*
X110258223Y-86378552D01*
X110258279Y-86387531D01*
X110258232Y-86390339D01*
X110258005Y-86394993D01*
X110257405Y-86405006D01*
X110256451Y-86420103D01*
X110255160Y-86440011D01*
X110253552Y-86464458D01*
X110251645Y-86493169D01*
X110249457Y-86525873D01*
X110247006Y-86562295D01*
X110244312Y-86602162D01*
X110241392Y-86645202D01*
X110238265Y-86691141D01*
X110234950Y-86739707D01*
X110231465Y-86790625D01*
X110227828Y-86843622D01*
X110224058Y-86898427D01*
X110220173Y-86954764D01*
X110217491Y-86993589D01*
X110213553Y-87050536D01*
X110209718Y-87105983D01*
X110206004Y-87159666D01*
X110202430Y-87211325D01*
X110199013Y-87260695D01*
X110195772Y-87307514D01*
X110192725Y-87351521D01*
X110189890Y-87392451D01*
X110187285Y-87430043D01*
X110184929Y-87464035D01*
X110182840Y-87494162D01*
X110181036Y-87520164D01*
X110179534Y-87541777D01*
X110178354Y-87558740D01*
X110177514Y-87570788D01*
X110177031Y-87577660D01*
X110176915Y-87579258D01*
X110174217Y-87579472D01*
X110166894Y-87579326D01*
X110155953Y-87578880D01*
X110142396Y-87578198D01*
X110127229Y-87577340D01*
X110111457Y-87576370D01*
X110096083Y-87575349D01*
X110082112Y-87574340D01*
X110070550Y-87573404D01*
X110062399Y-87572604D01*
X110058666Y-87572002D01*
X110058559Y-87571942D01*
X110058653Y-87569091D01*
X110058653Y-87569091D01*
G37*
X110058653Y-87569091D02*
X110059115Y-87560923D01*
X110059922Y-87547753D01*
X110061054Y-87529895D01*
X110062488Y-87507663D01*
X110064205Y-87481372D01*
X110066181Y-87451336D01*
X110068397Y-87417869D01*
X110070830Y-87381286D01*
X110073459Y-87341901D01*
X110076263Y-87300028D01*
X110079220Y-87255982D01*
X110082309Y-87210077D01*
X110085509Y-87162628D01*
X110088799Y-87113948D01*
X110092156Y-87064352D01*
X110095560Y-87014155D01*
X110098989Y-86963671D01*
X110102422Y-86913214D01*
X110105838Y-86863098D01*
X110109214Y-86813638D01*
X110112531Y-86765148D01*
X110115765Y-86717943D01*
X110118897Y-86672337D01*
X110121905Y-86628644D01*
X110124766Y-86587178D01*
X110127461Y-86548255D01*
X110129967Y-86512188D01*
X110132264Y-86479291D01*
X110134329Y-86449879D01*
X110136142Y-86424267D01*
X110137680Y-86402768D01*
X110138924Y-86385697D01*
X110139851Y-86373368D01*
X110140440Y-86366096D01*
X110140656Y-86364127D01*
X110143585Y-86364083D01*
X110151249Y-86364423D01*
X110162756Y-86365095D01*
X110177213Y-86366046D01*
X110193667Y-86367220D01*
X110210657Y-86368456D01*
X110226042Y-86369540D01*
X110238802Y-86370402D01*
X110247912Y-86370973D01*
X110252228Y-86371183D01*
X110255590Y-86371631D01*
X110257458Y-86373670D01*
X110258223Y-86378552D01*
X110258279Y-86387531D01*
X110258232Y-86390339D01*
X110258005Y-86394993D01*
X110257405Y-86405006D01*
X110256451Y-86420103D01*
X110255160Y-86440011D01*
X110253552Y-86464458D01*
X110251645Y-86493169D01*
X110249457Y-86525873D01*
X110247006Y-86562295D01*
X110244312Y-86602162D01*
X110241392Y-86645202D01*
X110238265Y-86691141D01*
X110234950Y-86739707D01*
X110231465Y-86790625D01*
X110227828Y-86843622D01*
X110224058Y-86898427D01*
X110220173Y-86954764D01*
X110217491Y-86993589D01*
X110213553Y-87050536D01*
X110209718Y-87105983D01*
X110206004Y-87159666D01*
X110202430Y-87211325D01*
X110199013Y-87260695D01*
X110195772Y-87307514D01*
X110192725Y-87351521D01*
X110189890Y-87392451D01*
X110187285Y-87430043D01*
X110184929Y-87464035D01*
X110182840Y-87494162D01*
X110181036Y-87520164D01*
X110179534Y-87541777D01*
X110178354Y-87558740D01*
X110177514Y-87570788D01*
X110177031Y-87577660D01*
X110176915Y-87579258D01*
X110174217Y-87579472D01*
X110166894Y-87579326D01*
X110155953Y-87578880D01*
X110142396Y-87578198D01*
X110127229Y-87577340D01*
X110111457Y-87576370D01*
X110096083Y-87575349D01*
X110082112Y-87574340D01*
X110070550Y-87573404D01*
X110062399Y-87572604D01*
X110058666Y-87572002D01*
X110058559Y-87571942D01*
X110058653Y-87569091D01*
G36*
X109547378Y-87807800D02*
X109547378Y-87996889D01*
X110540800Y-87996889D01*
X110540800Y-88183155D01*
X109547378Y-88183155D01*
X109547378Y-88372244D01*
X109378045Y-88372244D01*
X109378045Y-87807800D01*
X109547378Y-87807800D01*
X109547378Y-87807800D01*
G37*
X109547378Y-87807800D02*
X109547378Y-87996889D01*
X110540800Y-87996889D01*
X110540800Y-88183155D01*
X109547378Y-88183155D01*
X109547378Y-88372244D01*
X109378045Y-88372244D01*
X109378045Y-87807800D01*
X109547378Y-87807800D01*
G36*
X110292153Y-88575871D02*
X110299110Y-88573267D01*
X110309539Y-88569589D01*
X110322487Y-88565153D01*
X110337001Y-88560273D01*
X110352129Y-88555265D01*
X110366915Y-88550443D01*
X110380409Y-88546122D01*
X110391655Y-88542619D01*
X110399701Y-88540247D01*
X110403594Y-88539322D01*
X110403804Y-88539350D01*
X110404714Y-88542074D01*
X110407281Y-88549923D01*
X110411425Y-88562651D01*
X110417067Y-88580014D01*
X110424126Y-88601766D01*
X110432524Y-88627662D01*
X110442181Y-88657455D01*
X110453017Y-88690901D01*
X110464954Y-88727754D01*
X110477911Y-88767768D01*
X110491809Y-88810698D01*
X110506568Y-88856299D01*
X110522109Y-88904324D01*
X110538353Y-88954530D01*
X110555219Y-89006669D01*
X110572629Y-89060497D01*
X110590503Y-89115768D01*
X110591335Y-89118341D01*
X110609243Y-89173718D01*
X110626698Y-89227689D01*
X110643620Y-89280006D01*
X110659930Y-89330422D01*
X110675547Y-89378690D01*
X110690390Y-89424563D01*
X110704381Y-89467793D01*
X110717439Y-89508133D01*
X110729484Y-89545337D01*
X110740436Y-89579156D01*
X110750215Y-89609344D01*
X110758741Y-89635653D01*
X110765933Y-89657837D01*
X110771713Y-89675647D01*
X110775999Y-89688837D01*
X110778712Y-89697160D01*
X110779772Y-89700368D01*
X110779778Y-89700385D01*
X110778641Y-89704284D01*
X110774477Y-89706835D01*
X110767587Y-89709280D01*
X110757217Y-89712745D01*
X110744345Y-89716924D01*
X110729949Y-89721512D01*
X110715009Y-89726204D01*
X110700504Y-89730696D01*
X110687410Y-89734681D01*
X110676708Y-89737855D01*
X110669377Y-89739912D01*
X110666393Y-89740548D01*
X110666377Y-89740539D01*
X110665439Y-89737817D01*
X110662861Y-89730022D01*
X110658741Y-89717453D01*
X110653174Y-89700408D01*
X110646258Y-89679186D01*
X110638089Y-89654084D01*
X110628763Y-89625402D01*
X110618378Y-89593437D01*
X110607030Y-89558489D01*
X110594816Y-89520855D01*
X110581831Y-89480833D01*
X110568174Y-89438722D01*
X110553940Y-89394821D01*
X110539225Y-89349428D01*
X110524128Y-89302840D01*
X110508743Y-89255357D01*
X110493169Y-89207277D01*
X110477501Y-89158898D01*
X110461836Y-89110518D01*
X110446271Y-89062436D01*
X110430902Y-89014950D01*
X110415826Y-88968359D01*
X110401140Y-88922961D01*
X110386939Y-88879054D01*
X110373322Y-88836936D01*
X110360384Y-88796907D01*
X110348221Y-88759263D01*
X110336932Y-88724305D01*
X110326611Y-88692329D01*
X110317357Y-88663635D01*
X110309265Y-88638520D01*
X110302432Y-88617284D01*
X110296954Y-88600223D01*
X110292929Y-88587638D01*
X110290453Y-88579826D01*
X110289622Y-88577087D01*
X110292153Y-88575871D01*
X110292153Y-88575871D01*
G37*
X110292153Y-88575871D02*
X110299110Y-88573267D01*
X110309539Y-88569589D01*
X110322487Y-88565153D01*
X110337001Y-88560273D01*
X110352129Y-88555265D01*
X110366915Y-88550443D01*
X110380409Y-88546122D01*
X110391655Y-88542619D01*
X110399701Y-88540247D01*
X110403594Y-88539322D01*
X110403804Y-88539350D01*
X110404714Y-88542074D01*
X110407281Y-88549923D01*
X110411425Y-88562651D01*
X110417067Y-88580014D01*
X110424126Y-88601766D01*
X110432524Y-88627662D01*
X110442181Y-88657455D01*
X110453017Y-88690901D01*
X110464954Y-88727754D01*
X110477911Y-88767768D01*
X110491809Y-88810698D01*
X110506568Y-88856299D01*
X110522109Y-88904324D01*
X110538353Y-88954530D01*
X110555219Y-89006669D01*
X110572629Y-89060497D01*
X110590503Y-89115768D01*
X110591335Y-89118341D01*
X110609243Y-89173718D01*
X110626698Y-89227689D01*
X110643620Y-89280006D01*
X110659930Y-89330422D01*
X110675547Y-89378690D01*
X110690390Y-89424563D01*
X110704381Y-89467793D01*
X110717439Y-89508133D01*
X110729484Y-89545337D01*
X110740436Y-89579156D01*
X110750215Y-89609344D01*
X110758741Y-89635653D01*
X110765933Y-89657837D01*
X110771713Y-89675647D01*
X110775999Y-89688837D01*
X110778712Y-89697160D01*
X110779772Y-89700368D01*
X110779778Y-89700385D01*
X110778641Y-89704284D01*
X110774477Y-89706835D01*
X110767587Y-89709280D01*
X110757217Y-89712745D01*
X110744345Y-89716924D01*
X110729949Y-89721512D01*
X110715009Y-89726204D01*
X110700504Y-89730696D01*
X110687410Y-89734681D01*
X110676708Y-89737855D01*
X110669377Y-89739912D01*
X110666393Y-89740548D01*
X110666377Y-89740539D01*
X110665439Y-89737817D01*
X110662861Y-89730022D01*
X110658741Y-89717453D01*
X110653174Y-89700408D01*
X110646258Y-89679186D01*
X110638089Y-89654084D01*
X110628763Y-89625402D01*
X110618378Y-89593437D01*
X110607030Y-89558489D01*
X110594816Y-89520855D01*
X110581831Y-89480833D01*
X110568174Y-89438722D01*
X110553940Y-89394821D01*
X110539225Y-89349428D01*
X110524128Y-89302840D01*
X110508743Y-89255357D01*
X110493169Y-89207277D01*
X110477501Y-89158898D01*
X110461836Y-89110518D01*
X110446271Y-89062436D01*
X110430902Y-89014950D01*
X110415826Y-88968359D01*
X110401140Y-88922961D01*
X110386939Y-88879054D01*
X110373322Y-88836936D01*
X110360384Y-88796907D01*
X110348221Y-88759263D01*
X110336932Y-88724305D01*
X110326611Y-88692329D01*
X110317357Y-88663635D01*
X110309265Y-88638520D01*
X110302432Y-88617284D01*
X110296954Y-88600223D01*
X110292929Y-88587638D01*
X110290453Y-88579826D01*
X110289622Y-88577087D01*
X110292153Y-88575871D01*
G36*
X110299182Y-87564214D02*
X110300322Y-87560490D01*
X110303091Y-87551751D01*
X110307393Y-87538296D01*
X110313131Y-87520425D01*
X110320207Y-87498435D01*
X110328525Y-87472628D01*
X110337988Y-87443301D01*
X110348499Y-87410753D01*
X110359960Y-87375284D01*
X110372276Y-87337192D01*
X110385349Y-87296777D01*
X110399082Y-87254338D01*
X110413378Y-87210173D01*
X110428140Y-87164582D01*
X110443272Y-87117863D01*
X110458676Y-87070316D01*
X110474256Y-87022240D01*
X110489914Y-86973934D01*
X110505554Y-86925696D01*
X110521078Y-86877826D01*
X110536390Y-86830623D01*
X110551393Y-86784386D01*
X110565990Y-86739413D01*
X110580083Y-86696005D01*
X110593577Y-86654459D01*
X110606374Y-86615076D01*
X110618376Y-86578153D01*
X110629488Y-86543990D01*
X110639613Y-86512887D01*
X110648652Y-86485141D01*
X110656510Y-86461053D01*
X110663089Y-86440920D01*
X110668293Y-86425043D01*
X110672024Y-86413720D01*
X110674186Y-86407250D01*
X110674718Y-86405763D01*
X110677637Y-86406205D01*
X110684933Y-86408136D01*
X110695631Y-86411246D01*
X110708757Y-86415227D01*
X110723339Y-86419768D01*
X110738401Y-86424560D01*
X110752971Y-86429294D01*
X110766074Y-86433660D01*
X110776736Y-86437348D01*
X110783984Y-86440049D01*
X110786796Y-86441392D01*
X110786119Y-86444215D01*
X110783778Y-86452162D01*
X110779851Y-86464986D01*
X110774416Y-86482443D01*
X110767553Y-86504286D01*
X110759340Y-86530270D01*
X110749854Y-86560149D01*
X110739174Y-86593678D01*
X110727380Y-86630612D01*
X110714548Y-86670704D01*
X110700759Y-86713710D01*
X110686089Y-86759383D01*
X110670618Y-86807478D01*
X110654423Y-86857750D01*
X110637584Y-86909953D01*
X110620179Y-86963842D01*
X110602286Y-87019171D01*
X110600975Y-87023222D01*
X110583029Y-87078655D01*
X110565533Y-87132664D01*
X110548566Y-87185004D01*
X110532209Y-87235428D01*
X110516541Y-87283692D01*
X110501642Y-87329550D01*
X110487593Y-87372755D01*
X110474474Y-87413063D01*
X110462364Y-87450228D01*
X110451344Y-87484003D01*
X110441494Y-87514144D01*
X110432894Y-87540405D01*
X110425623Y-87562540D01*
X110419763Y-87580304D01*
X110415392Y-87593450D01*
X110412591Y-87601734D01*
X110411440Y-87604909D01*
X110411423Y-87604934D01*
X110408304Y-87604624D01*
X110400648Y-87602761D01*
X110389275Y-87599578D01*
X110375004Y-87595305D01*
X110358653Y-87590176D01*
X110353564Y-87588537D01*
X110334859Y-87582442D01*
X110320881Y-87577753D01*
X110310976Y-87574177D01*
X110304488Y-87571421D01*
X110300763Y-87569192D01*
X110299146Y-87567197D01*
X110298981Y-87565144D01*
X110299182Y-87564214D01*
X110299182Y-87564214D01*
G37*
X110299182Y-87564214D02*
X110300322Y-87560490D01*
X110303091Y-87551751D01*
X110307393Y-87538296D01*
X110313131Y-87520425D01*
X110320207Y-87498435D01*
X110328525Y-87472628D01*
X110337988Y-87443301D01*
X110348499Y-87410753D01*
X110359960Y-87375284D01*
X110372276Y-87337192D01*
X110385349Y-87296777D01*
X110399082Y-87254338D01*
X110413378Y-87210173D01*
X110428140Y-87164582D01*
X110443272Y-87117863D01*
X110458676Y-87070316D01*
X110474256Y-87022240D01*
X110489914Y-86973934D01*
X110505554Y-86925696D01*
X110521078Y-86877826D01*
X110536390Y-86830623D01*
X110551393Y-86784386D01*
X110565990Y-86739413D01*
X110580083Y-86696005D01*
X110593577Y-86654459D01*
X110606374Y-86615076D01*
X110618376Y-86578153D01*
X110629488Y-86543990D01*
X110639613Y-86512887D01*
X110648652Y-86485141D01*
X110656510Y-86461053D01*
X110663089Y-86440920D01*
X110668293Y-86425043D01*
X110672024Y-86413720D01*
X110674186Y-86407250D01*
X110674718Y-86405763D01*
X110677637Y-86406205D01*
X110684933Y-86408136D01*
X110695631Y-86411246D01*
X110708757Y-86415227D01*
X110723339Y-86419768D01*
X110738401Y-86424560D01*
X110752971Y-86429294D01*
X110766074Y-86433660D01*
X110776736Y-86437348D01*
X110783984Y-86440049D01*
X110786796Y-86441392D01*
X110786119Y-86444215D01*
X110783778Y-86452162D01*
X110779851Y-86464986D01*
X110774416Y-86482443D01*
X110767553Y-86504286D01*
X110759340Y-86530270D01*
X110749854Y-86560149D01*
X110739174Y-86593678D01*
X110727380Y-86630612D01*
X110714548Y-86670704D01*
X110700759Y-86713710D01*
X110686089Y-86759383D01*
X110670618Y-86807478D01*
X110654423Y-86857750D01*
X110637584Y-86909953D01*
X110620179Y-86963842D01*
X110602286Y-87019171D01*
X110600975Y-87023222D01*
X110583029Y-87078655D01*
X110565533Y-87132664D01*
X110548566Y-87185004D01*
X110532209Y-87235428D01*
X110516541Y-87283692D01*
X110501642Y-87329550D01*
X110487593Y-87372755D01*
X110474474Y-87413063D01*
X110462364Y-87450228D01*
X110451344Y-87484003D01*
X110441494Y-87514144D01*
X110432894Y-87540405D01*
X110425623Y-87562540D01*
X110419763Y-87580304D01*
X110415392Y-87593450D01*
X110412591Y-87601734D01*
X110411440Y-87604909D01*
X110411423Y-87604934D01*
X110408304Y-87604624D01*
X110400648Y-87602761D01*
X110389275Y-87599578D01*
X110375004Y-87595305D01*
X110358653Y-87590176D01*
X110353564Y-87588537D01*
X110334859Y-87582442D01*
X110320881Y-87577753D01*
X110310976Y-87574177D01*
X110304488Y-87571421D01*
X110300763Y-87569192D01*
X110299146Y-87567197D01*
X110298981Y-87565144D01*
X110299182Y-87564214D01*
G04 #@! TO.C,J2*
D12*
X115835180Y-88471333D02*
X116549466Y-88471333D01*
X116692323Y-88518952D01*
X116787561Y-88614190D01*
X116835180Y-88757047D01*
X116835180Y-88852285D01*
X115930419Y-88042761D02*
X115882800Y-87995142D01*
X115835180Y-87899904D01*
X115835180Y-87661809D01*
X115882800Y-87566571D01*
X115930419Y-87518952D01*
X116025657Y-87471333D01*
X116120895Y-87471333D01*
X116263752Y-87518952D01*
X116835180Y-88090380D01*
X116835180Y-87471333D01*
G04 #@! TO.C,J1*
X101661980Y-88339733D02*
X102376266Y-88339733D01*
X102519123Y-88387352D01*
X102614361Y-88482590D01*
X102661980Y-88625447D01*
X102661980Y-88720685D01*
X102661980Y-87339733D02*
X102661980Y-87911161D01*
X102661980Y-87625447D02*
X101661980Y-87625447D01*
X101804838Y-87720685D01*
X101900076Y-87815923D01*
X101947695Y-87911161D01*
G04 #@! TD*
M02*
