<?xml version="1.0" encoding="UTF-8" standalone="no"?>
<svg
   xmlns:dc="http://purl.org/dc/elements/1.1/"
   xmlns:cc="http://creativecommons.org/ns#"
   xmlns:rdf="http://www.w3.org/1999/02/22-rdf-syntax-ns#"
   xmlns:svg="http://www.w3.org/2000/svg"
   xmlns="http://www.w3.org/2000/svg"
   xmlns:sodipodi="http://sodipodi.sourceforge.net/DTD/sodipodi-0.dtd"
   xmlns:inkscape="http://www.inkscape.org/namespaces/inkscape"
   version="1.1"
   width="1.4026914cm"
   height="1.0949931cm"
   viewBox="0 0 5522.4108 4311.0006"
   id="svg134"
   sodipodi:docname="Audio-F.Cu.svg"
   inkscape:version="0.92.3 (2405546, 2018-03-11)">
  <metadata
     id="metadata140">
    <rdf:RDF>
      <cc:Work
         rdf:about="">
        <dc:format>image/svg+xml</dc:format>
        <dc:type
           rdf:resource="http://purl.org/dc/dcmitype/StillImage" />
        <dc:title>SVG Picture created as Audio-F.Cu.svg date 2018/12/30 22:28:53 </dc:title>
      </cc:Work>
    </rdf:RDF>
  </metadata>
  <defs
     id="defs138" />
  <sodipodi:namedview
     pagecolor="#ffffff"
     bordercolor="#666666"
     borderopacity="1"
     objecttolerance="10"
     gridtolerance="10"
     guidetolerance="10"
     inkscape:pageopacity="0"
     inkscape:pageshadow="2"
     inkscape:window-width="1920"
     inkscape:window-height="1057"
     id="namedview136"
     showgrid="false"
     inkscape:zoom="1.5821829"
     inkscape:cx="310.22832"
     inkscape:cy="209.12142"
     inkscape:window-x="-8"
     inkscape:window-y="-8"
     inkscape:window-maximized="1"
     inkscape:current-layer="svg134" />
  <title
     id="title76">SVG Picture created as Audio-F.Cu.svg date 2018/12/30 22:28:53 </title>
  <desc
     id="desc78">Picture generated by PCBNEW </desc>
  <g
     style="fill:#000000;fill-opacity:1;stroke:#000000;stroke-linecap:round;stroke-linejoin:round;stroke-opacity:1"
     transform="translate(-56397,-36974)"
     id="g80" />
  <g
     style="fill:#000000;fill-opacity:0;stroke:#000000;stroke-width:-0.0003937;stroke-linecap:round;stroke-linejoin:round;stroke-opacity:1"
     id="g82"
     transform="translate(-56397,-36974)" />
  <g
     style="fill:#000000;fill-opacity:0;stroke:#000000;stroke-width:0;stroke-linecap:round;stroke-linejoin:round;stroke-opacity:1"
     id="g84"
     transform="translate(-56397,-36974)" />
  <g
     style="fill:#000000;fill-opacity:1;stroke:#000000;stroke-width:0;stroke-linecap:round;stroke-linejoin:round;stroke-opacity:1"
     id="g104"
     transform="translate(-56397,-36974)">
    <polyline
       style="fill-rule:evenodd"
       points="58602,40478 57933,40478 57933,40242 58602,40242 58602,40478 "
       id="polyline86" />
    <polyline
       style="fill-rule:evenodd"
       points="58602,39986 57933,39986 57933,39750 58602,39750 58602,39986 "
       id="polyline88" />
    <polyline
       style="fill-rule:evenodd"
       points="58602,39494 57933,39494 57933,39257 58602,39257 58602,39494 "
       id="polyline90" />
    <polyline
       style="fill-rule:evenodd"
       points="58602,39002 57933,39002 57933,38765 58602,38765 58602,39002 "
       id="polyline92" />
    <polyline
       style="fill-rule:evenodd"
       points="58602,38509 57933,38509 57933,38273 58602,38273 58602,38509 "
       id="polyline94" />
    <polyline
       style="fill-rule:evenodd"
       points="58602,38017 57933,38017 57933,37781 58602,37781 58602,38017 "
       id="polyline96" />
    <polyline
       style="fill-rule:evenodd"
       points="57500,41285 56397,41285 56397,40891 57500,40891 57500,41285 "
       id="polyline98" />
    <polyline
       style="fill-rule:evenodd"
       points="57500,37368 56397,37368 56397,36974 57500,36974 57500,37368 "
       id="polyline100" />
    <polyline
       style="fill-rule:evenodd"
       points="61914,40225 61914,40894 61245,40894 61245,40225 61914,40225 "
       id="polyline102" />
  </g>
  <g
     style="fill:#000000;fill-opacity:1;stroke:#000000;stroke-width:669.29101562;stroke-linecap:round;stroke-linejoin:round;stroke-opacity:1"
     id="g106"
     transform="translate(-56397,-36974)" />
  <g
     style="fill:#000000;fill-opacity:0;stroke:#000000;stroke-width:669.29101562;stroke-linecap:round;stroke-linejoin:round;stroke-opacity:1"
     id="g114"
     transform="translate(-56397,-36974)">
    <path
       d="m 61580,39560 v 0"
       id="path108"
       inkscape:connector-curvature="0" />
    <path
       d="m 61580,38560 v 0"
       id="path110"
       inkscape:connector-curvature="0" />
    <path
       d="m 61580,37560 v 0"
       id="path112"
       inkscape:connector-curvature="0" />
  </g>
  <g
     style="fill:#000000;fill-opacity:0;stroke:#000000;stroke-width:295.27600098;stroke-linecap:round;stroke-linejoin:round;stroke-opacity:1"
     id="g132"
     transform="translate(-56397,-36974)">
    <path
       d="m 58267,39376 h 1049"
       id="path116"
       inkscape:connector-curvature="0" />
    <path
       d="m 60500,40560 h 1080"
       id="path118"
       inkscape:connector-curvature="0" />
    <path
       d="m 59316,39376 1184,1184"
       id="path120"
       inkscape:connector-curvature="0" />
    <path
       d="m 61256,38883 324,-323"
       id="path122"
       inkscape:connector-curvature="0" />
    <path
       d="m 58267,38883 h 2989"
       id="path124"
       inkscape:connector-curvature="0" />
    <path
       d="m 58267,38391 h 1081"
       id="path126"
       inkscape:connector-curvature="0" />
    <path
       d="m 60180,37560 h 1400"
       id="path128"
       inkscape:connector-curvature="0" />
    <path
       d="m 59348,38391 832,-831"
       id="path130"
       inkscape:connector-curvature="0" />
  </g>
</svg>
