G04 #@! TF.GenerationSoftware,KiCad,Pcbnew,(5.0.0)*
G04 #@! TF.CreationDate,2019-01-07T23:24:32-05:00*
G04 #@! TF.ProjectId,Audio_Breakout,417564696F5F427265616B6F75742E6B,rev?*
G04 #@! TF.SameCoordinates,Original*
G04 #@! TF.FileFunction,Copper,L2,Inr,Signal*
G04 #@! TF.FilePolarity,Positive*
%FSLAX46Y46*%
G04 Gerber Fmt 4.6, Leading zero omitted, Abs format (unit mm)*
G04 Created by KiCad (PCBNEW (5.0.0)) date 01/07/19 23:24:32*
%MOMM*%
%LPD*%
G01*
G04 APERTURE LIST*
G04 #@! TA.AperFunction,NonConductor*
%ADD10C,0.300000*%
G04 #@! TD*
G04 #@! TA.AperFunction,ViaPad*
%ADD11O,1.700000X1.700000*%
G04 #@! TD*
G04 #@! TA.AperFunction,ViaPad*
%ADD12R,1.700000X1.700000*%
G04 #@! TD*
G04 #@! TA.AperFunction,ViaPad*
%ADD13C,0.800000*%
G04 #@! TD*
G04 #@! TA.AperFunction,Conductor*
%ADD14C,0.250000*%
G04 #@! TD*
G04 #@! TA.AperFunction,Conductor*
%ADD15C,0.254000*%
G04 #@! TD*
G04 APERTURE END LIST*
D10*
X123658048Y-147868248D02*
X123729477Y-147796820D01*
X123872334Y-147725391D01*
X124229477Y-147725391D01*
X124372334Y-147796820D01*
X124443762Y-147868248D01*
X124515191Y-148011105D01*
X124515191Y-148153962D01*
X124443762Y-148368248D01*
X123586620Y-149225391D01*
X124515191Y-149225391D01*
D11*
G04 #@! TO.N,AGND*
G04 #@! TO.C,J6*
X148082000Y-113157000D03*
D12*
G04 #@! TO.N,Net-(J6-Pad1)*
X148082000Y-115697000D03*
G04 #@! TD*
D11*
G04 #@! TO.N,AUD_OUT-*
G04 #@! TO.C,J7*
X148069300Y-128612900D03*
D12*
G04 #@! TO.N,AUD_OUT+*
X148069300Y-131152900D03*
G04 #@! TD*
D11*
G04 #@! TO.N,AUD_OUT-*
G04 #@! TO.C,J8*
X148061680Y-139354560D03*
D12*
G04 #@! TO.N,AUD_OUT+*
X148061680Y-136814560D03*
G04 #@! TD*
G04 #@! TO.N,Net-(C7-Pad2)*
G04 #@! TO.C,J9*
X129171700Y-134835900D03*
G04 #@! TD*
D13*
G04 #@! TO.N,AGND*
X103891080Y-145496280D03*
X103926640Y-132184140D03*
X108775500Y-110949740D03*
X124879100Y-145224500D03*
X135694420Y-144924780D03*
X145280380Y-147929600D03*
X140055600Y-141599920D03*
X143395700Y-148376640D03*
X139072620Y-134708900D03*
X133350000Y-131191000D03*
X137795000Y-129540000D03*
G04 #@! TO.N,3V3DC*
X101663500Y-104802940D03*
X119791480Y-106537760D03*
X117678200Y-121757440D03*
X117571520Y-123131580D03*
X118851680Y-122323860D03*
X117571520Y-124523500D03*
X118795800Y-123868180D03*
X119893080Y-128183640D03*
X131445000Y-132118100D03*
X134127240Y-143972280D03*
G04 #@! TO.N,DGND*
X102824280Y-143951960D03*
X102661720Y-131348480D03*
X102407720Y-119214900D03*
X101414580Y-110484920D03*
G04 #@! TO.N,5VDC*
X131610100Y-137657840D03*
X117546120Y-131909820D03*
X110375700Y-106573320D03*
X121381520Y-102956360D03*
G04 #@! TO.N,Net-(J1-Pad5)*
X108221780Y-141097000D03*
X108686600Y-126362460D03*
X108668820Y-129697480D03*
X115140740Y-126695200D03*
G04 #@! TO.N,MIC_1*
X107091480Y-125366780D03*
G04 #@! TO.N,MIC_0*
X107121960Y-124007880D03*
G04 #@! TO.N,GPIO1_2*
X106946700Y-122011440D03*
G04 #@! TO.N,GPIO1_9*
X103698040Y-118358920D03*
X130393440Y-147797520D03*
G04 #@! TO.N,GPIO1_4*
X105313480Y-102011480D03*
X103802180Y-116652040D03*
G04 #@! TO.N,AGND*
X138430000Y-126746000D03*
X132461000Y-123444000D03*
X131953000Y-115189000D03*
X121412000Y-105537000D03*
X147828000Y-117919500D03*
X148209000Y-109791500D03*
G04 #@! TO.N,3V3DC*
X124333000Y-123444000D03*
X122682000Y-119380000D03*
X145923000Y-109664500D03*
G04 #@! TO.N,MIC_1*
X114300000Y-117348000D03*
G04 #@! TO.N,MIC_0*
X113284000Y-114935000D03*
G04 #@! TO.N,AGND*
X133794500Y-109791500D03*
G04 #@! TO.N,HP_0*
X115760500Y-138176000D03*
X125603000Y-127762000D03*
X141478000Y-112141000D03*
G04 #@! TO.N,HP_1*
X114871500Y-137350500D03*
X123952000Y-127698500D03*
X140462000Y-108521500D03*
G04 #@! TO.N,GPIO1_2*
X115570000Y-119888000D03*
X117856000Y-119888000D03*
X138176000Y-124460000D03*
G04 #@! TO.N,AUD_OUT+*
X146304000Y-123190000D03*
G04 #@! TO.N,AUD_OUT-*
X148082000Y-123190000D03*
X145161000Y-127000000D03*
G04 #@! TO.N,ON_MONO2*
X132618480Y-145524220D03*
X120192800Y-130667760D03*
G04 #@! TO.N,Net-(R5-Pad1)*
X113360200Y-140416280D03*
X115854480Y-144729200D03*
G04 #@! TO.N,Mono2*
X125008640Y-131521200D03*
X141155420Y-145818860D03*
G04 #@! TD*
D14*
G04 #@! TO.N,HP_0*
X115760500Y-138176000D02*
X115760500Y-137604500D01*
X115760500Y-137604500D02*
X125603000Y-127762000D01*
G04 #@! TO.N,HP_1*
X114871500Y-137350500D02*
X123952000Y-128270000D01*
X123952000Y-128270000D02*
X123952000Y-127698500D01*
G04 #@! TO.N,GPIO1_2*
X113446560Y-122011440D02*
X115570000Y-119888000D01*
X106946700Y-122011440D02*
X113446560Y-122011440D01*
G04 #@! TD*
D15*
G04 #@! TO.N,3V3DC*
G36*
X101781612Y-100684000D02*
X137184313Y-100684000D01*
X136938353Y-100929960D01*
X136727500Y-101439006D01*
X136727500Y-101989994D01*
X136938353Y-102499040D01*
X137327960Y-102888647D01*
X137837006Y-103099500D01*
X138387994Y-103099500D01*
X138897040Y-102888647D01*
X139286647Y-102499040D01*
X139497500Y-101989994D01*
X139497500Y-101439006D01*
X139286647Y-100929960D01*
X139040687Y-100684000D01*
X148154388Y-100684000D01*
X148175987Y-100679704D01*
X148415364Y-100713985D01*
X148721928Y-100853372D01*
X148977050Y-101073199D01*
X149160218Y-101355792D01*
X149263743Y-101701959D01*
X149264859Y-101716969D01*
X149252000Y-101781613D01*
X149252000Y-112235101D01*
X149152625Y-112086375D01*
X148661418Y-111758161D01*
X148228256Y-111672000D01*
X147935744Y-111672000D01*
X147502582Y-111758161D01*
X147011375Y-112086375D01*
X146683161Y-112577582D01*
X146567908Y-113157000D01*
X146683161Y-113736418D01*
X147011375Y-114227625D01*
X147029619Y-114239816D01*
X146984235Y-114248843D01*
X146774191Y-114389191D01*
X146633843Y-114599235D01*
X146584560Y-114847000D01*
X146584560Y-116547000D01*
X146633843Y-116794765D01*
X146774191Y-117004809D01*
X146984235Y-117145157D01*
X147113016Y-117170773D01*
X146950569Y-117333220D01*
X146793000Y-117713626D01*
X146793000Y-118125374D01*
X146950569Y-118505780D01*
X147241720Y-118796931D01*
X147622126Y-118954500D01*
X148033874Y-118954500D01*
X148414280Y-118796931D01*
X148705431Y-118505780D01*
X148863000Y-118125374D01*
X148863000Y-117713626D01*
X148705431Y-117333220D01*
X148566651Y-117194440D01*
X148932000Y-117194440D01*
X149179765Y-117145157D01*
X149252000Y-117096891D01*
X149252001Y-127710008D01*
X149139925Y-127542275D01*
X148648718Y-127214061D01*
X148215556Y-127127900D01*
X147923044Y-127127900D01*
X147489882Y-127214061D01*
X146998675Y-127542275D01*
X146670461Y-128033482D01*
X146555208Y-128612900D01*
X146670461Y-129192318D01*
X146998675Y-129683525D01*
X147016919Y-129695716D01*
X146971535Y-129704743D01*
X146761491Y-129845091D01*
X146621143Y-130055135D01*
X146571860Y-130302900D01*
X146571860Y-132002900D01*
X146621143Y-132250665D01*
X146761491Y-132460709D01*
X146971535Y-132601057D01*
X147219300Y-132650340D01*
X148919300Y-132650340D01*
X149167065Y-132601057D01*
X149252001Y-132544304D01*
X149252001Y-135428247D01*
X149159445Y-135366403D01*
X148911680Y-135317120D01*
X147211680Y-135317120D01*
X146963915Y-135366403D01*
X146753871Y-135506751D01*
X146613523Y-135716795D01*
X146564240Y-135964560D01*
X146564240Y-137664560D01*
X146613523Y-137912325D01*
X146753871Y-138122369D01*
X146963915Y-138262717D01*
X147009299Y-138271744D01*
X146991055Y-138283935D01*
X146662841Y-138775142D01*
X146547588Y-139354560D01*
X146662841Y-139933978D01*
X146991055Y-140425185D01*
X147482262Y-140753399D01*
X147915424Y-140839560D01*
X148207936Y-140839560D01*
X148641098Y-140753399D01*
X149132305Y-140425185D01*
X149252001Y-140246048D01*
X149252001Y-148154388D01*
X149256297Y-148175984D01*
X149222015Y-148415364D01*
X149082628Y-148721928D01*
X148862804Y-148977047D01*
X148580207Y-149160218D01*
X148234043Y-149263743D01*
X148219032Y-149264858D01*
X148154388Y-149252000D01*
X143984051Y-149252000D01*
X144273131Y-148962920D01*
X144430700Y-148582514D01*
X144430700Y-148543631D01*
X144694100Y-148807031D01*
X145074506Y-148964600D01*
X145486254Y-148964600D01*
X145866660Y-148807031D01*
X146157811Y-148515880D01*
X146315380Y-148135474D01*
X146315380Y-147723726D01*
X146157811Y-147343320D01*
X145866660Y-147052169D01*
X145486254Y-146894600D01*
X145074506Y-146894600D01*
X144694100Y-147052169D01*
X144402949Y-147343320D01*
X144245380Y-147723726D01*
X144245380Y-147762609D01*
X143981980Y-147499209D01*
X143601574Y-147341640D01*
X143189826Y-147341640D01*
X142809420Y-147499209D01*
X142518269Y-147790360D01*
X142360700Y-148170766D01*
X142360700Y-148582514D01*
X142518269Y-148962920D01*
X142807349Y-149252000D01*
X129368438Y-149252000D01*
X129386949Y-148072220D01*
X129516009Y-148383800D01*
X129807160Y-148674951D01*
X130187566Y-148832520D01*
X130599314Y-148832520D01*
X130979720Y-148674951D01*
X131270871Y-148383800D01*
X131428440Y-148003394D01*
X131428440Y-147591646D01*
X131270871Y-147211240D01*
X130979720Y-146920089D01*
X130599314Y-146762520D01*
X130187566Y-146762520D01*
X129807160Y-146920089D01*
X129516009Y-147211240D01*
X129395908Y-147501191D01*
X129402824Y-147060372D01*
X129393452Y-147010460D01*
X129366161Y-146969099D01*
X129325120Y-146941331D01*
X129276576Y-146931382D01*
X125585906Y-146910003D01*
X125585906Y-146756820D01*
X122587335Y-146756820D01*
X122587335Y-146892633D01*
X120945376Y-146883122D01*
X120899784Y-146891305D01*
X120857730Y-146917516D01*
X120828907Y-146957824D01*
X120817704Y-147006094D01*
X120746465Y-149252000D01*
X101781612Y-149252000D01*
X101760013Y-149256296D01*
X101520636Y-149222015D01*
X101214072Y-149082628D01*
X100958953Y-148862804D01*
X100775782Y-148580207D01*
X100672257Y-148234043D01*
X100671142Y-148219032D01*
X100684000Y-148154388D01*
X100684000Y-143746086D01*
X101789280Y-143746086D01*
X101789280Y-144157834D01*
X101946849Y-144538240D01*
X102238000Y-144829391D01*
X102618406Y-144986960D01*
X102981771Y-144986960D01*
X102856080Y-145290406D01*
X102856080Y-145702154D01*
X103013649Y-146082560D01*
X103304800Y-146373711D01*
X103685206Y-146531280D01*
X104096954Y-146531280D01*
X104477360Y-146373711D01*
X104768511Y-146082560D01*
X104926080Y-145702154D01*
X104926080Y-145290406D01*
X104768511Y-144910000D01*
X104477360Y-144618849D01*
X104246747Y-144523326D01*
X114819480Y-144523326D01*
X114819480Y-144935074D01*
X114977049Y-145315480D01*
X115268200Y-145606631D01*
X115648606Y-145764200D01*
X116060354Y-145764200D01*
X116440760Y-145606631D01*
X116731911Y-145315480D01*
X116854871Y-145018626D01*
X123844100Y-145018626D01*
X123844100Y-145430374D01*
X124001669Y-145810780D01*
X124292820Y-146101931D01*
X124673226Y-146259500D01*
X125084974Y-146259500D01*
X125465380Y-146101931D01*
X125756531Y-145810780D01*
X125914100Y-145430374D01*
X125914100Y-145318346D01*
X131583480Y-145318346D01*
X131583480Y-145730094D01*
X131741049Y-146110500D01*
X132032200Y-146401651D01*
X132412606Y-146559220D01*
X132824354Y-146559220D01*
X133204760Y-146401651D01*
X133495911Y-146110500D01*
X133653480Y-145730094D01*
X133653480Y-145318346D01*
X133495911Y-144937940D01*
X133276877Y-144718906D01*
X134659420Y-144718906D01*
X134659420Y-145130654D01*
X134816989Y-145511060D01*
X135108140Y-145802211D01*
X135488546Y-145959780D01*
X135900294Y-145959780D01*
X136280700Y-145802211D01*
X136469925Y-145612986D01*
X140120420Y-145612986D01*
X140120420Y-146024734D01*
X140277989Y-146405140D01*
X140569140Y-146696291D01*
X140949546Y-146853860D01*
X141361294Y-146853860D01*
X141741700Y-146696291D01*
X142032851Y-146405140D01*
X142190420Y-146024734D01*
X142190420Y-145612986D01*
X142032851Y-145232580D01*
X141741700Y-144941429D01*
X141361294Y-144783860D01*
X140949546Y-144783860D01*
X140569140Y-144941429D01*
X140277989Y-145232580D01*
X140120420Y-145612986D01*
X136469925Y-145612986D01*
X136571851Y-145511060D01*
X136729420Y-145130654D01*
X136729420Y-144718906D01*
X136571851Y-144338500D01*
X136280700Y-144047349D01*
X135900294Y-143889780D01*
X135488546Y-143889780D01*
X135108140Y-144047349D01*
X134816989Y-144338500D01*
X134659420Y-144718906D01*
X133276877Y-144718906D01*
X133204760Y-144646789D01*
X132824354Y-144489220D01*
X132412606Y-144489220D01*
X132032200Y-144646789D01*
X131741049Y-144937940D01*
X131583480Y-145318346D01*
X125914100Y-145318346D01*
X125914100Y-145018626D01*
X125756531Y-144638220D01*
X125465380Y-144347069D01*
X125084974Y-144189500D01*
X124673226Y-144189500D01*
X124292820Y-144347069D01*
X124001669Y-144638220D01*
X123844100Y-145018626D01*
X116854871Y-145018626D01*
X116889480Y-144935074D01*
X116889480Y-144523326D01*
X116731911Y-144142920D01*
X116440760Y-143851769D01*
X116060354Y-143694200D01*
X115648606Y-143694200D01*
X115268200Y-143851769D01*
X114977049Y-144142920D01*
X114819480Y-144523326D01*
X104246747Y-144523326D01*
X104096954Y-144461280D01*
X103733589Y-144461280D01*
X103859280Y-144157834D01*
X103859280Y-143746086D01*
X103701711Y-143365680D01*
X103410560Y-143074529D01*
X103030154Y-142916960D01*
X102618406Y-142916960D01*
X102238000Y-143074529D01*
X101946849Y-143365680D01*
X101789280Y-143746086D01*
X100684000Y-143746086D01*
X100684000Y-140891126D01*
X107186780Y-140891126D01*
X107186780Y-141302874D01*
X107344349Y-141683280D01*
X107635500Y-141974431D01*
X108015906Y-142132000D01*
X108427654Y-142132000D01*
X108808060Y-141974431D01*
X109099211Y-141683280D01*
X109256780Y-141302874D01*
X109256780Y-140891126D01*
X109099211Y-140510720D01*
X108808060Y-140219569D01*
X108785939Y-140210406D01*
X112325200Y-140210406D01*
X112325200Y-140622154D01*
X112482769Y-141002560D01*
X112773920Y-141293711D01*
X113154326Y-141451280D01*
X113566074Y-141451280D01*
X113704249Y-141394046D01*
X139020600Y-141394046D01*
X139020600Y-141805794D01*
X139178169Y-142186200D01*
X139469320Y-142477351D01*
X139849726Y-142634920D01*
X140261474Y-142634920D01*
X140641880Y-142477351D01*
X140933031Y-142186200D01*
X141090600Y-141805794D01*
X141090600Y-141394046D01*
X140933031Y-141013640D01*
X140641880Y-140722489D01*
X140261474Y-140564920D01*
X139849726Y-140564920D01*
X139469320Y-140722489D01*
X139178169Y-141013640D01*
X139020600Y-141394046D01*
X113704249Y-141394046D01*
X113946480Y-141293711D01*
X114237631Y-141002560D01*
X114395200Y-140622154D01*
X114395200Y-140210406D01*
X114237631Y-139830000D01*
X113946480Y-139538849D01*
X113566074Y-139381280D01*
X113154326Y-139381280D01*
X112773920Y-139538849D01*
X112482769Y-139830000D01*
X112325200Y-140210406D01*
X108785939Y-140210406D01*
X108427654Y-140062000D01*
X108015906Y-140062000D01*
X107635500Y-140219569D01*
X107344349Y-140510720D01*
X107186780Y-140891126D01*
X100684000Y-140891126D01*
X100684000Y-137144626D01*
X113836500Y-137144626D01*
X113836500Y-137556374D01*
X113994069Y-137936780D01*
X114285220Y-138227931D01*
X114665626Y-138385500D01*
X114727002Y-138385500D01*
X114883069Y-138762280D01*
X115174220Y-139053431D01*
X115554626Y-139211000D01*
X115966374Y-139211000D01*
X116346780Y-139053431D01*
X116637931Y-138762280D01*
X116795500Y-138381874D01*
X116795500Y-137970126D01*
X116700068Y-137739733D01*
X116987835Y-137451966D01*
X130575100Y-137451966D01*
X130575100Y-137863714D01*
X130732669Y-138244120D01*
X131023820Y-138535271D01*
X131404226Y-138692840D01*
X131815974Y-138692840D01*
X132196380Y-138535271D01*
X132487531Y-138244120D01*
X132645100Y-137863714D01*
X132645100Y-137451966D01*
X132487531Y-137071560D01*
X132196380Y-136780409D01*
X131815974Y-136622840D01*
X131404226Y-136622840D01*
X131023820Y-136780409D01*
X130732669Y-137071560D01*
X130575100Y-137451966D01*
X116987835Y-137451966D01*
X120453901Y-133985900D01*
X127674260Y-133985900D01*
X127674260Y-135685900D01*
X127723543Y-135933665D01*
X127863891Y-136143709D01*
X128073935Y-136284057D01*
X128321700Y-136333340D01*
X130021700Y-136333340D01*
X130269465Y-136284057D01*
X130479509Y-136143709D01*
X130619857Y-135933665D01*
X130669140Y-135685900D01*
X130669140Y-134503026D01*
X138037620Y-134503026D01*
X138037620Y-134914774D01*
X138195189Y-135295180D01*
X138486340Y-135586331D01*
X138866746Y-135743900D01*
X139278494Y-135743900D01*
X139658900Y-135586331D01*
X139950051Y-135295180D01*
X140107620Y-134914774D01*
X140107620Y-134503026D01*
X139950051Y-134122620D01*
X139658900Y-133831469D01*
X139278494Y-133673900D01*
X138866746Y-133673900D01*
X138486340Y-133831469D01*
X138195189Y-134122620D01*
X138037620Y-134503026D01*
X130669140Y-134503026D01*
X130669140Y-133985900D01*
X130619857Y-133738135D01*
X130479509Y-133528091D01*
X130269465Y-133387743D01*
X130021700Y-133338460D01*
X128321700Y-133338460D01*
X128073935Y-133387743D01*
X127863891Y-133528091D01*
X127723543Y-133738135D01*
X127674260Y-133985900D01*
X120453901Y-133985900D01*
X123124475Y-131315326D01*
X123973640Y-131315326D01*
X123973640Y-131727074D01*
X124131209Y-132107480D01*
X124422360Y-132398631D01*
X124802766Y-132556200D01*
X125214514Y-132556200D01*
X125594920Y-132398631D01*
X125886071Y-132107480D01*
X126043640Y-131727074D01*
X126043640Y-131315326D01*
X125906867Y-130985126D01*
X132315000Y-130985126D01*
X132315000Y-131396874D01*
X132472569Y-131777280D01*
X132763720Y-132068431D01*
X133144126Y-132226000D01*
X133555874Y-132226000D01*
X133936280Y-132068431D01*
X134227431Y-131777280D01*
X134385000Y-131396874D01*
X134385000Y-130985126D01*
X134227431Y-130604720D01*
X133936280Y-130313569D01*
X133555874Y-130156000D01*
X133144126Y-130156000D01*
X132763720Y-130313569D01*
X132472569Y-130604720D01*
X132315000Y-130985126D01*
X125906867Y-130985126D01*
X125886071Y-130934920D01*
X125594920Y-130643769D01*
X125214514Y-130486200D01*
X124802766Y-130486200D01*
X124422360Y-130643769D01*
X124131209Y-130934920D01*
X123973640Y-131315326D01*
X123124475Y-131315326D01*
X125105675Y-129334126D01*
X136760000Y-129334126D01*
X136760000Y-129745874D01*
X136917569Y-130126280D01*
X137208720Y-130417431D01*
X137589126Y-130575000D01*
X138000874Y-130575000D01*
X138381280Y-130417431D01*
X138672431Y-130126280D01*
X138830000Y-129745874D01*
X138830000Y-129334126D01*
X138672431Y-128953720D01*
X138381280Y-128662569D01*
X138000874Y-128505000D01*
X137589126Y-128505000D01*
X137208720Y-128662569D01*
X136917569Y-128953720D01*
X136760000Y-129334126D01*
X125105675Y-129334126D01*
X125642802Y-128797000D01*
X125808874Y-128797000D01*
X126189280Y-128639431D01*
X126480431Y-128348280D01*
X126638000Y-127967874D01*
X126638000Y-127556126D01*
X126480431Y-127175720D01*
X126189280Y-126884569D01*
X125808874Y-126727000D01*
X125397126Y-126727000D01*
X125016720Y-126884569D01*
X124809250Y-127092039D01*
X124538280Y-126821069D01*
X124157874Y-126663500D01*
X123746126Y-126663500D01*
X123365720Y-126821069D01*
X123074569Y-127112220D01*
X122917000Y-127492626D01*
X122917000Y-127904374D01*
X123012432Y-128134767D01*
X121067975Y-130079224D01*
X120779080Y-129790329D01*
X120398674Y-129632760D01*
X119986926Y-129632760D01*
X119606520Y-129790329D01*
X119315369Y-130081480D01*
X119157800Y-130461886D01*
X119157800Y-130873634D01*
X119315369Y-131254040D01*
X119604264Y-131542935D01*
X114831699Y-136315500D01*
X114665626Y-136315500D01*
X114285220Y-136473069D01*
X113994069Y-136764220D01*
X113836500Y-137144626D01*
X100684000Y-137144626D01*
X100684000Y-131142606D01*
X101626720Y-131142606D01*
X101626720Y-131554354D01*
X101784289Y-131934760D01*
X102075440Y-132225911D01*
X102455846Y-132383480D01*
X102867594Y-132383480D01*
X102891640Y-132373520D01*
X102891640Y-132390014D01*
X103049209Y-132770420D01*
X103340360Y-133061571D01*
X103720766Y-133219140D01*
X104132514Y-133219140D01*
X104512920Y-133061571D01*
X104804071Y-132770420D01*
X104961640Y-132390014D01*
X104961640Y-131978266D01*
X104848014Y-131703946D01*
X116511120Y-131703946D01*
X116511120Y-132115694D01*
X116668689Y-132496100D01*
X116959840Y-132787251D01*
X117340246Y-132944820D01*
X117751994Y-132944820D01*
X118132400Y-132787251D01*
X118423551Y-132496100D01*
X118581120Y-132115694D01*
X118581120Y-131703946D01*
X118423551Y-131323540D01*
X118132400Y-131032389D01*
X117751994Y-130874820D01*
X117340246Y-130874820D01*
X116959840Y-131032389D01*
X116668689Y-131323540D01*
X116511120Y-131703946D01*
X104848014Y-131703946D01*
X104804071Y-131597860D01*
X104512920Y-131306709D01*
X104132514Y-131149140D01*
X103720766Y-131149140D01*
X103696720Y-131159100D01*
X103696720Y-131142606D01*
X103539151Y-130762200D01*
X103248000Y-130471049D01*
X102867594Y-130313480D01*
X102455846Y-130313480D01*
X102075440Y-130471049D01*
X101784289Y-130762200D01*
X101626720Y-131142606D01*
X100684000Y-131142606D01*
X100684000Y-129491606D01*
X107633820Y-129491606D01*
X107633820Y-129903354D01*
X107791389Y-130283760D01*
X108082540Y-130574911D01*
X108462946Y-130732480D01*
X108874694Y-130732480D01*
X109255100Y-130574911D01*
X109546251Y-130283760D01*
X109703820Y-129903354D01*
X109703820Y-129491606D01*
X109546251Y-129111200D01*
X109255100Y-128820049D01*
X108874694Y-128662480D01*
X108462946Y-128662480D01*
X108082540Y-128820049D01*
X107791389Y-129111200D01*
X107633820Y-129491606D01*
X100684000Y-129491606D01*
X100684000Y-121805566D01*
X105911700Y-121805566D01*
X105911700Y-122217314D01*
X106069269Y-122597720D01*
X106360420Y-122888871D01*
X106739661Y-123045957D01*
X106535680Y-123130449D01*
X106244529Y-123421600D01*
X106086960Y-123802006D01*
X106086960Y-124213754D01*
X106244529Y-124594160D01*
X106322459Y-124672090D01*
X106214049Y-124780500D01*
X106056480Y-125160906D01*
X106056480Y-125572654D01*
X106214049Y-125953060D01*
X106505200Y-126244211D01*
X106885606Y-126401780D01*
X107297354Y-126401780D01*
X107651600Y-126255047D01*
X107651600Y-126568334D01*
X107809169Y-126948740D01*
X108100320Y-127239891D01*
X108480726Y-127397460D01*
X108892474Y-127397460D01*
X109272880Y-127239891D01*
X109564031Y-126948740D01*
X109721600Y-126568334D01*
X109721600Y-126489326D01*
X114105740Y-126489326D01*
X114105740Y-126901074D01*
X114263309Y-127281480D01*
X114554460Y-127572631D01*
X114934866Y-127730200D01*
X115346614Y-127730200D01*
X115727020Y-127572631D01*
X116018171Y-127281480D01*
X116175740Y-126901074D01*
X116175740Y-126540126D01*
X137395000Y-126540126D01*
X137395000Y-126951874D01*
X137552569Y-127332280D01*
X137843720Y-127623431D01*
X138224126Y-127781000D01*
X138635874Y-127781000D01*
X139016280Y-127623431D01*
X139307431Y-127332280D01*
X139465000Y-126951874D01*
X139465000Y-126794126D01*
X144126000Y-126794126D01*
X144126000Y-127205874D01*
X144283569Y-127586280D01*
X144574720Y-127877431D01*
X144955126Y-128035000D01*
X145366874Y-128035000D01*
X145747280Y-127877431D01*
X146038431Y-127586280D01*
X146196000Y-127205874D01*
X146196000Y-126794126D01*
X146038431Y-126413720D01*
X145747280Y-126122569D01*
X145366874Y-125965000D01*
X144955126Y-125965000D01*
X144574720Y-126122569D01*
X144283569Y-126413720D01*
X144126000Y-126794126D01*
X139465000Y-126794126D01*
X139465000Y-126540126D01*
X139307431Y-126159720D01*
X139016280Y-125868569D01*
X138635874Y-125711000D01*
X138224126Y-125711000D01*
X137843720Y-125868569D01*
X137552569Y-126159720D01*
X137395000Y-126540126D01*
X116175740Y-126540126D01*
X116175740Y-126489326D01*
X116018171Y-126108920D01*
X115727020Y-125817769D01*
X115346614Y-125660200D01*
X114934866Y-125660200D01*
X114554460Y-125817769D01*
X114263309Y-126108920D01*
X114105740Y-126489326D01*
X109721600Y-126489326D01*
X109721600Y-126156586D01*
X109564031Y-125776180D01*
X109272880Y-125485029D01*
X108892474Y-125327460D01*
X108480726Y-125327460D01*
X108126480Y-125474193D01*
X108126480Y-125160906D01*
X107968911Y-124780500D01*
X107890981Y-124702570D01*
X107999391Y-124594160D01*
X108156960Y-124213754D01*
X108156960Y-123802006D01*
X107999391Y-123421600D01*
X107815917Y-123238126D01*
X131426000Y-123238126D01*
X131426000Y-123649874D01*
X131583569Y-124030280D01*
X131874720Y-124321431D01*
X132255126Y-124479000D01*
X132666874Y-124479000D01*
X133047280Y-124321431D01*
X133114585Y-124254126D01*
X137141000Y-124254126D01*
X137141000Y-124665874D01*
X137298569Y-125046280D01*
X137589720Y-125337431D01*
X137970126Y-125495000D01*
X138381874Y-125495000D01*
X138762280Y-125337431D01*
X139053431Y-125046280D01*
X139211000Y-124665874D01*
X139211000Y-124254126D01*
X139053431Y-123873720D01*
X138762280Y-123582569D01*
X138381874Y-123425000D01*
X137970126Y-123425000D01*
X137589720Y-123582569D01*
X137298569Y-123873720D01*
X137141000Y-124254126D01*
X133114585Y-124254126D01*
X133338431Y-124030280D01*
X133496000Y-123649874D01*
X133496000Y-123238126D01*
X133390790Y-122984126D01*
X145269000Y-122984126D01*
X145269000Y-123395874D01*
X145426569Y-123776280D01*
X145717720Y-124067431D01*
X146098126Y-124225000D01*
X146509874Y-124225000D01*
X146890280Y-124067431D01*
X147181431Y-123776280D01*
X147193000Y-123748350D01*
X147204569Y-123776280D01*
X147495720Y-124067431D01*
X147876126Y-124225000D01*
X148287874Y-124225000D01*
X148668280Y-124067431D01*
X148959431Y-123776280D01*
X149117000Y-123395874D01*
X149117000Y-122984126D01*
X148959431Y-122603720D01*
X148668280Y-122312569D01*
X148287874Y-122155000D01*
X147876126Y-122155000D01*
X147495720Y-122312569D01*
X147204569Y-122603720D01*
X147193000Y-122631650D01*
X147181431Y-122603720D01*
X146890280Y-122312569D01*
X146509874Y-122155000D01*
X146098126Y-122155000D01*
X145717720Y-122312569D01*
X145426569Y-122603720D01*
X145269000Y-122984126D01*
X133390790Y-122984126D01*
X133338431Y-122857720D01*
X133047280Y-122566569D01*
X132666874Y-122409000D01*
X132255126Y-122409000D01*
X131874720Y-122566569D01*
X131583569Y-122857720D01*
X131426000Y-123238126D01*
X107815917Y-123238126D01*
X107708240Y-123130449D01*
X107328999Y-122973363D01*
X107532980Y-122888871D01*
X107650411Y-122771440D01*
X113371713Y-122771440D01*
X113446560Y-122786328D01*
X113521407Y-122771440D01*
X113521412Y-122771440D01*
X113743097Y-122727344D01*
X113994489Y-122559369D01*
X114036891Y-122495910D01*
X115609802Y-120923000D01*
X115775874Y-120923000D01*
X116156280Y-120765431D01*
X116447431Y-120474280D01*
X116605000Y-120093874D01*
X116605000Y-119682126D01*
X116821000Y-119682126D01*
X116821000Y-120093874D01*
X116978569Y-120474280D01*
X117269720Y-120765431D01*
X117650126Y-120923000D01*
X118061874Y-120923000D01*
X118442280Y-120765431D01*
X118733431Y-120474280D01*
X118891000Y-120093874D01*
X118891000Y-119682126D01*
X118733431Y-119301720D01*
X118442280Y-119010569D01*
X118061874Y-118853000D01*
X117650126Y-118853000D01*
X117269720Y-119010569D01*
X116978569Y-119301720D01*
X116821000Y-119682126D01*
X116605000Y-119682126D01*
X116447431Y-119301720D01*
X116156280Y-119010569D01*
X115775874Y-118853000D01*
X115364126Y-118853000D01*
X114983720Y-119010569D01*
X114692569Y-119301720D01*
X114535000Y-119682126D01*
X114535000Y-119848198D01*
X113131759Y-121251440D01*
X107650411Y-121251440D01*
X107532980Y-121134009D01*
X107152574Y-120976440D01*
X106740826Y-120976440D01*
X106360420Y-121134009D01*
X106069269Y-121425160D01*
X105911700Y-121805566D01*
X100684000Y-121805566D01*
X100684000Y-119009026D01*
X101372720Y-119009026D01*
X101372720Y-119420774D01*
X101530289Y-119801180D01*
X101821440Y-120092331D01*
X102201846Y-120249900D01*
X102613594Y-120249900D01*
X102994000Y-120092331D01*
X103285151Y-119801180D01*
X103442720Y-119420774D01*
X103442720Y-119373439D01*
X103492166Y-119393920D01*
X103903914Y-119393920D01*
X104284320Y-119236351D01*
X104575471Y-118945200D01*
X104733040Y-118564794D01*
X104733040Y-118153046D01*
X104575471Y-117772640D01*
X104348750Y-117545919D01*
X104388460Y-117529471D01*
X104679611Y-117238320D01*
X104719455Y-117142126D01*
X113265000Y-117142126D01*
X113265000Y-117553874D01*
X113422569Y-117934280D01*
X113713720Y-118225431D01*
X114094126Y-118383000D01*
X114505874Y-118383000D01*
X114886280Y-118225431D01*
X115177431Y-117934280D01*
X115335000Y-117553874D01*
X115335000Y-117142126D01*
X115177431Y-116761720D01*
X114886280Y-116470569D01*
X114505874Y-116313000D01*
X114094126Y-116313000D01*
X113713720Y-116470569D01*
X113422569Y-116761720D01*
X113265000Y-117142126D01*
X104719455Y-117142126D01*
X104837180Y-116857914D01*
X104837180Y-116446166D01*
X104679611Y-116065760D01*
X104388460Y-115774609D01*
X104008054Y-115617040D01*
X103596306Y-115617040D01*
X103215900Y-115774609D01*
X102924749Y-116065760D01*
X102767180Y-116446166D01*
X102767180Y-116857914D01*
X102924749Y-117238320D01*
X103151470Y-117465041D01*
X103111760Y-117481489D01*
X102820609Y-117772640D01*
X102663040Y-118153046D01*
X102663040Y-118200381D01*
X102613594Y-118179900D01*
X102201846Y-118179900D01*
X101821440Y-118337469D01*
X101530289Y-118628620D01*
X101372720Y-119009026D01*
X100684000Y-119009026D01*
X100684000Y-114729126D01*
X112249000Y-114729126D01*
X112249000Y-115140874D01*
X112406569Y-115521280D01*
X112697720Y-115812431D01*
X113078126Y-115970000D01*
X113489874Y-115970000D01*
X113870280Y-115812431D01*
X114161431Y-115521280D01*
X114319000Y-115140874D01*
X114319000Y-114983126D01*
X130918000Y-114983126D01*
X130918000Y-115394874D01*
X131075569Y-115775280D01*
X131366720Y-116066431D01*
X131747126Y-116224000D01*
X132158874Y-116224000D01*
X132539280Y-116066431D01*
X132830431Y-115775280D01*
X132988000Y-115394874D01*
X132988000Y-114983126D01*
X132830431Y-114602720D01*
X132539280Y-114311569D01*
X132158874Y-114154000D01*
X131747126Y-114154000D01*
X131366720Y-114311569D01*
X131075569Y-114602720D01*
X130918000Y-114983126D01*
X114319000Y-114983126D01*
X114319000Y-114729126D01*
X114161431Y-114348720D01*
X113870280Y-114057569D01*
X113489874Y-113900000D01*
X113078126Y-113900000D01*
X112697720Y-114057569D01*
X112406569Y-114348720D01*
X112249000Y-114729126D01*
X100684000Y-114729126D01*
X100684000Y-111218051D01*
X100828300Y-111362351D01*
X101208706Y-111519920D01*
X101620454Y-111519920D01*
X102000860Y-111362351D01*
X102292011Y-111071200D01*
X102427596Y-110743866D01*
X107740500Y-110743866D01*
X107740500Y-111155614D01*
X107898069Y-111536020D01*
X108189220Y-111827171D01*
X108569626Y-111984740D01*
X108981374Y-111984740D01*
X109101153Y-111935126D01*
X140443000Y-111935126D01*
X140443000Y-112346874D01*
X140600569Y-112727280D01*
X140891720Y-113018431D01*
X141272126Y-113176000D01*
X141683874Y-113176000D01*
X142064280Y-113018431D01*
X142355431Y-112727280D01*
X142513000Y-112346874D01*
X142513000Y-111935126D01*
X142355431Y-111554720D01*
X142064280Y-111263569D01*
X141683874Y-111106000D01*
X141272126Y-111106000D01*
X140891720Y-111263569D01*
X140600569Y-111554720D01*
X140443000Y-111935126D01*
X109101153Y-111935126D01*
X109361780Y-111827171D01*
X109652931Y-111536020D01*
X109810500Y-111155614D01*
X109810500Y-110743866D01*
X109652931Y-110363460D01*
X109361780Y-110072309D01*
X108981374Y-109914740D01*
X108569626Y-109914740D01*
X108189220Y-110072309D01*
X107898069Y-110363460D01*
X107740500Y-110743866D01*
X102427596Y-110743866D01*
X102449580Y-110690794D01*
X102449580Y-110279046D01*
X102292011Y-109898640D01*
X102000860Y-109607489D01*
X101948078Y-109585626D01*
X132759500Y-109585626D01*
X132759500Y-109997374D01*
X132917069Y-110377780D01*
X133208220Y-110668931D01*
X133588626Y-110826500D01*
X134000374Y-110826500D01*
X134380780Y-110668931D01*
X134671931Y-110377780D01*
X134829500Y-109997374D01*
X134829500Y-109585626D01*
X134671931Y-109205220D01*
X134380780Y-108914069D01*
X134000374Y-108756500D01*
X133588626Y-108756500D01*
X133208220Y-108914069D01*
X132917069Y-109205220D01*
X132759500Y-109585626D01*
X101948078Y-109585626D01*
X101620454Y-109449920D01*
X101208706Y-109449920D01*
X100828300Y-109607489D01*
X100684000Y-109751789D01*
X100684000Y-108439006D01*
X136727500Y-108439006D01*
X136727500Y-108989994D01*
X136938353Y-109499040D01*
X137327960Y-109888647D01*
X137837006Y-110099500D01*
X138387994Y-110099500D01*
X138897040Y-109888647D01*
X139200061Y-109585626D01*
X147174000Y-109585626D01*
X147174000Y-109997374D01*
X147331569Y-110377780D01*
X147622720Y-110668931D01*
X148003126Y-110826500D01*
X148414874Y-110826500D01*
X148795280Y-110668931D01*
X149086431Y-110377780D01*
X149244000Y-109997374D01*
X149244000Y-109585626D01*
X149086431Y-109205220D01*
X148795280Y-108914069D01*
X148414874Y-108756500D01*
X148003126Y-108756500D01*
X147622720Y-108914069D01*
X147331569Y-109205220D01*
X147174000Y-109585626D01*
X139200061Y-109585626D01*
X139286647Y-109499040D01*
X139497500Y-108989994D01*
X139497500Y-108897576D01*
X139584569Y-109107780D01*
X139875720Y-109398931D01*
X140256126Y-109556500D01*
X140667874Y-109556500D01*
X141048280Y-109398931D01*
X141339431Y-109107780D01*
X141497000Y-108727374D01*
X141497000Y-108315626D01*
X141339431Y-107935220D01*
X141048280Y-107644069D01*
X140667874Y-107486500D01*
X140256126Y-107486500D01*
X139875720Y-107644069D01*
X139584569Y-107935220D01*
X139436697Y-108292215D01*
X139286647Y-107929960D01*
X138897040Y-107540353D01*
X138387994Y-107329500D01*
X137837006Y-107329500D01*
X137327960Y-107540353D01*
X136938353Y-107929960D01*
X136727500Y-108439006D01*
X100684000Y-108439006D01*
X100684000Y-106367446D01*
X109340700Y-106367446D01*
X109340700Y-106779194D01*
X109498269Y-107159600D01*
X109789420Y-107450751D01*
X110169826Y-107608320D01*
X110581574Y-107608320D01*
X110961980Y-107450751D01*
X111253131Y-107159600D01*
X111410700Y-106779194D01*
X111410700Y-106367446D01*
X111253131Y-105987040D01*
X110961980Y-105695889D01*
X110581574Y-105538320D01*
X110169826Y-105538320D01*
X109789420Y-105695889D01*
X109498269Y-105987040D01*
X109340700Y-106367446D01*
X100684000Y-106367446D01*
X100684000Y-105331126D01*
X120377000Y-105331126D01*
X120377000Y-105742874D01*
X120534569Y-106123280D01*
X120825720Y-106414431D01*
X121206126Y-106572000D01*
X121617874Y-106572000D01*
X121998280Y-106414431D01*
X122289431Y-106123280D01*
X122447000Y-105742874D01*
X122447000Y-105331126D01*
X122289431Y-104950720D01*
X121998280Y-104659569D01*
X121617874Y-104502000D01*
X121206126Y-104502000D01*
X120825720Y-104659569D01*
X120534569Y-104950720D01*
X120377000Y-105331126D01*
X100684000Y-105331126D01*
X100684000Y-101805606D01*
X104278480Y-101805606D01*
X104278480Y-102217354D01*
X104436049Y-102597760D01*
X104727200Y-102888911D01*
X105107606Y-103046480D01*
X105519354Y-103046480D01*
X105899760Y-102888911D01*
X106038185Y-102750486D01*
X120346520Y-102750486D01*
X120346520Y-103162234D01*
X120504089Y-103542640D01*
X120795240Y-103833791D01*
X121175646Y-103991360D01*
X121587394Y-103991360D01*
X121967800Y-103833791D01*
X122258951Y-103542640D01*
X122416520Y-103162234D01*
X122416520Y-102750486D01*
X122258951Y-102370080D01*
X121967800Y-102078929D01*
X121587394Y-101921360D01*
X121175646Y-101921360D01*
X120795240Y-102078929D01*
X120504089Y-102370080D01*
X120346520Y-102750486D01*
X106038185Y-102750486D01*
X106190911Y-102597760D01*
X106348480Y-102217354D01*
X106348480Y-101805606D01*
X106190911Y-101425200D01*
X105899760Y-101134049D01*
X105519354Y-100976480D01*
X105107606Y-100976480D01*
X104727200Y-101134049D01*
X104436049Y-101425200D01*
X104278480Y-101805606D01*
X100684000Y-101805606D01*
X100684000Y-101781612D01*
X100679704Y-101760013D01*
X100713985Y-101520636D01*
X100853372Y-101214072D01*
X101073199Y-100958950D01*
X101355792Y-100775782D01*
X101701959Y-100672257D01*
X101716968Y-100671142D01*
X101781612Y-100684000D01*
X101781612Y-100684000D01*
G37*
X101781612Y-100684000D02*
X137184313Y-100684000D01*
X136938353Y-100929960D01*
X136727500Y-101439006D01*
X136727500Y-101989994D01*
X136938353Y-102499040D01*
X137327960Y-102888647D01*
X137837006Y-103099500D01*
X138387994Y-103099500D01*
X138897040Y-102888647D01*
X139286647Y-102499040D01*
X139497500Y-101989994D01*
X139497500Y-101439006D01*
X139286647Y-100929960D01*
X139040687Y-100684000D01*
X148154388Y-100684000D01*
X148175987Y-100679704D01*
X148415364Y-100713985D01*
X148721928Y-100853372D01*
X148977050Y-101073199D01*
X149160218Y-101355792D01*
X149263743Y-101701959D01*
X149264859Y-101716969D01*
X149252000Y-101781613D01*
X149252000Y-112235101D01*
X149152625Y-112086375D01*
X148661418Y-111758161D01*
X148228256Y-111672000D01*
X147935744Y-111672000D01*
X147502582Y-111758161D01*
X147011375Y-112086375D01*
X146683161Y-112577582D01*
X146567908Y-113157000D01*
X146683161Y-113736418D01*
X147011375Y-114227625D01*
X147029619Y-114239816D01*
X146984235Y-114248843D01*
X146774191Y-114389191D01*
X146633843Y-114599235D01*
X146584560Y-114847000D01*
X146584560Y-116547000D01*
X146633843Y-116794765D01*
X146774191Y-117004809D01*
X146984235Y-117145157D01*
X147113016Y-117170773D01*
X146950569Y-117333220D01*
X146793000Y-117713626D01*
X146793000Y-118125374D01*
X146950569Y-118505780D01*
X147241720Y-118796931D01*
X147622126Y-118954500D01*
X148033874Y-118954500D01*
X148414280Y-118796931D01*
X148705431Y-118505780D01*
X148863000Y-118125374D01*
X148863000Y-117713626D01*
X148705431Y-117333220D01*
X148566651Y-117194440D01*
X148932000Y-117194440D01*
X149179765Y-117145157D01*
X149252000Y-117096891D01*
X149252001Y-127710008D01*
X149139925Y-127542275D01*
X148648718Y-127214061D01*
X148215556Y-127127900D01*
X147923044Y-127127900D01*
X147489882Y-127214061D01*
X146998675Y-127542275D01*
X146670461Y-128033482D01*
X146555208Y-128612900D01*
X146670461Y-129192318D01*
X146998675Y-129683525D01*
X147016919Y-129695716D01*
X146971535Y-129704743D01*
X146761491Y-129845091D01*
X146621143Y-130055135D01*
X146571860Y-130302900D01*
X146571860Y-132002900D01*
X146621143Y-132250665D01*
X146761491Y-132460709D01*
X146971535Y-132601057D01*
X147219300Y-132650340D01*
X148919300Y-132650340D01*
X149167065Y-132601057D01*
X149252001Y-132544304D01*
X149252001Y-135428247D01*
X149159445Y-135366403D01*
X148911680Y-135317120D01*
X147211680Y-135317120D01*
X146963915Y-135366403D01*
X146753871Y-135506751D01*
X146613523Y-135716795D01*
X146564240Y-135964560D01*
X146564240Y-137664560D01*
X146613523Y-137912325D01*
X146753871Y-138122369D01*
X146963915Y-138262717D01*
X147009299Y-138271744D01*
X146991055Y-138283935D01*
X146662841Y-138775142D01*
X146547588Y-139354560D01*
X146662841Y-139933978D01*
X146991055Y-140425185D01*
X147482262Y-140753399D01*
X147915424Y-140839560D01*
X148207936Y-140839560D01*
X148641098Y-140753399D01*
X149132305Y-140425185D01*
X149252001Y-140246048D01*
X149252001Y-148154388D01*
X149256297Y-148175984D01*
X149222015Y-148415364D01*
X149082628Y-148721928D01*
X148862804Y-148977047D01*
X148580207Y-149160218D01*
X148234043Y-149263743D01*
X148219032Y-149264858D01*
X148154388Y-149252000D01*
X143984051Y-149252000D01*
X144273131Y-148962920D01*
X144430700Y-148582514D01*
X144430700Y-148543631D01*
X144694100Y-148807031D01*
X145074506Y-148964600D01*
X145486254Y-148964600D01*
X145866660Y-148807031D01*
X146157811Y-148515880D01*
X146315380Y-148135474D01*
X146315380Y-147723726D01*
X146157811Y-147343320D01*
X145866660Y-147052169D01*
X145486254Y-146894600D01*
X145074506Y-146894600D01*
X144694100Y-147052169D01*
X144402949Y-147343320D01*
X144245380Y-147723726D01*
X144245380Y-147762609D01*
X143981980Y-147499209D01*
X143601574Y-147341640D01*
X143189826Y-147341640D01*
X142809420Y-147499209D01*
X142518269Y-147790360D01*
X142360700Y-148170766D01*
X142360700Y-148582514D01*
X142518269Y-148962920D01*
X142807349Y-149252000D01*
X129368438Y-149252000D01*
X129386949Y-148072220D01*
X129516009Y-148383800D01*
X129807160Y-148674951D01*
X130187566Y-148832520D01*
X130599314Y-148832520D01*
X130979720Y-148674951D01*
X131270871Y-148383800D01*
X131428440Y-148003394D01*
X131428440Y-147591646D01*
X131270871Y-147211240D01*
X130979720Y-146920089D01*
X130599314Y-146762520D01*
X130187566Y-146762520D01*
X129807160Y-146920089D01*
X129516009Y-147211240D01*
X129395908Y-147501191D01*
X129402824Y-147060372D01*
X129393452Y-147010460D01*
X129366161Y-146969099D01*
X129325120Y-146941331D01*
X129276576Y-146931382D01*
X125585906Y-146910003D01*
X125585906Y-146756820D01*
X122587335Y-146756820D01*
X122587335Y-146892633D01*
X120945376Y-146883122D01*
X120899784Y-146891305D01*
X120857730Y-146917516D01*
X120828907Y-146957824D01*
X120817704Y-147006094D01*
X120746465Y-149252000D01*
X101781612Y-149252000D01*
X101760013Y-149256296D01*
X101520636Y-149222015D01*
X101214072Y-149082628D01*
X100958953Y-148862804D01*
X100775782Y-148580207D01*
X100672257Y-148234043D01*
X100671142Y-148219032D01*
X100684000Y-148154388D01*
X100684000Y-143746086D01*
X101789280Y-143746086D01*
X101789280Y-144157834D01*
X101946849Y-144538240D01*
X102238000Y-144829391D01*
X102618406Y-144986960D01*
X102981771Y-144986960D01*
X102856080Y-145290406D01*
X102856080Y-145702154D01*
X103013649Y-146082560D01*
X103304800Y-146373711D01*
X103685206Y-146531280D01*
X104096954Y-146531280D01*
X104477360Y-146373711D01*
X104768511Y-146082560D01*
X104926080Y-145702154D01*
X104926080Y-145290406D01*
X104768511Y-144910000D01*
X104477360Y-144618849D01*
X104246747Y-144523326D01*
X114819480Y-144523326D01*
X114819480Y-144935074D01*
X114977049Y-145315480D01*
X115268200Y-145606631D01*
X115648606Y-145764200D01*
X116060354Y-145764200D01*
X116440760Y-145606631D01*
X116731911Y-145315480D01*
X116854871Y-145018626D01*
X123844100Y-145018626D01*
X123844100Y-145430374D01*
X124001669Y-145810780D01*
X124292820Y-146101931D01*
X124673226Y-146259500D01*
X125084974Y-146259500D01*
X125465380Y-146101931D01*
X125756531Y-145810780D01*
X125914100Y-145430374D01*
X125914100Y-145318346D01*
X131583480Y-145318346D01*
X131583480Y-145730094D01*
X131741049Y-146110500D01*
X132032200Y-146401651D01*
X132412606Y-146559220D01*
X132824354Y-146559220D01*
X133204760Y-146401651D01*
X133495911Y-146110500D01*
X133653480Y-145730094D01*
X133653480Y-145318346D01*
X133495911Y-144937940D01*
X133276877Y-144718906D01*
X134659420Y-144718906D01*
X134659420Y-145130654D01*
X134816989Y-145511060D01*
X135108140Y-145802211D01*
X135488546Y-145959780D01*
X135900294Y-145959780D01*
X136280700Y-145802211D01*
X136469925Y-145612986D01*
X140120420Y-145612986D01*
X140120420Y-146024734D01*
X140277989Y-146405140D01*
X140569140Y-146696291D01*
X140949546Y-146853860D01*
X141361294Y-146853860D01*
X141741700Y-146696291D01*
X142032851Y-146405140D01*
X142190420Y-146024734D01*
X142190420Y-145612986D01*
X142032851Y-145232580D01*
X141741700Y-144941429D01*
X141361294Y-144783860D01*
X140949546Y-144783860D01*
X140569140Y-144941429D01*
X140277989Y-145232580D01*
X140120420Y-145612986D01*
X136469925Y-145612986D01*
X136571851Y-145511060D01*
X136729420Y-145130654D01*
X136729420Y-144718906D01*
X136571851Y-144338500D01*
X136280700Y-144047349D01*
X135900294Y-143889780D01*
X135488546Y-143889780D01*
X135108140Y-144047349D01*
X134816989Y-144338500D01*
X134659420Y-144718906D01*
X133276877Y-144718906D01*
X133204760Y-144646789D01*
X132824354Y-144489220D01*
X132412606Y-144489220D01*
X132032200Y-144646789D01*
X131741049Y-144937940D01*
X131583480Y-145318346D01*
X125914100Y-145318346D01*
X125914100Y-145018626D01*
X125756531Y-144638220D01*
X125465380Y-144347069D01*
X125084974Y-144189500D01*
X124673226Y-144189500D01*
X124292820Y-144347069D01*
X124001669Y-144638220D01*
X123844100Y-145018626D01*
X116854871Y-145018626D01*
X116889480Y-144935074D01*
X116889480Y-144523326D01*
X116731911Y-144142920D01*
X116440760Y-143851769D01*
X116060354Y-143694200D01*
X115648606Y-143694200D01*
X115268200Y-143851769D01*
X114977049Y-144142920D01*
X114819480Y-144523326D01*
X104246747Y-144523326D01*
X104096954Y-144461280D01*
X103733589Y-144461280D01*
X103859280Y-144157834D01*
X103859280Y-143746086D01*
X103701711Y-143365680D01*
X103410560Y-143074529D01*
X103030154Y-142916960D01*
X102618406Y-142916960D01*
X102238000Y-143074529D01*
X101946849Y-143365680D01*
X101789280Y-143746086D01*
X100684000Y-143746086D01*
X100684000Y-140891126D01*
X107186780Y-140891126D01*
X107186780Y-141302874D01*
X107344349Y-141683280D01*
X107635500Y-141974431D01*
X108015906Y-142132000D01*
X108427654Y-142132000D01*
X108808060Y-141974431D01*
X109099211Y-141683280D01*
X109256780Y-141302874D01*
X109256780Y-140891126D01*
X109099211Y-140510720D01*
X108808060Y-140219569D01*
X108785939Y-140210406D01*
X112325200Y-140210406D01*
X112325200Y-140622154D01*
X112482769Y-141002560D01*
X112773920Y-141293711D01*
X113154326Y-141451280D01*
X113566074Y-141451280D01*
X113704249Y-141394046D01*
X139020600Y-141394046D01*
X139020600Y-141805794D01*
X139178169Y-142186200D01*
X139469320Y-142477351D01*
X139849726Y-142634920D01*
X140261474Y-142634920D01*
X140641880Y-142477351D01*
X140933031Y-142186200D01*
X141090600Y-141805794D01*
X141090600Y-141394046D01*
X140933031Y-141013640D01*
X140641880Y-140722489D01*
X140261474Y-140564920D01*
X139849726Y-140564920D01*
X139469320Y-140722489D01*
X139178169Y-141013640D01*
X139020600Y-141394046D01*
X113704249Y-141394046D01*
X113946480Y-141293711D01*
X114237631Y-141002560D01*
X114395200Y-140622154D01*
X114395200Y-140210406D01*
X114237631Y-139830000D01*
X113946480Y-139538849D01*
X113566074Y-139381280D01*
X113154326Y-139381280D01*
X112773920Y-139538849D01*
X112482769Y-139830000D01*
X112325200Y-140210406D01*
X108785939Y-140210406D01*
X108427654Y-140062000D01*
X108015906Y-140062000D01*
X107635500Y-140219569D01*
X107344349Y-140510720D01*
X107186780Y-140891126D01*
X100684000Y-140891126D01*
X100684000Y-137144626D01*
X113836500Y-137144626D01*
X113836500Y-137556374D01*
X113994069Y-137936780D01*
X114285220Y-138227931D01*
X114665626Y-138385500D01*
X114727002Y-138385500D01*
X114883069Y-138762280D01*
X115174220Y-139053431D01*
X115554626Y-139211000D01*
X115966374Y-139211000D01*
X116346780Y-139053431D01*
X116637931Y-138762280D01*
X116795500Y-138381874D01*
X116795500Y-137970126D01*
X116700068Y-137739733D01*
X116987835Y-137451966D01*
X130575100Y-137451966D01*
X130575100Y-137863714D01*
X130732669Y-138244120D01*
X131023820Y-138535271D01*
X131404226Y-138692840D01*
X131815974Y-138692840D01*
X132196380Y-138535271D01*
X132487531Y-138244120D01*
X132645100Y-137863714D01*
X132645100Y-137451966D01*
X132487531Y-137071560D01*
X132196380Y-136780409D01*
X131815974Y-136622840D01*
X131404226Y-136622840D01*
X131023820Y-136780409D01*
X130732669Y-137071560D01*
X130575100Y-137451966D01*
X116987835Y-137451966D01*
X120453901Y-133985900D01*
X127674260Y-133985900D01*
X127674260Y-135685900D01*
X127723543Y-135933665D01*
X127863891Y-136143709D01*
X128073935Y-136284057D01*
X128321700Y-136333340D01*
X130021700Y-136333340D01*
X130269465Y-136284057D01*
X130479509Y-136143709D01*
X130619857Y-135933665D01*
X130669140Y-135685900D01*
X130669140Y-134503026D01*
X138037620Y-134503026D01*
X138037620Y-134914774D01*
X138195189Y-135295180D01*
X138486340Y-135586331D01*
X138866746Y-135743900D01*
X139278494Y-135743900D01*
X139658900Y-135586331D01*
X139950051Y-135295180D01*
X140107620Y-134914774D01*
X140107620Y-134503026D01*
X139950051Y-134122620D01*
X139658900Y-133831469D01*
X139278494Y-133673900D01*
X138866746Y-133673900D01*
X138486340Y-133831469D01*
X138195189Y-134122620D01*
X138037620Y-134503026D01*
X130669140Y-134503026D01*
X130669140Y-133985900D01*
X130619857Y-133738135D01*
X130479509Y-133528091D01*
X130269465Y-133387743D01*
X130021700Y-133338460D01*
X128321700Y-133338460D01*
X128073935Y-133387743D01*
X127863891Y-133528091D01*
X127723543Y-133738135D01*
X127674260Y-133985900D01*
X120453901Y-133985900D01*
X123124475Y-131315326D01*
X123973640Y-131315326D01*
X123973640Y-131727074D01*
X124131209Y-132107480D01*
X124422360Y-132398631D01*
X124802766Y-132556200D01*
X125214514Y-132556200D01*
X125594920Y-132398631D01*
X125886071Y-132107480D01*
X126043640Y-131727074D01*
X126043640Y-131315326D01*
X125906867Y-130985126D01*
X132315000Y-130985126D01*
X132315000Y-131396874D01*
X132472569Y-131777280D01*
X132763720Y-132068431D01*
X133144126Y-132226000D01*
X133555874Y-132226000D01*
X133936280Y-132068431D01*
X134227431Y-131777280D01*
X134385000Y-131396874D01*
X134385000Y-130985126D01*
X134227431Y-130604720D01*
X133936280Y-130313569D01*
X133555874Y-130156000D01*
X133144126Y-130156000D01*
X132763720Y-130313569D01*
X132472569Y-130604720D01*
X132315000Y-130985126D01*
X125906867Y-130985126D01*
X125886071Y-130934920D01*
X125594920Y-130643769D01*
X125214514Y-130486200D01*
X124802766Y-130486200D01*
X124422360Y-130643769D01*
X124131209Y-130934920D01*
X123973640Y-131315326D01*
X123124475Y-131315326D01*
X125105675Y-129334126D01*
X136760000Y-129334126D01*
X136760000Y-129745874D01*
X136917569Y-130126280D01*
X137208720Y-130417431D01*
X137589126Y-130575000D01*
X138000874Y-130575000D01*
X138381280Y-130417431D01*
X138672431Y-130126280D01*
X138830000Y-129745874D01*
X138830000Y-129334126D01*
X138672431Y-128953720D01*
X138381280Y-128662569D01*
X138000874Y-128505000D01*
X137589126Y-128505000D01*
X137208720Y-128662569D01*
X136917569Y-128953720D01*
X136760000Y-129334126D01*
X125105675Y-129334126D01*
X125642802Y-128797000D01*
X125808874Y-128797000D01*
X126189280Y-128639431D01*
X126480431Y-128348280D01*
X126638000Y-127967874D01*
X126638000Y-127556126D01*
X126480431Y-127175720D01*
X126189280Y-126884569D01*
X125808874Y-126727000D01*
X125397126Y-126727000D01*
X125016720Y-126884569D01*
X124809250Y-127092039D01*
X124538280Y-126821069D01*
X124157874Y-126663500D01*
X123746126Y-126663500D01*
X123365720Y-126821069D01*
X123074569Y-127112220D01*
X122917000Y-127492626D01*
X122917000Y-127904374D01*
X123012432Y-128134767D01*
X121067975Y-130079224D01*
X120779080Y-129790329D01*
X120398674Y-129632760D01*
X119986926Y-129632760D01*
X119606520Y-129790329D01*
X119315369Y-130081480D01*
X119157800Y-130461886D01*
X119157800Y-130873634D01*
X119315369Y-131254040D01*
X119604264Y-131542935D01*
X114831699Y-136315500D01*
X114665626Y-136315500D01*
X114285220Y-136473069D01*
X113994069Y-136764220D01*
X113836500Y-137144626D01*
X100684000Y-137144626D01*
X100684000Y-131142606D01*
X101626720Y-131142606D01*
X101626720Y-131554354D01*
X101784289Y-131934760D01*
X102075440Y-132225911D01*
X102455846Y-132383480D01*
X102867594Y-132383480D01*
X102891640Y-132373520D01*
X102891640Y-132390014D01*
X103049209Y-132770420D01*
X103340360Y-133061571D01*
X103720766Y-133219140D01*
X104132514Y-133219140D01*
X104512920Y-133061571D01*
X104804071Y-132770420D01*
X104961640Y-132390014D01*
X104961640Y-131978266D01*
X104848014Y-131703946D01*
X116511120Y-131703946D01*
X116511120Y-132115694D01*
X116668689Y-132496100D01*
X116959840Y-132787251D01*
X117340246Y-132944820D01*
X117751994Y-132944820D01*
X118132400Y-132787251D01*
X118423551Y-132496100D01*
X118581120Y-132115694D01*
X118581120Y-131703946D01*
X118423551Y-131323540D01*
X118132400Y-131032389D01*
X117751994Y-130874820D01*
X117340246Y-130874820D01*
X116959840Y-131032389D01*
X116668689Y-131323540D01*
X116511120Y-131703946D01*
X104848014Y-131703946D01*
X104804071Y-131597860D01*
X104512920Y-131306709D01*
X104132514Y-131149140D01*
X103720766Y-131149140D01*
X103696720Y-131159100D01*
X103696720Y-131142606D01*
X103539151Y-130762200D01*
X103248000Y-130471049D01*
X102867594Y-130313480D01*
X102455846Y-130313480D01*
X102075440Y-130471049D01*
X101784289Y-130762200D01*
X101626720Y-131142606D01*
X100684000Y-131142606D01*
X100684000Y-129491606D01*
X107633820Y-129491606D01*
X107633820Y-129903354D01*
X107791389Y-130283760D01*
X108082540Y-130574911D01*
X108462946Y-130732480D01*
X108874694Y-130732480D01*
X109255100Y-130574911D01*
X109546251Y-130283760D01*
X109703820Y-129903354D01*
X109703820Y-129491606D01*
X109546251Y-129111200D01*
X109255100Y-128820049D01*
X108874694Y-128662480D01*
X108462946Y-128662480D01*
X108082540Y-128820049D01*
X107791389Y-129111200D01*
X107633820Y-129491606D01*
X100684000Y-129491606D01*
X100684000Y-121805566D01*
X105911700Y-121805566D01*
X105911700Y-122217314D01*
X106069269Y-122597720D01*
X106360420Y-122888871D01*
X106739661Y-123045957D01*
X106535680Y-123130449D01*
X106244529Y-123421600D01*
X106086960Y-123802006D01*
X106086960Y-124213754D01*
X106244529Y-124594160D01*
X106322459Y-124672090D01*
X106214049Y-124780500D01*
X106056480Y-125160906D01*
X106056480Y-125572654D01*
X106214049Y-125953060D01*
X106505200Y-126244211D01*
X106885606Y-126401780D01*
X107297354Y-126401780D01*
X107651600Y-126255047D01*
X107651600Y-126568334D01*
X107809169Y-126948740D01*
X108100320Y-127239891D01*
X108480726Y-127397460D01*
X108892474Y-127397460D01*
X109272880Y-127239891D01*
X109564031Y-126948740D01*
X109721600Y-126568334D01*
X109721600Y-126489326D01*
X114105740Y-126489326D01*
X114105740Y-126901074D01*
X114263309Y-127281480D01*
X114554460Y-127572631D01*
X114934866Y-127730200D01*
X115346614Y-127730200D01*
X115727020Y-127572631D01*
X116018171Y-127281480D01*
X116175740Y-126901074D01*
X116175740Y-126540126D01*
X137395000Y-126540126D01*
X137395000Y-126951874D01*
X137552569Y-127332280D01*
X137843720Y-127623431D01*
X138224126Y-127781000D01*
X138635874Y-127781000D01*
X139016280Y-127623431D01*
X139307431Y-127332280D01*
X139465000Y-126951874D01*
X139465000Y-126794126D01*
X144126000Y-126794126D01*
X144126000Y-127205874D01*
X144283569Y-127586280D01*
X144574720Y-127877431D01*
X144955126Y-128035000D01*
X145366874Y-128035000D01*
X145747280Y-127877431D01*
X146038431Y-127586280D01*
X146196000Y-127205874D01*
X146196000Y-126794126D01*
X146038431Y-126413720D01*
X145747280Y-126122569D01*
X145366874Y-125965000D01*
X144955126Y-125965000D01*
X144574720Y-126122569D01*
X144283569Y-126413720D01*
X144126000Y-126794126D01*
X139465000Y-126794126D01*
X139465000Y-126540126D01*
X139307431Y-126159720D01*
X139016280Y-125868569D01*
X138635874Y-125711000D01*
X138224126Y-125711000D01*
X137843720Y-125868569D01*
X137552569Y-126159720D01*
X137395000Y-126540126D01*
X116175740Y-126540126D01*
X116175740Y-126489326D01*
X116018171Y-126108920D01*
X115727020Y-125817769D01*
X115346614Y-125660200D01*
X114934866Y-125660200D01*
X114554460Y-125817769D01*
X114263309Y-126108920D01*
X114105740Y-126489326D01*
X109721600Y-126489326D01*
X109721600Y-126156586D01*
X109564031Y-125776180D01*
X109272880Y-125485029D01*
X108892474Y-125327460D01*
X108480726Y-125327460D01*
X108126480Y-125474193D01*
X108126480Y-125160906D01*
X107968911Y-124780500D01*
X107890981Y-124702570D01*
X107999391Y-124594160D01*
X108156960Y-124213754D01*
X108156960Y-123802006D01*
X107999391Y-123421600D01*
X107815917Y-123238126D01*
X131426000Y-123238126D01*
X131426000Y-123649874D01*
X131583569Y-124030280D01*
X131874720Y-124321431D01*
X132255126Y-124479000D01*
X132666874Y-124479000D01*
X133047280Y-124321431D01*
X133114585Y-124254126D01*
X137141000Y-124254126D01*
X137141000Y-124665874D01*
X137298569Y-125046280D01*
X137589720Y-125337431D01*
X137970126Y-125495000D01*
X138381874Y-125495000D01*
X138762280Y-125337431D01*
X139053431Y-125046280D01*
X139211000Y-124665874D01*
X139211000Y-124254126D01*
X139053431Y-123873720D01*
X138762280Y-123582569D01*
X138381874Y-123425000D01*
X137970126Y-123425000D01*
X137589720Y-123582569D01*
X137298569Y-123873720D01*
X137141000Y-124254126D01*
X133114585Y-124254126D01*
X133338431Y-124030280D01*
X133496000Y-123649874D01*
X133496000Y-123238126D01*
X133390790Y-122984126D01*
X145269000Y-122984126D01*
X145269000Y-123395874D01*
X145426569Y-123776280D01*
X145717720Y-124067431D01*
X146098126Y-124225000D01*
X146509874Y-124225000D01*
X146890280Y-124067431D01*
X147181431Y-123776280D01*
X147193000Y-123748350D01*
X147204569Y-123776280D01*
X147495720Y-124067431D01*
X147876126Y-124225000D01*
X148287874Y-124225000D01*
X148668280Y-124067431D01*
X148959431Y-123776280D01*
X149117000Y-123395874D01*
X149117000Y-122984126D01*
X148959431Y-122603720D01*
X148668280Y-122312569D01*
X148287874Y-122155000D01*
X147876126Y-122155000D01*
X147495720Y-122312569D01*
X147204569Y-122603720D01*
X147193000Y-122631650D01*
X147181431Y-122603720D01*
X146890280Y-122312569D01*
X146509874Y-122155000D01*
X146098126Y-122155000D01*
X145717720Y-122312569D01*
X145426569Y-122603720D01*
X145269000Y-122984126D01*
X133390790Y-122984126D01*
X133338431Y-122857720D01*
X133047280Y-122566569D01*
X132666874Y-122409000D01*
X132255126Y-122409000D01*
X131874720Y-122566569D01*
X131583569Y-122857720D01*
X131426000Y-123238126D01*
X107815917Y-123238126D01*
X107708240Y-123130449D01*
X107328999Y-122973363D01*
X107532980Y-122888871D01*
X107650411Y-122771440D01*
X113371713Y-122771440D01*
X113446560Y-122786328D01*
X113521407Y-122771440D01*
X113521412Y-122771440D01*
X113743097Y-122727344D01*
X113994489Y-122559369D01*
X114036891Y-122495910D01*
X115609802Y-120923000D01*
X115775874Y-120923000D01*
X116156280Y-120765431D01*
X116447431Y-120474280D01*
X116605000Y-120093874D01*
X116605000Y-119682126D01*
X116821000Y-119682126D01*
X116821000Y-120093874D01*
X116978569Y-120474280D01*
X117269720Y-120765431D01*
X117650126Y-120923000D01*
X118061874Y-120923000D01*
X118442280Y-120765431D01*
X118733431Y-120474280D01*
X118891000Y-120093874D01*
X118891000Y-119682126D01*
X118733431Y-119301720D01*
X118442280Y-119010569D01*
X118061874Y-118853000D01*
X117650126Y-118853000D01*
X117269720Y-119010569D01*
X116978569Y-119301720D01*
X116821000Y-119682126D01*
X116605000Y-119682126D01*
X116447431Y-119301720D01*
X116156280Y-119010569D01*
X115775874Y-118853000D01*
X115364126Y-118853000D01*
X114983720Y-119010569D01*
X114692569Y-119301720D01*
X114535000Y-119682126D01*
X114535000Y-119848198D01*
X113131759Y-121251440D01*
X107650411Y-121251440D01*
X107532980Y-121134009D01*
X107152574Y-120976440D01*
X106740826Y-120976440D01*
X106360420Y-121134009D01*
X106069269Y-121425160D01*
X105911700Y-121805566D01*
X100684000Y-121805566D01*
X100684000Y-119009026D01*
X101372720Y-119009026D01*
X101372720Y-119420774D01*
X101530289Y-119801180D01*
X101821440Y-120092331D01*
X102201846Y-120249900D01*
X102613594Y-120249900D01*
X102994000Y-120092331D01*
X103285151Y-119801180D01*
X103442720Y-119420774D01*
X103442720Y-119373439D01*
X103492166Y-119393920D01*
X103903914Y-119393920D01*
X104284320Y-119236351D01*
X104575471Y-118945200D01*
X104733040Y-118564794D01*
X104733040Y-118153046D01*
X104575471Y-117772640D01*
X104348750Y-117545919D01*
X104388460Y-117529471D01*
X104679611Y-117238320D01*
X104719455Y-117142126D01*
X113265000Y-117142126D01*
X113265000Y-117553874D01*
X113422569Y-117934280D01*
X113713720Y-118225431D01*
X114094126Y-118383000D01*
X114505874Y-118383000D01*
X114886280Y-118225431D01*
X115177431Y-117934280D01*
X115335000Y-117553874D01*
X115335000Y-117142126D01*
X115177431Y-116761720D01*
X114886280Y-116470569D01*
X114505874Y-116313000D01*
X114094126Y-116313000D01*
X113713720Y-116470569D01*
X113422569Y-116761720D01*
X113265000Y-117142126D01*
X104719455Y-117142126D01*
X104837180Y-116857914D01*
X104837180Y-116446166D01*
X104679611Y-116065760D01*
X104388460Y-115774609D01*
X104008054Y-115617040D01*
X103596306Y-115617040D01*
X103215900Y-115774609D01*
X102924749Y-116065760D01*
X102767180Y-116446166D01*
X102767180Y-116857914D01*
X102924749Y-117238320D01*
X103151470Y-117465041D01*
X103111760Y-117481489D01*
X102820609Y-117772640D01*
X102663040Y-118153046D01*
X102663040Y-118200381D01*
X102613594Y-118179900D01*
X102201846Y-118179900D01*
X101821440Y-118337469D01*
X101530289Y-118628620D01*
X101372720Y-119009026D01*
X100684000Y-119009026D01*
X100684000Y-114729126D01*
X112249000Y-114729126D01*
X112249000Y-115140874D01*
X112406569Y-115521280D01*
X112697720Y-115812431D01*
X113078126Y-115970000D01*
X113489874Y-115970000D01*
X113870280Y-115812431D01*
X114161431Y-115521280D01*
X114319000Y-115140874D01*
X114319000Y-114983126D01*
X130918000Y-114983126D01*
X130918000Y-115394874D01*
X131075569Y-115775280D01*
X131366720Y-116066431D01*
X131747126Y-116224000D01*
X132158874Y-116224000D01*
X132539280Y-116066431D01*
X132830431Y-115775280D01*
X132988000Y-115394874D01*
X132988000Y-114983126D01*
X132830431Y-114602720D01*
X132539280Y-114311569D01*
X132158874Y-114154000D01*
X131747126Y-114154000D01*
X131366720Y-114311569D01*
X131075569Y-114602720D01*
X130918000Y-114983126D01*
X114319000Y-114983126D01*
X114319000Y-114729126D01*
X114161431Y-114348720D01*
X113870280Y-114057569D01*
X113489874Y-113900000D01*
X113078126Y-113900000D01*
X112697720Y-114057569D01*
X112406569Y-114348720D01*
X112249000Y-114729126D01*
X100684000Y-114729126D01*
X100684000Y-111218051D01*
X100828300Y-111362351D01*
X101208706Y-111519920D01*
X101620454Y-111519920D01*
X102000860Y-111362351D01*
X102292011Y-111071200D01*
X102427596Y-110743866D01*
X107740500Y-110743866D01*
X107740500Y-111155614D01*
X107898069Y-111536020D01*
X108189220Y-111827171D01*
X108569626Y-111984740D01*
X108981374Y-111984740D01*
X109101153Y-111935126D01*
X140443000Y-111935126D01*
X140443000Y-112346874D01*
X140600569Y-112727280D01*
X140891720Y-113018431D01*
X141272126Y-113176000D01*
X141683874Y-113176000D01*
X142064280Y-113018431D01*
X142355431Y-112727280D01*
X142513000Y-112346874D01*
X142513000Y-111935126D01*
X142355431Y-111554720D01*
X142064280Y-111263569D01*
X141683874Y-111106000D01*
X141272126Y-111106000D01*
X140891720Y-111263569D01*
X140600569Y-111554720D01*
X140443000Y-111935126D01*
X109101153Y-111935126D01*
X109361780Y-111827171D01*
X109652931Y-111536020D01*
X109810500Y-111155614D01*
X109810500Y-110743866D01*
X109652931Y-110363460D01*
X109361780Y-110072309D01*
X108981374Y-109914740D01*
X108569626Y-109914740D01*
X108189220Y-110072309D01*
X107898069Y-110363460D01*
X107740500Y-110743866D01*
X102427596Y-110743866D01*
X102449580Y-110690794D01*
X102449580Y-110279046D01*
X102292011Y-109898640D01*
X102000860Y-109607489D01*
X101948078Y-109585626D01*
X132759500Y-109585626D01*
X132759500Y-109997374D01*
X132917069Y-110377780D01*
X133208220Y-110668931D01*
X133588626Y-110826500D01*
X134000374Y-110826500D01*
X134380780Y-110668931D01*
X134671931Y-110377780D01*
X134829500Y-109997374D01*
X134829500Y-109585626D01*
X134671931Y-109205220D01*
X134380780Y-108914069D01*
X134000374Y-108756500D01*
X133588626Y-108756500D01*
X133208220Y-108914069D01*
X132917069Y-109205220D01*
X132759500Y-109585626D01*
X101948078Y-109585626D01*
X101620454Y-109449920D01*
X101208706Y-109449920D01*
X100828300Y-109607489D01*
X100684000Y-109751789D01*
X100684000Y-108439006D01*
X136727500Y-108439006D01*
X136727500Y-108989994D01*
X136938353Y-109499040D01*
X137327960Y-109888647D01*
X137837006Y-110099500D01*
X138387994Y-110099500D01*
X138897040Y-109888647D01*
X139200061Y-109585626D01*
X147174000Y-109585626D01*
X147174000Y-109997374D01*
X147331569Y-110377780D01*
X147622720Y-110668931D01*
X148003126Y-110826500D01*
X148414874Y-110826500D01*
X148795280Y-110668931D01*
X149086431Y-110377780D01*
X149244000Y-109997374D01*
X149244000Y-109585626D01*
X149086431Y-109205220D01*
X148795280Y-108914069D01*
X148414874Y-108756500D01*
X148003126Y-108756500D01*
X147622720Y-108914069D01*
X147331569Y-109205220D01*
X147174000Y-109585626D01*
X139200061Y-109585626D01*
X139286647Y-109499040D01*
X139497500Y-108989994D01*
X139497500Y-108897576D01*
X139584569Y-109107780D01*
X139875720Y-109398931D01*
X140256126Y-109556500D01*
X140667874Y-109556500D01*
X141048280Y-109398931D01*
X141339431Y-109107780D01*
X141497000Y-108727374D01*
X141497000Y-108315626D01*
X141339431Y-107935220D01*
X141048280Y-107644069D01*
X140667874Y-107486500D01*
X140256126Y-107486500D01*
X139875720Y-107644069D01*
X139584569Y-107935220D01*
X139436697Y-108292215D01*
X139286647Y-107929960D01*
X138897040Y-107540353D01*
X138387994Y-107329500D01*
X137837006Y-107329500D01*
X137327960Y-107540353D01*
X136938353Y-107929960D01*
X136727500Y-108439006D01*
X100684000Y-108439006D01*
X100684000Y-106367446D01*
X109340700Y-106367446D01*
X109340700Y-106779194D01*
X109498269Y-107159600D01*
X109789420Y-107450751D01*
X110169826Y-107608320D01*
X110581574Y-107608320D01*
X110961980Y-107450751D01*
X111253131Y-107159600D01*
X111410700Y-106779194D01*
X111410700Y-106367446D01*
X111253131Y-105987040D01*
X110961980Y-105695889D01*
X110581574Y-105538320D01*
X110169826Y-105538320D01*
X109789420Y-105695889D01*
X109498269Y-105987040D01*
X109340700Y-106367446D01*
X100684000Y-106367446D01*
X100684000Y-105331126D01*
X120377000Y-105331126D01*
X120377000Y-105742874D01*
X120534569Y-106123280D01*
X120825720Y-106414431D01*
X121206126Y-106572000D01*
X121617874Y-106572000D01*
X121998280Y-106414431D01*
X122289431Y-106123280D01*
X122447000Y-105742874D01*
X122447000Y-105331126D01*
X122289431Y-104950720D01*
X121998280Y-104659569D01*
X121617874Y-104502000D01*
X121206126Y-104502000D01*
X120825720Y-104659569D01*
X120534569Y-104950720D01*
X120377000Y-105331126D01*
X100684000Y-105331126D01*
X100684000Y-101805606D01*
X104278480Y-101805606D01*
X104278480Y-102217354D01*
X104436049Y-102597760D01*
X104727200Y-102888911D01*
X105107606Y-103046480D01*
X105519354Y-103046480D01*
X105899760Y-102888911D01*
X106038185Y-102750486D01*
X120346520Y-102750486D01*
X120346520Y-103162234D01*
X120504089Y-103542640D01*
X120795240Y-103833791D01*
X121175646Y-103991360D01*
X121587394Y-103991360D01*
X121967800Y-103833791D01*
X122258951Y-103542640D01*
X122416520Y-103162234D01*
X122416520Y-102750486D01*
X122258951Y-102370080D01*
X121967800Y-102078929D01*
X121587394Y-101921360D01*
X121175646Y-101921360D01*
X120795240Y-102078929D01*
X120504089Y-102370080D01*
X120346520Y-102750486D01*
X106038185Y-102750486D01*
X106190911Y-102597760D01*
X106348480Y-102217354D01*
X106348480Y-101805606D01*
X106190911Y-101425200D01*
X105899760Y-101134049D01*
X105519354Y-100976480D01*
X105107606Y-100976480D01*
X104727200Y-101134049D01*
X104436049Y-101425200D01*
X104278480Y-101805606D01*
X100684000Y-101805606D01*
X100684000Y-101781612D01*
X100679704Y-101760013D01*
X100713985Y-101520636D01*
X100853372Y-101214072D01*
X101073199Y-100958950D01*
X101355792Y-100775782D01*
X101701959Y-100672257D01*
X101716968Y-100671142D01*
X101781612Y-100684000D01*
G04 #@! TD*
M02*
