M48
;DRILL file {KiCad (5.0.0)} date 01/07/19 23:24:35
;FORMAT={-:-/ absolute / inch / decimal}
FMAT,2
INCH,TZ
T1C0.0157
T2C0.0394
%
G90
G05
M72
T1
X3.9927Y-4.3498
X4.0025Y-4.1261
X4.0318Y-4.6935
X4.0418Y-5.1712
X4.0482Y-5.6674
X4.0826Y-4.6598
X4.0867Y-4.5926
X4.0902Y-5.7282
X4.0916Y-5.2041
X4.1462Y-4.0162
X4.2105Y-4.8036
X4.2162Y-4.9357
X4.2174Y-4.8822
X4.2607Y-5.555
X4.2783Y-5.1062
X4.279Y-4.9749
X4.2825Y-4.3681
X4.3455Y-4.1958
X4.46Y-4.525
X4.463Y-5.5282
X4.5Y-4.62
X4.5225Y-5.4075
X4.5331Y-4.988
X4.55Y-4.72
X4.5575Y-5.44
X4.5612Y-5.698
X4.6278Y-5.1933
X4.6288Y-4.8477
X4.6288Y-4.9025
X4.633Y-4.7936
X4.64Y-4.72
X4.677Y-4.8767
X4.6792Y-4.8159
X4.7162Y-4.1944
X4.7202Y-5.0466
X4.732Y-5.1444
X4.7788Y-4.0534
X4.78Y-4.155
X4.83Y-4.7
X4.88Y-5.0275
X4.895Y-4.86
X4.9165Y-5.7175
X4.9216Y-5.178
X4.945Y-5.03
X5.1336Y-5.8188
X5.175Y-5.2015
X5.1815Y-5.4196
X5.195Y-4.535
X5.215Y-4.86
X5.2212Y-5.7293
X5.25Y-5.165
X5.2675Y-4.3225
X5.2806Y-5.6682
X5.3423Y-5.7057
X5.425Y-5.1
X5.44Y-4.9
X5.45Y-4.99
X5.4753Y-5.3035
X5.514Y-5.5748
X5.53Y-4.2725
X5.5573Y-5.7409
X5.57Y-4.415
X5.6455Y-5.8416
X5.715Y-5.
X5.7197Y-5.824
X5.745Y-4.3175
X5.76Y-4.85
X5.82Y-4.6425
X5.83Y-4.85
X5.835Y-4.3225
T2
X5.8292Y-5.3864
X5.8292Y-5.4864
X5.0855Y-5.3085
X5.8295Y-5.0635
X5.8295Y-5.1635
X5.83Y-4.455
X5.83Y-4.555
T0
M30
