G04 #@! TF.GenerationSoftware,KiCad,Pcbnew,(5.0.0)*
G04 #@! TF.CreationDate,2019-01-07T23:24:32-05:00*
G04 #@! TF.ProjectId,Audio_Breakout,417564696F5F427265616B6F75742E6B,rev?*
G04 #@! TF.SameCoordinates,Original*
G04 #@! TF.FileFunction,Copper,L3,Inr,Signal*
G04 #@! TF.FilePolarity,Positive*
%FSLAX46Y46*%
G04 Gerber Fmt 4.6, Leading zero omitted, Abs format (unit mm)*
G04 Created by KiCad (PCBNEW (5.0.0)) date 01/07/19 23:24:32*
%MOMM*%
%LPD*%
G01*
G04 APERTURE LIST*
G04 #@! TA.AperFunction,NonConductor*
%ADD10C,0.300000*%
G04 #@! TD*
G04 #@! TA.AperFunction,ViaPad*
%ADD11O,1.700000X1.700000*%
G04 #@! TD*
G04 #@! TA.AperFunction,ViaPad*
%ADD12R,1.700000X1.700000*%
G04 #@! TD*
G04 #@! TA.AperFunction,ViaPad*
%ADD13C,0.800000*%
G04 #@! TD*
G04 #@! TA.AperFunction,Conductor*
%ADD14C,0.250000*%
G04 #@! TD*
G04 #@! TA.AperFunction,Conductor*
%ADD15C,0.500000*%
G04 #@! TD*
G04 #@! TA.AperFunction,Conductor*
%ADD16C,0.254000*%
G04 #@! TD*
G04 APERTURE END LIST*
D10*
X125136020Y-147725391D02*
X126064591Y-147725391D01*
X125564591Y-148296820D01*
X125778877Y-148296820D01*
X125921734Y-148368248D01*
X125993162Y-148439677D01*
X126064591Y-148582534D01*
X126064591Y-148939677D01*
X125993162Y-149082534D01*
X125921734Y-149153962D01*
X125778877Y-149225391D01*
X125350305Y-149225391D01*
X125207448Y-149153962D01*
X125136020Y-149082534D01*
D11*
G04 #@! TO.N,AGND*
G04 #@! TO.C,J6*
X148082000Y-113157000D03*
D12*
G04 #@! TO.N,Net-(J6-Pad1)*
X148082000Y-115697000D03*
G04 #@! TD*
D11*
G04 #@! TO.N,AUD_OUT-*
G04 #@! TO.C,J7*
X148069300Y-128612900D03*
D12*
G04 #@! TO.N,AUD_OUT+*
X148069300Y-131152900D03*
G04 #@! TD*
D11*
G04 #@! TO.N,AUD_OUT-*
G04 #@! TO.C,J8*
X148061680Y-139354560D03*
D12*
G04 #@! TO.N,AUD_OUT+*
X148061680Y-136814560D03*
G04 #@! TD*
G04 #@! TO.N,Net-(C7-Pad2)*
G04 #@! TO.C,J9*
X129171700Y-134835900D03*
G04 #@! TD*
D13*
G04 #@! TO.N,AGND*
X103891080Y-145496280D03*
X103926640Y-132184140D03*
X108775500Y-110949740D03*
X124879100Y-145224500D03*
X135694420Y-144924780D03*
X145280380Y-147929600D03*
X140055600Y-141599920D03*
X143395700Y-148376640D03*
X139072620Y-134708900D03*
X133350000Y-131191000D03*
X137795000Y-129540000D03*
G04 #@! TO.N,3V3DC*
X101663500Y-104802940D03*
X119791480Y-106537760D03*
X117678200Y-121757440D03*
X117571520Y-123131580D03*
X118851680Y-122323860D03*
X117571520Y-124523500D03*
X118795800Y-123868180D03*
X119893080Y-128183640D03*
X131445000Y-132118100D03*
X134127240Y-143972280D03*
G04 #@! TO.N,DGND*
X102824280Y-143951960D03*
X102661720Y-131348480D03*
X102407720Y-119214900D03*
X101414580Y-110484920D03*
G04 #@! TO.N,5VDC*
X131610100Y-137657840D03*
X117546120Y-131909820D03*
X110375700Y-106573320D03*
X121381520Y-102956360D03*
G04 #@! TO.N,Net-(J1-Pad5)*
X108221780Y-141097000D03*
X108686600Y-126362460D03*
X108668820Y-129697480D03*
X115140740Y-126695200D03*
G04 #@! TO.N,MIC_1*
X107091480Y-125366780D03*
G04 #@! TO.N,MIC_0*
X107121960Y-124007880D03*
G04 #@! TO.N,GPIO1_2*
X106946700Y-122011440D03*
G04 #@! TO.N,GPIO1_9*
X103698040Y-118358920D03*
X130393440Y-147797520D03*
G04 #@! TO.N,GPIO1_4*
X105313480Y-102011480D03*
X103802180Y-116652040D03*
G04 #@! TO.N,AGND*
X138430000Y-126746000D03*
X132461000Y-123444000D03*
X131953000Y-115189000D03*
X121412000Y-105537000D03*
X147828000Y-117919500D03*
X148209000Y-109791500D03*
G04 #@! TO.N,3V3DC*
X124333000Y-123444000D03*
X122682000Y-119380000D03*
X145923000Y-109664500D03*
G04 #@! TO.N,MIC_1*
X114300000Y-117348000D03*
G04 #@! TO.N,MIC_0*
X113284000Y-114935000D03*
G04 #@! TO.N,AGND*
X133794500Y-109791500D03*
G04 #@! TO.N,HP_0*
X115760500Y-138176000D03*
X125603000Y-127762000D03*
X141478000Y-112141000D03*
G04 #@! TO.N,HP_1*
X114871500Y-137350500D03*
X123952000Y-127698500D03*
X140462000Y-108521500D03*
G04 #@! TO.N,GPIO1_2*
X115570000Y-119888000D03*
X117856000Y-119888000D03*
X138176000Y-124460000D03*
G04 #@! TO.N,AUD_OUT+*
X146304000Y-123190000D03*
G04 #@! TO.N,AUD_OUT-*
X148082000Y-123190000D03*
X145161000Y-127000000D03*
G04 #@! TO.N,ON_MONO2*
X132618480Y-145524220D03*
X120192800Y-130667760D03*
G04 #@! TO.N,Net-(R5-Pad1)*
X113360200Y-140416280D03*
X115854480Y-144729200D03*
G04 #@! TO.N,Mono2*
X125008640Y-131521200D03*
X141155420Y-145818860D03*
G04 #@! TD*
D14*
G04 #@! TO.N,DGND*
X102824280Y-131511040D02*
X102661720Y-131348480D01*
X102824280Y-143951960D02*
X102824280Y-131511040D01*
X102661720Y-119468900D02*
X102407720Y-119214900D01*
X102661720Y-131348480D02*
X102661720Y-119468900D01*
X102407720Y-119214900D02*
X102407720Y-111478060D01*
X102407720Y-111478060D02*
X101414580Y-110484920D01*
D15*
G04 #@! TO.N,5VDC*
X123294140Y-137657840D02*
X131610100Y-137657840D01*
X117546120Y-131909820D02*
X123294140Y-137657840D01*
X116721519Y-131085219D02*
X116721519Y-113071539D01*
X117546120Y-131909820D02*
X116721519Y-131085219D01*
X116721519Y-113071539D02*
X110375700Y-106725720D01*
X110375700Y-106725720D02*
X110375700Y-106573320D01*
X110375700Y-106573320D02*
X117764560Y-106573320D01*
X117764560Y-106573320D02*
X121381520Y-102956360D01*
G04 #@! TO.N,Net-(J1-Pad5)*
X108668820Y-126380240D02*
X108686600Y-126362460D01*
X108668820Y-129697480D02*
X108668820Y-126380240D01*
X108221780Y-130144520D02*
X108668820Y-129697480D01*
X108221780Y-141097000D02*
X108221780Y-130144520D01*
X108686600Y-126362460D02*
X114808000Y-126362460D01*
X114808000Y-126362460D02*
X115140740Y-126695200D01*
D14*
G04 #@! TO.N,GPIO1_9*
X130284220Y-147688300D02*
X130393440Y-147797520D01*
G04 #@! TO.N,GPIO1_4*
X105313480Y-102577165D02*
X103289100Y-104601545D01*
X105313480Y-102011480D02*
X105313480Y-102577165D01*
X103289100Y-104601545D02*
X103289100Y-116138960D01*
X103289100Y-116138960D02*
X103802180Y-116652040D01*
G04 #@! TO.N,MIC_1*
X107091480Y-125366780D02*
X114300000Y-118158260D01*
X114300000Y-118158260D02*
X114300000Y-117348000D01*
G04 #@! TO.N,MIC_0*
X107521959Y-123607881D02*
X107542279Y-123607881D01*
X107121960Y-124007880D02*
X107521959Y-123607881D01*
X107542279Y-123607881D02*
X112582960Y-118567200D01*
X112582960Y-115636040D02*
X113284000Y-114935000D01*
X112582960Y-118567200D02*
X112582960Y-115636040D01*
G04 #@! TO.N,HP_0*
X126002999Y-127362001D02*
X126002999Y-127298501D01*
X125603000Y-127762000D02*
X126002999Y-127362001D01*
X141478000Y-122867412D02*
X141478000Y-112141000D01*
X138710402Y-125635010D02*
X141478000Y-122867412D01*
X126002999Y-127298501D02*
X127666489Y-125635011D01*
X127666489Y-125635011D02*
X138710402Y-125635010D01*
G04 #@! TO.N,HP_1*
X140462000Y-123247002D02*
X140462000Y-108521500D01*
X138524001Y-125185001D02*
X140462000Y-123247002D01*
X123952000Y-127698500D02*
X126465499Y-125185001D01*
X126465499Y-125185001D02*
X138524001Y-125185001D01*
G04 #@! TO.N,GPIO1_2*
X120618081Y-122650081D02*
X117856000Y-119888000D01*
X120618081Y-123952000D02*
X120618081Y-122650081D01*
X121126081Y-124460000D02*
X120618081Y-123952000D01*
X138176000Y-124460000D02*
X121126081Y-124460000D01*
G04 #@! TO.N,GPIO1_9*
X103698040Y-119835782D02*
X103698040Y-118358920D01*
X130393440Y-147797520D02*
X130393440Y-147231835D01*
X130393440Y-147231835D02*
X129111106Y-145949501D01*
X129111106Y-145949501D02*
X105196619Y-145949501D01*
X105196619Y-145949501D02*
X104853740Y-145606622D01*
X104853740Y-145606622D02*
X104853740Y-120991482D01*
X104853740Y-120991482D02*
X103698040Y-119835782D01*
G04 #@! TO.N,ON_MONO2*
X132618480Y-137593218D02*
X131583282Y-136558020D01*
X132618480Y-145524220D02*
X132618480Y-137593218D01*
X131583282Y-136558020D02*
X126083060Y-136558020D01*
X126083060Y-136558020D02*
X120192800Y-130667760D01*
G04 #@! TO.N,Net-(R5-Pad1)*
X113360200Y-140416280D02*
X113360200Y-142234920D01*
X113360200Y-142234920D02*
X115854480Y-144729200D01*
G04 #@! TO.N,Mono2*
X141155420Y-144534618D02*
X141155420Y-145818860D01*
X125008640Y-131521200D02*
X128142002Y-131521200D01*
X128142002Y-131521200D02*
X141155420Y-144534618D01*
G04 #@! TD*
D16*
G04 #@! TO.N,AUD_OUT-*
G36*
X149252001Y-127748378D02*
X148950658Y-127417717D01*
X148426192Y-127171414D01*
X148196300Y-127292081D01*
X148196300Y-128485900D01*
X148216300Y-128485900D01*
X148216300Y-128739900D01*
X148196300Y-128739900D01*
X148196300Y-128759900D01*
X147942300Y-128759900D01*
X147942300Y-128739900D01*
X146749145Y-128739900D01*
X146627824Y-128969790D01*
X146797655Y-129379824D01*
X147075008Y-129684161D01*
X146971535Y-129704743D01*
X146761491Y-129845091D01*
X146621143Y-130055135D01*
X146571860Y-130302900D01*
X146571860Y-132002900D01*
X146621143Y-132250665D01*
X146761491Y-132460709D01*
X146971535Y-132601057D01*
X147219300Y-132650340D01*
X148919300Y-132650340D01*
X149167065Y-132601057D01*
X149252001Y-132544304D01*
X149252001Y-135428247D01*
X149159445Y-135366403D01*
X148911680Y-135317120D01*
X147211680Y-135317120D01*
X146963915Y-135366403D01*
X146753871Y-135506751D01*
X146613523Y-135716795D01*
X146564240Y-135964560D01*
X146564240Y-137664560D01*
X146613523Y-137912325D01*
X146753871Y-138122369D01*
X146963915Y-138262717D01*
X147067388Y-138283299D01*
X146790035Y-138587636D01*
X146620204Y-138997670D01*
X146741525Y-139227560D01*
X147934680Y-139227560D01*
X147934680Y-139207560D01*
X148188680Y-139207560D01*
X148188680Y-139227560D01*
X148208680Y-139227560D01*
X148208680Y-139481560D01*
X148188680Y-139481560D01*
X148188680Y-140675379D01*
X148418572Y-140796046D01*
X148943038Y-140549743D01*
X149252001Y-140210720D01*
X149252001Y-141334635D01*
X144399000Y-141226791D01*
X144399000Y-139711450D01*
X146620204Y-139711450D01*
X146790035Y-140121484D01*
X147180322Y-140549743D01*
X147704788Y-140796046D01*
X147934680Y-140675379D01*
X147934680Y-139481560D01*
X146741525Y-139481560D01*
X146620204Y-139711450D01*
X144399000Y-139711450D01*
X144399000Y-128256010D01*
X146627824Y-128256010D01*
X146749145Y-128485900D01*
X147942300Y-128485900D01*
X147942300Y-127292081D01*
X147712408Y-127171414D01*
X147187942Y-127417717D01*
X146797655Y-127845976D01*
X146627824Y-128256010D01*
X144399000Y-128256010D01*
X144399000Y-122984126D01*
X145269000Y-122984126D01*
X145269000Y-123395874D01*
X145426569Y-123776280D01*
X145717720Y-124067431D01*
X146098126Y-124225000D01*
X146509874Y-124225000D01*
X146890280Y-124067431D01*
X147181431Y-123776280D01*
X147339000Y-123395874D01*
X147339000Y-122984126D01*
X147181431Y-122603720D01*
X146890280Y-122312569D01*
X146509874Y-122155000D01*
X146098126Y-122155000D01*
X145717720Y-122312569D01*
X145426569Y-122603720D01*
X145269000Y-122984126D01*
X144399000Y-122984126D01*
X144399000Y-120523000D01*
X149252001Y-120523000D01*
X149252001Y-127748378D01*
X149252001Y-127748378D01*
G37*
X149252001Y-127748378D02*
X148950658Y-127417717D01*
X148426192Y-127171414D01*
X148196300Y-127292081D01*
X148196300Y-128485900D01*
X148216300Y-128485900D01*
X148216300Y-128739900D01*
X148196300Y-128739900D01*
X148196300Y-128759900D01*
X147942300Y-128759900D01*
X147942300Y-128739900D01*
X146749145Y-128739900D01*
X146627824Y-128969790D01*
X146797655Y-129379824D01*
X147075008Y-129684161D01*
X146971535Y-129704743D01*
X146761491Y-129845091D01*
X146621143Y-130055135D01*
X146571860Y-130302900D01*
X146571860Y-132002900D01*
X146621143Y-132250665D01*
X146761491Y-132460709D01*
X146971535Y-132601057D01*
X147219300Y-132650340D01*
X148919300Y-132650340D01*
X149167065Y-132601057D01*
X149252001Y-132544304D01*
X149252001Y-135428247D01*
X149159445Y-135366403D01*
X148911680Y-135317120D01*
X147211680Y-135317120D01*
X146963915Y-135366403D01*
X146753871Y-135506751D01*
X146613523Y-135716795D01*
X146564240Y-135964560D01*
X146564240Y-137664560D01*
X146613523Y-137912325D01*
X146753871Y-138122369D01*
X146963915Y-138262717D01*
X147067388Y-138283299D01*
X146790035Y-138587636D01*
X146620204Y-138997670D01*
X146741525Y-139227560D01*
X147934680Y-139227560D01*
X147934680Y-139207560D01*
X148188680Y-139207560D01*
X148188680Y-139227560D01*
X148208680Y-139227560D01*
X148208680Y-139481560D01*
X148188680Y-139481560D01*
X148188680Y-140675379D01*
X148418572Y-140796046D01*
X148943038Y-140549743D01*
X149252001Y-140210720D01*
X149252001Y-141334635D01*
X144399000Y-141226791D01*
X144399000Y-139711450D01*
X146620204Y-139711450D01*
X146790035Y-140121484D01*
X147180322Y-140549743D01*
X147704788Y-140796046D01*
X147934680Y-140675379D01*
X147934680Y-139481560D01*
X146741525Y-139481560D01*
X146620204Y-139711450D01*
X144399000Y-139711450D01*
X144399000Y-128256010D01*
X146627824Y-128256010D01*
X146749145Y-128485900D01*
X147942300Y-128485900D01*
X147942300Y-127292081D01*
X147712408Y-127171414D01*
X147187942Y-127417717D01*
X146797655Y-127845976D01*
X146627824Y-128256010D01*
X144399000Y-128256010D01*
X144399000Y-122984126D01*
X145269000Y-122984126D01*
X145269000Y-123395874D01*
X145426569Y-123776280D01*
X145717720Y-124067431D01*
X146098126Y-124225000D01*
X146509874Y-124225000D01*
X146890280Y-124067431D01*
X147181431Y-123776280D01*
X147339000Y-123395874D01*
X147339000Y-122984126D01*
X147181431Y-122603720D01*
X146890280Y-122312569D01*
X146509874Y-122155000D01*
X146098126Y-122155000D01*
X145717720Y-122312569D01*
X145426569Y-122603720D01*
X145269000Y-122984126D01*
X144399000Y-122984126D01*
X144399000Y-120523000D01*
X149252001Y-120523000D01*
X149252001Y-127748378D01*
G04 #@! TD*
M02*
