G04 #@! TF.GenerationSoftware,KiCad,Pcbnew,(5.0.0)*
G04 #@! TF.CreationDate,2019-01-07T23:24:32-05:00*
G04 #@! TF.ProjectId,Audio_Breakout,417564696F5F427265616B6F75742E6B,rev?*
G04 #@! TF.SameCoordinates,Original*
G04 #@! TF.FileFunction,Copper,L1,Top,Signal*
G04 #@! TF.FilePolarity,Positive*
%FSLAX46Y46*%
G04 Gerber Fmt 4.6, Leading zero omitted, Abs format (unit mm)*
G04 Created by KiCad (PCBNEW (5.0.0)) date 01/07/19 23:24:32*
%MOMM*%
%LPD*%
G01*
G04 APERTURE LIST*
G04 #@! TA.AperFunction,NonConductor*
%ADD10C,0.300000*%
G04 #@! TD*
G04 #@! TA.AperFunction,SMDPad,CuDef*
%ADD11R,2.500000X1.200000*%
G04 #@! TD*
G04 #@! TA.AperFunction,Conductor*
%ADD12C,0.100000*%
G04 #@! TD*
G04 #@! TA.AperFunction,SMDPad,CuDef*
%ADD13C,1.150000*%
G04 #@! TD*
G04 #@! TA.AperFunction,SMDPad,CuDef*
%ADD14R,2.800000X1.000000*%
G04 #@! TD*
G04 #@! TA.AperFunction,SMDPad,CuDef*
%ADD15R,1.700000X0.600000*%
G04 #@! TD*
G04 #@! TA.AperFunction,SMDPad,CuDef*
%ADD16R,3.150000X1.000000*%
G04 #@! TD*
G04 #@! TA.AperFunction,ComponentPad*
%ADD17O,1.700000X1.700000*%
G04 #@! TD*
G04 #@! TA.AperFunction,ComponentPad*
%ADD18R,1.700000X1.700000*%
G04 #@! TD*
G04 #@! TA.AperFunction,SMDPad,CuDef*
%ADD19R,1.000000X2.510000*%
G04 #@! TD*
G04 #@! TA.AperFunction,SMDPad,CuDef*
%ADD20C,0.300000*%
G04 #@! TD*
G04 #@! TA.AperFunction,SMDPad,CuDef*
%ADD21R,0.600000X1.500000*%
G04 #@! TD*
G04 #@! TA.AperFunction,SMDPad,CuDef*
%ADD22R,2.000000X1.600000*%
G04 #@! TD*
G04 #@! TA.AperFunction,SMDPad,CuDef*
%ADD23R,1.500000X0.600000*%
G04 #@! TD*
G04 #@! TA.AperFunction,SMDPad,CuDef*
%ADD24R,0.660000X0.900000*%
G04 #@! TD*
G04 #@! TA.AperFunction,SMDPad,CuDef*
%ADD25R,1.550000X0.600000*%
G04 #@! TD*
G04 #@! TA.AperFunction,SMDPad,CuDef*
%ADD26R,0.450000X1.450000*%
G04 #@! TD*
G04 #@! TA.AperFunction,SMDPad,CuDef*
%ADD27R,1.450000X0.450000*%
G04 #@! TD*
G04 #@! TA.AperFunction,SMDPad,CuDef*
%ADD28R,1.000000X0.900000*%
G04 #@! TD*
G04 #@! TA.AperFunction,SMDPad,CuDef*
%ADD29R,1.120000X2.160000*%
G04 #@! TD*
G04 #@! TA.AperFunction,ViaPad*
%ADD30C,0.800000*%
G04 #@! TD*
G04 #@! TA.AperFunction,Conductor*
%ADD31C,0.250000*%
G04 #@! TD*
G04 #@! TA.AperFunction,Conductor*
%ADD32C,0.500000*%
G04 #@! TD*
G04 #@! TA.AperFunction,Conductor*
%ADD33C,0.300000*%
G04 #@! TD*
G04 #@! TA.AperFunction,Conductor*
%ADD34C,0.254000*%
G04 #@! TD*
G04 APERTURE END LIST*
D10*
X123125811Y-149271111D02*
X122268668Y-149271111D01*
X122697240Y-149271111D02*
X122697240Y-147771111D01*
X122554382Y-147985397D01*
X122411525Y-148128254D01*
X122268668Y-148199682D01*
D11*
G04 #@! TO.P,J4,3*
G04 #@! TO.N,MIC_0*
X141362500Y-103314500D03*
G04 #@! TO.P,J4,2*
G04 #@! TO.N,HP_1*
X141362500Y-106314500D03*
G04 #@! TO.P,J4,1*
G04 #@! TO.N,HP_0*
X141362500Y-110314500D03*
G04 #@! TO.P,J4,4*
G04 #@! TO.N,AGND*
X134862500Y-111414500D03*
G04 #@! TD*
D12*
G04 #@! TO.N,AGND*
G04 #@! TO.C,C1*
G36*
X148117686Y-106908763D02*
X148141954Y-106912363D01*
X148165753Y-106918324D01*
X148188852Y-106926589D01*
X148211031Y-106937079D01*
X148232074Y-106949691D01*
X148251780Y-106964306D01*
X148269958Y-106980782D01*
X148286434Y-106998960D01*
X148301049Y-107018666D01*
X148313661Y-107039709D01*
X148324151Y-107061888D01*
X148332416Y-107084987D01*
X148338377Y-107108786D01*
X148341977Y-107133054D01*
X148343181Y-107157558D01*
X148343181Y-108057560D01*
X148341977Y-108082064D01*
X148338377Y-108106332D01*
X148332416Y-108130131D01*
X148324151Y-108153230D01*
X148313661Y-108175409D01*
X148301049Y-108196452D01*
X148286434Y-108216158D01*
X148269958Y-108234336D01*
X148251780Y-108250812D01*
X148232074Y-108265427D01*
X148211031Y-108278039D01*
X148188852Y-108288529D01*
X148165753Y-108296794D01*
X148141954Y-108302755D01*
X148117686Y-108306355D01*
X148093182Y-108307559D01*
X147443180Y-108307559D01*
X147418676Y-108306355D01*
X147394408Y-108302755D01*
X147370609Y-108296794D01*
X147347510Y-108288529D01*
X147325331Y-108278039D01*
X147304288Y-108265427D01*
X147284582Y-108250812D01*
X147266404Y-108234336D01*
X147249928Y-108216158D01*
X147235313Y-108196452D01*
X147222701Y-108175409D01*
X147212211Y-108153230D01*
X147203946Y-108130131D01*
X147197985Y-108106332D01*
X147194385Y-108082064D01*
X147193181Y-108057560D01*
X147193181Y-107157558D01*
X147194385Y-107133054D01*
X147197985Y-107108786D01*
X147203946Y-107084987D01*
X147212211Y-107061888D01*
X147222701Y-107039709D01*
X147235313Y-107018666D01*
X147249928Y-106998960D01*
X147266404Y-106980782D01*
X147284582Y-106964306D01*
X147304288Y-106949691D01*
X147325331Y-106937079D01*
X147347510Y-106926589D01*
X147370609Y-106918324D01*
X147394408Y-106912363D01*
X147418676Y-106908763D01*
X147443180Y-106907559D01*
X148093182Y-106907559D01*
X148117686Y-106908763D01*
X148117686Y-106908763D01*
G37*
D13*
G04 #@! TD*
G04 #@! TO.P,C1,2*
G04 #@! TO.N,AGND*
X147768181Y-107607559D03*
D12*
G04 #@! TO.N,3V3DC*
G04 #@! TO.C,C1*
G36*
X146067686Y-106908763D02*
X146091954Y-106912363D01*
X146115753Y-106918324D01*
X146138852Y-106926589D01*
X146161031Y-106937079D01*
X146182074Y-106949691D01*
X146201780Y-106964306D01*
X146219958Y-106980782D01*
X146236434Y-106998960D01*
X146251049Y-107018666D01*
X146263661Y-107039709D01*
X146274151Y-107061888D01*
X146282416Y-107084987D01*
X146288377Y-107108786D01*
X146291977Y-107133054D01*
X146293181Y-107157558D01*
X146293181Y-108057560D01*
X146291977Y-108082064D01*
X146288377Y-108106332D01*
X146282416Y-108130131D01*
X146274151Y-108153230D01*
X146263661Y-108175409D01*
X146251049Y-108196452D01*
X146236434Y-108216158D01*
X146219958Y-108234336D01*
X146201780Y-108250812D01*
X146182074Y-108265427D01*
X146161031Y-108278039D01*
X146138852Y-108288529D01*
X146115753Y-108296794D01*
X146091954Y-108302755D01*
X146067686Y-108306355D01*
X146043182Y-108307559D01*
X145393180Y-108307559D01*
X145368676Y-108306355D01*
X145344408Y-108302755D01*
X145320609Y-108296794D01*
X145297510Y-108288529D01*
X145275331Y-108278039D01*
X145254288Y-108265427D01*
X145234582Y-108250812D01*
X145216404Y-108234336D01*
X145199928Y-108216158D01*
X145185313Y-108196452D01*
X145172701Y-108175409D01*
X145162211Y-108153230D01*
X145153946Y-108130131D01*
X145147985Y-108106332D01*
X145144385Y-108082064D01*
X145143181Y-108057560D01*
X145143181Y-107157558D01*
X145144385Y-107133054D01*
X145147985Y-107108786D01*
X145153946Y-107084987D01*
X145162211Y-107061888D01*
X145172701Y-107039709D01*
X145185313Y-107018666D01*
X145199928Y-106998960D01*
X145216404Y-106980782D01*
X145234582Y-106964306D01*
X145254288Y-106949691D01*
X145275331Y-106937079D01*
X145297510Y-106926589D01*
X145320609Y-106918324D01*
X145344408Y-106912363D01*
X145368676Y-106908763D01*
X145393180Y-106907559D01*
X146043182Y-106907559D01*
X146067686Y-106908763D01*
X146067686Y-106908763D01*
G37*
D13*
G04 #@! TD*
G04 #@! TO.P,C1,1*
G04 #@! TO.N,3V3DC*
X145718181Y-107607559D03*
D12*
G04 #@! TO.N,Net-(C2-Pad2)*
G04 #@! TO.C,C2*
G36*
X139145805Y-118860704D02*
X139170073Y-118864304D01*
X139193872Y-118870265D01*
X139216971Y-118878530D01*
X139239150Y-118889020D01*
X139260193Y-118901632D01*
X139279899Y-118916247D01*
X139298077Y-118932723D01*
X139314553Y-118950901D01*
X139329168Y-118970607D01*
X139341780Y-118991650D01*
X139352270Y-119013829D01*
X139360535Y-119036928D01*
X139366496Y-119060727D01*
X139370096Y-119084995D01*
X139371300Y-119109499D01*
X139371300Y-119759501D01*
X139370096Y-119784005D01*
X139366496Y-119808273D01*
X139360535Y-119832072D01*
X139352270Y-119855171D01*
X139341780Y-119877350D01*
X139329168Y-119898393D01*
X139314553Y-119918099D01*
X139298077Y-119936277D01*
X139279899Y-119952753D01*
X139260193Y-119967368D01*
X139239150Y-119979980D01*
X139216971Y-119990470D01*
X139193872Y-119998735D01*
X139170073Y-120004696D01*
X139145805Y-120008296D01*
X139121301Y-120009500D01*
X138221299Y-120009500D01*
X138196795Y-120008296D01*
X138172527Y-120004696D01*
X138148728Y-119998735D01*
X138125629Y-119990470D01*
X138103450Y-119979980D01*
X138082407Y-119967368D01*
X138062701Y-119952753D01*
X138044523Y-119936277D01*
X138028047Y-119918099D01*
X138013432Y-119898393D01*
X138000820Y-119877350D01*
X137990330Y-119855171D01*
X137982065Y-119832072D01*
X137976104Y-119808273D01*
X137972504Y-119784005D01*
X137971300Y-119759501D01*
X137971300Y-119109499D01*
X137972504Y-119084995D01*
X137976104Y-119060727D01*
X137982065Y-119036928D01*
X137990330Y-119013829D01*
X138000820Y-118991650D01*
X138013432Y-118970607D01*
X138028047Y-118950901D01*
X138044523Y-118932723D01*
X138062701Y-118916247D01*
X138082407Y-118901632D01*
X138103450Y-118889020D01*
X138125629Y-118878530D01*
X138148728Y-118870265D01*
X138172527Y-118864304D01*
X138196795Y-118860704D01*
X138221299Y-118859500D01*
X139121301Y-118859500D01*
X139145805Y-118860704D01*
X139145805Y-118860704D01*
G37*
D13*
G04 #@! TD*
G04 #@! TO.P,C2,2*
G04 #@! TO.N,Net-(C2-Pad2)*
X138671300Y-119434500D03*
D12*
G04 #@! TO.N,Net-(C2-Pad1)*
G04 #@! TO.C,C2*
G36*
X139145805Y-120910704D02*
X139170073Y-120914304D01*
X139193872Y-120920265D01*
X139216971Y-120928530D01*
X139239150Y-120939020D01*
X139260193Y-120951632D01*
X139279899Y-120966247D01*
X139298077Y-120982723D01*
X139314553Y-121000901D01*
X139329168Y-121020607D01*
X139341780Y-121041650D01*
X139352270Y-121063829D01*
X139360535Y-121086928D01*
X139366496Y-121110727D01*
X139370096Y-121134995D01*
X139371300Y-121159499D01*
X139371300Y-121809501D01*
X139370096Y-121834005D01*
X139366496Y-121858273D01*
X139360535Y-121882072D01*
X139352270Y-121905171D01*
X139341780Y-121927350D01*
X139329168Y-121948393D01*
X139314553Y-121968099D01*
X139298077Y-121986277D01*
X139279899Y-122002753D01*
X139260193Y-122017368D01*
X139239150Y-122029980D01*
X139216971Y-122040470D01*
X139193872Y-122048735D01*
X139170073Y-122054696D01*
X139145805Y-122058296D01*
X139121301Y-122059500D01*
X138221299Y-122059500D01*
X138196795Y-122058296D01*
X138172527Y-122054696D01*
X138148728Y-122048735D01*
X138125629Y-122040470D01*
X138103450Y-122029980D01*
X138082407Y-122017368D01*
X138062701Y-122002753D01*
X138044523Y-121986277D01*
X138028047Y-121968099D01*
X138013432Y-121948393D01*
X138000820Y-121927350D01*
X137990330Y-121905171D01*
X137982065Y-121882072D01*
X137976104Y-121858273D01*
X137972504Y-121834005D01*
X137971300Y-121809501D01*
X137971300Y-121159499D01*
X137972504Y-121134995D01*
X137976104Y-121110727D01*
X137982065Y-121086928D01*
X137990330Y-121063829D01*
X138000820Y-121041650D01*
X138013432Y-121020607D01*
X138028047Y-121000901D01*
X138044523Y-120982723D01*
X138062701Y-120966247D01*
X138082407Y-120951632D01*
X138103450Y-120939020D01*
X138125629Y-120928530D01*
X138148728Y-120920265D01*
X138172527Y-120914304D01*
X138196795Y-120910704D01*
X138221299Y-120909500D01*
X139121301Y-120909500D01*
X139145805Y-120910704D01*
X139145805Y-120910704D01*
G37*
D13*
G04 #@! TD*
G04 #@! TO.P,C2,1*
G04 #@! TO.N,Net-(C2-Pad1)*
X138671300Y-121484500D03*
D12*
G04 #@! TO.N,Net-(C3-Pad2)*
G04 #@! TO.C,C3*
G36*
X138003425Y-132244804D02*
X138027693Y-132248404D01*
X138051492Y-132254365D01*
X138074591Y-132262630D01*
X138096770Y-132273120D01*
X138117813Y-132285732D01*
X138137519Y-132300347D01*
X138155697Y-132316823D01*
X138172173Y-132335001D01*
X138186788Y-132354707D01*
X138199400Y-132375750D01*
X138209890Y-132397929D01*
X138218155Y-132421028D01*
X138224116Y-132444827D01*
X138227716Y-132469095D01*
X138228920Y-132493599D01*
X138228920Y-133393601D01*
X138227716Y-133418105D01*
X138224116Y-133442373D01*
X138218155Y-133466172D01*
X138209890Y-133489271D01*
X138199400Y-133511450D01*
X138186788Y-133532493D01*
X138172173Y-133552199D01*
X138155697Y-133570377D01*
X138137519Y-133586853D01*
X138117813Y-133601468D01*
X138096770Y-133614080D01*
X138074591Y-133624570D01*
X138051492Y-133632835D01*
X138027693Y-133638796D01*
X138003425Y-133642396D01*
X137978921Y-133643600D01*
X137328919Y-133643600D01*
X137304415Y-133642396D01*
X137280147Y-133638796D01*
X137256348Y-133632835D01*
X137233249Y-133624570D01*
X137211070Y-133614080D01*
X137190027Y-133601468D01*
X137170321Y-133586853D01*
X137152143Y-133570377D01*
X137135667Y-133552199D01*
X137121052Y-133532493D01*
X137108440Y-133511450D01*
X137097950Y-133489271D01*
X137089685Y-133466172D01*
X137083724Y-133442373D01*
X137080124Y-133418105D01*
X137078920Y-133393601D01*
X137078920Y-132493599D01*
X137080124Y-132469095D01*
X137083724Y-132444827D01*
X137089685Y-132421028D01*
X137097950Y-132397929D01*
X137108440Y-132375750D01*
X137121052Y-132354707D01*
X137135667Y-132335001D01*
X137152143Y-132316823D01*
X137170321Y-132300347D01*
X137190027Y-132285732D01*
X137211070Y-132273120D01*
X137233249Y-132262630D01*
X137256348Y-132254365D01*
X137280147Y-132248404D01*
X137304415Y-132244804D01*
X137328919Y-132243600D01*
X137978921Y-132243600D01*
X138003425Y-132244804D01*
X138003425Y-132244804D01*
G37*
D13*
G04 #@! TD*
G04 #@! TO.P,C3,2*
G04 #@! TO.N,Net-(C3-Pad2)*
X137653920Y-132943600D03*
D12*
G04 #@! TO.N,AGND*
G04 #@! TO.C,C3*
G36*
X140053425Y-132244804D02*
X140077693Y-132248404D01*
X140101492Y-132254365D01*
X140124591Y-132262630D01*
X140146770Y-132273120D01*
X140167813Y-132285732D01*
X140187519Y-132300347D01*
X140205697Y-132316823D01*
X140222173Y-132335001D01*
X140236788Y-132354707D01*
X140249400Y-132375750D01*
X140259890Y-132397929D01*
X140268155Y-132421028D01*
X140274116Y-132444827D01*
X140277716Y-132469095D01*
X140278920Y-132493599D01*
X140278920Y-133393601D01*
X140277716Y-133418105D01*
X140274116Y-133442373D01*
X140268155Y-133466172D01*
X140259890Y-133489271D01*
X140249400Y-133511450D01*
X140236788Y-133532493D01*
X140222173Y-133552199D01*
X140205697Y-133570377D01*
X140187519Y-133586853D01*
X140167813Y-133601468D01*
X140146770Y-133614080D01*
X140124591Y-133624570D01*
X140101492Y-133632835D01*
X140077693Y-133638796D01*
X140053425Y-133642396D01*
X140028921Y-133643600D01*
X139378919Y-133643600D01*
X139354415Y-133642396D01*
X139330147Y-133638796D01*
X139306348Y-133632835D01*
X139283249Y-133624570D01*
X139261070Y-133614080D01*
X139240027Y-133601468D01*
X139220321Y-133586853D01*
X139202143Y-133570377D01*
X139185667Y-133552199D01*
X139171052Y-133532493D01*
X139158440Y-133511450D01*
X139147950Y-133489271D01*
X139139685Y-133466172D01*
X139133724Y-133442373D01*
X139130124Y-133418105D01*
X139128920Y-133393601D01*
X139128920Y-132493599D01*
X139130124Y-132469095D01*
X139133724Y-132444827D01*
X139139685Y-132421028D01*
X139147950Y-132397929D01*
X139158440Y-132375750D01*
X139171052Y-132354707D01*
X139185667Y-132335001D01*
X139202143Y-132316823D01*
X139220321Y-132300347D01*
X139240027Y-132285732D01*
X139261070Y-132273120D01*
X139283249Y-132262630D01*
X139306348Y-132254365D01*
X139330147Y-132248404D01*
X139354415Y-132244804D01*
X139378919Y-132243600D01*
X140028921Y-132243600D01*
X140053425Y-132244804D01*
X140053425Y-132244804D01*
G37*
D13*
G04 #@! TD*
G04 #@! TO.P,C3,1*
G04 #@! TO.N,AGND*
X139703920Y-132943600D03*
D12*
G04 #@! TO.N,Net-(C4-Pad2)*
G04 #@! TO.C,C4*
G36*
X146869945Y-143746244D02*
X146894213Y-143749844D01*
X146918012Y-143755805D01*
X146941111Y-143764070D01*
X146963290Y-143774560D01*
X146984333Y-143787172D01*
X147004039Y-143801787D01*
X147022217Y-143818263D01*
X147038693Y-143836441D01*
X147053308Y-143856147D01*
X147065920Y-143877190D01*
X147076410Y-143899369D01*
X147084675Y-143922468D01*
X147090636Y-143946267D01*
X147094236Y-143970535D01*
X147095440Y-143995039D01*
X147095440Y-144645041D01*
X147094236Y-144669545D01*
X147090636Y-144693813D01*
X147084675Y-144717612D01*
X147076410Y-144740711D01*
X147065920Y-144762890D01*
X147053308Y-144783933D01*
X147038693Y-144803639D01*
X147022217Y-144821817D01*
X147004039Y-144838293D01*
X146984333Y-144852908D01*
X146963290Y-144865520D01*
X146941111Y-144876010D01*
X146918012Y-144884275D01*
X146894213Y-144890236D01*
X146869945Y-144893836D01*
X146845441Y-144895040D01*
X145945439Y-144895040D01*
X145920935Y-144893836D01*
X145896667Y-144890236D01*
X145872868Y-144884275D01*
X145849769Y-144876010D01*
X145827590Y-144865520D01*
X145806547Y-144852908D01*
X145786841Y-144838293D01*
X145768663Y-144821817D01*
X145752187Y-144803639D01*
X145737572Y-144783933D01*
X145724960Y-144762890D01*
X145714470Y-144740711D01*
X145706205Y-144717612D01*
X145700244Y-144693813D01*
X145696644Y-144669545D01*
X145695440Y-144645041D01*
X145695440Y-143995039D01*
X145696644Y-143970535D01*
X145700244Y-143946267D01*
X145706205Y-143922468D01*
X145714470Y-143899369D01*
X145724960Y-143877190D01*
X145737572Y-143856147D01*
X145752187Y-143836441D01*
X145768663Y-143818263D01*
X145786841Y-143801787D01*
X145806547Y-143787172D01*
X145827590Y-143774560D01*
X145849769Y-143764070D01*
X145872868Y-143755805D01*
X145896667Y-143749844D01*
X145920935Y-143746244D01*
X145945439Y-143745040D01*
X146845441Y-143745040D01*
X146869945Y-143746244D01*
X146869945Y-143746244D01*
G37*
D13*
G04 #@! TD*
G04 #@! TO.P,C4,2*
G04 #@! TO.N,Net-(C4-Pad2)*
X146395440Y-144320040D03*
D12*
G04 #@! TO.N,AGND*
G04 #@! TO.C,C4*
G36*
X146869945Y-145796244D02*
X146894213Y-145799844D01*
X146918012Y-145805805D01*
X146941111Y-145814070D01*
X146963290Y-145824560D01*
X146984333Y-145837172D01*
X147004039Y-145851787D01*
X147022217Y-145868263D01*
X147038693Y-145886441D01*
X147053308Y-145906147D01*
X147065920Y-145927190D01*
X147076410Y-145949369D01*
X147084675Y-145972468D01*
X147090636Y-145996267D01*
X147094236Y-146020535D01*
X147095440Y-146045039D01*
X147095440Y-146695041D01*
X147094236Y-146719545D01*
X147090636Y-146743813D01*
X147084675Y-146767612D01*
X147076410Y-146790711D01*
X147065920Y-146812890D01*
X147053308Y-146833933D01*
X147038693Y-146853639D01*
X147022217Y-146871817D01*
X147004039Y-146888293D01*
X146984333Y-146902908D01*
X146963290Y-146915520D01*
X146941111Y-146926010D01*
X146918012Y-146934275D01*
X146894213Y-146940236D01*
X146869945Y-146943836D01*
X146845441Y-146945040D01*
X145945439Y-146945040D01*
X145920935Y-146943836D01*
X145896667Y-146940236D01*
X145872868Y-146934275D01*
X145849769Y-146926010D01*
X145827590Y-146915520D01*
X145806547Y-146902908D01*
X145786841Y-146888293D01*
X145768663Y-146871817D01*
X145752187Y-146853639D01*
X145737572Y-146833933D01*
X145724960Y-146812890D01*
X145714470Y-146790711D01*
X145706205Y-146767612D01*
X145700244Y-146743813D01*
X145696644Y-146719545D01*
X145695440Y-146695041D01*
X145695440Y-146045039D01*
X145696644Y-146020535D01*
X145700244Y-145996267D01*
X145706205Y-145972468D01*
X145714470Y-145949369D01*
X145724960Y-145927190D01*
X145737572Y-145906147D01*
X145752187Y-145886441D01*
X145768663Y-145868263D01*
X145786841Y-145851787D01*
X145806547Y-145837172D01*
X145827590Y-145824560D01*
X145849769Y-145814070D01*
X145872868Y-145805805D01*
X145896667Y-145799844D01*
X145920935Y-145796244D01*
X145945439Y-145795040D01*
X146845441Y-145795040D01*
X146869945Y-145796244D01*
X146869945Y-145796244D01*
G37*
D13*
G04 #@! TD*
G04 #@! TO.P,C4,1*
G04 #@! TO.N,AGND*
X146395440Y-146370040D03*
D12*
G04 #@! TO.N,Net-(C4-Pad2)*
G04 #@! TO.C,C5*
G36*
X144497585Y-143694284D02*
X144521853Y-143697884D01*
X144545652Y-143703845D01*
X144568751Y-143712110D01*
X144590930Y-143722600D01*
X144611973Y-143735212D01*
X144631679Y-143749827D01*
X144649857Y-143766303D01*
X144666333Y-143784481D01*
X144680948Y-143804187D01*
X144693560Y-143825230D01*
X144704050Y-143847409D01*
X144712315Y-143870508D01*
X144718276Y-143894307D01*
X144721876Y-143918575D01*
X144723080Y-143943079D01*
X144723080Y-144593081D01*
X144721876Y-144617585D01*
X144718276Y-144641853D01*
X144712315Y-144665652D01*
X144704050Y-144688751D01*
X144693560Y-144710930D01*
X144680948Y-144731973D01*
X144666333Y-144751679D01*
X144649857Y-144769857D01*
X144631679Y-144786333D01*
X144611973Y-144800948D01*
X144590930Y-144813560D01*
X144568751Y-144824050D01*
X144545652Y-144832315D01*
X144521853Y-144838276D01*
X144497585Y-144841876D01*
X144473081Y-144843080D01*
X143573079Y-144843080D01*
X143548575Y-144841876D01*
X143524307Y-144838276D01*
X143500508Y-144832315D01*
X143477409Y-144824050D01*
X143455230Y-144813560D01*
X143434187Y-144800948D01*
X143414481Y-144786333D01*
X143396303Y-144769857D01*
X143379827Y-144751679D01*
X143365212Y-144731973D01*
X143352600Y-144710930D01*
X143342110Y-144688751D01*
X143333845Y-144665652D01*
X143327884Y-144641853D01*
X143324284Y-144617585D01*
X143323080Y-144593081D01*
X143323080Y-143943079D01*
X143324284Y-143918575D01*
X143327884Y-143894307D01*
X143333845Y-143870508D01*
X143342110Y-143847409D01*
X143352600Y-143825230D01*
X143365212Y-143804187D01*
X143379827Y-143784481D01*
X143396303Y-143766303D01*
X143414481Y-143749827D01*
X143434187Y-143735212D01*
X143455230Y-143722600D01*
X143477409Y-143712110D01*
X143500508Y-143703845D01*
X143524307Y-143697884D01*
X143548575Y-143694284D01*
X143573079Y-143693080D01*
X144473081Y-143693080D01*
X144497585Y-143694284D01*
X144497585Y-143694284D01*
G37*
D13*
G04 #@! TD*
G04 #@! TO.P,C5,2*
G04 #@! TO.N,Net-(C4-Pad2)*
X144023080Y-144268080D03*
D12*
G04 #@! TO.N,AGND*
G04 #@! TO.C,C5*
G36*
X144497585Y-145744284D02*
X144521853Y-145747884D01*
X144545652Y-145753845D01*
X144568751Y-145762110D01*
X144590930Y-145772600D01*
X144611973Y-145785212D01*
X144631679Y-145799827D01*
X144649857Y-145816303D01*
X144666333Y-145834481D01*
X144680948Y-145854187D01*
X144693560Y-145875230D01*
X144704050Y-145897409D01*
X144712315Y-145920508D01*
X144718276Y-145944307D01*
X144721876Y-145968575D01*
X144723080Y-145993079D01*
X144723080Y-146643081D01*
X144721876Y-146667585D01*
X144718276Y-146691853D01*
X144712315Y-146715652D01*
X144704050Y-146738751D01*
X144693560Y-146760930D01*
X144680948Y-146781973D01*
X144666333Y-146801679D01*
X144649857Y-146819857D01*
X144631679Y-146836333D01*
X144611973Y-146850948D01*
X144590930Y-146863560D01*
X144568751Y-146874050D01*
X144545652Y-146882315D01*
X144521853Y-146888276D01*
X144497585Y-146891876D01*
X144473081Y-146893080D01*
X143573079Y-146893080D01*
X143548575Y-146891876D01*
X143524307Y-146888276D01*
X143500508Y-146882315D01*
X143477409Y-146874050D01*
X143455230Y-146863560D01*
X143434187Y-146850948D01*
X143414481Y-146836333D01*
X143396303Y-146819857D01*
X143379827Y-146801679D01*
X143365212Y-146781973D01*
X143352600Y-146760930D01*
X143342110Y-146738751D01*
X143333845Y-146715652D01*
X143327884Y-146691853D01*
X143324284Y-146667585D01*
X143323080Y-146643081D01*
X143323080Y-145993079D01*
X143324284Y-145968575D01*
X143327884Y-145944307D01*
X143333845Y-145920508D01*
X143342110Y-145897409D01*
X143352600Y-145875230D01*
X143365212Y-145854187D01*
X143379827Y-145834481D01*
X143396303Y-145816303D01*
X143414481Y-145799827D01*
X143434187Y-145785212D01*
X143455230Y-145772600D01*
X143477409Y-145762110D01*
X143500508Y-145753845D01*
X143524307Y-145747884D01*
X143548575Y-145744284D01*
X143573079Y-145743080D01*
X144473081Y-145743080D01*
X144497585Y-145744284D01*
X144497585Y-145744284D01*
G37*
D13*
G04 #@! TD*
G04 #@! TO.P,C5,1*
G04 #@! TO.N,AGND*
X144023080Y-146318080D03*
D12*
G04 #@! TO.N,Net-(D1-Pad2)*
G04 #@! TO.C,D1*
G36*
X115344305Y-103949204D02*
X115368573Y-103952804D01*
X115392372Y-103958765D01*
X115415471Y-103967030D01*
X115437650Y-103977520D01*
X115458693Y-103990132D01*
X115478399Y-104004747D01*
X115496577Y-104021223D01*
X115513053Y-104039401D01*
X115527668Y-104059107D01*
X115540280Y-104080150D01*
X115550770Y-104102329D01*
X115559035Y-104125428D01*
X115564996Y-104149227D01*
X115568596Y-104173495D01*
X115569800Y-104197999D01*
X115569800Y-105098001D01*
X115568596Y-105122505D01*
X115564996Y-105146773D01*
X115559035Y-105170572D01*
X115550770Y-105193671D01*
X115540280Y-105215850D01*
X115527668Y-105236893D01*
X115513053Y-105256599D01*
X115496577Y-105274777D01*
X115478399Y-105291253D01*
X115458693Y-105305868D01*
X115437650Y-105318480D01*
X115415471Y-105328970D01*
X115392372Y-105337235D01*
X115368573Y-105343196D01*
X115344305Y-105346796D01*
X115319801Y-105348000D01*
X114669799Y-105348000D01*
X114645295Y-105346796D01*
X114621027Y-105343196D01*
X114597228Y-105337235D01*
X114574129Y-105328970D01*
X114551950Y-105318480D01*
X114530907Y-105305868D01*
X114511201Y-105291253D01*
X114493023Y-105274777D01*
X114476547Y-105256599D01*
X114461932Y-105236893D01*
X114449320Y-105215850D01*
X114438830Y-105193671D01*
X114430565Y-105170572D01*
X114424604Y-105146773D01*
X114421004Y-105122505D01*
X114419800Y-105098001D01*
X114419800Y-104197999D01*
X114421004Y-104173495D01*
X114424604Y-104149227D01*
X114430565Y-104125428D01*
X114438830Y-104102329D01*
X114449320Y-104080150D01*
X114461932Y-104059107D01*
X114476547Y-104039401D01*
X114493023Y-104021223D01*
X114511201Y-104004747D01*
X114530907Y-103990132D01*
X114551950Y-103977520D01*
X114574129Y-103967030D01*
X114597228Y-103958765D01*
X114621027Y-103952804D01*
X114645295Y-103949204D01*
X114669799Y-103948000D01*
X115319801Y-103948000D01*
X115344305Y-103949204D01*
X115344305Y-103949204D01*
G37*
D13*
G04 #@! TD*
G04 #@! TO.P,D1,2*
G04 #@! TO.N,Net-(D1-Pad2)*
X114994800Y-104648000D03*
D12*
G04 #@! TO.N,DGND*
G04 #@! TO.C,D1*
G36*
X113294305Y-103949204D02*
X113318573Y-103952804D01*
X113342372Y-103958765D01*
X113365471Y-103967030D01*
X113387650Y-103977520D01*
X113408693Y-103990132D01*
X113428399Y-104004747D01*
X113446577Y-104021223D01*
X113463053Y-104039401D01*
X113477668Y-104059107D01*
X113490280Y-104080150D01*
X113500770Y-104102329D01*
X113509035Y-104125428D01*
X113514996Y-104149227D01*
X113518596Y-104173495D01*
X113519800Y-104197999D01*
X113519800Y-105098001D01*
X113518596Y-105122505D01*
X113514996Y-105146773D01*
X113509035Y-105170572D01*
X113500770Y-105193671D01*
X113490280Y-105215850D01*
X113477668Y-105236893D01*
X113463053Y-105256599D01*
X113446577Y-105274777D01*
X113428399Y-105291253D01*
X113408693Y-105305868D01*
X113387650Y-105318480D01*
X113365471Y-105328970D01*
X113342372Y-105337235D01*
X113318573Y-105343196D01*
X113294305Y-105346796D01*
X113269801Y-105348000D01*
X112619799Y-105348000D01*
X112595295Y-105346796D01*
X112571027Y-105343196D01*
X112547228Y-105337235D01*
X112524129Y-105328970D01*
X112501950Y-105318480D01*
X112480907Y-105305868D01*
X112461201Y-105291253D01*
X112443023Y-105274777D01*
X112426547Y-105256599D01*
X112411932Y-105236893D01*
X112399320Y-105215850D01*
X112388830Y-105193671D01*
X112380565Y-105170572D01*
X112374604Y-105146773D01*
X112371004Y-105122505D01*
X112369800Y-105098001D01*
X112369800Y-104197999D01*
X112371004Y-104173495D01*
X112374604Y-104149227D01*
X112380565Y-104125428D01*
X112388830Y-104102329D01*
X112399320Y-104080150D01*
X112411932Y-104059107D01*
X112426547Y-104039401D01*
X112443023Y-104021223D01*
X112461201Y-104004747D01*
X112480907Y-103990132D01*
X112501950Y-103977520D01*
X112524129Y-103967030D01*
X112547228Y-103958765D01*
X112571027Y-103952804D01*
X112595295Y-103949204D01*
X112619799Y-103948000D01*
X113269801Y-103948000D01*
X113294305Y-103949204D01*
X113294305Y-103949204D01*
G37*
D13*
G04 #@! TD*
G04 #@! TO.P,D1,1*
G04 #@! TO.N,DGND*
X112944800Y-104648000D03*
D12*
G04 #@! TO.N,Net-(D2-Pad2)*
G04 #@! TO.C,D2*
G36*
X115335305Y-101536204D02*
X115359573Y-101539804D01*
X115383372Y-101545765D01*
X115406471Y-101554030D01*
X115428650Y-101564520D01*
X115449693Y-101577132D01*
X115469399Y-101591747D01*
X115487577Y-101608223D01*
X115504053Y-101626401D01*
X115518668Y-101646107D01*
X115531280Y-101667150D01*
X115541770Y-101689329D01*
X115550035Y-101712428D01*
X115555996Y-101736227D01*
X115559596Y-101760495D01*
X115560800Y-101784999D01*
X115560800Y-102685001D01*
X115559596Y-102709505D01*
X115555996Y-102733773D01*
X115550035Y-102757572D01*
X115541770Y-102780671D01*
X115531280Y-102802850D01*
X115518668Y-102823893D01*
X115504053Y-102843599D01*
X115487577Y-102861777D01*
X115469399Y-102878253D01*
X115449693Y-102892868D01*
X115428650Y-102905480D01*
X115406471Y-102915970D01*
X115383372Y-102924235D01*
X115359573Y-102930196D01*
X115335305Y-102933796D01*
X115310801Y-102935000D01*
X114660799Y-102935000D01*
X114636295Y-102933796D01*
X114612027Y-102930196D01*
X114588228Y-102924235D01*
X114565129Y-102915970D01*
X114542950Y-102905480D01*
X114521907Y-102892868D01*
X114502201Y-102878253D01*
X114484023Y-102861777D01*
X114467547Y-102843599D01*
X114452932Y-102823893D01*
X114440320Y-102802850D01*
X114429830Y-102780671D01*
X114421565Y-102757572D01*
X114415604Y-102733773D01*
X114412004Y-102709505D01*
X114410800Y-102685001D01*
X114410800Y-101784999D01*
X114412004Y-101760495D01*
X114415604Y-101736227D01*
X114421565Y-101712428D01*
X114429830Y-101689329D01*
X114440320Y-101667150D01*
X114452932Y-101646107D01*
X114467547Y-101626401D01*
X114484023Y-101608223D01*
X114502201Y-101591747D01*
X114521907Y-101577132D01*
X114542950Y-101564520D01*
X114565129Y-101554030D01*
X114588228Y-101545765D01*
X114612027Y-101539804D01*
X114636295Y-101536204D01*
X114660799Y-101535000D01*
X115310801Y-101535000D01*
X115335305Y-101536204D01*
X115335305Y-101536204D01*
G37*
D13*
G04 #@! TD*
G04 #@! TO.P,D2,2*
G04 #@! TO.N,Net-(D2-Pad2)*
X114985800Y-102235000D03*
D12*
G04 #@! TO.N,DGND*
G04 #@! TO.C,D2*
G36*
X113285305Y-101536204D02*
X113309573Y-101539804D01*
X113333372Y-101545765D01*
X113356471Y-101554030D01*
X113378650Y-101564520D01*
X113399693Y-101577132D01*
X113419399Y-101591747D01*
X113437577Y-101608223D01*
X113454053Y-101626401D01*
X113468668Y-101646107D01*
X113481280Y-101667150D01*
X113491770Y-101689329D01*
X113500035Y-101712428D01*
X113505996Y-101736227D01*
X113509596Y-101760495D01*
X113510800Y-101784999D01*
X113510800Y-102685001D01*
X113509596Y-102709505D01*
X113505996Y-102733773D01*
X113500035Y-102757572D01*
X113491770Y-102780671D01*
X113481280Y-102802850D01*
X113468668Y-102823893D01*
X113454053Y-102843599D01*
X113437577Y-102861777D01*
X113419399Y-102878253D01*
X113399693Y-102892868D01*
X113378650Y-102905480D01*
X113356471Y-102915970D01*
X113333372Y-102924235D01*
X113309573Y-102930196D01*
X113285305Y-102933796D01*
X113260801Y-102935000D01*
X112610799Y-102935000D01*
X112586295Y-102933796D01*
X112562027Y-102930196D01*
X112538228Y-102924235D01*
X112515129Y-102915970D01*
X112492950Y-102905480D01*
X112471907Y-102892868D01*
X112452201Y-102878253D01*
X112434023Y-102861777D01*
X112417547Y-102843599D01*
X112402932Y-102823893D01*
X112390320Y-102802850D01*
X112379830Y-102780671D01*
X112371565Y-102757572D01*
X112365604Y-102733773D01*
X112362004Y-102709505D01*
X112360800Y-102685001D01*
X112360800Y-101784999D01*
X112362004Y-101760495D01*
X112365604Y-101736227D01*
X112371565Y-101712428D01*
X112379830Y-101689329D01*
X112390320Y-101667150D01*
X112402932Y-101646107D01*
X112417547Y-101626401D01*
X112434023Y-101608223D01*
X112452201Y-101591747D01*
X112471907Y-101577132D01*
X112492950Y-101564520D01*
X112515129Y-101554030D01*
X112538228Y-101545765D01*
X112562027Y-101539804D01*
X112586295Y-101536204D01*
X112610799Y-101535000D01*
X113260801Y-101535000D01*
X113285305Y-101536204D01*
X113285305Y-101536204D01*
G37*
D13*
G04 #@! TD*
G04 #@! TO.P,D2,1*
G04 #@! TO.N,DGND*
X112935800Y-102235000D03*
D14*
G04 #@! TO.P,J1,MP*
G04 #@! TO.N,N/C*
X102447900Y-125344780D03*
X102447900Y-135294780D03*
D15*
G04 #@! TO.P,J1,6*
G04 #@! TO.N,Net-(J1-Pad6)*
X105797900Y-127194780D03*
G04 #@! TO.P,J1,5*
G04 #@! TO.N,Net-(J1-Pad5)*
X105797900Y-128444780D03*
G04 #@! TO.P,J1,4*
G04 #@! TO.N,MIC_1*
X105797900Y-129694780D03*
G04 #@! TO.P,J1,3*
G04 #@! TO.N,MIC_0*
X105797900Y-130944780D03*
G04 #@! TO.P,J1,2*
G04 #@! TO.N,AGND*
X105797900Y-132194780D03*
G04 #@! TO.P,J1,1*
G04 #@! TO.N,DGND*
X105797900Y-133444780D03*
G04 #@! TD*
D14*
G04 #@! TO.P,J2,MP*
G04 #@! TO.N,N/C*
X102422500Y-138654380D03*
X102422500Y-148604380D03*
D15*
G04 #@! TO.P,J2,6*
G04 #@! TO.N,Net-(J1-Pad6)*
X105772500Y-140504380D03*
G04 #@! TO.P,J2,5*
G04 #@! TO.N,Net-(J1-Pad5)*
X105772500Y-141754380D03*
G04 #@! TO.P,J2,4*
G04 #@! TO.N,HP_1*
X105772500Y-143004380D03*
G04 #@! TO.P,J2,3*
G04 #@! TO.N,HP_0*
X105772500Y-144254380D03*
G04 #@! TO.P,J2,2*
G04 #@! TO.N,AGND*
X105772500Y-145504380D03*
G04 #@! TO.P,J2,1*
G04 #@! TO.N,DGND*
X105772500Y-146754380D03*
G04 #@! TD*
D14*
G04 #@! TO.P,J3,MP*
G04 #@! TO.N,N/C*
X102447900Y-112238380D03*
X102447900Y-122188380D03*
D15*
G04 #@! TO.P,J3,6*
G04 #@! TO.N,Net-(J1-Pad6)*
X105797900Y-114088380D03*
G04 #@! TO.P,J3,5*
G04 #@! TO.N,Net-(J1-Pad5)*
X105797900Y-115338380D03*
G04 #@! TO.P,J3,4*
G04 #@! TO.N,GPIO1_4*
X105797900Y-116588380D03*
G04 #@! TO.P,J3,3*
G04 #@! TO.N,GPIO1_9*
X105797900Y-117838380D03*
G04 #@! TO.P,J3,2*
G04 #@! TO.N,GPIO1_2*
X105797900Y-119088380D03*
G04 #@! TO.P,J3,1*
G04 #@! TO.N,DGND*
X105797900Y-120338380D03*
G04 #@! TD*
D16*
G04 #@! TO.P,J5,4*
G04 #@! TO.N,3V3DC*
X102671880Y-106446320D03*
G04 #@! TO.P,J5,3*
G04 #@! TO.N,5VDC*
X107721880Y-106446320D03*
G04 #@! TO.P,J5,2*
G04 #@! TO.N,DGND*
X102671880Y-108986320D03*
G04 #@! TO.P,J5,1*
G04 #@! TO.N,AGND*
X107721880Y-108986320D03*
G04 #@! TD*
D17*
G04 #@! TO.P,J6,2*
G04 #@! TO.N,AGND*
X148082000Y-113157000D03*
D18*
G04 #@! TO.P,J6,1*
G04 #@! TO.N,Net-(J6-Pad1)*
X148082000Y-115697000D03*
G04 #@! TD*
D17*
G04 #@! TO.P,J7,2*
G04 #@! TO.N,AUD_OUT-*
X148069300Y-128612900D03*
D18*
G04 #@! TO.P,J7,1*
G04 #@! TO.N,AUD_OUT+*
X148069300Y-131152900D03*
G04 #@! TD*
D17*
G04 #@! TO.P,J8,2*
G04 #@! TO.N,AUD_OUT-*
X148061680Y-139354560D03*
D18*
G04 #@! TO.P,J8,1*
G04 #@! TO.N,AUD_OUT+*
X148061680Y-136814560D03*
G04 #@! TD*
G04 #@! TO.P,J9,1*
G04 #@! TO.N,Net-(C7-Pad2)*
X129171700Y-134835900D03*
G04 #@! TD*
D19*
G04 #@! TO.P,JP1,2*
G04 #@! TO.N,3V3DC*
X115656360Y-123119960D03*
G04 #@! TO.P,JP1,1*
G04 #@! TO.N,Net-(J1-Pad5)*
X113116360Y-126429960D03*
G04 #@! TD*
G04 #@! TO.P,JP2,2*
G04 #@! TO.N,Net-(J1-Pad6)*
X113116360Y-133338760D03*
G04 #@! TO.P,JP2,1*
G04 #@! TO.N,5VDC*
X115656360Y-130028760D03*
G04 #@! TD*
D20*
G04 #@! TO.P,JP3,1*
G04 #@! TO.N,Net-(J6-Pad1)*
X146189700Y-119708000D03*
D12*
G04 #@! TD*
G04 #@! TO.N,Net-(J6-Pad1)*
G04 #@! TO.C,JP3*
G36*
X146189700Y-120708000D02*
X145439700Y-120208000D01*
X145439700Y-119208000D01*
X146939700Y-119208000D01*
X146939700Y-120208000D01*
X146189700Y-120708000D01*
X146189700Y-120708000D01*
G37*
D20*
G04 #@! TO.P,JP3,2*
G04 #@! TO.N,AUD_OUT+*
X146189700Y-121158000D03*
D12*
G04 #@! TD*
G04 #@! TO.N,AUD_OUT+*
G04 #@! TO.C,JP3*
G36*
X145439700Y-121658000D02*
X145439700Y-120508000D01*
X146189700Y-121008000D01*
X146939700Y-120508000D01*
X146939700Y-121658000D01*
X145439700Y-121658000D01*
X145439700Y-121658000D01*
G37*
D20*
G04 #@! TO.P,JP4,1*
G04 #@! TO.N,AGND*
X148396648Y-119798000D03*
D12*
G04 #@! TD*
G04 #@! TO.N,AGND*
G04 #@! TO.C,JP4*
G36*
X148396648Y-120798000D02*
X147646648Y-120298000D01*
X147646648Y-119298000D01*
X149146648Y-119298000D01*
X149146648Y-120298000D01*
X148396648Y-120798000D01*
X148396648Y-120798000D01*
G37*
D20*
G04 #@! TO.P,JP4,2*
G04 #@! TO.N,AUD_OUT-*
X148396648Y-121248000D03*
D12*
G04 #@! TD*
G04 #@! TO.N,AUD_OUT-*
G04 #@! TO.C,JP4*
G36*
X147646648Y-121748000D02*
X147646648Y-120598000D01*
X148396648Y-121098000D01*
X149146648Y-120598000D01*
X149146648Y-121748000D01*
X147646648Y-121748000D01*
X147646648Y-121748000D01*
G37*
D20*
G04 #@! TO.P,JP6,1*
G04 #@! TO.N,GPIO1_2*
X136336700Y-124396500D03*
D12*
G04 #@! TD*
G04 #@! TO.N,GPIO1_2*
G04 #@! TO.C,JP6*
G36*
X135336700Y-124396500D02*
X135836700Y-123646500D01*
X136836700Y-123646500D01*
X136836700Y-125146500D01*
X135836700Y-125146500D01*
X135336700Y-124396500D01*
X135336700Y-124396500D01*
G37*
D20*
G04 #@! TO.P,JP6,2*
G04 #@! TO.N,ON_MONO1*
X134886700Y-124396500D03*
D12*
G04 #@! TD*
G04 #@! TO.N,ON_MONO1*
G04 #@! TO.C,JP6*
G36*
X134386700Y-123646500D02*
X135536700Y-123646500D01*
X135036700Y-124396500D01*
X135536700Y-125146500D01*
X134386700Y-125146500D01*
X134386700Y-123646500D01*
X134386700Y-123646500D01*
G37*
D20*
G04 #@! TO.P,JP7,1*
G04 #@! TO.N,GPIO1_9*
X132330360Y-147787360D03*
D12*
G04 #@! TD*
G04 #@! TO.N,GPIO1_9*
G04 #@! TO.C,JP7*
G36*
X133330360Y-147787360D02*
X132830360Y-148537360D01*
X131830360Y-148537360D01*
X131830360Y-147037360D01*
X132830360Y-147037360D01*
X133330360Y-147787360D01*
X133330360Y-147787360D01*
G37*
D20*
G04 #@! TO.P,JP7,2*
G04 #@! TO.N,ON_MONO2*
X133780360Y-147787360D03*
D12*
G04 #@! TD*
G04 #@! TO.N,ON_MONO2*
G04 #@! TO.C,JP7*
G36*
X134280360Y-148537360D02*
X133130360Y-148537360D01*
X133630360Y-147787360D01*
X133130360Y-147037360D01*
X134280360Y-147037360D01*
X134280360Y-148537360D01*
X134280360Y-148537360D01*
G37*
D20*
G04 #@! TO.P,JP8,1*
G04 #@! TO.N,MIC_1*
X115785900Y-117221000D03*
D12*
G04 #@! TD*
G04 #@! TO.N,MIC_1*
G04 #@! TO.C,JP8*
G36*
X116785900Y-117221000D02*
X116285900Y-117971000D01*
X115285900Y-117971000D01*
X115285900Y-116471000D01*
X116285900Y-116471000D01*
X116785900Y-117221000D01*
X116785900Y-117221000D01*
G37*
D20*
G04 #@! TO.P,JP8,2*
G04 #@! TO.N,Net-(C8-Pad2)*
X117235900Y-117221000D03*
D12*
G04 #@! TD*
G04 #@! TO.N,Net-(C8-Pad2)*
G04 #@! TO.C,JP8*
G36*
X117735900Y-117971000D02*
X116585900Y-117971000D01*
X117085900Y-117221000D01*
X116585900Y-116471000D01*
X117735900Y-116471000D01*
X117735900Y-117971000D01*
X117735900Y-117971000D01*
G37*
D21*
G04 #@! TO.P,SW1,6*
G04 #@! TO.N,Net-(R4-Pad2)*
X113318600Y-145189080D03*
G04 #@! TO.P,SW1,5*
G04 #@! TO.N,HP_0*
X112018600Y-145189080D03*
G04 #@! TO.P,SW1,4*
G04 #@! TO.N,Net-(R3-Pad1)*
X110718600Y-145189080D03*
G04 #@! TO.P,SW1,3*
G04 #@! TO.N,Net-(R6-Pad1)*
X110718600Y-138689080D03*
G04 #@! TO.P,SW1,2*
G04 #@! TO.N,HP_1*
X112018600Y-138689080D03*
G04 #@! TO.P,SW1,1*
G04 #@! TO.N,Net-(R5-Pad1)*
X113318600Y-138689080D03*
G04 #@! TD*
D22*
G04 #@! TO.P,SW2,1*
G04 #@! TO.N,Net-(C2-Pad2)*
X137541500Y-115983000D03*
G04 #@! TO.P,SW2,3*
G04 #@! TO.N,Net-(SW2-Pad3)*
X141541500Y-114808000D03*
G04 #@! TO.P,SW2,2*
G04 #@! TO.N,Net-(J6-Pad1)*
X141541500Y-117158000D03*
G04 #@! TD*
D23*
G04 #@! TO.P,SW3,6*
G04 #@! TO.N,ON_MONO2*
X121935100Y-129501900D03*
G04 #@! TO.P,SW3,5*
G04 #@! TO.N,3V3DC*
X121935100Y-128201900D03*
G04 #@! TO.P,SW3,4*
G04 #@! TO.N,ON_MONO1*
X121935100Y-126901900D03*
G04 #@! TO.P,SW3,3*
G04 #@! TO.N,Mono2*
X128435100Y-126901900D03*
G04 #@! TO.P,SW3,2*
G04 #@! TO.N,Net-(C7-Pad1)*
X128435100Y-128201900D03*
G04 #@! TO.P,SW3,1*
G04 #@! TO.N,Mono1*
X128435100Y-129501900D03*
G04 #@! TD*
D24*
G04 #@! TO.P,U1,1*
G04 #@! TO.N,Net-(SW2-Pad3)*
X145701500Y-103552000D03*
G04 #@! TO.P,U1,4*
G04 #@! TO.N,3V3DC*
X145701500Y-104902000D03*
G04 #@! TO.P,U1,2*
G04 #@! TO.N,AGND*
X147891500Y-103552000D03*
G04 #@! TO.P,U1,3*
X147891500Y-104902000D03*
G04 #@! TD*
D25*
G04 #@! TO.P,U2,8*
G04 #@! TO.N,Net-(U2-Pad8)*
X130322300Y-140187680D03*
G04 #@! TO.P,U2,7*
G04 #@! TO.N,3V3DC*
X130322300Y-141457680D03*
G04 #@! TO.P,U2,6*
G04 #@! TO.N,Net-(C7-Pad2)*
X130322300Y-142727680D03*
G04 #@! TO.P,U2,5*
G04 #@! TO.N,Net-(U2-Pad5)*
X130322300Y-143997680D03*
G04 #@! TO.P,U2,4*
G04 #@! TO.N,AGND*
X124922300Y-143997680D03*
G04 #@! TO.P,U2,3*
X124922300Y-142727680D03*
G04 #@! TO.P,U2,2*
G04 #@! TO.N,Net-(R3-Pad2)*
X124922300Y-141457680D03*
G04 #@! TO.P,U2,1*
G04 #@! TO.N,Net-(U2-Pad1)*
X124922300Y-140187680D03*
G04 #@! TD*
G04 #@! TO.P,U3,8*
G04 #@! TO.N,Net-(U3-Pad8)*
X124579400Y-120243600D03*
G04 #@! TO.P,U3,7*
G04 #@! TO.N,3V3DC*
X124579400Y-118973600D03*
G04 #@! TO.P,U3,6*
G04 #@! TO.N,Net-(C8-Pad2)*
X124579400Y-117703600D03*
G04 #@! TO.P,U3,5*
G04 #@! TO.N,Net-(U3-Pad5)*
X124579400Y-116433600D03*
G04 #@! TO.P,U3,4*
G04 #@! TO.N,AGND*
X129979400Y-116433600D03*
G04 #@! TO.P,U3,3*
G04 #@! TO.N,Net-(C2-Pad1)*
X129979400Y-117703600D03*
G04 #@! TO.P,U3,2*
G04 #@! TO.N,Net-(R14-Pad2)*
X129979400Y-118973600D03*
G04 #@! TO.P,U3,1*
G04 #@! TO.N,Net-(U3-Pad1)*
X129979400Y-120243600D03*
G04 #@! TD*
D26*
G04 #@! TO.P,U4,8*
G04 #@! TO.N,Net-(L3-Pad1)*
X139880700Y-143151500D03*
G04 #@! TO.P,U4,7*
G04 #@! TO.N,AGND*
X140530700Y-143151500D03*
G04 #@! TO.P,U4,6*
G04 #@! TO.N,Net-(C4-Pad2)*
X141180700Y-143151500D03*
G04 #@! TO.P,U4,5*
G04 #@! TO.N,Net-(L4-Pad1)*
X141830700Y-143151500D03*
G04 #@! TO.P,U4,4*
G04 #@! TO.N,AGND*
X141830700Y-147551500D03*
G04 #@! TO.P,U4,3*
G04 #@! TO.N,Mono2*
X141180700Y-147551500D03*
G04 #@! TO.P,U4,2*
G04 #@! TO.N,Net-(U4-Pad2)*
X140530700Y-147551500D03*
G04 #@! TO.P,U4,1*
G04 #@! TO.N,ON_MONO2*
X139880700Y-147551500D03*
G04 #@! TD*
D27*
G04 #@! TO.P,U5,8*
G04 #@! TO.N,Net-(L2-Pad1)*
X139423500Y-128819000D03*
G04 #@! TO.P,U5,7*
G04 #@! TO.N,AGND*
X139423500Y-129469000D03*
G04 #@! TO.P,U5,6*
G04 #@! TO.N,Net-(C3-Pad2)*
X139423500Y-130119000D03*
G04 #@! TO.P,U5,5*
G04 #@! TO.N,Net-(L1-Pad1)*
X139423500Y-130769000D03*
G04 #@! TO.P,U5,4*
G04 #@! TO.N,AGND*
X135023500Y-130769000D03*
G04 #@! TO.P,U5,3*
G04 #@! TO.N,Mono1*
X135023500Y-130119000D03*
G04 #@! TO.P,U5,2*
G04 #@! TO.N,Net-(U5-Pad2)*
X135023500Y-129469000D03*
G04 #@! TO.P,U5,1*
G04 #@! TO.N,ON_MONO1*
X135023500Y-128819000D03*
G04 #@! TD*
D12*
G04 #@! TO.N,AUD_OUT+*
G04 #@! TO.C,L1*
G36*
X144735805Y-130123904D02*
X144760073Y-130127504D01*
X144783872Y-130133465D01*
X144806971Y-130141730D01*
X144829150Y-130152220D01*
X144850193Y-130164832D01*
X144869899Y-130179447D01*
X144888077Y-130195923D01*
X144904553Y-130214101D01*
X144919168Y-130233807D01*
X144931780Y-130254850D01*
X144942270Y-130277029D01*
X144950535Y-130300128D01*
X144956496Y-130323927D01*
X144960096Y-130348195D01*
X144961300Y-130372699D01*
X144961300Y-131272701D01*
X144960096Y-131297205D01*
X144956496Y-131321473D01*
X144950535Y-131345272D01*
X144942270Y-131368371D01*
X144931780Y-131390550D01*
X144919168Y-131411593D01*
X144904553Y-131431299D01*
X144888077Y-131449477D01*
X144869899Y-131465953D01*
X144850193Y-131480568D01*
X144829150Y-131493180D01*
X144806971Y-131503670D01*
X144783872Y-131511935D01*
X144760073Y-131517896D01*
X144735805Y-131521496D01*
X144711301Y-131522700D01*
X144061299Y-131522700D01*
X144036795Y-131521496D01*
X144012527Y-131517896D01*
X143988728Y-131511935D01*
X143965629Y-131503670D01*
X143943450Y-131493180D01*
X143922407Y-131480568D01*
X143902701Y-131465953D01*
X143884523Y-131449477D01*
X143868047Y-131431299D01*
X143853432Y-131411593D01*
X143840820Y-131390550D01*
X143830330Y-131368371D01*
X143822065Y-131345272D01*
X143816104Y-131321473D01*
X143812504Y-131297205D01*
X143811300Y-131272701D01*
X143811300Y-130372699D01*
X143812504Y-130348195D01*
X143816104Y-130323927D01*
X143822065Y-130300128D01*
X143830330Y-130277029D01*
X143840820Y-130254850D01*
X143853432Y-130233807D01*
X143868047Y-130214101D01*
X143884523Y-130195923D01*
X143902701Y-130179447D01*
X143922407Y-130164832D01*
X143943450Y-130152220D01*
X143965629Y-130141730D01*
X143988728Y-130133465D01*
X144012527Y-130127504D01*
X144036795Y-130123904D01*
X144061299Y-130122700D01*
X144711301Y-130122700D01*
X144735805Y-130123904D01*
X144735805Y-130123904D01*
G37*
D13*
G04 #@! TD*
G04 #@! TO.P,L1,2*
G04 #@! TO.N,AUD_OUT+*
X144386300Y-130822700D03*
D12*
G04 #@! TO.N,Net-(L1-Pad1)*
G04 #@! TO.C,L1*
G36*
X142685805Y-130123904D02*
X142710073Y-130127504D01*
X142733872Y-130133465D01*
X142756971Y-130141730D01*
X142779150Y-130152220D01*
X142800193Y-130164832D01*
X142819899Y-130179447D01*
X142838077Y-130195923D01*
X142854553Y-130214101D01*
X142869168Y-130233807D01*
X142881780Y-130254850D01*
X142892270Y-130277029D01*
X142900535Y-130300128D01*
X142906496Y-130323927D01*
X142910096Y-130348195D01*
X142911300Y-130372699D01*
X142911300Y-131272701D01*
X142910096Y-131297205D01*
X142906496Y-131321473D01*
X142900535Y-131345272D01*
X142892270Y-131368371D01*
X142881780Y-131390550D01*
X142869168Y-131411593D01*
X142854553Y-131431299D01*
X142838077Y-131449477D01*
X142819899Y-131465953D01*
X142800193Y-131480568D01*
X142779150Y-131493180D01*
X142756971Y-131503670D01*
X142733872Y-131511935D01*
X142710073Y-131517896D01*
X142685805Y-131521496D01*
X142661301Y-131522700D01*
X142011299Y-131522700D01*
X141986795Y-131521496D01*
X141962527Y-131517896D01*
X141938728Y-131511935D01*
X141915629Y-131503670D01*
X141893450Y-131493180D01*
X141872407Y-131480568D01*
X141852701Y-131465953D01*
X141834523Y-131449477D01*
X141818047Y-131431299D01*
X141803432Y-131411593D01*
X141790820Y-131390550D01*
X141780330Y-131368371D01*
X141772065Y-131345272D01*
X141766104Y-131321473D01*
X141762504Y-131297205D01*
X141761300Y-131272701D01*
X141761300Y-130372699D01*
X141762504Y-130348195D01*
X141766104Y-130323927D01*
X141772065Y-130300128D01*
X141780330Y-130277029D01*
X141790820Y-130254850D01*
X141803432Y-130233807D01*
X141818047Y-130214101D01*
X141834523Y-130195923D01*
X141852701Y-130179447D01*
X141872407Y-130164832D01*
X141893450Y-130152220D01*
X141915629Y-130141730D01*
X141938728Y-130133465D01*
X141962527Y-130127504D01*
X141986795Y-130123904D01*
X142011299Y-130122700D01*
X142661301Y-130122700D01*
X142685805Y-130123904D01*
X142685805Y-130123904D01*
G37*
D13*
G04 #@! TD*
G04 #@! TO.P,L1,1*
G04 #@! TO.N,Net-(L1-Pad1)*
X142336300Y-130822700D03*
D12*
G04 #@! TO.N,AUD_OUT-*
G04 #@! TO.C,L2*
G36*
X144735805Y-128155404D02*
X144760073Y-128159004D01*
X144783872Y-128164965D01*
X144806971Y-128173230D01*
X144829150Y-128183720D01*
X144850193Y-128196332D01*
X144869899Y-128210947D01*
X144888077Y-128227423D01*
X144904553Y-128245601D01*
X144919168Y-128265307D01*
X144931780Y-128286350D01*
X144942270Y-128308529D01*
X144950535Y-128331628D01*
X144956496Y-128355427D01*
X144960096Y-128379695D01*
X144961300Y-128404199D01*
X144961300Y-129304201D01*
X144960096Y-129328705D01*
X144956496Y-129352973D01*
X144950535Y-129376772D01*
X144942270Y-129399871D01*
X144931780Y-129422050D01*
X144919168Y-129443093D01*
X144904553Y-129462799D01*
X144888077Y-129480977D01*
X144869899Y-129497453D01*
X144850193Y-129512068D01*
X144829150Y-129524680D01*
X144806971Y-129535170D01*
X144783872Y-129543435D01*
X144760073Y-129549396D01*
X144735805Y-129552996D01*
X144711301Y-129554200D01*
X144061299Y-129554200D01*
X144036795Y-129552996D01*
X144012527Y-129549396D01*
X143988728Y-129543435D01*
X143965629Y-129535170D01*
X143943450Y-129524680D01*
X143922407Y-129512068D01*
X143902701Y-129497453D01*
X143884523Y-129480977D01*
X143868047Y-129462799D01*
X143853432Y-129443093D01*
X143840820Y-129422050D01*
X143830330Y-129399871D01*
X143822065Y-129376772D01*
X143816104Y-129352973D01*
X143812504Y-129328705D01*
X143811300Y-129304201D01*
X143811300Y-128404199D01*
X143812504Y-128379695D01*
X143816104Y-128355427D01*
X143822065Y-128331628D01*
X143830330Y-128308529D01*
X143840820Y-128286350D01*
X143853432Y-128265307D01*
X143868047Y-128245601D01*
X143884523Y-128227423D01*
X143902701Y-128210947D01*
X143922407Y-128196332D01*
X143943450Y-128183720D01*
X143965629Y-128173230D01*
X143988728Y-128164965D01*
X144012527Y-128159004D01*
X144036795Y-128155404D01*
X144061299Y-128154200D01*
X144711301Y-128154200D01*
X144735805Y-128155404D01*
X144735805Y-128155404D01*
G37*
D13*
G04 #@! TD*
G04 #@! TO.P,L2,2*
G04 #@! TO.N,AUD_OUT-*
X144386300Y-128854200D03*
D12*
G04 #@! TO.N,Net-(L2-Pad1)*
G04 #@! TO.C,L2*
G36*
X142685805Y-128155404D02*
X142710073Y-128159004D01*
X142733872Y-128164965D01*
X142756971Y-128173230D01*
X142779150Y-128183720D01*
X142800193Y-128196332D01*
X142819899Y-128210947D01*
X142838077Y-128227423D01*
X142854553Y-128245601D01*
X142869168Y-128265307D01*
X142881780Y-128286350D01*
X142892270Y-128308529D01*
X142900535Y-128331628D01*
X142906496Y-128355427D01*
X142910096Y-128379695D01*
X142911300Y-128404199D01*
X142911300Y-129304201D01*
X142910096Y-129328705D01*
X142906496Y-129352973D01*
X142900535Y-129376772D01*
X142892270Y-129399871D01*
X142881780Y-129422050D01*
X142869168Y-129443093D01*
X142854553Y-129462799D01*
X142838077Y-129480977D01*
X142819899Y-129497453D01*
X142800193Y-129512068D01*
X142779150Y-129524680D01*
X142756971Y-129535170D01*
X142733872Y-129543435D01*
X142710073Y-129549396D01*
X142685805Y-129552996D01*
X142661301Y-129554200D01*
X142011299Y-129554200D01*
X141986795Y-129552996D01*
X141962527Y-129549396D01*
X141938728Y-129543435D01*
X141915629Y-129535170D01*
X141893450Y-129524680D01*
X141872407Y-129512068D01*
X141852701Y-129497453D01*
X141834523Y-129480977D01*
X141818047Y-129462799D01*
X141803432Y-129443093D01*
X141790820Y-129422050D01*
X141780330Y-129399871D01*
X141772065Y-129376772D01*
X141766104Y-129352973D01*
X141762504Y-129328705D01*
X141761300Y-129304201D01*
X141761300Y-128404199D01*
X141762504Y-128379695D01*
X141766104Y-128355427D01*
X141772065Y-128331628D01*
X141780330Y-128308529D01*
X141790820Y-128286350D01*
X141803432Y-128265307D01*
X141818047Y-128245601D01*
X141834523Y-128227423D01*
X141852701Y-128210947D01*
X141872407Y-128196332D01*
X141893450Y-128183720D01*
X141915629Y-128173230D01*
X141938728Y-128164965D01*
X141962527Y-128159004D01*
X141986795Y-128155404D01*
X142011299Y-128154200D01*
X142661301Y-128154200D01*
X142685805Y-128155404D01*
X142685805Y-128155404D01*
G37*
D13*
G04 #@! TD*
G04 #@! TO.P,L2,1*
G04 #@! TO.N,Net-(L2-Pad1)*
X142336300Y-128854200D03*
D12*
G04 #@! TO.N,AUD_OUT+*
G04 #@! TO.C,L3*
G36*
X138409205Y-137618604D02*
X138433473Y-137622204D01*
X138457272Y-137628165D01*
X138480371Y-137636430D01*
X138502550Y-137646920D01*
X138523593Y-137659532D01*
X138543299Y-137674147D01*
X138561477Y-137690623D01*
X138577953Y-137708801D01*
X138592568Y-137728507D01*
X138605180Y-137749550D01*
X138615670Y-137771729D01*
X138623935Y-137794828D01*
X138629896Y-137818627D01*
X138633496Y-137842895D01*
X138634700Y-137867399D01*
X138634700Y-138517401D01*
X138633496Y-138541905D01*
X138629896Y-138566173D01*
X138623935Y-138589972D01*
X138615670Y-138613071D01*
X138605180Y-138635250D01*
X138592568Y-138656293D01*
X138577953Y-138675999D01*
X138561477Y-138694177D01*
X138543299Y-138710653D01*
X138523593Y-138725268D01*
X138502550Y-138737880D01*
X138480371Y-138748370D01*
X138457272Y-138756635D01*
X138433473Y-138762596D01*
X138409205Y-138766196D01*
X138384701Y-138767400D01*
X137484699Y-138767400D01*
X137460195Y-138766196D01*
X137435927Y-138762596D01*
X137412128Y-138756635D01*
X137389029Y-138748370D01*
X137366850Y-138737880D01*
X137345807Y-138725268D01*
X137326101Y-138710653D01*
X137307923Y-138694177D01*
X137291447Y-138675999D01*
X137276832Y-138656293D01*
X137264220Y-138635250D01*
X137253730Y-138613071D01*
X137245465Y-138589972D01*
X137239504Y-138566173D01*
X137235904Y-138541905D01*
X137234700Y-138517401D01*
X137234700Y-137867399D01*
X137235904Y-137842895D01*
X137239504Y-137818627D01*
X137245465Y-137794828D01*
X137253730Y-137771729D01*
X137264220Y-137749550D01*
X137276832Y-137728507D01*
X137291447Y-137708801D01*
X137307923Y-137690623D01*
X137326101Y-137674147D01*
X137345807Y-137659532D01*
X137366850Y-137646920D01*
X137389029Y-137636430D01*
X137412128Y-137628165D01*
X137435927Y-137622204D01*
X137460195Y-137618604D01*
X137484699Y-137617400D01*
X138384701Y-137617400D01*
X138409205Y-137618604D01*
X138409205Y-137618604D01*
G37*
D13*
G04 #@! TD*
G04 #@! TO.P,L3,2*
G04 #@! TO.N,AUD_OUT+*
X137934700Y-138192400D03*
D12*
G04 #@! TO.N,Net-(L3-Pad1)*
G04 #@! TO.C,L3*
G36*
X138409205Y-139668604D02*
X138433473Y-139672204D01*
X138457272Y-139678165D01*
X138480371Y-139686430D01*
X138502550Y-139696920D01*
X138523593Y-139709532D01*
X138543299Y-139724147D01*
X138561477Y-139740623D01*
X138577953Y-139758801D01*
X138592568Y-139778507D01*
X138605180Y-139799550D01*
X138615670Y-139821729D01*
X138623935Y-139844828D01*
X138629896Y-139868627D01*
X138633496Y-139892895D01*
X138634700Y-139917399D01*
X138634700Y-140567401D01*
X138633496Y-140591905D01*
X138629896Y-140616173D01*
X138623935Y-140639972D01*
X138615670Y-140663071D01*
X138605180Y-140685250D01*
X138592568Y-140706293D01*
X138577953Y-140725999D01*
X138561477Y-140744177D01*
X138543299Y-140760653D01*
X138523593Y-140775268D01*
X138502550Y-140787880D01*
X138480371Y-140798370D01*
X138457272Y-140806635D01*
X138433473Y-140812596D01*
X138409205Y-140816196D01*
X138384701Y-140817400D01*
X137484699Y-140817400D01*
X137460195Y-140816196D01*
X137435927Y-140812596D01*
X137412128Y-140806635D01*
X137389029Y-140798370D01*
X137366850Y-140787880D01*
X137345807Y-140775268D01*
X137326101Y-140760653D01*
X137307923Y-140744177D01*
X137291447Y-140725999D01*
X137276832Y-140706293D01*
X137264220Y-140685250D01*
X137253730Y-140663071D01*
X137245465Y-140639972D01*
X137239504Y-140616173D01*
X137235904Y-140591905D01*
X137234700Y-140567401D01*
X137234700Y-139917399D01*
X137235904Y-139892895D01*
X137239504Y-139868627D01*
X137245465Y-139844828D01*
X137253730Y-139821729D01*
X137264220Y-139799550D01*
X137276832Y-139778507D01*
X137291447Y-139758801D01*
X137307923Y-139740623D01*
X137326101Y-139724147D01*
X137345807Y-139709532D01*
X137366850Y-139696920D01*
X137389029Y-139686430D01*
X137412128Y-139678165D01*
X137435927Y-139672204D01*
X137460195Y-139668604D01*
X137484699Y-139667400D01*
X138384701Y-139667400D01*
X138409205Y-139668604D01*
X138409205Y-139668604D01*
G37*
D13*
G04 #@! TD*
G04 #@! TO.P,L3,1*
G04 #@! TO.N,Net-(L3-Pad1)*
X137934700Y-140242400D03*
D12*
G04 #@! TO.N,AUD_OUT-*
G04 #@! TO.C,L4*
G36*
X140657105Y-137605904D02*
X140681373Y-137609504D01*
X140705172Y-137615465D01*
X140728271Y-137623730D01*
X140750450Y-137634220D01*
X140771493Y-137646832D01*
X140791199Y-137661447D01*
X140809377Y-137677923D01*
X140825853Y-137696101D01*
X140840468Y-137715807D01*
X140853080Y-137736850D01*
X140863570Y-137759029D01*
X140871835Y-137782128D01*
X140877796Y-137805927D01*
X140881396Y-137830195D01*
X140882600Y-137854699D01*
X140882600Y-138504701D01*
X140881396Y-138529205D01*
X140877796Y-138553473D01*
X140871835Y-138577272D01*
X140863570Y-138600371D01*
X140853080Y-138622550D01*
X140840468Y-138643593D01*
X140825853Y-138663299D01*
X140809377Y-138681477D01*
X140791199Y-138697953D01*
X140771493Y-138712568D01*
X140750450Y-138725180D01*
X140728271Y-138735670D01*
X140705172Y-138743935D01*
X140681373Y-138749896D01*
X140657105Y-138753496D01*
X140632601Y-138754700D01*
X139732599Y-138754700D01*
X139708095Y-138753496D01*
X139683827Y-138749896D01*
X139660028Y-138743935D01*
X139636929Y-138735670D01*
X139614750Y-138725180D01*
X139593707Y-138712568D01*
X139574001Y-138697953D01*
X139555823Y-138681477D01*
X139539347Y-138663299D01*
X139524732Y-138643593D01*
X139512120Y-138622550D01*
X139501630Y-138600371D01*
X139493365Y-138577272D01*
X139487404Y-138553473D01*
X139483804Y-138529205D01*
X139482600Y-138504701D01*
X139482600Y-137854699D01*
X139483804Y-137830195D01*
X139487404Y-137805927D01*
X139493365Y-137782128D01*
X139501630Y-137759029D01*
X139512120Y-137736850D01*
X139524732Y-137715807D01*
X139539347Y-137696101D01*
X139555823Y-137677923D01*
X139574001Y-137661447D01*
X139593707Y-137646832D01*
X139614750Y-137634220D01*
X139636929Y-137623730D01*
X139660028Y-137615465D01*
X139683827Y-137609504D01*
X139708095Y-137605904D01*
X139732599Y-137604700D01*
X140632601Y-137604700D01*
X140657105Y-137605904D01*
X140657105Y-137605904D01*
G37*
D13*
G04 #@! TD*
G04 #@! TO.P,L4,2*
G04 #@! TO.N,AUD_OUT-*
X140182600Y-138179700D03*
D12*
G04 #@! TO.N,Net-(L4-Pad1)*
G04 #@! TO.C,L4*
G36*
X140657105Y-139655904D02*
X140681373Y-139659504D01*
X140705172Y-139665465D01*
X140728271Y-139673730D01*
X140750450Y-139684220D01*
X140771493Y-139696832D01*
X140791199Y-139711447D01*
X140809377Y-139727923D01*
X140825853Y-139746101D01*
X140840468Y-139765807D01*
X140853080Y-139786850D01*
X140863570Y-139809029D01*
X140871835Y-139832128D01*
X140877796Y-139855927D01*
X140881396Y-139880195D01*
X140882600Y-139904699D01*
X140882600Y-140554701D01*
X140881396Y-140579205D01*
X140877796Y-140603473D01*
X140871835Y-140627272D01*
X140863570Y-140650371D01*
X140853080Y-140672550D01*
X140840468Y-140693593D01*
X140825853Y-140713299D01*
X140809377Y-140731477D01*
X140791199Y-140747953D01*
X140771493Y-140762568D01*
X140750450Y-140775180D01*
X140728271Y-140785670D01*
X140705172Y-140793935D01*
X140681373Y-140799896D01*
X140657105Y-140803496D01*
X140632601Y-140804700D01*
X139732599Y-140804700D01*
X139708095Y-140803496D01*
X139683827Y-140799896D01*
X139660028Y-140793935D01*
X139636929Y-140785670D01*
X139614750Y-140775180D01*
X139593707Y-140762568D01*
X139574001Y-140747953D01*
X139555823Y-140731477D01*
X139539347Y-140713299D01*
X139524732Y-140693593D01*
X139512120Y-140672550D01*
X139501630Y-140650371D01*
X139493365Y-140627272D01*
X139487404Y-140603473D01*
X139483804Y-140579205D01*
X139482600Y-140554701D01*
X139482600Y-139904699D01*
X139483804Y-139880195D01*
X139487404Y-139855927D01*
X139493365Y-139832128D01*
X139501630Y-139809029D01*
X139512120Y-139786850D01*
X139524732Y-139765807D01*
X139539347Y-139746101D01*
X139555823Y-139727923D01*
X139574001Y-139711447D01*
X139593707Y-139696832D01*
X139614750Y-139684220D01*
X139636929Y-139673730D01*
X139660028Y-139665465D01*
X139683827Y-139659504D01*
X139708095Y-139655904D01*
X139732599Y-139654700D01*
X140632601Y-139654700D01*
X140657105Y-139655904D01*
X140657105Y-139655904D01*
G37*
D13*
G04 #@! TD*
G04 #@! TO.P,L4,1*
G04 #@! TO.N,Net-(L4-Pad1)*
X140182600Y-140229700D03*
D12*
G04 #@! TO.N,Net-(D1-Pad2)*
G04 #@! TO.C,R1*
G36*
X118111305Y-103949204D02*
X118135573Y-103952804D01*
X118159372Y-103958765D01*
X118182471Y-103967030D01*
X118204650Y-103977520D01*
X118225693Y-103990132D01*
X118245399Y-104004747D01*
X118263577Y-104021223D01*
X118280053Y-104039401D01*
X118294668Y-104059107D01*
X118307280Y-104080150D01*
X118317770Y-104102329D01*
X118326035Y-104125428D01*
X118331996Y-104149227D01*
X118335596Y-104173495D01*
X118336800Y-104197999D01*
X118336800Y-105098001D01*
X118335596Y-105122505D01*
X118331996Y-105146773D01*
X118326035Y-105170572D01*
X118317770Y-105193671D01*
X118307280Y-105215850D01*
X118294668Y-105236893D01*
X118280053Y-105256599D01*
X118263577Y-105274777D01*
X118245399Y-105291253D01*
X118225693Y-105305868D01*
X118204650Y-105318480D01*
X118182471Y-105328970D01*
X118159372Y-105337235D01*
X118135573Y-105343196D01*
X118111305Y-105346796D01*
X118086801Y-105348000D01*
X117436799Y-105348000D01*
X117412295Y-105346796D01*
X117388027Y-105343196D01*
X117364228Y-105337235D01*
X117341129Y-105328970D01*
X117318950Y-105318480D01*
X117297907Y-105305868D01*
X117278201Y-105291253D01*
X117260023Y-105274777D01*
X117243547Y-105256599D01*
X117228932Y-105236893D01*
X117216320Y-105215850D01*
X117205830Y-105193671D01*
X117197565Y-105170572D01*
X117191604Y-105146773D01*
X117188004Y-105122505D01*
X117186800Y-105098001D01*
X117186800Y-104197999D01*
X117188004Y-104173495D01*
X117191604Y-104149227D01*
X117197565Y-104125428D01*
X117205830Y-104102329D01*
X117216320Y-104080150D01*
X117228932Y-104059107D01*
X117243547Y-104039401D01*
X117260023Y-104021223D01*
X117278201Y-104004747D01*
X117297907Y-103990132D01*
X117318950Y-103977520D01*
X117341129Y-103967030D01*
X117364228Y-103958765D01*
X117388027Y-103952804D01*
X117412295Y-103949204D01*
X117436799Y-103948000D01*
X118086801Y-103948000D01*
X118111305Y-103949204D01*
X118111305Y-103949204D01*
G37*
D13*
G04 #@! TD*
G04 #@! TO.P,R1,2*
G04 #@! TO.N,Net-(D1-Pad2)*
X117761800Y-104648000D03*
D12*
G04 #@! TO.N,3V3DC*
G04 #@! TO.C,R1*
G36*
X120161305Y-103949204D02*
X120185573Y-103952804D01*
X120209372Y-103958765D01*
X120232471Y-103967030D01*
X120254650Y-103977520D01*
X120275693Y-103990132D01*
X120295399Y-104004747D01*
X120313577Y-104021223D01*
X120330053Y-104039401D01*
X120344668Y-104059107D01*
X120357280Y-104080150D01*
X120367770Y-104102329D01*
X120376035Y-104125428D01*
X120381996Y-104149227D01*
X120385596Y-104173495D01*
X120386800Y-104197999D01*
X120386800Y-105098001D01*
X120385596Y-105122505D01*
X120381996Y-105146773D01*
X120376035Y-105170572D01*
X120367770Y-105193671D01*
X120357280Y-105215850D01*
X120344668Y-105236893D01*
X120330053Y-105256599D01*
X120313577Y-105274777D01*
X120295399Y-105291253D01*
X120275693Y-105305868D01*
X120254650Y-105318480D01*
X120232471Y-105328970D01*
X120209372Y-105337235D01*
X120185573Y-105343196D01*
X120161305Y-105346796D01*
X120136801Y-105348000D01*
X119486799Y-105348000D01*
X119462295Y-105346796D01*
X119438027Y-105343196D01*
X119414228Y-105337235D01*
X119391129Y-105328970D01*
X119368950Y-105318480D01*
X119347907Y-105305868D01*
X119328201Y-105291253D01*
X119310023Y-105274777D01*
X119293547Y-105256599D01*
X119278932Y-105236893D01*
X119266320Y-105215850D01*
X119255830Y-105193671D01*
X119247565Y-105170572D01*
X119241604Y-105146773D01*
X119238004Y-105122505D01*
X119236800Y-105098001D01*
X119236800Y-104197999D01*
X119238004Y-104173495D01*
X119241604Y-104149227D01*
X119247565Y-104125428D01*
X119255830Y-104102329D01*
X119266320Y-104080150D01*
X119278932Y-104059107D01*
X119293547Y-104039401D01*
X119310023Y-104021223D01*
X119328201Y-104004747D01*
X119347907Y-103990132D01*
X119368950Y-103977520D01*
X119391129Y-103967030D01*
X119414228Y-103958765D01*
X119438027Y-103952804D01*
X119462295Y-103949204D01*
X119486799Y-103948000D01*
X120136801Y-103948000D01*
X120161305Y-103949204D01*
X120161305Y-103949204D01*
G37*
D13*
G04 #@! TD*
G04 #@! TO.P,R1,1*
G04 #@! TO.N,3V3DC*
X119811800Y-104648000D03*
D12*
G04 #@! TO.N,Net-(D2-Pad2)*
G04 #@! TO.C,R2*
G36*
X118111305Y-101536204D02*
X118135573Y-101539804D01*
X118159372Y-101545765D01*
X118182471Y-101554030D01*
X118204650Y-101564520D01*
X118225693Y-101577132D01*
X118245399Y-101591747D01*
X118263577Y-101608223D01*
X118280053Y-101626401D01*
X118294668Y-101646107D01*
X118307280Y-101667150D01*
X118317770Y-101689329D01*
X118326035Y-101712428D01*
X118331996Y-101736227D01*
X118335596Y-101760495D01*
X118336800Y-101784999D01*
X118336800Y-102685001D01*
X118335596Y-102709505D01*
X118331996Y-102733773D01*
X118326035Y-102757572D01*
X118317770Y-102780671D01*
X118307280Y-102802850D01*
X118294668Y-102823893D01*
X118280053Y-102843599D01*
X118263577Y-102861777D01*
X118245399Y-102878253D01*
X118225693Y-102892868D01*
X118204650Y-102905480D01*
X118182471Y-102915970D01*
X118159372Y-102924235D01*
X118135573Y-102930196D01*
X118111305Y-102933796D01*
X118086801Y-102935000D01*
X117436799Y-102935000D01*
X117412295Y-102933796D01*
X117388027Y-102930196D01*
X117364228Y-102924235D01*
X117341129Y-102915970D01*
X117318950Y-102905480D01*
X117297907Y-102892868D01*
X117278201Y-102878253D01*
X117260023Y-102861777D01*
X117243547Y-102843599D01*
X117228932Y-102823893D01*
X117216320Y-102802850D01*
X117205830Y-102780671D01*
X117197565Y-102757572D01*
X117191604Y-102733773D01*
X117188004Y-102709505D01*
X117186800Y-102685001D01*
X117186800Y-101784999D01*
X117188004Y-101760495D01*
X117191604Y-101736227D01*
X117197565Y-101712428D01*
X117205830Y-101689329D01*
X117216320Y-101667150D01*
X117228932Y-101646107D01*
X117243547Y-101626401D01*
X117260023Y-101608223D01*
X117278201Y-101591747D01*
X117297907Y-101577132D01*
X117318950Y-101564520D01*
X117341129Y-101554030D01*
X117364228Y-101545765D01*
X117388027Y-101539804D01*
X117412295Y-101536204D01*
X117436799Y-101535000D01*
X118086801Y-101535000D01*
X118111305Y-101536204D01*
X118111305Y-101536204D01*
G37*
D13*
G04 #@! TD*
G04 #@! TO.P,R2,2*
G04 #@! TO.N,Net-(D2-Pad2)*
X117761800Y-102235000D03*
D12*
G04 #@! TO.N,5VDC*
G04 #@! TO.C,R2*
G36*
X120161305Y-101536204D02*
X120185573Y-101539804D01*
X120209372Y-101545765D01*
X120232471Y-101554030D01*
X120254650Y-101564520D01*
X120275693Y-101577132D01*
X120295399Y-101591747D01*
X120313577Y-101608223D01*
X120330053Y-101626401D01*
X120344668Y-101646107D01*
X120357280Y-101667150D01*
X120367770Y-101689329D01*
X120376035Y-101712428D01*
X120381996Y-101736227D01*
X120385596Y-101760495D01*
X120386800Y-101784999D01*
X120386800Y-102685001D01*
X120385596Y-102709505D01*
X120381996Y-102733773D01*
X120376035Y-102757572D01*
X120367770Y-102780671D01*
X120357280Y-102802850D01*
X120344668Y-102823893D01*
X120330053Y-102843599D01*
X120313577Y-102861777D01*
X120295399Y-102878253D01*
X120275693Y-102892868D01*
X120254650Y-102905480D01*
X120232471Y-102915970D01*
X120209372Y-102924235D01*
X120185573Y-102930196D01*
X120161305Y-102933796D01*
X120136801Y-102935000D01*
X119486799Y-102935000D01*
X119462295Y-102933796D01*
X119438027Y-102930196D01*
X119414228Y-102924235D01*
X119391129Y-102915970D01*
X119368950Y-102905480D01*
X119347907Y-102892868D01*
X119328201Y-102878253D01*
X119310023Y-102861777D01*
X119293547Y-102843599D01*
X119278932Y-102823893D01*
X119266320Y-102802850D01*
X119255830Y-102780671D01*
X119247565Y-102757572D01*
X119241604Y-102733773D01*
X119238004Y-102709505D01*
X119236800Y-102685001D01*
X119236800Y-101784999D01*
X119238004Y-101760495D01*
X119241604Y-101736227D01*
X119247565Y-101712428D01*
X119255830Y-101689329D01*
X119266320Y-101667150D01*
X119278932Y-101646107D01*
X119293547Y-101626401D01*
X119310023Y-101608223D01*
X119328201Y-101591747D01*
X119347907Y-101577132D01*
X119368950Y-101564520D01*
X119391129Y-101554030D01*
X119414228Y-101545765D01*
X119438027Y-101539804D01*
X119462295Y-101536204D01*
X119486799Y-101535000D01*
X120136801Y-101535000D01*
X120161305Y-101536204D01*
X120161305Y-101536204D01*
G37*
D13*
G04 #@! TD*
G04 #@! TO.P,R2,1*
G04 #@! TO.N,5VDC*
X119811800Y-102235000D03*
D12*
G04 #@! TO.N,Net-(R3-Pad2)*
G04 #@! TO.C,R3*
G36*
X120021605Y-146638984D02*
X120045873Y-146642584D01*
X120069672Y-146648545D01*
X120092771Y-146656810D01*
X120114950Y-146667300D01*
X120135993Y-146679912D01*
X120155699Y-146694527D01*
X120173877Y-146711003D01*
X120190353Y-146729181D01*
X120204968Y-146748887D01*
X120217580Y-146769930D01*
X120228070Y-146792109D01*
X120236335Y-146815208D01*
X120242296Y-146839007D01*
X120245896Y-146863275D01*
X120247100Y-146887779D01*
X120247100Y-147787781D01*
X120245896Y-147812285D01*
X120242296Y-147836553D01*
X120236335Y-147860352D01*
X120228070Y-147883451D01*
X120217580Y-147905630D01*
X120204968Y-147926673D01*
X120190353Y-147946379D01*
X120173877Y-147964557D01*
X120155699Y-147981033D01*
X120135993Y-147995648D01*
X120114950Y-148008260D01*
X120092771Y-148018750D01*
X120069672Y-148027015D01*
X120045873Y-148032976D01*
X120021605Y-148036576D01*
X119997101Y-148037780D01*
X119347099Y-148037780D01*
X119322595Y-148036576D01*
X119298327Y-148032976D01*
X119274528Y-148027015D01*
X119251429Y-148018750D01*
X119229250Y-148008260D01*
X119208207Y-147995648D01*
X119188501Y-147981033D01*
X119170323Y-147964557D01*
X119153847Y-147946379D01*
X119139232Y-147926673D01*
X119126620Y-147905630D01*
X119116130Y-147883451D01*
X119107865Y-147860352D01*
X119101904Y-147836553D01*
X119098304Y-147812285D01*
X119097100Y-147787781D01*
X119097100Y-146887779D01*
X119098304Y-146863275D01*
X119101904Y-146839007D01*
X119107865Y-146815208D01*
X119116130Y-146792109D01*
X119126620Y-146769930D01*
X119139232Y-146748887D01*
X119153847Y-146729181D01*
X119170323Y-146711003D01*
X119188501Y-146694527D01*
X119208207Y-146679912D01*
X119229250Y-146667300D01*
X119251429Y-146656810D01*
X119274528Y-146648545D01*
X119298327Y-146642584D01*
X119322595Y-146638984D01*
X119347099Y-146637780D01*
X119997101Y-146637780D01*
X120021605Y-146638984D01*
X120021605Y-146638984D01*
G37*
D13*
G04 #@! TD*
G04 #@! TO.P,R3,2*
G04 #@! TO.N,Net-(R3-Pad2)*
X119672100Y-147337780D03*
D12*
G04 #@! TO.N,Net-(R3-Pad1)*
G04 #@! TO.C,R3*
G36*
X117971605Y-146638984D02*
X117995873Y-146642584D01*
X118019672Y-146648545D01*
X118042771Y-146656810D01*
X118064950Y-146667300D01*
X118085993Y-146679912D01*
X118105699Y-146694527D01*
X118123877Y-146711003D01*
X118140353Y-146729181D01*
X118154968Y-146748887D01*
X118167580Y-146769930D01*
X118178070Y-146792109D01*
X118186335Y-146815208D01*
X118192296Y-146839007D01*
X118195896Y-146863275D01*
X118197100Y-146887779D01*
X118197100Y-147787781D01*
X118195896Y-147812285D01*
X118192296Y-147836553D01*
X118186335Y-147860352D01*
X118178070Y-147883451D01*
X118167580Y-147905630D01*
X118154968Y-147926673D01*
X118140353Y-147946379D01*
X118123877Y-147964557D01*
X118105699Y-147981033D01*
X118085993Y-147995648D01*
X118064950Y-148008260D01*
X118042771Y-148018750D01*
X118019672Y-148027015D01*
X117995873Y-148032976D01*
X117971605Y-148036576D01*
X117947101Y-148037780D01*
X117297099Y-148037780D01*
X117272595Y-148036576D01*
X117248327Y-148032976D01*
X117224528Y-148027015D01*
X117201429Y-148018750D01*
X117179250Y-148008260D01*
X117158207Y-147995648D01*
X117138501Y-147981033D01*
X117120323Y-147964557D01*
X117103847Y-147946379D01*
X117089232Y-147926673D01*
X117076620Y-147905630D01*
X117066130Y-147883451D01*
X117057865Y-147860352D01*
X117051904Y-147836553D01*
X117048304Y-147812285D01*
X117047100Y-147787781D01*
X117047100Y-146887779D01*
X117048304Y-146863275D01*
X117051904Y-146839007D01*
X117057865Y-146815208D01*
X117066130Y-146792109D01*
X117076620Y-146769930D01*
X117089232Y-146748887D01*
X117103847Y-146729181D01*
X117120323Y-146711003D01*
X117138501Y-146694527D01*
X117158207Y-146679912D01*
X117179250Y-146667300D01*
X117201429Y-146656810D01*
X117224528Y-146648545D01*
X117248327Y-146642584D01*
X117272595Y-146638984D01*
X117297099Y-146637780D01*
X117947101Y-146637780D01*
X117971605Y-146638984D01*
X117971605Y-146638984D01*
G37*
D13*
G04 #@! TD*
G04 #@! TO.P,R3,1*
G04 #@! TO.N,Net-(R3-Pad1)*
X117622100Y-147337780D03*
D12*
G04 #@! TO.N,Net-(R4-Pad2)*
G04 #@! TO.C,R4*
G36*
X117913185Y-140101024D02*
X117937453Y-140104624D01*
X117961252Y-140110585D01*
X117984351Y-140118850D01*
X118006530Y-140129340D01*
X118027573Y-140141952D01*
X118047279Y-140156567D01*
X118065457Y-140173043D01*
X118081933Y-140191221D01*
X118096548Y-140210927D01*
X118109160Y-140231970D01*
X118119650Y-140254149D01*
X118127915Y-140277248D01*
X118133876Y-140301047D01*
X118137476Y-140325315D01*
X118138680Y-140349819D01*
X118138680Y-141249821D01*
X118137476Y-141274325D01*
X118133876Y-141298593D01*
X118127915Y-141322392D01*
X118119650Y-141345491D01*
X118109160Y-141367670D01*
X118096548Y-141388713D01*
X118081933Y-141408419D01*
X118065457Y-141426597D01*
X118047279Y-141443073D01*
X118027573Y-141457688D01*
X118006530Y-141470300D01*
X117984351Y-141480790D01*
X117961252Y-141489055D01*
X117937453Y-141495016D01*
X117913185Y-141498616D01*
X117888681Y-141499820D01*
X117238679Y-141499820D01*
X117214175Y-141498616D01*
X117189907Y-141495016D01*
X117166108Y-141489055D01*
X117143009Y-141480790D01*
X117120830Y-141470300D01*
X117099787Y-141457688D01*
X117080081Y-141443073D01*
X117061903Y-141426597D01*
X117045427Y-141408419D01*
X117030812Y-141388713D01*
X117018200Y-141367670D01*
X117007710Y-141345491D01*
X116999445Y-141322392D01*
X116993484Y-141298593D01*
X116989884Y-141274325D01*
X116988680Y-141249821D01*
X116988680Y-140349819D01*
X116989884Y-140325315D01*
X116993484Y-140301047D01*
X116999445Y-140277248D01*
X117007710Y-140254149D01*
X117018200Y-140231970D01*
X117030812Y-140210927D01*
X117045427Y-140191221D01*
X117061903Y-140173043D01*
X117080081Y-140156567D01*
X117099787Y-140141952D01*
X117120830Y-140129340D01*
X117143009Y-140118850D01*
X117166108Y-140110585D01*
X117189907Y-140104624D01*
X117214175Y-140101024D01*
X117238679Y-140099820D01*
X117888681Y-140099820D01*
X117913185Y-140101024D01*
X117913185Y-140101024D01*
G37*
D13*
G04 #@! TD*
G04 #@! TO.P,R4,2*
G04 #@! TO.N,Net-(R4-Pad2)*
X117563680Y-140799820D03*
D12*
G04 #@! TO.N,Net-(C7-Pad2)*
G04 #@! TO.C,R4*
G36*
X119963185Y-140101024D02*
X119987453Y-140104624D01*
X120011252Y-140110585D01*
X120034351Y-140118850D01*
X120056530Y-140129340D01*
X120077573Y-140141952D01*
X120097279Y-140156567D01*
X120115457Y-140173043D01*
X120131933Y-140191221D01*
X120146548Y-140210927D01*
X120159160Y-140231970D01*
X120169650Y-140254149D01*
X120177915Y-140277248D01*
X120183876Y-140301047D01*
X120187476Y-140325315D01*
X120188680Y-140349819D01*
X120188680Y-141249821D01*
X120187476Y-141274325D01*
X120183876Y-141298593D01*
X120177915Y-141322392D01*
X120169650Y-141345491D01*
X120159160Y-141367670D01*
X120146548Y-141388713D01*
X120131933Y-141408419D01*
X120115457Y-141426597D01*
X120097279Y-141443073D01*
X120077573Y-141457688D01*
X120056530Y-141470300D01*
X120034351Y-141480790D01*
X120011252Y-141489055D01*
X119987453Y-141495016D01*
X119963185Y-141498616D01*
X119938681Y-141499820D01*
X119288679Y-141499820D01*
X119264175Y-141498616D01*
X119239907Y-141495016D01*
X119216108Y-141489055D01*
X119193009Y-141480790D01*
X119170830Y-141470300D01*
X119149787Y-141457688D01*
X119130081Y-141443073D01*
X119111903Y-141426597D01*
X119095427Y-141408419D01*
X119080812Y-141388713D01*
X119068200Y-141367670D01*
X119057710Y-141345491D01*
X119049445Y-141322392D01*
X119043484Y-141298593D01*
X119039884Y-141274325D01*
X119038680Y-141249821D01*
X119038680Y-140349819D01*
X119039884Y-140325315D01*
X119043484Y-140301047D01*
X119049445Y-140277248D01*
X119057710Y-140254149D01*
X119068200Y-140231970D01*
X119080812Y-140210927D01*
X119095427Y-140191221D01*
X119111903Y-140173043D01*
X119130081Y-140156567D01*
X119149787Y-140141952D01*
X119170830Y-140129340D01*
X119193009Y-140118850D01*
X119216108Y-140110585D01*
X119239907Y-140104624D01*
X119264175Y-140101024D01*
X119288679Y-140099820D01*
X119938681Y-140099820D01*
X119963185Y-140101024D01*
X119963185Y-140101024D01*
G37*
D13*
G04 #@! TD*
G04 #@! TO.P,R4,1*
G04 #@! TO.N,Net-(C7-Pad2)*
X119613680Y-140799820D03*
D12*
G04 #@! TO.N,Net-(R3-Pad2)*
G04 #@! TO.C,R5*
G36*
X119945405Y-143946584D02*
X119969673Y-143950184D01*
X119993472Y-143956145D01*
X120016571Y-143964410D01*
X120038750Y-143974900D01*
X120059793Y-143987512D01*
X120079499Y-144002127D01*
X120097677Y-144018603D01*
X120114153Y-144036781D01*
X120128768Y-144056487D01*
X120141380Y-144077530D01*
X120151870Y-144099709D01*
X120160135Y-144122808D01*
X120166096Y-144146607D01*
X120169696Y-144170875D01*
X120170900Y-144195379D01*
X120170900Y-145095381D01*
X120169696Y-145119885D01*
X120166096Y-145144153D01*
X120160135Y-145167952D01*
X120151870Y-145191051D01*
X120141380Y-145213230D01*
X120128768Y-145234273D01*
X120114153Y-145253979D01*
X120097677Y-145272157D01*
X120079499Y-145288633D01*
X120059793Y-145303248D01*
X120038750Y-145315860D01*
X120016571Y-145326350D01*
X119993472Y-145334615D01*
X119969673Y-145340576D01*
X119945405Y-145344176D01*
X119920901Y-145345380D01*
X119270899Y-145345380D01*
X119246395Y-145344176D01*
X119222127Y-145340576D01*
X119198328Y-145334615D01*
X119175229Y-145326350D01*
X119153050Y-145315860D01*
X119132007Y-145303248D01*
X119112301Y-145288633D01*
X119094123Y-145272157D01*
X119077647Y-145253979D01*
X119063032Y-145234273D01*
X119050420Y-145213230D01*
X119039930Y-145191051D01*
X119031665Y-145167952D01*
X119025704Y-145144153D01*
X119022104Y-145119885D01*
X119020900Y-145095381D01*
X119020900Y-144195379D01*
X119022104Y-144170875D01*
X119025704Y-144146607D01*
X119031665Y-144122808D01*
X119039930Y-144099709D01*
X119050420Y-144077530D01*
X119063032Y-144056487D01*
X119077647Y-144036781D01*
X119094123Y-144018603D01*
X119112301Y-144002127D01*
X119132007Y-143987512D01*
X119153050Y-143974900D01*
X119175229Y-143964410D01*
X119198328Y-143956145D01*
X119222127Y-143950184D01*
X119246395Y-143946584D01*
X119270899Y-143945380D01*
X119920901Y-143945380D01*
X119945405Y-143946584D01*
X119945405Y-143946584D01*
G37*
D13*
G04 #@! TD*
G04 #@! TO.P,R5,2*
G04 #@! TO.N,Net-(R3-Pad2)*
X119595900Y-144645380D03*
D12*
G04 #@! TO.N,Net-(R5-Pad1)*
G04 #@! TO.C,R5*
G36*
X117895405Y-143946584D02*
X117919673Y-143950184D01*
X117943472Y-143956145D01*
X117966571Y-143964410D01*
X117988750Y-143974900D01*
X118009793Y-143987512D01*
X118029499Y-144002127D01*
X118047677Y-144018603D01*
X118064153Y-144036781D01*
X118078768Y-144056487D01*
X118091380Y-144077530D01*
X118101870Y-144099709D01*
X118110135Y-144122808D01*
X118116096Y-144146607D01*
X118119696Y-144170875D01*
X118120900Y-144195379D01*
X118120900Y-145095381D01*
X118119696Y-145119885D01*
X118116096Y-145144153D01*
X118110135Y-145167952D01*
X118101870Y-145191051D01*
X118091380Y-145213230D01*
X118078768Y-145234273D01*
X118064153Y-145253979D01*
X118047677Y-145272157D01*
X118029499Y-145288633D01*
X118009793Y-145303248D01*
X117988750Y-145315860D01*
X117966571Y-145326350D01*
X117943472Y-145334615D01*
X117919673Y-145340576D01*
X117895405Y-145344176D01*
X117870901Y-145345380D01*
X117220899Y-145345380D01*
X117196395Y-145344176D01*
X117172127Y-145340576D01*
X117148328Y-145334615D01*
X117125229Y-145326350D01*
X117103050Y-145315860D01*
X117082007Y-145303248D01*
X117062301Y-145288633D01*
X117044123Y-145272157D01*
X117027647Y-145253979D01*
X117013032Y-145234273D01*
X117000420Y-145213230D01*
X116989930Y-145191051D01*
X116981665Y-145167952D01*
X116975704Y-145144153D01*
X116972104Y-145119885D01*
X116970900Y-145095381D01*
X116970900Y-144195379D01*
X116972104Y-144170875D01*
X116975704Y-144146607D01*
X116981665Y-144122808D01*
X116989930Y-144099709D01*
X117000420Y-144077530D01*
X117013032Y-144056487D01*
X117027647Y-144036781D01*
X117044123Y-144018603D01*
X117062301Y-144002127D01*
X117082007Y-143987512D01*
X117103050Y-143974900D01*
X117125229Y-143964410D01*
X117148328Y-143956145D01*
X117172127Y-143950184D01*
X117196395Y-143946584D01*
X117220899Y-143945380D01*
X117870901Y-143945380D01*
X117895405Y-143946584D01*
X117895405Y-143946584D01*
G37*
D13*
G04 #@! TD*
G04 #@! TO.P,R5,1*
G04 #@! TO.N,Net-(R5-Pad1)*
X117545900Y-144645380D03*
D12*
G04 #@! TO.N,Net-(C7-Pad2)*
G04 #@! TO.C,R6*
G36*
X119963185Y-137675324D02*
X119987453Y-137678924D01*
X120011252Y-137684885D01*
X120034351Y-137693150D01*
X120056530Y-137703640D01*
X120077573Y-137716252D01*
X120097279Y-137730867D01*
X120115457Y-137747343D01*
X120131933Y-137765521D01*
X120146548Y-137785227D01*
X120159160Y-137806270D01*
X120169650Y-137828449D01*
X120177915Y-137851548D01*
X120183876Y-137875347D01*
X120187476Y-137899615D01*
X120188680Y-137924119D01*
X120188680Y-138824121D01*
X120187476Y-138848625D01*
X120183876Y-138872893D01*
X120177915Y-138896692D01*
X120169650Y-138919791D01*
X120159160Y-138941970D01*
X120146548Y-138963013D01*
X120131933Y-138982719D01*
X120115457Y-139000897D01*
X120097279Y-139017373D01*
X120077573Y-139031988D01*
X120056530Y-139044600D01*
X120034351Y-139055090D01*
X120011252Y-139063355D01*
X119987453Y-139069316D01*
X119963185Y-139072916D01*
X119938681Y-139074120D01*
X119288679Y-139074120D01*
X119264175Y-139072916D01*
X119239907Y-139069316D01*
X119216108Y-139063355D01*
X119193009Y-139055090D01*
X119170830Y-139044600D01*
X119149787Y-139031988D01*
X119130081Y-139017373D01*
X119111903Y-139000897D01*
X119095427Y-138982719D01*
X119080812Y-138963013D01*
X119068200Y-138941970D01*
X119057710Y-138919791D01*
X119049445Y-138896692D01*
X119043484Y-138872893D01*
X119039884Y-138848625D01*
X119038680Y-138824121D01*
X119038680Y-137924119D01*
X119039884Y-137899615D01*
X119043484Y-137875347D01*
X119049445Y-137851548D01*
X119057710Y-137828449D01*
X119068200Y-137806270D01*
X119080812Y-137785227D01*
X119095427Y-137765521D01*
X119111903Y-137747343D01*
X119130081Y-137730867D01*
X119149787Y-137716252D01*
X119170830Y-137703640D01*
X119193009Y-137693150D01*
X119216108Y-137684885D01*
X119239907Y-137678924D01*
X119264175Y-137675324D01*
X119288679Y-137674120D01*
X119938681Y-137674120D01*
X119963185Y-137675324D01*
X119963185Y-137675324D01*
G37*
D13*
G04 #@! TD*
G04 #@! TO.P,R6,2*
G04 #@! TO.N,Net-(C7-Pad2)*
X119613680Y-138374120D03*
D12*
G04 #@! TO.N,Net-(R6-Pad1)*
G04 #@! TO.C,R6*
G36*
X117913185Y-137675324D02*
X117937453Y-137678924D01*
X117961252Y-137684885D01*
X117984351Y-137693150D01*
X118006530Y-137703640D01*
X118027573Y-137716252D01*
X118047279Y-137730867D01*
X118065457Y-137747343D01*
X118081933Y-137765521D01*
X118096548Y-137785227D01*
X118109160Y-137806270D01*
X118119650Y-137828449D01*
X118127915Y-137851548D01*
X118133876Y-137875347D01*
X118137476Y-137899615D01*
X118138680Y-137924119D01*
X118138680Y-138824121D01*
X118137476Y-138848625D01*
X118133876Y-138872893D01*
X118127915Y-138896692D01*
X118119650Y-138919791D01*
X118109160Y-138941970D01*
X118096548Y-138963013D01*
X118081933Y-138982719D01*
X118065457Y-139000897D01*
X118047279Y-139017373D01*
X118027573Y-139031988D01*
X118006530Y-139044600D01*
X117984351Y-139055090D01*
X117961252Y-139063355D01*
X117937453Y-139069316D01*
X117913185Y-139072916D01*
X117888681Y-139074120D01*
X117238679Y-139074120D01*
X117214175Y-139072916D01*
X117189907Y-139069316D01*
X117166108Y-139063355D01*
X117143009Y-139055090D01*
X117120830Y-139044600D01*
X117099787Y-139031988D01*
X117080081Y-139017373D01*
X117061903Y-139000897D01*
X117045427Y-138982719D01*
X117030812Y-138963013D01*
X117018200Y-138941970D01*
X117007710Y-138919791D01*
X116999445Y-138896692D01*
X116993484Y-138872893D01*
X116989884Y-138848625D01*
X116988680Y-138824121D01*
X116988680Y-137924119D01*
X116989884Y-137899615D01*
X116993484Y-137875347D01*
X116999445Y-137851548D01*
X117007710Y-137828449D01*
X117018200Y-137806270D01*
X117030812Y-137785227D01*
X117045427Y-137765521D01*
X117061903Y-137747343D01*
X117080081Y-137730867D01*
X117099787Y-137716252D01*
X117120830Y-137703640D01*
X117143009Y-137693150D01*
X117166108Y-137684885D01*
X117189907Y-137678924D01*
X117214175Y-137675324D01*
X117238679Y-137674120D01*
X117888681Y-137674120D01*
X117913185Y-137675324D01*
X117913185Y-137675324D01*
G37*
D13*
G04 #@! TD*
G04 #@! TO.P,R6,1*
G04 #@! TO.N,Net-(R6-Pad1)*
X117563680Y-138374120D03*
D12*
G04 #@! TO.N,Net-(C7-Pad2)*
G04 #@! TO.C,R7*
G36*
X122661205Y-140175004D02*
X122685473Y-140178604D01*
X122709272Y-140184565D01*
X122732371Y-140192830D01*
X122754550Y-140203320D01*
X122775593Y-140215932D01*
X122795299Y-140230547D01*
X122813477Y-140247023D01*
X122829953Y-140265201D01*
X122844568Y-140284907D01*
X122857180Y-140305950D01*
X122867670Y-140328129D01*
X122875935Y-140351228D01*
X122881896Y-140375027D01*
X122885496Y-140399295D01*
X122886700Y-140423799D01*
X122886700Y-141073801D01*
X122885496Y-141098305D01*
X122881896Y-141122573D01*
X122875935Y-141146372D01*
X122867670Y-141169471D01*
X122857180Y-141191650D01*
X122844568Y-141212693D01*
X122829953Y-141232399D01*
X122813477Y-141250577D01*
X122795299Y-141267053D01*
X122775593Y-141281668D01*
X122754550Y-141294280D01*
X122732371Y-141304770D01*
X122709272Y-141313035D01*
X122685473Y-141318996D01*
X122661205Y-141322596D01*
X122636701Y-141323800D01*
X121736699Y-141323800D01*
X121712195Y-141322596D01*
X121687927Y-141318996D01*
X121664128Y-141313035D01*
X121641029Y-141304770D01*
X121618850Y-141294280D01*
X121597807Y-141281668D01*
X121578101Y-141267053D01*
X121559923Y-141250577D01*
X121543447Y-141232399D01*
X121528832Y-141212693D01*
X121516220Y-141191650D01*
X121505730Y-141169471D01*
X121497465Y-141146372D01*
X121491504Y-141122573D01*
X121487904Y-141098305D01*
X121486700Y-141073801D01*
X121486700Y-140423799D01*
X121487904Y-140399295D01*
X121491504Y-140375027D01*
X121497465Y-140351228D01*
X121505730Y-140328129D01*
X121516220Y-140305950D01*
X121528832Y-140284907D01*
X121543447Y-140265201D01*
X121559923Y-140247023D01*
X121578101Y-140230547D01*
X121597807Y-140215932D01*
X121618850Y-140203320D01*
X121641029Y-140192830D01*
X121664128Y-140184565D01*
X121687927Y-140178604D01*
X121712195Y-140175004D01*
X121736699Y-140173800D01*
X122636701Y-140173800D01*
X122661205Y-140175004D01*
X122661205Y-140175004D01*
G37*
D13*
G04 #@! TD*
G04 #@! TO.P,R7,2*
G04 #@! TO.N,Net-(C7-Pad2)*
X122186700Y-140748800D03*
D12*
G04 #@! TO.N,Net-(R3-Pad2)*
G04 #@! TO.C,R7*
G36*
X122661205Y-142225004D02*
X122685473Y-142228604D01*
X122709272Y-142234565D01*
X122732371Y-142242830D01*
X122754550Y-142253320D01*
X122775593Y-142265932D01*
X122795299Y-142280547D01*
X122813477Y-142297023D01*
X122829953Y-142315201D01*
X122844568Y-142334907D01*
X122857180Y-142355950D01*
X122867670Y-142378129D01*
X122875935Y-142401228D01*
X122881896Y-142425027D01*
X122885496Y-142449295D01*
X122886700Y-142473799D01*
X122886700Y-143123801D01*
X122885496Y-143148305D01*
X122881896Y-143172573D01*
X122875935Y-143196372D01*
X122867670Y-143219471D01*
X122857180Y-143241650D01*
X122844568Y-143262693D01*
X122829953Y-143282399D01*
X122813477Y-143300577D01*
X122795299Y-143317053D01*
X122775593Y-143331668D01*
X122754550Y-143344280D01*
X122732371Y-143354770D01*
X122709272Y-143363035D01*
X122685473Y-143368996D01*
X122661205Y-143372596D01*
X122636701Y-143373800D01*
X121736699Y-143373800D01*
X121712195Y-143372596D01*
X121687927Y-143368996D01*
X121664128Y-143363035D01*
X121641029Y-143354770D01*
X121618850Y-143344280D01*
X121597807Y-143331668D01*
X121578101Y-143317053D01*
X121559923Y-143300577D01*
X121543447Y-143282399D01*
X121528832Y-143262693D01*
X121516220Y-143241650D01*
X121505730Y-143219471D01*
X121497465Y-143196372D01*
X121491504Y-143172573D01*
X121487904Y-143148305D01*
X121486700Y-143123801D01*
X121486700Y-142473799D01*
X121487904Y-142449295D01*
X121491504Y-142425027D01*
X121497465Y-142401228D01*
X121505730Y-142378129D01*
X121516220Y-142355950D01*
X121528832Y-142334907D01*
X121543447Y-142315201D01*
X121559923Y-142297023D01*
X121578101Y-142280547D01*
X121597807Y-142265932D01*
X121618850Y-142253320D01*
X121641029Y-142242830D01*
X121664128Y-142234565D01*
X121687927Y-142228604D01*
X121712195Y-142225004D01*
X121736699Y-142223800D01*
X122636701Y-142223800D01*
X122661205Y-142225004D01*
X122661205Y-142225004D01*
G37*
D13*
G04 #@! TD*
G04 #@! TO.P,R7,1*
G04 #@! TO.N,Net-(R3-Pad2)*
X122186700Y-142798800D03*
D12*
G04 #@! TO.N,Net-(C6-Pad1)*
G04 #@! TO.C,R8*
G36*
X126748065Y-121662324D02*
X126772333Y-121665924D01*
X126796132Y-121671885D01*
X126819231Y-121680150D01*
X126841410Y-121690640D01*
X126862453Y-121703252D01*
X126882159Y-121717867D01*
X126900337Y-121734343D01*
X126916813Y-121752521D01*
X126931428Y-121772227D01*
X126944040Y-121793270D01*
X126954530Y-121815449D01*
X126962795Y-121838548D01*
X126968756Y-121862347D01*
X126972356Y-121886615D01*
X126973560Y-121911119D01*
X126973560Y-122561121D01*
X126972356Y-122585625D01*
X126968756Y-122609893D01*
X126962795Y-122633692D01*
X126954530Y-122656791D01*
X126944040Y-122678970D01*
X126931428Y-122700013D01*
X126916813Y-122719719D01*
X126900337Y-122737897D01*
X126882159Y-122754373D01*
X126862453Y-122768988D01*
X126841410Y-122781600D01*
X126819231Y-122792090D01*
X126796132Y-122800355D01*
X126772333Y-122806316D01*
X126748065Y-122809916D01*
X126723561Y-122811120D01*
X125823559Y-122811120D01*
X125799055Y-122809916D01*
X125774787Y-122806316D01*
X125750988Y-122800355D01*
X125727889Y-122792090D01*
X125705710Y-122781600D01*
X125684667Y-122768988D01*
X125664961Y-122754373D01*
X125646783Y-122737897D01*
X125630307Y-122719719D01*
X125615692Y-122700013D01*
X125603080Y-122678970D01*
X125592590Y-122656791D01*
X125584325Y-122633692D01*
X125578364Y-122609893D01*
X125574764Y-122585625D01*
X125573560Y-122561121D01*
X125573560Y-121911119D01*
X125574764Y-121886615D01*
X125578364Y-121862347D01*
X125584325Y-121838548D01*
X125592590Y-121815449D01*
X125603080Y-121793270D01*
X125615692Y-121772227D01*
X125630307Y-121752521D01*
X125646783Y-121734343D01*
X125664961Y-121717867D01*
X125684667Y-121703252D01*
X125705710Y-121690640D01*
X125727889Y-121680150D01*
X125750988Y-121671885D01*
X125774787Y-121665924D01*
X125799055Y-121662324D01*
X125823559Y-121661120D01*
X126723561Y-121661120D01*
X126748065Y-121662324D01*
X126748065Y-121662324D01*
G37*
D13*
G04 #@! TD*
G04 #@! TO.P,R8,2*
G04 #@! TO.N,Net-(C6-Pad1)*
X126273560Y-122236120D03*
D12*
G04 #@! TO.N,3V3DC*
G04 #@! TO.C,R8*
G36*
X126748065Y-123712324D02*
X126772333Y-123715924D01*
X126796132Y-123721885D01*
X126819231Y-123730150D01*
X126841410Y-123740640D01*
X126862453Y-123753252D01*
X126882159Y-123767867D01*
X126900337Y-123784343D01*
X126916813Y-123802521D01*
X126931428Y-123822227D01*
X126944040Y-123843270D01*
X126954530Y-123865449D01*
X126962795Y-123888548D01*
X126968756Y-123912347D01*
X126972356Y-123936615D01*
X126973560Y-123961119D01*
X126973560Y-124611121D01*
X126972356Y-124635625D01*
X126968756Y-124659893D01*
X126962795Y-124683692D01*
X126954530Y-124706791D01*
X126944040Y-124728970D01*
X126931428Y-124750013D01*
X126916813Y-124769719D01*
X126900337Y-124787897D01*
X126882159Y-124804373D01*
X126862453Y-124818988D01*
X126841410Y-124831600D01*
X126819231Y-124842090D01*
X126796132Y-124850355D01*
X126772333Y-124856316D01*
X126748065Y-124859916D01*
X126723561Y-124861120D01*
X125823559Y-124861120D01*
X125799055Y-124859916D01*
X125774787Y-124856316D01*
X125750988Y-124850355D01*
X125727889Y-124842090D01*
X125705710Y-124831600D01*
X125684667Y-124818988D01*
X125664961Y-124804373D01*
X125646783Y-124787897D01*
X125630307Y-124769719D01*
X125615692Y-124750013D01*
X125603080Y-124728970D01*
X125592590Y-124706791D01*
X125584325Y-124683692D01*
X125578364Y-124659893D01*
X125574764Y-124635625D01*
X125573560Y-124611121D01*
X125573560Y-123961119D01*
X125574764Y-123936615D01*
X125578364Y-123912347D01*
X125584325Y-123888548D01*
X125592590Y-123865449D01*
X125603080Y-123843270D01*
X125615692Y-123822227D01*
X125630307Y-123802521D01*
X125646783Y-123784343D01*
X125664961Y-123767867D01*
X125684667Y-123753252D01*
X125705710Y-123740640D01*
X125727889Y-123730150D01*
X125750988Y-123721885D01*
X125774787Y-123715924D01*
X125799055Y-123712324D01*
X125823559Y-123711120D01*
X126723561Y-123711120D01*
X126748065Y-123712324D01*
X126748065Y-123712324D01*
G37*
D13*
G04 #@! TD*
G04 #@! TO.P,R8,1*
G04 #@! TO.N,3V3DC*
X126273560Y-124286120D03*
D12*
G04 #@! TO.N,AGND*
G04 #@! TO.C,R9*
G36*
X129074705Y-123749044D02*
X129098973Y-123752644D01*
X129122772Y-123758605D01*
X129145871Y-123766870D01*
X129168050Y-123777360D01*
X129189093Y-123789972D01*
X129208799Y-123804587D01*
X129226977Y-123821063D01*
X129243453Y-123839241D01*
X129258068Y-123858947D01*
X129270680Y-123879990D01*
X129281170Y-123902169D01*
X129289435Y-123925268D01*
X129295396Y-123949067D01*
X129298996Y-123973335D01*
X129300200Y-123997839D01*
X129300200Y-124647841D01*
X129298996Y-124672345D01*
X129295396Y-124696613D01*
X129289435Y-124720412D01*
X129281170Y-124743511D01*
X129270680Y-124765690D01*
X129258068Y-124786733D01*
X129243453Y-124806439D01*
X129226977Y-124824617D01*
X129208799Y-124841093D01*
X129189093Y-124855708D01*
X129168050Y-124868320D01*
X129145871Y-124878810D01*
X129122772Y-124887075D01*
X129098973Y-124893036D01*
X129074705Y-124896636D01*
X129050201Y-124897840D01*
X128150199Y-124897840D01*
X128125695Y-124896636D01*
X128101427Y-124893036D01*
X128077628Y-124887075D01*
X128054529Y-124878810D01*
X128032350Y-124868320D01*
X128011307Y-124855708D01*
X127991601Y-124841093D01*
X127973423Y-124824617D01*
X127956947Y-124806439D01*
X127942332Y-124786733D01*
X127929720Y-124765690D01*
X127919230Y-124743511D01*
X127910965Y-124720412D01*
X127905004Y-124696613D01*
X127901404Y-124672345D01*
X127900200Y-124647841D01*
X127900200Y-123997839D01*
X127901404Y-123973335D01*
X127905004Y-123949067D01*
X127910965Y-123925268D01*
X127919230Y-123902169D01*
X127929720Y-123879990D01*
X127942332Y-123858947D01*
X127956947Y-123839241D01*
X127973423Y-123821063D01*
X127991601Y-123804587D01*
X128011307Y-123789972D01*
X128032350Y-123777360D01*
X128054529Y-123766870D01*
X128077628Y-123758605D01*
X128101427Y-123752644D01*
X128125695Y-123749044D01*
X128150199Y-123747840D01*
X129050201Y-123747840D01*
X129074705Y-123749044D01*
X129074705Y-123749044D01*
G37*
D13*
G04 #@! TD*
G04 #@! TO.P,R9,2*
G04 #@! TO.N,AGND*
X128600200Y-124322840D03*
D12*
G04 #@! TO.N,Net-(C6-Pad1)*
G04 #@! TO.C,R9*
G36*
X129074705Y-121699044D02*
X129098973Y-121702644D01*
X129122772Y-121708605D01*
X129145871Y-121716870D01*
X129168050Y-121727360D01*
X129189093Y-121739972D01*
X129208799Y-121754587D01*
X129226977Y-121771063D01*
X129243453Y-121789241D01*
X129258068Y-121808947D01*
X129270680Y-121829990D01*
X129281170Y-121852169D01*
X129289435Y-121875268D01*
X129295396Y-121899067D01*
X129298996Y-121923335D01*
X129300200Y-121947839D01*
X129300200Y-122597841D01*
X129298996Y-122622345D01*
X129295396Y-122646613D01*
X129289435Y-122670412D01*
X129281170Y-122693511D01*
X129270680Y-122715690D01*
X129258068Y-122736733D01*
X129243453Y-122756439D01*
X129226977Y-122774617D01*
X129208799Y-122791093D01*
X129189093Y-122805708D01*
X129168050Y-122818320D01*
X129145871Y-122828810D01*
X129122772Y-122837075D01*
X129098973Y-122843036D01*
X129074705Y-122846636D01*
X129050201Y-122847840D01*
X128150199Y-122847840D01*
X128125695Y-122846636D01*
X128101427Y-122843036D01*
X128077628Y-122837075D01*
X128054529Y-122828810D01*
X128032350Y-122818320D01*
X128011307Y-122805708D01*
X127991601Y-122791093D01*
X127973423Y-122774617D01*
X127956947Y-122756439D01*
X127942332Y-122736733D01*
X127929720Y-122715690D01*
X127919230Y-122693511D01*
X127910965Y-122670412D01*
X127905004Y-122646613D01*
X127901404Y-122622345D01*
X127900200Y-122597841D01*
X127900200Y-121947839D01*
X127901404Y-121923335D01*
X127905004Y-121899067D01*
X127910965Y-121875268D01*
X127919230Y-121852169D01*
X127929720Y-121829990D01*
X127942332Y-121808947D01*
X127956947Y-121789241D01*
X127973423Y-121771063D01*
X127991601Y-121754587D01*
X128011307Y-121739972D01*
X128032350Y-121727360D01*
X128054529Y-121716870D01*
X128077628Y-121708605D01*
X128101427Y-121702644D01*
X128125695Y-121699044D01*
X128150199Y-121697840D01*
X129050201Y-121697840D01*
X129074705Y-121699044D01*
X129074705Y-121699044D01*
G37*
D13*
G04 #@! TD*
G04 #@! TO.P,R9,1*
G04 #@! TO.N,Net-(C6-Pad1)*
X128600200Y-122272840D03*
D12*
G04 #@! TO.N,AGND*
G04 #@! TO.C,R10*
G36*
X138040905Y-144933804D02*
X138065173Y-144937404D01*
X138088972Y-144943365D01*
X138112071Y-144951630D01*
X138134250Y-144962120D01*
X138155293Y-144974732D01*
X138174999Y-144989347D01*
X138193177Y-145005823D01*
X138209653Y-145024001D01*
X138224268Y-145043707D01*
X138236880Y-145064750D01*
X138247370Y-145086929D01*
X138255635Y-145110028D01*
X138261596Y-145133827D01*
X138265196Y-145158095D01*
X138266400Y-145182599D01*
X138266400Y-145832601D01*
X138265196Y-145857105D01*
X138261596Y-145881373D01*
X138255635Y-145905172D01*
X138247370Y-145928271D01*
X138236880Y-145950450D01*
X138224268Y-145971493D01*
X138209653Y-145991199D01*
X138193177Y-146009377D01*
X138174999Y-146025853D01*
X138155293Y-146040468D01*
X138134250Y-146053080D01*
X138112071Y-146063570D01*
X138088972Y-146071835D01*
X138065173Y-146077796D01*
X138040905Y-146081396D01*
X138016401Y-146082600D01*
X137116399Y-146082600D01*
X137091895Y-146081396D01*
X137067627Y-146077796D01*
X137043828Y-146071835D01*
X137020729Y-146063570D01*
X136998550Y-146053080D01*
X136977507Y-146040468D01*
X136957801Y-146025853D01*
X136939623Y-146009377D01*
X136923147Y-145991199D01*
X136908532Y-145971493D01*
X136895920Y-145950450D01*
X136885430Y-145928271D01*
X136877165Y-145905172D01*
X136871204Y-145881373D01*
X136867604Y-145857105D01*
X136866400Y-145832601D01*
X136866400Y-145182599D01*
X136867604Y-145158095D01*
X136871204Y-145133827D01*
X136877165Y-145110028D01*
X136885430Y-145086929D01*
X136895920Y-145064750D01*
X136908532Y-145043707D01*
X136923147Y-145024001D01*
X136939623Y-145005823D01*
X136957801Y-144989347D01*
X136977507Y-144974732D01*
X136998550Y-144962120D01*
X137020729Y-144951630D01*
X137043828Y-144943365D01*
X137067627Y-144937404D01*
X137091895Y-144933804D01*
X137116399Y-144932600D01*
X138016401Y-144932600D01*
X138040905Y-144933804D01*
X138040905Y-144933804D01*
G37*
D13*
G04 #@! TD*
G04 #@! TO.P,R10,2*
G04 #@! TO.N,AGND*
X137566400Y-145507600D03*
D12*
G04 #@! TO.N,ON_MONO2*
G04 #@! TO.C,R10*
G36*
X138040905Y-146983804D02*
X138065173Y-146987404D01*
X138088972Y-146993365D01*
X138112071Y-147001630D01*
X138134250Y-147012120D01*
X138155293Y-147024732D01*
X138174999Y-147039347D01*
X138193177Y-147055823D01*
X138209653Y-147074001D01*
X138224268Y-147093707D01*
X138236880Y-147114750D01*
X138247370Y-147136929D01*
X138255635Y-147160028D01*
X138261596Y-147183827D01*
X138265196Y-147208095D01*
X138266400Y-147232599D01*
X138266400Y-147882601D01*
X138265196Y-147907105D01*
X138261596Y-147931373D01*
X138255635Y-147955172D01*
X138247370Y-147978271D01*
X138236880Y-148000450D01*
X138224268Y-148021493D01*
X138209653Y-148041199D01*
X138193177Y-148059377D01*
X138174999Y-148075853D01*
X138155293Y-148090468D01*
X138134250Y-148103080D01*
X138112071Y-148113570D01*
X138088972Y-148121835D01*
X138065173Y-148127796D01*
X138040905Y-148131396D01*
X138016401Y-148132600D01*
X137116399Y-148132600D01*
X137091895Y-148131396D01*
X137067627Y-148127796D01*
X137043828Y-148121835D01*
X137020729Y-148113570D01*
X136998550Y-148103080D01*
X136977507Y-148090468D01*
X136957801Y-148075853D01*
X136939623Y-148059377D01*
X136923147Y-148041199D01*
X136908532Y-148021493D01*
X136895920Y-148000450D01*
X136885430Y-147978271D01*
X136877165Y-147955172D01*
X136871204Y-147931373D01*
X136867604Y-147907105D01*
X136866400Y-147882601D01*
X136866400Y-147232599D01*
X136867604Y-147208095D01*
X136871204Y-147183827D01*
X136877165Y-147160028D01*
X136885430Y-147136929D01*
X136895920Y-147114750D01*
X136908532Y-147093707D01*
X136923147Y-147074001D01*
X136939623Y-147055823D01*
X136957801Y-147039347D01*
X136977507Y-147024732D01*
X136998550Y-147012120D01*
X137020729Y-147001630D01*
X137043828Y-146993365D01*
X137067627Y-146987404D01*
X137091895Y-146983804D01*
X137116399Y-146982600D01*
X138016401Y-146982600D01*
X138040905Y-146983804D01*
X138040905Y-146983804D01*
G37*
D13*
G04 #@! TD*
G04 #@! TO.P,R10,1*
G04 #@! TO.N,ON_MONO2*
X137566400Y-147557600D03*
D12*
G04 #@! TO.N,ON_MONO1*
G04 #@! TO.C,R11*
G36*
X135185405Y-125958304D02*
X135209673Y-125961904D01*
X135233472Y-125967865D01*
X135256571Y-125976130D01*
X135278750Y-125986620D01*
X135299793Y-125999232D01*
X135319499Y-126013847D01*
X135337677Y-126030323D01*
X135354153Y-126048501D01*
X135368768Y-126068207D01*
X135381380Y-126089250D01*
X135391870Y-126111429D01*
X135400135Y-126134528D01*
X135406096Y-126158327D01*
X135409696Y-126182595D01*
X135410900Y-126207099D01*
X135410900Y-127107101D01*
X135409696Y-127131605D01*
X135406096Y-127155873D01*
X135400135Y-127179672D01*
X135391870Y-127202771D01*
X135381380Y-127224950D01*
X135368768Y-127245993D01*
X135354153Y-127265699D01*
X135337677Y-127283877D01*
X135319499Y-127300353D01*
X135299793Y-127314968D01*
X135278750Y-127327580D01*
X135256571Y-127338070D01*
X135233472Y-127346335D01*
X135209673Y-127352296D01*
X135185405Y-127355896D01*
X135160901Y-127357100D01*
X134510899Y-127357100D01*
X134486395Y-127355896D01*
X134462127Y-127352296D01*
X134438328Y-127346335D01*
X134415229Y-127338070D01*
X134393050Y-127327580D01*
X134372007Y-127314968D01*
X134352301Y-127300353D01*
X134334123Y-127283877D01*
X134317647Y-127265699D01*
X134303032Y-127245993D01*
X134290420Y-127224950D01*
X134279930Y-127202771D01*
X134271665Y-127179672D01*
X134265704Y-127155873D01*
X134262104Y-127131605D01*
X134260900Y-127107101D01*
X134260900Y-126207099D01*
X134262104Y-126182595D01*
X134265704Y-126158327D01*
X134271665Y-126134528D01*
X134279930Y-126111429D01*
X134290420Y-126089250D01*
X134303032Y-126068207D01*
X134317647Y-126048501D01*
X134334123Y-126030323D01*
X134352301Y-126013847D01*
X134372007Y-125999232D01*
X134393050Y-125986620D01*
X134415229Y-125976130D01*
X134438328Y-125967865D01*
X134462127Y-125961904D01*
X134486395Y-125958304D01*
X134510899Y-125957100D01*
X135160901Y-125957100D01*
X135185405Y-125958304D01*
X135185405Y-125958304D01*
G37*
D13*
G04 #@! TD*
G04 #@! TO.P,R11,2*
G04 #@! TO.N,ON_MONO1*
X134835900Y-126657100D03*
D12*
G04 #@! TO.N,AGND*
G04 #@! TO.C,R11*
G36*
X137235405Y-125958304D02*
X137259673Y-125961904D01*
X137283472Y-125967865D01*
X137306571Y-125976130D01*
X137328750Y-125986620D01*
X137349793Y-125999232D01*
X137369499Y-126013847D01*
X137387677Y-126030323D01*
X137404153Y-126048501D01*
X137418768Y-126068207D01*
X137431380Y-126089250D01*
X137441870Y-126111429D01*
X137450135Y-126134528D01*
X137456096Y-126158327D01*
X137459696Y-126182595D01*
X137460900Y-126207099D01*
X137460900Y-127107101D01*
X137459696Y-127131605D01*
X137456096Y-127155873D01*
X137450135Y-127179672D01*
X137441870Y-127202771D01*
X137431380Y-127224950D01*
X137418768Y-127245993D01*
X137404153Y-127265699D01*
X137387677Y-127283877D01*
X137369499Y-127300353D01*
X137349793Y-127314968D01*
X137328750Y-127327580D01*
X137306571Y-127338070D01*
X137283472Y-127346335D01*
X137259673Y-127352296D01*
X137235405Y-127355896D01*
X137210901Y-127357100D01*
X136560899Y-127357100D01*
X136536395Y-127355896D01*
X136512127Y-127352296D01*
X136488328Y-127346335D01*
X136465229Y-127338070D01*
X136443050Y-127327580D01*
X136422007Y-127314968D01*
X136402301Y-127300353D01*
X136384123Y-127283877D01*
X136367647Y-127265699D01*
X136353032Y-127245993D01*
X136340420Y-127224950D01*
X136329930Y-127202771D01*
X136321665Y-127179672D01*
X136315704Y-127155873D01*
X136312104Y-127131605D01*
X136310900Y-127107101D01*
X136310900Y-126207099D01*
X136312104Y-126182595D01*
X136315704Y-126158327D01*
X136321665Y-126134528D01*
X136329930Y-126111429D01*
X136340420Y-126089250D01*
X136353032Y-126068207D01*
X136367647Y-126048501D01*
X136384123Y-126030323D01*
X136402301Y-126013847D01*
X136422007Y-125999232D01*
X136443050Y-125986620D01*
X136465229Y-125976130D01*
X136488328Y-125967865D01*
X136512127Y-125961904D01*
X136536395Y-125958304D01*
X136560899Y-125957100D01*
X137210901Y-125957100D01*
X137235405Y-125958304D01*
X137235405Y-125958304D01*
G37*
D13*
G04 #@! TD*
G04 #@! TO.P,R11,1*
G04 #@! TO.N,AGND*
X136885900Y-126657100D03*
D12*
G04 #@! TO.N,AGND*
G04 #@! TO.C,C6*
G36*
X131436905Y-123742804D02*
X131461173Y-123746404D01*
X131484972Y-123752365D01*
X131508071Y-123760630D01*
X131530250Y-123771120D01*
X131551293Y-123783732D01*
X131570999Y-123798347D01*
X131589177Y-123814823D01*
X131605653Y-123833001D01*
X131620268Y-123852707D01*
X131632880Y-123873750D01*
X131643370Y-123895929D01*
X131651635Y-123919028D01*
X131657596Y-123942827D01*
X131661196Y-123967095D01*
X131662400Y-123991599D01*
X131662400Y-124641601D01*
X131661196Y-124666105D01*
X131657596Y-124690373D01*
X131651635Y-124714172D01*
X131643370Y-124737271D01*
X131632880Y-124759450D01*
X131620268Y-124780493D01*
X131605653Y-124800199D01*
X131589177Y-124818377D01*
X131570999Y-124834853D01*
X131551293Y-124849468D01*
X131530250Y-124862080D01*
X131508071Y-124872570D01*
X131484972Y-124880835D01*
X131461173Y-124886796D01*
X131436905Y-124890396D01*
X131412401Y-124891600D01*
X130512399Y-124891600D01*
X130487895Y-124890396D01*
X130463627Y-124886796D01*
X130439828Y-124880835D01*
X130416729Y-124872570D01*
X130394550Y-124862080D01*
X130373507Y-124849468D01*
X130353801Y-124834853D01*
X130335623Y-124818377D01*
X130319147Y-124800199D01*
X130304532Y-124780493D01*
X130291920Y-124759450D01*
X130281430Y-124737271D01*
X130273165Y-124714172D01*
X130267204Y-124690373D01*
X130263604Y-124666105D01*
X130262400Y-124641601D01*
X130262400Y-123991599D01*
X130263604Y-123967095D01*
X130267204Y-123942827D01*
X130273165Y-123919028D01*
X130281430Y-123895929D01*
X130291920Y-123873750D01*
X130304532Y-123852707D01*
X130319147Y-123833001D01*
X130335623Y-123814823D01*
X130353801Y-123798347D01*
X130373507Y-123783732D01*
X130394550Y-123771120D01*
X130416729Y-123760630D01*
X130439828Y-123752365D01*
X130463627Y-123746404D01*
X130487895Y-123742804D01*
X130512399Y-123741600D01*
X131412401Y-123741600D01*
X131436905Y-123742804D01*
X131436905Y-123742804D01*
G37*
D13*
G04 #@! TD*
G04 #@! TO.P,C6,2*
G04 #@! TO.N,AGND*
X130962400Y-124316600D03*
D12*
G04 #@! TO.N,Net-(C6-Pad1)*
G04 #@! TO.C,C6*
G36*
X131436905Y-121692804D02*
X131461173Y-121696404D01*
X131484972Y-121702365D01*
X131508071Y-121710630D01*
X131530250Y-121721120D01*
X131551293Y-121733732D01*
X131570999Y-121748347D01*
X131589177Y-121764823D01*
X131605653Y-121783001D01*
X131620268Y-121802707D01*
X131632880Y-121823750D01*
X131643370Y-121845929D01*
X131651635Y-121869028D01*
X131657596Y-121892827D01*
X131661196Y-121917095D01*
X131662400Y-121941599D01*
X131662400Y-122591601D01*
X131661196Y-122616105D01*
X131657596Y-122640373D01*
X131651635Y-122664172D01*
X131643370Y-122687271D01*
X131632880Y-122709450D01*
X131620268Y-122730493D01*
X131605653Y-122750199D01*
X131589177Y-122768377D01*
X131570999Y-122784853D01*
X131551293Y-122799468D01*
X131530250Y-122812080D01*
X131508071Y-122822570D01*
X131484972Y-122830835D01*
X131461173Y-122836796D01*
X131436905Y-122840396D01*
X131412401Y-122841600D01*
X130512399Y-122841600D01*
X130487895Y-122840396D01*
X130463627Y-122836796D01*
X130439828Y-122830835D01*
X130416729Y-122822570D01*
X130394550Y-122812080D01*
X130373507Y-122799468D01*
X130353801Y-122784853D01*
X130335623Y-122768377D01*
X130319147Y-122750199D01*
X130304532Y-122730493D01*
X130291920Y-122709450D01*
X130281430Y-122687271D01*
X130273165Y-122664172D01*
X130267204Y-122640373D01*
X130263604Y-122616105D01*
X130262400Y-122591601D01*
X130262400Y-121941599D01*
X130263604Y-121917095D01*
X130267204Y-121892827D01*
X130273165Y-121869028D01*
X130281430Y-121845929D01*
X130291920Y-121823750D01*
X130304532Y-121802707D01*
X130319147Y-121783001D01*
X130335623Y-121764823D01*
X130353801Y-121748347D01*
X130373507Y-121733732D01*
X130394550Y-121721120D01*
X130416729Y-121710630D01*
X130439828Y-121702365D01*
X130463627Y-121696404D01*
X130487895Y-121692804D01*
X130512399Y-121691600D01*
X131412401Y-121691600D01*
X131436905Y-121692804D01*
X131436905Y-121692804D01*
G37*
D13*
G04 #@! TD*
G04 #@! TO.P,C6,1*
G04 #@! TO.N,Net-(C6-Pad1)*
X130962400Y-122266600D03*
D12*
G04 #@! TO.N,Net-(C7-Pad2)*
G04 #@! TO.C,C7*
G36*
X126484745Y-134086304D02*
X126509013Y-134089904D01*
X126532812Y-134095865D01*
X126555911Y-134104130D01*
X126578090Y-134114620D01*
X126599133Y-134127232D01*
X126618839Y-134141847D01*
X126637017Y-134158323D01*
X126653493Y-134176501D01*
X126668108Y-134196207D01*
X126680720Y-134217250D01*
X126691210Y-134239429D01*
X126699475Y-134262528D01*
X126705436Y-134286327D01*
X126709036Y-134310595D01*
X126710240Y-134335099D01*
X126710240Y-135235101D01*
X126709036Y-135259605D01*
X126705436Y-135283873D01*
X126699475Y-135307672D01*
X126691210Y-135330771D01*
X126680720Y-135352950D01*
X126668108Y-135373993D01*
X126653493Y-135393699D01*
X126637017Y-135411877D01*
X126618839Y-135428353D01*
X126599133Y-135442968D01*
X126578090Y-135455580D01*
X126555911Y-135466070D01*
X126532812Y-135474335D01*
X126509013Y-135480296D01*
X126484745Y-135483896D01*
X126460241Y-135485100D01*
X125810239Y-135485100D01*
X125785735Y-135483896D01*
X125761467Y-135480296D01*
X125737668Y-135474335D01*
X125714569Y-135466070D01*
X125692390Y-135455580D01*
X125671347Y-135442968D01*
X125651641Y-135428353D01*
X125633463Y-135411877D01*
X125616987Y-135393699D01*
X125602372Y-135373993D01*
X125589760Y-135352950D01*
X125579270Y-135330771D01*
X125571005Y-135307672D01*
X125565044Y-135283873D01*
X125561444Y-135259605D01*
X125560240Y-135235101D01*
X125560240Y-134335099D01*
X125561444Y-134310595D01*
X125565044Y-134286327D01*
X125571005Y-134262528D01*
X125579270Y-134239429D01*
X125589760Y-134217250D01*
X125602372Y-134196207D01*
X125616987Y-134176501D01*
X125633463Y-134158323D01*
X125651641Y-134141847D01*
X125671347Y-134127232D01*
X125692390Y-134114620D01*
X125714569Y-134104130D01*
X125737668Y-134095865D01*
X125761467Y-134089904D01*
X125785735Y-134086304D01*
X125810239Y-134085100D01*
X126460241Y-134085100D01*
X126484745Y-134086304D01*
X126484745Y-134086304D01*
G37*
D13*
G04 #@! TD*
G04 #@! TO.P,C7,2*
G04 #@! TO.N,Net-(C7-Pad2)*
X126135240Y-134785100D03*
D12*
G04 #@! TO.N,Net-(C7-Pad1)*
G04 #@! TO.C,C7*
G36*
X124434745Y-134086304D02*
X124459013Y-134089904D01*
X124482812Y-134095865D01*
X124505911Y-134104130D01*
X124528090Y-134114620D01*
X124549133Y-134127232D01*
X124568839Y-134141847D01*
X124587017Y-134158323D01*
X124603493Y-134176501D01*
X124618108Y-134196207D01*
X124630720Y-134217250D01*
X124641210Y-134239429D01*
X124649475Y-134262528D01*
X124655436Y-134286327D01*
X124659036Y-134310595D01*
X124660240Y-134335099D01*
X124660240Y-135235101D01*
X124659036Y-135259605D01*
X124655436Y-135283873D01*
X124649475Y-135307672D01*
X124641210Y-135330771D01*
X124630720Y-135352950D01*
X124618108Y-135373993D01*
X124603493Y-135393699D01*
X124587017Y-135411877D01*
X124568839Y-135428353D01*
X124549133Y-135442968D01*
X124528090Y-135455580D01*
X124505911Y-135466070D01*
X124482812Y-135474335D01*
X124459013Y-135480296D01*
X124434745Y-135483896D01*
X124410241Y-135485100D01*
X123760239Y-135485100D01*
X123735735Y-135483896D01*
X123711467Y-135480296D01*
X123687668Y-135474335D01*
X123664569Y-135466070D01*
X123642390Y-135455580D01*
X123621347Y-135442968D01*
X123601641Y-135428353D01*
X123583463Y-135411877D01*
X123566987Y-135393699D01*
X123552372Y-135373993D01*
X123539760Y-135352950D01*
X123529270Y-135330771D01*
X123521005Y-135307672D01*
X123515044Y-135283873D01*
X123511444Y-135259605D01*
X123510240Y-135235101D01*
X123510240Y-134335099D01*
X123511444Y-134310595D01*
X123515044Y-134286327D01*
X123521005Y-134262528D01*
X123529270Y-134239429D01*
X123539760Y-134217250D01*
X123552372Y-134196207D01*
X123566987Y-134176501D01*
X123583463Y-134158323D01*
X123601641Y-134141847D01*
X123621347Y-134127232D01*
X123642390Y-134114620D01*
X123664569Y-134104130D01*
X123687668Y-134095865D01*
X123711467Y-134089904D01*
X123735735Y-134086304D01*
X123760239Y-134085100D01*
X124410241Y-134085100D01*
X124434745Y-134086304D01*
X124434745Y-134086304D01*
G37*
D13*
G04 #@! TD*
G04 #@! TO.P,C7,1*
G04 #@! TO.N,Net-(C7-Pad1)*
X124085240Y-134785100D03*
D12*
G04 #@! TO.N,Net-(C8-Pad2)*
G04 #@! TO.C,C8*
G36*
X117869065Y-114038084D02*
X117893333Y-114041684D01*
X117917132Y-114047645D01*
X117940231Y-114055910D01*
X117962410Y-114066400D01*
X117983453Y-114079012D01*
X118003159Y-114093627D01*
X118021337Y-114110103D01*
X118037813Y-114128281D01*
X118052428Y-114147987D01*
X118065040Y-114169030D01*
X118075530Y-114191209D01*
X118083795Y-114214308D01*
X118089756Y-114238107D01*
X118093356Y-114262375D01*
X118094560Y-114286879D01*
X118094560Y-115186881D01*
X118093356Y-115211385D01*
X118089756Y-115235653D01*
X118083795Y-115259452D01*
X118075530Y-115282551D01*
X118065040Y-115304730D01*
X118052428Y-115325773D01*
X118037813Y-115345479D01*
X118021337Y-115363657D01*
X118003159Y-115380133D01*
X117983453Y-115394748D01*
X117962410Y-115407360D01*
X117940231Y-115417850D01*
X117917132Y-115426115D01*
X117893333Y-115432076D01*
X117869065Y-115435676D01*
X117844561Y-115436880D01*
X117194559Y-115436880D01*
X117170055Y-115435676D01*
X117145787Y-115432076D01*
X117121988Y-115426115D01*
X117098889Y-115417850D01*
X117076710Y-115407360D01*
X117055667Y-115394748D01*
X117035961Y-115380133D01*
X117017783Y-115363657D01*
X117001307Y-115345479D01*
X116986692Y-115325773D01*
X116974080Y-115304730D01*
X116963590Y-115282551D01*
X116955325Y-115259452D01*
X116949364Y-115235653D01*
X116945764Y-115211385D01*
X116944560Y-115186881D01*
X116944560Y-114286879D01*
X116945764Y-114262375D01*
X116949364Y-114238107D01*
X116955325Y-114214308D01*
X116963590Y-114191209D01*
X116974080Y-114169030D01*
X116986692Y-114147987D01*
X117001307Y-114128281D01*
X117017783Y-114110103D01*
X117035961Y-114093627D01*
X117055667Y-114079012D01*
X117076710Y-114066400D01*
X117098889Y-114055910D01*
X117121988Y-114047645D01*
X117145787Y-114041684D01*
X117170055Y-114038084D01*
X117194559Y-114036880D01*
X117844561Y-114036880D01*
X117869065Y-114038084D01*
X117869065Y-114038084D01*
G37*
D13*
G04 #@! TD*
G04 #@! TO.P,C8,2*
G04 #@! TO.N,Net-(C8-Pad2)*
X117519560Y-114736880D03*
D12*
G04 #@! TO.N,MIC_0*
G04 #@! TO.C,C8*
G36*
X115819065Y-114038084D02*
X115843333Y-114041684D01*
X115867132Y-114047645D01*
X115890231Y-114055910D01*
X115912410Y-114066400D01*
X115933453Y-114079012D01*
X115953159Y-114093627D01*
X115971337Y-114110103D01*
X115987813Y-114128281D01*
X116002428Y-114147987D01*
X116015040Y-114169030D01*
X116025530Y-114191209D01*
X116033795Y-114214308D01*
X116039756Y-114238107D01*
X116043356Y-114262375D01*
X116044560Y-114286879D01*
X116044560Y-115186881D01*
X116043356Y-115211385D01*
X116039756Y-115235653D01*
X116033795Y-115259452D01*
X116025530Y-115282551D01*
X116015040Y-115304730D01*
X116002428Y-115325773D01*
X115987813Y-115345479D01*
X115971337Y-115363657D01*
X115953159Y-115380133D01*
X115933453Y-115394748D01*
X115912410Y-115407360D01*
X115890231Y-115417850D01*
X115867132Y-115426115D01*
X115843333Y-115432076D01*
X115819065Y-115435676D01*
X115794561Y-115436880D01*
X115144559Y-115436880D01*
X115120055Y-115435676D01*
X115095787Y-115432076D01*
X115071988Y-115426115D01*
X115048889Y-115417850D01*
X115026710Y-115407360D01*
X115005667Y-115394748D01*
X114985961Y-115380133D01*
X114967783Y-115363657D01*
X114951307Y-115345479D01*
X114936692Y-115325773D01*
X114924080Y-115304730D01*
X114913590Y-115282551D01*
X114905325Y-115259452D01*
X114899364Y-115235653D01*
X114895764Y-115211385D01*
X114894560Y-115186881D01*
X114894560Y-114286879D01*
X114895764Y-114262375D01*
X114899364Y-114238107D01*
X114905325Y-114214308D01*
X114913590Y-114191209D01*
X114924080Y-114169030D01*
X114936692Y-114147987D01*
X114951307Y-114128281D01*
X114967783Y-114110103D01*
X114985961Y-114093627D01*
X115005667Y-114079012D01*
X115026710Y-114066400D01*
X115048889Y-114055910D01*
X115071988Y-114047645D01*
X115095787Y-114041684D01*
X115120055Y-114038084D01*
X115144559Y-114036880D01*
X115794561Y-114036880D01*
X115819065Y-114038084D01*
X115819065Y-114038084D01*
G37*
D13*
G04 #@! TD*
G04 #@! TO.P,C8,1*
G04 #@! TO.N,MIC_0*
X115469560Y-114736880D03*
D12*
G04 #@! TO.N,AGND*
G04 #@! TO.C,C9*
G36*
X123725465Y-102706524D02*
X123749733Y-102710124D01*
X123773532Y-102716085D01*
X123796631Y-102724350D01*
X123818810Y-102734840D01*
X123839853Y-102747452D01*
X123859559Y-102762067D01*
X123877737Y-102778543D01*
X123894213Y-102796721D01*
X123908828Y-102816427D01*
X123921440Y-102837470D01*
X123931930Y-102859649D01*
X123940195Y-102882748D01*
X123946156Y-102906547D01*
X123949756Y-102930815D01*
X123950960Y-102955319D01*
X123950960Y-103605321D01*
X123949756Y-103629825D01*
X123946156Y-103654093D01*
X123940195Y-103677892D01*
X123931930Y-103700991D01*
X123921440Y-103723170D01*
X123908828Y-103744213D01*
X123894213Y-103763919D01*
X123877737Y-103782097D01*
X123859559Y-103798573D01*
X123839853Y-103813188D01*
X123818810Y-103825800D01*
X123796631Y-103836290D01*
X123773532Y-103844555D01*
X123749733Y-103850516D01*
X123725465Y-103854116D01*
X123700961Y-103855320D01*
X122800959Y-103855320D01*
X122776455Y-103854116D01*
X122752187Y-103850516D01*
X122728388Y-103844555D01*
X122705289Y-103836290D01*
X122683110Y-103825800D01*
X122662067Y-103813188D01*
X122642361Y-103798573D01*
X122624183Y-103782097D01*
X122607707Y-103763919D01*
X122593092Y-103744213D01*
X122580480Y-103723170D01*
X122569990Y-103700991D01*
X122561725Y-103677892D01*
X122555764Y-103654093D01*
X122552164Y-103629825D01*
X122550960Y-103605321D01*
X122550960Y-102955319D01*
X122552164Y-102930815D01*
X122555764Y-102906547D01*
X122561725Y-102882748D01*
X122569990Y-102859649D01*
X122580480Y-102837470D01*
X122593092Y-102816427D01*
X122607707Y-102796721D01*
X122624183Y-102778543D01*
X122642361Y-102762067D01*
X122662067Y-102747452D01*
X122683110Y-102734840D01*
X122705289Y-102724350D01*
X122728388Y-102716085D01*
X122752187Y-102710124D01*
X122776455Y-102706524D01*
X122800959Y-102705320D01*
X123700961Y-102705320D01*
X123725465Y-102706524D01*
X123725465Y-102706524D01*
G37*
D13*
G04 #@! TD*
G04 #@! TO.P,C9,2*
G04 #@! TO.N,AGND*
X123250960Y-103280320D03*
D12*
G04 #@! TO.N,Net-(C9-Pad1)*
G04 #@! TO.C,C9*
G36*
X123725465Y-100656524D02*
X123749733Y-100660124D01*
X123773532Y-100666085D01*
X123796631Y-100674350D01*
X123818810Y-100684840D01*
X123839853Y-100697452D01*
X123859559Y-100712067D01*
X123877737Y-100728543D01*
X123894213Y-100746721D01*
X123908828Y-100766427D01*
X123921440Y-100787470D01*
X123931930Y-100809649D01*
X123940195Y-100832748D01*
X123946156Y-100856547D01*
X123949756Y-100880815D01*
X123950960Y-100905319D01*
X123950960Y-101555321D01*
X123949756Y-101579825D01*
X123946156Y-101604093D01*
X123940195Y-101627892D01*
X123931930Y-101650991D01*
X123921440Y-101673170D01*
X123908828Y-101694213D01*
X123894213Y-101713919D01*
X123877737Y-101732097D01*
X123859559Y-101748573D01*
X123839853Y-101763188D01*
X123818810Y-101775800D01*
X123796631Y-101786290D01*
X123773532Y-101794555D01*
X123749733Y-101800516D01*
X123725465Y-101804116D01*
X123700961Y-101805320D01*
X122800959Y-101805320D01*
X122776455Y-101804116D01*
X122752187Y-101800516D01*
X122728388Y-101794555D01*
X122705289Y-101786290D01*
X122683110Y-101775800D01*
X122662067Y-101763188D01*
X122642361Y-101748573D01*
X122624183Y-101732097D01*
X122607707Y-101713919D01*
X122593092Y-101694213D01*
X122580480Y-101673170D01*
X122569990Y-101650991D01*
X122561725Y-101627892D01*
X122555764Y-101604093D01*
X122552164Y-101579825D01*
X122550960Y-101555321D01*
X122550960Y-100905319D01*
X122552164Y-100880815D01*
X122555764Y-100856547D01*
X122561725Y-100832748D01*
X122569990Y-100809649D01*
X122580480Y-100787470D01*
X122593092Y-100766427D01*
X122607707Y-100746721D01*
X122624183Y-100728543D01*
X122642361Y-100712067D01*
X122662067Y-100697452D01*
X122683110Y-100684840D01*
X122705289Y-100674350D01*
X122728388Y-100666085D01*
X122752187Y-100660124D01*
X122776455Y-100656524D01*
X122800959Y-100655320D01*
X123700961Y-100655320D01*
X123725465Y-100656524D01*
X123725465Y-100656524D01*
G37*
D13*
G04 #@! TD*
G04 #@! TO.P,C9,1*
G04 #@! TO.N,Net-(C9-Pad1)*
X123250960Y-101230320D03*
D20*
G04 #@! TO.P,5V,1*
G04 #@! TO.N,5VDC*
X133318420Y-138943080D03*
D12*
G04 #@! TD*
G04 #@! TO.N,5VDC*
G04 #@! TO.C,5V*
G36*
X134318420Y-138943080D02*
X133818420Y-139693080D01*
X132818420Y-139693080D01*
X132818420Y-138193080D01*
X133818420Y-138193080D01*
X134318420Y-138943080D01*
X134318420Y-138943080D01*
G37*
D20*
G04 #@! TO.P,5V,2*
G04 #@! TO.N,Net-(C4-Pad2)*
X134768420Y-138943080D03*
D12*
G04 #@! TD*
G04 #@! TO.N,Net-(C4-Pad2)*
G04 #@! TO.C,5V*
G36*
X135268420Y-139693080D02*
X134118420Y-139693080D01*
X134618420Y-138943080D01*
X134118420Y-138193080D01*
X135268420Y-138193080D01*
X135268420Y-139693080D01*
X135268420Y-139693080D01*
G37*
D20*
G04 #@! TO.P,3V3,1*
G04 #@! TO.N,3V3DC*
X133303180Y-141663420D03*
D12*
G04 #@! TD*
G04 #@! TO.N,3V3DC*
G04 #@! TO.C,3V3*
G36*
X134303180Y-141663420D02*
X133803180Y-142413420D01*
X132803180Y-142413420D01*
X132803180Y-140913420D01*
X133803180Y-140913420D01*
X134303180Y-141663420D01*
X134303180Y-141663420D01*
G37*
D20*
G04 #@! TO.P,3V3,2*
G04 #@! TO.N,Net-(C4-Pad2)*
X134753180Y-141663420D03*
D12*
G04 #@! TD*
G04 #@! TO.N,Net-(C4-Pad2)*
G04 #@! TO.C,3V3*
G36*
X135253180Y-142413420D02*
X134103180Y-142413420D01*
X134603180Y-141663420D01*
X134103180Y-140913420D01*
X135253180Y-140913420D01*
X135253180Y-142413420D01*
X135253180Y-142413420D01*
G37*
D20*
G04 #@! TO.P,5V,1*
G04 #@! TO.N,5VDC*
X133320960Y-136161780D03*
D12*
G04 #@! TD*
G04 #@! TO.N,5VDC*
G04 #@! TO.C,5V*
G36*
X134320960Y-136161780D02*
X133820960Y-136911780D01*
X132820960Y-136911780D01*
X132820960Y-135411780D01*
X133820960Y-135411780D01*
X134320960Y-136161780D01*
X134320960Y-136161780D01*
G37*
D20*
G04 #@! TO.P,5V,2*
G04 #@! TO.N,Net-(C3-Pad2)*
X134770960Y-136161780D03*
D12*
G04 #@! TD*
G04 #@! TO.N,Net-(C3-Pad2)*
G04 #@! TO.C,5V*
G36*
X135270960Y-136911780D02*
X134120960Y-136911780D01*
X134620960Y-136161780D01*
X134120960Y-135411780D01*
X135270960Y-135411780D01*
X135270960Y-136911780D01*
X135270960Y-136911780D01*
G37*
D20*
G04 #@! TO.P,3V3,1*
G04 #@! TO.N,3V3DC*
X133338740Y-133446520D03*
D12*
G04 #@! TD*
G04 #@! TO.N,3V3DC*
G04 #@! TO.C,3V3*
G36*
X134338740Y-133446520D02*
X133838740Y-134196520D01*
X132838740Y-134196520D01*
X132838740Y-132696520D01*
X133838740Y-132696520D01*
X134338740Y-133446520D01*
X134338740Y-133446520D01*
G37*
D20*
G04 #@! TO.P,3V3,2*
G04 #@! TO.N,Net-(C3-Pad2)*
X134788740Y-133446520D03*
D12*
G04 #@! TD*
G04 #@! TO.N,Net-(C3-Pad2)*
G04 #@! TO.C,3V3*
G36*
X135288740Y-134196520D02*
X134138740Y-134196520D01*
X134638740Y-133446520D01*
X134138740Y-132696520D01*
X135288740Y-132696520D01*
X135288740Y-134196520D01*
X135288740Y-134196520D01*
G37*
G04 #@! TO.N,Net-(C2-Pad1)*
G04 #@! TO.C,R12*
G36*
X133468905Y-117289604D02*
X133493173Y-117293204D01*
X133516972Y-117299165D01*
X133540071Y-117307430D01*
X133562250Y-117317920D01*
X133583293Y-117330532D01*
X133602999Y-117345147D01*
X133621177Y-117361623D01*
X133637653Y-117379801D01*
X133652268Y-117399507D01*
X133664880Y-117420550D01*
X133675370Y-117442729D01*
X133683635Y-117465828D01*
X133689596Y-117489627D01*
X133693196Y-117513895D01*
X133694400Y-117538399D01*
X133694400Y-118188401D01*
X133693196Y-118212905D01*
X133689596Y-118237173D01*
X133683635Y-118260972D01*
X133675370Y-118284071D01*
X133664880Y-118306250D01*
X133652268Y-118327293D01*
X133637653Y-118346999D01*
X133621177Y-118365177D01*
X133602999Y-118381653D01*
X133583293Y-118396268D01*
X133562250Y-118408880D01*
X133540071Y-118419370D01*
X133516972Y-118427635D01*
X133493173Y-118433596D01*
X133468905Y-118437196D01*
X133444401Y-118438400D01*
X132544399Y-118438400D01*
X132519895Y-118437196D01*
X132495627Y-118433596D01*
X132471828Y-118427635D01*
X132448729Y-118419370D01*
X132426550Y-118408880D01*
X132405507Y-118396268D01*
X132385801Y-118381653D01*
X132367623Y-118365177D01*
X132351147Y-118346999D01*
X132336532Y-118327293D01*
X132323920Y-118306250D01*
X132313430Y-118284071D01*
X132305165Y-118260972D01*
X132299204Y-118237173D01*
X132295604Y-118212905D01*
X132294400Y-118188401D01*
X132294400Y-117538399D01*
X132295604Y-117513895D01*
X132299204Y-117489627D01*
X132305165Y-117465828D01*
X132313430Y-117442729D01*
X132323920Y-117420550D01*
X132336532Y-117399507D01*
X132351147Y-117379801D01*
X132367623Y-117361623D01*
X132385801Y-117345147D01*
X132405507Y-117330532D01*
X132426550Y-117317920D01*
X132448729Y-117307430D01*
X132471828Y-117299165D01*
X132495627Y-117293204D01*
X132519895Y-117289604D01*
X132544399Y-117288400D01*
X133444401Y-117288400D01*
X133468905Y-117289604D01*
X133468905Y-117289604D01*
G37*
D13*
G04 #@! TD*
G04 #@! TO.P,R12,2*
G04 #@! TO.N,Net-(C2-Pad1)*
X132994400Y-117863400D03*
D12*
G04 #@! TO.N,Net-(C6-Pad1)*
G04 #@! TO.C,R12*
G36*
X133468905Y-119339604D02*
X133493173Y-119343204D01*
X133516972Y-119349165D01*
X133540071Y-119357430D01*
X133562250Y-119367920D01*
X133583293Y-119380532D01*
X133602999Y-119395147D01*
X133621177Y-119411623D01*
X133637653Y-119429801D01*
X133652268Y-119449507D01*
X133664880Y-119470550D01*
X133675370Y-119492729D01*
X133683635Y-119515828D01*
X133689596Y-119539627D01*
X133693196Y-119563895D01*
X133694400Y-119588399D01*
X133694400Y-120238401D01*
X133693196Y-120262905D01*
X133689596Y-120287173D01*
X133683635Y-120310972D01*
X133675370Y-120334071D01*
X133664880Y-120356250D01*
X133652268Y-120377293D01*
X133637653Y-120396999D01*
X133621177Y-120415177D01*
X133602999Y-120431653D01*
X133583293Y-120446268D01*
X133562250Y-120458880D01*
X133540071Y-120469370D01*
X133516972Y-120477635D01*
X133493173Y-120483596D01*
X133468905Y-120487196D01*
X133444401Y-120488400D01*
X132544399Y-120488400D01*
X132519895Y-120487196D01*
X132495627Y-120483596D01*
X132471828Y-120477635D01*
X132448729Y-120469370D01*
X132426550Y-120458880D01*
X132405507Y-120446268D01*
X132385801Y-120431653D01*
X132367623Y-120415177D01*
X132351147Y-120396999D01*
X132336532Y-120377293D01*
X132323920Y-120356250D01*
X132313430Y-120334071D01*
X132305165Y-120310972D01*
X132299204Y-120287173D01*
X132295604Y-120262905D01*
X132294400Y-120238401D01*
X132294400Y-119588399D01*
X132295604Y-119563895D01*
X132299204Y-119539627D01*
X132305165Y-119515828D01*
X132313430Y-119492729D01*
X132323920Y-119470550D01*
X132336532Y-119449507D01*
X132351147Y-119429801D01*
X132367623Y-119411623D01*
X132385801Y-119395147D01*
X132405507Y-119380532D01*
X132426550Y-119367920D01*
X132448729Y-119357430D01*
X132471828Y-119349165D01*
X132495627Y-119343204D01*
X132519895Y-119339604D01*
X132544399Y-119338400D01*
X133444401Y-119338400D01*
X133468905Y-119339604D01*
X133468905Y-119339604D01*
G37*
D13*
G04 #@! TD*
G04 #@! TO.P,R12,1*
G04 #@! TO.N,Net-(C6-Pad1)*
X132994400Y-119913400D03*
D12*
G04 #@! TO.N,Net-(C9-Pad1)*
G04 #@! TO.C,R13*
G36*
X125909865Y-100599484D02*
X125934133Y-100603084D01*
X125957932Y-100609045D01*
X125981031Y-100617310D01*
X126003210Y-100627800D01*
X126024253Y-100640412D01*
X126043959Y-100655027D01*
X126062137Y-100671503D01*
X126078613Y-100689681D01*
X126093228Y-100709387D01*
X126105840Y-100730430D01*
X126116330Y-100752609D01*
X126124595Y-100775708D01*
X126130556Y-100799507D01*
X126134156Y-100823775D01*
X126135360Y-100848279D01*
X126135360Y-101498281D01*
X126134156Y-101522785D01*
X126130556Y-101547053D01*
X126124595Y-101570852D01*
X126116330Y-101593951D01*
X126105840Y-101616130D01*
X126093228Y-101637173D01*
X126078613Y-101656879D01*
X126062137Y-101675057D01*
X126043959Y-101691533D01*
X126024253Y-101706148D01*
X126003210Y-101718760D01*
X125981031Y-101729250D01*
X125957932Y-101737515D01*
X125934133Y-101743476D01*
X125909865Y-101747076D01*
X125885361Y-101748280D01*
X124985359Y-101748280D01*
X124960855Y-101747076D01*
X124936587Y-101743476D01*
X124912788Y-101737515D01*
X124889689Y-101729250D01*
X124867510Y-101718760D01*
X124846467Y-101706148D01*
X124826761Y-101691533D01*
X124808583Y-101675057D01*
X124792107Y-101656879D01*
X124777492Y-101637173D01*
X124764880Y-101616130D01*
X124754390Y-101593951D01*
X124746125Y-101570852D01*
X124740164Y-101547053D01*
X124736564Y-101522785D01*
X124735360Y-101498281D01*
X124735360Y-100848279D01*
X124736564Y-100823775D01*
X124740164Y-100799507D01*
X124746125Y-100775708D01*
X124754390Y-100752609D01*
X124764880Y-100730430D01*
X124777492Y-100709387D01*
X124792107Y-100689681D01*
X124808583Y-100671503D01*
X124826761Y-100655027D01*
X124846467Y-100640412D01*
X124867510Y-100627800D01*
X124889689Y-100617310D01*
X124912788Y-100609045D01*
X124936587Y-100603084D01*
X124960855Y-100599484D01*
X124985359Y-100598280D01*
X125885361Y-100598280D01*
X125909865Y-100599484D01*
X125909865Y-100599484D01*
G37*
D13*
G04 #@! TD*
G04 #@! TO.P,R13,2*
G04 #@! TO.N,Net-(C9-Pad1)*
X125435360Y-101173280D03*
D12*
G04 #@! TO.N,Net-(R13-Pad1)*
G04 #@! TO.C,R13*
G36*
X125909865Y-102649484D02*
X125934133Y-102653084D01*
X125957932Y-102659045D01*
X125981031Y-102667310D01*
X126003210Y-102677800D01*
X126024253Y-102690412D01*
X126043959Y-102705027D01*
X126062137Y-102721503D01*
X126078613Y-102739681D01*
X126093228Y-102759387D01*
X126105840Y-102780430D01*
X126116330Y-102802609D01*
X126124595Y-102825708D01*
X126130556Y-102849507D01*
X126134156Y-102873775D01*
X126135360Y-102898279D01*
X126135360Y-103548281D01*
X126134156Y-103572785D01*
X126130556Y-103597053D01*
X126124595Y-103620852D01*
X126116330Y-103643951D01*
X126105840Y-103666130D01*
X126093228Y-103687173D01*
X126078613Y-103706879D01*
X126062137Y-103725057D01*
X126043959Y-103741533D01*
X126024253Y-103756148D01*
X126003210Y-103768760D01*
X125981031Y-103779250D01*
X125957932Y-103787515D01*
X125934133Y-103793476D01*
X125909865Y-103797076D01*
X125885361Y-103798280D01*
X124985359Y-103798280D01*
X124960855Y-103797076D01*
X124936587Y-103793476D01*
X124912788Y-103787515D01*
X124889689Y-103779250D01*
X124867510Y-103768760D01*
X124846467Y-103756148D01*
X124826761Y-103741533D01*
X124808583Y-103725057D01*
X124792107Y-103706879D01*
X124777492Y-103687173D01*
X124764880Y-103666130D01*
X124754390Y-103643951D01*
X124746125Y-103620852D01*
X124740164Y-103597053D01*
X124736564Y-103572785D01*
X124735360Y-103548281D01*
X124735360Y-102898279D01*
X124736564Y-102873775D01*
X124740164Y-102849507D01*
X124746125Y-102825708D01*
X124754390Y-102802609D01*
X124764880Y-102780430D01*
X124777492Y-102759387D01*
X124792107Y-102739681D01*
X124808583Y-102721503D01*
X124826761Y-102705027D01*
X124846467Y-102690412D01*
X124867510Y-102677800D01*
X124889689Y-102667310D01*
X124912788Y-102659045D01*
X124936587Y-102653084D01*
X124960855Y-102649484D01*
X124985359Y-102648280D01*
X125885361Y-102648280D01*
X125909865Y-102649484D01*
X125909865Y-102649484D01*
G37*
D13*
G04 #@! TD*
G04 #@! TO.P,R13,1*
G04 #@! TO.N,Net-(R13-Pad1)*
X125435360Y-103223280D03*
D12*
G04 #@! TO.N,Net-(R14-Pad2)*
G04 #@! TO.C,R14*
G36*
X122699305Y-114860204D02*
X122723573Y-114863804D01*
X122747372Y-114869765D01*
X122770471Y-114878030D01*
X122792650Y-114888520D01*
X122813693Y-114901132D01*
X122833399Y-114915747D01*
X122851577Y-114932223D01*
X122868053Y-114950401D01*
X122882668Y-114970107D01*
X122895280Y-114991150D01*
X122905770Y-115013329D01*
X122914035Y-115036428D01*
X122919996Y-115060227D01*
X122923596Y-115084495D01*
X122924800Y-115108999D01*
X122924800Y-115759001D01*
X122923596Y-115783505D01*
X122919996Y-115807773D01*
X122914035Y-115831572D01*
X122905770Y-115854671D01*
X122895280Y-115876850D01*
X122882668Y-115897893D01*
X122868053Y-115917599D01*
X122851577Y-115935777D01*
X122833399Y-115952253D01*
X122813693Y-115966868D01*
X122792650Y-115979480D01*
X122770471Y-115989970D01*
X122747372Y-115998235D01*
X122723573Y-116004196D01*
X122699305Y-116007796D01*
X122674801Y-116009000D01*
X121774799Y-116009000D01*
X121750295Y-116007796D01*
X121726027Y-116004196D01*
X121702228Y-115998235D01*
X121679129Y-115989970D01*
X121656950Y-115979480D01*
X121635907Y-115966868D01*
X121616201Y-115952253D01*
X121598023Y-115935777D01*
X121581547Y-115917599D01*
X121566932Y-115897893D01*
X121554320Y-115876850D01*
X121543830Y-115854671D01*
X121535565Y-115831572D01*
X121529604Y-115807773D01*
X121526004Y-115783505D01*
X121524800Y-115759001D01*
X121524800Y-115108999D01*
X121526004Y-115084495D01*
X121529604Y-115060227D01*
X121535565Y-115036428D01*
X121543830Y-115013329D01*
X121554320Y-114991150D01*
X121566932Y-114970107D01*
X121581547Y-114950401D01*
X121598023Y-114932223D01*
X121616201Y-114915747D01*
X121635907Y-114901132D01*
X121656950Y-114888520D01*
X121679129Y-114878030D01*
X121702228Y-114869765D01*
X121726027Y-114863804D01*
X121750295Y-114860204D01*
X121774799Y-114859000D01*
X122674801Y-114859000D01*
X122699305Y-114860204D01*
X122699305Y-114860204D01*
G37*
D13*
G04 #@! TD*
G04 #@! TO.P,R14,2*
G04 #@! TO.N,Net-(R14-Pad2)*
X122224800Y-115434000D03*
D12*
G04 #@! TO.N,Net-(C8-Pad2)*
G04 #@! TO.C,R14*
G36*
X122699305Y-116910204D02*
X122723573Y-116913804D01*
X122747372Y-116919765D01*
X122770471Y-116928030D01*
X122792650Y-116938520D01*
X122813693Y-116951132D01*
X122833399Y-116965747D01*
X122851577Y-116982223D01*
X122868053Y-117000401D01*
X122882668Y-117020107D01*
X122895280Y-117041150D01*
X122905770Y-117063329D01*
X122914035Y-117086428D01*
X122919996Y-117110227D01*
X122923596Y-117134495D01*
X122924800Y-117158999D01*
X122924800Y-117809001D01*
X122923596Y-117833505D01*
X122919996Y-117857773D01*
X122914035Y-117881572D01*
X122905770Y-117904671D01*
X122895280Y-117926850D01*
X122882668Y-117947893D01*
X122868053Y-117967599D01*
X122851577Y-117985777D01*
X122833399Y-118002253D01*
X122813693Y-118016868D01*
X122792650Y-118029480D01*
X122770471Y-118039970D01*
X122747372Y-118048235D01*
X122723573Y-118054196D01*
X122699305Y-118057796D01*
X122674801Y-118059000D01*
X121774799Y-118059000D01*
X121750295Y-118057796D01*
X121726027Y-118054196D01*
X121702228Y-118048235D01*
X121679129Y-118039970D01*
X121656950Y-118029480D01*
X121635907Y-118016868D01*
X121616201Y-118002253D01*
X121598023Y-117985777D01*
X121581547Y-117967599D01*
X121566932Y-117947893D01*
X121554320Y-117926850D01*
X121543830Y-117904671D01*
X121535565Y-117881572D01*
X121529604Y-117857773D01*
X121526004Y-117833505D01*
X121524800Y-117809001D01*
X121524800Y-117158999D01*
X121526004Y-117134495D01*
X121529604Y-117110227D01*
X121535565Y-117086428D01*
X121543830Y-117063329D01*
X121554320Y-117041150D01*
X121566932Y-117020107D01*
X121581547Y-117000401D01*
X121598023Y-116982223D01*
X121616201Y-116965747D01*
X121635907Y-116951132D01*
X121656950Y-116938520D01*
X121679129Y-116928030D01*
X121702228Y-116919765D01*
X121726027Y-116913804D01*
X121750295Y-116910204D01*
X121774799Y-116909000D01*
X122674801Y-116909000D01*
X122699305Y-116910204D01*
X122699305Y-116910204D01*
G37*
D13*
G04 #@! TD*
G04 #@! TO.P,R14,1*
G04 #@! TO.N,Net-(C8-Pad2)*
X122224800Y-117484000D03*
D12*
G04 #@! TO.N,Net-(C9-Pad1)*
G04 #@! TO.C,R15*
G36*
X128002666Y-100593083D02*
X128026934Y-100596683D01*
X128050733Y-100602644D01*
X128073832Y-100610909D01*
X128096011Y-100621399D01*
X128117054Y-100634011D01*
X128136760Y-100648626D01*
X128154938Y-100665102D01*
X128171414Y-100683280D01*
X128186029Y-100702986D01*
X128198641Y-100724029D01*
X128209131Y-100746208D01*
X128217396Y-100769307D01*
X128223357Y-100793106D01*
X128226957Y-100817374D01*
X128228161Y-100841878D01*
X128228161Y-101491880D01*
X128226957Y-101516384D01*
X128223357Y-101540652D01*
X128217396Y-101564451D01*
X128209131Y-101587550D01*
X128198641Y-101609729D01*
X128186029Y-101630772D01*
X128171414Y-101650478D01*
X128154938Y-101668656D01*
X128136760Y-101685132D01*
X128117054Y-101699747D01*
X128096011Y-101712359D01*
X128073832Y-101722849D01*
X128050733Y-101731114D01*
X128026934Y-101737075D01*
X128002666Y-101740675D01*
X127978162Y-101741879D01*
X127078160Y-101741879D01*
X127053656Y-101740675D01*
X127029388Y-101737075D01*
X127005589Y-101731114D01*
X126982490Y-101722849D01*
X126960311Y-101712359D01*
X126939268Y-101699747D01*
X126919562Y-101685132D01*
X126901384Y-101668656D01*
X126884908Y-101650478D01*
X126870293Y-101630772D01*
X126857681Y-101609729D01*
X126847191Y-101587550D01*
X126838926Y-101564451D01*
X126832965Y-101540652D01*
X126829365Y-101516384D01*
X126828161Y-101491880D01*
X126828161Y-100841878D01*
X126829365Y-100817374D01*
X126832965Y-100793106D01*
X126838926Y-100769307D01*
X126847191Y-100746208D01*
X126857681Y-100724029D01*
X126870293Y-100702986D01*
X126884908Y-100683280D01*
X126901384Y-100665102D01*
X126919562Y-100648626D01*
X126939268Y-100634011D01*
X126960311Y-100621399D01*
X126982490Y-100610909D01*
X127005589Y-100602644D01*
X127029388Y-100596683D01*
X127053656Y-100593083D01*
X127078160Y-100591879D01*
X127978162Y-100591879D01*
X128002666Y-100593083D01*
X128002666Y-100593083D01*
G37*
D13*
G04 #@! TD*
G04 #@! TO.P,R15,2*
G04 #@! TO.N,Net-(C9-Pad1)*
X127528161Y-101166879D03*
D12*
G04 #@! TO.N,Net-(R15-Pad1)*
G04 #@! TO.C,R15*
G36*
X128002666Y-102643083D02*
X128026934Y-102646683D01*
X128050733Y-102652644D01*
X128073832Y-102660909D01*
X128096011Y-102671399D01*
X128117054Y-102684011D01*
X128136760Y-102698626D01*
X128154938Y-102715102D01*
X128171414Y-102733280D01*
X128186029Y-102752986D01*
X128198641Y-102774029D01*
X128209131Y-102796208D01*
X128217396Y-102819307D01*
X128223357Y-102843106D01*
X128226957Y-102867374D01*
X128228161Y-102891878D01*
X128228161Y-103541880D01*
X128226957Y-103566384D01*
X128223357Y-103590652D01*
X128217396Y-103614451D01*
X128209131Y-103637550D01*
X128198641Y-103659729D01*
X128186029Y-103680772D01*
X128171414Y-103700478D01*
X128154938Y-103718656D01*
X128136760Y-103735132D01*
X128117054Y-103749747D01*
X128096011Y-103762359D01*
X128073832Y-103772849D01*
X128050733Y-103781114D01*
X128026934Y-103787075D01*
X128002666Y-103790675D01*
X127978162Y-103791879D01*
X127078160Y-103791879D01*
X127053656Y-103790675D01*
X127029388Y-103787075D01*
X127005589Y-103781114D01*
X126982490Y-103772849D01*
X126960311Y-103762359D01*
X126939268Y-103749747D01*
X126919562Y-103735132D01*
X126901384Y-103718656D01*
X126884908Y-103700478D01*
X126870293Y-103680772D01*
X126857681Y-103659729D01*
X126847191Y-103637550D01*
X126838926Y-103614451D01*
X126832965Y-103590652D01*
X126829365Y-103566384D01*
X126828161Y-103541880D01*
X126828161Y-102891878D01*
X126829365Y-102867374D01*
X126832965Y-102843106D01*
X126838926Y-102819307D01*
X126847191Y-102796208D01*
X126857681Y-102774029D01*
X126870293Y-102752986D01*
X126884908Y-102733280D01*
X126901384Y-102715102D01*
X126919562Y-102698626D01*
X126939268Y-102684011D01*
X126960311Y-102671399D01*
X126982490Y-102660909D01*
X127005589Y-102652644D01*
X127029388Y-102646683D01*
X127053656Y-102643083D01*
X127078160Y-102641879D01*
X127978162Y-102641879D01*
X128002666Y-102643083D01*
X128002666Y-102643083D01*
G37*
D13*
G04 #@! TD*
G04 #@! TO.P,R15,1*
G04 #@! TO.N,Net-(R15-Pad1)*
X127528161Y-103216879D03*
D12*
G04 #@! TO.N,Net-(C9-Pad1)*
G04 #@! TO.C,R16*
G36*
X129952666Y-100593083D02*
X129976934Y-100596683D01*
X130000733Y-100602644D01*
X130023832Y-100610909D01*
X130046011Y-100621399D01*
X130067054Y-100634011D01*
X130086760Y-100648626D01*
X130104938Y-100665102D01*
X130121414Y-100683280D01*
X130136029Y-100702986D01*
X130148641Y-100724029D01*
X130159131Y-100746208D01*
X130167396Y-100769307D01*
X130173357Y-100793106D01*
X130176957Y-100817374D01*
X130178161Y-100841878D01*
X130178161Y-101491880D01*
X130176957Y-101516384D01*
X130173357Y-101540652D01*
X130167396Y-101564451D01*
X130159131Y-101587550D01*
X130148641Y-101609729D01*
X130136029Y-101630772D01*
X130121414Y-101650478D01*
X130104938Y-101668656D01*
X130086760Y-101685132D01*
X130067054Y-101699747D01*
X130046011Y-101712359D01*
X130023832Y-101722849D01*
X130000733Y-101731114D01*
X129976934Y-101737075D01*
X129952666Y-101740675D01*
X129928162Y-101741879D01*
X129028160Y-101741879D01*
X129003656Y-101740675D01*
X128979388Y-101737075D01*
X128955589Y-101731114D01*
X128932490Y-101722849D01*
X128910311Y-101712359D01*
X128889268Y-101699747D01*
X128869562Y-101685132D01*
X128851384Y-101668656D01*
X128834908Y-101650478D01*
X128820293Y-101630772D01*
X128807681Y-101609729D01*
X128797191Y-101587550D01*
X128788926Y-101564451D01*
X128782965Y-101540652D01*
X128779365Y-101516384D01*
X128778161Y-101491880D01*
X128778161Y-100841878D01*
X128779365Y-100817374D01*
X128782965Y-100793106D01*
X128788926Y-100769307D01*
X128797191Y-100746208D01*
X128807681Y-100724029D01*
X128820293Y-100702986D01*
X128834908Y-100683280D01*
X128851384Y-100665102D01*
X128869562Y-100648626D01*
X128889268Y-100634011D01*
X128910311Y-100621399D01*
X128932490Y-100610909D01*
X128955589Y-100602644D01*
X128979388Y-100596683D01*
X129003656Y-100593083D01*
X129028160Y-100591879D01*
X129928162Y-100591879D01*
X129952666Y-100593083D01*
X129952666Y-100593083D01*
G37*
D13*
G04 #@! TD*
G04 #@! TO.P,R16,2*
G04 #@! TO.N,Net-(C9-Pad1)*
X129478161Y-101166879D03*
D12*
G04 #@! TO.N,Net-(R16-Pad1)*
G04 #@! TO.C,R16*
G36*
X129952666Y-102643083D02*
X129976934Y-102646683D01*
X130000733Y-102652644D01*
X130023832Y-102660909D01*
X130046011Y-102671399D01*
X130067054Y-102684011D01*
X130086760Y-102698626D01*
X130104938Y-102715102D01*
X130121414Y-102733280D01*
X130136029Y-102752986D01*
X130148641Y-102774029D01*
X130159131Y-102796208D01*
X130167396Y-102819307D01*
X130173357Y-102843106D01*
X130176957Y-102867374D01*
X130178161Y-102891878D01*
X130178161Y-103541880D01*
X130176957Y-103566384D01*
X130173357Y-103590652D01*
X130167396Y-103614451D01*
X130159131Y-103637550D01*
X130148641Y-103659729D01*
X130136029Y-103680772D01*
X130121414Y-103700478D01*
X130104938Y-103718656D01*
X130086760Y-103735132D01*
X130067054Y-103749747D01*
X130046011Y-103762359D01*
X130023832Y-103772849D01*
X130000733Y-103781114D01*
X129976934Y-103787075D01*
X129952666Y-103790675D01*
X129928162Y-103791879D01*
X129028160Y-103791879D01*
X129003656Y-103790675D01*
X128979388Y-103787075D01*
X128955589Y-103781114D01*
X128932490Y-103772849D01*
X128910311Y-103762359D01*
X128889268Y-103749747D01*
X128869562Y-103735132D01*
X128851384Y-103718656D01*
X128834908Y-103700478D01*
X128820293Y-103680772D01*
X128807681Y-103659729D01*
X128797191Y-103637550D01*
X128788926Y-103614451D01*
X128782965Y-103590652D01*
X128779365Y-103566384D01*
X128778161Y-103541880D01*
X128778161Y-102891878D01*
X128779365Y-102867374D01*
X128782965Y-102843106D01*
X128788926Y-102819307D01*
X128797191Y-102796208D01*
X128807681Y-102774029D01*
X128820293Y-102752986D01*
X128834908Y-102733280D01*
X128851384Y-102715102D01*
X128869562Y-102698626D01*
X128889268Y-102684011D01*
X128910311Y-102671399D01*
X128932490Y-102660909D01*
X128955589Y-102652644D01*
X128979388Y-102646683D01*
X129003656Y-102643083D01*
X129028160Y-102641879D01*
X129928162Y-102641879D01*
X129952666Y-102643083D01*
X129952666Y-102643083D01*
G37*
D13*
G04 #@! TD*
G04 #@! TO.P,R16,1*
G04 #@! TO.N,Net-(R16-Pad1)*
X129478161Y-103216879D03*
D28*
G04 #@! TO.P,SW4,2*
G04 #@! TO.N,DGND*
X107353320Y-103151840D03*
G04 #@! TO.P,SW4,1*
G04 #@! TO.N,GPIO1_4*
X107353320Y-101551840D03*
G04 #@! TO.P,SW4,2*
G04 #@! TO.N,DGND*
X103253320Y-103151840D03*
G04 #@! TO.P,SW4,1*
G04 #@! TO.N,GPIO1_4*
X103253320Y-101551840D03*
G04 #@! TD*
D29*
G04 #@! TO.P,SW5,6*
G04 #@! TO.N,Net-(R13-Pad1)*
X124602240Y-105738160D03*
G04 #@! TO.P,SW5,3*
G04 #@! TO.N,Net-(R14-Pad2)*
X129682240Y-112468160D03*
G04 #@! TO.P,SW5,5*
G04 #@! TO.N,Net-(R15-Pad1)*
X127142240Y-105738160D03*
G04 #@! TO.P,SW5,2*
G04 #@! TO.N,Net-(R14-Pad2)*
X127142240Y-112468160D03*
G04 #@! TO.P,SW5,4*
G04 #@! TO.N,Net-(R16-Pad1)*
X129682240Y-105738160D03*
G04 #@! TO.P,SW5,1*
G04 #@! TO.N,Net-(R14-Pad2)*
X124602240Y-112468160D03*
G04 #@! TD*
D30*
G04 #@! TO.N,AGND*
X103891080Y-145496280D03*
X103926640Y-132184140D03*
X108775500Y-110949740D03*
X124879100Y-145224500D03*
X135694420Y-144924780D03*
X145280380Y-147929600D03*
X140055600Y-141599920D03*
X143395700Y-148376640D03*
X139072620Y-134708900D03*
X133350000Y-131191000D03*
X137795000Y-129540000D03*
G04 #@! TO.N,3V3DC*
X101663500Y-104802940D03*
X119791480Y-106537760D03*
X117678200Y-121757440D03*
X117571520Y-123131580D03*
X118851680Y-122323860D03*
X117571520Y-124523500D03*
X118795800Y-123868180D03*
X119893080Y-128183640D03*
X131445000Y-132118100D03*
X134127240Y-143972280D03*
G04 #@! TO.N,DGND*
X102824280Y-143951960D03*
X102661720Y-131348480D03*
X102407720Y-119214900D03*
X101414580Y-110484920D03*
G04 #@! TO.N,5VDC*
X131610100Y-137657840D03*
X117546120Y-131909820D03*
X110375700Y-106573320D03*
X121381520Y-102956360D03*
G04 #@! TO.N,Net-(J1-Pad5)*
X108221780Y-141097000D03*
X108686600Y-126362460D03*
X108668820Y-129697480D03*
X115140740Y-126695200D03*
G04 #@! TO.N,MIC_1*
X107091480Y-125366780D03*
G04 #@! TO.N,MIC_0*
X107121960Y-124007880D03*
G04 #@! TO.N,GPIO1_2*
X106946700Y-122011440D03*
G04 #@! TO.N,GPIO1_9*
X103698040Y-118358920D03*
X130393440Y-147797520D03*
G04 #@! TO.N,GPIO1_4*
X105313480Y-102011480D03*
X103802180Y-116652040D03*
G04 #@! TO.N,AGND*
X138430000Y-126746000D03*
X132461000Y-123444000D03*
X131953000Y-115189000D03*
X121412000Y-105537000D03*
X147828000Y-117919500D03*
X148209000Y-109791500D03*
G04 #@! TO.N,3V3DC*
X124333000Y-123444000D03*
X122682000Y-119380000D03*
X145923000Y-109664500D03*
G04 #@! TO.N,MIC_1*
X114300000Y-117348000D03*
G04 #@! TO.N,MIC_0*
X113284000Y-114935000D03*
G04 #@! TO.N,AGND*
X133794500Y-109791500D03*
G04 #@! TO.N,HP_0*
X115760500Y-138176000D03*
X125603000Y-127762000D03*
X141478000Y-112141000D03*
G04 #@! TO.N,HP_1*
X114871500Y-137350500D03*
X123952000Y-127698500D03*
X140462000Y-108521500D03*
G04 #@! TO.N,GPIO1_2*
X115570000Y-119888000D03*
X117856000Y-119888000D03*
X138176000Y-124460000D03*
G04 #@! TO.N,AUD_OUT+*
X146304000Y-123190000D03*
G04 #@! TO.N,AUD_OUT-*
X148082000Y-123190000D03*
X145161000Y-127000000D03*
G04 #@! TO.N,ON_MONO2*
X132618480Y-145524220D03*
X120192800Y-130667760D03*
G04 #@! TO.N,Net-(R5-Pad1)*
X113360200Y-140416280D03*
X115854480Y-144729200D03*
G04 #@! TO.N,Mono2*
X125008640Y-131521200D03*
X141155420Y-145818860D03*
G04 #@! TD*
D31*
G04 #@! TO.N,AGND*
X105772500Y-145504380D02*
X103899180Y-145504380D01*
X103899180Y-145504380D02*
X103891080Y-145496280D01*
X105797900Y-132194780D02*
X103937280Y-132194780D01*
X103937280Y-132194780D02*
X103926640Y-132184140D01*
X107721880Y-108986320D02*
X107721880Y-109896120D01*
X107721880Y-109896120D02*
X108775500Y-110949740D01*
X124922300Y-142727680D02*
X124922300Y-143997680D01*
X124922300Y-143997680D02*
X124922300Y-145181300D01*
X124922300Y-145181300D02*
X124879100Y-145224500D01*
X137566400Y-145507600D02*
X136277240Y-145507600D01*
X136277240Y-145507600D02*
X135694420Y-144924780D01*
X146343480Y-146318080D02*
X146395440Y-146370040D01*
X145267680Y-147916900D02*
X145280380Y-147929600D01*
X145267680Y-146318080D02*
X145267680Y-147916900D01*
X145267680Y-146318080D02*
X146343480Y-146318080D01*
X144023080Y-146318080D02*
X145267680Y-146318080D01*
X140530700Y-143151500D02*
X140530700Y-142075020D01*
X140530700Y-142075020D02*
X140055600Y-141599920D01*
X141830700Y-147551500D02*
X142570560Y-147551500D01*
X142570560Y-147551500D02*
X143395700Y-148376640D01*
D32*
X139703920Y-132943600D02*
X139703920Y-134077600D01*
X139703920Y-134077600D02*
X139072620Y-134708900D01*
D31*
X135023500Y-130769000D02*
X133772000Y-130769000D01*
X133772000Y-130769000D02*
X133350000Y-131191000D01*
X139423500Y-129469000D02*
X137866000Y-129469000D01*
X137866000Y-129469000D02*
X137795000Y-129540000D01*
G04 #@! TO.N,3V3DC*
X102671880Y-106446320D02*
X102671880Y-105811320D01*
X102671880Y-105811320D02*
X101663500Y-104802940D01*
X119811800Y-104648000D02*
X119811800Y-106517440D01*
X119811800Y-106517440D02*
X119791480Y-106537760D01*
X117678200Y-121848120D02*
X117678200Y-121757440D01*
D32*
X132497440Y-141457680D02*
X131191000Y-141457680D01*
X132703180Y-141663420D02*
X132497440Y-141457680D01*
X133303180Y-141663420D02*
X132703180Y-141663420D01*
X130322300Y-141457680D02*
X131191000Y-141457680D01*
X131191000Y-141457680D02*
X131482000Y-141457680D01*
D31*
X121935100Y-128201900D02*
X119911340Y-128201900D01*
X119911340Y-128201900D02*
X119893080Y-128183640D01*
D32*
X133338740Y-133446520D02*
X132773420Y-133446520D01*
X132773420Y-133446520D02*
X131445000Y-132118100D01*
X133303180Y-141663420D02*
X133303180Y-143148220D01*
X133303180Y-143148220D02*
X134127240Y-143972280D01*
D31*
G04 #@! TO.N,DGND*
X102824280Y-145502482D02*
X102824280Y-143951960D01*
X105772500Y-146754380D02*
X104076178Y-146754380D01*
X104076178Y-146754380D02*
X102824280Y-145502482D01*
X102661720Y-131992222D02*
X102661720Y-131348480D01*
X105797900Y-133444780D02*
X104114278Y-133444780D01*
X104114278Y-133444780D02*
X102661720Y-131992222D01*
X105797900Y-120338380D02*
X103531200Y-120338380D01*
X103531200Y-120338380D02*
X102407720Y-119214900D01*
X101414580Y-110243620D02*
X102671880Y-108986320D01*
X101414580Y-110484920D02*
X101414580Y-110243620D01*
X104496880Y-108986320D02*
X105026460Y-108456740D01*
X102671880Y-108986320D02*
X104496880Y-108986320D01*
X103253320Y-103851840D02*
X103253320Y-103151840D01*
X105026460Y-105624980D02*
X103253320Y-103851840D01*
X105026460Y-108456740D02*
X105026460Y-105624980D01*
X107303320Y-103151840D02*
X107353320Y-103151840D01*
X105026460Y-105428700D02*
X107303320Y-103151840D01*
X105026460Y-105624980D02*
X105026460Y-105428700D01*
X112018960Y-103151840D02*
X112935800Y-102235000D01*
X107353320Y-103151840D02*
X112018960Y-103151840D01*
X111448640Y-103151840D02*
X107353320Y-103151840D01*
X112944800Y-104648000D02*
X111448640Y-103151840D01*
D32*
G04 #@! TO.N,5VDC*
X133320960Y-138940540D02*
X133318420Y-138943080D01*
X131922520Y-137345420D02*
X131610100Y-137657840D01*
X133320960Y-137345420D02*
X131922520Y-137345420D01*
X133320960Y-137345420D02*
X133320960Y-138940540D01*
X133320960Y-136161780D02*
X133320960Y-137345420D01*
X115656360Y-130028760D02*
X115665060Y-130028760D01*
X115665060Y-130028760D02*
X117546120Y-131909820D01*
X107848880Y-106573320D02*
X107721880Y-106446320D01*
X110375700Y-106573320D02*
X107848880Y-106573320D01*
X120533160Y-102956360D02*
X119811800Y-102235000D01*
X121381520Y-102956360D02*
X120533160Y-102956360D01*
D31*
G04 #@! TO.N,Net-(D1-Pad2)*
X117086800Y-104648000D02*
X114994800Y-104648000D01*
X117761800Y-104648000D02*
X117086800Y-104648000D01*
G04 #@! TO.N,Net-(D2-Pad2)*
X117086800Y-102235000D02*
X114985800Y-102235000D01*
X117761800Y-102235000D02*
X117086800Y-102235000D01*
D32*
G04 #@! TO.N,Net-(J1-Pad6)*
X107147900Y-127194780D02*
X107161400Y-127208280D01*
X105797900Y-127194780D02*
X107147900Y-127194780D01*
X113116360Y-132583760D02*
X113116360Y-133338760D01*
X107161400Y-127208280D02*
X107740880Y-127208280D01*
X105772500Y-140504380D02*
X107122500Y-140504380D01*
X105772500Y-140504380D02*
X105772500Y-138720280D01*
X111154020Y-133338760D02*
X113116360Y-133338760D01*
X105772500Y-138720280D02*
X111154020Y-133338760D01*
X109814360Y-116754840D02*
X109814360Y-129281760D01*
X107147900Y-114088380D02*
X109814360Y-116754840D01*
X105797900Y-114088380D02*
X107147900Y-114088380D01*
X107740880Y-127208280D02*
X109814360Y-129281760D01*
X109814360Y-129281760D02*
X113116360Y-132583760D01*
G04 #@! TO.N,Net-(J1-Pad5)*
X105772500Y-141754380D02*
X107564400Y-141754380D01*
X107564400Y-141754380D02*
X108221780Y-141097000D01*
X108686600Y-117677080D02*
X108686600Y-126362460D01*
X105797900Y-115338380D02*
X106347900Y-115338380D01*
X106347900Y-115338380D02*
X108686600Y-117677080D01*
X105797900Y-128444780D02*
X107416120Y-128444780D01*
X107416120Y-128444780D02*
X108668820Y-129697480D01*
X113381600Y-126695200D02*
X113116360Y-126429960D01*
X115140740Y-126695200D02*
X113381600Y-126695200D01*
D31*
G04 #@! TO.N,MIC_1*
X105890898Y-125366780D02*
X107091480Y-125366780D01*
X104622899Y-126634779D02*
X105890898Y-125366780D01*
X104622899Y-129069779D02*
X104622899Y-126634779D01*
X105797900Y-129694780D02*
X105247900Y-129694780D01*
X105247900Y-129694780D02*
X104622899Y-129069779D01*
G04 #@! TO.N,MIC_0*
X106613388Y-124007880D02*
X107121960Y-124007880D01*
X104172890Y-126448378D02*
X106613388Y-124007880D01*
X104172890Y-129869770D02*
X104172890Y-126448378D01*
X105797900Y-130944780D02*
X105247900Y-130944780D01*
X105247900Y-130944780D02*
X104172890Y-129869770D01*
G04 #@! TO.N,HP_0*
X107539710Y-144254380D02*
X108357750Y-143436340D01*
X105772500Y-144254380D02*
X107539710Y-144254380D01*
X112018600Y-144739080D02*
X112018600Y-145189080D01*
X110715860Y-143436340D02*
X112018600Y-144739080D01*
X108357750Y-143436340D02*
X110715860Y-143436340D01*
G04 #@! TO.N,HP_1*
X112018600Y-139139080D02*
X112018600Y-138689080D01*
X108153300Y-143004380D02*
X112018600Y-139139080D01*
X105772500Y-143004380D02*
X108153300Y-143004380D01*
G04 #@! TO.N,GPIO1_2*
X106897900Y-119088380D02*
X107584240Y-119774720D01*
X105797900Y-119088380D02*
X106897900Y-119088380D01*
X107584240Y-119774720D02*
X107584240Y-121373900D01*
X107584240Y-121373900D02*
X106946700Y-122011440D01*
G04 #@! TO.N,GPIO1_9*
X105797900Y-117838380D02*
X104218580Y-117838380D01*
X104218580Y-117838380D02*
X103698040Y-118358920D01*
X132320200Y-147797520D02*
X132330360Y-147787360D01*
X130393440Y-147797520D02*
X132320200Y-147797520D01*
G04 #@! TO.N,GPIO1_4*
X103253320Y-101551840D02*
X104853840Y-101551840D01*
X104853840Y-101551840D02*
X105313480Y-102011480D01*
X105773120Y-101551840D02*
X105313480Y-102011480D01*
X107353320Y-101551840D02*
X105773120Y-101551840D01*
X105734240Y-116652040D02*
X105797900Y-116588380D01*
X103802180Y-116652040D02*
X105734240Y-116652040D01*
D33*
G04 #@! TO.N,AUD_OUT+*
X147739100Y-130822700D02*
X148069300Y-131152900D01*
X137934700Y-138192400D02*
X137934700Y-137517400D01*
X137934700Y-137517400D02*
X141025140Y-134426960D01*
X141025140Y-134426960D02*
X146024600Y-134426960D01*
X144386300Y-131622700D02*
X145699580Y-132935980D01*
X144386300Y-130822700D02*
X144386300Y-131622700D01*
D31*
G04 #@! TO.N,AUD_OUT-*
X147828000Y-128854200D02*
X148069300Y-128612900D01*
X146886820Y-138179700D02*
X148061680Y-139354560D01*
X140182600Y-138179700D02*
X146886820Y-138179700D01*
G04 #@! TO.N,AGND*
X136710400Y-126657100D02*
X136885900Y-126657100D01*
X136885900Y-126657100D02*
X138341100Y-126657100D01*
X138341100Y-126657100D02*
X138430000Y-126746000D01*
X130962400Y-124316600D02*
X131588400Y-124316600D01*
X131588400Y-124316600D02*
X132461000Y-123444000D01*
X130956160Y-124322840D02*
X130962400Y-124316600D01*
X128600200Y-124322840D02*
X130956160Y-124322840D01*
X129979400Y-116433600D02*
X130708400Y-116433600D01*
X130708400Y-116433600D02*
X131953000Y-115189000D01*
X123250960Y-103280320D02*
X121412000Y-105119280D01*
X121412000Y-105119280D02*
X121412000Y-105537000D01*
X148396648Y-119798000D02*
X148396648Y-118488148D01*
X148396648Y-118488148D02*
X147828000Y-117919500D01*
X147768181Y-107607559D02*
X147768181Y-109350681D01*
X147768181Y-109350681D02*
X148209000Y-109791500D01*
X147891500Y-104902000D02*
X147891500Y-103552000D01*
X147891500Y-107484240D02*
X147768181Y-107607559D01*
X147891500Y-104902000D02*
X147891500Y-107484240D01*
G04 #@! TO.N,3V3DC*
X126273560Y-124286120D02*
X125175120Y-124286120D01*
X125175120Y-124286120D02*
X124333000Y-123444000D01*
X124579400Y-118973600D02*
X123088400Y-118973600D01*
X123088400Y-118973600D02*
X122682000Y-119380000D01*
X145718181Y-104918681D02*
X145701500Y-104902000D01*
X145718181Y-107607559D02*
X145718181Y-104918681D01*
X145718181Y-107607559D02*
X145718181Y-109459681D01*
X145718181Y-109459681D02*
X145923000Y-109664500D01*
G04 #@! TO.N,Net-(C2-Pad2)*
X138671300Y-118759500D02*
X138671300Y-119434500D01*
X138671300Y-117112800D02*
X137541500Y-115983000D01*
X138671300Y-119434500D02*
X138671300Y-117112800D01*
G04 #@! TO.N,Net-(C2-Pad1)*
X138920500Y-121235300D02*
X138671300Y-121484500D01*
X133183300Y-117674500D02*
X132994400Y-117863400D01*
X130139200Y-117863400D02*
X129979400Y-117703600D01*
X132994400Y-117863400D02*
X130139200Y-117863400D01*
X136615500Y-121484500D02*
X132994400Y-117863400D01*
X138671300Y-121484500D02*
X136615500Y-121484500D01*
G04 #@! TO.N,MIC_1*
X115658900Y-117348000D02*
X115785900Y-117221000D01*
X114300000Y-117348000D02*
X115658900Y-117348000D01*
G04 #@! TO.N,MIC_0*
X115271440Y-114935000D02*
X115469560Y-114736880D01*
X113284000Y-114935000D02*
X115271440Y-114935000D01*
G04 #@! TO.N,AGND*
X134862500Y-111414500D02*
X134862500Y-110859500D01*
X134862500Y-110859500D02*
X133794500Y-109791500D01*
G04 #@! TO.N,MIC_0*
X139198498Y-103314500D02*
X132911998Y-109601000D01*
X141362500Y-103314500D02*
X139198498Y-103314500D01*
X120605440Y-109601000D02*
X115469560Y-114736880D01*
X132911998Y-109601000D02*
X120605440Y-109601000D01*
G04 #@! TO.N,HP_0*
X115760500Y-139088982D02*
X115760500Y-138176000D01*
X110715860Y-143436340D02*
X111413142Y-143436340D01*
X111413142Y-143436340D02*
X115760500Y-139088982D01*
X141478000Y-110430000D02*
X141362500Y-110314500D01*
X141478000Y-112141000D02*
X141478000Y-110430000D01*
G04 #@! TO.N,HP_1*
X112907180Y-137350500D02*
X114871500Y-137350500D01*
X112018600Y-138689080D02*
X112018600Y-138239080D01*
X112018600Y-138239080D02*
X112907180Y-137350500D01*
X141362500Y-107621000D02*
X141362500Y-106314500D01*
X140462000Y-108521500D02*
X141362500Y-107621000D01*
G04 #@! TO.N,GPIO1_2*
X115570000Y-119888000D02*
X117856000Y-119888000D01*
X136400200Y-124460000D02*
X136336700Y-124396500D01*
X138176000Y-124460000D02*
X136400200Y-124460000D01*
G04 #@! TO.N,Net-(J6-Pad1)*
X146982000Y-115697000D02*
X148082000Y-115697000D01*
X145542000Y-117137000D02*
X146982000Y-115697000D01*
X145542000Y-119798000D02*
X145542000Y-117137000D01*
X142812500Y-117137000D02*
X145542000Y-117137000D01*
X142791500Y-117158000D02*
X142812500Y-117137000D01*
X141541500Y-117158000D02*
X142791500Y-117158000D01*
X145542000Y-119060300D02*
X146189700Y-119708000D01*
X145542000Y-117137000D02*
X145542000Y-119060300D01*
G04 #@! TO.N,AUD_OUT+*
X146304000Y-121272300D02*
X146189700Y-121158000D01*
X146304000Y-123190000D02*
X146304000Y-121272300D01*
G04 #@! TO.N,AUD_OUT-*
X148396648Y-121248000D02*
X148396648Y-122875352D01*
X148396648Y-122875352D02*
X148082000Y-123190000D01*
X144386300Y-128854200D02*
X144386300Y-127774700D01*
X144386300Y-127774700D02*
X145161000Y-127000000D01*
G04 #@! TO.N,ON_MONO1*
X135023500Y-126844700D02*
X134835900Y-126657100D01*
X135023500Y-128819000D02*
X135023500Y-126844700D01*
X134886700Y-126606300D02*
X134835900Y-126657100D01*
X134886700Y-124396500D02*
X134886700Y-126606300D01*
X134212528Y-126033728D02*
X134835900Y-126657100D01*
X122253272Y-126033728D02*
X134212528Y-126033728D01*
X121935100Y-126351900D02*
X122253272Y-126033728D01*
X121935100Y-126901900D02*
X121935100Y-126351900D01*
G04 #@! TO.N,ON_MONO2*
X132618480Y-145775480D02*
X132618480Y-145524220D01*
X133780360Y-147787360D02*
X133780360Y-146937360D01*
X133780360Y-146937360D02*
X132618480Y-145775480D01*
X120935100Y-129501900D02*
X121935100Y-129501900D01*
X120792975Y-129501900D02*
X120935100Y-129501900D01*
X120192800Y-130102075D02*
X120792975Y-129501900D01*
X120192800Y-130667760D02*
X120192800Y-130102075D01*
X137336640Y-147787360D02*
X137566400Y-147557600D01*
X133780360Y-147787360D02*
X137336640Y-147787360D01*
X139874600Y-147557600D02*
X139880700Y-147551500D01*
X137566400Y-147557600D02*
X139874600Y-147557600D01*
D33*
G04 #@! TO.N,Net-(L1-Pad1)*
X142282600Y-130769000D02*
X142336300Y-130822700D01*
X139423500Y-130769000D02*
X142282600Y-130769000D01*
G04 #@! TO.N,Net-(L2-Pad1)*
X142301100Y-128819000D02*
X142336300Y-128854200D01*
X139423500Y-128819000D02*
X142301100Y-128819000D01*
D31*
G04 #@! TO.N,Net-(L3-Pad1)*
X137934700Y-140917400D02*
X137934700Y-140242400D01*
X137934700Y-141680500D02*
X137934700Y-140917400D01*
X139405700Y-143151500D02*
X137934700Y-141680500D01*
X139880700Y-143151500D02*
X139405700Y-143151500D01*
G04 #@! TO.N,Net-(L4-Pad1)*
X141830700Y-141877800D02*
X140182600Y-140229700D01*
X141830700Y-143151500D02*
X141830700Y-141877800D01*
G04 #@! TO.N,Net-(R3-Pad1)*
X116947100Y-147337780D02*
X117622100Y-147337780D01*
X111867300Y-147337780D02*
X116947100Y-147337780D01*
X110718600Y-146189080D02*
X111867300Y-147337780D01*
X110718600Y-145189080D02*
X110718600Y-146189080D01*
G04 #@! TO.N,Net-(R3-Pad2)*
X119595900Y-147261580D02*
X119672100Y-147337780D01*
X119595900Y-144645380D02*
X119595900Y-147261580D01*
X121386700Y-142798800D02*
X122186700Y-142798800D01*
X120642480Y-142798800D02*
X121386700Y-142798800D01*
X119595900Y-143845380D02*
X120642480Y-142798800D01*
X119595900Y-144645380D02*
X119595900Y-143845380D01*
X124447300Y-141457680D02*
X124922300Y-141457680D01*
X123106180Y-142798800D02*
X124447300Y-141457680D01*
X122186700Y-142798800D02*
X123106180Y-142798800D01*
G04 #@! TO.N,Net-(R4-Pad2)*
X117257860Y-140799820D02*
X117563680Y-140799820D01*
X113318600Y-144739080D02*
X117257860Y-140799820D01*
X113318600Y-145189080D02*
X113318600Y-144739080D01*
G04 #@! TO.N,Net-(R5-Pad1)*
X113318600Y-138689080D02*
X113318600Y-140374680D01*
X113318600Y-140374680D02*
X113360200Y-140416280D01*
X117462080Y-144729200D02*
X117545900Y-144645380D01*
X115854480Y-144729200D02*
X117462080Y-144729200D01*
G04 #@! TO.N,Net-(R6-Pad1)*
X110718600Y-137689080D02*
X111816640Y-136591040D01*
X110718600Y-138689080D02*
X110718600Y-137689080D01*
X115780600Y-136591040D02*
X117563680Y-138374120D01*
X111816640Y-136591040D02*
X115780600Y-136591040D01*
G04 #@! TO.N,Mono1*
X134048500Y-130119000D02*
X135023500Y-130119000D01*
X130052200Y-130119000D02*
X134048500Y-130119000D01*
X129435100Y-129501900D02*
X130052200Y-130119000D01*
X128435100Y-129501900D02*
X129435100Y-129501900D01*
G04 #@! TO.N,Mono2*
X125008640Y-129878360D02*
X125008640Y-131521200D01*
X128435100Y-126901900D02*
X127985100Y-126901900D01*
X127985100Y-126901900D02*
X125008640Y-129878360D01*
X141155420Y-147526220D02*
X141180700Y-147551500D01*
X141155420Y-145818860D02*
X141155420Y-147526220D01*
D32*
G04 #@! TO.N,Net-(C3-Pad2)*
X134788740Y-136144000D02*
X134788740Y-133446520D01*
X134770960Y-136161780D02*
X134788740Y-136144000D01*
X137151000Y-133446520D02*
X137653920Y-132943600D01*
X134788740Y-133446520D02*
X137151000Y-133446520D01*
D31*
X138448500Y-130119000D02*
X139423500Y-130119000D01*
X137653920Y-130913580D02*
X138448500Y-130119000D01*
X137653920Y-132943600D02*
X137653920Y-130913580D01*
D32*
G04 #@! TO.N,Net-(C4-Pad2)*
X134768420Y-141648180D02*
X134768420Y-138943080D01*
X134753180Y-141663420D02*
X134768420Y-141648180D01*
D31*
X144075040Y-144320040D02*
X144023080Y-144268080D01*
X146395440Y-144320040D02*
X144075040Y-144320040D01*
X141180700Y-144126500D02*
X142032320Y-144978120D01*
X141180700Y-143151500D02*
X141180700Y-144126500D01*
X143313040Y-144978120D02*
X144023080Y-144268080D01*
X142032320Y-144978120D02*
X143313040Y-144978120D01*
X140892960Y-144414240D02*
X139062460Y-144414240D01*
X141180700Y-144126500D02*
X140892960Y-144414240D01*
X136311640Y-141663420D02*
X134753180Y-141663420D01*
X139062460Y-144414240D02*
X136311640Y-141663420D01*
G04 #@! TO.N,Net-(C6-Pad1)*
X126304040Y-122266600D02*
X126273560Y-122236120D01*
X130962400Y-122266600D02*
X126304040Y-122266600D01*
X132994400Y-120234600D02*
X132994400Y-119913400D01*
X130962400Y-122266600D02*
X132994400Y-120234600D01*
G04 #@! TO.N,Net-(C7-Pad2)*
X119613680Y-140799820D02*
X119613680Y-138374120D01*
X119664700Y-140748800D02*
X119613680Y-140799820D01*
X122186700Y-140748800D02*
X119664700Y-140748800D01*
X129171700Y-136260840D02*
X129171700Y-135770620D01*
X129171700Y-135770620D02*
X129171700Y-134835900D01*
X129171700Y-135935900D02*
X129171700Y-135770620D01*
X130322300Y-142727680D02*
X129297300Y-142727680D01*
X129297300Y-142727680D02*
X126974600Y-140404980D01*
X126946660Y-138673840D02*
X126974600Y-138645900D01*
X122186700Y-139410440D02*
X122923300Y-138673840D01*
X122186700Y-140748800D02*
X122186700Y-139410440D01*
X126974600Y-138645900D02*
X126974600Y-138457940D01*
X126758700Y-138673840D02*
X127081280Y-138351260D01*
X126634240Y-138673840D02*
X126758700Y-138673840D01*
X127081280Y-138351260D02*
X129171700Y-136260840D01*
X126974600Y-138457940D02*
X127081280Y-138351260D01*
X122923300Y-138673840D02*
X126634240Y-138673840D01*
X126974600Y-138897360D02*
X126751080Y-138673840D01*
X126974600Y-139133580D02*
X126974600Y-138897360D01*
X126751080Y-138673840D02*
X126946660Y-138673840D01*
X126634240Y-138673840D02*
X126751080Y-138673840D01*
X126974600Y-139133580D02*
X126974600Y-138645900D01*
X126974600Y-140404980D02*
X126974600Y-139133580D01*
X126186040Y-134835900D02*
X126135240Y-134785100D01*
X129171700Y-134835900D02*
X126186040Y-134835900D01*
G04 #@! TO.N,Net-(C7-Pad1)*
X124085240Y-133985100D02*
X125986540Y-132083800D01*
X124085240Y-134785100D02*
X124085240Y-133985100D01*
X127985100Y-128201900D02*
X128435100Y-128201900D01*
X125986540Y-130200460D02*
X127985100Y-128201900D01*
X125986540Y-132083800D02*
X125986540Y-130200460D01*
G04 #@! TO.N,Net-(C8-Pad2)*
X122444400Y-117703600D02*
X122224800Y-117484000D01*
X124579400Y-117703600D02*
X122444400Y-117703600D01*
X117498900Y-117484000D02*
X117235900Y-117221000D01*
X122224800Y-117484000D02*
X117498900Y-117484000D01*
X117235900Y-115020540D02*
X117519560Y-114736880D01*
X117235900Y-117221000D02*
X117235900Y-115020540D01*
G04 #@! TO.N,Net-(C9-Pad1)*
X123314401Y-101166879D02*
X123250960Y-101230320D01*
X129478161Y-101166879D02*
X123314401Y-101166879D01*
G04 #@! TO.N,Net-(R13-Pad1)*
X124602240Y-104056400D02*
X125435360Y-103223280D01*
X124602240Y-105738160D02*
X124602240Y-104056400D01*
G04 #@! TO.N,Net-(R14-Pad2)*
X125414800Y-115434000D02*
X122224800Y-115434000D01*
X129979400Y-118973600D02*
X128954400Y-118973600D01*
X128954400Y-118973600D02*
X125414800Y-115434000D01*
X122224800Y-115434000D02*
X122224800Y-113614200D01*
X123370840Y-112468160D02*
X124602240Y-112468160D01*
X122224800Y-113614200D02*
X123370840Y-112468160D01*
X125412240Y-112468160D02*
X127142240Y-112468160D01*
X124602240Y-112468160D02*
X125412240Y-112468160D01*
X127952240Y-112468160D02*
X129682240Y-112468160D01*
X127142240Y-112468160D02*
X127952240Y-112468160D01*
G04 #@! TO.N,Net-(R15-Pad1)*
X127142240Y-103602800D02*
X127528161Y-103216879D01*
X127142240Y-105738160D02*
X127142240Y-103602800D01*
G04 #@! TO.N,Net-(R16-Pad1)*
X129682240Y-103420958D02*
X129478161Y-103216879D01*
X129682240Y-105738160D02*
X129682240Y-103420958D01*
G04 #@! TO.N,Net-(SW2-Pad3)*
X145121500Y-103552000D02*
X144208500Y-104465000D01*
X145701500Y-103552000D02*
X145121500Y-103552000D01*
X141541500Y-113758000D02*
X141541500Y-114808000D01*
X144208500Y-111091000D02*
X141541500Y-113758000D01*
X144208500Y-104465000D02*
X144208500Y-111091000D01*
G04 #@! TD*
D34*
G04 #@! TO.N,3V3DC*
G36*
X119458130Y-121095622D02*
X119439038Y-125038110D01*
X115783362Y-125009004D01*
X115783362Y-124851212D01*
X115942110Y-125009960D01*
X116282670Y-125009960D01*
X116516059Y-124913287D01*
X116694687Y-124734658D01*
X116791360Y-124501269D01*
X116791360Y-123405710D01*
X116632610Y-123246960D01*
X115783360Y-123246960D01*
X115783360Y-123266960D01*
X115529360Y-123266960D01*
X115529360Y-123246960D01*
X115509360Y-123246960D01*
X115509360Y-122992960D01*
X115529360Y-122992960D01*
X115529360Y-121388710D01*
X115783360Y-121388710D01*
X115783360Y-122992960D01*
X116632610Y-122992960D01*
X116791360Y-122834210D01*
X116791360Y-121738651D01*
X116694687Y-121505262D01*
X116516059Y-121326633D01*
X116282670Y-121229960D01*
X115942110Y-121229960D01*
X115783360Y-121388710D01*
X115529360Y-121388710D01*
X115370610Y-121229960D01*
X115030050Y-121229960D01*
X114937327Y-121268367D01*
X114939077Y-121045116D01*
X119458130Y-121095622D01*
X119458130Y-121095622D01*
G37*
X119458130Y-121095622D02*
X119439038Y-125038110D01*
X115783362Y-125009004D01*
X115783362Y-124851212D01*
X115942110Y-125009960D01*
X116282670Y-125009960D01*
X116516059Y-124913287D01*
X116694687Y-124734658D01*
X116791360Y-124501269D01*
X116791360Y-123405710D01*
X116632610Y-123246960D01*
X115783360Y-123246960D01*
X115783360Y-123266960D01*
X115529360Y-123266960D01*
X115529360Y-123246960D01*
X115509360Y-123246960D01*
X115509360Y-122992960D01*
X115529360Y-122992960D01*
X115529360Y-121388710D01*
X115783360Y-121388710D01*
X115783360Y-122992960D01*
X116632610Y-122992960D01*
X116791360Y-122834210D01*
X116791360Y-121738651D01*
X116694687Y-121505262D01*
X116516059Y-121326633D01*
X116282670Y-121229960D01*
X115942110Y-121229960D01*
X115783360Y-121388710D01*
X115529360Y-121388710D01*
X115370610Y-121229960D01*
X115030050Y-121229960D01*
X114937327Y-121268367D01*
X114939077Y-121045116D01*
X119458130Y-121095622D01*
G04 #@! TO.N,AUD_OUT+*
G36*
X144792260Y-121658000D02*
X144841543Y-121905765D01*
X144981891Y-122115809D01*
X145191935Y-122256157D01*
X145439700Y-122305440D01*
X146939700Y-122305440D01*
X147187465Y-122256157D01*
X147225827Y-122230524D01*
X147398883Y-122346157D01*
X147451638Y-122356651D01*
X147204569Y-122603720D01*
X147047000Y-122984126D01*
X147047000Y-123395874D01*
X147204569Y-123776280D01*
X147495720Y-124067431D01*
X147876126Y-124225000D01*
X148287874Y-124225000D01*
X148668280Y-124067431D01*
X148959431Y-123776280D01*
X149117000Y-123395874D01*
X149117000Y-123149527D01*
X149156648Y-122950204D01*
X149156648Y-122950200D01*
X149171536Y-122875353D01*
X149156648Y-122800506D01*
X149156648Y-122393451D01*
X149252000Y-122374484D01*
X149252001Y-127710008D01*
X149139925Y-127542275D01*
X148648718Y-127214061D01*
X148215556Y-127127900D01*
X147923044Y-127127900D01*
X147489882Y-127214061D01*
X146998675Y-127542275D01*
X146670461Y-128033482D01*
X146555208Y-128612900D01*
X146670461Y-129192318D01*
X146998675Y-129683525D01*
X147020333Y-129697996D01*
X146859602Y-129764573D01*
X146680973Y-129943201D01*
X146584300Y-130176590D01*
X146584300Y-130867150D01*
X146743050Y-131025900D01*
X147942300Y-131025900D01*
X147942300Y-131005900D01*
X148196300Y-131005900D01*
X148196300Y-131025900D01*
X148216300Y-131025900D01*
X148216300Y-131279900D01*
X148196300Y-131279900D01*
X148196300Y-132479150D01*
X148355050Y-132637900D01*
X149045609Y-132637900D01*
X149252001Y-132552410D01*
X149252001Y-135418207D01*
X149037989Y-135329560D01*
X148347430Y-135329560D01*
X148188680Y-135488310D01*
X148188680Y-136687560D01*
X148208680Y-136687560D01*
X148208680Y-136941560D01*
X148188680Y-136941560D01*
X148188680Y-136961560D01*
X147934680Y-136961560D01*
X147934680Y-136941560D01*
X146735430Y-136941560D01*
X146576680Y-137100310D01*
X146576680Y-137419700D01*
X144296450Y-137419700D01*
X144305976Y-135838250D01*
X146576680Y-135838250D01*
X146576680Y-136528810D01*
X146735430Y-136687560D01*
X147934680Y-136687560D01*
X147934680Y-135488310D01*
X147775930Y-135329560D01*
X147085371Y-135329560D01*
X146851982Y-135426233D01*
X146673353Y-135604861D01*
X146576680Y-135838250D01*
X144305976Y-135838250D01*
X144335426Y-130949700D01*
X144513300Y-130949700D01*
X144513300Y-131998950D01*
X144672050Y-132157700D01*
X145087609Y-132157700D01*
X145320998Y-132061027D01*
X145499627Y-131882399D01*
X145596300Y-131649010D01*
X145596300Y-131438650D01*
X146584300Y-131438650D01*
X146584300Y-132129210D01*
X146680973Y-132362599D01*
X146859602Y-132541227D01*
X147092991Y-132637900D01*
X147783550Y-132637900D01*
X147942300Y-132479150D01*
X147942300Y-131279900D01*
X146743050Y-131279900D01*
X146584300Y-131438650D01*
X145596300Y-131438650D01*
X145596300Y-131108450D01*
X145437550Y-130949700D01*
X144513300Y-130949700D01*
X144335426Y-130949700D01*
X144337077Y-130675700D01*
X144513300Y-130675700D01*
X144513300Y-130695700D01*
X145437550Y-130695700D01*
X145596300Y-130536950D01*
X145596300Y-129996390D01*
X145499627Y-129763001D01*
X145477876Y-129741250D01*
X145540427Y-129647636D01*
X145608740Y-129304201D01*
X145608740Y-128404199D01*
X145540427Y-128060764D01*
X145489322Y-127984280D01*
X145747280Y-127877431D01*
X146038431Y-127586280D01*
X146196000Y-127205874D01*
X146196000Y-126794126D01*
X146038431Y-126413720D01*
X145747280Y-126122569D01*
X145366874Y-125965000D01*
X144955126Y-125965000D01*
X144574720Y-126122569D01*
X144363232Y-126334057D01*
X144398238Y-120523000D01*
X144792260Y-120523000D01*
X144792260Y-121658000D01*
X144792260Y-121658000D01*
G37*
X144792260Y-121658000D02*
X144841543Y-121905765D01*
X144981891Y-122115809D01*
X145191935Y-122256157D01*
X145439700Y-122305440D01*
X146939700Y-122305440D01*
X147187465Y-122256157D01*
X147225827Y-122230524D01*
X147398883Y-122346157D01*
X147451638Y-122356651D01*
X147204569Y-122603720D01*
X147047000Y-122984126D01*
X147047000Y-123395874D01*
X147204569Y-123776280D01*
X147495720Y-124067431D01*
X147876126Y-124225000D01*
X148287874Y-124225000D01*
X148668280Y-124067431D01*
X148959431Y-123776280D01*
X149117000Y-123395874D01*
X149117000Y-123149527D01*
X149156648Y-122950204D01*
X149156648Y-122950200D01*
X149171536Y-122875353D01*
X149156648Y-122800506D01*
X149156648Y-122393451D01*
X149252000Y-122374484D01*
X149252001Y-127710008D01*
X149139925Y-127542275D01*
X148648718Y-127214061D01*
X148215556Y-127127900D01*
X147923044Y-127127900D01*
X147489882Y-127214061D01*
X146998675Y-127542275D01*
X146670461Y-128033482D01*
X146555208Y-128612900D01*
X146670461Y-129192318D01*
X146998675Y-129683525D01*
X147020333Y-129697996D01*
X146859602Y-129764573D01*
X146680973Y-129943201D01*
X146584300Y-130176590D01*
X146584300Y-130867150D01*
X146743050Y-131025900D01*
X147942300Y-131025900D01*
X147942300Y-131005900D01*
X148196300Y-131005900D01*
X148196300Y-131025900D01*
X148216300Y-131025900D01*
X148216300Y-131279900D01*
X148196300Y-131279900D01*
X148196300Y-132479150D01*
X148355050Y-132637900D01*
X149045609Y-132637900D01*
X149252001Y-132552410D01*
X149252001Y-135418207D01*
X149037989Y-135329560D01*
X148347430Y-135329560D01*
X148188680Y-135488310D01*
X148188680Y-136687560D01*
X148208680Y-136687560D01*
X148208680Y-136941560D01*
X148188680Y-136941560D01*
X148188680Y-136961560D01*
X147934680Y-136961560D01*
X147934680Y-136941560D01*
X146735430Y-136941560D01*
X146576680Y-137100310D01*
X146576680Y-137419700D01*
X144296450Y-137419700D01*
X144305976Y-135838250D01*
X146576680Y-135838250D01*
X146576680Y-136528810D01*
X146735430Y-136687560D01*
X147934680Y-136687560D01*
X147934680Y-135488310D01*
X147775930Y-135329560D01*
X147085371Y-135329560D01*
X146851982Y-135426233D01*
X146673353Y-135604861D01*
X146576680Y-135838250D01*
X144305976Y-135838250D01*
X144335426Y-130949700D01*
X144513300Y-130949700D01*
X144513300Y-131998950D01*
X144672050Y-132157700D01*
X145087609Y-132157700D01*
X145320998Y-132061027D01*
X145499627Y-131882399D01*
X145596300Y-131649010D01*
X145596300Y-131438650D01*
X146584300Y-131438650D01*
X146584300Y-132129210D01*
X146680973Y-132362599D01*
X146859602Y-132541227D01*
X147092991Y-132637900D01*
X147783550Y-132637900D01*
X147942300Y-132479150D01*
X147942300Y-131279900D01*
X146743050Y-131279900D01*
X146584300Y-131438650D01*
X145596300Y-131438650D01*
X145596300Y-131108450D01*
X145437550Y-130949700D01*
X144513300Y-130949700D01*
X144335426Y-130949700D01*
X144337077Y-130675700D01*
X144513300Y-130675700D01*
X144513300Y-130695700D01*
X145437550Y-130695700D01*
X145596300Y-130536950D01*
X145596300Y-129996390D01*
X145499627Y-129763001D01*
X145477876Y-129741250D01*
X145540427Y-129647636D01*
X145608740Y-129304201D01*
X145608740Y-128404199D01*
X145540427Y-128060764D01*
X145489322Y-127984280D01*
X145747280Y-127877431D01*
X146038431Y-127586280D01*
X146196000Y-127205874D01*
X146196000Y-126794126D01*
X146038431Y-126413720D01*
X145747280Y-126122569D01*
X145366874Y-125965000D01*
X144955126Y-125965000D01*
X144574720Y-126122569D01*
X144363232Y-126334057D01*
X144398238Y-120523000D01*
X144792260Y-120523000D01*
X144792260Y-121658000D01*
G04 #@! TD*
M02*
