G04 #@! TF.GenerationSoftware,KiCad,Pcbnew,(5.0.0)*
G04 #@! TF.CreationDate,2019-01-07T23:24:32-05:00*
G04 #@! TF.ProjectId,Audio_Breakout,417564696F5F427265616B6F75742E6B,rev?*
G04 #@! TF.SameCoordinates,Original*
G04 #@! TF.FileFunction,Legend,Top*
G04 #@! TF.FilePolarity,Positive*
%FSLAX46Y46*%
G04 Gerber Fmt 4.6, Leading zero omitted, Abs format (unit mm)*
G04 Created by KiCad (PCBNEW (5.0.0)) date 01/07/19 23:24:32*
%MOMM*%
%LPD*%
G01*
G04 APERTURE LIST*
%ADD10C,0.150000*%
%ADD11C,0.200000*%
%ADD12C,0.300000*%
%ADD13C,0.120000*%
G04 APERTURE END LIST*
D10*
X138779903Y-113518581D02*
X138922760Y-113566200D01*
X139160856Y-113566200D01*
X139256094Y-113518581D01*
X139303713Y-113470962D01*
X139351332Y-113375724D01*
X139351332Y-113280486D01*
X139303713Y-113185248D01*
X139256094Y-113137629D01*
X139160856Y-113090010D01*
X138970380Y-113042391D01*
X138875141Y-112994772D01*
X138827522Y-112947153D01*
X138779903Y-112851915D01*
X138779903Y-112756677D01*
X138827522Y-112661439D01*
X138875141Y-112613820D01*
X138970380Y-112566200D01*
X139208475Y-112566200D01*
X139351332Y-112613820D01*
X139779903Y-113566200D02*
X139779903Y-112566200D01*
X140160856Y-112566200D01*
X140256094Y-112613820D01*
X140303713Y-112661439D01*
X140351332Y-112756677D01*
X140351332Y-112899534D01*
X140303713Y-112994772D01*
X140256094Y-113042391D01*
X140160856Y-113090010D01*
X139779903Y-113090010D01*
X140732284Y-112661439D02*
X140779903Y-112613820D01*
X140875141Y-112566200D01*
X141113237Y-112566200D01*
X141208475Y-112613820D01*
X141256094Y-112661439D01*
X141303713Y-112756677D01*
X141303713Y-112851915D01*
X141256094Y-112994772D01*
X140684665Y-113566200D01*
X141303713Y-113566200D01*
X142160856Y-112899534D02*
X142160856Y-113566200D01*
X141922760Y-112518581D02*
X141684665Y-113232867D01*
X142303713Y-113232867D01*
X142589427Y-112566200D02*
X143208475Y-112566200D01*
X142875141Y-112947153D01*
X143017999Y-112947153D01*
X143113237Y-112994772D01*
X143160856Y-113042391D01*
X143208475Y-113137629D01*
X143208475Y-113375724D01*
X143160856Y-113470962D01*
X143113237Y-113518581D01*
X143017999Y-113566200D01*
X142732284Y-113566200D01*
X142637046Y-113518581D01*
X142589427Y-113470962D01*
X143827522Y-112566200D02*
X143922760Y-112566200D01*
X144017999Y-112613820D01*
X144065618Y-112661439D01*
X144113237Y-112756677D01*
X144160856Y-112947153D01*
X144160856Y-113185248D01*
X144113237Y-113375724D01*
X144065618Y-113470962D01*
X144017999Y-113518581D01*
X143922760Y-113566200D01*
X143827522Y-113566200D01*
X143732284Y-113518581D01*
X143684665Y-113470962D01*
X143637046Y-113375724D01*
X143589427Y-113185248D01*
X143589427Y-112947153D01*
X143637046Y-112756677D01*
X143684665Y-112661439D01*
X143732284Y-112613820D01*
X143827522Y-112566200D01*
X144846941Y-124489173D02*
X144894560Y-124346316D01*
X144894560Y-124108220D01*
X144846941Y-124012982D01*
X144799322Y-123965363D01*
X144704084Y-123917744D01*
X144608846Y-123917744D01*
X144513608Y-123965363D01*
X144465989Y-124012982D01*
X144418370Y-124108220D01*
X144370751Y-124298697D01*
X144323132Y-124393935D01*
X144275513Y-124441554D01*
X144180275Y-124489173D01*
X144085037Y-124489173D01*
X143989799Y-124441554D01*
X143942180Y-124393935D01*
X143894560Y-124298697D01*
X143894560Y-124060601D01*
X143942180Y-123917744D01*
X144894560Y-123489173D02*
X143894560Y-123489173D01*
X143894560Y-123108220D01*
X143942180Y-123012982D01*
X143989799Y-122965363D01*
X144085037Y-122917744D01*
X144227894Y-122917744D01*
X144323132Y-122965363D01*
X144370751Y-123012982D01*
X144418370Y-123108220D01*
X144418370Y-123489173D01*
X144894560Y-122489173D02*
X143894560Y-122489173D01*
X144894560Y-121917744D02*
X144323132Y-122346316D01*
X143894560Y-121917744D02*
X144465989Y-122489173D01*
X143989799Y-121536792D02*
X143942180Y-121489173D01*
X143894560Y-121393935D01*
X143894560Y-121155840D01*
X143942180Y-121060601D01*
X143989799Y-121012982D01*
X144085037Y-120965363D01*
X144180275Y-120965363D01*
X144323132Y-121012982D01*
X144894560Y-121584411D01*
X144894560Y-120965363D01*
X144894560Y-120536792D02*
X143894560Y-120536792D01*
X144608846Y-120203459D01*
X143894560Y-119870125D01*
X144894560Y-119870125D01*
X144799322Y-118822506D02*
X144846941Y-118870125D01*
X144894560Y-119012982D01*
X144894560Y-119108220D01*
X144846941Y-119251078D01*
X144751703Y-119346316D01*
X144656465Y-119393935D01*
X144465989Y-119441554D01*
X144323132Y-119441554D01*
X144132656Y-119393935D01*
X144037418Y-119346316D01*
X143942180Y-119251078D01*
X143894560Y-119108220D01*
X143894560Y-119012982D01*
X143942180Y-118870125D01*
X143989799Y-118822506D01*
X133256946Y-122375040D02*
X133161708Y-122327420D01*
X133018851Y-122327420D01*
X132875994Y-122375040D01*
X132780756Y-122470278D01*
X132733137Y-122565516D01*
X132685518Y-122755992D01*
X132685518Y-122898849D01*
X132733137Y-123089325D01*
X132780756Y-123184563D01*
X132875994Y-123279801D01*
X133018851Y-123327420D01*
X133114089Y-123327420D01*
X133256946Y-123279801D01*
X133304565Y-123232182D01*
X133304565Y-122898849D01*
X133114089Y-122898849D01*
X133733137Y-123327420D02*
X133733137Y-122327420D01*
X134114089Y-122327420D01*
X134209327Y-122375040D01*
X134256946Y-122422659D01*
X134304565Y-122517897D01*
X134304565Y-122660754D01*
X134256946Y-122755992D01*
X134209327Y-122803611D01*
X134114089Y-122851230D01*
X133733137Y-122851230D01*
X134733137Y-123327420D02*
X134733137Y-122327420D01*
X135399803Y-122327420D02*
X135590280Y-122327420D01*
X135685518Y-122375040D01*
X135780756Y-122470278D01*
X135828375Y-122660754D01*
X135828375Y-122994087D01*
X135780756Y-123184563D01*
X135685518Y-123279801D01*
X135590280Y-123327420D01*
X135399803Y-123327420D01*
X135304565Y-123279801D01*
X135209327Y-123184563D01*
X135161708Y-122994087D01*
X135161708Y-122660754D01*
X135209327Y-122470278D01*
X135304565Y-122375040D01*
X135399803Y-122327420D01*
X136780756Y-123327420D02*
X136209327Y-123327420D01*
X136495041Y-123327420D02*
X136495041Y-122327420D01*
X136399803Y-122470278D01*
X136304565Y-122565516D01*
X136209327Y-122613135D01*
X136971232Y-123422659D02*
X137733137Y-123422659D01*
X137923613Y-122422659D02*
X137971232Y-122375040D01*
X138066470Y-122327420D01*
X138304565Y-122327420D01*
X138399803Y-122375040D01*
X138447422Y-122422659D01*
X138495041Y-122517897D01*
X138495041Y-122613135D01*
X138447422Y-122755992D01*
X137875994Y-123327420D01*
X138495041Y-123327420D01*
X129187866Y-145565240D02*
X129092628Y-145517620D01*
X128949771Y-145517620D01*
X128806914Y-145565240D01*
X128711676Y-145660478D01*
X128664057Y-145755716D01*
X128616438Y-145946192D01*
X128616438Y-146089049D01*
X128664057Y-146279525D01*
X128711676Y-146374763D01*
X128806914Y-146470001D01*
X128949771Y-146517620D01*
X129045009Y-146517620D01*
X129187866Y-146470001D01*
X129235485Y-146422382D01*
X129235485Y-146089049D01*
X129045009Y-146089049D01*
X129664057Y-146517620D02*
X129664057Y-145517620D01*
X130045009Y-145517620D01*
X130140247Y-145565240D01*
X130187866Y-145612859D01*
X130235485Y-145708097D01*
X130235485Y-145850954D01*
X130187866Y-145946192D01*
X130140247Y-145993811D01*
X130045009Y-146041430D01*
X129664057Y-146041430D01*
X130664057Y-146517620D02*
X130664057Y-145517620D01*
X131330723Y-145517620D02*
X131521200Y-145517620D01*
X131616438Y-145565240D01*
X131711676Y-145660478D01*
X131759295Y-145850954D01*
X131759295Y-146184287D01*
X131711676Y-146374763D01*
X131616438Y-146470001D01*
X131521200Y-146517620D01*
X131330723Y-146517620D01*
X131235485Y-146470001D01*
X131140247Y-146374763D01*
X131092628Y-146184287D01*
X131092628Y-145850954D01*
X131140247Y-145660478D01*
X131235485Y-145565240D01*
X131330723Y-145517620D01*
X132711676Y-146517620D02*
X132140247Y-146517620D01*
X132425961Y-146517620D02*
X132425961Y-145517620D01*
X132330723Y-145660478D01*
X132235485Y-145755716D01*
X132140247Y-145803335D01*
X132902152Y-146612859D02*
X133664057Y-146612859D01*
X133949771Y-146517620D02*
X134140247Y-146517620D01*
X134235485Y-146470001D01*
X134283104Y-146422382D01*
X134378342Y-146279525D01*
X134425961Y-146089049D01*
X134425961Y-145708097D01*
X134378342Y-145612859D01*
X134330723Y-145565240D01*
X134235485Y-145517620D01*
X134045009Y-145517620D01*
X133949771Y-145565240D01*
X133902152Y-145612859D01*
X133854533Y-145708097D01*
X133854533Y-145946192D01*
X133902152Y-146041430D01*
X133949771Y-146089049D01*
X134045009Y-146136668D01*
X134235485Y-146136668D01*
X134330723Y-146089049D01*
X134378342Y-146041430D01*
X134425961Y-145946192D01*
X120986016Y-125969020D02*
X120986016Y-124969020D01*
X121319349Y-125683306D01*
X121652682Y-124969020D01*
X121652682Y-125969020D01*
X122652682Y-125969020D02*
X122081254Y-125969020D01*
X122366968Y-125969020D02*
X122366968Y-124969020D01*
X122271730Y-125111878D01*
X122176492Y-125207116D01*
X122081254Y-125254735D01*
X121077456Y-131579880D02*
X121077456Y-130579880D01*
X121410789Y-131294166D01*
X121744122Y-130579880D01*
X121744122Y-131579880D01*
X122172694Y-130675119D02*
X122220313Y-130627500D01*
X122315551Y-130579880D01*
X122553646Y-130579880D01*
X122648884Y-130627500D01*
X122696503Y-130675119D01*
X122744122Y-130770357D01*
X122744122Y-130865595D01*
X122696503Y-131008452D01*
X122125075Y-131579880D01*
X122744122Y-131579880D01*
D11*
X139067683Y-148976080D02*
G75*
G03X139067683Y-148976080I-360823J0D01*
G01*
X133918617Y-127934720D02*
G75*
G03X133918617Y-127934720I-319697J0D01*
G01*
X145278626Y-102509320D02*
G75*
G03X145278626Y-102509320I-234466J0D01*
G01*
X124545274Y-138551920D02*
G75*
G03X124545274Y-138551920I-590734J0D01*
G01*
D10*
X110101640Y-139799984D02*
X109101640Y-139799984D01*
X109101640Y-139419032D01*
X109149260Y-139323794D01*
X109196879Y-139276175D01*
X109292117Y-139228556D01*
X109434974Y-139228556D01*
X109530212Y-139276175D01*
X109577831Y-139323794D01*
X109625450Y-139419032D01*
X109625450Y-139799984D01*
X109815926Y-138847603D02*
X109815926Y-138371413D01*
X110101640Y-138942841D02*
X109101640Y-138609508D01*
X110101640Y-138276175D01*
X110054021Y-137990460D02*
X110101640Y-137847603D01*
X110101640Y-137609508D01*
X110054021Y-137514270D01*
X110006402Y-137466651D01*
X109911164Y-137419032D01*
X109815926Y-137419032D01*
X109720688Y-137466651D01*
X109673069Y-137514270D01*
X109625450Y-137609508D01*
X109577831Y-137799984D01*
X109530212Y-137895222D01*
X109482593Y-137942841D01*
X109387355Y-137990460D01*
X109292117Y-137990460D01*
X109196879Y-137942841D01*
X109149260Y-137895222D01*
X109101640Y-137799984D01*
X109101640Y-137561889D01*
X109149260Y-137419032D01*
X110054021Y-137038080D02*
X110101640Y-136895222D01*
X110101640Y-136657127D01*
X110054021Y-136561889D01*
X110006402Y-136514270D01*
X109911164Y-136466651D01*
X109815926Y-136466651D01*
X109720688Y-136514270D01*
X109673069Y-136561889D01*
X109625450Y-136657127D01*
X109577831Y-136847603D01*
X109530212Y-136942841D01*
X109482593Y-136990460D01*
X109387355Y-137038080D01*
X109292117Y-137038080D01*
X109196879Y-136990460D01*
X109149260Y-136942841D01*
X109101640Y-136847603D01*
X109101640Y-136609508D01*
X109149260Y-136466651D01*
X110101640Y-136038080D02*
X109101640Y-136038080D01*
X109101640Y-135704746D02*
X110101640Y-135371413D01*
X109101640Y-135038080D01*
X109577831Y-134704746D02*
X109577831Y-134371413D01*
X110101640Y-134228556D02*
X110101640Y-134704746D01*
X109101640Y-134704746D01*
X109101640Y-134228556D01*
X109127040Y-149168810D02*
X109127040Y-148978334D01*
X109174660Y-148883096D01*
X109269898Y-148787858D01*
X109460374Y-148740239D01*
X109793707Y-148740239D01*
X109984183Y-148787858D01*
X110079421Y-148883096D01*
X110127040Y-148978334D01*
X110127040Y-149168810D01*
X110079421Y-149264048D01*
X109984183Y-149359286D01*
X109793707Y-149406905D01*
X109460374Y-149406905D01*
X109269898Y-149359286D01*
X109174660Y-149264048D01*
X109127040Y-149168810D01*
X110127040Y-148311667D02*
X109127040Y-148311667D01*
X109127040Y-147930715D01*
X109174660Y-147835477D01*
X109222279Y-147787858D01*
X109317517Y-147740239D01*
X109460374Y-147740239D01*
X109555612Y-147787858D01*
X109603231Y-147835477D01*
X109650850Y-147930715D01*
X109650850Y-148311667D01*
X110222279Y-147549762D02*
X110222279Y-146787858D01*
X109841326Y-146597381D02*
X109841326Y-146121191D01*
X110127040Y-146692620D02*
X109127040Y-146359286D01*
X110127040Y-146025953D01*
X110127040Y-145692620D02*
X109127040Y-145692620D01*
X109841326Y-145359286D01*
X109127040Y-145025953D01*
X110127040Y-145025953D01*
X110127040Y-144549762D02*
X109127040Y-144549762D01*
X109127040Y-144168810D01*
X109174660Y-144073572D01*
X109222279Y-144025953D01*
X109317517Y-143978334D01*
X109460374Y-143978334D01*
X109555612Y-144025953D01*
X109603231Y-144073572D01*
X109650850Y-144168810D01*
X109650850Y-144549762D01*
D12*
X108585391Y-147200631D02*
X107085391Y-147200631D01*
X107799677Y-147200631D02*
X107799677Y-146343488D01*
X108585391Y-146343488D02*
X107085391Y-146343488D01*
X108585391Y-145629202D02*
X107085391Y-145629202D01*
X107085391Y-145057774D01*
X107156820Y-144914917D01*
X107228248Y-144843488D01*
X107371105Y-144772060D01*
X107585391Y-144772060D01*
X107728248Y-144843488D01*
X107799677Y-144914917D01*
X107871105Y-145057774D01*
X107871105Y-145629202D01*
X107306680Y-119851300D02*
X107235251Y-119994157D01*
X107235251Y-120208442D01*
X107306680Y-120422728D01*
X107449537Y-120565585D01*
X107592394Y-120637014D01*
X107878108Y-120708442D01*
X108092394Y-120708442D01*
X108378108Y-120637014D01*
X108520965Y-120565585D01*
X108663822Y-120422728D01*
X108735251Y-120208442D01*
X108735251Y-120065585D01*
X108663822Y-119851300D01*
X108592394Y-119779871D01*
X108092394Y-119779871D01*
X108092394Y-120065585D01*
X108735251Y-119137014D02*
X107235251Y-119137014D01*
X107235251Y-118565585D01*
X107306680Y-118422728D01*
X107378108Y-118351300D01*
X107520965Y-118279871D01*
X107735251Y-118279871D01*
X107878108Y-118351300D01*
X107949537Y-118422728D01*
X108020965Y-118565585D01*
X108020965Y-119137014D01*
X108735251Y-117637014D02*
X107235251Y-117637014D01*
X107235251Y-116637014D02*
X107235251Y-116351300D01*
X107306680Y-116208442D01*
X107449537Y-116065585D01*
X107735251Y-115994157D01*
X108235251Y-115994157D01*
X108520965Y-116065585D01*
X108663822Y-116208442D01*
X108735251Y-116351300D01*
X108735251Y-116637014D01*
X108663822Y-116779871D01*
X108520965Y-116922728D01*
X108235251Y-116994157D01*
X107735251Y-116994157D01*
X107449537Y-116922728D01*
X107306680Y-116779871D01*
X107235251Y-116637014D01*
X108656511Y-133920822D02*
X107156511Y-133920822D01*
X108227940Y-133420822D01*
X107156511Y-132920822D01*
X108656511Y-132920822D01*
X108656511Y-132206537D02*
X107156511Y-132206537D01*
X108513654Y-130635108D02*
X108585082Y-130706537D01*
X108656511Y-130920822D01*
X108656511Y-131063680D01*
X108585082Y-131277965D01*
X108442225Y-131420822D01*
X108299368Y-131492251D01*
X108013654Y-131563680D01*
X107799368Y-131563680D01*
X107513654Y-131492251D01*
X107370797Y-131420822D01*
X107227940Y-131277965D01*
X107156511Y-131063680D01*
X107156511Y-130920822D01*
X107227940Y-130706537D01*
X107299368Y-130635108D01*
D10*
X106330406Y-104023540D02*
X106235168Y-103975920D01*
X106092311Y-103975920D01*
X105949454Y-104023540D01*
X105854216Y-104118778D01*
X105806597Y-104214016D01*
X105758978Y-104404492D01*
X105758978Y-104547349D01*
X105806597Y-104737825D01*
X105854216Y-104833063D01*
X105949454Y-104928301D01*
X106092311Y-104975920D01*
X106187549Y-104975920D01*
X106330406Y-104928301D01*
X106378025Y-104880682D01*
X106378025Y-104547349D01*
X106187549Y-104547349D01*
X106806597Y-104975920D02*
X106806597Y-103975920D01*
X107187549Y-103975920D01*
X107282787Y-104023540D01*
X107330406Y-104071159D01*
X107378025Y-104166397D01*
X107378025Y-104309254D01*
X107330406Y-104404492D01*
X107282787Y-104452111D01*
X107187549Y-104499730D01*
X106806597Y-104499730D01*
X107806597Y-104975920D02*
X107806597Y-103975920D01*
X108473263Y-103975920D02*
X108663740Y-103975920D01*
X108758978Y-104023540D01*
X108854216Y-104118778D01*
X108901835Y-104309254D01*
X108901835Y-104642587D01*
X108854216Y-104833063D01*
X108758978Y-104928301D01*
X108663740Y-104975920D01*
X108473263Y-104975920D01*
X108378025Y-104928301D01*
X108282787Y-104833063D01*
X108235168Y-104642587D01*
X108235168Y-104309254D01*
X108282787Y-104118778D01*
X108378025Y-104023540D01*
X108473263Y-103975920D01*
X109854216Y-104975920D02*
X109282787Y-104975920D01*
X109568501Y-104975920D02*
X109568501Y-103975920D01*
X109473263Y-104118778D01*
X109378025Y-104214016D01*
X109282787Y-104261635D01*
X110044692Y-105071159D02*
X110806597Y-105071159D01*
X111473263Y-104309254D02*
X111473263Y-104975920D01*
X111235168Y-103928301D02*
X110997073Y-104642587D01*
X111616120Y-104642587D01*
D12*
X110215585Y-107397891D02*
X111144157Y-107397891D01*
X110644157Y-107969320D01*
X110858442Y-107969320D01*
X111001300Y-108040748D01*
X111072728Y-108112177D01*
X111144157Y-108255034D01*
X111144157Y-108612177D01*
X111072728Y-108755034D01*
X111001300Y-108826462D01*
X110858442Y-108897891D01*
X110429871Y-108897891D01*
X110287014Y-108826462D01*
X110215585Y-108755034D01*
X113644157Y-107397891D02*
X112929871Y-107397891D01*
X112858442Y-108112177D01*
X112929871Y-108040748D01*
X113072728Y-107969320D01*
X113429871Y-107969320D01*
X113572728Y-108040748D01*
X113644157Y-108112177D01*
X113715585Y-108255034D01*
X113715585Y-108612177D01*
X113644157Y-108755034D01*
X113572728Y-108826462D01*
X113429871Y-108897891D01*
X113072728Y-108897891D01*
X112929871Y-108826462D01*
X112858442Y-108755034D01*
X110394157Y-111447891D02*
X110394157Y-109947891D01*
X110751300Y-109947891D01*
X110965585Y-110019320D01*
X111108442Y-110162177D01*
X111179871Y-110305034D01*
X111251300Y-110590748D01*
X111251300Y-110805034D01*
X111179871Y-111090748D01*
X111108442Y-111233605D01*
X110965585Y-111376462D01*
X110751300Y-111447891D01*
X110394157Y-111447891D01*
X112965585Y-111019320D02*
X113679871Y-111019320D01*
X112822728Y-111447891D02*
X113322728Y-109947891D01*
X113822728Y-111447891D01*
X110662317Y-121444011D02*
X111590888Y-121444011D01*
X111090888Y-122015440D01*
X111305174Y-122015440D01*
X111448031Y-122086868D01*
X111519460Y-122158297D01*
X111590888Y-122301154D01*
X111590888Y-122658297D01*
X111519460Y-122801154D01*
X111448031Y-122872582D01*
X111305174Y-122944011D01*
X110876602Y-122944011D01*
X110733745Y-122872582D01*
X110662317Y-122801154D01*
X112019460Y-121444011D02*
X112519460Y-122944011D01*
X113019460Y-121444011D01*
X113376602Y-121444011D02*
X114305174Y-121444011D01*
X113805174Y-122015440D01*
X114019460Y-122015440D01*
X114162317Y-122086868D01*
X114233745Y-122158297D01*
X114305174Y-122301154D01*
X114305174Y-122658297D01*
X114233745Y-122801154D01*
X114162317Y-122872582D01*
X114019460Y-122944011D01*
X113590888Y-122944011D01*
X113448031Y-122872582D01*
X113376602Y-122801154D01*
X111918785Y-128548391D02*
X111204500Y-128548391D01*
X111133071Y-129262677D01*
X111204500Y-129191248D01*
X111347357Y-129119820D01*
X111704500Y-129119820D01*
X111847357Y-129191248D01*
X111918785Y-129262677D01*
X111990214Y-129405534D01*
X111990214Y-129762677D01*
X111918785Y-129905534D01*
X111847357Y-129976962D01*
X111704500Y-130048391D01*
X111347357Y-130048391D01*
X111204500Y-129976962D01*
X111133071Y-129905534D01*
X112418785Y-128548391D02*
X112918785Y-130048391D01*
X113418785Y-128548391D01*
D13*
G04 #@! TO.C,J4*
X135612500Y-100114500D02*
X135612500Y-98114500D01*
X140612500Y-100114500D02*
X140612500Y-98114500D01*
X140612500Y-98114500D02*
X135612500Y-98114500D01*
X135612500Y-100114500D02*
X135012500Y-100114500D01*
X141212500Y-100114500D02*
X140612500Y-100114500D01*
X135012500Y-112214500D02*
X141212500Y-112214500D01*
X141212500Y-100114500D02*
X141212500Y-102489500D01*
X141212500Y-104139500D02*
X141212500Y-105489500D01*
X141212500Y-107139500D02*
X141212500Y-109539500D01*
X141212500Y-111089500D02*
X141212500Y-112214500D01*
X135012500Y-110639500D02*
X135012500Y-100114500D01*
X141212500Y-111089500D02*
X142612500Y-111089500D01*
X141212500Y-109539500D02*
X142612500Y-109539500D01*
G04 #@! TO.C,C1*
X146481929Y-108317559D02*
X147004433Y-108317559D01*
X146481929Y-106897559D02*
X147004433Y-106897559D01*
G04 #@! TO.C,C2*
X139381300Y-120720752D02*
X139381300Y-120198248D01*
X137961300Y-120720752D02*
X137961300Y-120198248D01*
G04 #@! TO.C,C3*
X138940172Y-132233600D02*
X138417668Y-132233600D01*
X138940172Y-133653600D02*
X138417668Y-133653600D01*
G04 #@! TO.C,C4*
X147105440Y-145606292D02*
X147105440Y-145083788D01*
X145685440Y-145606292D02*
X145685440Y-145083788D01*
G04 #@! TO.C,C5*
X144733080Y-145554332D02*
X144733080Y-145031828D01*
X143313080Y-145554332D02*
X143313080Y-145031828D01*
G04 #@! TO.C,D1*
X112109800Y-105608000D02*
X114969800Y-105608000D01*
X112109800Y-103688000D02*
X112109800Y-105608000D01*
X114969800Y-103688000D02*
X112109800Y-103688000D01*
G04 #@! TO.C,D2*
X112100800Y-103195000D02*
X114960800Y-103195000D01*
X112100800Y-101275000D02*
X112100800Y-103195000D01*
X114960800Y-101275000D02*
X112100800Y-101275000D01*
G04 #@! TO.C,J1*
X101237900Y-134534780D02*
X101237900Y-126104780D01*
X105707900Y-124834780D02*
X105707900Y-126634780D01*
X104107900Y-124834780D02*
X105707900Y-124834780D01*
X105707900Y-134004780D02*
X106647900Y-134004780D01*
X105707900Y-135804780D02*
X105707900Y-134004780D01*
X104107900Y-135804780D02*
X105707900Y-135804780D01*
G04 #@! TO.C,J2*
X101212500Y-147844380D02*
X101212500Y-139414380D01*
X105682500Y-138144380D02*
X105682500Y-139944380D01*
X104082500Y-138144380D02*
X105682500Y-138144380D01*
X105682500Y-147314380D02*
X106622500Y-147314380D01*
X105682500Y-149114380D02*
X105682500Y-147314380D01*
X104082500Y-149114380D02*
X105682500Y-149114380D01*
G04 #@! TO.C,J3*
X101237900Y-121428380D02*
X101237900Y-112998380D01*
X105707900Y-111728380D02*
X105707900Y-113528380D01*
X104107900Y-111728380D02*
X105707900Y-111728380D01*
X105707900Y-120898380D02*
X106647900Y-120898380D01*
X105707900Y-122698380D02*
X105707900Y-120898380D01*
X104107900Y-122698380D02*
X105707900Y-122698380D01*
G04 #@! TO.C,J5*
X102596880Y-108226320D02*
X102596880Y-107206320D01*
X107796880Y-108226320D02*
X107796880Y-107206320D01*
X102596880Y-105686320D02*
X102596880Y-105116320D01*
X107796880Y-105686320D02*
X107796880Y-105116320D01*
X102596880Y-110316320D02*
X102596880Y-109746320D01*
X107796880Y-110316320D02*
X107796880Y-109746320D01*
X109236880Y-109746320D02*
X107796880Y-109746320D01*
X107796880Y-105116320D02*
X102596880Y-105116320D01*
X107796880Y-110316320D02*
X102596880Y-110316320D01*
G04 #@! TO.C,J6*
X149412000Y-117027000D02*
X148082000Y-117027000D01*
X149412000Y-115697000D02*
X149412000Y-117027000D01*
X149412000Y-114427000D02*
X146752000Y-114427000D01*
X146752000Y-114427000D02*
X146752000Y-111827000D01*
X149412000Y-114427000D02*
X149412000Y-111827000D01*
X149412000Y-111827000D02*
X146752000Y-111827000D01*
G04 #@! TO.C,J7*
X149399300Y-132482900D02*
X148069300Y-132482900D01*
X149399300Y-131152900D02*
X149399300Y-132482900D01*
X149399300Y-129882900D02*
X146739300Y-129882900D01*
X146739300Y-129882900D02*
X146739300Y-127282900D01*
X149399300Y-129882900D02*
X149399300Y-127282900D01*
X149399300Y-127282900D02*
X146739300Y-127282900D01*
G04 #@! TO.C,J8*
X146731680Y-135484560D02*
X148061680Y-135484560D01*
X146731680Y-136814560D02*
X146731680Y-135484560D01*
X146731680Y-138084560D02*
X149391680Y-138084560D01*
X149391680Y-138084560D02*
X149391680Y-140684560D01*
X146731680Y-138084560D02*
X146731680Y-140684560D01*
X146731680Y-140684560D02*
X149391680Y-140684560D01*
G04 #@! TO.C,J9*
X127841700Y-133505900D02*
X129171700Y-133505900D01*
X127841700Y-134835900D02*
X127841700Y-133505900D01*
X127841700Y-136105900D02*
X130501700Y-136105900D01*
X130501700Y-136105900D02*
X130501700Y-136165900D01*
X127841700Y-136105900D02*
X127841700Y-136165900D01*
X127841700Y-136165900D02*
X130501700Y-136165900D01*
G04 #@! TO.C,JP1*
X113876360Y-126104960D02*
X116986360Y-126104960D01*
X116416360Y-123444960D02*
X116986360Y-123444960D01*
X111786360Y-126104960D02*
X112356360Y-126104960D01*
X112356360Y-126104960D02*
X112356360Y-127624960D01*
X111786360Y-123444960D02*
X114896360Y-123444960D01*
X116986360Y-126104960D02*
X116986360Y-123444960D01*
X111786360Y-126104960D02*
X111786360Y-123444960D01*
G04 #@! TO.C,JP2*
X114896360Y-130353760D02*
X111786360Y-130353760D01*
X112356360Y-133013760D02*
X111786360Y-133013760D01*
X116986360Y-130353760D02*
X116416360Y-130353760D01*
X116416360Y-130353760D02*
X116416360Y-128833760D01*
X116986360Y-133013760D02*
X113876360Y-133013760D01*
X111786360Y-130353760D02*
X111786360Y-133013760D01*
X116986360Y-130353760D02*
X116986360Y-133013760D01*
G04 #@! TO.C,JP3*
X147189700Y-119033000D02*
X147189700Y-121833000D01*
X147189700Y-121833000D02*
X145189700Y-121833000D01*
X145189700Y-121833000D02*
X145189700Y-119033000D01*
X145189700Y-119033000D02*
X147189700Y-119033000D01*
G04 #@! TO.C,JP4*
X149396648Y-119123000D02*
X149396648Y-121923000D01*
X149396648Y-121923000D02*
X147396648Y-121923000D01*
X147396648Y-121923000D02*
X147396648Y-119123000D01*
X147396648Y-119123000D02*
X149396648Y-119123000D01*
G04 #@! TO.C,JP6*
X137011700Y-125396500D02*
X134211700Y-125396500D01*
X134211700Y-125396500D02*
X134211700Y-123396500D01*
X134211700Y-123396500D02*
X137011700Y-123396500D01*
X137011700Y-123396500D02*
X137011700Y-125396500D01*
G04 #@! TO.C,JP7*
X131655360Y-146787360D02*
X134455360Y-146787360D01*
X134455360Y-146787360D02*
X134455360Y-148787360D01*
X134455360Y-148787360D02*
X131655360Y-148787360D01*
X131655360Y-148787360D02*
X131655360Y-146787360D01*
G04 #@! TO.C,JP8*
X115110900Y-116221000D02*
X117910900Y-116221000D01*
X117910900Y-116221000D02*
X117910900Y-118221000D01*
X117910900Y-118221000D02*
X115110900Y-118221000D01*
X115110900Y-118221000D02*
X115110900Y-116221000D01*
D10*
G04 #@! TO.C,U2*
X125547300Y-139567680D02*
X124147300Y-139567680D01*
X125547300Y-144667680D02*
X129697300Y-144667680D01*
X125547300Y-139517680D02*
X129697300Y-139517680D01*
X125547300Y-144667680D02*
X125547300Y-144522680D01*
X129697300Y-144667680D02*
X129697300Y-144522680D01*
X129697300Y-139517680D02*
X129697300Y-139662680D01*
X125547300Y-139517680D02*
X125547300Y-139567680D01*
G04 #@! TO.C,U3*
X129354400Y-120863600D02*
X130754400Y-120863600D01*
X129354400Y-115763600D02*
X125204400Y-115763600D01*
X129354400Y-120913600D02*
X125204400Y-120913600D01*
X129354400Y-115763600D02*
X129354400Y-115908600D01*
X125204400Y-115763600D02*
X125204400Y-115908600D01*
X125204400Y-120913600D02*
X125204400Y-120768600D01*
X129354400Y-120913600D02*
X129354400Y-120863600D01*
G04 #@! TO.C,U4*
X139355700Y-147026500D02*
X139355700Y-148276500D01*
X142530700Y-147026500D02*
X142530700Y-143676500D01*
X139180700Y-147026500D02*
X139180700Y-143676500D01*
X142530700Y-147026500D02*
X142280700Y-147026500D01*
X142530700Y-143676500D02*
X142280700Y-143676500D01*
X139180700Y-143676500D02*
X139430700Y-143676500D01*
X139180700Y-147026500D02*
X139355700Y-147026500D01*
G04 #@! TO.C,U5*
X135548500Y-128294000D02*
X134298500Y-128294000D01*
X135548500Y-131469000D02*
X138898500Y-131469000D01*
X135548500Y-128119000D02*
X138898500Y-128119000D01*
X135548500Y-131469000D02*
X135548500Y-131219000D01*
X138898500Y-131469000D02*
X138898500Y-131219000D01*
X138898500Y-128119000D02*
X138898500Y-128369000D01*
X135548500Y-128119000D02*
X135548500Y-128294000D01*
D13*
G04 #@! TO.C,L1*
X143100048Y-131532700D02*
X143622552Y-131532700D01*
X143100048Y-130112700D02*
X143622552Y-130112700D01*
G04 #@! TO.C,L2*
X143100048Y-129564200D02*
X143622552Y-129564200D01*
X143100048Y-128144200D02*
X143622552Y-128144200D01*
G04 #@! TO.C,L3*
X138644700Y-139478652D02*
X138644700Y-138956148D01*
X137224700Y-139478652D02*
X137224700Y-138956148D01*
G04 #@! TO.C,L4*
X140892600Y-139465952D02*
X140892600Y-138943448D01*
X139472600Y-139465952D02*
X139472600Y-138943448D01*
G04 #@! TO.C,R1*
X119048052Y-103938000D02*
X118525548Y-103938000D01*
X119048052Y-105358000D02*
X118525548Y-105358000D01*
G04 #@! TO.C,R2*
X119048052Y-101525000D02*
X118525548Y-101525000D01*
X119048052Y-102945000D02*
X118525548Y-102945000D01*
G04 #@! TO.C,R3*
X118385848Y-148047780D02*
X118908352Y-148047780D01*
X118385848Y-146627780D02*
X118908352Y-146627780D01*
G04 #@! TO.C,R4*
X118849932Y-140089820D02*
X118327428Y-140089820D01*
X118849932Y-141509820D02*
X118327428Y-141509820D01*
G04 #@! TO.C,R5*
X118309648Y-145355380D02*
X118832152Y-145355380D01*
X118309648Y-143935380D02*
X118832152Y-143935380D01*
G04 #@! TO.C,R6*
X118327428Y-139084120D02*
X118849932Y-139084120D01*
X118327428Y-137664120D02*
X118849932Y-137664120D01*
G04 #@! TO.C,R7*
X122896700Y-142035052D02*
X122896700Y-141512548D01*
X121476700Y-142035052D02*
X121476700Y-141512548D01*
G04 #@! TO.C,R8*
X126983560Y-123522372D02*
X126983560Y-122999868D01*
X125563560Y-123522372D02*
X125563560Y-122999868D01*
G04 #@! TO.C,R9*
X127890200Y-123036588D02*
X127890200Y-123559092D01*
X129310200Y-123036588D02*
X129310200Y-123559092D01*
G04 #@! TO.C,R10*
X138276400Y-146793852D02*
X138276400Y-146271348D01*
X136856400Y-146793852D02*
X136856400Y-146271348D01*
G04 #@! TO.C,R11*
X136122152Y-125947100D02*
X135599648Y-125947100D01*
X136122152Y-127367100D02*
X135599648Y-127367100D01*
G04 #@! TO.C,C6*
X130252400Y-123030348D02*
X130252400Y-123552852D01*
X131672400Y-123030348D02*
X131672400Y-123552852D01*
G04 #@! TO.C,C7*
X124848988Y-135495100D02*
X125371492Y-135495100D01*
X124848988Y-134075100D02*
X125371492Y-134075100D01*
G04 #@! TO.C,C8*
X116233308Y-115446880D02*
X116755812Y-115446880D01*
X116233308Y-114026880D02*
X116755812Y-114026880D01*
G04 #@! TO.C,C9*
X122540960Y-101994068D02*
X122540960Y-102516572D01*
X123960960Y-101994068D02*
X123960960Y-102516572D01*
G04 #@! TO.C,5V*
X132643420Y-137943080D02*
X135443420Y-137943080D01*
X135443420Y-137943080D02*
X135443420Y-139943080D01*
X135443420Y-139943080D02*
X132643420Y-139943080D01*
X132643420Y-139943080D02*
X132643420Y-137943080D01*
G04 #@! TO.C,3V3*
X132628180Y-140663420D02*
X135428180Y-140663420D01*
X135428180Y-140663420D02*
X135428180Y-142663420D01*
X135428180Y-142663420D02*
X132628180Y-142663420D01*
X132628180Y-142663420D02*
X132628180Y-140663420D01*
G04 #@! TO.C,5V*
X132645960Y-135161780D02*
X135445960Y-135161780D01*
X135445960Y-135161780D02*
X135445960Y-137161780D01*
X135445960Y-137161780D02*
X132645960Y-137161780D01*
X132645960Y-137161780D02*
X132645960Y-135161780D01*
G04 #@! TO.C,3V3*
X132663740Y-132446520D02*
X135463740Y-132446520D01*
X135463740Y-132446520D02*
X135463740Y-134446520D01*
X135463740Y-134446520D02*
X132663740Y-134446520D01*
X132663740Y-134446520D02*
X132663740Y-132446520D01*
G04 #@! TO.C,R12*
X133704400Y-119149652D02*
X133704400Y-118627148D01*
X132284400Y-119149652D02*
X132284400Y-118627148D01*
G04 #@! TO.C,R13*
X126145360Y-102459532D02*
X126145360Y-101937028D01*
X124725360Y-102459532D02*
X124725360Y-101937028D01*
G04 #@! TO.C,R14*
X122934800Y-116720252D02*
X122934800Y-116197748D01*
X121514800Y-116720252D02*
X121514800Y-116197748D01*
G04 #@! TO.C,R15*
X128238161Y-102453131D02*
X128238161Y-101930627D01*
X126818161Y-102453131D02*
X126818161Y-101930627D01*
G04 #@! TO.C,R16*
X130188161Y-102453131D02*
X130188161Y-101930627D01*
X128768161Y-102453131D02*
X128768161Y-101930627D01*
G04 #@! TO.C,SW4*
X103103320Y-102401840D02*
X103103320Y-102301840D01*
X107503320Y-100801840D02*
X103103320Y-100801840D01*
X103103320Y-103901840D02*
X107503320Y-103901840D01*
X107503320Y-102401840D02*
X107503320Y-102301840D01*
G04 #@! TO.C,SW5*
X129047240Y-109706493D02*
X130317240Y-109706493D01*
X130247240Y-110913160D02*
X130247240Y-109706493D01*
X130127240Y-110913160D02*
X130127240Y-109706493D01*
X130007240Y-110913160D02*
X130007240Y-109706493D01*
X129887240Y-110913160D02*
X129887240Y-109706493D01*
X129767240Y-110913160D02*
X129767240Y-109706493D01*
X129647240Y-110913160D02*
X129647240Y-109706493D01*
X129527240Y-110913160D02*
X129527240Y-109706493D01*
X129407240Y-110913160D02*
X129407240Y-109706493D01*
X129287240Y-110913160D02*
X129287240Y-109706493D01*
X129167240Y-110913160D02*
X129167240Y-109706493D01*
X129047240Y-107293160D02*
X129047240Y-110913160D01*
X130317240Y-107293160D02*
X129047240Y-107293160D01*
X130317240Y-110913160D02*
X130317240Y-107293160D01*
X129047240Y-110913160D02*
X130317240Y-110913160D01*
X126507240Y-109706493D02*
X127777240Y-109706493D01*
X127707240Y-110913160D02*
X127707240Y-109706493D01*
X127587240Y-110913160D02*
X127587240Y-109706493D01*
X127467240Y-110913160D02*
X127467240Y-109706493D01*
X127347240Y-110913160D02*
X127347240Y-109706493D01*
X127227240Y-110913160D02*
X127227240Y-109706493D01*
X127107240Y-110913160D02*
X127107240Y-109706493D01*
X126987240Y-110913160D02*
X126987240Y-109706493D01*
X126867240Y-110913160D02*
X126867240Y-109706493D01*
X126747240Y-110913160D02*
X126747240Y-109706493D01*
X126627240Y-110913160D02*
X126627240Y-109706493D01*
X126507240Y-107293160D02*
X126507240Y-110913160D01*
X127777240Y-107293160D02*
X126507240Y-107293160D01*
X127777240Y-110913160D02*
X127777240Y-107293160D01*
X126507240Y-110913160D02*
X127777240Y-110913160D01*
X123967240Y-109706493D02*
X125237240Y-109706493D01*
X125167240Y-110913160D02*
X125167240Y-109706493D01*
X125047240Y-110913160D02*
X125047240Y-109706493D01*
X124927240Y-110913160D02*
X124927240Y-109706493D01*
X124807240Y-110913160D02*
X124807240Y-109706493D01*
X124687240Y-110913160D02*
X124687240Y-109706493D01*
X124567240Y-110913160D02*
X124567240Y-109706493D01*
X124447240Y-110913160D02*
X124447240Y-109706493D01*
X124327240Y-110913160D02*
X124327240Y-109706493D01*
X124207240Y-110913160D02*
X124207240Y-109706493D01*
X124087240Y-110913160D02*
X124087240Y-109706493D01*
X123967240Y-107293160D02*
X123967240Y-110913160D01*
X125237240Y-107293160D02*
X123967240Y-107293160D01*
X125237240Y-110913160D02*
X125237240Y-107293160D01*
X123967240Y-110913160D02*
X125237240Y-110913160D01*
X122252240Y-112753160D02*
X123635240Y-112753160D01*
X122252240Y-112753160D02*
X122252240Y-111370160D01*
X125402240Y-105693160D02*
X126342240Y-105693160D01*
X122492240Y-105693160D02*
X123802240Y-105693160D01*
X127942240Y-105693160D02*
X128882240Y-105693160D01*
X130482240Y-105693160D02*
X131792240Y-105693160D01*
X130482240Y-112513160D02*
X131792240Y-112513160D01*
X127942240Y-112513160D02*
X128882240Y-112513160D01*
X125402240Y-112513160D02*
X126342240Y-112513160D01*
X122492240Y-112513160D02*
X123802240Y-112513160D01*
X131792240Y-112513160D02*
X131792240Y-105693160D01*
X122492240Y-112513160D02*
X122492240Y-105693160D01*
G04 #@! TO.C,J4*
D10*
X137143240Y-105689993D02*
X137857526Y-105689993D01*
X138000383Y-105737612D01*
X138095621Y-105832850D01*
X138143240Y-105975707D01*
X138143240Y-106070945D01*
X137476574Y-104785231D02*
X138143240Y-104785231D01*
X137095621Y-105023326D02*
X137809907Y-105261421D01*
X137809907Y-104642374D01*
G04 #@! TO.C,C1*
X149582142Y-107773766D02*
X149629761Y-107821385D01*
X149677380Y-107964242D01*
X149677380Y-108059480D01*
X149629761Y-108202338D01*
X149534523Y-108297576D01*
X149439285Y-108345195D01*
X149248809Y-108392814D01*
X149105952Y-108392814D01*
X148915476Y-108345195D01*
X148820238Y-108297576D01*
X148725000Y-108202338D01*
X148677380Y-108059480D01*
X148677380Y-107964242D01*
X148725000Y-107821385D01*
X148772619Y-107773766D01*
X149677380Y-106821385D02*
X149677380Y-107392814D01*
X149677380Y-107107100D02*
X148677380Y-107107100D01*
X148820238Y-107202338D01*
X148915476Y-107297576D01*
X148963095Y-107392814D01*
G04 #@! TO.C,C2*
X137378442Y-120626166D02*
X137426061Y-120673785D01*
X137473680Y-120816642D01*
X137473680Y-120911880D01*
X137426061Y-121054738D01*
X137330823Y-121149976D01*
X137235585Y-121197595D01*
X137045109Y-121245214D01*
X136902252Y-121245214D01*
X136711776Y-121197595D01*
X136616538Y-121149976D01*
X136521300Y-121054738D01*
X136473680Y-120911880D01*
X136473680Y-120816642D01*
X136521300Y-120673785D01*
X136568919Y-120626166D01*
X136568919Y-120245214D02*
X136521300Y-120197595D01*
X136473680Y-120102357D01*
X136473680Y-119864261D01*
X136521300Y-119769023D01*
X136568919Y-119721404D01*
X136664157Y-119673785D01*
X136759395Y-119673785D01*
X136902252Y-119721404D01*
X137473680Y-120292833D01*
X137473680Y-119673785D01*
G04 #@! TO.C,C3*
X138512253Y-134796802D02*
X138464634Y-134844421D01*
X138321777Y-134892040D01*
X138226539Y-134892040D01*
X138083681Y-134844421D01*
X137988443Y-134749183D01*
X137940824Y-134653945D01*
X137893205Y-134463469D01*
X137893205Y-134320612D01*
X137940824Y-134130136D01*
X137988443Y-134034898D01*
X138083681Y-133939660D01*
X138226539Y-133892040D01*
X138321777Y-133892040D01*
X138464634Y-133939660D01*
X138512253Y-133987279D01*
X138845586Y-133892040D02*
X139464634Y-133892040D01*
X139131300Y-134272993D01*
X139274158Y-134272993D01*
X139369396Y-134320612D01*
X139417015Y-134368231D01*
X139464634Y-134463469D01*
X139464634Y-134701564D01*
X139417015Y-134796802D01*
X139369396Y-134844421D01*
X139274158Y-134892040D01*
X138988443Y-134892040D01*
X138893205Y-134844421D01*
X138845586Y-134796802D01*
G04 #@! TO.C,C4*
X146813542Y-142711466D02*
X146861161Y-142759085D01*
X146908780Y-142901942D01*
X146908780Y-142997180D01*
X146861161Y-143140038D01*
X146765923Y-143235276D01*
X146670685Y-143282895D01*
X146480209Y-143330514D01*
X146337352Y-143330514D01*
X146146876Y-143282895D01*
X146051638Y-143235276D01*
X145956400Y-143140038D01*
X145908780Y-142997180D01*
X145908780Y-142901942D01*
X145956400Y-142759085D01*
X146004019Y-142711466D01*
X146242114Y-141854323D02*
X146908780Y-141854323D01*
X145861161Y-142092419D02*
X146575447Y-142330514D01*
X146575447Y-141711466D01*
G04 #@! TO.C,C5*
X144425942Y-142647966D02*
X144473561Y-142695585D01*
X144521180Y-142838442D01*
X144521180Y-142933680D01*
X144473561Y-143076538D01*
X144378323Y-143171776D01*
X144283085Y-143219395D01*
X144092609Y-143267014D01*
X143949752Y-143267014D01*
X143759276Y-143219395D01*
X143664038Y-143171776D01*
X143568800Y-143076538D01*
X143521180Y-142933680D01*
X143521180Y-142838442D01*
X143568800Y-142695585D01*
X143616419Y-142647966D01*
X143521180Y-141743204D02*
X143521180Y-142219395D01*
X143997371Y-142267014D01*
X143949752Y-142219395D01*
X143902133Y-142124157D01*
X143902133Y-141886061D01*
X143949752Y-141790823D01*
X143997371Y-141743204D01*
X144092609Y-141695585D01*
X144330704Y-141695585D01*
X144425942Y-141743204D01*
X144473561Y-141790823D01*
X144521180Y-141886061D01*
X144521180Y-142124157D01*
X144473561Y-142219395D01*
X144425942Y-142267014D01*
G04 #@! TO.C,D1*
X112965004Y-106878380D02*
X112965004Y-105878380D01*
X113203100Y-105878380D01*
X113345957Y-105926000D01*
X113441195Y-106021238D01*
X113488814Y-106116476D01*
X113536433Y-106306952D01*
X113536433Y-106449809D01*
X113488814Y-106640285D01*
X113441195Y-106735523D01*
X113345957Y-106830761D01*
X113203100Y-106878380D01*
X112965004Y-106878380D01*
X114488814Y-106878380D02*
X113917385Y-106878380D01*
X114203100Y-106878380D02*
X114203100Y-105878380D01*
X114107861Y-106021238D01*
X114012623Y-106116476D01*
X113917385Y-106164095D01*
G04 #@! TO.C,D2*
X113066604Y-101214180D02*
X113066604Y-100214180D01*
X113304700Y-100214180D01*
X113447557Y-100261800D01*
X113542795Y-100357038D01*
X113590414Y-100452276D01*
X113638033Y-100642752D01*
X113638033Y-100785609D01*
X113590414Y-100976085D01*
X113542795Y-101071323D01*
X113447557Y-101166561D01*
X113304700Y-101214180D01*
X113066604Y-101214180D01*
X114018985Y-100309419D02*
X114066604Y-100261800D01*
X114161842Y-100214180D01*
X114399938Y-100214180D01*
X114495176Y-100261800D01*
X114542795Y-100309419D01*
X114590414Y-100404657D01*
X114590414Y-100499895D01*
X114542795Y-100642752D01*
X113971366Y-101214180D01*
X114590414Y-101214180D01*
G04 #@! TO.C,J1*
X102284280Y-128184233D02*
X102998566Y-128184233D01*
X103141423Y-128231852D01*
X103236661Y-128327090D01*
X103284280Y-128469947D01*
X103284280Y-128565185D01*
X103284280Y-127184233D02*
X103284280Y-127755661D01*
X103284280Y-127469947D02*
X102284280Y-127469947D01*
X102427138Y-127565185D01*
X102522376Y-127660423D01*
X102569995Y-127755661D01*
G04 #@! TO.C,J2*
X102436680Y-141836733D02*
X103150966Y-141836733D01*
X103293823Y-141884352D01*
X103389061Y-141979590D01*
X103436680Y-142122447D01*
X103436680Y-142217685D01*
X102531919Y-141408161D02*
X102484300Y-141360542D01*
X102436680Y-141265304D01*
X102436680Y-141027209D01*
X102484300Y-140931971D01*
X102531919Y-140884352D01*
X102627157Y-140836733D01*
X102722395Y-140836733D01*
X102865252Y-140884352D01*
X103436680Y-141455780D01*
X103436680Y-140836733D01*
G04 #@! TO.C,J3*
X102335080Y-114773033D02*
X103049366Y-114773033D01*
X103192223Y-114820652D01*
X103287461Y-114915890D01*
X103335080Y-115058747D01*
X103335080Y-115153985D01*
X102335080Y-114392080D02*
X102335080Y-113773033D01*
X102716033Y-114106366D01*
X102716033Y-113963509D01*
X102763652Y-113868271D01*
X102811271Y-113820652D01*
X102906509Y-113773033D01*
X103144604Y-113773033D01*
X103239842Y-113820652D01*
X103287461Y-113868271D01*
X103335080Y-113963509D01*
X103335080Y-114249223D01*
X103287461Y-114344461D01*
X103239842Y-114392080D01*
G04 #@! TO.C,J5*
X106689566Y-110615480D02*
X106689566Y-111329766D01*
X106641947Y-111472623D01*
X106546709Y-111567861D01*
X106403852Y-111615480D01*
X106308614Y-111615480D01*
X107641947Y-110615480D02*
X107165757Y-110615480D01*
X107118138Y-111091671D01*
X107165757Y-111044052D01*
X107260995Y-110996433D01*
X107499090Y-110996433D01*
X107594328Y-111044052D01*
X107641947Y-111091671D01*
X107689566Y-111186909D01*
X107689566Y-111425004D01*
X107641947Y-111520242D01*
X107594328Y-111567861D01*
X107499090Y-111615480D01*
X107260995Y-111615480D01*
X107165757Y-111567861D01*
X107118138Y-111520242D01*
G04 #@! TO.C,J6*
X145451580Y-115052433D02*
X146165866Y-115052433D01*
X146308723Y-115100052D01*
X146403961Y-115195290D01*
X146451580Y-115338147D01*
X146451580Y-115433385D01*
X145451580Y-114147671D02*
X145451580Y-114338147D01*
X145499200Y-114433385D01*
X145546819Y-114481004D01*
X145689676Y-114576242D01*
X145880152Y-114623861D01*
X146261104Y-114623861D01*
X146356342Y-114576242D01*
X146403961Y-114528623D01*
X146451580Y-114433385D01*
X146451580Y-114242909D01*
X146403961Y-114147671D01*
X146356342Y-114100052D01*
X146261104Y-114052433D01*
X146023009Y-114052433D01*
X145927771Y-114100052D01*
X145880152Y-114147671D01*
X145832533Y-114242909D01*
X145832533Y-114433385D01*
X145880152Y-114528623D01*
X145927771Y-114576242D01*
X146023009Y-114623861D01*
G04 #@! TO.C,J7*
X145565880Y-130140033D02*
X146280166Y-130140033D01*
X146423023Y-130187652D01*
X146518261Y-130282890D01*
X146565880Y-130425747D01*
X146565880Y-130520985D01*
X145565880Y-129759080D02*
X145565880Y-129092414D01*
X146565880Y-129520985D01*
G04 #@! TO.C,J8*
X145489680Y-138242633D02*
X146203966Y-138242633D01*
X146346823Y-138290252D01*
X146442061Y-138385490D01*
X146489680Y-138528347D01*
X146489680Y-138623585D01*
X145918252Y-137623585D02*
X145870633Y-137718823D01*
X145823014Y-137766442D01*
X145727776Y-137814061D01*
X145680157Y-137814061D01*
X145584919Y-137766442D01*
X145537300Y-137718823D01*
X145489680Y-137623585D01*
X145489680Y-137433109D01*
X145537300Y-137337871D01*
X145584919Y-137290252D01*
X145680157Y-137242633D01*
X145727776Y-137242633D01*
X145823014Y-137290252D01*
X145870633Y-137337871D01*
X145918252Y-137433109D01*
X145918252Y-137623585D01*
X145965871Y-137718823D01*
X146013490Y-137766442D01*
X146108728Y-137814061D01*
X146299204Y-137814061D01*
X146394442Y-137766442D01*
X146442061Y-137718823D01*
X146489680Y-137623585D01*
X146489680Y-137433109D01*
X146442061Y-137337871D01*
X146394442Y-137290252D01*
X146299204Y-137242633D01*
X146108728Y-137242633D01*
X146013490Y-137290252D01*
X145965871Y-137337871D01*
X145918252Y-137433109D01*
G04 #@! TO.C,J9*
X128749466Y-132289300D02*
X128749466Y-133003586D01*
X128701847Y-133146443D01*
X128606609Y-133241681D01*
X128463752Y-133289300D01*
X128368514Y-133289300D01*
X129273276Y-133289300D02*
X129463752Y-133289300D01*
X129558990Y-133241681D01*
X129606609Y-133194062D01*
X129701847Y-133051205D01*
X129749466Y-132860729D01*
X129749466Y-132479777D01*
X129701847Y-132384539D01*
X129654228Y-132336920D01*
X129558990Y-132289300D01*
X129368514Y-132289300D01*
X129273276Y-132336920D01*
X129225657Y-132384539D01*
X129178038Y-132479777D01*
X129178038Y-132717872D01*
X129225657Y-132813110D01*
X129273276Y-132860729D01*
X129368514Y-132908348D01*
X129558990Y-132908348D01*
X129654228Y-132860729D01*
X129701847Y-132813110D01*
X129749466Y-132717872D01*
G04 #@! TO.C,JP1*
X110238740Y-125608293D02*
X110953026Y-125608293D01*
X111095883Y-125655912D01*
X111191121Y-125751150D01*
X111238740Y-125894007D01*
X111238740Y-125989245D01*
X111238740Y-125132102D02*
X110238740Y-125132102D01*
X110238740Y-124751150D01*
X110286360Y-124655912D01*
X110333979Y-124608293D01*
X110429217Y-124560674D01*
X110572074Y-124560674D01*
X110667312Y-124608293D01*
X110714931Y-124655912D01*
X110762550Y-124751150D01*
X110762550Y-125132102D01*
X111238740Y-123608293D02*
X111238740Y-124179721D01*
X111238740Y-123894007D02*
X110238740Y-123894007D01*
X110381598Y-123989245D01*
X110476836Y-124084483D01*
X110524455Y-124179721D01*
G04 #@! TO.C,JP2*
X110351320Y-132529793D02*
X111065606Y-132529793D01*
X111208463Y-132577412D01*
X111303701Y-132672650D01*
X111351320Y-132815507D01*
X111351320Y-132910745D01*
X111351320Y-132053602D02*
X110351320Y-132053602D01*
X110351320Y-131672650D01*
X110398940Y-131577412D01*
X110446559Y-131529793D01*
X110541797Y-131482174D01*
X110684654Y-131482174D01*
X110779892Y-131529793D01*
X110827511Y-131577412D01*
X110875130Y-131672650D01*
X110875130Y-132053602D01*
X110446559Y-131101221D02*
X110398940Y-131053602D01*
X110351320Y-130958364D01*
X110351320Y-130720269D01*
X110398940Y-130625031D01*
X110446559Y-130577412D01*
X110541797Y-130529793D01*
X110637035Y-130529793D01*
X110779892Y-130577412D01*
X111351320Y-131148840D01*
X111351320Y-130529793D01*
G04 #@! TO.C,JP3*
X145870680Y-125558933D02*
X146584966Y-125558933D01*
X146727823Y-125606552D01*
X146823061Y-125701790D01*
X146870680Y-125844647D01*
X146870680Y-125939885D01*
X146870680Y-125082742D02*
X145870680Y-125082742D01*
X145870680Y-124701790D01*
X145918300Y-124606552D01*
X145965919Y-124558933D01*
X146061157Y-124511314D01*
X146204014Y-124511314D01*
X146299252Y-124558933D01*
X146346871Y-124606552D01*
X146394490Y-124701790D01*
X146394490Y-125082742D01*
X145870680Y-124177980D02*
X145870680Y-123558933D01*
X146251633Y-123892266D01*
X146251633Y-123749409D01*
X146299252Y-123654171D01*
X146346871Y-123606552D01*
X146442109Y-123558933D01*
X146680204Y-123558933D01*
X146775442Y-123606552D01*
X146823061Y-123654171D01*
X146870680Y-123749409D01*
X146870680Y-124035123D01*
X146823061Y-124130361D01*
X146775442Y-124177980D01*
G04 #@! TO.C,JP4*
X148042380Y-125636233D02*
X148756666Y-125636233D01*
X148899523Y-125683852D01*
X148994761Y-125779090D01*
X149042380Y-125921947D01*
X149042380Y-126017185D01*
X149042380Y-125160042D02*
X148042380Y-125160042D01*
X148042380Y-124779090D01*
X148090000Y-124683852D01*
X148137619Y-124636233D01*
X148232857Y-124588614D01*
X148375714Y-124588614D01*
X148470952Y-124636233D01*
X148518571Y-124683852D01*
X148566190Y-124779090D01*
X148566190Y-125160042D01*
X148375714Y-123731471D02*
X149042380Y-123731471D01*
X147994761Y-123969566D02*
X148709047Y-124207661D01*
X148709047Y-123588614D01*
G04 #@! TO.C,JP6*
X137616986Y-123699020D02*
X137616986Y-124413306D01*
X137569367Y-124556163D01*
X137474129Y-124651401D01*
X137331272Y-124699020D01*
X137236034Y-124699020D01*
X138093177Y-124699020D02*
X138093177Y-123699020D01*
X138474129Y-123699020D01*
X138569367Y-123746640D01*
X138616986Y-123794259D01*
X138664605Y-123889497D01*
X138664605Y-124032354D01*
X138616986Y-124127592D01*
X138569367Y-124175211D01*
X138474129Y-124222830D01*
X138093177Y-124222830D01*
X139521748Y-123699020D02*
X139331272Y-123699020D01*
X139236034Y-123746640D01*
X139188415Y-123794259D01*
X139093177Y-123937116D01*
X139045558Y-124127592D01*
X139045558Y-124508544D01*
X139093177Y-124603782D01*
X139140796Y-124651401D01*
X139236034Y-124699020D01*
X139426510Y-124699020D01*
X139521748Y-124651401D01*
X139569367Y-124603782D01*
X139616986Y-124508544D01*
X139616986Y-124270449D01*
X139569367Y-124175211D01*
X139521748Y-124127592D01*
X139426510Y-124079973D01*
X139236034Y-124079973D01*
X139140796Y-124127592D01*
X139093177Y-124175211D01*
X139045558Y-124270449D01*
G04 #@! TO.C,JP7*
X132201706Y-148974560D02*
X132201706Y-149688846D01*
X132154087Y-149831703D01*
X132058849Y-149926941D01*
X131915992Y-149974560D01*
X131820754Y-149974560D01*
X132677897Y-149974560D02*
X132677897Y-148974560D01*
X133058849Y-148974560D01*
X133154087Y-149022180D01*
X133201706Y-149069799D01*
X133249325Y-149165037D01*
X133249325Y-149307894D01*
X133201706Y-149403132D01*
X133154087Y-149450751D01*
X133058849Y-149498370D01*
X132677897Y-149498370D01*
X133582659Y-148974560D02*
X134249325Y-148974560D01*
X133820754Y-149974560D01*
G04 #@! TO.C,JP8*
X115549466Y-118387880D02*
X115549466Y-119102166D01*
X115501847Y-119245023D01*
X115406609Y-119340261D01*
X115263752Y-119387880D01*
X115168514Y-119387880D01*
X116025657Y-119387880D02*
X116025657Y-118387880D01*
X116406609Y-118387880D01*
X116501847Y-118435500D01*
X116549466Y-118483119D01*
X116597085Y-118578357D01*
X116597085Y-118721214D01*
X116549466Y-118816452D01*
X116501847Y-118864071D01*
X116406609Y-118911690D01*
X116025657Y-118911690D01*
X117168514Y-118816452D02*
X117073276Y-118768833D01*
X117025657Y-118721214D01*
X116978038Y-118625976D01*
X116978038Y-118578357D01*
X117025657Y-118483119D01*
X117073276Y-118435500D01*
X117168514Y-118387880D01*
X117358990Y-118387880D01*
X117454228Y-118435500D01*
X117501847Y-118483119D01*
X117549466Y-118578357D01*
X117549466Y-118625976D01*
X117501847Y-118721214D01*
X117454228Y-118768833D01*
X117358990Y-118816452D01*
X117168514Y-118816452D01*
X117073276Y-118864071D01*
X117025657Y-118911690D01*
X116978038Y-119006928D01*
X116978038Y-119197404D01*
X117025657Y-119292642D01*
X117073276Y-119340261D01*
X117168514Y-119387880D01*
X117358990Y-119387880D01*
X117454228Y-119340261D01*
X117501847Y-119292642D01*
X117549466Y-119197404D01*
X117549466Y-119006928D01*
X117501847Y-118911690D01*
X117454228Y-118864071D01*
X117358990Y-118816452D01*
G04 #@! TO.C,SW1*
X112736261Y-143334573D02*
X112783880Y-143191716D01*
X112783880Y-142953620D01*
X112736261Y-142858382D01*
X112688642Y-142810763D01*
X112593404Y-142763144D01*
X112498166Y-142763144D01*
X112402928Y-142810763D01*
X112355309Y-142858382D01*
X112307690Y-142953620D01*
X112260071Y-143144097D01*
X112212452Y-143239335D01*
X112164833Y-143286954D01*
X112069595Y-143334573D01*
X111974357Y-143334573D01*
X111879119Y-143286954D01*
X111831500Y-143239335D01*
X111783880Y-143144097D01*
X111783880Y-142906001D01*
X111831500Y-142763144D01*
X111783880Y-142429811D02*
X112783880Y-142191716D01*
X112069595Y-142001240D01*
X112783880Y-141810763D01*
X111783880Y-141572668D01*
X112783880Y-140667906D02*
X112783880Y-141239335D01*
X112783880Y-140953620D02*
X111783880Y-140953620D01*
X111926738Y-141048859D01*
X112021976Y-141144097D01*
X112069595Y-141239335D01*
G04 #@! TO.C,SW2*
X139982841Y-117482453D02*
X140030460Y-117339596D01*
X140030460Y-117101500D01*
X139982841Y-117006262D01*
X139935222Y-116958643D01*
X139839984Y-116911024D01*
X139744746Y-116911024D01*
X139649508Y-116958643D01*
X139601889Y-117006262D01*
X139554270Y-117101500D01*
X139506651Y-117291977D01*
X139459032Y-117387215D01*
X139411413Y-117434834D01*
X139316175Y-117482453D01*
X139220937Y-117482453D01*
X139125699Y-117434834D01*
X139078080Y-117387215D01*
X139030460Y-117291977D01*
X139030460Y-117053881D01*
X139078080Y-116911024D01*
X139030460Y-116577691D02*
X140030460Y-116339596D01*
X139316175Y-116149120D01*
X140030460Y-115958643D01*
X139030460Y-115720548D01*
X139125699Y-115387215D02*
X139078080Y-115339596D01*
X139030460Y-115244358D01*
X139030460Y-115006262D01*
X139078080Y-114911024D01*
X139125699Y-114863405D01*
X139220937Y-114815786D01*
X139316175Y-114815786D01*
X139459032Y-114863405D01*
X140030460Y-115434834D01*
X140030460Y-114815786D01*
G04 #@! TO.C,SW3*
X123690546Y-129418981D02*
X123833403Y-129466600D01*
X124071499Y-129466600D01*
X124166737Y-129418981D01*
X124214356Y-129371362D01*
X124261975Y-129276124D01*
X124261975Y-129180886D01*
X124214356Y-129085648D01*
X124166737Y-129038029D01*
X124071499Y-128990410D01*
X123881022Y-128942791D01*
X123785784Y-128895172D01*
X123738165Y-128847553D01*
X123690546Y-128752315D01*
X123690546Y-128657077D01*
X123738165Y-128561839D01*
X123785784Y-128514220D01*
X123881022Y-128466600D01*
X124119118Y-128466600D01*
X124261975Y-128514220D01*
X124595308Y-128466600D02*
X124833403Y-129466600D01*
X125023880Y-128752315D01*
X125214356Y-129466600D01*
X125452451Y-128466600D01*
X125738165Y-128466600D02*
X126357213Y-128466600D01*
X126023880Y-128847553D01*
X126166737Y-128847553D01*
X126261975Y-128895172D01*
X126309594Y-128942791D01*
X126357213Y-129038029D01*
X126357213Y-129276124D01*
X126309594Y-129371362D01*
X126261975Y-129418981D01*
X126166737Y-129466600D01*
X125881022Y-129466600D01*
X125785784Y-129418981D01*
X125738165Y-129371362D01*
G04 #@! TO.C,U1*
X148702780Y-104940004D02*
X149512304Y-104940004D01*
X149607542Y-104892385D01*
X149655161Y-104844766D01*
X149702780Y-104749528D01*
X149702780Y-104559052D01*
X149655161Y-104463814D01*
X149607542Y-104416195D01*
X149512304Y-104368576D01*
X148702780Y-104368576D01*
X149702780Y-103368576D02*
X149702780Y-103940004D01*
X149702780Y-103654290D02*
X148702780Y-103654290D01*
X148845638Y-103749528D01*
X148940876Y-103844766D01*
X148988495Y-103940004D01*
G04 #@! TO.C,U2*
X126860395Y-138045060D02*
X126860395Y-138854584D01*
X126908014Y-138949822D01*
X126955633Y-138997441D01*
X127050871Y-139045060D01*
X127241347Y-139045060D01*
X127336585Y-138997441D01*
X127384204Y-138949822D01*
X127431823Y-138854584D01*
X127431823Y-138045060D01*
X127860395Y-138140299D02*
X127908014Y-138092680D01*
X128003252Y-138045060D01*
X128241347Y-138045060D01*
X128336585Y-138092680D01*
X128384204Y-138140299D01*
X128431823Y-138235537D01*
X128431823Y-138330775D01*
X128384204Y-138473632D01*
X127812776Y-139045060D01*
X128431823Y-139045060D01*
G04 #@! TO.C,U3*
X126530195Y-114501680D02*
X126530195Y-115311204D01*
X126577814Y-115406442D01*
X126625433Y-115454061D01*
X126720671Y-115501680D01*
X126911147Y-115501680D01*
X127006385Y-115454061D01*
X127054004Y-115406442D01*
X127101623Y-115311204D01*
X127101623Y-114501680D01*
X127482576Y-114501680D02*
X128101623Y-114501680D01*
X127768290Y-114882633D01*
X127911147Y-114882633D01*
X128006385Y-114930252D01*
X128054004Y-114977871D01*
X128101623Y-115073109D01*
X128101623Y-115311204D01*
X128054004Y-115406442D01*
X128006385Y-115454061D01*
X127911147Y-115501680D01*
X127625433Y-115501680D01*
X127530195Y-115454061D01*
X127482576Y-115406442D01*
G04 #@! TO.C,U4*
X140004895Y-148677380D02*
X140004895Y-149486904D01*
X140052514Y-149582142D01*
X140100133Y-149629761D01*
X140195371Y-149677380D01*
X140385847Y-149677380D01*
X140481085Y-149629761D01*
X140528704Y-149582142D01*
X140576323Y-149486904D01*
X140576323Y-148677380D01*
X141481085Y-149010714D02*
X141481085Y-149677380D01*
X141242990Y-148629761D02*
X141004895Y-149344047D01*
X141623942Y-149344047D01*
G04 #@! TO.C,U5*
X139087955Y-127285500D02*
X139087955Y-128095024D01*
X139135574Y-128190262D01*
X139183193Y-128237881D01*
X139278431Y-128285500D01*
X139468907Y-128285500D01*
X139564145Y-128237881D01*
X139611764Y-128190262D01*
X139659383Y-128095024D01*
X139659383Y-127285500D01*
X140611764Y-127285500D02*
X140135574Y-127285500D01*
X140087955Y-127761691D01*
X140135574Y-127714072D01*
X140230812Y-127666453D01*
X140468907Y-127666453D01*
X140564145Y-127714072D01*
X140611764Y-127761691D01*
X140659383Y-127856929D01*
X140659383Y-128095024D01*
X140611764Y-128190262D01*
X140564145Y-128237881D01*
X140468907Y-128285500D01*
X140230812Y-128285500D01*
X140135574Y-128237881D01*
X140087955Y-128190262D01*
G04 #@! TO.C,L1*
X143194633Y-129625080D02*
X142718442Y-129625080D01*
X142718442Y-128625080D01*
X144051776Y-129625080D02*
X143480347Y-129625080D01*
X143766061Y-129625080D02*
X143766061Y-128625080D01*
X143670823Y-128767938D01*
X143575585Y-128863176D01*
X143480347Y-128910795D01*
G04 #@! TO.C,L2*
X143194633Y-127656580D02*
X142718442Y-127656580D01*
X142718442Y-126656580D01*
X143480347Y-126751819D02*
X143527966Y-126704200D01*
X143623204Y-126656580D01*
X143861300Y-126656580D01*
X143956538Y-126704200D01*
X144004157Y-126751819D01*
X144051776Y-126847057D01*
X144051776Y-126942295D01*
X144004157Y-127085152D01*
X143432728Y-127656580D01*
X144051776Y-127656580D01*
G04 #@! TO.C,L3*
X138514080Y-136653566D02*
X138514080Y-137129757D01*
X137514080Y-137129757D01*
X137514080Y-136415471D02*
X137514080Y-135796423D01*
X137895033Y-136129757D01*
X137895033Y-135986900D01*
X137942652Y-135891661D01*
X137990271Y-135844042D01*
X138085509Y-135796423D01*
X138323604Y-135796423D01*
X138418842Y-135844042D01*
X138466461Y-135891661D01*
X138514080Y-135986900D01*
X138514080Y-136272614D01*
X138466461Y-136367852D01*
X138418842Y-136415471D01*
G04 #@! TO.C,L4*
X140800080Y-136678966D02*
X140800080Y-137155157D01*
X139800080Y-137155157D01*
X140133414Y-135917061D02*
X140800080Y-135917061D01*
X139752461Y-136155157D02*
X140466747Y-136393252D01*
X140466747Y-135774204D01*
G04 #@! TO.C,R1*
X118210033Y-106675180D02*
X117876700Y-106198990D01*
X117638604Y-106675180D02*
X117638604Y-105675180D01*
X118019557Y-105675180D01*
X118114795Y-105722800D01*
X118162414Y-105770419D01*
X118210033Y-105865657D01*
X118210033Y-106008514D01*
X118162414Y-106103752D01*
X118114795Y-106151371D01*
X118019557Y-106198990D01*
X117638604Y-106198990D01*
X119162414Y-106675180D02*
X118590985Y-106675180D01*
X118876700Y-106675180D02*
X118876700Y-105675180D01*
X118781461Y-105818038D01*
X118686223Y-105913276D01*
X118590985Y-105960895D01*
G04 #@! TO.C,R2*
X118210033Y-101163380D02*
X117876700Y-100687190D01*
X117638604Y-101163380D02*
X117638604Y-100163380D01*
X118019557Y-100163380D01*
X118114795Y-100211000D01*
X118162414Y-100258619D01*
X118210033Y-100353857D01*
X118210033Y-100496714D01*
X118162414Y-100591952D01*
X118114795Y-100639571D01*
X118019557Y-100687190D01*
X117638604Y-100687190D01*
X118590985Y-100258619D02*
X118638604Y-100211000D01*
X118733842Y-100163380D01*
X118971938Y-100163380D01*
X119067176Y-100211000D01*
X119114795Y-100258619D01*
X119162414Y-100353857D01*
X119162414Y-100449095D01*
X119114795Y-100591952D01*
X118543366Y-101163380D01*
X119162414Y-101163380D01*
G04 #@! TO.C,R3*
X115647173Y-147894300D02*
X115313840Y-147418110D01*
X115075744Y-147894300D02*
X115075744Y-146894300D01*
X115456697Y-146894300D01*
X115551935Y-146941920D01*
X115599554Y-146989539D01*
X115647173Y-147084777D01*
X115647173Y-147227634D01*
X115599554Y-147322872D01*
X115551935Y-147370491D01*
X115456697Y-147418110D01*
X115075744Y-147418110D01*
X115980506Y-146894300D02*
X116599554Y-146894300D01*
X116266220Y-147275253D01*
X116409078Y-147275253D01*
X116504316Y-147322872D01*
X116551935Y-147370491D01*
X116599554Y-147465729D01*
X116599554Y-147703824D01*
X116551935Y-147799062D01*
X116504316Y-147846681D01*
X116409078Y-147894300D01*
X116123363Y-147894300D01*
X116028125Y-147846681D01*
X115980506Y-147799062D01*
G04 #@! TO.C,R4*
X115593833Y-141536680D02*
X115260500Y-141060490D01*
X115022404Y-141536680D02*
X115022404Y-140536680D01*
X115403357Y-140536680D01*
X115498595Y-140584300D01*
X115546214Y-140631919D01*
X115593833Y-140727157D01*
X115593833Y-140870014D01*
X115546214Y-140965252D01*
X115498595Y-141012871D01*
X115403357Y-141060490D01*
X115022404Y-141060490D01*
X116450976Y-140870014D02*
X116450976Y-141536680D01*
X116212880Y-140489061D02*
X115974785Y-141203347D01*
X116593833Y-141203347D01*
G04 #@! TO.C,R5*
X115728453Y-146106140D02*
X115395120Y-145629950D01*
X115157024Y-146106140D02*
X115157024Y-145106140D01*
X115537977Y-145106140D01*
X115633215Y-145153760D01*
X115680834Y-145201379D01*
X115728453Y-145296617D01*
X115728453Y-145439474D01*
X115680834Y-145534712D01*
X115633215Y-145582331D01*
X115537977Y-145629950D01*
X115157024Y-145629950D01*
X116633215Y-145106140D02*
X116157024Y-145106140D01*
X116109405Y-145582331D01*
X116157024Y-145534712D01*
X116252262Y-145487093D01*
X116490358Y-145487093D01*
X116585596Y-145534712D01*
X116633215Y-145582331D01*
X116680834Y-145677569D01*
X116680834Y-145915664D01*
X116633215Y-146010902D01*
X116585596Y-146058521D01*
X116490358Y-146106140D01*
X116252262Y-146106140D01*
X116157024Y-146058521D01*
X116109405Y-146010902D01*
G04 #@! TO.C,R6*
X115621773Y-139718040D02*
X115288440Y-139241850D01*
X115050344Y-139718040D02*
X115050344Y-138718040D01*
X115431297Y-138718040D01*
X115526535Y-138765660D01*
X115574154Y-138813279D01*
X115621773Y-138908517D01*
X115621773Y-139051374D01*
X115574154Y-139146612D01*
X115526535Y-139194231D01*
X115431297Y-139241850D01*
X115050344Y-139241850D01*
X116478916Y-138718040D02*
X116288440Y-138718040D01*
X116193201Y-138765660D01*
X116145582Y-138813279D01*
X116050344Y-138956136D01*
X116002725Y-139146612D01*
X116002725Y-139527564D01*
X116050344Y-139622802D01*
X116097963Y-139670421D01*
X116193201Y-139718040D01*
X116383678Y-139718040D01*
X116478916Y-139670421D01*
X116526535Y-139622802D01*
X116574154Y-139527564D01*
X116574154Y-139289469D01*
X116526535Y-139194231D01*
X116478916Y-139146612D01*
X116383678Y-139098993D01*
X116193201Y-139098993D01*
X116097963Y-139146612D01*
X116050344Y-139194231D01*
X116002725Y-139289469D01*
G04 #@! TO.C,R7*
X122758460Y-144644406D02*
X122282270Y-144977740D01*
X122758460Y-145215835D02*
X121758460Y-145215835D01*
X121758460Y-144834882D01*
X121806080Y-144739644D01*
X121853699Y-144692025D01*
X121948937Y-144644406D01*
X122091794Y-144644406D01*
X122187032Y-144692025D01*
X122234651Y-144739644D01*
X122282270Y-144834882D01*
X122282270Y-145215835D01*
X121758460Y-144311073D02*
X121758460Y-143644406D01*
X122758460Y-144072978D01*
G04 #@! TO.C,R8*
X126142453Y-126169680D02*
X125809120Y-125693490D01*
X125571024Y-126169680D02*
X125571024Y-125169680D01*
X125951977Y-125169680D01*
X126047215Y-125217300D01*
X126094834Y-125264919D01*
X126142453Y-125360157D01*
X126142453Y-125503014D01*
X126094834Y-125598252D01*
X126047215Y-125645871D01*
X125951977Y-125693490D01*
X125571024Y-125693490D01*
X126713881Y-125598252D02*
X126618643Y-125550633D01*
X126571024Y-125503014D01*
X126523405Y-125407776D01*
X126523405Y-125360157D01*
X126571024Y-125264919D01*
X126618643Y-125217300D01*
X126713881Y-125169680D01*
X126904358Y-125169680D01*
X126999596Y-125217300D01*
X127047215Y-125264919D01*
X127094834Y-125360157D01*
X127094834Y-125407776D01*
X127047215Y-125503014D01*
X126999596Y-125550633D01*
X126904358Y-125598252D01*
X126713881Y-125598252D01*
X126618643Y-125645871D01*
X126571024Y-125693490D01*
X126523405Y-125788728D01*
X126523405Y-125979204D01*
X126571024Y-126074442D01*
X126618643Y-126122061D01*
X126713881Y-126169680D01*
X126904358Y-126169680D01*
X126999596Y-126122061D01*
X127047215Y-126074442D01*
X127094834Y-125979204D01*
X127094834Y-125788728D01*
X127047215Y-125693490D01*
X126999596Y-125645871D01*
X126904358Y-125598252D01*
G04 #@! TO.C,R9*
X128446233Y-126169680D02*
X128112900Y-125693490D01*
X127874804Y-126169680D02*
X127874804Y-125169680D01*
X128255757Y-125169680D01*
X128350995Y-125217300D01*
X128398614Y-125264919D01*
X128446233Y-125360157D01*
X128446233Y-125503014D01*
X128398614Y-125598252D01*
X128350995Y-125645871D01*
X128255757Y-125693490D01*
X127874804Y-125693490D01*
X128922423Y-126169680D02*
X129112900Y-126169680D01*
X129208138Y-126122061D01*
X129255757Y-126074442D01*
X129350995Y-125931585D01*
X129398614Y-125741109D01*
X129398614Y-125360157D01*
X129350995Y-125264919D01*
X129303376Y-125217300D01*
X129208138Y-125169680D01*
X129017661Y-125169680D01*
X128922423Y-125217300D01*
X128874804Y-125264919D01*
X128827185Y-125360157D01*
X128827185Y-125598252D01*
X128874804Y-125693490D01*
X128922423Y-125741109D01*
X129017661Y-125788728D01*
X129208138Y-125788728D01*
X129303376Y-125741109D01*
X129350995Y-125693490D01*
X129398614Y-125598252D01*
G04 #@! TO.C,R10*
X136570980Y-147391357D02*
X136094790Y-147724690D01*
X136570980Y-147962785D02*
X135570980Y-147962785D01*
X135570980Y-147581833D01*
X135618600Y-147486595D01*
X135666219Y-147438976D01*
X135761457Y-147391357D01*
X135904314Y-147391357D01*
X135999552Y-147438976D01*
X136047171Y-147486595D01*
X136094790Y-147581833D01*
X136094790Y-147962785D01*
X136570980Y-146438976D02*
X136570980Y-147010404D01*
X136570980Y-146724690D02*
X135570980Y-146724690D01*
X135713838Y-146819928D01*
X135809076Y-146915166D01*
X135856695Y-147010404D01*
X135570980Y-145819928D02*
X135570980Y-145724690D01*
X135618600Y-145629452D01*
X135666219Y-145581833D01*
X135761457Y-145534214D01*
X135951933Y-145486595D01*
X136190028Y-145486595D01*
X136380504Y-145534214D01*
X136475742Y-145581833D01*
X136523361Y-145629452D01*
X136570980Y-145724690D01*
X136570980Y-145819928D01*
X136523361Y-145915166D01*
X136475742Y-145962785D01*
X136380504Y-146010404D01*
X136190028Y-146058023D01*
X135951933Y-146058023D01*
X135761457Y-146010404D01*
X135666219Y-145962785D01*
X135618600Y-145915166D01*
X135570980Y-145819928D01*
G04 #@! TO.C,R11*
X138366262Y-126631960D02*
X138032929Y-126155770D01*
X137794834Y-126631960D02*
X137794834Y-125631960D01*
X138175786Y-125631960D01*
X138271024Y-125679580D01*
X138318643Y-125727199D01*
X138366262Y-125822437D01*
X138366262Y-125965294D01*
X138318643Y-126060532D01*
X138271024Y-126108151D01*
X138175786Y-126155770D01*
X137794834Y-126155770D01*
X139318643Y-126631960D02*
X138747215Y-126631960D01*
X139032929Y-126631960D02*
X139032929Y-125631960D01*
X138937691Y-125774818D01*
X138842453Y-125870056D01*
X138747215Y-125917675D01*
X140271024Y-126631960D02*
X139699596Y-126631960D01*
X139985310Y-126631960D02*
X139985310Y-125631960D01*
X139890072Y-125774818D01*
X139794834Y-125870056D01*
X139699596Y-125917675D01*
G04 #@! TO.C,C6*
X130821133Y-126130322D02*
X130773514Y-126177941D01*
X130630657Y-126225560D01*
X130535419Y-126225560D01*
X130392561Y-126177941D01*
X130297323Y-126082703D01*
X130249704Y-125987465D01*
X130202085Y-125796989D01*
X130202085Y-125654132D01*
X130249704Y-125463656D01*
X130297323Y-125368418D01*
X130392561Y-125273180D01*
X130535419Y-125225560D01*
X130630657Y-125225560D01*
X130773514Y-125273180D01*
X130821133Y-125320799D01*
X131678276Y-125225560D02*
X131487800Y-125225560D01*
X131392561Y-125273180D01*
X131344942Y-125320799D01*
X131249704Y-125463656D01*
X131202085Y-125654132D01*
X131202085Y-126035084D01*
X131249704Y-126130322D01*
X131297323Y-126177941D01*
X131392561Y-126225560D01*
X131583038Y-126225560D01*
X131678276Y-126177941D01*
X131725895Y-126130322D01*
X131773514Y-126035084D01*
X131773514Y-125796989D01*
X131725895Y-125701751D01*
X131678276Y-125654132D01*
X131583038Y-125606513D01*
X131392561Y-125606513D01*
X131297323Y-125654132D01*
X131249704Y-125701751D01*
X131202085Y-125796989D01*
G04 #@! TO.C,C7*
X124930873Y-136666242D02*
X124883254Y-136713861D01*
X124740397Y-136761480D01*
X124645159Y-136761480D01*
X124502301Y-136713861D01*
X124407063Y-136618623D01*
X124359444Y-136523385D01*
X124311825Y-136332909D01*
X124311825Y-136190052D01*
X124359444Y-135999576D01*
X124407063Y-135904338D01*
X124502301Y-135809100D01*
X124645159Y-135761480D01*
X124740397Y-135761480D01*
X124883254Y-135809100D01*
X124930873Y-135856719D01*
X125264206Y-135761480D02*
X125930873Y-135761480D01*
X125502301Y-136761480D01*
G04 #@! TO.C,C8*
X116368533Y-113603042D02*
X116320914Y-113650661D01*
X116178057Y-113698280D01*
X116082819Y-113698280D01*
X115939961Y-113650661D01*
X115844723Y-113555423D01*
X115797104Y-113460185D01*
X115749485Y-113269709D01*
X115749485Y-113126852D01*
X115797104Y-112936376D01*
X115844723Y-112841138D01*
X115939961Y-112745900D01*
X116082819Y-112698280D01*
X116178057Y-112698280D01*
X116320914Y-112745900D01*
X116368533Y-112793519D01*
X116939961Y-113126852D02*
X116844723Y-113079233D01*
X116797104Y-113031614D01*
X116749485Y-112936376D01*
X116749485Y-112888757D01*
X116797104Y-112793519D01*
X116844723Y-112745900D01*
X116939961Y-112698280D01*
X117130438Y-112698280D01*
X117225676Y-112745900D01*
X117273295Y-112793519D01*
X117320914Y-112888757D01*
X117320914Y-112936376D01*
X117273295Y-113031614D01*
X117225676Y-113079233D01*
X117130438Y-113126852D01*
X116939961Y-113126852D01*
X116844723Y-113174471D01*
X116797104Y-113222090D01*
X116749485Y-113317328D01*
X116749485Y-113507804D01*
X116797104Y-113603042D01*
X116844723Y-113650661D01*
X116939961Y-113698280D01*
X117130438Y-113698280D01*
X117225676Y-113650661D01*
X117273295Y-113603042D01*
X117320914Y-113507804D01*
X117320914Y-113317328D01*
X117273295Y-113222090D01*
X117225676Y-113174471D01*
X117130438Y-113126852D01*
G04 #@! TO.C,C9*
X131383042Y-102439766D02*
X131430661Y-102487385D01*
X131478280Y-102630242D01*
X131478280Y-102725480D01*
X131430661Y-102868338D01*
X131335423Y-102963576D01*
X131240185Y-103011195D01*
X131049709Y-103058814D01*
X130906852Y-103058814D01*
X130716376Y-103011195D01*
X130621138Y-102963576D01*
X130525900Y-102868338D01*
X130478280Y-102725480D01*
X130478280Y-102630242D01*
X130525900Y-102487385D01*
X130573519Y-102439766D01*
X131478280Y-101963576D02*
X131478280Y-101773100D01*
X131430661Y-101677861D01*
X131383042Y-101630242D01*
X131240185Y-101535004D01*
X131049709Y-101487385D01*
X130668757Y-101487385D01*
X130573519Y-101535004D01*
X130525900Y-101582623D01*
X130478280Y-101677861D01*
X130478280Y-101868338D01*
X130525900Y-101963576D01*
X130573519Y-102011195D01*
X130668757Y-102058814D01*
X130906852Y-102058814D01*
X131002090Y-102011195D01*
X131049709Y-101963576D01*
X131097328Y-101868338D01*
X131097328Y-101677861D01*
X131049709Y-101582623D01*
X131002090Y-101535004D01*
X130906852Y-101487385D01*
G04 #@! TO.C,5V*
X135659880Y-139077676D02*
X135659880Y-139553866D01*
X136136071Y-139601485D01*
X136088452Y-139553866D01*
X136040833Y-139458628D01*
X136040833Y-139220533D01*
X136088452Y-139125295D01*
X136136071Y-139077676D01*
X136231309Y-139030057D01*
X136469404Y-139030057D01*
X136564642Y-139077676D01*
X136612261Y-139125295D01*
X136659880Y-139220533D01*
X136659880Y-139458628D01*
X136612261Y-139553866D01*
X136564642Y-139601485D01*
X135659880Y-138744342D02*
X136659880Y-138411009D01*
X135659880Y-138077676D01*
G04 #@! TO.C,3V3*
X135596380Y-143097095D02*
X135596380Y-142478047D01*
X135977333Y-142811380D01*
X135977333Y-142668523D01*
X136024952Y-142573285D01*
X136072571Y-142525666D01*
X136167809Y-142478047D01*
X136405904Y-142478047D01*
X136501142Y-142525666D01*
X136548761Y-142573285D01*
X136596380Y-142668523D01*
X136596380Y-142954238D01*
X136548761Y-143049476D01*
X136501142Y-143097095D01*
X135596380Y-142192333D02*
X136596380Y-141859000D01*
X135596380Y-141525666D01*
X135596380Y-141287571D02*
X135596380Y-140668523D01*
X135977333Y-141001857D01*
X135977333Y-140859000D01*
X136024952Y-140763761D01*
X136072571Y-140716142D01*
X136167809Y-140668523D01*
X136405904Y-140668523D01*
X136501142Y-140716142D01*
X136548761Y-140763761D01*
X136596380Y-140859000D01*
X136596380Y-141144714D01*
X136548761Y-141239952D01*
X136501142Y-141287571D01*
G04 #@! TO.C,5V*
X131319020Y-136679916D02*
X131319020Y-137156106D01*
X131795211Y-137203725D01*
X131747592Y-137156106D01*
X131699973Y-137060868D01*
X131699973Y-136822773D01*
X131747592Y-136727535D01*
X131795211Y-136679916D01*
X131890449Y-136632297D01*
X132128544Y-136632297D01*
X132223782Y-136679916D01*
X132271401Y-136727535D01*
X132319020Y-136822773D01*
X132319020Y-137060868D01*
X132271401Y-137156106D01*
X132223782Y-137203725D01*
X131319020Y-136346582D02*
X132319020Y-136013249D01*
X131319020Y-135679916D01*
G04 #@! TO.C,3V3*
X131372360Y-134666835D02*
X131372360Y-134047787D01*
X131753313Y-134381120D01*
X131753313Y-134238263D01*
X131800932Y-134143025D01*
X131848551Y-134095406D01*
X131943789Y-134047787D01*
X132181884Y-134047787D01*
X132277122Y-134095406D01*
X132324741Y-134143025D01*
X132372360Y-134238263D01*
X132372360Y-134523978D01*
X132324741Y-134619216D01*
X132277122Y-134666835D01*
X131372360Y-133762073D02*
X132372360Y-133428740D01*
X131372360Y-133095406D01*
X131372360Y-132857311D02*
X131372360Y-132238263D01*
X131753313Y-132571597D01*
X131753313Y-132428740D01*
X131800932Y-132333501D01*
X131848551Y-132285882D01*
X131943789Y-132238263D01*
X132181884Y-132238263D01*
X132277122Y-132285882D01*
X132324741Y-132333501D01*
X132372360Y-132428740D01*
X132372360Y-132714454D01*
X132324741Y-132809692D01*
X132277122Y-132857311D01*
G04 #@! TO.C,R12*
X135046980Y-119464057D02*
X134570790Y-119797390D01*
X135046980Y-120035485D02*
X134046980Y-120035485D01*
X134046980Y-119654533D01*
X134094600Y-119559295D01*
X134142219Y-119511676D01*
X134237457Y-119464057D01*
X134380314Y-119464057D01*
X134475552Y-119511676D01*
X134523171Y-119559295D01*
X134570790Y-119654533D01*
X134570790Y-120035485D01*
X135046980Y-118511676D02*
X135046980Y-119083104D01*
X135046980Y-118797390D02*
X134046980Y-118797390D01*
X134189838Y-118892628D01*
X134285076Y-118987866D01*
X134332695Y-119083104D01*
X134142219Y-118130723D02*
X134094600Y-118083104D01*
X134046980Y-117987866D01*
X134046980Y-117749771D01*
X134094600Y-117654533D01*
X134142219Y-117606914D01*
X134237457Y-117559295D01*
X134332695Y-117559295D01*
X134475552Y-117606914D01*
X135046980Y-118178342D01*
X135046980Y-117559295D01*
G04 #@! TO.C,R13*
X132608580Y-102827057D02*
X132132390Y-103160390D01*
X132608580Y-103398485D02*
X131608580Y-103398485D01*
X131608580Y-103017533D01*
X131656200Y-102922295D01*
X131703819Y-102874676D01*
X131799057Y-102827057D01*
X131941914Y-102827057D01*
X132037152Y-102874676D01*
X132084771Y-102922295D01*
X132132390Y-103017533D01*
X132132390Y-103398485D01*
X132608580Y-101874676D02*
X132608580Y-102446104D01*
X132608580Y-102160390D02*
X131608580Y-102160390D01*
X131751438Y-102255628D01*
X131846676Y-102350866D01*
X131894295Y-102446104D01*
X131608580Y-101541342D02*
X131608580Y-100922295D01*
X131989533Y-101255628D01*
X131989533Y-101112771D01*
X132037152Y-101017533D01*
X132084771Y-100969914D01*
X132180009Y-100922295D01*
X132418104Y-100922295D01*
X132513342Y-100969914D01*
X132560961Y-101017533D01*
X132608580Y-101112771D01*
X132608580Y-101398485D01*
X132560961Y-101493723D01*
X132513342Y-101541342D01*
G04 #@! TO.C,R14*
X121165880Y-117127257D02*
X120689690Y-117460590D01*
X121165880Y-117698685D02*
X120165880Y-117698685D01*
X120165880Y-117317733D01*
X120213500Y-117222495D01*
X120261119Y-117174876D01*
X120356357Y-117127257D01*
X120499214Y-117127257D01*
X120594452Y-117174876D01*
X120642071Y-117222495D01*
X120689690Y-117317733D01*
X120689690Y-117698685D01*
X121165880Y-116174876D02*
X121165880Y-116746304D01*
X121165880Y-116460590D02*
X120165880Y-116460590D01*
X120308738Y-116555828D01*
X120403976Y-116651066D01*
X120451595Y-116746304D01*
X120499214Y-115317733D02*
X121165880Y-115317733D01*
X120118261Y-115555828D02*
X120832547Y-115793923D01*
X120832547Y-115174876D01*
G04 #@! TO.C,R15*
X133840480Y-102852457D02*
X133364290Y-103185790D01*
X133840480Y-103423885D02*
X132840480Y-103423885D01*
X132840480Y-103042933D01*
X132888100Y-102947695D01*
X132935719Y-102900076D01*
X133030957Y-102852457D01*
X133173814Y-102852457D01*
X133269052Y-102900076D01*
X133316671Y-102947695D01*
X133364290Y-103042933D01*
X133364290Y-103423885D01*
X133840480Y-101900076D02*
X133840480Y-102471504D01*
X133840480Y-102185790D02*
X132840480Y-102185790D01*
X132983338Y-102281028D01*
X133078576Y-102376266D01*
X133126195Y-102471504D01*
X132840480Y-100995314D02*
X132840480Y-101471504D01*
X133316671Y-101519123D01*
X133269052Y-101471504D01*
X133221433Y-101376266D01*
X133221433Y-101138171D01*
X133269052Y-101042933D01*
X133316671Y-100995314D01*
X133411909Y-100947695D01*
X133650004Y-100947695D01*
X133745242Y-100995314D01*
X133792861Y-101042933D01*
X133840480Y-101138171D01*
X133840480Y-101376266D01*
X133792861Y-101471504D01*
X133745242Y-101519123D01*
G04 #@! TO.C,R16*
X135008880Y-102890557D02*
X134532690Y-103223890D01*
X135008880Y-103461985D02*
X134008880Y-103461985D01*
X134008880Y-103081033D01*
X134056500Y-102985795D01*
X134104119Y-102938176D01*
X134199357Y-102890557D01*
X134342214Y-102890557D01*
X134437452Y-102938176D01*
X134485071Y-102985795D01*
X134532690Y-103081033D01*
X134532690Y-103461985D01*
X135008880Y-101938176D02*
X135008880Y-102509604D01*
X135008880Y-102223890D02*
X134008880Y-102223890D01*
X134151738Y-102319128D01*
X134246976Y-102414366D01*
X134294595Y-102509604D01*
X134008880Y-101081033D02*
X134008880Y-101271509D01*
X134056500Y-101366747D01*
X134104119Y-101414366D01*
X134246976Y-101509604D01*
X134437452Y-101557223D01*
X134818404Y-101557223D01*
X134913642Y-101509604D01*
X134961261Y-101461985D01*
X135008880Y-101366747D01*
X135008880Y-101176271D01*
X134961261Y-101081033D01*
X134913642Y-101033414D01*
X134818404Y-100985795D01*
X134580309Y-100985795D01*
X134485071Y-101033414D01*
X134437452Y-101081033D01*
X134389833Y-101176271D01*
X134389833Y-101366747D01*
X134437452Y-101461985D01*
X134485071Y-101509604D01*
X134580309Y-101557223D01*
G04 #@! TO.C,SW4*
X108305766Y-102080961D02*
X108448623Y-102128580D01*
X108686719Y-102128580D01*
X108781957Y-102080961D01*
X108829576Y-102033342D01*
X108877195Y-101938104D01*
X108877195Y-101842866D01*
X108829576Y-101747628D01*
X108781957Y-101700009D01*
X108686719Y-101652390D01*
X108496242Y-101604771D01*
X108401004Y-101557152D01*
X108353385Y-101509533D01*
X108305766Y-101414295D01*
X108305766Y-101319057D01*
X108353385Y-101223819D01*
X108401004Y-101176200D01*
X108496242Y-101128580D01*
X108734338Y-101128580D01*
X108877195Y-101176200D01*
X109210528Y-101128580D02*
X109448623Y-102128580D01*
X109639100Y-101414295D01*
X109829576Y-102128580D01*
X110067671Y-101128580D01*
X110877195Y-101461914D02*
X110877195Y-102128580D01*
X110639100Y-101080961D02*
X110401004Y-101795247D01*
X111020052Y-101795247D01*
G04 #@! TO.C,SW5*
X133041021Y-110088513D02*
X133088640Y-109945656D01*
X133088640Y-109707560D01*
X133041021Y-109612322D01*
X132993402Y-109564703D01*
X132898164Y-109517084D01*
X132802926Y-109517084D01*
X132707688Y-109564703D01*
X132660069Y-109612322D01*
X132612450Y-109707560D01*
X132564831Y-109898037D01*
X132517212Y-109993275D01*
X132469593Y-110040894D01*
X132374355Y-110088513D01*
X132279117Y-110088513D01*
X132183879Y-110040894D01*
X132136260Y-109993275D01*
X132088640Y-109898037D01*
X132088640Y-109659941D01*
X132136260Y-109517084D01*
X132088640Y-109183751D02*
X133088640Y-108945656D01*
X132374355Y-108755180D01*
X133088640Y-108564703D01*
X132088640Y-108326608D01*
X132088640Y-107469465D02*
X132088640Y-107945656D01*
X132564831Y-107993275D01*
X132517212Y-107945656D01*
X132469593Y-107850418D01*
X132469593Y-107612322D01*
X132517212Y-107517084D01*
X132564831Y-107469465D01*
X132660069Y-107421846D01*
X132898164Y-107421846D01*
X132993402Y-107469465D01*
X133041021Y-107517084D01*
X133088640Y-107612322D01*
X133088640Y-107850418D01*
X133041021Y-107945656D01*
X132993402Y-107993275D01*
G04 #@! TD*
M02*
