G04 #@! TF.GenerationSoftware,KiCad,Pcbnew,(5.0.0)*
G04 #@! TF.CreationDate,2019-01-07T23:24:32-05:00*
G04 #@! TF.ProjectId,Audio_Breakout,417564696F5F427265616B6F75742E6B,rev?*
G04 #@! TF.SameCoordinates,Original*
G04 #@! TF.FileFunction,Soldermask,Top*
G04 #@! TF.FilePolarity,Negative*
%FSLAX46Y46*%
G04 Gerber Fmt 4.6, Leading zero omitted, Abs format (unit mm)*
G04 Created by KiCad (PCBNEW (5.0.0)) date 01/07/19 23:24:32*
%MOMM*%
%LPD*%
G01*
G04 APERTURE LIST*
%ADD10C,0.150000*%
%ADD11C,1.900000*%
%ADD12R,2.900000X1.600000*%
%ADD13C,0.100000*%
%ADD14C,1.550000*%
%ADD15R,3.200000X1.400000*%
%ADD16R,2.100000X1.000000*%
%ADD17R,3.550000X1.400000*%
%ADD18O,2.100000X2.100000*%
%ADD19R,2.100000X2.100000*%
%ADD20R,1.400000X2.910000*%
%ADD21C,0.300000*%
%ADD22R,1.000000X1.900000*%
%ADD23R,2.400000X2.000000*%
%ADD24R,1.900000X1.000000*%
%ADD25R,1.060000X1.300000*%
%ADD26R,1.950000X1.000000*%
%ADD27R,0.850000X1.850000*%
%ADD28R,1.850000X0.850000*%
%ADD29R,1.400000X1.300000*%
%ADD30R,1.520000X2.560000*%
G04 APERTURE END LIST*
D10*
G36*
X120982740Y-147068540D02*
X120919240Y-150020020D01*
X129192020Y-150083520D01*
X129171700Y-147154900D01*
X120982740Y-147068540D01*
G37*
X120982740Y-147068540D02*
X120919240Y-150020020D01*
X129192020Y-150083520D01*
X129171700Y-147154900D01*
X120982740Y-147068540D01*
D11*
G04 #@! TO.C,J4*
X138112500Y-108714500D03*
X138112500Y-101714500D03*
D12*
X141362500Y-103314500D03*
X141362500Y-106314500D03*
X141362500Y-110314500D03*
X134862500Y-111414500D03*
G04 #@! TD*
D13*
G04 #@! TO.C,C1*
G36*
X148239252Y-106709182D02*
X148271962Y-106714034D01*
X148304038Y-106722068D01*
X148335172Y-106733208D01*
X148365065Y-106747346D01*
X148393428Y-106764346D01*
X148419988Y-106784044D01*
X148444489Y-106806251D01*
X148466696Y-106830752D01*
X148486394Y-106857312D01*
X148503394Y-106885675D01*
X148517532Y-106915568D01*
X148528672Y-106946702D01*
X148536706Y-106978778D01*
X148541558Y-107011488D01*
X148543181Y-107044515D01*
X148543181Y-108170603D01*
X148541558Y-108203630D01*
X148536706Y-108236340D01*
X148528672Y-108268416D01*
X148517532Y-108299550D01*
X148503394Y-108329443D01*
X148486394Y-108357806D01*
X148466696Y-108384366D01*
X148444489Y-108408867D01*
X148419988Y-108431074D01*
X148393428Y-108450772D01*
X148365065Y-108467772D01*
X148335172Y-108481910D01*
X148304038Y-108493050D01*
X148271962Y-108501084D01*
X148239252Y-108505936D01*
X148206225Y-108507559D01*
X147330137Y-108507559D01*
X147297110Y-108505936D01*
X147264400Y-108501084D01*
X147232324Y-108493050D01*
X147201190Y-108481910D01*
X147171297Y-108467772D01*
X147142934Y-108450772D01*
X147116374Y-108431074D01*
X147091873Y-108408867D01*
X147069666Y-108384366D01*
X147049968Y-108357806D01*
X147032968Y-108329443D01*
X147018830Y-108299550D01*
X147007690Y-108268416D01*
X146999656Y-108236340D01*
X146994804Y-108203630D01*
X146993181Y-108170603D01*
X146993181Y-107044515D01*
X146994804Y-107011488D01*
X146999656Y-106978778D01*
X147007690Y-106946702D01*
X147018830Y-106915568D01*
X147032968Y-106885675D01*
X147049968Y-106857312D01*
X147069666Y-106830752D01*
X147091873Y-106806251D01*
X147116374Y-106784044D01*
X147142934Y-106764346D01*
X147171297Y-106747346D01*
X147201190Y-106733208D01*
X147232324Y-106722068D01*
X147264400Y-106714034D01*
X147297110Y-106709182D01*
X147330137Y-106707559D01*
X148206225Y-106707559D01*
X148239252Y-106709182D01*
X148239252Y-106709182D01*
G37*
D14*
X147768181Y-107607559D03*
D13*
G36*
X146189252Y-106709182D02*
X146221962Y-106714034D01*
X146254038Y-106722068D01*
X146285172Y-106733208D01*
X146315065Y-106747346D01*
X146343428Y-106764346D01*
X146369988Y-106784044D01*
X146394489Y-106806251D01*
X146416696Y-106830752D01*
X146436394Y-106857312D01*
X146453394Y-106885675D01*
X146467532Y-106915568D01*
X146478672Y-106946702D01*
X146486706Y-106978778D01*
X146491558Y-107011488D01*
X146493181Y-107044515D01*
X146493181Y-108170603D01*
X146491558Y-108203630D01*
X146486706Y-108236340D01*
X146478672Y-108268416D01*
X146467532Y-108299550D01*
X146453394Y-108329443D01*
X146436394Y-108357806D01*
X146416696Y-108384366D01*
X146394489Y-108408867D01*
X146369988Y-108431074D01*
X146343428Y-108450772D01*
X146315065Y-108467772D01*
X146285172Y-108481910D01*
X146254038Y-108493050D01*
X146221962Y-108501084D01*
X146189252Y-108505936D01*
X146156225Y-108507559D01*
X145280137Y-108507559D01*
X145247110Y-108505936D01*
X145214400Y-108501084D01*
X145182324Y-108493050D01*
X145151190Y-108481910D01*
X145121297Y-108467772D01*
X145092934Y-108450772D01*
X145066374Y-108431074D01*
X145041873Y-108408867D01*
X145019666Y-108384366D01*
X144999968Y-108357806D01*
X144982968Y-108329443D01*
X144968830Y-108299550D01*
X144957690Y-108268416D01*
X144949656Y-108236340D01*
X144944804Y-108203630D01*
X144943181Y-108170603D01*
X144943181Y-107044515D01*
X144944804Y-107011488D01*
X144949656Y-106978778D01*
X144957690Y-106946702D01*
X144968830Y-106915568D01*
X144982968Y-106885675D01*
X144999968Y-106857312D01*
X145019666Y-106830752D01*
X145041873Y-106806251D01*
X145066374Y-106784044D01*
X145092934Y-106764346D01*
X145121297Y-106747346D01*
X145151190Y-106733208D01*
X145182324Y-106722068D01*
X145214400Y-106714034D01*
X145247110Y-106709182D01*
X145280137Y-106707559D01*
X146156225Y-106707559D01*
X146189252Y-106709182D01*
X146189252Y-106709182D01*
G37*
D14*
X145718181Y-107607559D03*
G04 #@! TD*
D13*
G04 #@! TO.C,C2*
G36*
X139267371Y-118661123D02*
X139300081Y-118665975D01*
X139332157Y-118674009D01*
X139363291Y-118685149D01*
X139393184Y-118699287D01*
X139421547Y-118716287D01*
X139448107Y-118735985D01*
X139472608Y-118758192D01*
X139494815Y-118782693D01*
X139514513Y-118809253D01*
X139531513Y-118837616D01*
X139545651Y-118867509D01*
X139556791Y-118898643D01*
X139564825Y-118930719D01*
X139569677Y-118963429D01*
X139571300Y-118996456D01*
X139571300Y-119872544D01*
X139569677Y-119905571D01*
X139564825Y-119938281D01*
X139556791Y-119970357D01*
X139545651Y-120001491D01*
X139531513Y-120031384D01*
X139514513Y-120059747D01*
X139494815Y-120086307D01*
X139472608Y-120110808D01*
X139448107Y-120133015D01*
X139421547Y-120152713D01*
X139393184Y-120169713D01*
X139363291Y-120183851D01*
X139332157Y-120194991D01*
X139300081Y-120203025D01*
X139267371Y-120207877D01*
X139234344Y-120209500D01*
X138108256Y-120209500D01*
X138075229Y-120207877D01*
X138042519Y-120203025D01*
X138010443Y-120194991D01*
X137979309Y-120183851D01*
X137949416Y-120169713D01*
X137921053Y-120152713D01*
X137894493Y-120133015D01*
X137869992Y-120110808D01*
X137847785Y-120086307D01*
X137828087Y-120059747D01*
X137811087Y-120031384D01*
X137796949Y-120001491D01*
X137785809Y-119970357D01*
X137777775Y-119938281D01*
X137772923Y-119905571D01*
X137771300Y-119872544D01*
X137771300Y-118996456D01*
X137772923Y-118963429D01*
X137777775Y-118930719D01*
X137785809Y-118898643D01*
X137796949Y-118867509D01*
X137811087Y-118837616D01*
X137828087Y-118809253D01*
X137847785Y-118782693D01*
X137869992Y-118758192D01*
X137894493Y-118735985D01*
X137921053Y-118716287D01*
X137949416Y-118699287D01*
X137979309Y-118685149D01*
X138010443Y-118674009D01*
X138042519Y-118665975D01*
X138075229Y-118661123D01*
X138108256Y-118659500D01*
X139234344Y-118659500D01*
X139267371Y-118661123D01*
X139267371Y-118661123D01*
G37*
D14*
X138671300Y-119434500D03*
D13*
G36*
X139267371Y-120711123D02*
X139300081Y-120715975D01*
X139332157Y-120724009D01*
X139363291Y-120735149D01*
X139393184Y-120749287D01*
X139421547Y-120766287D01*
X139448107Y-120785985D01*
X139472608Y-120808192D01*
X139494815Y-120832693D01*
X139514513Y-120859253D01*
X139531513Y-120887616D01*
X139545651Y-120917509D01*
X139556791Y-120948643D01*
X139564825Y-120980719D01*
X139569677Y-121013429D01*
X139571300Y-121046456D01*
X139571300Y-121922544D01*
X139569677Y-121955571D01*
X139564825Y-121988281D01*
X139556791Y-122020357D01*
X139545651Y-122051491D01*
X139531513Y-122081384D01*
X139514513Y-122109747D01*
X139494815Y-122136307D01*
X139472608Y-122160808D01*
X139448107Y-122183015D01*
X139421547Y-122202713D01*
X139393184Y-122219713D01*
X139363291Y-122233851D01*
X139332157Y-122244991D01*
X139300081Y-122253025D01*
X139267371Y-122257877D01*
X139234344Y-122259500D01*
X138108256Y-122259500D01*
X138075229Y-122257877D01*
X138042519Y-122253025D01*
X138010443Y-122244991D01*
X137979309Y-122233851D01*
X137949416Y-122219713D01*
X137921053Y-122202713D01*
X137894493Y-122183015D01*
X137869992Y-122160808D01*
X137847785Y-122136307D01*
X137828087Y-122109747D01*
X137811087Y-122081384D01*
X137796949Y-122051491D01*
X137785809Y-122020357D01*
X137777775Y-121988281D01*
X137772923Y-121955571D01*
X137771300Y-121922544D01*
X137771300Y-121046456D01*
X137772923Y-121013429D01*
X137777775Y-120980719D01*
X137785809Y-120948643D01*
X137796949Y-120917509D01*
X137811087Y-120887616D01*
X137828087Y-120859253D01*
X137847785Y-120832693D01*
X137869992Y-120808192D01*
X137894493Y-120785985D01*
X137921053Y-120766287D01*
X137949416Y-120749287D01*
X137979309Y-120735149D01*
X138010443Y-120724009D01*
X138042519Y-120715975D01*
X138075229Y-120711123D01*
X138108256Y-120709500D01*
X139234344Y-120709500D01*
X139267371Y-120711123D01*
X139267371Y-120711123D01*
G37*
D14*
X138671300Y-121484500D03*
G04 #@! TD*
D13*
G04 #@! TO.C,C3*
G36*
X138124991Y-132045223D02*
X138157701Y-132050075D01*
X138189777Y-132058109D01*
X138220911Y-132069249D01*
X138250804Y-132083387D01*
X138279167Y-132100387D01*
X138305727Y-132120085D01*
X138330228Y-132142292D01*
X138352435Y-132166793D01*
X138372133Y-132193353D01*
X138389133Y-132221716D01*
X138403271Y-132251609D01*
X138414411Y-132282743D01*
X138422445Y-132314819D01*
X138427297Y-132347529D01*
X138428920Y-132380556D01*
X138428920Y-133506644D01*
X138427297Y-133539671D01*
X138422445Y-133572381D01*
X138414411Y-133604457D01*
X138403271Y-133635591D01*
X138389133Y-133665484D01*
X138372133Y-133693847D01*
X138352435Y-133720407D01*
X138330228Y-133744908D01*
X138305727Y-133767115D01*
X138279167Y-133786813D01*
X138250804Y-133803813D01*
X138220911Y-133817951D01*
X138189777Y-133829091D01*
X138157701Y-133837125D01*
X138124991Y-133841977D01*
X138091964Y-133843600D01*
X137215876Y-133843600D01*
X137182849Y-133841977D01*
X137150139Y-133837125D01*
X137118063Y-133829091D01*
X137086929Y-133817951D01*
X137057036Y-133803813D01*
X137028673Y-133786813D01*
X137002113Y-133767115D01*
X136977612Y-133744908D01*
X136955405Y-133720407D01*
X136935707Y-133693847D01*
X136918707Y-133665484D01*
X136904569Y-133635591D01*
X136893429Y-133604457D01*
X136885395Y-133572381D01*
X136880543Y-133539671D01*
X136878920Y-133506644D01*
X136878920Y-132380556D01*
X136880543Y-132347529D01*
X136885395Y-132314819D01*
X136893429Y-132282743D01*
X136904569Y-132251609D01*
X136918707Y-132221716D01*
X136935707Y-132193353D01*
X136955405Y-132166793D01*
X136977612Y-132142292D01*
X137002113Y-132120085D01*
X137028673Y-132100387D01*
X137057036Y-132083387D01*
X137086929Y-132069249D01*
X137118063Y-132058109D01*
X137150139Y-132050075D01*
X137182849Y-132045223D01*
X137215876Y-132043600D01*
X138091964Y-132043600D01*
X138124991Y-132045223D01*
X138124991Y-132045223D01*
G37*
D14*
X137653920Y-132943600D03*
D13*
G36*
X140174991Y-132045223D02*
X140207701Y-132050075D01*
X140239777Y-132058109D01*
X140270911Y-132069249D01*
X140300804Y-132083387D01*
X140329167Y-132100387D01*
X140355727Y-132120085D01*
X140380228Y-132142292D01*
X140402435Y-132166793D01*
X140422133Y-132193353D01*
X140439133Y-132221716D01*
X140453271Y-132251609D01*
X140464411Y-132282743D01*
X140472445Y-132314819D01*
X140477297Y-132347529D01*
X140478920Y-132380556D01*
X140478920Y-133506644D01*
X140477297Y-133539671D01*
X140472445Y-133572381D01*
X140464411Y-133604457D01*
X140453271Y-133635591D01*
X140439133Y-133665484D01*
X140422133Y-133693847D01*
X140402435Y-133720407D01*
X140380228Y-133744908D01*
X140355727Y-133767115D01*
X140329167Y-133786813D01*
X140300804Y-133803813D01*
X140270911Y-133817951D01*
X140239777Y-133829091D01*
X140207701Y-133837125D01*
X140174991Y-133841977D01*
X140141964Y-133843600D01*
X139265876Y-133843600D01*
X139232849Y-133841977D01*
X139200139Y-133837125D01*
X139168063Y-133829091D01*
X139136929Y-133817951D01*
X139107036Y-133803813D01*
X139078673Y-133786813D01*
X139052113Y-133767115D01*
X139027612Y-133744908D01*
X139005405Y-133720407D01*
X138985707Y-133693847D01*
X138968707Y-133665484D01*
X138954569Y-133635591D01*
X138943429Y-133604457D01*
X138935395Y-133572381D01*
X138930543Y-133539671D01*
X138928920Y-133506644D01*
X138928920Y-132380556D01*
X138930543Y-132347529D01*
X138935395Y-132314819D01*
X138943429Y-132282743D01*
X138954569Y-132251609D01*
X138968707Y-132221716D01*
X138985707Y-132193353D01*
X139005405Y-132166793D01*
X139027612Y-132142292D01*
X139052113Y-132120085D01*
X139078673Y-132100387D01*
X139107036Y-132083387D01*
X139136929Y-132069249D01*
X139168063Y-132058109D01*
X139200139Y-132050075D01*
X139232849Y-132045223D01*
X139265876Y-132043600D01*
X140141964Y-132043600D01*
X140174991Y-132045223D01*
X140174991Y-132045223D01*
G37*
D14*
X139703920Y-132943600D03*
G04 #@! TD*
D13*
G04 #@! TO.C,C4*
G36*
X146991511Y-143546663D02*
X147024221Y-143551515D01*
X147056297Y-143559549D01*
X147087431Y-143570689D01*
X147117324Y-143584827D01*
X147145687Y-143601827D01*
X147172247Y-143621525D01*
X147196748Y-143643732D01*
X147218955Y-143668233D01*
X147238653Y-143694793D01*
X147255653Y-143723156D01*
X147269791Y-143753049D01*
X147280931Y-143784183D01*
X147288965Y-143816259D01*
X147293817Y-143848969D01*
X147295440Y-143881996D01*
X147295440Y-144758084D01*
X147293817Y-144791111D01*
X147288965Y-144823821D01*
X147280931Y-144855897D01*
X147269791Y-144887031D01*
X147255653Y-144916924D01*
X147238653Y-144945287D01*
X147218955Y-144971847D01*
X147196748Y-144996348D01*
X147172247Y-145018555D01*
X147145687Y-145038253D01*
X147117324Y-145055253D01*
X147087431Y-145069391D01*
X147056297Y-145080531D01*
X147024221Y-145088565D01*
X146991511Y-145093417D01*
X146958484Y-145095040D01*
X145832396Y-145095040D01*
X145799369Y-145093417D01*
X145766659Y-145088565D01*
X145734583Y-145080531D01*
X145703449Y-145069391D01*
X145673556Y-145055253D01*
X145645193Y-145038253D01*
X145618633Y-145018555D01*
X145594132Y-144996348D01*
X145571925Y-144971847D01*
X145552227Y-144945287D01*
X145535227Y-144916924D01*
X145521089Y-144887031D01*
X145509949Y-144855897D01*
X145501915Y-144823821D01*
X145497063Y-144791111D01*
X145495440Y-144758084D01*
X145495440Y-143881996D01*
X145497063Y-143848969D01*
X145501915Y-143816259D01*
X145509949Y-143784183D01*
X145521089Y-143753049D01*
X145535227Y-143723156D01*
X145552227Y-143694793D01*
X145571925Y-143668233D01*
X145594132Y-143643732D01*
X145618633Y-143621525D01*
X145645193Y-143601827D01*
X145673556Y-143584827D01*
X145703449Y-143570689D01*
X145734583Y-143559549D01*
X145766659Y-143551515D01*
X145799369Y-143546663D01*
X145832396Y-143545040D01*
X146958484Y-143545040D01*
X146991511Y-143546663D01*
X146991511Y-143546663D01*
G37*
D14*
X146395440Y-144320040D03*
D13*
G36*
X146991511Y-145596663D02*
X147024221Y-145601515D01*
X147056297Y-145609549D01*
X147087431Y-145620689D01*
X147117324Y-145634827D01*
X147145687Y-145651827D01*
X147172247Y-145671525D01*
X147196748Y-145693732D01*
X147218955Y-145718233D01*
X147238653Y-145744793D01*
X147255653Y-145773156D01*
X147269791Y-145803049D01*
X147280931Y-145834183D01*
X147288965Y-145866259D01*
X147293817Y-145898969D01*
X147295440Y-145931996D01*
X147295440Y-146808084D01*
X147293817Y-146841111D01*
X147288965Y-146873821D01*
X147280931Y-146905897D01*
X147269791Y-146937031D01*
X147255653Y-146966924D01*
X147238653Y-146995287D01*
X147218955Y-147021847D01*
X147196748Y-147046348D01*
X147172247Y-147068555D01*
X147145687Y-147088253D01*
X147117324Y-147105253D01*
X147087431Y-147119391D01*
X147056297Y-147130531D01*
X147024221Y-147138565D01*
X146991511Y-147143417D01*
X146958484Y-147145040D01*
X145832396Y-147145040D01*
X145799369Y-147143417D01*
X145766659Y-147138565D01*
X145734583Y-147130531D01*
X145703449Y-147119391D01*
X145673556Y-147105253D01*
X145645193Y-147088253D01*
X145618633Y-147068555D01*
X145594132Y-147046348D01*
X145571925Y-147021847D01*
X145552227Y-146995287D01*
X145535227Y-146966924D01*
X145521089Y-146937031D01*
X145509949Y-146905897D01*
X145501915Y-146873821D01*
X145497063Y-146841111D01*
X145495440Y-146808084D01*
X145495440Y-145931996D01*
X145497063Y-145898969D01*
X145501915Y-145866259D01*
X145509949Y-145834183D01*
X145521089Y-145803049D01*
X145535227Y-145773156D01*
X145552227Y-145744793D01*
X145571925Y-145718233D01*
X145594132Y-145693732D01*
X145618633Y-145671525D01*
X145645193Y-145651827D01*
X145673556Y-145634827D01*
X145703449Y-145620689D01*
X145734583Y-145609549D01*
X145766659Y-145601515D01*
X145799369Y-145596663D01*
X145832396Y-145595040D01*
X146958484Y-145595040D01*
X146991511Y-145596663D01*
X146991511Y-145596663D01*
G37*
D14*
X146395440Y-146370040D03*
G04 #@! TD*
D13*
G04 #@! TO.C,C5*
G36*
X144619151Y-143494703D02*
X144651861Y-143499555D01*
X144683937Y-143507589D01*
X144715071Y-143518729D01*
X144744964Y-143532867D01*
X144773327Y-143549867D01*
X144799887Y-143569565D01*
X144824388Y-143591772D01*
X144846595Y-143616273D01*
X144866293Y-143642833D01*
X144883293Y-143671196D01*
X144897431Y-143701089D01*
X144908571Y-143732223D01*
X144916605Y-143764299D01*
X144921457Y-143797009D01*
X144923080Y-143830036D01*
X144923080Y-144706124D01*
X144921457Y-144739151D01*
X144916605Y-144771861D01*
X144908571Y-144803937D01*
X144897431Y-144835071D01*
X144883293Y-144864964D01*
X144866293Y-144893327D01*
X144846595Y-144919887D01*
X144824388Y-144944388D01*
X144799887Y-144966595D01*
X144773327Y-144986293D01*
X144744964Y-145003293D01*
X144715071Y-145017431D01*
X144683937Y-145028571D01*
X144651861Y-145036605D01*
X144619151Y-145041457D01*
X144586124Y-145043080D01*
X143460036Y-145043080D01*
X143427009Y-145041457D01*
X143394299Y-145036605D01*
X143362223Y-145028571D01*
X143331089Y-145017431D01*
X143301196Y-145003293D01*
X143272833Y-144986293D01*
X143246273Y-144966595D01*
X143221772Y-144944388D01*
X143199565Y-144919887D01*
X143179867Y-144893327D01*
X143162867Y-144864964D01*
X143148729Y-144835071D01*
X143137589Y-144803937D01*
X143129555Y-144771861D01*
X143124703Y-144739151D01*
X143123080Y-144706124D01*
X143123080Y-143830036D01*
X143124703Y-143797009D01*
X143129555Y-143764299D01*
X143137589Y-143732223D01*
X143148729Y-143701089D01*
X143162867Y-143671196D01*
X143179867Y-143642833D01*
X143199565Y-143616273D01*
X143221772Y-143591772D01*
X143246273Y-143569565D01*
X143272833Y-143549867D01*
X143301196Y-143532867D01*
X143331089Y-143518729D01*
X143362223Y-143507589D01*
X143394299Y-143499555D01*
X143427009Y-143494703D01*
X143460036Y-143493080D01*
X144586124Y-143493080D01*
X144619151Y-143494703D01*
X144619151Y-143494703D01*
G37*
D14*
X144023080Y-144268080D03*
D13*
G36*
X144619151Y-145544703D02*
X144651861Y-145549555D01*
X144683937Y-145557589D01*
X144715071Y-145568729D01*
X144744964Y-145582867D01*
X144773327Y-145599867D01*
X144799887Y-145619565D01*
X144824388Y-145641772D01*
X144846595Y-145666273D01*
X144866293Y-145692833D01*
X144883293Y-145721196D01*
X144897431Y-145751089D01*
X144908571Y-145782223D01*
X144916605Y-145814299D01*
X144921457Y-145847009D01*
X144923080Y-145880036D01*
X144923080Y-146756124D01*
X144921457Y-146789151D01*
X144916605Y-146821861D01*
X144908571Y-146853937D01*
X144897431Y-146885071D01*
X144883293Y-146914964D01*
X144866293Y-146943327D01*
X144846595Y-146969887D01*
X144824388Y-146994388D01*
X144799887Y-147016595D01*
X144773327Y-147036293D01*
X144744964Y-147053293D01*
X144715071Y-147067431D01*
X144683937Y-147078571D01*
X144651861Y-147086605D01*
X144619151Y-147091457D01*
X144586124Y-147093080D01*
X143460036Y-147093080D01*
X143427009Y-147091457D01*
X143394299Y-147086605D01*
X143362223Y-147078571D01*
X143331089Y-147067431D01*
X143301196Y-147053293D01*
X143272833Y-147036293D01*
X143246273Y-147016595D01*
X143221772Y-146994388D01*
X143199565Y-146969887D01*
X143179867Y-146943327D01*
X143162867Y-146914964D01*
X143148729Y-146885071D01*
X143137589Y-146853937D01*
X143129555Y-146821861D01*
X143124703Y-146789151D01*
X143123080Y-146756124D01*
X143123080Y-145880036D01*
X143124703Y-145847009D01*
X143129555Y-145814299D01*
X143137589Y-145782223D01*
X143148729Y-145751089D01*
X143162867Y-145721196D01*
X143179867Y-145692833D01*
X143199565Y-145666273D01*
X143221772Y-145641772D01*
X143246273Y-145619565D01*
X143272833Y-145599867D01*
X143301196Y-145582867D01*
X143331089Y-145568729D01*
X143362223Y-145557589D01*
X143394299Y-145549555D01*
X143427009Y-145544703D01*
X143460036Y-145543080D01*
X144586124Y-145543080D01*
X144619151Y-145544703D01*
X144619151Y-145544703D01*
G37*
D14*
X144023080Y-146318080D03*
G04 #@! TD*
D13*
G04 #@! TO.C,D1*
G36*
X115465871Y-103749623D02*
X115498581Y-103754475D01*
X115530657Y-103762509D01*
X115561791Y-103773649D01*
X115591684Y-103787787D01*
X115620047Y-103804787D01*
X115646607Y-103824485D01*
X115671108Y-103846692D01*
X115693315Y-103871193D01*
X115713013Y-103897753D01*
X115730013Y-103926116D01*
X115744151Y-103956009D01*
X115755291Y-103987143D01*
X115763325Y-104019219D01*
X115768177Y-104051929D01*
X115769800Y-104084956D01*
X115769800Y-105211044D01*
X115768177Y-105244071D01*
X115763325Y-105276781D01*
X115755291Y-105308857D01*
X115744151Y-105339991D01*
X115730013Y-105369884D01*
X115713013Y-105398247D01*
X115693315Y-105424807D01*
X115671108Y-105449308D01*
X115646607Y-105471515D01*
X115620047Y-105491213D01*
X115591684Y-105508213D01*
X115561791Y-105522351D01*
X115530657Y-105533491D01*
X115498581Y-105541525D01*
X115465871Y-105546377D01*
X115432844Y-105548000D01*
X114556756Y-105548000D01*
X114523729Y-105546377D01*
X114491019Y-105541525D01*
X114458943Y-105533491D01*
X114427809Y-105522351D01*
X114397916Y-105508213D01*
X114369553Y-105491213D01*
X114342993Y-105471515D01*
X114318492Y-105449308D01*
X114296285Y-105424807D01*
X114276587Y-105398247D01*
X114259587Y-105369884D01*
X114245449Y-105339991D01*
X114234309Y-105308857D01*
X114226275Y-105276781D01*
X114221423Y-105244071D01*
X114219800Y-105211044D01*
X114219800Y-104084956D01*
X114221423Y-104051929D01*
X114226275Y-104019219D01*
X114234309Y-103987143D01*
X114245449Y-103956009D01*
X114259587Y-103926116D01*
X114276587Y-103897753D01*
X114296285Y-103871193D01*
X114318492Y-103846692D01*
X114342993Y-103824485D01*
X114369553Y-103804787D01*
X114397916Y-103787787D01*
X114427809Y-103773649D01*
X114458943Y-103762509D01*
X114491019Y-103754475D01*
X114523729Y-103749623D01*
X114556756Y-103748000D01*
X115432844Y-103748000D01*
X115465871Y-103749623D01*
X115465871Y-103749623D01*
G37*
D14*
X114994800Y-104648000D03*
D13*
G36*
X113415871Y-103749623D02*
X113448581Y-103754475D01*
X113480657Y-103762509D01*
X113511791Y-103773649D01*
X113541684Y-103787787D01*
X113570047Y-103804787D01*
X113596607Y-103824485D01*
X113621108Y-103846692D01*
X113643315Y-103871193D01*
X113663013Y-103897753D01*
X113680013Y-103926116D01*
X113694151Y-103956009D01*
X113705291Y-103987143D01*
X113713325Y-104019219D01*
X113718177Y-104051929D01*
X113719800Y-104084956D01*
X113719800Y-105211044D01*
X113718177Y-105244071D01*
X113713325Y-105276781D01*
X113705291Y-105308857D01*
X113694151Y-105339991D01*
X113680013Y-105369884D01*
X113663013Y-105398247D01*
X113643315Y-105424807D01*
X113621108Y-105449308D01*
X113596607Y-105471515D01*
X113570047Y-105491213D01*
X113541684Y-105508213D01*
X113511791Y-105522351D01*
X113480657Y-105533491D01*
X113448581Y-105541525D01*
X113415871Y-105546377D01*
X113382844Y-105548000D01*
X112506756Y-105548000D01*
X112473729Y-105546377D01*
X112441019Y-105541525D01*
X112408943Y-105533491D01*
X112377809Y-105522351D01*
X112347916Y-105508213D01*
X112319553Y-105491213D01*
X112292993Y-105471515D01*
X112268492Y-105449308D01*
X112246285Y-105424807D01*
X112226587Y-105398247D01*
X112209587Y-105369884D01*
X112195449Y-105339991D01*
X112184309Y-105308857D01*
X112176275Y-105276781D01*
X112171423Y-105244071D01*
X112169800Y-105211044D01*
X112169800Y-104084956D01*
X112171423Y-104051929D01*
X112176275Y-104019219D01*
X112184309Y-103987143D01*
X112195449Y-103956009D01*
X112209587Y-103926116D01*
X112226587Y-103897753D01*
X112246285Y-103871193D01*
X112268492Y-103846692D01*
X112292993Y-103824485D01*
X112319553Y-103804787D01*
X112347916Y-103787787D01*
X112377809Y-103773649D01*
X112408943Y-103762509D01*
X112441019Y-103754475D01*
X112473729Y-103749623D01*
X112506756Y-103748000D01*
X113382844Y-103748000D01*
X113415871Y-103749623D01*
X113415871Y-103749623D01*
G37*
D14*
X112944800Y-104648000D03*
G04 #@! TD*
D13*
G04 #@! TO.C,D2*
G36*
X115456871Y-101336623D02*
X115489581Y-101341475D01*
X115521657Y-101349509D01*
X115552791Y-101360649D01*
X115582684Y-101374787D01*
X115611047Y-101391787D01*
X115637607Y-101411485D01*
X115662108Y-101433692D01*
X115684315Y-101458193D01*
X115704013Y-101484753D01*
X115721013Y-101513116D01*
X115735151Y-101543009D01*
X115746291Y-101574143D01*
X115754325Y-101606219D01*
X115759177Y-101638929D01*
X115760800Y-101671956D01*
X115760800Y-102798044D01*
X115759177Y-102831071D01*
X115754325Y-102863781D01*
X115746291Y-102895857D01*
X115735151Y-102926991D01*
X115721013Y-102956884D01*
X115704013Y-102985247D01*
X115684315Y-103011807D01*
X115662108Y-103036308D01*
X115637607Y-103058515D01*
X115611047Y-103078213D01*
X115582684Y-103095213D01*
X115552791Y-103109351D01*
X115521657Y-103120491D01*
X115489581Y-103128525D01*
X115456871Y-103133377D01*
X115423844Y-103135000D01*
X114547756Y-103135000D01*
X114514729Y-103133377D01*
X114482019Y-103128525D01*
X114449943Y-103120491D01*
X114418809Y-103109351D01*
X114388916Y-103095213D01*
X114360553Y-103078213D01*
X114333993Y-103058515D01*
X114309492Y-103036308D01*
X114287285Y-103011807D01*
X114267587Y-102985247D01*
X114250587Y-102956884D01*
X114236449Y-102926991D01*
X114225309Y-102895857D01*
X114217275Y-102863781D01*
X114212423Y-102831071D01*
X114210800Y-102798044D01*
X114210800Y-101671956D01*
X114212423Y-101638929D01*
X114217275Y-101606219D01*
X114225309Y-101574143D01*
X114236449Y-101543009D01*
X114250587Y-101513116D01*
X114267587Y-101484753D01*
X114287285Y-101458193D01*
X114309492Y-101433692D01*
X114333993Y-101411485D01*
X114360553Y-101391787D01*
X114388916Y-101374787D01*
X114418809Y-101360649D01*
X114449943Y-101349509D01*
X114482019Y-101341475D01*
X114514729Y-101336623D01*
X114547756Y-101335000D01*
X115423844Y-101335000D01*
X115456871Y-101336623D01*
X115456871Y-101336623D01*
G37*
D14*
X114985800Y-102235000D03*
D13*
G36*
X113406871Y-101336623D02*
X113439581Y-101341475D01*
X113471657Y-101349509D01*
X113502791Y-101360649D01*
X113532684Y-101374787D01*
X113561047Y-101391787D01*
X113587607Y-101411485D01*
X113612108Y-101433692D01*
X113634315Y-101458193D01*
X113654013Y-101484753D01*
X113671013Y-101513116D01*
X113685151Y-101543009D01*
X113696291Y-101574143D01*
X113704325Y-101606219D01*
X113709177Y-101638929D01*
X113710800Y-101671956D01*
X113710800Y-102798044D01*
X113709177Y-102831071D01*
X113704325Y-102863781D01*
X113696291Y-102895857D01*
X113685151Y-102926991D01*
X113671013Y-102956884D01*
X113654013Y-102985247D01*
X113634315Y-103011807D01*
X113612108Y-103036308D01*
X113587607Y-103058515D01*
X113561047Y-103078213D01*
X113532684Y-103095213D01*
X113502791Y-103109351D01*
X113471657Y-103120491D01*
X113439581Y-103128525D01*
X113406871Y-103133377D01*
X113373844Y-103135000D01*
X112497756Y-103135000D01*
X112464729Y-103133377D01*
X112432019Y-103128525D01*
X112399943Y-103120491D01*
X112368809Y-103109351D01*
X112338916Y-103095213D01*
X112310553Y-103078213D01*
X112283993Y-103058515D01*
X112259492Y-103036308D01*
X112237285Y-103011807D01*
X112217587Y-102985247D01*
X112200587Y-102956884D01*
X112186449Y-102926991D01*
X112175309Y-102895857D01*
X112167275Y-102863781D01*
X112162423Y-102831071D01*
X112160800Y-102798044D01*
X112160800Y-101671956D01*
X112162423Y-101638929D01*
X112167275Y-101606219D01*
X112175309Y-101574143D01*
X112186449Y-101543009D01*
X112200587Y-101513116D01*
X112217587Y-101484753D01*
X112237285Y-101458193D01*
X112259492Y-101433692D01*
X112283993Y-101411485D01*
X112310553Y-101391787D01*
X112338916Y-101374787D01*
X112368809Y-101360649D01*
X112399943Y-101349509D01*
X112432019Y-101341475D01*
X112464729Y-101336623D01*
X112497756Y-101335000D01*
X113373844Y-101335000D01*
X113406871Y-101336623D01*
X113406871Y-101336623D01*
G37*
D14*
X112935800Y-102235000D03*
G04 #@! TD*
D15*
G04 #@! TO.C,J1*
X102447900Y-125344780D03*
X102447900Y-135294780D03*
D16*
X105797900Y-127194780D03*
X105797900Y-128444780D03*
X105797900Y-129694780D03*
X105797900Y-130944780D03*
X105797900Y-132194780D03*
X105797900Y-133444780D03*
G04 #@! TD*
D15*
G04 #@! TO.C,J2*
X102422500Y-138654380D03*
X102422500Y-148604380D03*
D16*
X105772500Y-140504380D03*
X105772500Y-141754380D03*
X105772500Y-143004380D03*
X105772500Y-144254380D03*
X105772500Y-145504380D03*
X105772500Y-146754380D03*
G04 #@! TD*
D15*
G04 #@! TO.C,J3*
X102447900Y-112238380D03*
X102447900Y-122188380D03*
D16*
X105797900Y-114088380D03*
X105797900Y-115338380D03*
X105797900Y-116588380D03*
X105797900Y-117838380D03*
X105797900Y-119088380D03*
X105797900Y-120338380D03*
G04 #@! TD*
D17*
G04 #@! TO.C,J5*
X102671880Y-106446320D03*
X107721880Y-106446320D03*
X102671880Y-108986320D03*
X107721880Y-108986320D03*
G04 #@! TD*
D18*
G04 #@! TO.C,J6*
X148082000Y-113157000D03*
D19*
X148082000Y-115697000D03*
G04 #@! TD*
D18*
G04 #@! TO.C,J7*
X148069300Y-128612900D03*
D19*
X148069300Y-131152900D03*
G04 #@! TD*
D18*
G04 #@! TO.C,J8*
X148061680Y-139354560D03*
D19*
X148061680Y-136814560D03*
G04 #@! TD*
G04 #@! TO.C,J9*
X129171700Y-134835900D03*
G04 #@! TD*
D20*
G04 #@! TO.C,JP1*
X115656360Y-123119960D03*
X113116360Y-126429960D03*
G04 #@! TD*
G04 #@! TO.C,JP2*
X113116360Y-133338760D03*
X115656360Y-130028760D03*
G04 #@! TD*
D21*
G04 #@! TO.C,JP3*
X146189700Y-119708000D03*
D13*
G36*
X147135857Y-120247018D02*
X147124476Y-120284537D01*
X147105994Y-120319114D01*
X147081121Y-120349421D01*
X147050640Y-120374410D01*
X146300640Y-120874410D01*
X146266043Y-120892856D01*
X146228513Y-120904198D01*
X146189491Y-120908000D01*
X146150477Y-120904116D01*
X146112970Y-120892696D01*
X146078760Y-120874410D01*
X145328760Y-120374410D01*
X145298427Y-120349569D01*
X145273522Y-120319288D01*
X145255004Y-120284730D01*
X145243584Y-120247223D01*
X145239700Y-120208000D01*
X145239700Y-119208000D01*
X145243543Y-119168982D01*
X145254924Y-119131463D01*
X145273406Y-119096886D01*
X145298279Y-119066579D01*
X145328586Y-119041706D01*
X145363163Y-119023224D01*
X145400682Y-119011843D01*
X145439700Y-119008000D01*
X146939700Y-119008000D01*
X146978718Y-119011843D01*
X147016237Y-119023224D01*
X147050814Y-119041706D01*
X147081121Y-119066579D01*
X147105994Y-119096886D01*
X147124476Y-119131463D01*
X147135857Y-119168982D01*
X147139700Y-119208000D01*
X147139700Y-120208000D01*
X147135857Y-120247018D01*
X147135857Y-120247018D01*
G37*
D21*
X146189700Y-121158000D03*
D13*
G36*
X147135857Y-121697018D02*
X147124476Y-121734537D01*
X147105994Y-121769114D01*
X147081121Y-121799421D01*
X147050814Y-121824294D01*
X147016237Y-121842776D01*
X146978718Y-121854157D01*
X146939700Y-121858000D01*
X145439700Y-121858000D01*
X145400682Y-121854157D01*
X145363163Y-121842776D01*
X145328586Y-121824294D01*
X145298279Y-121799421D01*
X145273406Y-121769114D01*
X145254924Y-121734537D01*
X145243543Y-121697018D01*
X145239700Y-121658000D01*
X145239700Y-120508000D01*
X145243543Y-120468982D01*
X145254924Y-120431463D01*
X145273406Y-120396886D01*
X145298279Y-120366579D01*
X145328586Y-120341706D01*
X145363163Y-120323224D01*
X145400682Y-120311843D01*
X145439700Y-120308000D01*
X145478718Y-120311843D01*
X145516237Y-120323224D01*
X145550640Y-120341590D01*
X146189700Y-120767630D01*
X146828760Y-120341590D01*
X146863357Y-120323144D01*
X146900887Y-120311802D01*
X146939909Y-120308000D01*
X146978923Y-120311884D01*
X147016430Y-120323304D01*
X147050988Y-120341822D01*
X147081269Y-120366727D01*
X147106110Y-120397060D01*
X147124556Y-120431657D01*
X147135898Y-120469187D01*
X147139700Y-120508000D01*
X147139700Y-121658000D01*
X147135857Y-121697018D01*
X147135857Y-121697018D01*
G37*
G04 #@! TD*
D21*
G04 #@! TO.C,JP4*
X148396648Y-119798000D03*
D13*
G36*
X149342805Y-120337018D02*
X149331424Y-120374537D01*
X149312942Y-120409114D01*
X149288069Y-120439421D01*
X149257588Y-120464410D01*
X148507588Y-120964410D01*
X148472991Y-120982856D01*
X148435461Y-120994198D01*
X148396439Y-120998000D01*
X148357425Y-120994116D01*
X148319918Y-120982696D01*
X148285708Y-120964410D01*
X147535708Y-120464410D01*
X147505375Y-120439569D01*
X147480470Y-120409288D01*
X147461952Y-120374730D01*
X147450532Y-120337223D01*
X147446648Y-120298000D01*
X147446648Y-119298000D01*
X147450491Y-119258982D01*
X147461872Y-119221463D01*
X147480354Y-119186886D01*
X147505227Y-119156579D01*
X147535534Y-119131706D01*
X147570111Y-119113224D01*
X147607630Y-119101843D01*
X147646648Y-119098000D01*
X149146648Y-119098000D01*
X149185666Y-119101843D01*
X149223185Y-119113224D01*
X149257762Y-119131706D01*
X149288069Y-119156579D01*
X149312942Y-119186886D01*
X149331424Y-119221463D01*
X149342805Y-119258982D01*
X149346648Y-119298000D01*
X149346648Y-120298000D01*
X149342805Y-120337018D01*
X149342805Y-120337018D01*
G37*
D21*
X148396648Y-121248000D03*
D13*
G36*
X149342805Y-121787018D02*
X149331424Y-121824537D01*
X149312942Y-121859114D01*
X149288069Y-121889421D01*
X149257762Y-121914294D01*
X149223185Y-121932776D01*
X149185666Y-121944157D01*
X149146648Y-121948000D01*
X147646648Y-121948000D01*
X147607630Y-121944157D01*
X147570111Y-121932776D01*
X147535534Y-121914294D01*
X147505227Y-121889421D01*
X147480354Y-121859114D01*
X147461872Y-121824537D01*
X147450491Y-121787018D01*
X147446648Y-121748000D01*
X147446648Y-120598000D01*
X147450491Y-120558982D01*
X147461872Y-120521463D01*
X147480354Y-120486886D01*
X147505227Y-120456579D01*
X147535534Y-120431706D01*
X147570111Y-120413224D01*
X147607630Y-120401843D01*
X147646648Y-120398000D01*
X147685666Y-120401843D01*
X147723185Y-120413224D01*
X147757588Y-120431590D01*
X148396648Y-120857630D01*
X149035708Y-120431590D01*
X149070305Y-120413144D01*
X149107835Y-120401802D01*
X149146857Y-120398000D01*
X149185871Y-120401884D01*
X149223378Y-120413304D01*
X149257936Y-120431822D01*
X149288217Y-120456727D01*
X149313058Y-120487060D01*
X149331504Y-120521657D01*
X149342846Y-120559187D01*
X149346648Y-120598000D01*
X149346648Y-121748000D01*
X149342805Y-121787018D01*
X149342805Y-121787018D01*
G37*
G04 #@! TD*
D21*
G04 #@! TO.C,JP6*
X136336700Y-124396500D03*
D13*
G36*
X135797682Y-125342657D02*
X135760163Y-125331276D01*
X135725586Y-125312794D01*
X135695279Y-125287921D01*
X135670290Y-125257440D01*
X135170290Y-124507440D01*
X135151844Y-124472843D01*
X135140502Y-124435313D01*
X135136700Y-124396291D01*
X135140584Y-124357277D01*
X135152004Y-124319770D01*
X135170290Y-124285560D01*
X135670290Y-123535560D01*
X135695131Y-123505227D01*
X135725412Y-123480322D01*
X135759970Y-123461804D01*
X135797477Y-123450384D01*
X135836700Y-123446500D01*
X136836700Y-123446500D01*
X136875718Y-123450343D01*
X136913237Y-123461724D01*
X136947814Y-123480206D01*
X136978121Y-123505079D01*
X137002994Y-123535386D01*
X137021476Y-123569963D01*
X137032857Y-123607482D01*
X137036700Y-123646500D01*
X137036700Y-125146500D01*
X137032857Y-125185518D01*
X137021476Y-125223037D01*
X137002994Y-125257614D01*
X136978121Y-125287921D01*
X136947814Y-125312794D01*
X136913237Y-125331276D01*
X136875718Y-125342657D01*
X136836700Y-125346500D01*
X135836700Y-125346500D01*
X135797682Y-125342657D01*
X135797682Y-125342657D01*
G37*
D21*
X134886700Y-124396500D03*
D13*
G36*
X134347682Y-125342657D02*
X134310163Y-125331276D01*
X134275586Y-125312794D01*
X134245279Y-125287921D01*
X134220406Y-125257614D01*
X134201924Y-125223037D01*
X134190543Y-125185518D01*
X134186700Y-125146500D01*
X134186700Y-123646500D01*
X134190543Y-123607482D01*
X134201924Y-123569963D01*
X134220406Y-123535386D01*
X134245279Y-123505079D01*
X134275586Y-123480206D01*
X134310163Y-123461724D01*
X134347682Y-123450343D01*
X134386700Y-123446500D01*
X135536700Y-123446500D01*
X135575718Y-123450343D01*
X135613237Y-123461724D01*
X135647814Y-123480206D01*
X135678121Y-123505079D01*
X135702994Y-123535386D01*
X135721476Y-123569963D01*
X135732857Y-123607482D01*
X135736700Y-123646500D01*
X135732857Y-123685518D01*
X135721476Y-123723037D01*
X135703110Y-123757440D01*
X135277070Y-124396500D01*
X135703110Y-125035560D01*
X135721556Y-125070157D01*
X135732898Y-125107687D01*
X135736700Y-125146709D01*
X135732816Y-125185723D01*
X135721396Y-125223230D01*
X135702878Y-125257788D01*
X135677973Y-125288069D01*
X135647640Y-125312910D01*
X135613043Y-125331356D01*
X135575513Y-125342698D01*
X135536700Y-125346500D01*
X134386700Y-125346500D01*
X134347682Y-125342657D01*
X134347682Y-125342657D01*
G37*
G04 #@! TD*
D21*
G04 #@! TO.C,JP7*
X132330360Y-147787360D03*
D13*
G36*
X132869378Y-146841203D02*
X132906897Y-146852584D01*
X132941474Y-146871066D01*
X132971781Y-146895939D01*
X132996770Y-146926420D01*
X133496770Y-147676420D01*
X133515216Y-147711017D01*
X133526558Y-147748547D01*
X133530360Y-147787569D01*
X133526476Y-147826583D01*
X133515056Y-147864090D01*
X133496770Y-147898300D01*
X132996770Y-148648300D01*
X132971929Y-148678633D01*
X132941648Y-148703538D01*
X132907090Y-148722056D01*
X132869583Y-148733476D01*
X132830360Y-148737360D01*
X131830360Y-148737360D01*
X131791342Y-148733517D01*
X131753823Y-148722136D01*
X131719246Y-148703654D01*
X131688939Y-148678781D01*
X131664066Y-148648474D01*
X131645584Y-148613897D01*
X131634203Y-148576378D01*
X131630360Y-148537360D01*
X131630360Y-147037360D01*
X131634203Y-146998342D01*
X131645584Y-146960823D01*
X131664066Y-146926246D01*
X131688939Y-146895939D01*
X131719246Y-146871066D01*
X131753823Y-146852584D01*
X131791342Y-146841203D01*
X131830360Y-146837360D01*
X132830360Y-146837360D01*
X132869378Y-146841203D01*
X132869378Y-146841203D01*
G37*
D21*
X133780360Y-147787360D03*
D13*
G36*
X134319378Y-146841203D02*
X134356897Y-146852584D01*
X134391474Y-146871066D01*
X134421781Y-146895939D01*
X134446654Y-146926246D01*
X134465136Y-146960823D01*
X134476517Y-146998342D01*
X134480360Y-147037360D01*
X134480360Y-148537360D01*
X134476517Y-148576378D01*
X134465136Y-148613897D01*
X134446654Y-148648474D01*
X134421781Y-148678781D01*
X134391474Y-148703654D01*
X134356897Y-148722136D01*
X134319378Y-148733517D01*
X134280360Y-148737360D01*
X133130360Y-148737360D01*
X133091342Y-148733517D01*
X133053823Y-148722136D01*
X133019246Y-148703654D01*
X132988939Y-148678781D01*
X132964066Y-148648474D01*
X132945584Y-148613897D01*
X132934203Y-148576378D01*
X132930360Y-148537360D01*
X132934203Y-148498342D01*
X132945584Y-148460823D01*
X132963950Y-148426420D01*
X133389990Y-147787360D01*
X132963950Y-147148300D01*
X132945504Y-147113703D01*
X132934162Y-147076173D01*
X132930360Y-147037151D01*
X132934244Y-146998137D01*
X132945664Y-146960630D01*
X132964182Y-146926072D01*
X132989087Y-146895791D01*
X133019420Y-146870950D01*
X133054017Y-146852504D01*
X133091547Y-146841162D01*
X133130360Y-146837360D01*
X134280360Y-146837360D01*
X134319378Y-146841203D01*
X134319378Y-146841203D01*
G37*
G04 #@! TD*
D21*
G04 #@! TO.C,JP8*
X115785900Y-117221000D03*
D13*
G36*
X116324918Y-116274843D02*
X116362437Y-116286224D01*
X116397014Y-116304706D01*
X116427321Y-116329579D01*
X116452310Y-116360060D01*
X116952310Y-117110060D01*
X116970756Y-117144657D01*
X116982098Y-117182187D01*
X116985900Y-117221209D01*
X116982016Y-117260223D01*
X116970596Y-117297730D01*
X116952310Y-117331940D01*
X116452310Y-118081940D01*
X116427469Y-118112273D01*
X116397188Y-118137178D01*
X116362630Y-118155696D01*
X116325123Y-118167116D01*
X116285900Y-118171000D01*
X115285900Y-118171000D01*
X115246882Y-118167157D01*
X115209363Y-118155776D01*
X115174786Y-118137294D01*
X115144479Y-118112421D01*
X115119606Y-118082114D01*
X115101124Y-118047537D01*
X115089743Y-118010018D01*
X115085900Y-117971000D01*
X115085900Y-116471000D01*
X115089743Y-116431982D01*
X115101124Y-116394463D01*
X115119606Y-116359886D01*
X115144479Y-116329579D01*
X115174786Y-116304706D01*
X115209363Y-116286224D01*
X115246882Y-116274843D01*
X115285900Y-116271000D01*
X116285900Y-116271000D01*
X116324918Y-116274843D01*
X116324918Y-116274843D01*
G37*
D21*
X117235900Y-117221000D03*
D13*
G36*
X117774918Y-116274843D02*
X117812437Y-116286224D01*
X117847014Y-116304706D01*
X117877321Y-116329579D01*
X117902194Y-116359886D01*
X117920676Y-116394463D01*
X117932057Y-116431982D01*
X117935900Y-116471000D01*
X117935900Y-117971000D01*
X117932057Y-118010018D01*
X117920676Y-118047537D01*
X117902194Y-118082114D01*
X117877321Y-118112421D01*
X117847014Y-118137294D01*
X117812437Y-118155776D01*
X117774918Y-118167157D01*
X117735900Y-118171000D01*
X116585900Y-118171000D01*
X116546882Y-118167157D01*
X116509363Y-118155776D01*
X116474786Y-118137294D01*
X116444479Y-118112421D01*
X116419606Y-118082114D01*
X116401124Y-118047537D01*
X116389743Y-118010018D01*
X116385900Y-117971000D01*
X116389743Y-117931982D01*
X116401124Y-117894463D01*
X116419490Y-117860060D01*
X116845530Y-117221000D01*
X116419490Y-116581940D01*
X116401044Y-116547343D01*
X116389702Y-116509813D01*
X116385900Y-116470791D01*
X116389784Y-116431777D01*
X116401204Y-116394270D01*
X116419722Y-116359712D01*
X116444627Y-116329431D01*
X116474960Y-116304590D01*
X116509557Y-116286144D01*
X116547087Y-116274802D01*
X116585900Y-116271000D01*
X117735900Y-116271000D01*
X117774918Y-116274843D01*
X117774918Y-116274843D01*
G37*
G04 #@! TD*
D22*
G04 #@! TO.C,SW1*
X113318600Y-145189080D03*
X112018600Y-145189080D03*
X110718600Y-145189080D03*
X110718600Y-138689080D03*
X112018600Y-138689080D03*
X113318600Y-138689080D03*
G04 #@! TD*
D23*
G04 #@! TO.C,SW2*
X137541500Y-115983000D03*
X141541500Y-114808000D03*
X141541500Y-117158000D03*
G04 #@! TD*
D24*
G04 #@! TO.C,SW3*
X121935100Y-129501900D03*
X121935100Y-128201900D03*
X121935100Y-126901900D03*
X128435100Y-126901900D03*
X128435100Y-128201900D03*
X128435100Y-129501900D03*
G04 #@! TD*
D25*
G04 #@! TO.C,U1*
X145701500Y-103552000D03*
X145701500Y-104902000D03*
X147891500Y-103552000D03*
X147891500Y-104902000D03*
G04 #@! TD*
D26*
G04 #@! TO.C,U2*
X130322300Y-140187680D03*
X130322300Y-141457680D03*
X130322300Y-142727680D03*
X130322300Y-143997680D03*
X124922300Y-143997680D03*
X124922300Y-142727680D03*
X124922300Y-141457680D03*
X124922300Y-140187680D03*
G04 #@! TD*
G04 #@! TO.C,U3*
X124579400Y-120243600D03*
X124579400Y-118973600D03*
X124579400Y-117703600D03*
X124579400Y-116433600D03*
X129979400Y-116433600D03*
X129979400Y-117703600D03*
X129979400Y-118973600D03*
X129979400Y-120243600D03*
G04 #@! TD*
D27*
G04 #@! TO.C,U4*
X139880700Y-143151500D03*
X140530700Y-143151500D03*
X141180700Y-143151500D03*
X141830700Y-143151500D03*
X141830700Y-147551500D03*
X141180700Y-147551500D03*
X140530700Y-147551500D03*
X139880700Y-147551500D03*
G04 #@! TD*
D28*
G04 #@! TO.C,U5*
X139423500Y-128819000D03*
X139423500Y-129469000D03*
X139423500Y-130119000D03*
X139423500Y-130769000D03*
X135023500Y-130769000D03*
X135023500Y-130119000D03*
X135023500Y-129469000D03*
X135023500Y-128819000D03*
G04 #@! TD*
D13*
G04 #@! TO.C,L1*
G36*
X144857371Y-129924323D02*
X144890081Y-129929175D01*
X144922157Y-129937209D01*
X144953291Y-129948349D01*
X144983184Y-129962487D01*
X145011547Y-129979487D01*
X145038107Y-129999185D01*
X145062608Y-130021392D01*
X145084815Y-130045893D01*
X145104513Y-130072453D01*
X145121513Y-130100816D01*
X145135651Y-130130709D01*
X145146791Y-130161843D01*
X145154825Y-130193919D01*
X145159677Y-130226629D01*
X145161300Y-130259656D01*
X145161300Y-131385744D01*
X145159677Y-131418771D01*
X145154825Y-131451481D01*
X145146791Y-131483557D01*
X145135651Y-131514691D01*
X145121513Y-131544584D01*
X145104513Y-131572947D01*
X145084815Y-131599507D01*
X145062608Y-131624008D01*
X145038107Y-131646215D01*
X145011547Y-131665913D01*
X144983184Y-131682913D01*
X144953291Y-131697051D01*
X144922157Y-131708191D01*
X144890081Y-131716225D01*
X144857371Y-131721077D01*
X144824344Y-131722700D01*
X143948256Y-131722700D01*
X143915229Y-131721077D01*
X143882519Y-131716225D01*
X143850443Y-131708191D01*
X143819309Y-131697051D01*
X143789416Y-131682913D01*
X143761053Y-131665913D01*
X143734493Y-131646215D01*
X143709992Y-131624008D01*
X143687785Y-131599507D01*
X143668087Y-131572947D01*
X143651087Y-131544584D01*
X143636949Y-131514691D01*
X143625809Y-131483557D01*
X143617775Y-131451481D01*
X143612923Y-131418771D01*
X143611300Y-131385744D01*
X143611300Y-130259656D01*
X143612923Y-130226629D01*
X143617775Y-130193919D01*
X143625809Y-130161843D01*
X143636949Y-130130709D01*
X143651087Y-130100816D01*
X143668087Y-130072453D01*
X143687785Y-130045893D01*
X143709992Y-130021392D01*
X143734493Y-129999185D01*
X143761053Y-129979487D01*
X143789416Y-129962487D01*
X143819309Y-129948349D01*
X143850443Y-129937209D01*
X143882519Y-129929175D01*
X143915229Y-129924323D01*
X143948256Y-129922700D01*
X144824344Y-129922700D01*
X144857371Y-129924323D01*
X144857371Y-129924323D01*
G37*
D14*
X144386300Y-130822700D03*
D13*
G36*
X142807371Y-129924323D02*
X142840081Y-129929175D01*
X142872157Y-129937209D01*
X142903291Y-129948349D01*
X142933184Y-129962487D01*
X142961547Y-129979487D01*
X142988107Y-129999185D01*
X143012608Y-130021392D01*
X143034815Y-130045893D01*
X143054513Y-130072453D01*
X143071513Y-130100816D01*
X143085651Y-130130709D01*
X143096791Y-130161843D01*
X143104825Y-130193919D01*
X143109677Y-130226629D01*
X143111300Y-130259656D01*
X143111300Y-131385744D01*
X143109677Y-131418771D01*
X143104825Y-131451481D01*
X143096791Y-131483557D01*
X143085651Y-131514691D01*
X143071513Y-131544584D01*
X143054513Y-131572947D01*
X143034815Y-131599507D01*
X143012608Y-131624008D01*
X142988107Y-131646215D01*
X142961547Y-131665913D01*
X142933184Y-131682913D01*
X142903291Y-131697051D01*
X142872157Y-131708191D01*
X142840081Y-131716225D01*
X142807371Y-131721077D01*
X142774344Y-131722700D01*
X141898256Y-131722700D01*
X141865229Y-131721077D01*
X141832519Y-131716225D01*
X141800443Y-131708191D01*
X141769309Y-131697051D01*
X141739416Y-131682913D01*
X141711053Y-131665913D01*
X141684493Y-131646215D01*
X141659992Y-131624008D01*
X141637785Y-131599507D01*
X141618087Y-131572947D01*
X141601087Y-131544584D01*
X141586949Y-131514691D01*
X141575809Y-131483557D01*
X141567775Y-131451481D01*
X141562923Y-131418771D01*
X141561300Y-131385744D01*
X141561300Y-130259656D01*
X141562923Y-130226629D01*
X141567775Y-130193919D01*
X141575809Y-130161843D01*
X141586949Y-130130709D01*
X141601087Y-130100816D01*
X141618087Y-130072453D01*
X141637785Y-130045893D01*
X141659992Y-130021392D01*
X141684493Y-129999185D01*
X141711053Y-129979487D01*
X141739416Y-129962487D01*
X141769309Y-129948349D01*
X141800443Y-129937209D01*
X141832519Y-129929175D01*
X141865229Y-129924323D01*
X141898256Y-129922700D01*
X142774344Y-129922700D01*
X142807371Y-129924323D01*
X142807371Y-129924323D01*
G37*
D14*
X142336300Y-130822700D03*
G04 #@! TD*
D13*
G04 #@! TO.C,L2*
G36*
X144857371Y-127955823D02*
X144890081Y-127960675D01*
X144922157Y-127968709D01*
X144953291Y-127979849D01*
X144983184Y-127993987D01*
X145011547Y-128010987D01*
X145038107Y-128030685D01*
X145062608Y-128052892D01*
X145084815Y-128077393D01*
X145104513Y-128103953D01*
X145121513Y-128132316D01*
X145135651Y-128162209D01*
X145146791Y-128193343D01*
X145154825Y-128225419D01*
X145159677Y-128258129D01*
X145161300Y-128291156D01*
X145161300Y-129417244D01*
X145159677Y-129450271D01*
X145154825Y-129482981D01*
X145146791Y-129515057D01*
X145135651Y-129546191D01*
X145121513Y-129576084D01*
X145104513Y-129604447D01*
X145084815Y-129631007D01*
X145062608Y-129655508D01*
X145038107Y-129677715D01*
X145011547Y-129697413D01*
X144983184Y-129714413D01*
X144953291Y-129728551D01*
X144922157Y-129739691D01*
X144890081Y-129747725D01*
X144857371Y-129752577D01*
X144824344Y-129754200D01*
X143948256Y-129754200D01*
X143915229Y-129752577D01*
X143882519Y-129747725D01*
X143850443Y-129739691D01*
X143819309Y-129728551D01*
X143789416Y-129714413D01*
X143761053Y-129697413D01*
X143734493Y-129677715D01*
X143709992Y-129655508D01*
X143687785Y-129631007D01*
X143668087Y-129604447D01*
X143651087Y-129576084D01*
X143636949Y-129546191D01*
X143625809Y-129515057D01*
X143617775Y-129482981D01*
X143612923Y-129450271D01*
X143611300Y-129417244D01*
X143611300Y-128291156D01*
X143612923Y-128258129D01*
X143617775Y-128225419D01*
X143625809Y-128193343D01*
X143636949Y-128162209D01*
X143651087Y-128132316D01*
X143668087Y-128103953D01*
X143687785Y-128077393D01*
X143709992Y-128052892D01*
X143734493Y-128030685D01*
X143761053Y-128010987D01*
X143789416Y-127993987D01*
X143819309Y-127979849D01*
X143850443Y-127968709D01*
X143882519Y-127960675D01*
X143915229Y-127955823D01*
X143948256Y-127954200D01*
X144824344Y-127954200D01*
X144857371Y-127955823D01*
X144857371Y-127955823D01*
G37*
D14*
X144386300Y-128854200D03*
D13*
G36*
X142807371Y-127955823D02*
X142840081Y-127960675D01*
X142872157Y-127968709D01*
X142903291Y-127979849D01*
X142933184Y-127993987D01*
X142961547Y-128010987D01*
X142988107Y-128030685D01*
X143012608Y-128052892D01*
X143034815Y-128077393D01*
X143054513Y-128103953D01*
X143071513Y-128132316D01*
X143085651Y-128162209D01*
X143096791Y-128193343D01*
X143104825Y-128225419D01*
X143109677Y-128258129D01*
X143111300Y-128291156D01*
X143111300Y-129417244D01*
X143109677Y-129450271D01*
X143104825Y-129482981D01*
X143096791Y-129515057D01*
X143085651Y-129546191D01*
X143071513Y-129576084D01*
X143054513Y-129604447D01*
X143034815Y-129631007D01*
X143012608Y-129655508D01*
X142988107Y-129677715D01*
X142961547Y-129697413D01*
X142933184Y-129714413D01*
X142903291Y-129728551D01*
X142872157Y-129739691D01*
X142840081Y-129747725D01*
X142807371Y-129752577D01*
X142774344Y-129754200D01*
X141898256Y-129754200D01*
X141865229Y-129752577D01*
X141832519Y-129747725D01*
X141800443Y-129739691D01*
X141769309Y-129728551D01*
X141739416Y-129714413D01*
X141711053Y-129697413D01*
X141684493Y-129677715D01*
X141659992Y-129655508D01*
X141637785Y-129631007D01*
X141618087Y-129604447D01*
X141601087Y-129576084D01*
X141586949Y-129546191D01*
X141575809Y-129515057D01*
X141567775Y-129482981D01*
X141562923Y-129450271D01*
X141561300Y-129417244D01*
X141561300Y-128291156D01*
X141562923Y-128258129D01*
X141567775Y-128225419D01*
X141575809Y-128193343D01*
X141586949Y-128162209D01*
X141601087Y-128132316D01*
X141618087Y-128103953D01*
X141637785Y-128077393D01*
X141659992Y-128052892D01*
X141684493Y-128030685D01*
X141711053Y-128010987D01*
X141739416Y-127993987D01*
X141769309Y-127979849D01*
X141800443Y-127968709D01*
X141832519Y-127960675D01*
X141865229Y-127955823D01*
X141898256Y-127954200D01*
X142774344Y-127954200D01*
X142807371Y-127955823D01*
X142807371Y-127955823D01*
G37*
D14*
X142336300Y-128854200D03*
G04 #@! TD*
D13*
G04 #@! TO.C,L3*
G36*
X138530771Y-137419023D02*
X138563481Y-137423875D01*
X138595557Y-137431909D01*
X138626691Y-137443049D01*
X138656584Y-137457187D01*
X138684947Y-137474187D01*
X138711507Y-137493885D01*
X138736008Y-137516092D01*
X138758215Y-137540593D01*
X138777913Y-137567153D01*
X138794913Y-137595516D01*
X138809051Y-137625409D01*
X138820191Y-137656543D01*
X138828225Y-137688619D01*
X138833077Y-137721329D01*
X138834700Y-137754356D01*
X138834700Y-138630444D01*
X138833077Y-138663471D01*
X138828225Y-138696181D01*
X138820191Y-138728257D01*
X138809051Y-138759391D01*
X138794913Y-138789284D01*
X138777913Y-138817647D01*
X138758215Y-138844207D01*
X138736008Y-138868708D01*
X138711507Y-138890915D01*
X138684947Y-138910613D01*
X138656584Y-138927613D01*
X138626691Y-138941751D01*
X138595557Y-138952891D01*
X138563481Y-138960925D01*
X138530771Y-138965777D01*
X138497744Y-138967400D01*
X137371656Y-138967400D01*
X137338629Y-138965777D01*
X137305919Y-138960925D01*
X137273843Y-138952891D01*
X137242709Y-138941751D01*
X137212816Y-138927613D01*
X137184453Y-138910613D01*
X137157893Y-138890915D01*
X137133392Y-138868708D01*
X137111185Y-138844207D01*
X137091487Y-138817647D01*
X137074487Y-138789284D01*
X137060349Y-138759391D01*
X137049209Y-138728257D01*
X137041175Y-138696181D01*
X137036323Y-138663471D01*
X137034700Y-138630444D01*
X137034700Y-137754356D01*
X137036323Y-137721329D01*
X137041175Y-137688619D01*
X137049209Y-137656543D01*
X137060349Y-137625409D01*
X137074487Y-137595516D01*
X137091487Y-137567153D01*
X137111185Y-137540593D01*
X137133392Y-137516092D01*
X137157893Y-137493885D01*
X137184453Y-137474187D01*
X137212816Y-137457187D01*
X137242709Y-137443049D01*
X137273843Y-137431909D01*
X137305919Y-137423875D01*
X137338629Y-137419023D01*
X137371656Y-137417400D01*
X138497744Y-137417400D01*
X138530771Y-137419023D01*
X138530771Y-137419023D01*
G37*
D14*
X137934700Y-138192400D03*
D13*
G36*
X138530771Y-139469023D02*
X138563481Y-139473875D01*
X138595557Y-139481909D01*
X138626691Y-139493049D01*
X138656584Y-139507187D01*
X138684947Y-139524187D01*
X138711507Y-139543885D01*
X138736008Y-139566092D01*
X138758215Y-139590593D01*
X138777913Y-139617153D01*
X138794913Y-139645516D01*
X138809051Y-139675409D01*
X138820191Y-139706543D01*
X138828225Y-139738619D01*
X138833077Y-139771329D01*
X138834700Y-139804356D01*
X138834700Y-140680444D01*
X138833077Y-140713471D01*
X138828225Y-140746181D01*
X138820191Y-140778257D01*
X138809051Y-140809391D01*
X138794913Y-140839284D01*
X138777913Y-140867647D01*
X138758215Y-140894207D01*
X138736008Y-140918708D01*
X138711507Y-140940915D01*
X138684947Y-140960613D01*
X138656584Y-140977613D01*
X138626691Y-140991751D01*
X138595557Y-141002891D01*
X138563481Y-141010925D01*
X138530771Y-141015777D01*
X138497744Y-141017400D01*
X137371656Y-141017400D01*
X137338629Y-141015777D01*
X137305919Y-141010925D01*
X137273843Y-141002891D01*
X137242709Y-140991751D01*
X137212816Y-140977613D01*
X137184453Y-140960613D01*
X137157893Y-140940915D01*
X137133392Y-140918708D01*
X137111185Y-140894207D01*
X137091487Y-140867647D01*
X137074487Y-140839284D01*
X137060349Y-140809391D01*
X137049209Y-140778257D01*
X137041175Y-140746181D01*
X137036323Y-140713471D01*
X137034700Y-140680444D01*
X137034700Y-139804356D01*
X137036323Y-139771329D01*
X137041175Y-139738619D01*
X137049209Y-139706543D01*
X137060349Y-139675409D01*
X137074487Y-139645516D01*
X137091487Y-139617153D01*
X137111185Y-139590593D01*
X137133392Y-139566092D01*
X137157893Y-139543885D01*
X137184453Y-139524187D01*
X137212816Y-139507187D01*
X137242709Y-139493049D01*
X137273843Y-139481909D01*
X137305919Y-139473875D01*
X137338629Y-139469023D01*
X137371656Y-139467400D01*
X138497744Y-139467400D01*
X138530771Y-139469023D01*
X138530771Y-139469023D01*
G37*
D14*
X137934700Y-140242400D03*
G04 #@! TD*
D13*
G04 #@! TO.C,L4*
G36*
X140778671Y-137406323D02*
X140811381Y-137411175D01*
X140843457Y-137419209D01*
X140874591Y-137430349D01*
X140904484Y-137444487D01*
X140932847Y-137461487D01*
X140959407Y-137481185D01*
X140983908Y-137503392D01*
X141006115Y-137527893D01*
X141025813Y-137554453D01*
X141042813Y-137582816D01*
X141056951Y-137612709D01*
X141068091Y-137643843D01*
X141076125Y-137675919D01*
X141080977Y-137708629D01*
X141082600Y-137741656D01*
X141082600Y-138617744D01*
X141080977Y-138650771D01*
X141076125Y-138683481D01*
X141068091Y-138715557D01*
X141056951Y-138746691D01*
X141042813Y-138776584D01*
X141025813Y-138804947D01*
X141006115Y-138831507D01*
X140983908Y-138856008D01*
X140959407Y-138878215D01*
X140932847Y-138897913D01*
X140904484Y-138914913D01*
X140874591Y-138929051D01*
X140843457Y-138940191D01*
X140811381Y-138948225D01*
X140778671Y-138953077D01*
X140745644Y-138954700D01*
X139619556Y-138954700D01*
X139586529Y-138953077D01*
X139553819Y-138948225D01*
X139521743Y-138940191D01*
X139490609Y-138929051D01*
X139460716Y-138914913D01*
X139432353Y-138897913D01*
X139405793Y-138878215D01*
X139381292Y-138856008D01*
X139359085Y-138831507D01*
X139339387Y-138804947D01*
X139322387Y-138776584D01*
X139308249Y-138746691D01*
X139297109Y-138715557D01*
X139289075Y-138683481D01*
X139284223Y-138650771D01*
X139282600Y-138617744D01*
X139282600Y-137741656D01*
X139284223Y-137708629D01*
X139289075Y-137675919D01*
X139297109Y-137643843D01*
X139308249Y-137612709D01*
X139322387Y-137582816D01*
X139339387Y-137554453D01*
X139359085Y-137527893D01*
X139381292Y-137503392D01*
X139405793Y-137481185D01*
X139432353Y-137461487D01*
X139460716Y-137444487D01*
X139490609Y-137430349D01*
X139521743Y-137419209D01*
X139553819Y-137411175D01*
X139586529Y-137406323D01*
X139619556Y-137404700D01*
X140745644Y-137404700D01*
X140778671Y-137406323D01*
X140778671Y-137406323D01*
G37*
D14*
X140182600Y-138179700D03*
D13*
G36*
X140778671Y-139456323D02*
X140811381Y-139461175D01*
X140843457Y-139469209D01*
X140874591Y-139480349D01*
X140904484Y-139494487D01*
X140932847Y-139511487D01*
X140959407Y-139531185D01*
X140983908Y-139553392D01*
X141006115Y-139577893D01*
X141025813Y-139604453D01*
X141042813Y-139632816D01*
X141056951Y-139662709D01*
X141068091Y-139693843D01*
X141076125Y-139725919D01*
X141080977Y-139758629D01*
X141082600Y-139791656D01*
X141082600Y-140667744D01*
X141080977Y-140700771D01*
X141076125Y-140733481D01*
X141068091Y-140765557D01*
X141056951Y-140796691D01*
X141042813Y-140826584D01*
X141025813Y-140854947D01*
X141006115Y-140881507D01*
X140983908Y-140906008D01*
X140959407Y-140928215D01*
X140932847Y-140947913D01*
X140904484Y-140964913D01*
X140874591Y-140979051D01*
X140843457Y-140990191D01*
X140811381Y-140998225D01*
X140778671Y-141003077D01*
X140745644Y-141004700D01*
X139619556Y-141004700D01*
X139586529Y-141003077D01*
X139553819Y-140998225D01*
X139521743Y-140990191D01*
X139490609Y-140979051D01*
X139460716Y-140964913D01*
X139432353Y-140947913D01*
X139405793Y-140928215D01*
X139381292Y-140906008D01*
X139359085Y-140881507D01*
X139339387Y-140854947D01*
X139322387Y-140826584D01*
X139308249Y-140796691D01*
X139297109Y-140765557D01*
X139289075Y-140733481D01*
X139284223Y-140700771D01*
X139282600Y-140667744D01*
X139282600Y-139791656D01*
X139284223Y-139758629D01*
X139289075Y-139725919D01*
X139297109Y-139693843D01*
X139308249Y-139662709D01*
X139322387Y-139632816D01*
X139339387Y-139604453D01*
X139359085Y-139577893D01*
X139381292Y-139553392D01*
X139405793Y-139531185D01*
X139432353Y-139511487D01*
X139460716Y-139494487D01*
X139490609Y-139480349D01*
X139521743Y-139469209D01*
X139553819Y-139461175D01*
X139586529Y-139456323D01*
X139619556Y-139454700D01*
X140745644Y-139454700D01*
X140778671Y-139456323D01*
X140778671Y-139456323D01*
G37*
D14*
X140182600Y-140229700D03*
G04 #@! TD*
D13*
G04 #@! TO.C,R1*
G36*
X118232871Y-103749623D02*
X118265581Y-103754475D01*
X118297657Y-103762509D01*
X118328791Y-103773649D01*
X118358684Y-103787787D01*
X118387047Y-103804787D01*
X118413607Y-103824485D01*
X118438108Y-103846692D01*
X118460315Y-103871193D01*
X118480013Y-103897753D01*
X118497013Y-103926116D01*
X118511151Y-103956009D01*
X118522291Y-103987143D01*
X118530325Y-104019219D01*
X118535177Y-104051929D01*
X118536800Y-104084956D01*
X118536800Y-105211044D01*
X118535177Y-105244071D01*
X118530325Y-105276781D01*
X118522291Y-105308857D01*
X118511151Y-105339991D01*
X118497013Y-105369884D01*
X118480013Y-105398247D01*
X118460315Y-105424807D01*
X118438108Y-105449308D01*
X118413607Y-105471515D01*
X118387047Y-105491213D01*
X118358684Y-105508213D01*
X118328791Y-105522351D01*
X118297657Y-105533491D01*
X118265581Y-105541525D01*
X118232871Y-105546377D01*
X118199844Y-105548000D01*
X117323756Y-105548000D01*
X117290729Y-105546377D01*
X117258019Y-105541525D01*
X117225943Y-105533491D01*
X117194809Y-105522351D01*
X117164916Y-105508213D01*
X117136553Y-105491213D01*
X117109993Y-105471515D01*
X117085492Y-105449308D01*
X117063285Y-105424807D01*
X117043587Y-105398247D01*
X117026587Y-105369884D01*
X117012449Y-105339991D01*
X117001309Y-105308857D01*
X116993275Y-105276781D01*
X116988423Y-105244071D01*
X116986800Y-105211044D01*
X116986800Y-104084956D01*
X116988423Y-104051929D01*
X116993275Y-104019219D01*
X117001309Y-103987143D01*
X117012449Y-103956009D01*
X117026587Y-103926116D01*
X117043587Y-103897753D01*
X117063285Y-103871193D01*
X117085492Y-103846692D01*
X117109993Y-103824485D01*
X117136553Y-103804787D01*
X117164916Y-103787787D01*
X117194809Y-103773649D01*
X117225943Y-103762509D01*
X117258019Y-103754475D01*
X117290729Y-103749623D01*
X117323756Y-103748000D01*
X118199844Y-103748000D01*
X118232871Y-103749623D01*
X118232871Y-103749623D01*
G37*
D14*
X117761800Y-104648000D03*
D13*
G36*
X120282871Y-103749623D02*
X120315581Y-103754475D01*
X120347657Y-103762509D01*
X120378791Y-103773649D01*
X120408684Y-103787787D01*
X120437047Y-103804787D01*
X120463607Y-103824485D01*
X120488108Y-103846692D01*
X120510315Y-103871193D01*
X120530013Y-103897753D01*
X120547013Y-103926116D01*
X120561151Y-103956009D01*
X120572291Y-103987143D01*
X120580325Y-104019219D01*
X120585177Y-104051929D01*
X120586800Y-104084956D01*
X120586800Y-105211044D01*
X120585177Y-105244071D01*
X120580325Y-105276781D01*
X120572291Y-105308857D01*
X120561151Y-105339991D01*
X120547013Y-105369884D01*
X120530013Y-105398247D01*
X120510315Y-105424807D01*
X120488108Y-105449308D01*
X120463607Y-105471515D01*
X120437047Y-105491213D01*
X120408684Y-105508213D01*
X120378791Y-105522351D01*
X120347657Y-105533491D01*
X120315581Y-105541525D01*
X120282871Y-105546377D01*
X120249844Y-105548000D01*
X119373756Y-105548000D01*
X119340729Y-105546377D01*
X119308019Y-105541525D01*
X119275943Y-105533491D01*
X119244809Y-105522351D01*
X119214916Y-105508213D01*
X119186553Y-105491213D01*
X119159993Y-105471515D01*
X119135492Y-105449308D01*
X119113285Y-105424807D01*
X119093587Y-105398247D01*
X119076587Y-105369884D01*
X119062449Y-105339991D01*
X119051309Y-105308857D01*
X119043275Y-105276781D01*
X119038423Y-105244071D01*
X119036800Y-105211044D01*
X119036800Y-104084956D01*
X119038423Y-104051929D01*
X119043275Y-104019219D01*
X119051309Y-103987143D01*
X119062449Y-103956009D01*
X119076587Y-103926116D01*
X119093587Y-103897753D01*
X119113285Y-103871193D01*
X119135492Y-103846692D01*
X119159993Y-103824485D01*
X119186553Y-103804787D01*
X119214916Y-103787787D01*
X119244809Y-103773649D01*
X119275943Y-103762509D01*
X119308019Y-103754475D01*
X119340729Y-103749623D01*
X119373756Y-103748000D01*
X120249844Y-103748000D01*
X120282871Y-103749623D01*
X120282871Y-103749623D01*
G37*
D14*
X119811800Y-104648000D03*
G04 #@! TD*
D13*
G04 #@! TO.C,R2*
G36*
X118232871Y-101336623D02*
X118265581Y-101341475D01*
X118297657Y-101349509D01*
X118328791Y-101360649D01*
X118358684Y-101374787D01*
X118387047Y-101391787D01*
X118413607Y-101411485D01*
X118438108Y-101433692D01*
X118460315Y-101458193D01*
X118480013Y-101484753D01*
X118497013Y-101513116D01*
X118511151Y-101543009D01*
X118522291Y-101574143D01*
X118530325Y-101606219D01*
X118535177Y-101638929D01*
X118536800Y-101671956D01*
X118536800Y-102798044D01*
X118535177Y-102831071D01*
X118530325Y-102863781D01*
X118522291Y-102895857D01*
X118511151Y-102926991D01*
X118497013Y-102956884D01*
X118480013Y-102985247D01*
X118460315Y-103011807D01*
X118438108Y-103036308D01*
X118413607Y-103058515D01*
X118387047Y-103078213D01*
X118358684Y-103095213D01*
X118328791Y-103109351D01*
X118297657Y-103120491D01*
X118265581Y-103128525D01*
X118232871Y-103133377D01*
X118199844Y-103135000D01*
X117323756Y-103135000D01*
X117290729Y-103133377D01*
X117258019Y-103128525D01*
X117225943Y-103120491D01*
X117194809Y-103109351D01*
X117164916Y-103095213D01*
X117136553Y-103078213D01*
X117109993Y-103058515D01*
X117085492Y-103036308D01*
X117063285Y-103011807D01*
X117043587Y-102985247D01*
X117026587Y-102956884D01*
X117012449Y-102926991D01*
X117001309Y-102895857D01*
X116993275Y-102863781D01*
X116988423Y-102831071D01*
X116986800Y-102798044D01*
X116986800Y-101671956D01*
X116988423Y-101638929D01*
X116993275Y-101606219D01*
X117001309Y-101574143D01*
X117012449Y-101543009D01*
X117026587Y-101513116D01*
X117043587Y-101484753D01*
X117063285Y-101458193D01*
X117085492Y-101433692D01*
X117109993Y-101411485D01*
X117136553Y-101391787D01*
X117164916Y-101374787D01*
X117194809Y-101360649D01*
X117225943Y-101349509D01*
X117258019Y-101341475D01*
X117290729Y-101336623D01*
X117323756Y-101335000D01*
X118199844Y-101335000D01*
X118232871Y-101336623D01*
X118232871Y-101336623D01*
G37*
D14*
X117761800Y-102235000D03*
D13*
G36*
X120282871Y-101336623D02*
X120315581Y-101341475D01*
X120347657Y-101349509D01*
X120378791Y-101360649D01*
X120408684Y-101374787D01*
X120437047Y-101391787D01*
X120463607Y-101411485D01*
X120488108Y-101433692D01*
X120510315Y-101458193D01*
X120530013Y-101484753D01*
X120547013Y-101513116D01*
X120561151Y-101543009D01*
X120572291Y-101574143D01*
X120580325Y-101606219D01*
X120585177Y-101638929D01*
X120586800Y-101671956D01*
X120586800Y-102798044D01*
X120585177Y-102831071D01*
X120580325Y-102863781D01*
X120572291Y-102895857D01*
X120561151Y-102926991D01*
X120547013Y-102956884D01*
X120530013Y-102985247D01*
X120510315Y-103011807D01*
X120488108Y-103036308D01*
X120463607Y-103058515D01*
X120437047Y-103078213D01*
X120408684Y-103095213D01*
X120378791Y-103109351D01*
X120347657Y-103120491D01*
X120315581Y-103128525D01*
X120282871Y-103133377D01*
X120249844Y-103135000D01*
X119373756Y-103135000D01*
X119340729Y-103133377D01*
X119308019Y-103128525D01*
X119275943Y-103120491D01*
X119244809Y-103109351D01*
X119214916Y-103095213D01*
X119186553Y-103078213D01*
X119159993Y-103058515D01*
X119135492Y-103036308D01*
X119113285Y-103011807D01*
X119093587Y-102985247D01*
X119076587Y-102956884D01*
X119062449Y-102926991D01*
X119051309Y-102895857D01*
X119043275Y-102863781D01*
X119038423Y-102831071D01*
X119036800Y-102798044D01*
X119036800Y-101671956D01*
X119038423Y-101638929D01*
X119043275Y-101606219D01*
X119051309Y-101574143D01*
X119062449Y-101543009D01*
X119076587Y-101513116D01*
X119093587Y-101484753D01*
X119113285Y-101458193D01*
X119135492Y-101433692D01*
X119159993Y-101411485D01*
X119186553Y-101391787D01*
X119214916Y-101374787D01*
X119244809Y-101360649D01*
X119275943Y-101349509D01*
X119308019Y-101341475D01*
X119340729Y-101336623D01*
X119373756Y-101335000D01*
X120249844Y-101335000D01*
X120282871Y-101336623D01*
X120282871Y-101336623D01*
G37*
D14*
X119811800Y-102235000D03*
G04 #@! TD*
D13*
G04 #@! TO.C,R3*
G36*
X120143171Y-146439403D02*
X120175881Y-146444255D01*
X120207957Y-146452289D01*
X120239091Y-146463429D01*
X120268984Y-146477567D01*
X120297347Y-146494567D01*
X120323907Y-146514265D01*
X120348408Y-146536472D01*
X120370615Y-146560973D01*
X120390313Y-146587533D01*
X120407313Y-146615896D01*
X120421451Y-146645789D01*
X120432591Y-146676923D01*
X120440625Y-146708999D01*
X120445477Y-146741709D01*
X120447100Y-146774736D01*
X120447100Y-147900824D01*
X120445477Y-147933851D01*
X120440625Y-147966561D01*
X120432591Y-147998637D01*
X120421451Y-148029771D01*
X120407313Y-148059664D01*
X120390313Y-148088027D01*
X120370615Y-148114587D01*
X120348408Y-148139088D01*
X120323907Y-148161295D01*
X120297347Y-148180993D01*
X120268984Y-148197993D01*
X120239091Y-148212131D01*
X120207957Y-148223271D01*
X120175881Y-148231305D01*
X120143171Y-148236157D01*
X120110144Y-148237780D01*
X119234056Y-148237780D01*
X119201029Y-148236157D01*
X119168319Y-148231305D01*
X119136243Y-148223271D01*
X119105109Y-148212131D01*
X119075216Y-148197993D01*
X119046853Y-148180993D01*
X119020293Y-148161295D01*
X118995792Y-148139088D01*
X118973585Y-148114587D01*
X118953887Y-148088027D01*
X118936887Y-148059664D01*
X118922749Y-148029771D01*
X118911609Y-147998637D01*
X118903575Y-147966561D01*
X118898723Y-147933851D01*
X118897100Y-147900824D01*
X118897100Y-146774736D01*
X118898723Y-146741709D01*
X118903575Y-146708999D01*
X118911609Y-146676923D01*
X118922749Y-146645789D01*
X118936887Y-146615896D01*
X118953887Y-146587533D01*
X118973585Y-146560973D01*
X118995792Y-146536472D01*
X119020293Y-146514265D01*
X119046853Y-146494567D01*
X119075216Y-146477567D01*
X119105109Y-146463429D01*
X119136243Y-146452289D01*
X119168319Y-146444255D01*
X119201029Y-146439403D01*
X119234056Y-146437780D01*
X120110144Y-146437780D01*
X120143171Y-146439403D01*
X120143171Y-146439403D01*
G37*
D14*
X119672100Y-147337780D03*
D13*
G36*
X118093171Y-146439403D02*
X118125881Y-146444255D01*
X118157957Y-146452289D01*
X118189091Y-146463429D01*
X118218984Y-146477567D01*
X118247347Y-146494567D01*
X118273907Y-146514265D01*
X118298408Y-146536472D01*
X118320615Y-146560973D01*
X118340313Y-146587533D01*
X118357313Y-146615896D01*
X118371451Y-146645789D01*
X118382591Y-146676923D01*
X118390625Y-146708999D01*
X118395477Y-146741709D01*
X118397100Y-146774736D01*
X118397100Y-147900824D01*
X118395477Y-147933851D01*
X118390625Y-147966561D01*
X118382591Y-147998637D01*
X118371451Y-148029771D01*
X118357313Y-148059664D01*
X118340313Y-148088027D01*
X118320615Y-148114587D01*
X118298408Y-148139088D01*
X118273907Y-148161295D01*
X118247347Y-148180993D01*
X118218984Y-148197993D01*
X118189091Y-148212131D01*
X118157957Y-148223271D01*
X118125881Y-148231305D01*
X118093171Y-148236157D01*
X118060144Y-148237780D01*
X117184056Y-148237780D01*
X117151029Y-148236157D01*
X117118319Y-148231305D01*
X117086243Y-148223271D01*
X117055109Y-148212131D01*
X117025216Y-148197993D01*
X116996853Y-148180993D01*
X116970293Y-148161295D01*
X116945792Y-148139088D01*
X116923585Y-148114587D01*
X116903887Y-148088027D01*
X116886887Y-148059664D01*
X116872749Y-148029771D01*
X116861609Y-147998637D01*
X116853575Y-147966561D01*
X116848723Y-147933851D01*
X116847100Y-147900824D01*
X116847100Y-146774736D01*
X116848723Y-146741709D01*
X116853575Y-146708999D01*
X116861609Y-146676923D01*
X116872749Y-146645789D01*
X116886887Y-146615896D01*
X116903887Y-146587533D01*
X116923585Y-146560973D01*
X116945792Y-146536472D01*
X116970293Y-146514265D01*
X116996853Y-146494567D01*
X117025216Y-146477567D01*
X117055109Y-146463429D01*
X117086243Y-146452289D01*
X117118319Y-146444255D01*
X117151029Y-146439403D01*
X117184056Y-146437780D01*
X118060144Y-146437780D01*
X118093171Y-146439403D01*
X118093171Y-146439403D01*
G37*
D14*
X117622100Y-147337780D03*
G04 #@! TD*
D13*
G04 #@! TO.C,R4*
G36*
X118034751Y-139901443D02*
X118067461Y-139906295D01*
X118099537Y-139914329D01*
X118130671Y-139925469D01*
X118160564Y-139939607D01*
X118188927Y-139956607D01*
X118215487Y-139976305D01*
X118239988Y-139998512D01*
X118262195Y-140023013D01*
X118281893Y-140049573D01*
X118298893Y-140077936D01*
X118313031Y-140107829D01*
X118324171Y-140138963D01*
X118332205Y-140171039D01*
X118337057Y-140203749D01*
X118338680Y-140236776D01*
X118338680Y-141362864D01*
X118337057Y-141395891D01*
X118332205Y-141428601D01*
X118324171Y-141460677D01*
X118313031Y-141491811D01*
X118298893Y-141521704D01*
X118281893Y-141550067D01*
X118262195Y-141576627D01*
X118239988Y-141601128D01*
X118215487Y-141623335D01*
X118188927Y-141643033D01*
X118160564Y-141660033D01*
X118130671Y-141674171D01*
X118099537Y-141685311D01*
X118067461Y-141693345D01*
X118034751Y-141698197D01*
X118001724Y-141699820D01*
X117125636Y-141699820D01*
X117092609Y-141698197D01*
X117059899Y-141693345D01*
X117027823Y-141685311D01*
X116996689Y-141674171D01*
X116966796Y-141660033D01*
X116938433Y-141643033D01*
X116911873Y-141623335D01*
X116887372Y-141601128D01*
X116865165Y-141576627D01*
X116845467Y-141550067D01*
X116828467Y-141521704D01*
X116814329Y-141491811D01*
X116803189Y-141460677D01*
X116795155Y-141428601D01*
X116790303Y-141395891D01*
X116788680Y-141362864D01*
X116788680Y-140236776D01*
X116790303Y-140203749D01*
X116795155Y-140171039D01*
X116803189Y-140138963D01*
X116814329Y-140107829D01*
X116828467Y-140077936D01*
X116845467Y-140049573D01*
X116865165Y-140023013D01*
X116887372Y-139998512D01*
X116911873Y-139976305D01*
X116938433Y-139956607D01*
X116966796Y-139939607D01*
X116996689Y-139925469D01*
X117027823Y-139914329D01*
X117059899Y-139906295D01*
X117092609Y-139901443D01*
X117125636Y-139899820D01*
X118001724Y-139899820D01*
X118034751Y-139901443D01*
X118034751Y-139901443D01*
G37*
D14*
X117563680Y-140799820D03*
D13*
G36*
X120084751Y-139901443D02*
X120117461Y-139906295D01*
X120149537Y-139914329D01*
X120180671Y-139925469D01*
X120210564Y-139939607D01*
X120238927Y-139956607D01*
X120265487Y-139976305D01*
X120289988Y-139998512D01*
X120312195Y-140023013D01*
X120331893Y-140049573D01*
X120348893Y-140077936D01*
X120363031Y-140107829D01*
X120374171Y-140138963D01*
X120382205Y-140171039D01*
X120387057Y-140203749D01*
X120388680Y-140236776D01*
X120388680Y-141362864D01*
X120387057Y-141395891D01*
X120382205Y-141428601D01*
X120374171Y-141460677D01*
X120363031Y-141491811D01*
X120348893Y-141521704D01*
X120331893Y-141550067D01*
X120312195Y-141576627D01*
X120289988Y-141601128D01*
X120265487Y-141623335D01*
X120238927Y-141643033D01*
X120210564Y-141660033D01*
X120180671Y-141674171D01*
X120149537Y-141685311D01*
X120117461Y-141693345D01*
X120084751Y-141698197D01*
X120051724Y-141699820D01*
X119175636Y-141699820D01*
X119142609Y-141698197D01*
X119109899Y-141693345D01*
X119077823Y-141685311D01*
X119046689Y-141674171D01*
X119016796Y-141660033D01*
X118988433Y-141643033D01*
X118961873Y-141623335D01*
X118937372Y-141601128D01*
X118915165Y-141576627D01*
X118895467Y-141550067D01*
X118878467Y-141521704D01*
X118864329Y-141491811D01*
X118853189Y-141460677D01*
X118845155Y-141428601D01*
X118840303Y-141395891D01*
X118838680Y-141362864D01*
X118838680Y-140236776D01*
X118840303Y-140203749D01*
X118845155Y-140171039D01*
X118853189Y-140138963D01*
X118864329Y-140107829D01*
X118878467Y-140077936D01*
X118895467Y-140049573D01*
X118915165Y-140023013D01*
X118937372Y-139998512D01*
X118961873Y-139976305D01*
X118988433Y-139956607D01*
X119016796Y-139939607D01*
X119046689Y-139925469D01*
X119077823Y-139914329D01*
X119109899Y-139906295D01*
X119142609Y-139901443D01*
X119175636Y-139899820D01*
X120051724Y-139899820D01*
X120084751Y-139901443D01*
X120084751Y-139901443D01*
G37*
D14*
X119613680Y-140799820D03*
G04 #@! TD*
D13*
G04 #@! TO.C,R5*
G36*
X120066971Y-143747003D02*
X120099681Y-143751855D01*
X120131757Y-143759889D01*
X120162891Y-143771029D01*
X120192784Y-143785167D01*
X120221147Y-143802167D01*
X120247707Y-143821865D01*
X120272208Y-143844072D01*
X120294415Y-143868573D01*
X120314113Y-143895133D01*
X120331113Y-143923496D01*
X120345251Y-143953389D01*
X120356391Y-143984523D01*
X120364425Y-144016599D01*
X120369277Y-144049309D01*
X120370900Y-144082336D01*
X120370900Y-145208424D01*
X120369277Y-145241451D01*
X120364425Y-145274161D01*
X120356391Y-145306237D01*
X120345251Y-145337371D01*
X120331113Y-145367264D01*
X120314113Y-145395627D01*
X120294415Y-145422187D01*
X120272208Y-145446688D01*
X120247707Y-145468895D01*
X120221147Y-145488593D01*
X120192784Y-145505593D01*
X120162891Y-145519731D01*
X120131757Y-145530871D01*
X120099681Y-145538905D01*
X120066971Y-145543757D01*
X120033944Y-145545380D01*
X119157856Y-145545380D01*
X119124829Y-145543757D01*
X119092119Y-145538905D01*
X119060043Y-145530871D01*
X119028909Y-145519731D01*
X118999016Y-145505593D01*
X118970653Y-145488593D01*
X118944093Y-145468895D01*
X118919592Y-145446688D01*
X118897385Y-145422187D01*
X118877687Y-145395627D01*
X118860687Y-145367264D01*
X118846549Y-145337371D01*
X118835409Y-145306237D01*
X118827375Y-145274161D01*
X118822523Y-145241451D01*
X118820900Y-145208424D01*
X118820900Y-144082336D01*
X118822523Y-144049309D01*
X118827375Y-144016599D01*
X118835409Y-143984523D01*
X118846549Y-143953389D01*
X118860687Y-143923496D01*
X118877687Y-143895133D01*
X118897385Y-143868573D01*
X118919592Y-143844072D01*
X118944093Y-143821865D01*
X118970653Y-143802167D01*
X118999016Y-143785167D01*
X119028909Y-143771029D01*
X119060043Y-143759889D01*
X119092119Y-143751855D01*
X119124829Y-143747003D01*
X119157856Y-143745380D01*
X120033944Y-143745380D01*
X120066971Y-143747003D01*
X120066971Y-143747003D01*
G37*
D14*
X119595900Y-144645380D03*
D13*
G36*
X118016971Y-143747003D02*
X118049681Y-143751855D01*
X118081757Y-143759889D01*
X118112891Y-143771029D01*
X118142784Y-143785167D01*
X118171147Y-143802167D01*
X118197707Y-143821865D01*
X118222208Y-143844072D01*
X118244415Y-143868573D01*
X118264113Y-143895133D01*
X118281113Y-143923496D01*
X118295251Y-143953389D01*
X118306391Y-143984523D01*
X118314425Y-144016599D01*
X118319277Y-144049309D01*
X118320900Y-144082336D01*
X118320900Y-145208424D01*
X118319277Y-145241451D01*
X118314425Y-145274161D01*
X118306391Y-145306237D01*
X118295251Y-145337371D01*
X118281113Y-145367264D01*
X118264113Y-145395627D01*
X118244415Y-145422187D01*
X118222208Y-145446688D01*
X118197707Y-145468895D01*
X118171147Y-145488593D01*
X118142784Y-145505593D01*
X118112891Y-145519731D01*
X118081757Y-145530871D01*
X118049681Y-145538905D01*
X118016971Y-145543757D01*
X117983944Y-145545380D01*
X117107856Y-145545380D01*
X117074829Y-145543757D01*
X117042119Y-145538905D01*
X117010043Y-145530871D01*
X116978909Y-145519731D01*
X116949016Y-145505593D01*
X116920653Y-145488593D01*
X116894093Y-145468895D01*
X116869592Y-145446688D01*
X116847385Y-145422187D01*
X116827687Y-145395627D01*
X116810687Y-145367264D01*
X116796549Y-145337371D01*
X116785409Y-145306237D01*
X116777375Y-145274161D01*
X116772523Y-145241451D01*
X116770900Y-145208424D01*
X116770900Y-144082336D01*
X116772523Y-144049309D01*
X116777375Y-144016599D01*
X116785409Y-143984523D01*
X116796549Y-143953389D01*
X116810687Y-143923496D01*
X116827687Y-143895133D01*
X116847385Y-143868573D01*
X116869592Y-143844072D01*
X116894093Y-143821865D01*
X116920653Y-143802167D01*
X116949016Y-143785167D01*
X116978909Y-143771029D01*
X117010043Y-143759889D01*
X117042119Y-143751855D01*
X117074829Y-143747003D01*
X117107856Y-143745380D01*
X117983944Y-143745380D01*
X118016971Y-143747003D01*
X118016971Y-143747003D01*
G37*
D14*
X117545900Y-144645380D03*
G04 #@! TD*
D13*
G04 #@! TO.C,R6*
G36*
X120084751Y-137475743D02*
X120117461Y-137480595D01*
X120149537Y-137488629D01*
X120180671Y-137499769D01*
X120210564Y-137513907D01*
X120238927Y-137530907D01*
X120265487Y-137550605D01*
X120289988Y-137572812D01*
X120312195Y-137597313D01*
X120331893Y-137623873D01*
X120348893Y-137652236D01*
X120363031Y-137682129D01*
X120374171Y-137713263D01*
X120382205Y-137745339D01*
X120387057Y-137778049D01*
X120388680Y-137811076D01*
X120388680Y-138937164D01*
X120387057Y-138970191D01*
X120382205Y-139002901D01*
X120374171Y-139034977D01*
X120363031Y-139066111D01*
X120348893Y-139096004D01*
X120331893Y-139124367D01*
X120312195Y-139150927D01*
X120289988Y-139175428D01*
X120265487Y-139197635D01*
X120238927Y-139217333D01*
X120210564Y-139234333D01*
X120180671Y-139248471D01*
X120149537Y-139259611D01*
X120117461Y-139267645D01*
X120084751Y-139272497D01*
X120051724Y-139274120D01*
X119175636Y-139274120D01*
X119142609Y-139272497D01*
X119109899Y-139267645D01*
X119077823Y-139259611D01*
X119046689Y-139248471D01*
X119016796Y-139234333D01*
X118988433Y-139217333D01*
X118961873Y-139197635D01*
X118937372Y-139175428D01*
X118915165Y-139150927D01*
X118895467Y-139124367D01*
X118878467Y-139096004D01*
X118864329Y-139066111D01*
X118853189Y-139034977D01*
X118845155Y-139002901D01*
X118840303Y-138970191D01*
X118838680Y-138937164D01*
X118838680Y-137811076D01*
X118840303Y-137778049D01*
X118845155Y-137745339D01*
X118853189Y-137713263D01*
X118864329Y-137682129D01*
X118878467Y-137652236D01*
X118895467Y-137623873D01*
X118915165Y-137597313D01*
X118937372Y-137572812D01*
X118961873Y-137550605D01*
X118988433Y-137530907D01*
X119016796Y-137513907D01*
X119046689Y-137499769D01*
X119077823Y-137488629D01*
X119109899Y-137480595D01*
X119142609Y-137475743D01*
X119175636Y-137474120D01*
X120051724Y-137474120D01*
X120084751Y-137475743D01*
X120084751Y-137475743D01*
G37*
D14*
X119613680Y-138374120D03*
D13*
G36*
X118034751Y-137475743D02*
X118067461Y-137480595D01*
X118099537Y-137488629D01*
X118130671Y-137499769D01*
X118160564Y-137513907D01*
X118188927Y-137530907D01*
X118215487Y-137550605D01*
X118239988Y-137572812D01*
X118262195Y-137597313D01*
X118281893Y-137623873D01*
X118298893Y-137652236D01*
X118313031Y-137682129D01*
X118324171Y-137713263D01*
X118332205Y-137745339D01*
X118337057Y-137778049D01*
X118338680Y-137811076D01*
X118338680Y-138937164D01*
X118337057Y-138970191D01*
X118332205Y-139002901D01*
X118324171Y-139034977D01*
X118313031Y-139066111D01*
X118298893Y-139096004D01*
X118281893Y-139124367D01*
X118262195Y-139150927D01*
X118239988Y-139175428D01*
X118215487Y-139197635D01*
X118188927Y-139217333D01*
X118160564Y-139234333D01*
X118130671Y-139248471D01*
X118099537Y-139259611D01*
X118067461Y-139267645D01*
X118034751Y-139272497D01*
X118001724Y-139274120D01*
X117125636Y-139274120D01*
X117092609Y-139272497D01*
X117059899Y-139267645D01*
X117027823Y-139259611D01*
X116996689Y-139248471D01*
X116966796Y-139234333D01*
X116938433Y-139217333D01*
X116911873Y-139197635D01*
X116887372Y-139175428D01*
X116865165Y-139150927D01*
X116845467Y-139124367D01*
X116828467Y-139096004D01*
X116814329Y-139066111D01*
X116803189Y-139034977D01*
X116795155Y-139002901D01*
X116790303Y-138970191D01*
X116788680Y-138937164D01*
X116788680Y-137811076D01*
X116790303Y-137778049D01*
X116795155Y-137745339D01*
X116803189Y-137713263D01*
X116814329Y-137682129D01*
X116828467Y-137652236D01*
X116845467Y-137623873D01*
X116865165Y-137597313D01*
X116887372Y-137572812D01*
X116911873Y-137550605D01*
X116938433Y-137530907D01*
X116966796Y-137513907D01*
X116996689Y-137499769D01*
X117027823Y-137488629D01*
X117059899Y-137480595D01*
X117092609Y-137475743D01*
X117125636Y-137474120D01*
X118001724Y-137474120D01*
X118034751Y-137475743D01*
X118034751Y-137475743D01*
G37*
D14*
X117563680Y-138374120D03*
G04 #@! TD*
D13*
G04 #@! TO.C,R7*
G36*
X122782771Y-139975423D02*
X122815481Y-139980275D01*
X122847557Y-139988309D01*
X122878691Y-139999449D01*
X122908584Y-140013587D01*
X122936947Y-140030587D01*
X122963507Y-140050285D01*
X122988008Y-140072492D01*
X123010215Y-140096993D01*
X123029913Y-140123553D01*
X123046913Y-140151916D01*
X123061051Y-140181809D01*
X123072191Y-140212943D01*
X123080225Y-140245019D01*
X123085077Y-140277729D01*
X123086700Y-140310756D01*
X123086700Y-141186844D01*
X123085077Y-141219871D01*
X123080225Y-141252581D01*
X123072191Y-141284657D01*
X123061051Y-141315791D01*
X123046913Y-141345684D01*
X123029913Y-141374047D01*
X123010215Y-141400607D01*
X122988008Y-141425108D01*
X122963507Y-141447315D01*
X122936947Y-141467013D01*
X122908584Y-141484013D01*
X122878691Y-141498151D01*
X122847557Y-141509291D01*
X122815481Y-141517325D01*
X122782771Y-141522177D01*
X122749744Y-141523800D01*
X121623656Y-141523800D01*
X121590629Y-141522177D01*
X121557919Y-141517325D01*
X121525843Y-141509291D01*
X121494709Y-141498151D01*
X121464816Y-141484013D01*
X121436453Y-141467013D01*
X121409893Y-141447315D01*
X121385392Y-141425108D01*
X121363185Y-141400607D01*
X121343487Y-141374047D01*
X121326487Y-141345684D01*
X121312349Y-141315791D01*
X121301209Y-141284657D01*
X121293175Y-141252581D01*
X121288323Y-141219871D01*
X121286700Y-141186844D01*
X121286700Y-140310756D01*
X121288323Y-140277729D01*
X121293175Y-140245019D01*
X121301209Y-140212943D01*
X121312349Y-140181809D01*
X121326487Y-140151916D01*
X121343487Y-140123553D01*
X121363185Y-140096993D01*
X121385392Y-140072492D01*
X121409893Y-140050285D01*
X121436453Y-140030587D01*
X121464816Y-140013587D01*
X121494709Y-139999449D01*
X121525843Y-139988309D01*
X121557919Y-139980275D01*
X121590629Y-139975423D01*
X121623656Y-139973800D01*
X122749744Y-139973800D01*
X122782771Y-139975423D01*
X122782771Y-139975423D01*
G37*
D14*
X122186700Y-140748800D03*
D13*
G36*
X122782771Y-142025423D02*
X122815481Y-142030275D01*
X122847557Y-142038309D01*
X122878691Y-142049449D01*
X122908584Y-142063587D01*
X122936947Y-142080587D01*
X122963507Y-142100285D01*
X122988008Y-142122492D01*
X123010215Y-142146993D01*
X123029913Y-142173553D01*
X123046913Y-142201916D01*
X123061051Y-142231809D01*
X123072191Y-142262943D01*
X123080225Y-142295019D01*
X123085077Y-142327729D01*
X123086700Y-142360756D01*
X123086700Y-143236844D01*
X123085077Y-143269871D01*
X123080225Y-143302581D01*
X123072191Y-143334657D01*
X123061051Y-143365791D01*
X123046913Y-143395684D01*
X123029913Y-143424047D01*
X123010215Y-143450607D01*
X122988008Y-143475108D01*
X122963507Y-143497315D01*
X122936947Y-143517013D01*
X122908584Y-143534013D01*
X122878691Y-143548151D01*
X122847557Y-143559291D01*
X122815481Y-143567325D01*
X122782771Y-143572177D01*
X122749744Y-143573800D01*
X121623656Y-143573800D01*
X121590629Y-143572177D01*
X121557919Y-143567325D01*
X121525843Y-143559291D01*
X121494709Y-143548151D01*
X121464816Y-143534013D01*
X121436453Y-143517013D01*
X121409893Y-143497315D01*
X121385392Y-143475108D01*
X121363185Y-143450607D01*
X121343487Y-143424047D01*
X121326487Y-143395684D01*
X121312349Y-143365791D01*
X121301209Y-143334657D01*
X121293175Y-143302581D01*
X121288323Y-143269871D01*
X121286700Y-143236844D01*
X121286700Y-142360756D01*
X121288323Y-142327729D01*
X121293175Y-142295019D01*
X121301209Y-142262943D01*
X121312349Y-142231809D01*
X121326487Y-142201916D01*
X121343487Y-142173553D01*
X121363185Y-142146993D01*
X121385392Y-142122492D01*
X121409893Y-142100285D01*
X121436453Y-142080587D01*
X121464816Y-142063587D01*
X121494709Y-142049449D01*
X121525843Y-142038309D01*
X121557919Y-142030275D01*
X121590629Y-142025423D01*
X121623656Y-142023800D01*
X122749744Y-142023800D01*
X122782771Y-142025423D01*
X122782771Y-142025423D01*
G37*
D14*
X122186700Y-142798800D03*
G04 #@! TD*
D13*
G04 #@! TO.C,R8*
G36*
X126869631Y-121462743D02*
X126902341Y-121467595D01*
X126934417Y-121475629D01*
X126965551Y-121486769D01*
X126995444Y-121500907D01*
X127023807Y-121517907D01*
X127050367Y-121537605D01*
X127074868Y-121559812D01*
X127097075Y-121584313D01*
X127116773Y-121610873D01*
X127133773Y-121639236D01*
X127147911Y-121669129D01*
X127159051Y-121700263D01*
X127167085Y-121732339D01*
X127171937Y-121765049D01*
X127173560Y-121798076D01*
X127173560Y-122674164D01*
X127171937Y-122707191D01*
X127167085Y-122739901D01*
X127159051Y-122771977D01*
X127147911Y-122803111D01*
X127133773Y-122833004D01*
X127116773Y-122861367D01*
X127097075Y-122887927D01*
X127074868Y-122912428D01*
X127050367Y-122934635D01*
X127023807Y-122954333D01*
X126995444Y-122971333D01*
X126965551Y-122985471D01*
X126934417Y-122996611D01*
X126902341Y-123004645D01*
X126869631Y-123009497D01*
X126836604Y-123011120D01*
X125710516Y-123011120D01*
X125677489Y-123009497D01*
X125644779Y-123004645D01*
X125612703Y-122996611D01*
X125581569Y-122985471D01*
X125551676Y-122971333D01*
X125523313Y-122954333D01*
X125496753Y-122934635D01*
X125472252Y-122912428D01*
X125450045Y-122887927D01*
X125430347Y-122861367D01*
X125413347Y-122833004D01*
X125399209Y-122803111D01*
X125388069Y-122771977D01*
X125380035Y-122739901D01*
X125375183Y-122707191D01*
X125373560Y-122674164D01*
X125373560Y-121798076D01*
X125375183Y-121765049D01*
X125380035Y-121732339D01*
X125388069Y-121700263D01*
X125399209Y-121669129D01*
X125413347Y-121639236D01*
X125430347Y-121610873D01*
X125450045Y-121584313D01*
X125472252Y-121559812D01*
X125496753Y-121537605D01*
X125523313Y-121517907D01*
X125551676Y-121500907D01*
X125581569Y-121486769D01*
X125612703Y-121475629D01*
X125644779Y-121467595D01*
X125677489Y-121462743D01*
X125710516Y-121461120D01*
X126836604Y-121461120D01*
X126869631Y-121462743D01*
X126869631Y-121462743D01*
G37*
D14*
X126273560Y-122236120D03*
D13*
G36*
X126869631Y-123512743D02*
X126902341Y-123517595D01*
X126934417Y-123525629D01*
X126965551Y-123536769D01*
X126995444Y-123550907D01*
X127023807Y-123567907D01*
X127050367Y-123587605D01*
X127074868Y-123609812D01*
X127097075Y-123634313D01*
X127116773Y-123660873D01*
X127133773Y-123689236D01*
X127147911Y-123719129D01*
X127159051Y-123750263D01*
X127167085Y-123782339D01*
X127171937Y-123815049D01*
X127173560Y-123848076D01*
X127173560Y-124724164D01*
X127171937Y-124757191D01*
X127167085Y-124789901D01*
X127159051Y-124821977D01*
X127147911Y-124853111D01*
X127133773Y-124883004D01*
X127116773Y-124911367D01*
X127097075Y-124937927D01*
X127074868Y-124962428D01*
X127050367Y-124984635D01*
X127023807Y-125004333D01*
X126995444Y-125021333D01*
X126965551Y-125035471D01*
X126934417Y-125046611D01*
X126902341Y-125054645D01*
X126869631Y-125059497D01*
X126836604Y-125061120D01*
X125710516Y-125061120D01*
X125677489Y-125059497D01*
X125644779Y-125054645D01*
X125612703Y-125046611D01*
X125581569Y-125035471D01*
X125551676Y-125021333D01*
X125523313Y-125004333D01*
X125496753Y-124984635D01*
X125472252Y-124962428D01*
X125450045Y-124937927D01*
X125430347Y-124911367D01*
X125413347Y-124883004D01*
X125399209Y-124853111D01*
X125388069Y-124821977D01*
X125380035Y-124789901D01*
X125375183Y-124757191D01*
X125373560Y-124724164D01*
X125373560Y-123848076D01*
X125375183Y-123815049D01*
X125380035Y-123782339D01*
X125388069Y-123750263D01*
X125399209Y-123719129D01*
X125413347Y-123689236D01*
X125430347Y-123660873D01*
X125450045Y-123634313D01*
X125472252Y-123609812D01*
X125496753Y-123587605D01*
X125523313Y-123567907D01*
X125551676Y-123550907D01*
X125581569Y-123536769D01*
X125612703Y-123525629D01*
X125644779Y-123517595D01*
X125677489Y-123512743D01*
X125710516Y-123511120D01*
X126836604Y-123511120D01*
X126869631Y-123512743D01*
X126869631Y-123512743D01*
G37*
D14*
X126273560Y-124286120D03*
G04 #@! TD*
D13*
G04 #@! TO.C,R9*
G36*
X129196271Y-123549463D02*
X129228981Y-123554315D01*
X129261057Y-123562349D01*
X129292191Y-123573489D01*
X129322084Y-123587627D01*
X129350447Y-123604627D01*
X129377007Y-123624325D01*
X129401508Y-123646532D01*
X129423715Y-123671033D01*
X129443413Y-123697593D01*
X129460413Y-123725956D01*
X129474551Y-123755849D01*
X129485691Y-123786983D01*
X129493725Y-123819059D01*
X129498577Y-123851769D01*
X129500200Y-123884796D01*
X129500200Y-124760884D01*
X129498577Y-124793911D01*
X129493725Y-124826621D01*
X129485691Y-124858697D01*
X129474551Y-124889831D01*
X129460413Y-124919724D01*
X129443413Y-124948087D01*
X129423715Y-124974647D01*
X129401508Y-124999148D01*
X129377007Y-125021355D01*
X129350447Y-125041053D01*
X129322084Y-125058053D01*
X129292191Y-125072191D01*
X129261057Y-125083331D01*
X129228981Y-125091365D01*
X129196271Y-125096217D01*
X129163244Y-125097840D01*
X128037156Y-125097840D01*
X128004129Y-125096217D01*
X127971419Y-125091365D01*
X127939343Y-125083331D01*
X127908209Y-125072191D01*
X127878316Y-125058053D01*
X127849953Y-125041053D01*
X127823393Y-125021355D01*
X127798892Y-124999148D01*
X127776685Y-124974647D01*
X127756987Y-124948087D01*
X127739987Y-124919724D01*
X127725849Y-124889831D01*
X127714709Y-124858697D01*
X127706675Y-124826621D01*
X127701823Y-124793911D01*
X127700200Y-124760884D01*
X127700200Y-123884796D01*
X127701823Y-123851769D01*
X127706675Y-123819059D01*
X127714709Y-123786983D01*
X127725849Y-123755849D01*
X127739987Y-123725956D01*
X127756987Y-123697593D01*
X127776685Y-123671033D01*
X127798892Y-123646532D01*
X127823393Y-123624325D01*
X127849953Y-123604627D01*
X127878316Y-123587627D01*
X127908209Y-123573489D01*
X127939343Y-123562349D01*
X127971419Y-123554315D01*
X128004129Y-123549463D01*
X128037156Y-123547840D01*
X129163244Y-123547840D01*
X129196271Y-123549463D01*
X129196271Y-123549463D01*
G37*
D14*
X128600200Y-124322840D03*
D13*
G36*
X129196271Y-121499463D02*
X129228981Y-121504315D01*
X129261057Y-121512349D01*
X129292191Y-121523489D01*
X129322084Y-121537627D01*
X129350447Y-121554627D01*
X129377007Y-121574325D01*
X129401508Y-121596532D01*
X129423715Y-121621033D01*
X129443413Y-121647593D01*
X129460413Y-121675956D01*
X129474551Y-121705849D01*
X129485691Y-121736983D01*
X129493725Y-121769059D01*
X129498577Y-121801769D01*
X129500200Y-121834796D01*
X129500200Y-122710884D01*
X129498577Y-122743911D01*
X129493725Y-122776621D01*
X129485691Y-122808697D01*
X129474551Y-122839831D01*
X129460413Y-122869724D01*
X129443413Y-122898087D01*
X129423715Y-122924647D01*
X129401508Y-122949148D01*
X129377007Y-122971355D01*
X129350447Y-122991053D01*
X129322084Y-123008053D01*
X129292191Y-123022191D01*
X129261057Y-123033331D01*
X129228981Y-123041365D01*
X129196271Y-123046217D01*
X129163244Y-123047840D01*
X128037156Y-123047840D01*
X128004129Y-123046217D01*
X127971419Y-123041365D01*
X127939343Y-123033331D01*
X127908209Y-123022191D01*
X127878316Y-123008053D01*
X127849953Y-122991053D01*
X127823393Y-122971355D01*
X127798892Y-122949148D01*
X127776685Y-122924647D01*
X127756987Y-122898087D01*
X127739987Y-122869724D01*
X127725849Y-122839831D01*
X127714709Y-122808697D01*
X127706675Y-122776621D01*
X127701823Y-122743911D01*
X127700200Y-122710884D01*
X127700200Y-121834796D01*
X127701823Y-121801769D01*
X127706675Y-121769059D01*
X127714709Y-121736983D01*
X127725849Y-121705849D01*
X127739987Y-121675956D01*
X127756987Y-121647593D01*
X127776685Y-121621033D01*
X127798892Y-121596532D01*
X127823393Y-121574325D01*
X127849953Y-121554627D01*
X127878316Y-121537627D01*
X127908209Y-121523489D01*
X127939343Y-121512349D01*
X127971419Y-121504315D01*
X128004129Y-121499463D01*
X128037156Y-121497840D01*
X129163244Y-121497840D01*
X129196271Y-121499463D01*
X129196271Y-121499463D01*
G37*
D14*
X128600200Y-122272840D03*
G04 #@! TD*
D13*
G04 #@! TO.C,R10*
G36*
X138162471Y-144734223D02*
X138195181Y-144739075D01*
X138227257Y-144747109D01*
X138258391Y-144758249D01*
X138288284Y-144772387D01*
X138316647Y-144789387D01*
X138343207Y-144809085D01*
X138367708Y-144831292D01*
X138389915Y-144855793D01*
X138409613Y-144882353D01*
X138426613Y-144910716D01*
X138440751Y-144940609D01*
X138451891Y-144971743D01*
X138459925Y-145003819D01*
X138464777Y-145036529D01*
X138466400Y-145069556D01*
X138466400Y-145945644D01*
X138464777Y-145978671D01*
X138459925Y-146011381D01*
X138451891Y-146043457D01*
X138440751Y-146074591D01*
X138426613Y-146104484D01*
X138409613Y-146132847D01*
X138389915Y-146159407D01*
X138367708Y-146183908D01*
X138343207Y-146206115D01*
X138316647Y-146225813D01*
X138288284Y-146242813D01*
X138258391Y-146256951D01*
X138227257Y-146268091D01*
X138195181Y-146276125D01*
X138162471Y-146280977D01*
X138129444Y-146282600D01*
X137003356Y-146282600D01*
X136970329Y-146280977D01*
X136937619Y-146276125D01*
X136905543Y-146268091D01*
X136874409Y-146256951D01*
X136844516Y-146242813D01*
X136816153Y-146225813D01*
X136789593Y-146206115D01*
X136765092Y-146183908D01*
X136742885Y-146159407D01*
X136723187Y-146132847D01*
X136706187Y-146104484D01*
X136692049Y-146074591D01*
X136680909Y-146043457D01*
X136672875Y-146011381D01*
X136668023Y-145978671D01*
X136666400Y-145945644D01*
X136666400Y-145069556D01*
X136668023Y-145036529D01*
X136672875Y-145003819D01*
X136680909Y-144971743D01*
X136692049Y-144940609D01*
X136706187Y-144910716D01*
X136723187Y-144882353D01*
X136742885Y-144855793D01*
X136765092Y-144831292D01*
X136789593Y-144809085D01*
X136816153Y-144789387D01*
X136844516Y-144772387D01*
X136874409Y-144758249D01*
X136905543Y-144747109D01*
X136937619Y-144739075D01*
X136970329Y-144734223D01*
X137003356Y-144732600D01*
X138129444Y-144732600D01*
X138162471Y-144734223D01*
X138162471Y-144734223D01*
G37*
D14*
X137566400Y-145507600D03*
D13*
G36*
X138162471Y-146784223D02*
X138195181Y-146789075D01*
X138227257Y-146797109D01*
X138258391Y-146808249D01*
X138288284Y-146822387D01*
X138316647Y-146839387D01*
X138343207Y-146859085D01*
X138367708Y-146881292D01*
X138389915Y-146905793D01*
X138409613Y-146932353D01*
X138426613Y-146960716D01*
X138440751Y-146990609D01*
X138451891Y-147021743D01*
X138459925Y-147053819D01*
X138464777Y-147086529D01*
X138466400Y-147119556D01*
X138466400Y-147995644D01*
X138464777Y-148028671D01*
X138459925Y-148061381D01*
X138451891Y-148093457D01*
X138440751Y-148124591D01*
X138426613Y-148154484D01*
X138409613Y-148182847D01*
X138389915Y-148209407D01*
X138367708Y-148233908D01*
X138343207Y-148256115D01*
X138316647Y-148275813D01*
X138288284Y-148292813D01*
X138258391Y-148306951D01*
X138227257Y-148318091D01*
X138195181Y-148326125D01*
X138162471Y-148330977D01*
X138129444Y-148332600D01*
X137003356Y-148332600D01*
X136970329Y-148330977D01*
X136937619Y-148326125D01*
X136905543Y-148318091D01*
X136874409Y-148306951D01*
X136844516Y-148292813D01*
X136816153Y-148275813D01*
X136789593Y-148256115D01*
X136765092Y-148233908D01*
X136742885Y-148209407D01*
X136723187Y-148182847D01*
X136706187Y-148154484D01*
X136692049Y-148124591D01*
X136680909Y-148093457D01*
X136672875Y-148061381D01*
X136668023Y-148028671D01*
X136666400Y-147995644D01*
X136666400Y-147119556D01*
X136668023Y-147086529D01*
X136672875Y-147053819D01*
X136680909Y-147021743D01*
X136692049Y-146990609D01*
X136706187Y-146960716D01*
X136723187Y-146932353D01*
X136742885Y-146905793D01*
X136765092Y-146881292D01*
X136789593Y-146859085D01*
X136816153Y-146839387D01*
X136844516Y-146822387D01*
X136874409Y-146808249D01*
X136905543Y-146797109D01*
X136937619Y-146789075D01*
X136970329Y-146784223D01*
X137003356Y-146782600D01*
X138129444Y-146782600D01*
X138162471Y-146784223D01*
X138162471Y-146784223D01*
G37*
D14*
X137566400Y-147557600D03*
G04 #@! TD*
D13*
G04 #@! TO.C,R11*
G36*
X135306971Y-125758723D02*
X135339681Y-125763575D01*
X135371757Y-125771609D01*
X135402891Y-125782749D01*
X135432784Y-125796887D01*
X135461147Y-125813887D01*
X135487707Y-125833585D01*
X135512208Y-125855792D01*
X135534415Y-125880293D01*
X135554113Y-125906853D01*
X135571113Y-125935216D01*
X135585251Y-125965109D01*
X135596391Y-125996243D01*
X135604425Y-126028319D01*
X135609277Y-126061029D01*
X135610900Y-126094056D01*
X135610900Y-127220144D01*
X135609277Y-127253171D01*
X135604425Y-127285881D01*
X135596391Y-127317957D01*
X135585251Y-127349091D01*
X135571113Y-127378984D01*
X135554113Y-127407347D01*
X135534415Y-127433907D01*
X135512208Y-127458408D01*
X135487707Y-127480615D01*
X135461147Y-127500313D01*
X135432784Y-127517313D01*
X135402891Y-127531451D01*
X135371757Y-127542591D01*
X135339681Y-127550625D01*
X135306971Y-127555477D01*
X135273944Y-127557100D01*
X134397856Y-127557100D01*
X134364829Y-127555477D01*
X134332119Y-127550625D01*
X134300043Y-127542591D01*
X134268909Y-127531451D01*
X134239016Y-127517313D01*
X134210653Y-127500313D01*
X134184093Y-127480615D01*
X134159592Y-127458408D01*
X134137385Y-127433907D01*
X134117687Y-127407347D01*
X134100687Y-127378984D01*
X134086549Y-127349091D01*
X134075409Y-127317957D01*
X134067375Y-127285881D01*
X134062523Y-127253171D01*
X134060900Y-127220144D01*
X134060900Y-126094056D01*
X134062523Y-126061029D01*
X134067375Y-126028319D01*
X134075409Y-125996243D01*
X134086549Y-125965109D01*
X134100687Y-125935216D01*
X134117687Y-125906853D01*
X134137385Y-125880293D01*
X134159592Y-125855792D01*
X134184093Y-125833585D01*
X134210653Y-125813887D01*
X134239016Y-125796887D01*
X134268909Y-125782749D01*
X134300043Y-125771609D01*
X134332119Y-125763575D01*
X134364829Y-125758723D01*
X134397856Y-125757100D01*
X135273944Y-125757100D01*
X135306971Y-125758723D01*
X135306971Y-125758723D01*
G37*
D14*
X134835900Y-126657100D03*
D13*
G36*
X137356971Y-125758723D02*
X137389681Y-125763575D01*
X137421757Y-125771609D01*
X137452891Y-125782749D01*
X137482784Y-125796887D01*
X137511147Y-125813887D01*
X137537707Y-125833585D01*
X137562208Y-125855792D01*
X137584415Y-125880293D01*
X137604113Y-125906853D01*
X137621113Y-125935216D01*
X137635251Y-125965109D01*
X137646391Y-125996243D01*
X137654425Y-126028319D01*
X137659277Y-126061029D01*
X137660900Y-126094056D01*
X137660900Y-127220144D01*
X137659277Y-127253171D01*
X137654425Y-127285881D01*
X137646391Y-127317957D01*
X137635251Y-127349091D01*
X137621113Y-127378984D01*
X137604113Y-127407347D01*
X137584415Y-127433907D01*
X137562208Y-127458408D01*
X137537707Y-127480615D01*
X137511147Y-127500313D01*
X137482784Y-127517313D01*
X137452891Y-127531451D01*
X137421757Y-127542591D01*
X137389681Y-127550625D01*
X137356971Y-127555477D01*
X137323944Y-127557100D01*
X136447856Y-127557100D01*
X136414829Y-127555477D01*
X136382119Y-127550625D01*
X136350043Y-127542591D01*
X136318909Y-127531451D01*
X136289016Y-127517313D01*
X136260653Y-127500313D01*
X136234093Y-127480615D01*
X136209592Y-127458408D01*
X136187385Y-127433907D01*
X136167687Y-127407347D01*
X136150687Y-127378984D01*
X136136549Y-127349091D01*
X136125409Y-127317957D01*
X136117375Y-127285881D01*
X136112523Y-127253171D01*
X136110900Y-127220144D01*
X136110900Y-126094056D01*
X136112523Y-126061029D01*
X136117375Y-126028319D01*
X136125409Y-125996243D01*
X136136549Y-125965109D01*
X136150687Y-125935216D01*
X136167687Y-125906853D01*
X136187385Y-125880293D01*
X136209592Y-125855792D01*
X136234093Y-125833585D01*
X136260653Y-125813887D01*
X136289016Y-125796887D01*
X136318909Y-125782749D01*
X136350043Y-125771609D01*
X136382119Y-125763575D01*
X136414829Y-125758723D01*
X136447856Y-125757100D01*
X137323944Y-125757100D01*
X137356971Y-125758723D01*
X137356971Y-125758723D01*
G37*
D14*
X136885900Y-126657100D03*
G04 #@! TD*
D13*
G04 #@! TO.C,C6*
G36*
X131558471Y-123543223D02*
X131591181Y-123548075D01*
X131623257Y-123556109D01*
X131654391Y-123567249D01*
X131684284Y-123581387D01*
X131712647Y-123598387D01*
X131739207Y-123618085D01*
X131763708Y-123640292D01*
X131785915Y-123664793D01*
X131805613Y-123691353D01*
X131822613Y-123719716D01*
X131836751Y-123749609D01*
X131847891Y-123780743D01*
X131855925Y-123812819D01*
X131860777Y-123845529D01*
X131862400Y-123878556D01*
X131862400Y-124754644D01*
X131860777Y-124787671D01*
X131855925Y-124820381D01*
X131847891Y-124852457D01*
X131836751Y-124883591D01*
X131822613Y-124913484D01*
X131805613Y-124941847D01*
X131785915Y-124968407D01*
X131763708Y-124992908D01*
X131739207Y-125015115D01*
X131712647Y-125034813D01*
X131684284Y-125051813D01*
X131654391Y-125065951D01*
X131623257Y-125077091D01*
X131591181Y-125085125D01*
X131558471Y-125089977D01*
X131525444Y-125091600D01*
X130399356Y-125091600D01*
X130366329Y-125089977D01*
X130333619Y-125085125D01*
X130301543Y-125077091D01*
X130270409Y-125065951D01*
X130240516Y-125051813D01*
X130212153Y-125034813D01*
X130185593Y-125015115D01*
X130161092Y-124992908D01*
X130138885Y-124968407D01*
X130119187Y-124941847D01*
X130102187Y-124913484D01*
X130088049Y-124883591D01*
X130076909Y-124852457D01*
X130068875Y-124820381D01*
X130064023Y-124787671D01*
X130062400Y-124754644D01*
X130062400Y-123878556D01*
X130064023Y-123845529D01*
X130068875Y-123812819D01*
X130076909Y-123780743D01*
X130088049Y-123749609D01*
X130102187Y-123719716D01*
X130119187Y-123691353D01*
X130138885Y-123664793D01*
X130161092Y-123640292D01*
X130185593Y-123618085D01*
X130212153Y-123598387D01*
X130240516Y-123581387D01*
X130270409Y-123567249D01*
X130301543Y-123556109D01*
X130333619Y-123548075D01*
X130366329Y-123543223D01*
X130399356Y-123541600D01*
X131525444Y-123541600D01*
X131558471Y-123543223D01*
X131558471Y-123543223D01*
G37*
D14*
X130962400Y-124316600D03*
D13*
G36*
X131558471Y-121493223D02*
X131591181Y-121498075D01*
X131623257Y-121506109D01*
X131654391Y-121517249D01*
X131684284Y-121531387D01*
X131712647Y-121548387D01*
X131739207Y-121568085D01*
X131763708Y-121590292D01*
X131785915Y-121614793D01*
X131805613Y-121641353D01*
X131822613Y-121669716D01*
X131836751Y-121699609D01*
X131847891Y-121730743D01*
X131855925Y-121762819D01*
X131860777Y-121795529D01*
X131862400Y-121828556D01*
X131862400Y-122704644D01*
X131860777Y-122737671D01*
X131855925Y-122770381D01*
X131847891Y-122802457D01*
X131836751Y-122833591D01*
X131822613Y-122863484D01*
X131805613Y-122891847D01*
X131785915Y-122918407D01*
X131763708Y-122942908D01*
X131739207Y-122965115D01*
X131712647Y-122984813D01*
X131684284Y-123001813D01*
X131654391Y-123015951D01*
X131623257Y-123027091D01*
X131591181Y-123035125D01*
X131558471Y-123039977D01*
X131525444Y-123041600D01*
X130399356Y-123041600D01*
X130366329Y-123039977D01*
X130333619Y-123035125D01*
X130301543Y-123027091D01*
X130270409Y-123015951D01*
X130240516Y-123001813D01*
X130212153Y-122984813D01*
X130185593Y-122965115D01*
X130161092Y-122942908D01*
X130138885Y-122918407D01*
X130119187Y-122891847D01*
X130102187Y-122863484D01*
X130088049Y-122833591D01*
X130076909Y-122802457D01*
X130068875Y-122770381D01*
X130064023Y-122737671D01*
X130062400Y-122704644D01*
X130062400Y-121828556D01*
X130064023Y-121795529D01*
X130068875Y-121762819D01*
X130076909Y-121730743D01*
X130088049Y-121699609D01*
X130102187Y-121669716D01*
X130119187Y-121641353D01*
X130138885Y-121614793D01*
X130161092Y-121590292D01*
X130185593Y-121568085D01*
X130212153Y-121548387D01*
X130240516Y-121531387D01*
X130270409Y-121517249D01*
X130301543Y-121506109D01*
X130333619Y-121498075D01*
X130366329Y-121493223D01*
X130399356Y-121491600D01*
X131525444Y-121491600D01*
X131558471Y-121493223D01*
X131558471Y-121493223D01*
G37*
D14*
X130962400Y-122266600D03*
G04 #@! TD*
D13*
G04 #@! TO.C,C7*
G36*
X126606311Y-133886723D02*
X126639021Y-133891575D01*
X126671097Y-133899609D01*
X126702231Y-133910749D01*
X126732124Y-133924887D01*
X126760487Y-133941887D01*
X126787047Y-133961585D01*
X126811548Y-133983792D01*
X126833755Y-134008293D01*
X126853453Y-134034853D01*
X126870453Y-134063216D01*
X126884591Y-134093109D01*
X126895731Y-134124243D01*
X126903765Y-134156319D01*
X126908617Y-134189029D01*
X126910240Y-134222056D01*
X126910240Y-135348144D01*
X126908617Y-135381171D01*
X126903765Y-135413881D01*
X126895731Y-135445957D01*
X126884591Y-135477091D01*
X126870453Y-135506984D01*
X126853453Y-135535347D01*
X126833755Y-135561907D01*
X126811548Y-135586408D01*
X126787047Y-135608615D01*
X126760487Y-135628313D01*
X126732124Y-135645313D01*
X126702231Y-135659451D01*
X126671097Y-135670591D01*
X126639021Y-135678625D01*
X126606311Y-135683477D01*
X126573284Y-135685100D01*
X125697196Y-135685100D01*
X125664169Y-135683477D01*
X125631459Y-135678625D01*
X125599383Y-135670591D01*
X125568249Y-135659451D01*
X125538356Y-135645313D01*
X125509993Y-135628313D01*
X125483433Y-135608615D01*
X125458932Y-135586408D01*
X125436725Y-135561907D01*
X125417027Y-135535347D01*
X125400027Y-135506984D01*
X125385889Y-135477091D01*
X125374749Y-135445957D01*
X125366715Y-135413881D01*
X125361863Y-135381171D01*
X125360240Y-135348144D01*
X125360240Y-134222056D01*
X125361863Y-134189029D01*
X125366715Y-134156319D01*
X125374749Y-134124243D01*
X125385889Y-134093109D01*
X125400027Y-134063216D01*
X125417027Y-134034853D01*
X125436725Y-134008293D01*
X125458932Y-133983792D01*
X125483433Y-133961585D01*
X125509993Y-133941887D01*
X125538356Y-133924887D01*
X125568249Y-133910749D01*
X125599383Y-133899609D01*
X125631459Y-133891575D01*
X125664169Y-133886723D01*
X125697196Y-133885100D01*
X126573284Y-133885100D01*
X126606311Y-133886723D01*
X126606311Y-133886723D01*
G37*
D14*
X126135240Y-134785100D03*
D13*
G36*
X124556311Y-133886723D02*
X124589021Y-133891575D01*
X124621097Y-133899609D01*
X124652231Y-133910749D01*
X124682124Y-133924887D01*
X124710487Y-133941887D01*
X124737047Y-133961585D01*
X124761548Y-133983792D01*
X124783755Y-134008293D01*
X124803453Y-134034853D01*
X124820453Y-134063216D01*
X124834591Y-134093109D01*
X124845731Y-134124243D01*
X124853765Y-134156319D01*
X124858617Y-134189029D01*
X124860240Y-134222056D01*
X124860240Y-135348144D01*
X124858617Y-135381171D01*
X124853765Y-135413881D01*
X124845731Y-135445957D01*
X124834591Y-135477091D01*
X124820453Y-135506984D01*
X124803453Y-135535347D01*
X124783755Y-135561907D01*
X124761548Y-135586408D01*
X124737047Y-135608615D01*
X124710487Y-135628313D01*
X124682124Y-135645313D01*
X124652231Y-135659451D01*
X124621097Y-135670591D01*
X124589021Y-135678625D01*
X124556311Y-135683477D01*
X124523284Y-135685100D01*
X123647196Y-135685100D01*
X123614169Y-135683477D01*
X123581459Y-135678625D01*
X123549383Y-135670591D01*
X123518249Y-135659451D01*
X123488356Y-135645313D01*
X123459993Y-135628313D01*
X123433433Y-135608615D01*
X123408932Y-135586408D01*
X123386725Y-135561907D01*
X123367027Y-135535347D01*
X123350027Y-135506984D01*
X123335889Y-135477091D01*
X123324749Y-135445957D01*
X123316715Y-135413881D01*
X123311863Y-135381171D01*
X123310240Y-135348144D01*
X123310240Y-134222056D01*
X123311863Y-134189029D01*
X123316715Y-134156319D01*
X123324749Y-134124243D01*
X123335889Y-134093109D01*
X123350027Y-134063216D01*
X123367027Y-134034853D01*
X123386725Y-134008293D01*
X123408932Y-133983792D01*
X123433433Y-133961585D01*
X123459993Y-133941887D01*
X123488356Y-133924887D01*
X123518249Y-133910749D01*
X123549383Y-133899609D01*
X123581459Y-133891575D01*
X123614169Y-133886723D01*
X123647196Y-133885100D01*
X124523284Y-133885100D01*
X124556311Y-133886723D01*
X124556311Y-133886723D01*
G37*
D14*
X124085240Y-134785100D03*
G04 #@! TD*
D13*
G04 #@! TO.C,C8*
G36*
X117990631Y-113838503D02*
X118023341Y-113843355D01*
X118055417Y-113851389D01*
X118086551Y-113862529D01*
X118116444Y-113876667D01*
X118144807Y-113893667D01*
X118171367Y-113913365D01*
X118195868Y-113935572D01*
X118218075Y-113960073D01*
X118237773Y-113986633D01*
X118254773Y-114014996D01*
X118268911Y-114044889D01*
X118280051Y-114076023D01*
X118288085Y-114108099D01*
X118292937Y-114140809D01*
X118294560Y-114173836D01*
X118294560Y-115299924D01*
X118292937Y-115332951D01*
X118288085Y-115365661D01*
X118280051Y-115397737D01*
X118268911Y-115428871D01*
X118254773Y-115458764D01*
X118237773Y-115487127D01*
X118218075Y-115513687D01*
X118195868Y-115538188D01*
X118171367Y-115560395D01*
X118144807Y-115580093D01*
X118116444Y-115597093D01*
X118086551Y-115611231D01*
X118055417Y-115622371D01*
X118023341Y-115630405D01*
X117990631Y-115635257D01*
X117957604Y-115636880D01*
X117081516Y-115636880D01*
X117048489Y-115635257D01*
X117015779Y-115630405D01*
X116983703Y-115622371D01*
X116952569Y-115611231D01*
X116922676Y-115597093D01*
X116894313Y-115580093D01*
X116867753Y-115560395D01*
X116843252Y-115538188D01*
X116821045Y-115513687D01*
X116801347Y-115487127D01*
X116784347Y-115458764D01*
X116770209Y-115428871D01*
X116759069Y-115397737D01*
X116751035Y-115365661D01*
X116746183Y-115332951D01*
X116744560Y-115299924D01*
X116744560Y-114173836D01*
X116746183Y-114140809D01*
X116751035Y-114108099D01*
X116759069Y-114076023D01*
X116770209Y-114044889D01*
X116784347Y-114014996D01*
X116801347Y-113986633D01*
X116821045Y-113960073D01*
X116843252Y-113935572D01*
X116867753Y-113913365D01*
X116894313Y-113893667D01*
X116922676Y-113876667D01*
X116952569Y-113862529D01*
X116983703Y-113851389D01*
X117015779Y-113843355D01*
X117048489Y-113838503D01*
X117081516Y-113836880D01*
X117957604Y-113836880D01*
X117990631Y-113838503D01*
X117990631Y-113838503D01*
G37*
D14*
X117519560Y-114736880D03*
D13*
G36*
X115940631Y-113838503D02*
X115973341Y-113843355D01*
X116005417Y-113851389D01*
X116036551Y-113862529D01*
X116066444Y-113876667D01*
X116094807Y-113893667D01*
X116121367Y-113913365D01*
X116145868Y-113935572D01*
X116168075Y-113960073D01*
X116187773Y-113986633D01*
X116204773Y-114014996D01*
X116218911Y-114044889D01*
X116230051Y-114076023D01*
X116238085Y-114108099D01*
X116242937Y-114140809D01*
X116244560Y-114173836D01*
X116244560Y-115299924D01*
X116242937Y-115332951D01*
X116238085Y-115365661D01*
X116230051Y-115397737D01*
X116218911Y-115428871D01*
X116204773Y-115458764D01*
X116187773Y-115487127D01*
X116168075Y-115513687D01*
X116145868Y-115538188D01*
X116121367Y-115560395D01*
X116094807Y-115580093D01*
X116066444Y-115597093D01*
X116036551Y-115611231D01*
X116005417Y-115622371D01*
X115973341Y-115630405D01*
X115940631Y-115635257D01*
X115907604Y-115636880D01*
X115031516Y-115636880D01*
X114998489Y-115635257D01*
X114965779Y-115630405D01*
X114933703Y-115622371D01*
X114902569Y-115611231D01*
X114872676Y-115597093D01*
X114844313Y-115580093D01*
X114817753Y-115560395D01*
X114793252Y-115538188D01*
X114771045Y-115513687D01*
X114751347Y-115487127D01*
X114734347Y-115458764D01*
X114720209Y-115428871D01*
X114709069Y-115397737D01*
X114701035Y-115365661D01*
X114696183Y-115332951D01*
X114694560Y-115299924D01*
X114694560Y-114173836D01*
X114696183Y-114140809D01*
X114701035Y-114108099D01*
X114709069Y-114076023D01*
X114720209Y-114044889D01*
X114734347Y-114014996D01*
X114751347Y-113986633D01*
X114771045Y-113960073D01*
X114793252Y-113935572D01*
X114817753Y-113913365D01*
X114844313Y-113893667D01*
X114872676Y-113876667D01*
X114902569Y-113862529D01*
X114933703Y-113851389D01*
X114965779Y-113843355D01*
X114998489Y-113838503D01*
X115031516Y-113836880D01*
X115907604Y-113836880D01*
X115940631Y-113838503D01*
X115940631Y-113838503D01*
G37*
D14*
X115469560Y-114736880D03*
G04 #@! TD*
D13*
G04 #@! TO.C,C9*
G36*
X123847031Y-102506943D02*
X123879741Y-102511795D01*
X123911817Y-102519829D01*
X123942951Y-102530969D01*
X123972844Y-102545107D01*
X124001207Y-102562107D01*
X124027767Y-102581805D01*
X124052268Y-102604012D01*
X124074475Y-102628513D01*
X124094173Y-102655073D01*
X124111173Y-102683436D01*
X124125311Y-102713329D01*
X124136451Y-102744463D01*
X124144485Y-102776539D01*
X124149337Y-102809249D01*
X124150960Y-102842276D01*
X124150960Y-103718364D01*
X124149337Y-103751391D01*
X124144485Y-103784101D01*
X124136451Y-103816177D01*
X124125311Y-103847311D01*
X124111173Y-103877204D01*
X124094173Y-103905567D01*
X124074475Y-103932127D01*
X124052268Y-103956628D01*
X124027767Y-103978835D01*
X124001207Y-103998533D01*
X123972844Y-104015533D01*
X123942951Y-104029671D01*
X123911817Y-104040811D01*
X123879741Y-104048845D01*
X123847031Y-104053697D01*
X123814004Y-104055320D01*
X122687916Y-104055320D01*
X122654889Y-104053697D01*
X122622179Y-104048845D01*
X122590103Y-104040811D01*
X122558969Y-104029671D01*
X122529076Y-104015533D01*
X122500713Y-103998533D01*
X122474153Y-103978835D01*
X122449652Y-103956628D01*
X122427445Y-103932127D01*
X122407747Y-103905567D01*
X122390747Y-103877204D01*
X122376609Y-103847311D01*
X122365469Y-103816177D01*
X122357435Y-103784101D01*
X122352583Y-103751391D01*
X122350960Y-103718364D01*
X122350960Y-102842276D01*
X122352583Y-102809249D01*
X122357435Y-102776539D01*
X122365469Y-102744463D01*
X122376609Y-102713329D01*
X122390747Y-102683436D01*
X122407747Y-102655073D01*
X122427445Y-102628513D01*
X122449652Y-102604012D01*
X122474153Y-102581805D01*
X122500713Y-102562107D01*
X122529076Y-102545107D01*
X122558969Y-102530969D01*
X122590103Y-102519829D01*
X122622179Y-102511795D01*
X122654889Y-102506943D01*
X122687916Y-102505320D01*
X123814004Y-102505320D01*
X123847031Y-102506943D01*
X123847031Y-102506943D01*
G37*
D14*
X123250960Y-103280320D03*
D13*
G36*
X123847031Y-100456943D02*
X123879741Y-100461795D01*
X123911817Y-100469829D01*
X123942951Y-100480969D01*
X123972844Y-100495107D01*
X124001207Y-100512107D01*
X124027767Y-100531805D01*
X124052268Y-100554012D01*
X124074475Y-100578513D01*
X124094173Y-100605073D01*
X124111173Y-100633436D01*
X124125311Y-100663329D01*
X124136451Y-100694463D01*
X124144485Y-100726539D01*
X124149337Y-100759249D01*
X124150960Y-100792276D01*
X124150960Y-101668364D01*
X124149337Y-101701391D01*
X124144485Y-101734101D01*
X124136451Y-101766177D01*
X124125311Y-101797311D01*
X124111173Y-101827204D01*
X124094173Y-101855567D01*
X124074475Y-101882127D01*
X124052268Y-101906628D01*
X124027767Y-101928835D01*
X124001207Y-101948533D01*
X123972844Y-101965533D01*
X123942951Y-101979671D01*
X123911817Y-101990811D01*
X123879741Y-101998845D01*
X123847031Y-102003697D01*
X123814004Y-102005320D01*
X122687916Y-102005320D01*
X122654889Y-102003697D01*
X122622179Y-101998845D01*
X122590103Y-101990811D01*
X122558969Y-101979671D01*
X122529076Y-101965533D01*
X122500713Y-101948533D01*
X122474153Y-101928835D01*
X122449652Y-101906628D01*
X122427445Y-101882127D01*
X122407747Y-101855567D01*
X122390747Y-101827204D01*
X122376609Y-101797311D01*
X122365469Y-101766177D01*
X122357435Y-101734101D01*
X122352583Y-101701391D01*
X122350960Y-101668364D01*
X122350960Y-100792276D01*
X122352583Y-100759249D01*
X122357435Y-100726539D01*
X122365469Y-100694463D01*
X122376609Y-100663329D01*
X122390747Y-100633436D01*
X122407747Y-100605073D01*
X122427445Y-100578513D01*
X122449652Y-100554012D01*
X122474153Y-100531805D01*
X122500713Y-100512107D01*
X122529076Y-100495107D01*
X122558969Y-100480969D01*
X122590103Y-100469829D01*
X122622179Y-100461795D01*
X122654889Y-100456943D01*
X122687916Y-100455320D01*
X123814004Y-100455320D01*
X123847031Y-100456943D01*
X123847031Y-100456943D01*
G37*
D14*
X123250960Y-101230320D03*
G04 #@! TD*
D21*
G04 #@! TO.C,5V*
X133318420Y-138943080D03*
D13*
G36*
X133857438Y-137996923D02*
X133894957Y-138008304D01*
X133929534Y-138026786D01*
X133959841Y-138051659D01*
X133984830Y-138082140D01*
X134484830Y-138832140D01*
X134503276Y-138866737D01*
X134514618Y-138904267D01*
X134518420Y-138943289D01*
X134514536Y-138982303D01*
X134503116Y-139019810D01*
X134484830Y-139054020D01*
X133984830Y-139804020D01*
X133959989Y-139834353D01*
X133929708Y-139859258D01*
X133895150Y-139877776D01*
X133857643Y-139889196D01*
X133818420Y-139893080D01*
X132818420Y-139893080D01*
X132779402Y-139889237D01*
X132741883Y-139877856D01*
X132707306Y-139859374D01*
X132676999Y-139834501D01*
X132652126Y-139804194D01*
X132633644Y-139769617D01*
X132622263Y-139732098D01*
X132618420Y-139693080D01*
X132618420Y-138193080D01*
X132622263Y-138154062D01*
X132633644Y-138116543D01*
X132652126Y-138081966D01*
X132676999Y-138051659D01*
X132707306Y-138026786D01*
X132741883Y-138008304D01*
X132779402Y-137996923D01*
X132818420Y-137993080D01*
X133818420Y-137993080D01*
X133857438Y-137996923D01*
X133857438Y-137996923D01*
G37*
D21*
X134768420Y-138943080D03*
D13*
G36*
X135307438Y-137996923D02*
X135344957Y-138008304D01*
X135379534Y-138026786D01*
X135409841Y-138051659D01*
X135434714Y-138081966D01*
X135453196Y-138116543D01*
X135464577Y-138154062D01*
X135468420Y-138193080D01*
X135468420Y-139693080D01*
X135464577Y-139732098D01*
X135453196Y-139769617D01*
X135434714Y-139804194D01*
X135409841Y-139834501D01*
X135379534Y-139859374D01*
X135344957Y-139877856D01*
X135307438Y-139889237D01*
X135268420Y-139893080D01*
X134118420Y-139893080D01*
X134079402Y-139889237D01*
X134041883Y-139877856D01*
X134007306Y-139859374D01*
X133976999Y-139834501D01*
X133952126Y-139804194D01*
X133933644Y-139769617D01*
X133922263Y-139732098D01*
X133918420Y-139693080D01*
X133922263Y-139654062D01*
X133933644Y-139616543D01*
X133952010Y-139582140D01*
X134378050Y-138943080D01*
X133952010Y-138304020D01*
X133933564Y-138269423D01*
X133922222Y-138231893D01*
X133918420Y-138192871D01*
X133922304Y-138153857D01*
X133933724Y-138116350D01*
X133952242Y-138081792D01*
X133977147Y-138051511D01*
X134007480Y-138026670D01*
X134042077Y-138008224D01*
X134079607Y-137996882D01*
X134118420Y-137993080D01*
X135268420Y-137993080D01*
X135307438Y-137996923D01*
X135307438Y-137996923D01*
G37*
G04 #@! TD*
D21*
G04 #@! TO.C,3V3*
X133303180Y-141663420D03*
D13*
G36*
X133842198Y-140717263D02*
X133879717Y-140728644D01*
X133914294Y-140747126D01*
X133944601Y-140771999D01*
X133969590Y-140802480D01*
X134469590Y-141552480D01*
X134488036Y-141587077D01*
X134499378Y-141624607D01*
X134503180Y-141663629D01*
X134499296Y-141702643D01*
X134487876Y-141740150D01*
X134469590Y-141774360D01*
X133969590Y-142524360D01*
X133944749Y-142554693D01*
X133914468Y-142579598D01*
X133879910Y-142598116D01*
X133842403Y-142609536D01*
X133803180Y-142613420D01*
X132803180Y-142613420D01*
X132764162Y-142609577D01*
X132726643Y-142598196D01*
X132692066Y-142579714D01*
X132661759Y-142554841D01*
X132636886Y-142524534D01*
X132618404Y-142489957D01*
X132607023Y-142452438D01*
X132603180Y-142413420D01*
X132603180Y-140913420D01*
X132607023Y-140874402D01*
X132618404Y-140836883D01*
X132636886Y-140802306D01*
X132661759Y-140771999D01*
X132692066Y-140747126D01*
X132726643Y-140728644D01*
X132764162Y-140717263D01*
X132803180Y-140713420D01*
X133803180Y-140713420D01*
X133842198Y-140717263D01*
X133842198Y-140717263D01*
G37*
D21*
X134753180Y-141663420D03*
D13*
G36*
X135292198Y-140717263D02*
X135329717Y-140728644D01*
X135364294Y-140747126D01*
X135394601Y-140771999D01*
X135419474Y-140802306D01*
X135437956Y-140836883D01*
X135449337Y-140874402D01*
X135453180Y-140913420D01*
X135453180Y-142413420D01*
X135449337Y-142452438D01*
X135437956Y-142489957D01*
X135419474Y-142524534D01*
X135394601Y-142554841D01*
X135364294Y-142579714D01*
X135329717Y-142598196D01*
X135292198Y-142609577D01*
X135253180Y-142613420D01*
X134103180Y-142613420D01*
X134064162Y-142609577D01*
X134026643Y-142598196D01*
X133992066Y-142579714D01*
X133961759Y-142554841D01*
X133936886Y-142524534D01*
X133918404Y-142489957D01*
X133907023Y-142452438D01*
X133903180Y-142413420D01*
X133907023Y-142374402D01*
X133918404Y-142336883D01*
X133936770Y-142302480D01*
X134362810Y-141663420D01*
X133936770Y-141024360D01*
X133918324Y-140989763D01*
X133906982Y-140952233D01*
X133903180Y-140913211D01*
X133907064Y-140874197D01*
X133918484Y-140836690D01*
X133937002Y-140802132D01*
X133961907Y-140771851D01*
X133992240Y-140747010D01*
X134026837Y-140728564D01*
X134064367Y-140717222D01*
X134103180Y-140713420D01*
X135253180Y-140713420D01*
X135292198Y-140717263D01*
X135292198Y-140717263D01*
G37*
G04 #@! TD*
D21*
G04 #@! TO.C,5V*
X133320960Y-136161780D03*
D13*
G36*
X133859978Y-135215623D02*
X133897497Y-135227004D01*
X133932074Y-135245486D01*
X133962381Y-135270359D01*
X133987370Y-135300840D01*
X134487370Y-136050840D01*
X134505816Y-136085437D01*
X134517158Y-136122967D01*
X134520960Y-136161989D01*
X134517076Y-136201003D01*
X134505656Y-136238510D01*
X134487370Y-136272720D01*
X133987370Y-137022720D01*
X133962529Y-137053053D01*
X133932248Y-137077958D01*
X133897690Y-137096476D01*
X133860183Y-137107896D01*
X133820960Y-137111780D01*
X132820960Y-137111780D01*
X132781942Y-137107937D01*
X132744423Y-137096556D01*
X132709846Y-137078074D01*
X132679539Y-137053201D01*
X132654666Y-137022894D01*
X132636184Y-136988317D01*
X132624803Y-136950798D01*
X132620960Y-136911780D01*
X132620960Y-135411780D01*
X132624803Y-135372762D01*
X132636184Y-135335243D01*
X132654666Y-135300666D01*
X132679539Y-135270359D01*
X132709846Y-135245486D01*
X132744423Y-135227004D01*
X132781942Y-135215623D01*
X132820960Y-135211780D01*
X133820960Y-135211780D01*
X133859978Y-135215623D01*
X133859978Y-135215623D01*
G37*
D21*
X134770960Y-136161780D03*
D13*
G36*
X135309978Y-135215623D02*
X135347497Y-135227004D01*
X135382074Y-135245486D01*
X135412381Y-135270359D01*
X135437254Y-135300666D01*
X135455736Y-135335243D01*
X135467117Y-135372762D01*
X135470960Y-135411780D01*
X135470960Y-136911780D01*
X135467117Y-136950798D01*
X135455736Y-136988317D01*
X135437254Y-137022894D01*
X135412381Y-137053201D01*
X135382074Y-137078074D01*
X135347497Y-137096556D01*
X135309978Y-137107937D01*
X135270960Y-137111780D01*
X134120960Y-137111780D01*
X134081942Y-137107937D01*
X134044423Y-137096556D01*
X134009846Y-137078074D01*
X133979539Y-137053201D01*
X133954666Y-137022894D01*
X133936184Y-136988317D01*
X133924803Y-136950798D01*
X133920960Y-136911780D01*
X133924803Y-136872762D01*
X133936184Y-136835243D01*
X133954550Y-136800840D01*
X134380590Y-136161780D01*
X133954550Y-135522720D01*
X133936104Y-135488123D01*
X133924762Y-135450593D01*
X133920960Y-135411571D01*
X133924844Y-135372557D01*
X133936264Y-135335050D01*
X133954782Y-135300492D01*
X133979687Y-135270211D01*
X134010020Y-135245370D01*
X134044617Y-135226924D01*
X134082147Y-135215582D01*
X134120960Y-135211780D01*
X135270960Y-135211780D01*
X135309978Y-135215623D01*
X135309978Y-135215623D01*
G37*
G04 #@! TD*
D21*
G04 #@! TO.C,3V3*
X133338740Y-133446520D03*
D13*
G36*
X133877758Y-132500363D02*
X133915277Y-132511744D01*
X133949854Y-132530226D01*
X133980161Y-132555099D01*
X134005150Y-132585580D01*
X134505150Y-133335580D01*
X134523596Y-133370177D01*
X134534938Y-133407707D01*
X134538740Y-133446729D01*
X134534856Y-133485743D01*
X134523436Y-133523250D01*
X134505150Y-133557460D01*
X134005150Y-134307460D01*
X133980309Y-134337793D01*
X133950028Y-134362698D01*
X133915470Y-134381216D01*
X133877963Y-134392636D01*
X133838740Y-134396520D01*
X132838740Y-134396520D01*
X132799722Y-134392677D01*
X132762203Y-134381296D01*
X132727626Y-134362814D01*
X132697319Y-134337941D01*
X132672446Y-134307634D01*
X132653964Y-134273057D01*
X132642583Y-134235538D01*
X132638740Y-134196520D01*
X132638740Y-132696520D01*
X132642583Y-132657502D01*
X132653964Y-132619983D01*
X132672446Y-132585406D01*
X132697319Y-132555099D01*
X132727626Y-132530226D01*
X132762203Y-132511744D01*
X132799722Y-132500363D01*
X132838740Y-132496520D01*
X133838740Y-132496520D01*
X133877758Y-132500363D01*
X133877758Y-132500363D01*
G37*
D21*
X134788740Y-133446520D03*
D13*
G36*
X135327758Y-132500363D02*
X135365277Y-132511744D01*
X135399854Y-132530226D01*
X135430161Y-132555099D01*
X135455034Y-132585406D01*
X135473516Y-132619983D01*
X135484897Y-132657502D01*
X135488740Y-132696520D01*
X135488740Y-134196520D01*
X135484897Y-134235538D01*
X135473516Y-134273057D01*
X135455034Y-134307634D01*
X135430161Y-134337941D01*
X135399854Y-134362814D01*
X135365277Y-134381296D01*
X135327758Y-134392677D01*
X135288740Y-134396520D01*
X134138740Y-134396520D01*
X134099722Y-134392677D01*
X134062203Y-134381296D01*
X134027626Y-134362814D01*
X133997319Y-134337941D01*
X133972446Y-134307634D01*
X133953964Y-134273057D01*
X133942583Y-134235538D01*
X133938740Y-134196520D01*
X133942583Y-134157502D01*
X133953964Y-134119983D01*
X133972330Y-134085580D01*
X134398370Y-133446520D01*
X133972330Y-132807460D01*
X133953884Y-132772863D01*
X133942542Y-132735333D01*
X133938740Y-132696311D01*
X133942624Y-132657297D01*
X133954044Y-132619790D01*
X133972562Y-132585232D01*
X133997467Y-132554951D01*
X134027800Y-132530110D01*
X134062397Y-132511664D01*
X134099927Y-132500322D01*
X134138740Y-132496520D01*
X135288740Y-132496520D01*
X135327758Y-132500363D01*
X135327758Y-132500363D01*
G37*
G04 #@! TD*
G04 #@! TO.C,R12*
G36*
X133590471Y-117090023D02*
X133623181Y-117094875D01*
X133655257Y-117102909D01*
X133686391Y-117114049D01*
X133716284Y-117128187D01*
X133744647Y-117145187D01*
X133771207Y-117164885D01*
X133795708Y-117187092D01*
X133817915Y-117211593D01*
X133837613Y-117238153D01*
X133854613Y-117266516D01*
X133868751Y-117296409D01*
X133879891Y-117327543D01*
X133887925Y-117359619D01*
X133892777Y-117392329D01*
X133894400Y-117425356D01*
X133894400Y-118301444D01*
X133892777Y-118334471D01*
X133887925Y-118367181D01*
X133879891Y-118399257D01*
X133868751Y-118430391D01*
X133854613Y-118460284D01*
X133837613Y-118488647D01*
X133817915Y-118515207D01*
X133795708Y-118539708D01*
X133771207Y-118561915D01*
X133744647Y-118581613D01*
X133716284Y-118598613D01*
X133686391Y-118612751D01*
X133655257Y-118623891D01*
X133623181Y-118631925D01*
X133590471Y-118636777D01*
X133557444Y-118638400D01*
X132431356Y-118638400D01*
X132398329Y-118636777D01*
X132365619Y-118631925D01*
X132333543Y-118623891D01*
X132302409Y-118612751D01*
X132272516Y-118598613D01*
X132244153Y-118581613D01*
X132217593Y-118561915D01*
X132193092Y-118539708D01*
X132170885Y-118515207D01*
X132151187Y-118488647D01*
X132134187Y-118460284D01*
X132120049Y-118430391D01*
X132108909Y-118399257D01*
X132100875Y-118367181D01*
X132096023Y-118334471D01*
X132094400Y-118301444D01*
X132094400Y-117425356D01*
X132096023Y-117392329D01*
X132100875Y-117359619D01*
X132108909Y-117327543D01*
X132120049Y-117296409D01*
X132134187Y-117266516D01*
X132151187Y-117238153D01*
X132170885Y-117211593D01*
X132193092Y-117187092D01*
X132217593Y-117164885D01*
X132244153Y-117145187D01*
X132272516Y-117128187D01*
X132302409Y-117114049D01*
X132333543Y-117102909D01*
X132365619Y-117094875D01*
X132398329Y-117090023D01*
X132431356Y-117088400D01*
X133557444Y-117088400D01*
X133590471Y-117090023D01*
X133590471Y-117090023D01*
G37*
D14*
X132994400Y-117863400D03*
D13*
G36*
X133590471Y-119140023D02*
X133623181Y-119144875D01*
X133655257Y-119152909D01*
X133686391Y-119164049D01*
X133716284Y-119178187D01*
X133744647Y-119195187D01*
X133771207Y-119214885D01*
X133795708Y-119237092D01*
X133817915Y-119261593D01*
X133837613Y-119288153D01*
X133854613Y-119316516D01*
X133868751Y-119346409D01*
X133879891Y-119377543D01*
X133887925Y-119409619D01*
X133892777Y-119442329D01*
X133894400Y-119475356D01*
X133894400Y-120351444D01*
X133892777Y-120384471D01*
X133887925Y-120417181D01*
X133879891Y-120449257D01*
X133868751Y-120480391D01*
X133854613Y-120510284D01*
X133837613Y-120538647D01*
X133817915Y-120565207D01*
X133795708Y-120589708D01*
X133771207Y-120611915D01*
X133744647Y-120631613D01*
X133716284Y-120648613D01*
X133686391Y-120662751D01*
X133655257Y-120673891D01*
X133623181Y-120681925D01*
X133590471Y-120686777D01*
X133557444Y-120688400D01*
X132431356Y-120688400D01*
X132398329Y-120686777D01*
X132365619Y-120681925D01*
X132333543Y-120673891D01*
X132302409Y-120662751D01*
X132272516Y-120648613D01*
X132244153Y-120631613D01*
X132217593Y-120611915D01*
X132193092Y-120589708D01*
X132170885Y-120565207D01*
X132151187Y-120538647D01*
X132134187Y-120510284D01*
X132120049Y-120480391D01*
X132108909Y-120449257D01*
X132100875Y-120417181D01*
X132096023Y-120384471D01*
X132094400Y-120351444D01*
X132094400Y-119475356D01*
X132096023Y-119442329D01*
X132100875Y-119409619D01*
X132108909Y-119377543D01*
X132120049Y-119346409D01*
X132134187Y-119316516D01*
X132151187Y-119288153D01*
X132170885Y-119261593D01*
X132193092Y-119237092D01*
X132217593Y-119214885D01*
X132244153Y-119195187D01*
X132272516Y-119178187D01*
X132302409Y-119164049D01*
X132333543Y-119152909D01*
X132365619Y-119144875D01*
X132398329Y-119140023D01*
X132431356Y-119138400D01*
X133557444Y-119138400D01*
X133590471Y-119140023D01*
X133590471Y-119140023D01*
G37*
D14*
X132994400Y-119913400D03*
G04 #@! TD*
D13*
G04 #@! TO.C,R13*
G36*
X126031431Y-100399903D02*
X126064141Y-100404755D01*
X126096217Y-100412789D01*
X126127351Y-100423929D01*
X126157244Y-100438067D01*
X126185607Y-100455067D01*
X126212167Y-100474765D01*
X126236668Y-100496972D01*
X126258875Y-100521473D01*
X126278573Y-100548033D01*
X126295573Y-100576396D01*
X126309711Y-100606289D01*
X126320851Y-100637423D01*
X126328885Y-100669499D01*
X126333737Y-100702209D01*
X126335360Y-100735236D01*
X126335360Y-101611324D01*
X126333737Y-101644351D01*
X126328885Y-101677061D01*
X126320851Y-101709137D01*
X126309711Y-101740271D01*
X126295573Y-101770164D01*
X126278573Y-101798527D01*
X126258875Y-101825087D01*
X126236668Y-101849588D01*
X126212167Y-101871795D01*
X126185607Y-101891493D01*
X126157244Y-101908493D01*
X126127351Y-101922631D01*
X126096217Y-101933771D01*
X126064141Y-101941805D01*
X126031431Y-101946657D01*
X125998404Y-101948280D01*
X124872316Y-101948280D01*
X124839289Y-101946657D01*
X124806579Y-101941805D01*
X124774503Y-101933771D01*
X124743369Y-101922631D01*
X124713476Y-101908493D01*
X124685113Y-101891493D01*
X124658553Y-101871795D01*
X124634052Y-101849588D01*
X124611845Y-101825087D01*
X124592147Y-101798527D01*
X124575147Y-101770164D01*
X124561009Y-101740271D01*
X124549869Y-101709137D01*
X124541835Y-101677061D01*
X124536983Y-101644351D01*
X124535360Y-101611324D01*
X124535360Y-100735236D01*
X124536983Y-100702209D01*
X124541835Y-100669499D01*
X124549869Y-100637423D01*
X124561009Y-100606289D01*
X124575147Y-100576396D01*
X124592147Y-100548033D01*
X124611845Y-100521473D01*
X124634052Y-100496972D01*
X124658553Y-100474765D01*
X124685113Y-100455067D01*
X124713476Y-100438067D01*
X124743369Y-100423929D01*
X124774503Y-100412789D01*
X124806579Y-100404755D01*
X124839289Y-100399903D01*
X124872316Y-100398280D01*
X125998404Y-100398280D01*
X126031431Y-100399903D01*
X126031431Y-100399903D01*
G37*
D14*
X125435360Y-101173280D03*
D13*
G36*
X126031431Y-102449903D02*
X126064141Y-102454755D01*
X126096217Y-102462789D01*
X126127351Y-102473929D01*
X126157244Y-102488067D01*
X126185607Y-102505067D01*
X126212167Y-102524765D01*
X126236668Y-102546972D01*
X126258875Y-102571473D01*
X126278573Y-102598033D01*
X126295573Y-102626396D01*
X126309711Y-102656289D01*
X126320851Y-102687423D01*
X126328885Y-102719499D01*
X126333737Y-102752209D01*
X126335360Y-102785236D01*
X126335360Y-103661324D01*
X126333737Y-103694351D01*
X126328885Y-103727061D01*
X126320851Y-103759137D01*
X126309711Y-103790271D01*
X126295573Y-103820164D01*
X126278573Y-103848527D01*
X126258875Y-103875087D01*
X126236668Y-103899588D01*
X126212167Y-103921795D01*
X126185607Y-103941493D01*
X126157244Y-103958493D01*
X126127351Y-103972631D01*
X126096217Y-103983771D01*
X126064141Y-103991805D01*
X126031431Y-103996657D01*
X125998404Y-103998280D01*
X124872316Y-103998280D01*
X124839289Y-103996657D01*
X124806579Y-103991805D01*
X124774503Y-103983771D01*
X124743369Y-103972631D01*
X124713476Y-103958493D01*
X124685113Y-103941493D01*
X124658553Y-103921795D01*
X124634052Y-103899588D01*
X124611845Y-103875087D01*
X124592147Y-103848527D01*
X124575147Y-103820164D01*
X124561009Y-103790271D01*
X124549869Y-103759137D01*
X124541835Y-103727061D01*
X124536983Y-103694351D01*
X124535360Y-103661324D01*
X124535360Y-102785236D01*
X124536983Y-102752209D01*
X124541835Y-102719499D01*
X124549869Y-102687423D01*
X124561009Y-102656289D01*
X124575147Y-102626396D01*
X124592147Y-102598033D01*
X124611845Y-102571473D01*
X124634052Y-102546972D01*
X124658553Y-102524765D01*
X124685113Y-102505067D01*
X124713476Y-102488067D01*
X124743369Y-102473929D01*
X124774503Y-102462789D01*
X124806579Y-102454755D01*
X124839289Y-102449903D01*
X124872316Y-102448280D01*
X125998404Y-102448280D01*
X126031431Y-102449903D01*
X126031431Y-102449903D01*
G37*
D14*
X125435360Y-103223280D03*
G04 #@! TD*
D13*
G04 #@! TO.C,R14*
G36*
X122820871Y-114660623D02*
X122853581Y-114665475D01*
X122885657Y-114673509D01*
X122916791Y-114684649D01*
X122946684Y-114698787D01*
X122975047Y-114715787D01*
X123001607Y-114735485D01*
X123026108Y-114757692D01*
X123048315Y-114782193D01*
X123068013Y-114808753D01*
X123085013Y-114837116D01*
X123099151Y-114867009D01*
X123110291Y-114898143D01*
X123118325Y-114930219D01*
X123123177Y-114962929D01*
X123124800Y-114995956D01*
X123124800Y-115872044D01*
X123123177Y-115905071D01*
X123118325Y-115937781D01*
X123110291Y-115969857D01*
X123099151Y-116000991D01*
X123085013Y-116030884D01*
X123068013Y-116059247D01*
X123048315Y-116085807D01*
X123026108Y-116110308D01*
X123001607Y-116132515D01*
X122975047Y-116152213D01*
X122946684Y-116169213D01*
X122916791Y-116183351D01*
X122885657Y-116194491D01*
X122853581Y-116202525D01*
X122820871Y-116207377D01*
X122787844Y-116209000D01*
X121661756Y-116209000D01*
X121628729Y-116207377D01*
X121596019Y-116202525D01*
X121563943Y-116194491D01*
X121532809Y-116183351D01*
X121502916Y-116169213D01*
X121474553Y-116152213D01*
X121447993Y-116132515D01*
X121423492Y-116110308D01*
X121401285Y-116085807D01*
X121381587Y-116059247D01*
X121364587Y-116030884D01*
X121350449Y-116000991D01*
X121339309Y-115969857D01*
X121331275Y-115937781D01*
X121326423Y-115905071D01*
X121324800Y-115872044D01*
X121324800Y-114995956D01*
X121326423Y-114962929D01*
X121331275Y-114930219D01*
X121339309Y-114898143D01*
X121350449Y-114867009D01*
X121364587Y-114837116D01*
X121381587Y-114808753D01*
X121401285Y-114782193D01*
X121423492Y-114757692D01*
X121447993Y-114735485D01*
X121474553Y-114715787D01*
X121502916Y-114698787D01*
X121532809Y-114684649D01*
X121563943Y-114673509D01*
X121596019Y-114665475D01*
X121628729Y-114660623D01*
X121661756Y-114659000D01*
X122787844Y-114659000D01*
X122820871Y-114660623D01*
X122820871Y-114660623D01*
G37*
D14*
X122224800Y-115434000D03*
D13*
G36*
X122820871Y-116710623D02*
X122853581Y-116715475D01*
X122885657Y-116723509D01*
X122916791Y-116734649D01*
X122946684Y-116748787D01*
X122975047Y-116765787D01*
X123001607Y-116785485D01*
X123026108Y-116807692D01*
X123048315Y-116832193D01*
X123068013Y-116858753D01*
X123085013Y-116887116D01*
X123099151Y-116917009D01*
X123110291Y-116948143D01*
X123118325Y-116980219D01*
X123123177Y-117012929D01*
X123124800Y-117045956D01*
X123124800Y-117922044D01*
X123123177Y-117955071D01*
X123118325Y-117987781D01*
X123110291Y-118019857D01*
X123099151Y-118050991D01*
X123085013Y-118080884D01*
X123068013Y-118109247D01*
X123048315Y-118135807D01*
X123026108Y-118160308D01*
X123001607Y-118182515D01*
X122975047Y-118202213D01*
X122946684Y-118219213D01*
X122916791Y-118233351D01*
X122885657Y-118244491D01*
X122853581Y-118252525D01*
X122820871Y-118257377D01*
X122787844Y-118259000D01*
X121661756Y-118259000D01*
X121628729Y-118257377D01*
X121596019Y-118252525D01*
X121563943Y-118244491D01*
X121532809Y-118233351D01*
X121502916Y-118219213D01*
X121474553Y-118202213D01*
X121447993Y-118182515D01*
X121423492Y-118160308D01*
X121401285Y-118135807D01*
X121381587Y-118109247D01*
X121364587Y-118080884D01*
X121350449Y-118050991D01*
X121339309Y-118019857D01*
X121331275Y-117987781D01*
X121326423Y-117955071D01*
X121324800Y-117922044D01*
X121324800Y-117045956D01*
X121326423Y-117012929D01*
X121331275Y-116980219D01*
X121339309Y-116948143D01*
X121350449Y-116917009D01*
X121364587Y-116887116D01*
X121381587Y-116858753D01*
X121401285Y-116832193D01*
X121423492Y-116807692D01*
X121447993Y-116785485D01*
X121474553Y-116765787D01*
X121502916Y-116748787D01*
X121532809Y-116734649D01*
X121563943Y-116723509D01*
X121596019Y-116715475D01*
X121628729Y-116710623D01*
X121661756Y-116709000D01*
X122787844Y-116709000D01*
X122820871Y-116710623D01*
X122820871Y-116710623D01*
G37*
D14*
X122224800Y-117484000D03*
G04 #@! TD*
D13*
G04 #@! TO.C,R15*
G36*
X128124232Y-100393502D02*
X128156942Y-100398354D01*
X128189018Y-100406388D01*
X128220152Y-100417528D01*
X128250045Y-100431666D01*
X128278408Y-100448666D01*
X128304968Y-100468364D01*
X128329469Y-100490571D01*
X128351676Y-100515072D01*
X128371374Y-100541632D01*
X128388374Y-100569995D01*
X128402512Y-100599888D01*
X128413652Y-100631022D01*
X128421686Y-100663098D01*
X128426538Y-100695808D01*
X128428161Y-100728835D01*
X128428161Y-101604923D01*
X128426538Y-101637950D01*
X128421686Y-101670660D01*
X128413652Y-101702736D01*
X128402512Y-101733870D01*
X128388374Y-101763763D01*
X128371374Y-101792126D01*
X128351676Y-101818686D01*
X128329469Y-101843187D01*
X128304968Y-101865394D01*
X128278408Y-101885092D01*
X128250045Y-101902092D01*
X128220152Y-101916230D01*
X128189018Y-101927370D01*
X128156942Y-101935404D01*
X128124232Y-101940256D01*
X128091205Y-101941879D01*
X126965117Y-101941879D01*
X126932090Y-101940256D01*
X126899380Y-101935404D01*
X126867304Y-101927370D01*
X126836170Y-101916230D01*
X126806277Y-101902092D01*
X126777914Y-101885092D01*
X126751354Y-101865394D01*
X126726853Y-101843187D01*
X126704646Y-101818686D01*
X126684948Y-101792126D01*
X126667948Y-101763763D01*
X126653810Y-101733870D01*
X126642670Y-101702736D01*
X126634636Y-101670660D01*
X126629784Y-101637950D01*
X126628161Y-101604923D01*
X126628161Y-100728835D01*
X126629784Y-100695808D01*
X126634636Y-100663098D01*
X126642670Y-100631022D01*
X126653810Y-100599888D01*
X126667948Y-100569995D01*
X126684948Y-100541632D01*
X126704646Y-100515072D01*
X126726853Y-100490571D01*
X126751354Y-100468364D01*
X126777914Y-100448666D01*
X126806277Y-100431666D01*
X126836170Y-100417528D01*
X126867304Y-100406388D01*
X126899380Y-100398354D01*
X126932090Y-100393502D01*
X126965117Y-100391879D01*
X128091205Y-100391879D01*
X128124232Y-100393502D01*
X128124232Y-100393502D01*
G37*
D14*
X127528161Y-101166879D03*
D13*
G36*
X128124232Y-102443502D02*
X128156942Y-102448354D01*
X128189018Y-102456388D01*
X128220152Y-102467528D01*
X128250045Y-102481666D01*
X128278408Y-102498666D01*
X128304968Y-102518364D01*
X128329469Y-102540571D01*
X128351676Y-102565072D01*
X128371374Y-102591632D01*
X128388374Y-102619995D01*
X128402512Y-102649888D01*
X128413652Y-102681022D01*
X128421686Y-102713098D01*
X128426538Y-102745808D01*
X128428161Y-102778835D01*
X128428161Y-103654923D01*
X128426538Y-103687950D01*
X128421686Y-103720660D01*
X128413652Y-103752736D01*
X128402512Y-103783870D01*
X128388374Y-103813763D01*
X128371374Y-103842126D01*
X128351676Y-103868686D01*
X128329469Y-103893187D01*
X128304968Y-103915394D01*
X128278408Y-103935092D01*
X128250045Y-103952092D01*
X128220152Y-103966230D01*
X128189018Y-103977370D01*
X128156942Y-103985404D01*
X128124232Y-103990256D01*
X128091205Y-103991879D01*
X126965117Y-103991879D01*
X126932090Y-103990256D01*
X126899380Y-103985404D01*
X126867304Y-103977370D01*
X126836170Y-103966230D01*
X126806277Y-103952092D01*
X126777914Y-103935092D01*
X126751354Y-103915394D01*
X126726853Y-103893187D01*
X126704646Y-103868686D01*
X126684948Y-103842126D01*
X126667948Y-103813763D01*
X126653810Y-103783870D01*
X126642670Y-103752736D01*
X126634636Y-103720660D01*
X126629784Y-103687950D01*
X126628161Y-103654923D01*
X126628161Y-102778835D01*
X126629784Y-102745808D01*
X126634636Y-102713098D01*
X126642670Y-102681022D01*
X126653810Y-102649888D01*
X126667948Y-102619995D01*
X126684948Y-102591632D01*
X126704646Y-102565072D01*
X126726853Y-102540571D01*
X126751354Y-102518364D01*
X126777914Y-102498666D01*
X126806277Y-102481666D01*
X126836170Y-102467528D01*
X126867304Y-102456388D01*
X126899380Y-102448354D01*
X126932090Y-102443502D01*
X126965117Y-102441879D01*
X128091205Y-102441879D01*
X128124232Y-102443502D01*
X128124232Y-102443502D01*
G37*
D14*
X127528161Y-103216879D03*
G04 #@! TD*
D13*
G04 #@! TO.C,R16*
G36*
X130074232Y-100393502D02*
X130106942Y-100398354D01*
X130139018Y-100406388D01*
X130170152Y-100417528D01*
X130200045Y-100431666D01*
X130228408Y-100448666D01*
X130254968Y-100468364D01*
X130279469Y-100490571D01*
X130301676Y-100515072D01*
X130321374Y-100541632D01*
X130338374Y-100569995D01*
X130352512Y-100599888D01*
X130363652Y-100631022D01*
X130371686Y-100663098D01*
X130376538Y-100695808D01*
X130378161Y-100728835D01*
X130378161Y-101604923D01*
X130376538Y-101637950D01*
X130371686Y-101670660D01*
X130363652Y-101702736D01*
X130352512Y-101733870D01*
X130338374Y-101763763D01*
X130321374Y-101792126D01*
X130301676Y-101818686D01*
X130279469Y-101843187D01*
X130254968Y-101865394D01*
X130228408Y-101885092D01*
X130200045Y-101902092D01*
X130170152Y-101916230D01*
X130139018Y-101927370D01*
X130106942Y-101935404D01*
X130074232Y-101940256D01*
X130041205Y-101941879D01*
X128915117Y-101941879D01*
X128882090Y-101940256D01*
X128849380Y-101935404D01*
X128817304Y-101927370D01*
X128786170Y-101916230D01*
X128756277Y-101902092D01*
X128727914Y-101885092D01*
X128701354Y-101865394D01*
X128676853Y-101843187D01*
X128654646Y-101818686D01*
X128634948Y-101792126D01*
X128617948Y-101763763D01*
X128603810Y-101733870D01*
X128592670Y-101702736D01*
X128584636Y-101670660D01*
X128579784Y-101637950D01*
X128578161Y-101604923D01*
X128578161Y-100728835D01*
X128579784Y-100695808D01*
X128584636Y-100663098D01*
X128592670Y-100631022D01*
X128603810Y-100599888D01*
X128617948Y-100569995D01*
X128634948Y-100541632D01*
X128654646Y-100515072D01*
X128676853Y-100490571D01*
X128701354Y-100468364D01*
X128727914Y-100448666D01*
X128756277Y-100431666D01*
X128786170Y-100417528D01*
X128817304Y-100406388D01*
X128849380Y-100398354D01*
X128882090Y-100393502D01*
X128915117Y-100391879D01*
X130041205Y-100391879D01*
X130074232Y-100393502D01*
X130074232Y-100393502D01*
G37*
D14*
X129478161Y-101166879D03*
D13*
G36*
X130074232Y-102443502D02*
X130106942Y-102448354D01*
X130139018Y-102456388D01*
X130170152Y-102467528D01*
X130200045Y-102481666D01*
X130228408Y-102498666D01*
X130254968Y-102518364D01*
X130279469Y-102540571D01*
X130301676Y-102565072D01*
X130321374Y-102591632D01*
X130338374Y-102619995D01*
X130352512Y-102649888D01*
X130363652Y-102681022D01*
X130371686Y-102713098D01*
X130376538Y-102745808D01*
X130378161Y-102778835D01*
X130378161Y-103654923D01*
X130376538Y-103687950D01*
X130371686Y-103720660D01*
X130363652Y-103752736D01*
X130352512Y-103783870D01*
X130338374Y-103813763D01*
X130321374Y-103842126D01*
X130301676Y-103868686D01*
X130279469Y-103893187D01*
X130254968Y-103915394D01*
X130228408Y-103935092D01*
X130200045Y-103952092D01*
X130170152Y-103966230D01*
X130139018Y-103977370D01*
X130106942Y-103985404D01*
X130074232Y-103990256D01*
X130041205Y-103991879D01*
X128915117Y-103991879D01*
X128882090Y-103990256D01*
X128849380Y-103985404D01*
X128817304Y-103977370D01*
X128786170Y-103966230D01*
X128756277Y-103952092D01*
X128727914Y-103935092D01*
X128701354Y-103915394D01*
X128676853Y-103893187D01*
X128654646Y-103868686D01*
X128634948Y-103842126D01*
X128617948Y-103813763D01*
X128603810Y-103783870D01*
X128592670Y-103752736D01*
X128584636Y-103720660D01*
X128579784Y-103687950D01*
X128578161Y-103654923D01*
X128578161Y-102778835D01*
X128579784Y-102745808D01*
X128584636Y-102713098D01*
X128592670Y-102681022D01*
X128603810Y-102649888D01*
X128617948Y-102619995D01*
X128634948Y-102591632D01*
X128654646Y-102565072D01*
X128676853Y-102540571D01*
X128701354Y-102518364D01*
X128727914Y-102498666D01*
X128756277Y-102481666D01*
X128786170Y-102467528D01*
X128817304Y-102456388D01*
X128849380Y-102448354D01*
X128882090Y-102443502D01*
X128915117Y-102441879D01*
X130041205Y-102441879D01*
X130074232Y-102443502D01*
X130074232Y-102443502D01*
G37*
D14*
X129478161Y-103216879D03*
G04 #@! TD*
D29*
G04 #@! TO.C,SW4*
X107353320Y-103151840D03*
X107353320Y-101551840D03*
X103253320Y-103151840D03*
X103253320Y-101551840D03*
G04 #@! TD*
D30*
G04 #@! TO.C,SW5*
X124602240Y-105738160D03*
X129682240Y-112468160D03*
X127142240Y-105738160D03*
X127142240Y-112468160D03*
X129682240Y-105738160D03*
X124602240Y-112468160D03*
G04 #@! TD*
M02*
