G04 #@! TF.GenerationSoftware,KiCad,Pcbnew,(5.0.0)*
G04 #@! TF.CreationDate,2019-03-29T23:21:28-04:00*
G04 #@! TF.ProjectId,PoEShield,506F45536869656C642E6B696361645F,rev?*
G04 #@! TF.SameCoordinates,Original*
G04 #@! TF.FileFunction,Copper,L1,Top,Signal*
G04 #@! TF.FilePolarity,Positive*
%FSLAX46Y46*%
G04 Gerber Fmt 4.6, Leading zero omitted, Abs format (unit mm)*
G04 Created by KiCad (PCBNEW (5.0.0)) date 03/29/19 23:21:28*
%MOMM*%
%LPD*%
G01*
G04 APERTURE LIST*
G04 #@! TA.AperFunction,ComponentPad*
%ADD10R,2.250000X2.250000*%
G04 #@! TD*
G04 #@! TA.AperFunction,ComponentPad*
%ADD11C,2.250000*%
G04 #@! TD*
G04 #@! TA.AperFunction,SMDPad,CuDef*
%ADD12R,0.558800X1.600200*%
G04 #@! TD*
G04 #@! TA.AperFunction,ComponentPad*
%ADD13C,1.500000*%
G04 #@! TD*
G04 #@! TA.AperFunction,ComponentPad*
%ADD14R,1.500000X1.500000*%
G04 #@! TD*
G04 #@! TA.AperFunction,Conductor*
%ADD15C,0.100000*%
G04 #@! TD*
G04 #@! TA.AperFunction,SMDPad,CuDef*
%ADD16C,1.150000*%
G04 #@! TD*
G04 #@! TA.AperFunction,SMDPad,CuDef*
%ADD17R,1.630000X2.180400*%
G04 #@! TD*
G04 #@! TA.AperFunction,SMDPad,CuDef*
%ADD18R,1.000000X0.700000*%
G04 #@! TD*
G04 #@! TA.AperFunction,SMDPad,CuDef*
%ADD19R,1.700000X0.600000*%
G04 #@! TD*
G04 #@! TA.AperFunction,SMDPad,CuDef*
%ADD20R,2.800000X1.000000*%
G04 #@! TD*
G04 #@! TA.AperFunction,ComponentPad*
%ADD21R,1.700000X1.700000*%
G04 #@! TD*
G04 #@! TA.AperFunction,ComponentPad*
%ADD22O,1.700000X1.700000*%
G04 #@! TD*
G04 #@! TA.AperFunction,SMDPad,CuDef*
%ADD23R,1.910000X0.610000*%
G04 #@! TD*
G04 #@! TA.AperFunction,SMDPad,CuDef*
%ADD24R,1.205000X1.550000*%
G04 #@! TD*
G04 #@! TA.AperFunction,ComponentPad*
%ADD25C,1.524000*%
G04 #@! TD*
G04 #@! TA.AperFunction,SMDPad,CuDef*
%ADD26C,1.425000*%
G04 #@! TD*
G04 #@! TA.AperFunction,ViaPad*
%ADD27C,0.800000*%
G04 #@! TD*
G04 #@! TA.AperFunction,Conductor*
%ADD28C,0.250000*%
G04 #@! TD*
G04 #@! TA.AperFunction,Conductor*
%ADD29C,0.500000*%
G04 #@! TD*
G04 #@! TA.AperFunction,Conductor*
%ADD30C,0.254000*%
G04 #@! TD*
G04 APERTURE END LIST*
D10*
G04 #@! TO.P,U3,1*
G04 #@! TO.N,Net-(C2-Pad2)*
X128625600Y-96570800D03*
D11*
G04 #@! TO.P,U3,2*
G04 #@! TO.N,Net-(C3-Pad1)*
X128625600Y-101650800D03*
G04 #@! TO.P,U3,3*
G04 #@! TO.N,/VREG*
X148945600Y-109270800D03*
G04 #@! TO.P,U3,5*
G04 #@! TO.N,/-VREG*
X148945600Y-88950800D03*
G04 #@! TO.P,U3,6*
G04 #@! TO.N,Net-(R5-Pad2)*
X128625600Y-88950800D03*
G04 #@! TD*
D12*
G04 #@! TO.P,T1,16*
G04 #@! TO.N,Net-(T1-Pad16)*
X100076000Y-81280000D03*
G04 #@! TO.P,T1,15*
G04 #@! TO.N,N/C*
X101346000Y-81280000D03*
G04 #@! TO.P,T1,14*
G04 #@! TO.N,Net-(T1-Pad14)*
X102616000Y-81280000D03*
G04 #@! TO.P,T1,13*
G04 #@! TO.N,N/C*
X103886000Y-81280000D03*
G04 #@! TO.P,T1,12*
X105156000Y-81280000D03*
G04 #@! TO.P,T1,11*
G04 #@! TO.N,Net-(T1-Pad11)*
X106426000Y-81280000D03*
G04 #@! TO.P,T1,10*
G04 #@! TO.N,N/C*
X107696000Y-81280000D03*
G04 #@! TO.P,T1,9*
G04 #@! TO.N,Net-(T1-Pad9)*
X108966000Y-81280000D03*
G04 #@! TO.P,T1,8*
G04 #@! TO.N,Net-(J1-Pad6)*
X108966000Y-89916000D03*
G04 #@! TO.P,T1,7*
G04 #@! TO.N,Net-(D2-Pad3)*
X107696000Y-89916000D03*
G04 #@! TO.P,T1,6*
G04 #@! TO.N,Net-(J1-Pad3)*
X106426000Y-89916000D03*
G04 #@! TO.P,T1,5*
G04 #@! TO.N,N/C*
X105156000Y-89916000D03*
G04 #@! TO.P,T1,4*
X103886000Y-89916000D03*
G04 #@! TO.P,T1,3*
G04 #@! TO.N,Net-(J1-Pad2)*
X102616000Y-89916000D03*
G04 #@! TO.P,T1,2*
G04 #@! TO.N,Net-(D2-Pad4)*
X101346000Y-89916000D03*
G04 #@! TO.P,T1,1*
G04 #@! TO.N,Net-(J1-Pad1)*
X100076000Y-89916000D03*
G04 #@! TD*
D13*
G04 #@! TO.P,J1,8*
G04 #@! TO.N,Net-(D3-Pad3)*
X108966000Y-94996000D03*
G04 #@! TO.P,J1,7*
X107696000Y-97536000D03*
G04 #@! TO.P,J1,6*
G04 #@! TO.N,Net-(J1-Pad6)*
X106426000Y-94996000D03*
G04 #@! TO.P,J1,5*
G04 #@! TO.N,Net-(D3-Pad4)*
X105156000Y-97536000D03*
G04 #@! TO.P,J1,4*
X103886000Y-94996000D03*
G04 #@! TO.P,J1,3*
G04 #@! TO.N,Net-(J1-Pad3)*
X102616000Y-97536000D03*
G04 #@! TO.P,J1,2*
G04 #@! TO.N,Net-(J1-Pad2)*
X101346000Y-94996000D03*
D14*
G04 #@! TO.P,J1,1*
G04 #@! TO.N,Net-(J1-Pad1)*
X100076000Y-97536000D03*
G04 #@! TD*
D15*
G04 #@! TO.N,/VDD*
G04 #@! TO.C,C1*
G36*
X132681505Y-77894204D02*
X132705773Y-77897804D01*
X132729572Y-77903765D01*
X132752671Y-77912030D01*
X132774850Y-77922520D01*
X132795893Y-77935132D01*
X132815599Y-77949747D01*
X132833777Y-77966223D01*
X132850253Y-77984401D01*
X132864868Y-78004107D01*
X132877480Y-78025150D01*
X132887970Y-78047329D01*
X132896235Y-78070428D01*
X132902196Y-78094227D01*
X132905796Y-78118495D01*
X132907000Y-78142999D01*
X132907000Y-78793001D01*
X132905796Y-78817505D01*
X132902196Y-78841773D01*
X132896235Y-78865572D01*
X132887970Y-78888671D01*
X132877480Y-78910850D01*
X132864868Y-78931893D01*
X132850253Y-78951599D01*
X132833777Y-78969777D01*
X132815599Y-78986253D01*
X132795893Y-79000868D01*
X132774850Y-79013480D01*
X132752671Y-79023970D01*
X132729572Y-79032235D01*
X132705773Y-79038196D01*
X132681505Y-79041796D01*
X132657001Y-79043000D01*
X131756999Y-79043000D01*
X131732495Y-79041796D01*
X131708227Y-79038196D01*
X131684428Y-79032235D01*
X131661329Y-79023970D01*
X131639150Y-79013480D01*
X131618107Y-79000868D01*
X131598401Y-78986253D01*
X131580223Y-78969777D01*
X131563747Y-78951599D01*
X131549132Y-78931893D01*
X131536520Y-78910850D01*
X131526030Y-78888671D01*
X131517765Y-78865572D01*
X131511804Y-78841773D01*
X131508204Y-78817505D01*
X131507000Y-78793001D01*
X131507000Y-78142999D01*
X131508204Y-78118495D01*
X131511804Y-78094227D01*
X131517765Y-78070428D01*
X131526030Y-78047329D01*
X131536520Y-78025150D01*
X131549132Y-78004107D01*
X131563747Y-77984401D01*
X131580223Y-77966223D01*
X131598401Y-77949747D01*
X131618107Y-77935132D01*
X131639150Y-77922520D01*
X131661329Y-77912030D01*
X131684428Y-77903765D01*
X131708227Y-77897804D01*
X131732495Y-77894204D01*
X131756999Y-77893000D01*
X132657001Y-77893000D01*
X132681505Y-77894204D01*
X132681505Y-77894204D01*
G37*
D16*
G04 #@! TD*
G04 #@! TO.P,C1,1*
G04 #@! TO.N,/VDD*
X132207000Y-78468000D03*
D15*
G04 #@! TO.N,/VSS*
G04 #@! TO.C,C1*
G36*
X132681505Y-79944204D02*
X132705773Y-79947804D01*
X132729572Y-79953765D01*
X132752671Y-79962030D01*
X132774850Y-79972520D01*
X132795893Y-79985132D01*
X132815599Y-79999747D01*
X132833777Y-80016223D01*
X132850253Y-80034401D01*
X132864868Y-80054107D01*
X132877480Y-80075150D01*
X132887970Y-80097329D01*
X132896235Y-80120428D01*
X132902196Y-80144227D01*
X132905796Y-80168495D01*
X132907000Y-80192999D01*
X132907000Y-80843001D01*
X132905796Y-80867505D01*
X132902196Y-80891773D01*
X132896235Y-80915572D01*
X132887970Y-80938671D01*
X132877480Y-80960850D01*
X132864868Y-80981893D01*
X132850253Y-81001599D01*
X132833777Y-81019777D01*
X132815599Y-81036253D01*
X132795893Y-81050868D01*
X132774850Y-81063480D01*
X132752671Y-81073970D01*
X132729572Y-81082235D01*
X132705773Y-81088196D01*
X132681505Y-81091796D01*
X132657001Y-81093000D01*
X131756999Y-81093000D01*
X131732495Y-81091796D01*
X131708227Y-81088196D01*
X131684428Y-81082235D01*
X131661329Y-81073970D01*
X131639150Y-81063480D01*
X131618107Y-81050868D01*
X131598401Y-81036253D01*
X131580223Y-81019777D01*
X131563747Y-81001599D01*
X131549132Y-80981893D01*
X131536520Y-80960850D01*
X131526030Y-80938671D01*
X131517765Y-80915572D01*
X131511804Y-80891773D01*
X131508204Y-80867505D01*
X131507000Y-80843001D01*
X131507000Y-80192999D01*
X131508204Y-80168495D01*
X131511804Y-80144227D01*
X131517765Y-80120428D01*
X131526030Y-80097329D01*
X131536520Y-80075150D01*
X131549132Y-80054107D01*
X131563747Y-80034401D01*
X131580223Y-80016223D01*
X131598401Y-79999747D01*
X131618107Y-79985132D01*
X131639150Y-79972520D01*
X131661329Y-79962030D01*
X131684428Y-79953765D01*
X131708227Y-79947804D01*
X131732495Y-79944204D01*
X131756999Y-79943000D01*
X132657001Y-79943000D01*
X132681505Y-79944204D01*
X132681505Y-79944204D01*
G37*
D16*
G04 #@! TD*
G04 #@! TO.P,C1,2*
G04 #@! TO.N,/VSS*
X132207000Y-80518000D03*
D17*
G04 #@! TO.P,D1,1*
G04 #@! TO.N,/VDD*
X128651000Y-76930600D03*
G04 #@! TO.P,D1,2*
G04 #@! TO.N,/VSS*
X128651000Y-80645000D03*
G04 #@! TD*
D18*
G04 #@! TO.P,D2,4*
G04 #@! TO.N,Net-(D2-Pad4)*
X118691000Y-81248000D03*
G04 #@! TO.P,D2,3*
G04 #@! TO.N,Net-(D2-Pad3)*
X118691000Y-77248000D03*
G04 #@! TO.P,D2,2*
G04 #@! TO.N,/VSS*
X124641000Y-77248000D03*
G04 #@! TO.P,D2,1*
G04 #@! TO.N,/VDD*
X124641000Y-81248000D03*
G04 #@! TD*
G04 #@! TO.P,D3,1*
G04 #@! TO.N,/VDD*
X124641000Y-87344000D03*
G04 #@! TO.P,D3,2*
G04 #@! TO.N,/VSS*
X124641000Y-83344000D03*
G04 #@! TO.P,D3,3*
G04 #@! TO.N,Net-(D3-Pad3)*
X118691000Y-83344000D03*
G04 #@! TO.P,D3,4*
G04 #@! TO.N,Net-(D3-Pad4)*
X118691000Y-87344000D03*
G04 #@! TD*
D19*
G04 #@! TO.P,J2,1*
G04 #@! TO.N,Net-(C2-Pad2)*
X155022000Y-74813000D03*
G04 #@! TO.P,J2,2*
G04 #@! TO.N,/VDD*
X155022000Y-76063000D03*
D20*
G04 #@! TO.P,J2,MP*
G04 #@! TO.N,N/C*
X158372000Y-72963000D03*
X158372000Y-77913000D03*
G04 #@! TD*
D21*
G04 #@! TO.P,J3,1*
G04 #@! TO.N,/3V3DC*
X154178000Y-92964000D03*
D22*
G04 #@! TO.P,J3,2*
G04 #@! TO.N,/VREG*
X154178000Y-95504000D03*
G04 #@! TO.P,J3,3*
G04 #@! TO.N,/12VDC*
X154178000Y-98044000D03*
G04 #@! TD*
D15*
G04 #@! TO.N,Net-(R1-Pad1)*
G04 #@! TO.C,R1*
G36*
X138262505Y-74231204D02*
X138286773Y-74234804D01*
X138310572Y-74240765D01*
X138333671Y-74249030D01*
X138355850Y-74259520D01*
X138376893Y-74272132D01*
X138396599Y-74286747D01*
X138414777Y-74303223D01*
X138431253Y-74321401D01*
X138445868Y-74341107D01*
X138458480Y-74362150D01*
X138468970Y-74384329D01*
X138477235Y-74407428D01*
X138483196Y-74431227D01*
X138486796Y-74455495D01*
X138488000Y-74479999D01*
X138488000Y-75380001D01*
X138486796Y-75404505D01*
X138483196Y-75428773D01*
X138477235Y-75452572D01*
X138468970Y-75475671D01*
X138458480Y-75497850D01*
X138445868Y-75518893D01*
X138431253Y-75538599D01*
X138414777Y-75556777D01*
X138396599Y-75573253D01*
X138376893Y-75587868D01*
X138355850Y-75600480D01*
X138333671Y-75610970D01*
X138310572Y-75619235D01*
X138286773Y-75625196D01*
X138262505Y-75628796D01*
X138238001Y-75630000D01*
X137587999Y-75630000D01*
X137563495Y-75628796D01*
X137539227Y-75625196D01*
X137515428Y-75619235D01*
X137492329Y-75610970D01*
X137470150Y-75600480D01*
X137449107Y-75587868D01*
X137429401Y-75573253D01*
X137411223Y-75556777D01*
X137394747Y-75538599D01*
X137380132Y-75518893D01*
X137367520Y-75497850D01*
X137357030Y-75475671D01*
X137348765Y-75452572D01*
X137342804Y-75428773D01*
X137339204Y-75404505D01*
X137338000Y-75380001D01*
X137338000Y-74479999D01*
X137339204Y-74455495D01*
X137342804Y-74431227D01*
X137348765Y-74407428D01*
X137357030Y-74384329D01*
X137367520Y-74362150D01*
X137380132Y-74341107D01*
X137394747Y-74321401D01*
X137411223Y-74303223D01*
X137429401Y-74286747D01*
X137449107Y-74272132D01*
X137470150Y-74259520D01*
X137492329Y-74249030D01*
X137515428Y-74240765D01*
X137539227Y-74234804D01*
X137563495Y-74231204D01*
X137587999Y-74230000D01*
X138238001Y-74230000D01*
X138262505Y-74231204D01*
X138262505Y-74231204D01*
G37*
D16*
G04 #@! TD*
G04 #@! TO.P,R1,1*
G04 #@! TO.N,Net-(R1-Pad1)*
X137913000Y-74930000D03*
D15*
G04 #@! TO.N,/VSS*
G04 #@! TO.C,R1*
G36*
X140312505Y-74231204D02*
X140336773Y-74234804D01*
X140360572Y-74240765D01*
X140383671Y-74249030D01*
X140405850Y-74259520D01*
X140426893Y-74272132D01*
X140446599Y-74286747D01*
X140464777Y-74303223D01*
X140481253Y-74321401D01*
X140495868Y-74341107D01*
X140508480Y-74362150D01*
X140518970Y-74384329D01*
X140527235Y-74407428D01*
X140533196Y-74431227D01*
X140536796Y-74455495D01*
X140538000Y-74479999D01*
X140538000Y-75380001D01*
X140536796Y-75404505D01*
X140533196Y-75428773D01*
X140527235Y-75452572D01*
X140518970Y-75475671D01*
X140508480Y-75497850D01*
X140495868Y-75518893D01*
X140481253Y-75538599D01*
X140464777Y-75556777D01*
X140446599Y-75573253D01*
X140426893Y-75587868D01*
X140405850Y-75600480D01*
X140383671Y-75610970D01*
X140360572Y-75619235D01*
X140336773Y-75625196D01*
X140312505Y-75628796D01*
X140288001Y-75630000D01*
X139637999Y-75630000D01*
X139613495Y-75628796D01*
X139589227Y-75625196D01*
X139565428Y-75619235D01*
X139542329Y-75610970D01*
X139520150Y-75600480D01*
X139499107Y-75587868D01*
X139479401Y-75573253D01*
X139461223Y-75556777D01*
X139444747Y-75538599D01*
X139430132Y-75518893D01*
X139417520Y-75497850D01*
X139407030Y-75475671D01*
X139398765Y-75452572D01*
X139392804Y-75428773D01*
X139389204Y-75404505D01*
X139388000Y-75380001D01*
X139388000Y-74479999D01*
X139389204Y-74455495D01*
X139392804Y-74431227D01*
X139398765Y-74407428D01*
X139407030Y-74384329D01*
X139417520Y-74362150D01*
X139430132Y-74341107D01*
X139444747Y-74321401D01*
X139461223Y-74303223D01*
X139479401Y-74286747D01*
X139499107Y-74272132D01*
X139520150Y-74259520D01*
X139542329Y-74249030D01*
X139565428Y-74240765D01*
X139589227Y-74234804D01*
X139613495Y-74231204D01*
X139637999Y-74230000D01*
X140288001Y-74230000D01*
X140312505Y-74231204D01*
X140312505Y-74231204D01*
G37*
D16*
G04 #@! TD*
G04 #@! TO.P,R1,2*
G04 #@! TO.N,/VSS*
X139963000Y-74930000D03*
D15*
G04 #@! TO.N,Net-(R2-Pad1)*
G04 #@! TO.C,R2*
G36*
X135348505Y-77912204D02*
X135372773Y-77915804D01*
X135396572Y-77921765D01*
X135419671Y-77930030D01*
X135441850Y-77940520D01*
X135462893Y-77953132D01*
X135482599Y-77967747D01*
X135500777Y-77984223D01*
X135517253Y-78002401D01*
X135531868Y-78022107D01*
X135544480Y-78043150D01*
X135554970Y-78065329D01*
X135563235Y-78088428D01*
X135569196Y-78112227D01*
X135572796Y-78136495D01*
X135574000Y-78160999D01*
X135574000Y-78811001D01*
X135572796Y-78835505D01*
X135569196Y-78859773D01*
X135563235Y-78883572D01*
X135554970Y-78906671D01*
X135544480Y-78928850D01*
X135531868Y-78949893D01*
X135517253Y-78969599D01*
X135500777Y-78987777D01*
X135482599Y-79004253D01*
X135462893Y-79018868D01*
X135441850Y-79031480D01*
X135419671Y-79041970D01*
X135396572Y-79050235D01*
X135372773Y-79056196D01*
X135348505Y-79059796D01*
X135324001Y-79061000D01*
X134423999Y-79061000D01*
X134399495Y-79059796D01*
X134375227Y-79056196D01*
X134351428Y-79050235D01*
X134328329Y-79041970D01*
X134306150Y-79031480D01*
X134285107Y-79018868D01*
X134265401Y-79004253D01*
X134247223Y-78987777D01*
X134230747Y-78969599D01*
X134216132Y-78949893D01*
X134203520Y-78928850D01*
X134193030Y-78906671D01*
X134184765Y-78883572D01*
X134178804Y-78859773D01*
X134175204Y-78835505D01*
X134174000Y-78811001D01*
X134174000Y-78160999D01*
X134175204Y-78136495D01*
X134178804Y-78112227D01*
X134184765Y-78088428D01*
X134193030Y-78065329D01*
X134203520Y-78043150D01*
X134216132Y-78022107D01*
X134230747Y-78002401D01*
X134247223Y-77984223D01*
X134265401Y-77967747D01*
X134285107Y-77953132D01*
X134306150Y-77940520D01*
X134328329Y-77930030D01*
X134351428Y-77921765D01*
X134375227Y-77915804D01*
X134399495Y-77912204D01*
X134423999Y-77911000D01*
X135324001Y-77911000D01*
X135348505Y-77912204D01*
X135348505Y-77912204D01*
G37*
D16*
G04 #@! TD*
G04 #@! TO.P,R2,1*
G04 #@! TO.N,Net-(R2-Pad1)*
X134874000Y-78486000D03*
D15*
G04 #@! TO.N,/VSS*
G04 #@! TO.C,R2*
G36*
X135348505Y-79962204D02*
X135372773Y-79965804D01*
X135396572Y-79971765D01*
X135419671Y-79980030D01*
X135441850Y-79990520D01*
X135462893Y-80003132D01*
X135482599Y-80017747D01*
X135500777Y-80034223D01*
X135517253Y-80052401D01*
X135531868Y-80072107D01*
X135544480Y-80093150D01*
X135554970Y-80115329D01*
X135563235Y-80138428D01*
X135569196Y-80162227D01*
X135572796Y-80186495D01*
X135574000Y-80210999D01*
X135574000Y-80861001D01*
X135572796Y-80885505D01*
X135569196Y-80909773D01*
X135563235Y-80933572D01*
X135554970Y-80956671D01*
X135544480Y-80978850D01*
X135531868Y-80999893D01*
X135517253Y-81019599D01*
X135500777Y-81037777D01*
X135482599Y-81054253D01*
X135462893Y-81068868D01*
X135441850Y-81081480D01*
X135419671Y-81091970D01*
X135396572Y-81100235D01*
X135372773Y-81106196D01*
X135348505Y-81109796D01*
X135324001Y-81111000D01*
X134423999Y-81111000D01*
X134399495Y-81109796D01*
X134375227Y-81106196D01*
X134351428Y-81100235D01*
X134328329Y-81091970D01*
X134306150Y-81081480D01*
X134285107Y-81068868D01*
X134265401Y-81054253D01*
X134247223Y-81037777D01*
X134230747Y-81019599D01*
X134216132Y-80999893D01*
X134203520Y-80978850D01*
X134193030Y-80956671D01*
X134184765Y-80933572D01*
X134178804Y-80909773D01*
X134175204Y-80885505D01*
X134174000Y-80861001D01*
X134174000Y-80210999D01*
X134175204Y-80186495D01*
X134178804Y-80162227D01*
X134184765Y-80138428D01*
X134193030Y-80115329D01*
X134203520Y-80093150D01*
X134216132Y-80072107D01*
X134230747Y-80052401D01*
X134247223Y-80034223D01*
X134265401Y-80017747D01*
X134285107Y-80003132D01*
X134306150Y-79990520D01*
X134328329Y-79980030D01*
X134351428Y-79971765D01*
X134375227Y-79965804D01*
X134399495Y-79962204D01*
X134423999Y-79961000D01*
X135324001Y-79961000D01*
X135348505Y-79962204D01*
X135348505Y-79962204D01*
G37*
D16*
G04 #@! TD*
G04 #@! TO.P,R2,2*
G04 #@! TO.N,/VSS*
X134874000Y-80536000D03*
D15*
G04 #@! TO.N,Net-(R3-Pad2)*
G04 #@! TO.C,R3*
G36*
X144358505Y-71183204D02*
X144382773Y-71186804D01*
X144406572Y-71192765D01*
X144429671Y-71201030D01*
X144451850Y-71211520D01*
X144472893Y-71224132D01*
X144492599Y-71238747D01*
X144510777Y-71255223D01*
X144527253Y-71273401D01*
X144541868Y-71293107D01*
X144554480Y-71314150D01*
X144564970Y-71336329D01*
X144573235Y-71359428D01*
X144579196Y-71383227D01*
X144582796Y-71407495D01*
X144584000Y-71431999D01*
X144584000Y-72332001D01*
X144582796Y-72356505D01*
X144579196Y-72380773D01*
X144573235Y-72404572D01*
X144564970Y-72427671D01*
X144554480Y-72449850D01*
X144541868Y-72470893D01*
X144527253Y-72490599D01*
X144510777Y-72508777D01*
X144492599Y-72525253D01*
X144472893Y-72539868D01*
X144451850Y-72552480D01*
X144429671Y-72562970D01*
X144406572Y-72571235D01*
X144382773Y-72577196D01*
X144358505Y-72580796D01*
X144334001Y-72582000D01*
X143683999Y-72582000D01*
X143659495Y-72580796D01*
X143635227Y-72577196D01*
X143611428Y-72571235D01*
X143588329Y-72562970D01*
X143566150Y-72552480D01*
X143545107Y-72539868D01*
X143525401Y-72525253D01*
X143507223Y-72508777D01*
X143490747Y-72490599D01*
X143476132Y-72470893D01*
X143463520Y-72449850D01*
X143453030Y-72427671D01*
X143444765Y-72404572D01*
X143438804Y-72380773D01*
X143435204Y-72356505D01*
X143434000Y-72332001D01*
X143434000Y-71431999D01*
X143435204Y-71407495D01*
X143438804Y-71383227D01*
X143444765Y-71359428D01*
X143453030Y-71336329D01*
X143463520Y-71314150D01*
X143476132Y-71293107D01*
X143490747Y-71273401D01*
X143507223Y-71255223D01*
X143525401Y-71238747D01*
X143545107Y-71224132D01*
X143566150Y-71211520D01*
X143588329Y-71201030D01*
X143611428Y-71192765D01*
X143635227Y-71186804D01*
X143659495Y-71183204D01*
X143683999Y-71182000D01*
X144334001Y-71182000D01*
X144358505Y-71183204D01*
X144358505Y-71183204D01*
G37*
D16*
G04 #@! TD*
G04 #@! TO.P,R3,2*
G04 #@! TO.N,Net-(R3-Pad2)*
X144009000Y-71882000D03*
D15*
G04 #@! TO.N,/VDD*
G04 #@! TO.C,R3*
G36*
X146408505Y-71183204D02*
X146432773Y-71186804D01*
X146456572Y-71192765D01*
X146479671Y-71201030D01*
X146501850Y-71211520D01*
X146522893Y-71224132D01*
X146542599Y-71238747D01*
X146560777Y-71255223D01*
X146577253Y-71273401D01*
X146591868Y-71293107D01*
X146604480Y-71314150D01*
X146614970Y-71336329D01*
X146623235Y-71359428D01*
X146629196Y-71383227D01*
X146632796Y-71407495D01*
X146634000Y-71431999D01*
X146634000Y-72332001D01*
X146632796Y-72356505D01*
X146629196Y-72380773D01*
X146623235Y-72404572D01*
X146614970Y-72427671D01*
X146604480Y-72449850D01*
X146591868Y-72470893D01*
X146577253Y-72490599D01*
X146560777Y-72508777D01*
X146542599Y-72525253D01*
X146522893Y-72539868D01*
X146501850Y-72552480D01*
X146479671Y-72562970D01*
X146456572Y-72571235D01*
X146432773Y-72577196D01*
X146408505Y-72580796D01*
X146384001Y-72582000D01*
X145733999Y-72582000D01*
X145709495Y-72580796D01*
X145685227Y-72577196D01*
X145661428Y-72571235D01*
X145638329Y-72562970D01*
X145616150Y-72552480D01*
X145595107Y-72539868D01*
X145575401Y-72525253D01*
X145557223Y-72508777D01*
X145540747Y-72490599D01*
X145526132Y-72470893D01*
X145513520Y-72449850D01*
X145503030Y-72427671D01*
X145494765Y-72404572D01*
X145488804Y-72380773D01*
X145485204Y-72356505D01*
X145484000Y-72332001D01*
X145484000Y-71431999D01*
X145485204Y-71407495D01*
X145488804Y-71383227D01*
X145494765Y-71359428D01*
X145503030Y-71336329D01*
X145513520Y-71314150D01*
X145526132Y-71293107D01*
X145540747Y-71273401D01*
X145557223Y-71255223D01*
X145575401Y-71238747D01*
X145595107Y-71224132D01*
X145616150Y-71211520D01*
X145638329Y-71201030D01*
X145661428Y-71192765D01*
X145685227Y-71186804D01*
X145709495Y-71183204D01*
X145733999Y-71182000D01*
X146384001Y-71182000D01*
X146408505Y-71183204D01*
X146408505Y-71183204D01*
G37*
D16*
G04 #@! TD*
G04 #@! TO.P,R3,1*
G04 #@! TO.N,/VDD*
X146059000Y-71882000D03*
D15*
G04 #@! TO.N,Net-(R3-Pad2)*
G04 #@! TO.C,R4*
G36*
X144376505Y-74231204D02*
X144400773Y-74234804D01*
X144424572Y-74240765D01*
X144447671Y-74249030D01*
X144469850Y-74259520D01*
X144490893Y-74272132D01*
X144510599Y-74286747D01*
X144528777Y-74303223D01*
X144545253Y-74321401D01*
X144559868Y-74341107D01*
X144572480Y-74362150D01*
X144582970Y-74384329D01*
X144591235Y-74407428D01*
X144597196Y-74431227D01*
X144600796Y-74455495D01*
X144602000Y-74479999D01*
X144602000Y-75380001D01*
X144600796Y-75404505D01*
X144597196Y-75428773D01*
X144591235Y-75452572D01*
X144582970Y-75475671D01*
X144572480Y-75497850D01*
X144559868Y-75518893D01*
X144545253Y-75538599D01*
X144528777Y-75556777D01*
X144510599Y-75573253D01*
X144490893Y-75587868D01*
X144469850Y-75600480D01*
X144447671Y-75610970D01*
X144424572Y-75619235D01*
X144400773Y-75625196D01*
X144376505Y-75628796D01*
X144352001Y-75630000D01*
X143701999Y-75630000D01*
X143677495Y-75628796D01*
X143653227Y-75625196D01*
X143629428Y-75619235D01*
X143606329Y-75610970D01*
X143584150Y-75600480D01*
X143563107Y-75587868D01*
X143543401Y-75573253D01*
X143525223Y-75556777D01*
X143508747Y-75538599D01*
X143494132Y-75518893D01*
X143481520Y-75497850D01*
X143471030Y-75475671D01*
X143462765Y-75452572D01*
X143456804Y-75428773D01*
X143453204Y-75404505D01*
X143452000Y-75380001D01*
X143452000Y-74479999D01*
X143453204Y-74455495D01*
X143456804Y-74431227D01*
X143462765Y-74407428D01*
X143471030Y-74384329D01*
X143481520Y-74362150D01*
X143494132Y-74341107D01*
X143508747Y-74321401D01*
X143525223Y-74303223D01*
X143543401Y-74286747D01*
X143563107Y-74272132D01*
X143584150Y-74259520D01*
X143606329Y-74249030D01*
X143629428Y-74240765D01*
X143653227Y-74234804D01*
X143677495Y-74231204D01*
X143701999Y-74230000D01*
X144352001Y-74230000D01*
X144376505Y-74231204D01*
X144376505Y-74231204D01*
G37*
D16*
G04 #@! TD*
G04 #@! TO.P,R4,1*
G04 #@! TO.N,Net-(R3-Pad2)*
X144027000Y-74930000D03*
D15*
G04 #@! TO.N,/VSS*
G04 #@! TO.C,R4*
G36*
X142326505Y-74231204D02*
X142350773Y-74234804D01*
X142374572Y-74240765D01*
X142397671Y-74249030D01*
X142419850Y-74259520D01*
X142440893Y-74272132D01*
X142460599Y-74286747D01*
X142478777Y-74303223D01*
X142495253Y-74321401D01*
X142509868Y-74341107D01*
X142522480Y-74362150D01*
X142532970Y-74384329D01*
X142541235Y-74407428D01*
X142547196Y-74431227D01*
X142550796Y-74455495D01*
X142552000Y-74479999D01*
X142552000Y-75380001D01*
X142550796Y-75404505D01*
X142547196Y-75428773D01*
X142541235Y-75452572D01*
X142532970Y-75475671D01*
X142522480Y-75497850D01*
X142509868Y-75518893D01*
X142495253Y-75538599D01*
X142478777Y-75556777D01*
X142460599Y-75573253D01*
X142440893Y-75587868D01*
X142419850Y-75600480D01*
X142397671Y-75610970D01*
X142374572Y-75619235D01*
X142350773Y-75625196D01*
X142326505Y-75628796D01*
X142302001Y-75630000D01*
X141651999Y-75630000D01*
X141627495Y-75628796D01*
X141603227Y-75625196D01*
X141579428Y-75619235D01*
X141556329Y-75610970D01*
X141534150Y-75600480D01*
X141513107Y-75587868D01*
X141493401Y-75573253D01*
X141475223Y-75556777D01*
X141458747Y-75538599D01*
X141444132Y-75518893D01*
X141431520Y-75497850D01*
X141421030Y-75475671D01*
X141412765Y-75452572D01*
X141406804Y-75428773D01*
X141403204Y-75404505D01*
X141402000Y-75380001D01*
X141402000Y-74479999D01*
X141403204Y-74455495D01*
X141406804Y-74431227D01*
X141412765Y-74407428D01*
X141421030Y-74384329D01*
X141431520Y-74362150D01*
X141444132Y-74341107D01*
X141458747Y-74321401D01*
X141475223Y-74303223D01*
X141493401Y-74286747D01*
X141513107Y-74272132D01*
X141534150Y-74259520D01*
X141556329Y-74249030D01*
X141579428Y-74240765D01*
X141603227Y-74234804D01*
X141627495Y-74231204D01*
X141651999Y-74230000D01*
X142302001Y-74230000D01*
X142326505Y-74231204D01*
X142326505Y-74231204D01*
G37*
D16*
G04 #@! TD*
G04 #@! TO.P,R4,2*
G04 #@! TO.N,/VSS*
X141977000Y-74930000D03*
D15*
G04 #@! TO.N,Net-(R5-Pad2)*
G04 #@! TO.C,R5*
G36*
X129871505Y-83629204D02*
X129895773Y-83632804D01*
X129919572Y-83638765D01*
X129942671Y-83647030D01*
X129964850Y-83657520D01*
X129985893Y-83670132D01*
X130005599Y-83684747D01*
X130023777Y-83701223D01*
X130040253Y-83719401D01*
X130054868Y-83739107D01*
X130067480Y-83760150D01*
X130077970Y-83782329D01*
X130086235Y-83805428D01*
X130092196Y-83829227D01*
X130095796Y-83853495D01*
X130097000Y-83877999D01*
X130097000Y-84778001D01*
X130095796Y-84802505D01*
X130092196Y-84826773D01*
X130086235Y-84850572D01*
X130077970Y-84873671D01*
X130067480Y-84895850D01*
X130054868Y-84916893D01*
X130040253Y-84936599D01*
X130023777Y-84954777D01*
X130005599Y-84971253D01*
X129985893Y-84985868D01*
X129964850Y-84998480D01*
X129942671Y-85008970D01*
X129919572Y-85017235D01*
X129895773Y-85023196D01*
X129871505Y-85026796D01*
X129847001Y-85028000D01*
X129196999Y-85028000D01*
X129172495Y-85026796D01*
X129148227Y-85023196D01*
X129124428Y-85017235D01*
X129101329Y-85008970D01*
X129079150Y-84998480D01*
X129058107Y-84985868D01*
X129038401Y-84971253D01*
X129020223Y-84954777D01*
X129003747Y-84936599D01*
X128989132Y-84916893D01*
X128976520Y-84895850D01*
X128966030Y-84873671D01*
X128957765Y-84850572D01*
X128951804Y-84826773D01*
X128948204Y-84802505D01*
X128947000Y-84778001D01*
X128947000Y-83877999D01*
X128948204Y-83853495D01*
X128951804Y-83829227D01*
X128957765Y-83805428D01*
X128966030Y-83782329D01*
X128976520Y-83760150D01*
X128989132Y-83739107D01*
X129003747Y-83719401D01*
X129020223Y-83701223D01*
X129038401Y-83684747D01*
X129058107Y-83670132D01*
X129079150Y-83657520D01*
X129101329Y-83647030D01*
X129124428Y-83638765D01*
X129148227Y-83632804D01*
X129172495Y-83629204D01*
X129196999Y-83628000D01*
X129847001Y-83628000D01*
X129871505Y-83629204D01*
X129871505Y-83629204D01*
G37*
D16*
G04 #@! TD*
G04 #@! TO.P,R5,2*
G04 #@! TO.N,Net-(R5-Pad2)*
X129522000Y-84328000D03*
D15*
G04 #@! TO.N,Net-(R5-Pad1)*
G04 #@! TO.C,R5*
G36*
X131921505Y-83629204D02*
X131945773Y-83632804D01*
X131969572Y-83638765D01*
X131992671Y-83647030D01*
X132014850Y-83657520D01*
X132035893Y-83670132D01*
X132055599Y-83684747D01*
X132073777Y-83701223D01*
X132090253Y-83719401D01*
X132104868Y-83739107D01*
X132117480Y-83760150D01*
X132127970Y-83782329D01*
X132136235Y-83805428D01*
X132142196Y-83829227D01*
X132145796Y-83853495D01*
X132147000Y-83877999D01*
X132147000Y-84778001D01*
X132145796Y-84802505D01*
X132142196Y-84826773D01*
X132136235Y-84850572D01*
X132127970Y-84873671D01*
X132117480Y-84895850D01*
X132104868Y-84916893D01*
X132090253Y-84936599D01*
X132073777Y-84954777D01*
X132055599Y-84971253D01*
X132035893Y-84985868D01*
X132014850Y-84998480D01*
X131992671Y-85008970D01*
X131969572Y-85017235D01*
X131945773Y-85023196D01*
X131921505Y-85026796D01*
X131897001Y-85028000D01*
X131246999Y-85028000D01*
X131222495Y-85026796D01*
X131198227Y-85023196D01*
X131174428Y-85017235D01*
X131151329Y-85008970D01*
X131129150Y-84998480D01*
X131108107Y-84985868D01*
X131088401Y-84971253D01*
X131070223Y-84954777D01*
X131053747Y-84936599D01*
X131039132Y-84916893D01*
X131026520Y-84895850D01*
X131016030Y-84873671D01*
X131007765Y-84850572D01*
X131001804Y-84826773D01*
X130998204Y-84802505D01*
X130997000Y-84778001D01*
X130997000Y-83877999D01*
X130998204Y-83853495D01*
X131001804Y-83829227D01*
X131007765Y-83805428D01*
X131016030Y-83782329D01*
X131026520Y-83760150D01*
X131039132Y-83739107D01*
X131053747Y-83719401D01*
X131070223Y-83701223D01*
X131088401Y-83684747D01*
X131108107Y-83670132D01*
X131129150Y-83657520D01*
X131151329Y-83647030D01*
X131174428Y-83638765D01*
X131198227Y-83632804D01*
X131222495Y-83629204D01*
X131246999Y-83628000D01*
X131897001Y-83628000D01*
X131921505Y-83629204D01*
X131921505Y-83629204D01*
G37*
D16*
G04 #@! TD*
G04 #@! TO.P,R5,1*
G04 #@! TO.N,Net-(R5-Pad1)*
X131572000Y-84328000D03*
D23*
G04 #@! TO.P,U1,1*
G04 #@! TO.N,Net-(R1-Pad1)*
X138190000Y-77089000D03*
G04 #@! TO.P,U1,2*
G04 #@! TO.N,Net-(R2-Pad1)*
X138190000Y-78359000D03*
G04 #@! TO.P,U1,3*
G04 #@! TO.N,N/C*
X138190000Y-79629000D03*
G04 #@! TO.P,U1,4*
G04 #@! TO.N,/VSS*
X138190000Y-80899000D03*
G04 #@! TO.P,U1,5*
G04 #@! TO.N,Net-(C2-Pad2)*
X143750000Y-80899000D03*
G04 #@! TO.P,U1,6*
G04 #@! TO.N,Net-(R5-Pad1)*
X143750000Y-79629000D03*
G04 #@! TO.P,U1,7*
G04 #@! TO.N,Net-(R3-Pad2)*
X143750000Y-78359000D03*
G04 #@! TO.P,U1,8*
G04 #@! TO.N,/VDD*
X143750000Y-77089000D03*
D24*
G04 #@! TO.P,U1,9*
G04 #@! TO.N,/VSS*
X141572500Y-79769000D03*
X141572500Y-78219000D03*
X140367500Y-79769000D03*
X140367500Y-78219000D03*
G04 #@! TD*
D25*
G04 #@! TO.P,U2,1*
G04 #@! TO.N,N/C*
X116102201Y-81685201D03*
G04 #@! TO.P,U2,2*
X116102201Y-84225201D03*
G04 #@! TO.P,U2,3*
X116102201Y-86765201D03*
G04 #@! TO.P,U2,4*
X116102201Y-89305201D03*
G04 #@! TO.P,U2,5*
G04 #@! TO.N,Net-(T1-Pad16)*
X116102201Y-91845201D03*
G04 #@! TO.P,U2,6*
G04 #@! TO.N,Net-(T1-Pad14)*
X116102201Y-94385201D03*
G04 #@! TO.P,U2,7*
G04 #@! TO.N,Net-(T1-Pad11)*
X116102201Y-96925201D03*
G04 #@! TO.P,U2,8*
G04 #@! TO.N,N/C*
X116102201Y-99465201D03*
G04 #@! TO.P,U2,9*
X116102201Y-102005201D03*
G04 #@! TO.P,U2,10*
G04 #@! TO.N,Net-(T1-Pad9)*
X116102201Y-104545201D03*
G04 #@! TO.P,U2,11*
G04 #@! TO.N,N/C*
X116102201Y-107085201D03*
G04 #@! TO.P,U2,12*
X116102201Y-109625201D03*
G04 #@! TO.P,U2,13*
G04 #@! TO.N,/12VDC*
X156542201Y-109675201D03*
G04 #@! TO.P,U2,14*
X156542201Y-107135201D03*
G04 #@! TO.P,U2,15*
G04 #@! TO.N,/-VREG*
X156502201Y-104595201D03*
G04 #@! TO.P,U2,16*
X156542201Y-102055201D03*
G04 #@! TO.P,U2,17*
G04 #@! TO.N,/3V3DC*
X156542201Y-89355201D03*
G04 #@! TO.P,U2,18*
X156542201Y-86815201D03*
G04 #@! TO.P,U2,19*
G04 #@! TO.N,/-VREG*
X156542201Y-84275201D03*
G04 #@! TO.P,U2,20*
X156542201Y-81735201D03*
G04 #@! TD*
D15*
G04 #@! TO.N,/VDD*
G04 #@! TO.C,C2*
G36*
X149366504Y-76668204D02*
X149390773Y-76671804D01*
X149414571Y-76677765D01*
X149437671Y-76686030D01*
X149459849Y-76696520D01*
X149480893Y-76709133D01*
X149500598Y-76723747D01*
X149518777Y-76740223D01*
X149535253Y-76758402D01*
X149549867Y-76778107D01*
X149562480Y-76799151D01*
X149572970Y-76821329D01*
X149581235Y-76844429D01*
X149587196Y-76868227D01*
X149590796Y-76892496D01*
X149592000Y-76917000D01*
X149592000Y-77842000D01*
X149590796Y-77866504D01*
X149587196Y-77890773D01*
X149581235Y-77914571D01*
X149572970Y-77937671D01*
X149562480Y-77959849D01*
X149549867Y-77980893D01*
X149535253Y-78000598D01*
X149518777Y-78018777D01*
X149500598Y-78035253D01*
X149480893Y-78049867D01*
X149459849Y-78062480D01*
X149437671Y-78072970D01*
X149414571Y-78081235D01*
X149390773Y-78087196D01*
X149366504Y-78090796D01*
X149342000Y-78092000D01*
X148092000Y-78092000D01*
X148067496Y-78090796D01*
X148043227Y-78087196D01*
X148019429Y-78081235D01*
X147996329Y-78072970D01*
X147974151Y-78062480D01*
X147953107Y-78049867D01*
X147933402Y-78035253D01*
X147915223Y-78018777D01*
X147898747Y-78000598D01*
X147884133Y-77980893D01*
X147871520Y-77959849D01*
X147861030Y-77937671D01*
X147852765Y-77914571D01*
X147846804Y-77890773D01*
X147843204Y-77866504D01*
X147842000Y-77842000D01*
X147842000Y-76917000D01*
X147843204Y-76892496D01*
X147846804Y-76868227D01*
X147852765Y-76844429D01*
X147861030Y-76821329D01*
X147871520Y-76799151D01*
X147884133Y-76778107D01*
X147898747Y-76758402D01*
X147915223Y-76740223D01*
X147933402Y-76723747D01*
X147953107Y-76709133D01*
X147974151Y-76696520D01*
X147996329Y-76686030D01*
X148019429Y-76677765D01*
X148043227Y-76671804D01*
X148067496Y-76668204D01*
X148092000Y-76667000D01*
X149342000Y-76667000D01*
X149366504Y-76668204D01*
X149366504Y-76668204D01*
G37*
D26*
G04 #@! TD*
G04 #@! TO.P,C2,1*
G04 #@! TO.N,/VDD*
X148717000Y-77379500D03*
D15*
G04 #@! TO.N,Net-(C2-Pad2)*
G04 #@! TO.C,C2*
G36*
X149366504Y-79643204D02*
X149390773Y-79646804D01*
X149414571Y-79652765D01*
X149437671Y-79661030D01*
X149459849Y-79671520D01*
X149480893Y-79684133D01*
X149500598Y-79698747D01*
X149518777Y-79715223D01*
X149535253Y-79733402D01*
X149549867Y-79753107D01*
X149562480Y-79774151D01*
X149572970Y-79796329D01*
X149581235Y-79819429D01*
X149587196Y-79843227D01*
X149590796Y-79867496D01*
X149592000Y-79892000D01*
X149592000Y-80817000D01*
X149590796Y-80841504D01*
X149587196Y-80865773D01*
X149581235Y-80889571D01*
X149572970Y-80912671D01*
X149562480Y-80934849D01*
X149549867Y-80955893D01*
X149535253Y-80975598D01*
X149518777Y-80993777D01*
X149500598Y-81010253D01*
X149480893Y-81024867D01*
X149459849Y-81037480D01*
X149437671Y-81047970D01*
X149414571Y-81056235D01*
X149390773Y-81062196D01*
X149366504Y-81065796D01*
X149342000Y-81067000D01*
X148092000Y-81067000D01*
X148067496Y-81065796D01*
X148043227Y-81062196D01*
X148019429Y-81056235D01*
X147996329Y-81047970D01*
X147974151Y-81037480D01*
X147953107Y-81024867D01*
X147933402Y-81010253D01*
X147915223Y-80993777D01*
X147898747Y-80975598D01*
X147884133Y-80955893D01*
X147871520Y-80934849D01*
X147861030Y-80912671D01*
X147852765Y-80889571D01*
X147846804Y-80865773D01*
X147843204Y-80841504D01*
X147842000Y-80817000D01*
X147842000Y-79892000D01*
X147843204Y-79867496D01*
X147846804Y-79843227D01*
X147852765Y-79819429D01*
X147861030Y-79796329D01*
X147871520Y-79774151D01*
X147884133Y-79753107D01*
X147898747Y-79733402D01*
X147915223Y-79715223D01*
X147933402Y-79698747D01*
X147953107Y-79684133D01*
X147974151Y-79671520D01*
X147996329Y-79661030D01*
X148019429Y-79652765D01*
X148043227Y-79646804D01*
X148067496Y-79643204D01*
X148092000Y-79642000D01*
X149342000Y-79642000D01*
X149366504Y-79643204D01*
X149366504Y-79643204D01*
G37*
D26*
G04 #@! TD*
G04 #@! TO.P,C2,2*
G04 #@! TO.N,Net-(C2-Pad2)*
X148717000Y-80354500D03*
D15*
G04 #@! TO.N,Net-(C3-Pad1)*
G04 #@! TO.C,C3*
G36*
X123864904Y-100764904D02*
X123889173Y-100768504D01*
X123912971Y-100774465D01*
X123936071Y-100782730D01*
X123958249Y-100793220D01*
X123979293Y-100805833D01*
X123998998Y-100820447D01*
X124017177Y-100836923D01*
X124033653Y-100855102D01*
X124048267Y-100874807D01*
X124060880Y-100895851D01*
X124071370Y-100918029D01*
X124079635Y-100941129D01*
X124085596Y-100964927D01*
X124089196Y-100989196D01*
X124090400Y-101013700D01*
X124090400Y-101938700D01*
X124089196Y-101963204D01*
X124085596Y-101987473D01*
X124079635Y-102011271D01*
X124071370Y-102034371D01*
X124060880Y-102056549D01*
X124048267Y-102077593D01*
X124033653Y-102097298D01*
X124017177Y-102115477D01*
X123998998Y-102131953D01*
X123979293Y-102146567D01*
X123958249Y-102159180D01*
X123936071Y-102169670D01*
X123912971Y-102177935D01*
X123889173Y-102183896D01*
X123864904Y-102187496D01*
X123840400Y-102188700D01*
X122590400Y-102188700D01*
X122565896Y-102187496D01*
X122541627Y-102183896D01*
X122517829Y-102177935D01*
X122494729Y-102169670D01*
X122472551Y-102159180D01*
X122451507Y-102146567D01*
X122431802Y-102131953D01*
X122413623Y-102115477D01*
X122397147Y-102097298D01*
X122382533Y-102077593D01*
X122369920Y-102056549D01*
X122359430Y-102034371D01*
X122351165Y-102011271D01*
X122345204Y-101987473D01*
X122341604Y-101963204D01*
X122340400Y-101938700D01*
X122340400Y-101013700D01*
X122341604Y-100989196D01*
X122345204Y-100964927D01*
X122351165Y-100941129D01*
X122359430Y-100918029D01*
X122369920Y-100895851D01*
X122382533Y-100874807D01*
X122397147Y-100855102D01*
X122413623Y-100836923D01*
X122431802Y-100820447D01*
X122451507Y-100805833D01*
X122472551Y-100793220D01*
X122494729Y-100782730D01*
X122517829Y-100774465D01*
X122541627Y-100768504D01*
X122565896Y-100764904D01*
X122590400Y-100763700D01*
X123840400Y-100763700D01*
X123864904Y-100764904D01*
X123864904Y-100764904D01*
G37*
D26*
G04 #@! TD*
G04 #@! TO.P,C3,1*
G04 #@! TO.N,Net-(C3-Pad1)*
X123215400Y-101476200D03*
D15*
G04 #@! TO.N,Net-(C2-Pad2)*
G04 #@! TO.C,C3*
G36*
X123864904Y-97789904D02*
X123889173Y-97793504D01*
X123912971Y-97799465D01*
X123936071Y-97807730D01*
X123958249Y-97818220D01*
X123979293Y-97830833D01*
X123998998Y-97845447D01*
X124017177Y-97861923D01*
X124033653Y-97880102D01*
X124048267Y-97899807D01*
X124060880Y-97920851D01*
X124071370Y-97943029D01*
X124079635Y-97966129D01*
X124085596Y-97989927D01*
X124089196Y-98014196D01*
X124090400Y-98038700D01*
X124090400Y-98963700D01*
X124089196Y-98988204D01*
X124085596Y-99012473D01*
X124079635Y-99036271D01*
X124071370Y-99059371D01*
X124060880Y-99081549D01*
X124048267Y-99102593D01*
X124033653Y-99122298D01*
X124017177Y-99140477D01*
X123998998Y-99156953D01*
X123979293Y-99171567D01*
X123958249Y-99184180D01*
X123936071Y-99194670D01*
X123912971Y-99202935D01*
X123889173Y-99208896D01*
X123864904Y-99212496D01*
X123840400Y-99213700D01*
X122590400Y-99213700D01*
X122565896Y-99212496D01*
X122541627Y-99208896D01*
X122517829Y-99202935D01*
X122494729Y-99194670D01*
X122472551Y-99184180D01*
X122451507Y-99171567D01*
X122431802Y-99156953D01*
X122413623Y-99140477D01*
X122397147Y-99122298D01*
X122382533Y-99102593D01*
X122369920Y-99081549D01*
X122359430Y-99059371D01*
X122351165Y-99036271D01*
X122345204Y-99012473D01*
X122341604Y-98988204D01*
X122340400Y-98963700D01*
X122340400Y-98038700D01*
X122341604Y-98014196D01*
X122345204Y-97989927D01*
X122351165Y-97966129D01*
X122359430Y-97943029D01*
X122369920Y-97920851D01*
X122382533Y-97899807D01*
X122397147Y-97880102D01*
X122413623Y-97861923D01*
X122431802Y-97845447D01*
X122451507Y-97830833D01*
X122472551Y-97818220D01*
X122494729Y-97807730D01*
X122517829Y-97799465D01*
X122541627Y-97793504D01*
X122565896Y-97789904D01*
X122590400Y-97788700D01*
X123840400Y-97788700D01*
X123864904Y-97789904D01*
X123864904Y-97789904D01*
G37*
D26*
G04 #@! TD*
G04 #@! TO.P,C3,2*
G04 #@! TO.N,Net-(C2-Pad2)*
X123215400Y-98501200D03*
D15*
G04 #@! TO.N,/-VREG*
G04 #@! TO.C,C4*
G36*
X153811504Y-104851104D02*
X153835773Y-104854704D01*
X153859571Y-104860665D01*
X153882671Y-104868930D01*
X153904849Y-104879420D01*
X153925893Y-104892033D01*
X153945598Y-104906647D01*
X153963777Y-104923123D01*
X153980253Y-104941302D01*
X153994867Y-104961007D01*
X154007480Y-104982051D01*
X154017970Y-105004229D01*
X154026235Y-105027329D01*
X154032196Y-105051127D01*
X154035796Y-105075396D01*
X154037000Y-105099900D01*
X154037000Y-106024900D01*
X154035796Y-106049404D01*
X154032196Y-106073673D01*
X154026235Y-106097471D01*
X154017970Y-106120571D01*
X154007480Y-106142749D01*
X153994867Y-106163793D01*
X153980253Y-106183498D01*
X153963777Y-106201677D01*
X153945598Y-106218153D01*
X153925893Y-106232767D01*
X153904849Y-106245380D01*
X153882671Y-106255870D01*
X153859571Y-106264135D01*
X153835773Y-106270096D01*
X153811504Y-106273696D01*
X153787000Y-106274900D01*
X152537000Y-106274900D01*
X152512496Y-106273696D01*
X152488227Y-106270096D01*
X152464429Y-106264135D01*
X152441329Y-106255870D01*
X152419151Y-106245380D01*
X152398107Y-106232767D01*
X152378402Y-106218153D01*
X152360223Y-106201677D01*
X152343747Y-106183498D01*
X152329133Y-106163793D01*
X152316520Y-106142749D01*
X152306030Y-106120571D01*
X152297765Y-106097471D01*
X152291804Y-106073673D01*
X152288204Y-106049404D01*
X152287000Y-106024900D01*
X152287000Y-105099900D01*
X152288204Y-105075396D01*
X152291804Y-105051127D01*
X152297765Y-105027329D01*
X152306030Y-105004229D01*
X152316520Y-104982051D01*
X152329133Y-104961007D01*
X152343747Y-104941302D01*
X152360223Y-104923123D01*
X152378402Y-104906647D01*
X152398107Y-104892033D01*
X152419151Y-104879420D01*
X152441329Y-104868930D01*
X152464429Y-104860665D01*
X152488227Y-104854704D01*
X152512496Y-104851104D01*
X152537000Y-104849900D01*
X153787000Y-104849900D01*
X153811504Y-104851104D01*
X153811504Y-104851104D01*
G37*
D26*
G04 #@! TD*
G04 #@! TO.P,C4,2*
G04 #@! TO.N,/-VREG*
X153162000Y-105562400D03*
D15*
G04 #@! TO.N,/VREG*
G04 #@! TO.C,C4*
G36*
X153811504Y-107826104D02*
X153835773Y-107829704D01*
X153859571Y-107835665D01*
X153882671Y-107843930D01*
X153904849Y-107854420D01*
X153925893Y-107867033D01*
X153945598Y-107881647D01*
X153963777Y-107898123D01*
X153980253Y-107916302D01*
X153994867Y-107936007D01*
X154007480Y-107957051D01*
X154017970Y-107979229D01*
X154026235Y-108002329D01*
X154032196Y-108026127D01*
X154035796Y-108050396D01*
X154037000Y-108074900D01*
X154037000Y-108999900D01*
X154035796Y-109024404D01*
X154032196Y-109048673D01*
X154026235Y-109072471D01*
X154017970Y-109095571D01*
X154007480Y-109117749D01*
X153994867Y-109138793D01*
X153980253Y-109158498D01*
X153963777Y-109176677D01*
X153945598Y-109193153D01*
X153925893Y-109207767D01*
X153904849Y-109220380D01*
X153882671Y-109230870D01*
X153859571Y-109239135D01*
X153835773Y-109245096D01*
X153811504Y-109248696D01*
X153787000Y-109249900D01*
X152537000Y-109249900D01*
X152512496Y-109248696D01*
X152488227Y-109245096D01*
X152464429Y-109239135D01*
X152441329Y-109230870D01*
X152419151Y-109220380D01*
X152398107Y-109207767D01*
X152378402Y-109193153D01*
X152360223Y-109176677D01*
X152343747Y-109158498D01*
X152329133Y-109138793D01*
X152316520Y-109117749D01*
X152306030Y-109095571D01*
X152297765Y-109072471D01*
X152291804Y-109048673D01*
X152288204Y-109024404D01*
X152287000Y-108999900D01*
X152287000Y-108074900D01*
X152288204Y-108050396D01*
X152291804Y-108026127D01*
X152297765Y-108002329D01*
X152306030Y-107979229D01*
X152316520Y-107957051D01*
X152329133Y-107936007D01*
X152343747Y-107916302D01*
X152360223Y-107898123D01*
X152378402Y-107881647D01*
X152398107Y-107867033D01*
X152419151Y-107854420D01*
X152441329Y-107843930D01*
X152464429Y-107835665D01*
X152488227Y-107829704D01*
X152512496Y-107826104D01*
X152537000Y-107824900D01*
X153787000Y-107824900D01*
X153811504Y-107826104D01*
X153811504Y-107826104D01*
G37*
D26*
G04 #@! TD*
G04 #@! TO.P,C4,1*
G04 #@! TO.N,/VREG*
X153162000Y-108537400D03*
D15*
G04 #@! TO.N,Net-(C3-Pad1)*
G04 #@! TO.C,C5*
G36*
X120972105Y-100442004D02*
X120996373Y-100445604D01*
X121020172Y-100451565D01*
X121043271Y-100459830D01*
X121065450Y-100470320D01*
X121086493Y-100482932D01*
X121106199Y-100497547D01*
X121124377Y-100514023D01*
X121140853Y-100532201D01*
X121155468Y-100551907D01*
X121168080Y-100572950D01*
X121178570Y-100595129D01*
X121186835Y-100618228D01*
X121192796Y-100642027D01*
X121196396Y-100666295D01*
X121197600Y-100690799D01*
X121197600Y-101340801D01*
X121196396Y-101365305D01*
X121192796Y-101389573D01*
X121186835Y-101413372D01*
X121178570Y-101436471D01*
X121168080Y-101458650D01*
X121155468Y-101479693D01*
X121140853Y-101499399D01*
X121124377Y-101517577D01*
X121106199Y-101534053D01*
X121086493Y-101548668D01*
X121065450Y-101561280D01*
X121043271Y-101571770D01*
X121020172Y-101580035D01*
X120996373Y-101585996D01*
X120972105Y-101589596D01*
X120947601Y-101590800D01*
X120047599Y-101590800D01*
X120023095Y-101589596D01*
X119998827Y-101585996D01*
X119975028Y-101580035D01*
X119951929Y-101571770D01*
X119929750Y-101561280D01*
X119908707Y-101548668D01*
X119889001Y-101534053D01*
X119870823Y-101517577D01*
X119854347Y-101499399D01*
X119839732Y-101479693D01*
X119827120Y-101458650D01*
X119816630Y-101436471D01*
X119808365Y-101413372D01*
X119802404Y-101389573D01*
X119798804Y-101365305D01*
X119797600Y-101340801D01*
X119797600Y-100690799D01*
X119798804Y-100666295D01*
X119802404Y-100642027D01*
X119808365Y-100618228D01*
X119816630Y-100595129D01*
X119827120Y-100572950D01*
X119839732Y-100551907D01*
X119854347Y-100532201D01*
X119870823Y-100514023D01*
X119889001Y-100497547D01*
X119908707Y-100482932D01*
X119929750Y-100470320D01*
X119951929Y-100459830D01*
X119975028Y-100451565D01*
X119998827Y-100445604D01*
X120023095Y-100442004D01*
X120047599Y-100440800D01*
X120947601Y-100440800D01*
X120972105Y-100442004D01*
X120972105Y-100442004D01*
G37*
D16*
G04 #@! TD*
G04 #@! TO.P,C5,1*
G04 #@! TO.N,Net-(C3-Pad1)*
X120497600Y-101015800D03*
D15*
G04 #@! TO.N,Net-(C2-Pad2)*
G04 #@! TO.C,C5*
G36*
X120972105Y-98392004D02*
X120996373Y-98395604D01*
X121020172Y-98401565D01*
X121043271Y-98409830D01*
X121065450Y-98420320D01*
X121086493Y-98432932D01*
X121106199Y-98447547D01*
X121124377Y-98464023D01*
X121140853Y-98482201D01*
X121155468Y-98501907D01*
X121168080Y-98522950D01*
X121178570Y-98545129D01*
X121186835Y-98568228D01*
X121192796Y-98592027D01*
X121196396Y-98616295D01*
X121197600Y-98640799D01*
X121197600Y-99290801D01*
X121196396Y-99315305D01*
X121192796Y-99339573D01*
X121186835Y-99363372D01*
X121178570Y-99386471D01*
X121168080Y-99408650D01*
X121155468Y-99429693D01*
X121140853Y-99449399D01*
X121124377Y-99467577D01*
X121106199Y-99484053D01*
X121086493Y-99498668D01*
X121065450Y-99511280D01*
X121043271Y-99521770D01*
X121020172Y-99530035D01*
X120996373Y-99535996D01*
X120972105Y-99539596D01*
X120947601Y-99540800D01*
X120047599Y-99540800D01*
X120023095Y-99539596D01*
X119998827Y-99535996D01*
X119975028Y-99530035D01*
X119951929Y-99521770D01*
X119929750Y-99511280D01*
X119908707Y-99498668D01*
X119889001Y-99484053D01*
X119870823Y-99467577D01*
X119854347Y-99449399D01*
X119839732Y-99429693D01*
X119827120Y-99408650D01*
X119816630Y-99386471D01*
X119808365Y-99363372D01*
X119802404Y-99339573D01*
X119798804Y-99315305D01*
X119797600Y-99290801D01*
X119797600Y-98640799D01*
X119798804Y-98616295D01*
X119802404Y-98592027D01*
X119808365Y-98568228D01*
X119816630Y-98545129D01*
X119827120Y-98522950D01*
X119839732Y-98501907D01*
X119854347Y-98482201D01*
X119870823Y-98464023D01*
X119889001Y-98447547D01*
X119908707Y-98432932D01*
X119929750Y-98420320D01*
X119951929Y-98409830D01*
X119975028Y-98401565D01*
X119998827Y-98395604D01*
X120023095Y-98392004D01*
X120047599Y-98390800D01*
X120947601Y-98390800D01*
X120972105Y-98392004D01*
X120972105Y-98392004D01*
G37*
D16*
G04 #@! TD*
G04 #@! TO.P,C5,2*
G04 #@! TO.N,Net-(C2-Pad2)*
X120497600Y-98965800D03*
D15*
G04 #@! TO.N,Net-(F1-Pad1)*
G04 #@! TO.C,F1*
G36*
X119856505Y-105524004D02*
X119880773Y-105527604D01*
X119904572Y-105533565D01*
X119927671Y-105541830D01*
X119949850Y-105552320D01*
X119970893Y-105564932D01*
X119990599Y-105579547D01*
X120008777Y-105596023D01*
X120025253Y-105614201D01*
X120039868Y-105633907D01*
X120052480Y-105654950D01*
X120062970Y-105677129D01*
X120071235Y-105700228D01*
X120077196Y-105724027D01*
X120080796Y-105748295D01*
X120082000Y-105772799D01*
X120082000Y-106672801D01*
X120080796Y-106697305D01*
X120077196Y-106721573D01*
X120071235Y-106745372D01*
X120062970Y-106768471D01*
X120052480Y-106790650D01*
X120039868Y-106811693D01*
X120025253Y-106831399D01*
X120008777Y-106849577D01*
X119990599Y-106866053D01*
X119970893Y-106880668D01*
X119949850Y-106893280D01*
X119927671Y-106903770D01*
X119904572Y-106912035D01*
X119880773Y-106917996D01*
X119856505Y-106921596D01*
X119832001Y-106922800D01*
X119181999Y-106922800D01*
X119157495Y-106921596D01*
X119133227Y-106917996D01*
X119109428Y-106912035D01*
X119086329Y-106903770D01*
X119064150Y-106893280D01*
X119043107Y-106880668D01*
X119023401Y-106866053D01*
X119005223Y-106849577D01*
X118988747Y-106831399D01*
X118974132Y-106811693D01*
X118961520Y-106790650D01*
X118951030Y-106768471D01*
X118942765Y-106745372D01*
X118936804Y-106721573D01*
X118933204Y-106697305D01*
X118932000Y-106672801D01*
X118932000Y-105772799D01*
X118933204Y-105748295D01*
X118936804Y-105724027D01*
X118942765Y-105700228D01*
X118951030Y-105677129D01*
X118961520Y-105654950D01*
X118974132Y-105633907D01*
X118988747Y-105614201D01*
X119005223Y-105596023D01*
X119023401Y-105579547D01*
X119043107Y-105564932D01*
X119064150Y-105552320D01*
X119086329Y-105541830D01*
X119109428Y-105533565D01*
X119133227Y-105527604D01*
X119157495Y-105524004D01*
X119181999Y-105522800D01*
X119832001Y-105522800D01*
X119856505Y-105524004D01*
X119856505Y-105524004D01*
G37*
D16*
G04 #@! TD*
G04 #@! TO.P,F1,1*
G04 #@! TO.N,Net-(F1-Pad1)*
X119507000Y-106222800D03*
D15*
G04 #@! TO.N,/VDD*
G04 #@! TO.C,F1*
G36*
X121906505Y-105524004D02*
X121930773Y-105527604D01*
X121954572Y-105533565D01*
X121977671Y-105541830D01*
X121999850Y-105552320D01*
X122020893Y-105564932D01*
X122040599Y-105579547D01*
X122058777Y-105596023D01*
X122075253Y-105614201D01*
X122089868Y-105633907D01*
X122102480Y-105654950D01*
X122112970Y-105677129D01*
X122121235Y-105700228D01*
X122127196Y-105724027D01*
X122130796Y-105748295D01*
X122132000Y-105772799D01*
X122132000Y-106672801D01*
X122130796Y-106697305D01*
X122127196Y-106721573D01*
X122121235Y-106745372D01*
X122112970Y-106768471D01*
X122102480Y-106790650D01*
X122089868Y-106811693D01*
X122075253Y-106831399D01*
X122058777Y-106849577D01*
X122040599Y-106866053D01*
X122020893Y-106880668D01*
X121999850Y-106893280D01*
X121977671Y-106903770D01*
X121954572Y-106912035D01*
X121930773Y-106917996D01*
X121906505Y-106921596D01*
X121882001Y-106922800D01*
X121231999Y-106922800D01*
X121207495Y-106921596D01*
X121183227Y-106917996D01*
X121159428Y-106912035D01*
X121136329Y-106903770D01*
X121114150Y-106893280D01*
X121093107Y-106880668D01*
X121073401Y-106866053D01*
X121055223Y-106849577D01*
X121038747Y-106831399D01*
X121024132Y-106811693D01*
X121011520Y-106790650D01*
X121001030Y-106768471D01*
X120992765Y-106745372D01*
X120986804Y-106721573D01*
X120983204Y-106697305D01*
X120982000Y-106672801D01*
X120982000Y-105772799D01*
X120983204Y-105748295D01*
X120986804Y-105724027D01*
X120992765Y-105700228D01*
X121001030Y-105677129D01*
X121011520Y-105654950D01*
X121024132Y-105633907D01*
X121038747Y-105614201D01*
X121055223Y-105596023D01*
X121073401Y-105579547D01*
X121093107Y-105564932D01*
X121114150Y-105552320D01*
X121136329Y-105541830D01*
X121159428Y-105533565D01*
X121183227Y-105527604D01*
X121207495Y-105524004D01*
X121231999Y-105522800D01*
X121882001Y-105522800D01*
X121906505Y-105524004D01*
X121906505Y-105524004D01*
G37*
D16*
G04 #@! TD*
G04 #@! TO.P,F1,2*
G04 #@! TO.N,/VDD*
X121557000Y-106222800D03*
D15*
G04 #@! TO.N,Net-(F1-Pad1)*
G04 #@! TO.C,L1*
G36*
X119847505Y-103390404D02*
X119871773Y-103394004D01*
X119895572Y-103399965D01*
X119918671Y-103408230D01*
X119940850Y-103418720D01*
X119961893Y-103431332D01*
X119981599Y-103445947D01*
X119999777Y-103462423D01*
X120016253Y-103480601D01*
X120030868Y-103500307D01*
X120043480Y-103521350D01*
X120053970Y-103543529D01*
X120062235Y-103566628D01*
X120068196Y-103590427D01*
X120071796Y-103614695D01*
X120073000Y-103639199D01*
X120073000Y-104539201D01*
X120071796Y-104563705D01*
X120068196Y-104587973D01*
X120062235Y-104611772D01*
X120053970Y-104634871D01*
X120043480Y-104657050D01*
X120030868Y-104678093D01*
X120016253Y-104697799D01*
X119999777Y-104715977D01*
X119981599Y-104732453D01*
X119961893Y-104747068D01*
X119940850Y-104759680D01*
X119918671Y-104770170D01*
X119895572Y-104778435D01*
X119871773Y-104784396D01*
X119847505Y-104787996D01*
X119823001Y-104789200D01*
X119172999Y-104789200D01*
X119148495Y-104787996D01*
X119124227Y-104784396D01*
X119100428Y-104778435D01*
X119077329Y-104770170D01*
X119055150Y-104759680D01*
X119034107Y-104747068D01*
X119014401Y-104732453D01*
X118996223Y-104715977D01*
X118979747Y-104697799D01*
X118965132Y-104678093D01*
X118952520Y-104657050D01*
X118942030Y-104634871D01*
X118933765Y-104611772D01*
X118927804Y-104587973D01*
X118924204Y-104563705D01*
X118923000Y-104539201D01*
X118923000Y-103639199D01*
X118924204Y-103614695D01*
X118927804Y-103590427D01*
X118933765Y-103566628D01*
X118942030Y-103543529D01*
X118952520Y-103521350D01*
X118965132Y-103500307D01*
X118979747Y-103480601D01*
X118996223Y-103462423D01*
X119014401Y-103445947D01*
X119034107Y-103431332D01*
X119055150Y-103418720D01*
X119077329Y-103408230D01*
X119100428Y-103399965D01*
X119124227Y-103394004D01*
X119148495Y-103390404D01*
X119172999Y-103389200D01*
X119823001Y-103389200D01*
X119847505Y-103390404D01*
X119847505Y-103390404D01*
G37*
D16*
G04 #@! TD*
G04 #@! TO.P,L1,1*
G04 #@! TO.N,Net-(F1-Pad1)*
X119498000Y-104089200D03*
D15*
G04 #@! TO.N,Net-(C3-Pad1)*
G04 #@! TO.C,L1*
G36*
X121897505Y-103390404D02*
X121921773Y-103394004D01*
X121945572Y-103399965D01*
X121968671Y-103408230D01*
X121990850Y-103418720D01*
X122011893Y-103431332D01*
X122031599Y-103445947D01*
X122049777Y-103462423D01*
X122066253Y-103480601D01*
X122080868Y-103500307D01*
X122093480Y-103521350D01*
X122103970Y-103543529D01*
X122112235Y-103566628D01*
X122118196Y-103590427D01*
X122121796Y-103614695D01*
X122123000Y-103639199D01*
X122123000Y-104539201D01*
X122121796Y-104563705D01*
X122118196Y-104587973D01*
X122112235Y-104611772D01*
X122103970Y-104634871D01*
X122093480Y-104657050D01*
X122080868Y-104678093D01*
X122066253Y-104697799D01*
X122049777Y-104715977D01*
X122031599Y-104732453D01*
X122011893Y-104747068D01*
X121990850Y-104759680D01*
X121968671Y-104770170D01*
X121945572Y-104778435D01*
X121921773Y-104784396D01*
X121897505Y-104787996D01*
X121873001Y-104789200D01*
X121222999Y-104789200D01*
X121198495Y-104787996D01*
X121174227Y-104784396D01*
X121150428Y-104778435D01*
X121127329Y-104770170D01*
X121105150Y-104759680D01*
X121084107Y-104747068D01*
X121064401Y-104732453D01*
X121046223Y-104715977D01*
X121029747Y-104697799D01*
X121015132Y-104678093D01*
X121002520Y-104657050D01*
X120992030Y-104634871D01*
X120983765Y-104611772D01*
X120977804Y-104587973D01*
X120974204Y-104563705D01*
X120973000Y-104539201D01*
X120973000Y-103639199D01*
X120974204Y-103614695D01*
X120977804Y-103590427D01*
X120983765Y-103566628D01*
X120992030Y-103543529D01*
X121002520Y-103521350D01*
X121015132Y-103500307D01*
X121029747Y-103480601D01*
X121046223Y-103462423D01*
X121064401Y-103445947D01*
X121084107Y-103431332D01*
X121105150Y-103418720D01*
X121127329Y-103408230D01*
X121150428Y-103399965D01*
X121174227Y-103394004D01*
X121198495Y-103390404D01*
X121222999Y-103389200D01*
X121873001Y-103389200D01*
X121897505Y-103390404D01*
X121897505Y-103390404D01*
G37*
D16*
G04 #@! TD*
G04 #@! TO.P,L1,2*
G04 #@! TO.N,Net-(C3-Pad1)*
X121548000Y-104089200D03*
D27*
G04 #@! TO.N,/VDD*
X121666000Y-77368400D03*
X121767600Y-79044800D03*
X121513600Y-83362800D03*
X121513600Y-85293200D03*
X121564400Y-87172800D03*
X121666000Y-81127600D03*
X150418800Y-74930000D03*
X148793200Y-74930000D03*
X148742400Y-73355200D03*
X150469600Y-73355200D03*
X157480000Y-76047600D03*
X123190000Y-105029000D03*
X125044200Y-105054400D03*
X123215400Y-106629200D03*
X125095000Y-106680000D03*
X124053600Y-93802200D03*
X125882400Y-93802200D03*
G04 #@! TO.N,/VSS*
X137363200Y-82804000D03*
X139090400Y-82854800D03*
X140716000Y-82854800D03*
X137363200Y-84175600D03*
X139039600Y-84175600D03*
X140716000Y-84226400D03*
X136093200Y-83413600D03*
X126238000Y-83159600D03*
X127609600Y-83159600D03*
X126238000Y-84378800D03*
X127609600Y-84429600D03*
G04 #@! TO.N,Net-(D2-Pad4)*
X112268000Y-82804000D03*
X114554000Y-79756000D03*
G04 #@! TO.N,/VREG*
X152349200Y-110286800D03*
X154330400Y-110337600D03*
X152349200Y-111607600D03*
X154330400Y-111556800D03*
X153365200Y-110947200D03*
G04 #@! TO.N,Net-(R3-Pad2)*
X144018000Y-73406000D03*
X145796000Y-78359000D03*
G04 #@! TO.N,Net-(R5-Pad1)*
X145923000Y-79629000D03*
X133477000Y-84328000D03*
G04 #@! TO.N,Net-(T1-Pad9)*
X109728000Y-83312000D03*
G04 #@! TO.N,Net-(T1-Pad11)*
X110490000Y-84328000D03*
G04 #@! TO.N,Net-(T1-Pad14)*
X109728000Y-85127000D03*
G04 #@! TO.N,Net-(T1-Pad16)*
X110744000Y-85852000D03*
G04 #@! TD*
D28*
G04 #@! TO.N,/VDD*
X123891000Y-81248000D02*
X123796000Y-81153000D01*
X124641000Y-81248000D02*
X123891000Y-81248000D01*
X123796000Y-81153000D02*
X122301000Y-81153000D01*
X155022000Y-76063000D02*
X157464600Y-76063000D01*
X157464600Y-76063000D02*
X157480000Y-76047600D01*
D29*
G04 #@! TO.N,Net-(C2-Pad2)*
X120962200Y-98501200D02*
X120497600Y-98965800D01*
X123215400Y-98501200D02*
X120962200Y-98501200D01*
X128625600Y-98195800D02*
X128625600Y-96570800D01*
X128320200Y-98501200D02*
X128625600Y-98195800D01*
X123215400Y-98501200D02*
X128320200Y-98501200D01*
D28*
G04 #@! TO.N,Net-(D2-Pad4)*
X101346000Y-89916000D02*
X101346000Y-89395300D01*
X112268000Y-85401002D02*
X112268000Y-82804000D01*
X111092001Y-86577001D02*
X112268000Y-85401002D01*
X101346000Y-89395300D02*
X104164299Y-86577001D01*
X104164299Y-86577001D02*
X111092001Y-86577001D01*
X117941000Y-81248000D02*
X118691000Y-81248000D01*
X114554000Y-79756000D02*
X116449000Y-79756000D01*
X116449000Y-79756000D02*
X117941000Y-81248000D01*
G04 #@! TO.N,Net-(D2-Pad3)*
X114776000Y-77248000D02*
X118691000Y-77248000D01*
X113538000Y-78486000D02*
X114776000Y-77248000D01*
X113538000Y-84767412D02*
X113538000Y-78486000D01*
X111278402Y-87027010D02*
X113538000Y-84767412D01*
X110064289Y-87027011D02*
X111278402Y-87027010D01*
X107696000Y-89395300D02*
X110064289Y-87027011D01*
X107696000Y-89916000D02*
X107696000Y-89395300D01*
G04 #@! TO.N,Net-(D3-Pad3)*
X107696000Y-96266000D02*
X108966000Y-94996000D01*
X107696000Y-97536000D02*
X107696000Y-96266000D01*
X109715999Y-94246001D02*
X108966000Y-94996000D01*
X109715999Y-90690001D02*
X109715999Y-94246001D01*
X114935000Y-85471000D02*
X109715999Y-90690001D01*
X117221000Y-85471000D02*
X114935000Y-85471000D01*
X118691000Y-83344000D02*
X118691000Y-84001000D01*
X118691000Y-84001000D02*
X117221000Y-85471000D01*
G04 #@! TO.N,Net-(D3-Pad4)*
X103886000Y-96266000D02*
X105156000Y-97536000D01*
X103886000Y-94996000D02*
X103886000Y-96266000D01*
X105156000Y-97536000D02*
X106680000Y-99060000D01*
X107763002Y-99060000D02*
X112776000Y-94047002D01*
X106680000Y-99060000D02*
X107763002Y-99060000D01*
X112776000Y-94047002D02*
X112776000Y-90678000D01*
X117941000Y-87344000D02*
X118691000Y-87344000D01*
X112776000Y-90678000D02*
X115443000Y-88011000D01*
X117274000Y-88011000D02*
X117602000Y-87683000D01*
X115443000Y-88011000D02*
X117274000Y-88011000D01*
X117432798Y-87852202D02*
X117602000Y-87683000D01*
X117602000Y-87683000D02*
X117941000Y-87344000D01*
G04 #@! TO.N,Net-(J1-Pad1)*
X100076000Y-96536000D02*
X100076000Y-89916000D01*
X100076000Y-97536000D02*
X100076000Y-96536000D01*
G04 #@! TO.N,Net-(J1-Pad2)*
X102616000Y-93726000D02*
X102616000Y-89916000D01*
X101346000Y-94996000D02*
X102616000Y-93726000D01*
G04 #@! TO.N,Net-(J1-Pad3)*
X102616000Y-96475340D02*
X102616000Y-97536000D01*
X102616000Y-94362410D02*
X102616000Y-96475340D01*
X106426000Y-90552410D02*
X102616000Y-94362410D01*
X106426000Y-89916000D02*
X106426000Y-90552410D01*
G04 #@! TO.N,Net-(J1-Pad6)*
X108966000Y-92456000D02*
X106426000Y-94996000D01*
X108966000Y-89916000D02*
X108966000Y-92456000D01*
G04 #@! TO.N,Net-(R1-Pad1)*
X137913000Y-76812000D02*
X138190000Y-77089000D01*
X137913000Y-74930000D02*
X137913000Y-76812000D01*
G04 #@! TO.N,Net-(R2-Pad1)*
X138063000Y-78486000D02*
X138190000Y-78359000D01*
X134874000Y-78486000D02*
X138063000Y-78486000D01*
G04 #@! TO.N,Net-(R3-Pad2)*
X144027000Y-74930000D02*
X144027000Y-73415000D01*
X144027000Y-73415000D02*
X144018000Y-73406000D01*
X144009000Y-73397000D02*
X144018000Y-73406000D01*
X144009000Y-71882000D02*
X144009000Y-73397000D01*
X145796000Y-78359000D02*
X143750000Y-78359000D01*
G04 #@! TO.N,Net-(R5-Pad2)*
X129522000Y-88882000D02*
X129540000Y-88900000D01*
X129522000Y-84328000D02*
X129522000Y-88882000D01*
X129522000Y-88054400D02*
X128625600Y-88950800D01*
X129522000Y-84328000D02*
X129522000Y-88054400D01*
G04 #@! TO.N,Net-(R5-Pad1)*
X143750000Y-79629000D02*
X145923000Y-79629000D01*
X133477000Y-84328000D02*
X131572000Y-84328000D01*
G04 #@! TO.N,Net-(T1-Pad9)*
X108966000Y-81280000D02*
X108966000Y-82550000D01*
X108966000Y-82550000D02*
X109728000Y-83312000D01*
G04 #@! TO.N,Net-(T1-Pad11)*
X108953300Y-84328000D02*
X110490000Y-84328000D01*
X106426000Y-81280000D02*
X106426000Y-81800700D01*
X106426000Y-81800700D02*
X108953300Y-84328000D01*
G04 #@! TO.N,Net-(T1-Pad14)*
X102616000Y-81280000D02*
X102616000Y-83312000D01*
X102616000Y-83312000D02*
X104431000Y-85127000D01*
X104431000Y-85127000D02*
X109728000Y-85127000D01*
G04 #@! TO.N,Net-(T1-Pad16)*
X100076000Y-81280000D02*
X100076000Y-83312000D01*
X100076000Y-83312000D02*
X101346000Y-84582000D01*
X101346000Y-84582000D02*
X102616000Y-85852000D01*
X102616000Y-85852000D02*
X110744000Y-85852000D01*
D29*
G04 #@! TO.N,Net-(C3-Pad1)*
X123215400Y-101476200D02*
X123215400Y-101092000D01*
X122755000Y-101015800D02*
X123215400Y-101476200D01*
X120497600Y-101015800D02*
X122755000Y-101015800D01*
X128451000Y-101476200D02*
X128625600Y-101650800D01*
X123215400Y-101476200D02*
X128451000Y-101476200D01*
X123215400Y-102421800D02*
X121548000Y-104089200D01*
X123215400Y-101476200D02*
X123215400Y-102421800D01*
G04 #@! TO.N,Net-(F1-Pad1)*
X119498000Y-106213800D02*
X119507000Y-106222800D01*
X119498000Y-104089200D02*
X119498000Y-106213800D01*
G04 #@! TD*
D30*
G04 #@! TO.N,/VDD*
G36*
X158846283Y-69645538D02*
X159314694Y-69714652D01*
X159712808Y-69881951D01*
X160056810Y-70143001D01*
X160138875Y-70246517D01*
X160120684Y-71932275D01*
X160019765Y-71864843D01*
X159772000Y-71815560D01*
X156972000Y-71815560D01*
X156724235Y-71864843D01*
X156514191Y-72005191D01*
X156373843Y-72215235D01*
X156324560Y-72463000D01*
X156324560Y-73279000D01*
X152781000Y-73279000D01*
X152581380Y-73311193D01*
X152365890Y-73433470D01*
X152213598Y-73628904D01*
X150199378Y-77637628D01*
X150068250Y-77506500D01*
X148844000Y-77506500D01*
X148844000Y-77526500D01*
X148590000Y-77526500D01*
X148590000Y-77506500D01*
X147365750Y-77506500D01*
X147207000Y-77665250D01*
X147207000Y-78218309D01*
X147303673Y-78451698D01*
X147354146Y-78502172D01*
X147255782Y-78515475D01*
X146790616Y-78662369D01*
X146831000Y-78564874D01*
X146831000Y-78153126D01*
X146673431Y-77772720D01*
X146382280Y-77481569D01*
X146001874Y-77324000D01*
X145590126Y-77324000D01*
X145340000Y-77427605D01*
X145340000Y-77374750D01*
X145181250Y-77216000D01*
X143877000Y-77216000D01*
X143877000Y-77236000D01*
X143623000Y-77236000D01*
X143623000Y-77216000D01*
X143603000Y-77216000D01*
X143603000Y-76962000D01*
X143623000Y-76962000D01*
X143623000Y-76942000D01*
X143877000Y-76942000D01*
X143877000Y-76962000D01*
X145181250Y-76962000D01*
X145340000Y-76803250D01*
X145340000Y-76657690D01*
X145291538Y-76540691D01*
X147207000Y-76540691D01*
X147207000Y-77093750D01*
X147365750Y-77252500D01*
X148590000Y-77252500D01*
X148590000Y-76190750D01*
X148844000Y-76190750D01*
X148844000Y-77252500D01*
X150068250Y-77252500D01*
X150227000Y-77093750D01*
X150227000Y-76540691D01*
X150130327Y-76307302D01*
X149951699Y-76128673D01*
X149718310Y-76032000D01*
X149002750Y-76032000D01*
X148844000Y-76190750D01*
X148590000Y-76190750D01*
X148431250Y-76032000D01*
X147715690Y-76032000D01*
X147482301Y-76128673D01*
X147303673Y-76307302D01*
X147207000Y-76540691D01*
X145291538Y-76540691D01*
X145243327Y-76424301D01*
X145064698Y-76245673D01*
X144831309Y-76149000D01*
X144785422Y-76149000D01*
X144986586Y-76014586D01*
X145181127Y-75723436D01*
X145249440Y-75380001D01*
X145249440Y-74479999D01*
X145181127Y-74136564D01*
X144986586Y-73845414D01*
X144962838Y-73829546D01*
X145053000Y-73611874D01*
X145053000Y-73200126D01*
X144958936Y-72973034D01*
X144968586Y-72966586D01*
X144969377Y-72965403D01*
X145124302Y-73120327D01*
X145357691Y-73217000D01*
X145773250Y-73217000D01*
X145932000Y-73058250D01*
X145932000Y-72009000D01*
X146186000Y-72009000D01*
X146186000Y-73058250D01*
X146344750Y-73217000D01*
X146760309Y-73217000D01*
X146993698Y-73120327D01*
X147172327Y-72941699D01*
X147269000Y-72708310D01*
X147269000Y-72167750D01*
X147110250Y-72009000D01*
X146186000Y-72009000D01*
X145932000Y-72009000D01*
X145912000Y-72009000D01*
X145912000Y-71755000D01*
X145932000Y-71755000D01*
X145932000Y-70705750D01*
X146186000Y-70705750D01*
X146186000Y-71755000D01*
X147110250Y-71755000D01*
X147269000Y-71596250D01*
X147269000Y-71055690D01*
X147172327Y-70822301D01*
X146993698Y-70643673D01*
X146760309Y-70547000D01*
X146344750Y-70547000D01*
X146186000Y-70705750D01*
X145932000Y-70705750D01*
X145773250Y-70547000D01*
X145357691Y-70547000D01*
X145124302Y-70643673D01*
X144969377Y-70798597D01*
X144968586Y-70797414D01*
X144677436Y-70602873D01*
X144334001Y-70534560D01*
X143683999Y-70534560D01*
X143340564Y-70602873D01*
X143049414Y-70797414D01*
X142854873Y-71088564D01*
X142786560Y-71431999D01*
X142786560Y-71762670D01*
X142748000Y-71755000D01*
X139192000Y-71755000D01*
X138958489Y-71799494D01*
X138750287Y-71933804D01*
X138609332Y-72137567D01*
X138557083Y-72379759D01*
X138536725Y-73641979D01*
X138238001Y-73582560D01*
X137587999Y-73582560D01*
X137244564Y-73650873D01*
X136953414Y-73845414D01*
X136758873Y-74136564D01*
X136690560Y-74479999D01*
X136690560Y-75380001D01*
X136758873Y-75723436D01*
X136953414Y-76014586D01*
X137153001Y-76147946D01*
X137153001Y-76152871D01*
X136987235Y-76185843D01*
X136777191Y-76326191D01*
X136636843Y-76536235D01*
X136587560Y-76784000D01*
X136587560Y-77394000D01*
X136636843Y-77641765D01*
X136691791Y-77724000D01*
X136690455Y-77726000D01*
X136091946Y-77726000D01*
X135958586Y-77526414D01*
X135667436Y-77331873D01*
X135324001Y-77263560D01*
X134423999Y-77263560D01*
X134080564Y-77331873D01*
X133789414Y-77526414D01*
X133594873Y-77817564D01*
X133542000Y-78083376D01*
X133542000Y-77766691D01*
X133445327Y-77533302D01*
X133266699Y-77354673D01*
X133033310Y-77258000D01*
X132492750Y-77258000D01*
X132334000Y-77416750D01*
X132334000Y-78341000D01*
X132354000Y-78341000D01*
X132354000Y-78595000D01*
X132334000Y-78595000D01*
X132334000Y-78615000D01*
X132080000Y-78615000D01*
X132080000Y-78595000D01*
X131030750Y-78595000D01*
X130872000Y-78753750D01*
X130872000Y-78994000D01*
X129769673Y-78994000D01*
X129713765Y-78956643D01*
X129466000Y-78907360D01*
X127836000Y-78907360D01*
X127588235Y-78956643D01*
X127532327Y-78994000D01*
X126746000Y-78994000D01*
X126746000Y-77216350D01*
X127201000Y-77216350D01*
X127201000Y-78147110D01*
X127297673Y-78380499D01*
X127476302Y-78559127D01*
X127709691Y-78655800D01*
X128365250Y-78655800D01*
X128524000Y-78497050D01*
X128524000Y-77057600D01*
X128778000Y-77057600D01*
X128778000Y-78497050D01*
X128936750Y-78655800D01*
X129592309Y-78655800D01*
X129825698Y-78559127D01*
X130004327Y-78380499D01*
X130101000Y-78147110D01*
X130101000Y-77766691D01*
X130872000Y-77766691D01*
X130872000Y-78182250D01*
X131030750Y-78341000D01*
X132080000Y-78341000D01*
X132080000Y-77416750D01*
X131921250Y-77258000D01*
X131380690Y-77258000D01*
X131147301Y-77354673D01*
X130968673Y-77533302D01*
X130872000Y-77766691D01*
X130101000Y-77766691D01*
X130101000Y-77216350D01*
X129942250Y-77057600D01*
X128778000Y-77057600D01*
X128524000Y-77057600D01*
X127359750Y-77057600D01*
X127201000Y-77216350D01*
X126746000Y-77216350D01*
X126746000Y-76581000D01*
X126697664Y-76337996D01*
X126560013Y-76131987D01*
X126354004Y-75994336D01*
X126111000Y-75946000D01*
X123063000Y-75946000D01*
X122819996Y-75994336D01*
X122613987Y-76131987D01*
X122476336Y-76337996D01*
X122428000Y-76581000D01*
X122428000Y-85344000D01*
X122477927Y-85590808D01*
X122616912Y-85795919D01*
X122823811Y-85932229D01*
X123067123Y-85978987D01*
X128762000Y-85942007D01*
X128762001Y-87190800D01*
X128275514Y-87190800D01*
X127628640Y-87458744D01*
X127133544Y-87953840D01*
X126865600Y-88600714D01*
X126865600Y-89300886D01*
X127133544Y-89947760D01*
X127628640Y-90442856D01*
X128275514Y-90710800D01*
X128975686Y-90710800D01*
X129622560Y-90442856D01*
X130117656Y-89947760D01*
X130385600Y-89300886D01*
X130385600Y-88600714D01*
X130282000Y-88350601D01*
X130282000Y-88129248D01*
X130296888Y-88054401D01*
X130282000Y-87979554D01*
X130282000Y-85932137D01*
X140602477Y-85865121D01*
X129913360Y-93153155D01*
X121409072Y-96071787D01*
X121160745Y-96228896D01*
X121025617Y-96436568D01*
X120980247Y-96680143D01*
X120991522Y-97604695D01*
X120962200Y-97598863D01*
X120875039Y-97616200D01*
X120875035Y-97616200D01*
X120616890Y-97667548D01*
X120503430Y-97743360D01*
X120047599Y-97743360D01*
X119704164Y-97811673D01*
X119413014Y-98006214D01*
X119218473Y-98297364D01*
X119150160Y-98640799D01*
X119150160Y-99290801D01*
X119218473Y-99634236D01*
X119413014Y-99925386D01*
X119510913Y-99990800D01*
X119413014Y-100056214D01*
X119218473Y-100347364D01*
X119150160Y-100690799D01*
X119150160Y-101340801D01*
X119218473Y-101684236D01*
X119413014Y-101975386D01*
X119704164Y-102169927D01*
X120047599Y-102238240D01*
X120947601Y-102238240D01*
X121047786Y-102218312D01*
X121054578Y-102775261D01*
X120879564Y-102810073D01*
X120588414Y-103004614D01*
X120523000Y-103102513D01*
X120457586Y-103004614D01*
X120166436Y-102810073D01*
X119823001Y-102741760D01*
X119172999Y-102741760D01*
X118829564Y-102810073D01*
X118538414Y-103004614D01*
X118343873Y-103295764D01*
X118275560Y-103639199D01*
X118275560Y-104539201D01*
X118343873Y-104882636D01*
X118531030Y-105162735D01*
X118352873Y-105429364D01*
X118284560Y-105772799D01*
X118284560Y-106672801D01*
X118352873Y-107016236D01*
X118547414Y-107307386D01*
X118838564Y-107501927D01*
X119181999Y-107570240D01*
X119832001Y-107570240D01*
X120175436Y-107501927D01*
X120466586Y-107307386D01*
X120467377Y-107306203D01*
X120622302Y-107461127D01*
X120855691Y-107557800D01*
X121271250Y-107557800D01*
X121430000Y-107399050D01*
X121430000Y-106349800D01*
X121684000Y-106349800D01*
X121684000Y-107399050D01*
X121842750Y-107557800D01*
X122258309Y-107557800D01*
X122491698Y-107461127D01*
X122670327Y-107282499D01*
X122767000Y-107049110D01*
X122767000Y-106508550D01*
X122608250Y-106349800D01*
X121684000Y-106349800D01*
X121430000Y-106349800D01*
X121410000Y-106349800D01*
X121410000Y-106095800D01*
X121430000Y-106095800D01*
X121430000Y-106075800D01*
X121684000Y-106075800D01*
X121684000Y-106095800D01*
X122608250Y-106095800D01*
X122767000Y-105937050D01*
X122767000Y-105396490D01*
X122670327Y-105163101D01*
X122577051Y-105069825D01*
X122702127Y-104882636D01*
X122770440Y-104539201D01*
X122770440Y-104118338D01*
X123370369Y-103518410D01*
X128270727Y-103408817D01*
X128275514Y-103410800D01*
X128975686Y-103410800D01*
X129020981Y-103392038D01*
X129655798Y-103377841D01*
X129867098Y-103336612D01*
X130077098Y-103205132D01*
X146368618Y-87852532D01*
X147074876Y-87270051D01*
X146941999Y-87463106D01*
X146888352Y-87704993D01*
X146634352Y-99300093D01*
X146648119Y-99446224D01*
X146745996Y-99673836D01*
X151077886Y-105972430D01*
X146772957Y-105892709D01*
X146562198Y-105924588D01*
X146346583Y-106046645D01*
X146194091Y-106241922D01*
X146127935Y-106480691D01*
X145924735Y-109223891D01*
X145926884Y-109340924D01*
X146185525Y-111668694D01*
X97510294Y-111433358D01*
X97487328Y-111423707D01*
X97143221Y-111162577D01*
X96901000Y-110857043D01*
X96901000Y-105127259D01*
X96911259Y-105152026D01*
X97539974Y-105780741D01*
X98361431Y-106121000D01*
X99250569Y-106121000D01*
X100072026Y-105780741D01*
X100700741Y-105152026D01*
X101041000Y-104330569D01*
X101041000Y-103441431D01*
X108001000Y-103441431D01*
X108001000Y-104330569D01*
X108341259Y-105152026D01*
X108969974Y-105780741D01*
X109791431Y-106121000D01*
X110680569Y-106121000D01*
X111502026Y-105780741D01*
X112130741Y-105152026D01*
X112471000Y-104330569D01*
X112471000Y-103441431D01*
X112130741Y-102619974D01*
X111502026Y-101991259D01*
X110680569Y-101651000D01*
X109791431Y-101651000D01*
X108969974Y-101991259D01*
X108341259Y-102619974D01*
X108001000Y-103441431D01*
X101041000Y-103441431D01*
X100700741Y-102619974D01*
X100072026Y-101991259D01*
X99250569Y-101651000D01*
X98361431Y-101651000D01*
X97539974Y-101991259D01*
X96911259Y-102619974D01*
X96901000Y-102644741D01*
X96901000Y-96786000D01*
X98678560Y-96786000D01*
X98678560Y-98286000D01*
X98727843Y-98533765D01*
X98868191Y-98743809D01*
X99078235Y-98884157D01*
X99326000Y-98933440D01*
X100826000Y-98933440D01*
X101073765Y-98884157D01*
X101283809Y-98743809D01*
X101424157Y-98533765D01*
X101462469Y-98341156D01*
X101831460Y-98710147D01*
X102340506Y-98921000D01*
X102891494Y-98921000D01*
X103400540Y-98710147D01*
X103790147Y-98320540D01*
X103886000Y-98089130D01*
X103981853Y-98320540D01*
X104371460Y-98710147D01*
X104880506Y-98921000D01*
X105431494Y-98921000D01*
X105456033Y-98910835D01*
X106089673Y-99544476D01*
X106132071Y-99607929D01*
X106195524Y-99650327D01*
X106195526Y-99650329D01*
X106320902Y-99734102D01*
X106383463Y-99775904D01*
X106605148Y-99820000D01*
X106605152Y-99820000D01*
X106679999Y-99834888D01*
X106754846Y-99820000D01*
X107688155Y-99820000D01*
X107763002Y-99834888D01*
X107837849Y-99820000D01*
X107837854Y-99820000D01*
X108059539Y-99775904D01*
X108310931Y-99607929D01*
X108353333Y-99544470D01*
X113260473Y-94637331D01*
X113323929Y-94594931D01*
X113426179Y-94441904D01*
X113491904Y-94343540D01*
X113506172Y-94271809D01*
X113536000Y-94121854D01*
X113536000Y-94121850D01*
X113550888Y-94047002D01*
X113536000Y-93972154D01*
X113536000Y-90992801D01*
X114775647Y-89753154D01*
X114917881Y-90096538D01*
X115310864Y-90489521D01*
X115517714Y-90575201D01*
X115310864Y-90660881D01*
X114917881Y-91053864D01*
X114705201Y-91567320D01*
X114705201Y-92123082D01*
X114917881Y-92636538D01*
X115310864Y-93029521D01*
X115517714Y-93115201D01*
X115310864Y-93200881D01*
X114917881Y-93593864D01*
X114705201Y-94107320D01*
X114705201Y-94663082D01*
X114917881Y-95176538D01*
X115310864Y-95569521D01*
X115517714Y-95655201D01*
X115310864Y-95740881D01*
X114917881Y-96133864D01*
X114705201Y-96647320D01*
X114705201Y-97203082D01*
X114917881Y-97716538D01*
X115310864Y-98109521D01*
X115517714Y-98195201D01*
X115310864Y-98280881D01*
X114917881Y-98673864D01*
X114705201Y-99187320D01*
X114705201Y-99743082D01*
X114917881Y-100256538D01*
X115310864Y-100649521D01*
X115517714Y-100735201D01*
X115310864Y-100820881D01*
X114917881Y-101213864D01*
X114705201Y-101727320D01*
X114705201Y-102283082D01*
X114917881Y-102796538D01*
X115310864Y-103189521D01*
X115517714Y-103275201D01*
X115310864Y-103360881D01*
X114917881Y-103753864D01*
X114705201Y-104267320D01*
X114705201Y-104823082D01*
X114917881Y-105336538D01*
X115310864Y-105729521D01*
X115517714Y-105815201D01*
X115310864Y-105900881D01*
X114917881Y-106293864D01*
X114705201Y-106807320D01*
X114705201Y-107363082D01*
X114917881Y-107876538D01*
X115310864Y-108269521D01*
X115517714Y-108355201D01*
X115310864Y-108440881D01*
X114917881Y-108833864D01*
X114705201Y-109347320D01*
X114705201Y-109903082D01*
X114917881Y-110416538D01*
X115310864Y-110809521D01*
X115824320Y-111022201D01*
X116380082Y-111022201D01*
X116893538Y-110809521D01*
X117286521Y-110416538D01*
X117499201Y-109903082D01*
X117499201Y-109347320D01*
X117286521Y-108833864D01*
X116893538Y-108440881D01*
X116686688Y-108355201D01*
X116893538Y-108269521D01*
X117286521Y-107876538D01*
X117499201Y-107363082D01*
X117499201Y-106807320D01*
X117286521Y-106293864D01*
X116893538Y-105900881D01*
X116686688Y-105815201D01*
X116893538Y-105729521D01*
X117286521Y-105336538D01*
X117499201Y-104823082D01*
X117499201Y-104267320D01*
X117286521Y-103753864D01*
X116893538Y-103360881D01*
X116686688Y-103275201D01*
X116893538Y-103189521D01*
X117286521Y-102796538D01*
X117499201Y-102283082D01*
X117499201Y-101727320D01*
X117286521Y-101213864D01*
X116893538Y-100820881D01*
X116686688Y-100735201D01*
X116893538Y-100649521D01*
X117286521Y-100256538D01*
X117499201Y-99743082D01*
X117499201Y-99187320D01*
X117286521Y-98673864D01*
X116893538Y-98280881D01*
X116686688Y-98195201D01*
X116893538Y-98109521D01*
X117286521Y-97716538D01*
X117499201Y-97203082D01*
X117499201Y-96647320D01*
X117286521Y-96133864D01*
X116893538Y-95740881D01*
X116686688Y-95655201D01*
X116893538Y-95569521D01*
X117286521Y-95176538D01*
X117499201Y-94663082D01*
X117499201Y-94107320D01*
X117286521Y-93593864D01*
X116893538Y-93200881D01*
X116686688Y-93115201D01*
X116893538Y-93029521D01*
X117286521Y-92636538D01*
X117499201Y-92123082D01*
X117499201Y-91567320D01*
X117286521Y-91053864D01*
X116893538Y-90660881D01*
X116686688Y-90575201D01*
X116893538Y-90489521D01*
X117286521Y-90096538D01*
X117499201Y-89583082D01*
X117499201Y-89027320D01*
X117389667Y-88762881D01*
X117570537Y-88726904D01*
X117821929Y-88558929D01*
X117864331Y-88495470D01*
X118047003Y-88312798D01*
X118191000Y-88341440D01*
X119191000Y-88341440D01*
X119438765Y-88292157D01*
X119648809Y-88151809D01*
X119789157Y-87941765D01*
X119838440Y-87694000D01*
X119838440Y-87629750D01*
X123506000Y-87629750D01*
X123506000Y-87820310D01*
X123602673Y-88053699D01*
X123781302Y-88232327D01*
X124014691Y-88329000D01*
X124355250Y-88329000D01*
X124514000Y-88170250D01*
X124514000Y-87471000D01*
X124768000Y-87471000D01*
X124768000Y-88170250D01*
X124926750Y-88329000D01*
X125267309Y-88329000D01*
X125500698Y-88232327D01*
X125679327Y-88053699D01*
X125776000Y-87820310D01*
X125776000Y-87629750D01*
X125617250Y-87471000D01*
X124768000Y-87471000D01*
X124514000Y-87471000D01*
X123664750Y-87471000D01*
X123506000Y-87629750D01*
X119838440Y-87629750D01*
X119838440Y-86994000D01*
X119813316Y-86867690D01*
X123506000Y-86867690D01*
X123506000Y-87058250D01*
X123664750Y-87217000D01*
X124514000Y-87217000D01*
X124514000Y-86517750D01*
X124768000Y-86517750D01*
X124768000Y-87217000D01*
X125617250Y-87217000D01*
X125776000Y-87058250D01*
X125776000Y-86867690D01*
X125679327Y-86634301D01*
X125500698Y-86455673D01*
X125267309Y-86359000D01*
X124926750Y-86359000D01*
X124768000Y-86517750D01*
X124514000Y-86517750D01*
X124355250Y-86359000D01*
X124014691Y-86359000D01*
X123781302Y-86455673D01*
X123602673Y-86634301D01*
X123506000Y-86867690D01*
X119813316Y-86867690D01*
X119789157Y-86746235D01*
X119648809Y-86536191D01*
X119438765Y-86395843D01*
X119191000Y-86346560D01*
X118191000Y-86346560D01*
X117943235Y-86395843D01*
X117733191Y-86536191D01*
X117675969Y-86621829D01*
X117644463Y-86628096D01*
X117499201Y-86725157D01*
X117499201Y-86487320D01*
X117385633Y-86213141D01*
X117517537Y-86186904D01*
X117768929Y-86018929D01*
X117811331Y-85955470D01*
X119175473Y-84591329D01*
X119238929Y-84548929D01*
X119406166Y-84298641D01*
X119438765Y-84292157D01*
X119648809Y-84151809D01*
X119789157Y-83941765D01*
X119838440Y-83694000D01*
X119838440Y-82994000D01*
X119789157Y-82746235D01*
X119648809Y-82536191D01*
X119438765Y-82395843D01*
X119191000Y-82346560D01*
X118191000Y-82346560D01*
X117943235Y-82395843D01*
X117733191Y-82536191D01*
X117592843Y-82746235D01*
X117543560Y-82994000D01*
X117543560Y-83694000D01*
X117592843Y-83941765D01*
X117625924Y-83991274D01*
X117499201Y-84117997D01*
X117499201Y-83947320D01*
X117286521Y-83433864D01*
X116893538Y-83040881D01*
X116686688Y-82955201D01*
X116893538Y-82869521D01*
X117286521Y-82476538D01*
X117499201Y-81963082D01*
X117499201Y-81866843D01*
X117644463Y-81963904D01*
X117675969Y-81970171D01*
X117733191Y-82055809D01*
X117943235Y-82196157D01*
X118191000Y-82245440D01*
X119191000Y-82245440D01*
X119438765Y-82196157D01*
X119648809Y-82055809D01*
X119789157Y-81845765D01*
X119838440Y-81598000D01*
X119838440Y-80898000D01*
X119789157Y-80650235D01*
X119648809Y-80440191D01*
X119438765Y-80299843D01*
X119191000Y-80250560D01*
X118191000Y-80250560D01*
X118047004Y-80279202D01*
X117039331Y-79271530D01*
X116996929Y-79208071D01*
X116745537Y-79040096D01*
X116523852Y-78996000D01*
X116523847Y-78996000D01*
X116449000Y-78981112D01*
X116374153Y-78996000D01*
X115257711Y-78996000D01*
X115140280Y-78878569D01*
X114759874Y-78721000D01*
X114377802Y-78721000D01*
X115090803Y-78008000D01*
X117701246Y-78008000D01*
X117733191Y-78055809D01*
X117943235Y-78196157D01*
X118191000Y-78245440D01*
X119191000Y-78245440D01*
X119438765Y-78196157D01*
X119648809Y-78055809D01*
X119789157Y-77845765D01*
X119838440Y-77598000D01*
X119838440Y-76898000D01*
X119789157Y-76650235D01*
X119648809Y-76440191D01*
X119438765Y-76299843D01*
X119191000Y-76250560D01*
X118191000Y-76250560D01*
X117943235Y-76299843D01*
X117733191Y-76440191D01*
X117701246Y-76488000D01*
X114850846Y-76488000D01*
X114775999Y-76473112D01*
X114701152Y-76488000D01*
X114701148Y-76488000D01*
X114479463Y-76532096D01*
X114479461Y-76532097D01*
X114479462Y-76532097D01*
X114291526Y-76657671D01*
X114291524Y-76657673D01*
X114228071Y-76700071D01*
X114185673Y-76763524D01*
X113053528Y-77895671D01*
X112990072Y-77938071D01*
X112947672Y-78001527D01*
X112947671Y-78001528D01*
X112822097Y-78189463D01*
X112763112Y-78486000D01*
X112778001Y-78560852D01*
X112778000Y-81894973D01*
X112473874Y-81769000D01*
X112062126Y-81769000D01*
X111681720Y-81926569D01*
X111390569Y-82217720D01*
X111233000Y-82598126D01*
X111233000Y-83009874D01*
X111390569Y-83390280D01*
X111508001Y-83507712D01*
X111508001Y-84081086D01*
X111367431Y-83741720D01*
X111076280Y-83450569D01*
X110763000Y-83320804D01*
X110763000Y-83106126D01*
X110605431Y-82725720D01*
X110314280Y-82434569D01*
X109933874Y-82277000D01*
X109853675Y-82277000D01*
X109892840Y-82080100D01*
X109892840Y-80479900D01*
X109843557Y-80232135D01*
X109703209Y-80022091D01*
X109493165Y-79881743D01*
X109245400Y-79832460D01*
X108686600Y-79832460D01*
X108438835Y-79881743D01*
X108331000Y-79953797D01*
X108223165Y-79881743D01*
X107975400Y-79832460D01*
X107416600Y-79832460D01*
X107168835Y-79881743D01*
X107061000Y-79953797D01*
X106953165Y-79881743D01*
X106705400Y-79832460D01*
X106146600Y-79832460D01*
X105898835Y-79881743D01*
X105791000Y-79953797D01*
X105683165Y-79881743D01*
X105435400Y-79832460D01*
X104876600Y-79832460D01*
X104628835Y-79881743D01*
X104521000Y-79953797D01*
X104413165Y-79881743D01*
X104165400Y-79832460D01*
X103606600Y-79832460D01*
X103358835Y-79881743D01*
X103251000Y-79953797D01*
X103143165Y-79881743D01*
X102895400Y-79832460D01*
X102336600Y-79832460D01*
X102088835Y-79881743D01*
X101981000Y-79953797D01*
X101873165Y-79881743D01*
X101625400Y-79832460D01*
X101066600Y-79832460D01*
X100818835Y-79881743D01*
X100711000Y-79953797D01*
X100603165Y-79881743D01*
X100355400Y-79832460D01*
X99796600Y-79832460D01*
X99548835Y-79881743D01*
X99338791Y-80022091D01*
X99198443Y-80232135D01*
X99149160Y-80479900D01*
X99149160Y-82080100D01*
X99198443Y-82327865D01*
X99316001Y-82503801D01*
X99316001Y-83237148D01*
X99301112Y-83312000D01*
X99360097Y-83608537D01*
X99483031Y-83792520D01*
X99528072Y-83859929D01*
X99591528Y-83902329D01*
X100861527Y-85172329D01*
X100861530Y-85172331D01*
X102025671Y-86336473D01*
X102068071Y-86399929D01*
X102319463Y-86567904D01*
X102541148Y-86612000D01*
X102541152Y-86612000D01*
X102615999Y-86626888D01*
X102690846Y-86612000D01*
X103054498Y-86612000D01*
X101198039Y-88468460D01*
X101066600Y-88468460D01*
X100818835Y-88517743D01*
X100711000Y-88589797D01*
X100603165Y-88517743D01*
X100355400Y-88468460D01*
X99796600Y-88468460D01*
X99548835Y-88517743D01*
X99338791Y-88658091D01*
X99198443Y-88868135D01*
X99149160Y-89115900D01*
X99149160Y-90716100D01*
X99198443Y-90963865D01*
X99316001Y-91139801D01*
X99316000Y-96140549D01*
X99078235Y-96187843D01*
X98868191Y-96328191D01*
X98727843Y-96538235D01*
X98678560Y-96786000D01*
X96901000Y-96786000D01*
X96901000Y-80357993D01*
X113845264Y-75714090D01*
X127201000Y-75714090D01*
X127201000Y-76644850D01*
X127359750Y-76803600D01*
X128524000Y-76803600D01*
X128524000Y-75364150D01*
X128778000Y-75364150D01*
X128778000Y-76803600D01*
X129942250Y-76803600D01*
X130101000Y-76644850D01*
X130101000Y-75714090D01*
X130004327Y-75480701D01*
X129825698Y-75302073D01*
X129592309Y-75205400D01*
X128936750Y-75205400D01*
X128778000Y-75364150D01*
X128524000Y-75364150D01*
X128365250Y-75205400D01*
X127709691Y-75205400D01*
X127476302Y-75302073D01*
X127297673Y-75480701D01*
X127201000Y-75714090D01*
X113845264Y-75714090D01*
X135933637Y-69660345D01*
X150763760Y-69636617D01*
X158846283Y-69645538D01*
X158846283Y-69645538D01*
G37*
X158846283Y-69645538D02*
X159314694Y-69714652D01*
X159712808Y-69881951D01*
X160056810Y-70143001D01*
X160138875Y-70246517D01*
X160120684Y-71932275D01*
X160019765Y-71864843D01*
X159772000Y-71815560D01*
X156972000Y-71815560D01*
X156724235Y-71864843D01*
X156514191Y-72005191D01*
X156373843Y-72215235D01*
X156324560Y-72463000D01*
X156324560Y-73279000D01*
X152781000Y-73279000D01*
X152581380Y-73311193D01*
X152365890Y-73433470D01*
X152213598Y-73628904D01*
X150199378Y-77637628D01*
X150068250Y-77506500D01*
X148844000Y-77506500D01*
X148844000Y-77526500D01*
X148590000Y-77526500D01*
X148590000Y-77506500D01*
X147365750Y-77506500D01*
X147207000Y-77665250D01*
X147207000Y-78218309D01*
X147303673Y-78451698D01*
X147354146Y-78502172D01*
X147255782Y-78515475D01*
X146790616Y-78662369D01*
X146831000Y-78564874D01*
X146831000Y-78153126D01*
X146673431Y-77772720D01*
X146382280Y-77481569D01*
X146001874Y-77324000D01*
X145590126Y-77324000D01*
X145340000Y-77427605D01*
X145340000Y-77374750D01*
X145181250Y-77216000D01*
X143877000Y-77216000D01*
X143877000Y-77236000D01*
X143623000Y-77236000D01*
X143623000Y-77216000D01*
X143603000Y-77216000D01*
X143603000Y-76962000D01*
X143623000Y-76962000D01*
X143623000Y-76942000D01*
X143877000Y-76942000D01*
X143877000Y-76962000D01*
X145181250Y-76962000D01*
X145340000Y-76803250D01*
X145340000Y-76657690D01*
X145291538Y-76540691D01*
X147207000Y-76540691D01*
X147207000Y-77093750D01*
X147365750Y-77252500D01*
X148590000Y-77252500D01*
X148590000Y-76190750D01*
X148844000Y-76190750D01*
X148844000Y-77252500D01*
X150068250Y-77252500D01*
X150227000Y-77093750D01*
X150227000Y-76540691D01*
X150130327Y-76307302D01*
X149951699Y-76128673D01*
X149718310Y-76032000D01*
X149002750Y-76032000D01*
X148844000Y-76190750D01*
X148590000Y-76190750D01*
X148431250Y-76032000D01*
X147715690Y-76032000D01*
X147482301Y-76128673D01*
X147303673Y-76307302D01*
X147207000Y-76540691D01*
X145291538Y-76540691D01*
X145243327Y-76424301D01*
X145064698Y-76245673D01*
X144831309Y-76149000D01*
X144785422Y-76149000D01*
X144986586Y-76014586D01*
X145181127Y-75723436D01*
X145249440Y-75380001D01*
X145249440Y-74479999D01*
X145181127Y-74136564D01*
X144986586Y-73845414D01*
X144962838Y-73829546D01*
X145053000Y-73611874D01*
X145053000Y-73200126D01*
X144958936Y-72973034D01*
X144968586Y-72966586D01*
X144969377Y-72965403D01*
X145124302Y-73120327D01*
X145357691Y-73217000D01*
X145773250Y-73217000D01*
X145932000Y-73058250D01*
X145932000Y-72009000D01*
X146186000Y-72009000D01*
X146186000Y-73058250D01*
X146344750Y-73217000D01*
X146760309Y-73217000D01*
X146993698Y-73120327D01*
X147172327Y-72941699D01*
X147269000Y-72708310D01*
X147269000Y-72167750D01*
X147110250Y-72009000D01*
X146186000Y-72009000D01*
X145932000Y-72009000D01*
X145912000Y-72009000D01*
X145912000Y-71755000D01*
X145932000Y-71755000D01*
X145932000Y-70705750D01*
X146186000Y-70705750D01*
X146186000Y-71755000D01*
X147110250Y-71755000D01*
X147269000Y-71596250D01*
X147269000Y-71055690D01*
X147172327Y-70822301D01*
X146993698Y-70643673D01*
X146760309Y-70547000D01*
X146344750Y-70547000D01*
X146186000Y-70705750D01*
X145932000Y-70705750D01*
X145773250Y-70547000D01*
X145357691Y-70547000D01*
X145124302Y-70643673D01*
X144969377Y-70798597D01*
X144968586Y-70797414D01*
X144677436Y-70602873D01*
X144334001Y-70534560D01*
X143683999Y-70534560D01*
X143340564Y-70602873D01*
X143049414Y-70797414D01*
X142854873Y-71088564D01*
X142786560Y-71431999D01*
X142786560Y-71762670D01*
X142748000Y-71755000D01*
X139192000Y-71755000D01*
X138958489Y-71799494D01*
X138750287Y-71933804D01*
X138609332Y-72137567D01*
X138557083Y-72379759D01*
X138536725Y-73641979D01*
X138238001Y-73582560D01*
X137587999Y-73582560D01*
X137244564Y-73650873D01*
X136953414Y-73845414D01*
X136758873Y-74136564D01*
X136690560Y-74479999D01*
X136690560Y-75380001D01*
X136758873Y-75723436D01*
X136953414Y-76014586D01*
X137153001Y-76147946D01*
X137153001Y-76152871D01*
X136987235Y-76185843D01*
X136777191Y-76326191D01*
X136636843Y-76536235D01*
X136587560Y-76784000D01*
X136587560Y-77394000D01*
X136636843Y-77641765D01*
X136691791Y-77724000D01*
X136690455Y-77726000D01*
X136091946Y-77726000D01*
X135958586Y-77526414D01*
X135667436Y-77331873D01*
X135324001Y-77263560D01*
X134423999Y-77263560D01*
X134080564Y-77331873D01*
X133789414Y-77526414D01*
X133594873Y-77817564D01*
X133542000Y-78083376D01*
X133542000Y-77766691D01*
X133445327Y-77533302D01*
X133266699Y-77354673D01*
X133033310Y-77258000D01*
X132492750Y-77258000D01*
X132334000Y-77416750D01*
X132334000Y-78341000D01*
X132354000Y-78341000D01*
X132354000Y-78595000D01*
X132334000Y-78595000D01*
X132334000Y-78615000D01*
X132080000Y-78615000D01*
X132080000Y-78595000D01*
X131030750Y-78595000D01*
X130872000Y-78753750D01*
X130872000Y-78994000D01*
X129769673Y-78994000D01*
X129713765Y-78956643D01*
X129466000Y-78907360D01*
X127836000Y-78907360D01*
X127588235Y-78956643D01*
X127532327Y-78994000D01*
X126746000Y-78994000D01*
X126746000Y-77216350D01*
X127201000Y-77216350D01*
X127201000Y-78147110D01*
X127297673Y-78380499D01*
X127476302Y-78559127D01*
X127709691Y-78655800D01*
X128365250Y-78655800D01*
X128524000Y-78497050D01*
X128524000Y-77057600D01*
X128778000Y-77057600D01*
X128778000Y-78497050D01*
X128936750Y-78655800D01*
X129592309Y-78655800D01*
X129825698Y-78559127D01*
X130004327Y-78380499D01*
X130101000Y-78147110D01*
X130101000Y-77766691D01*
X130872000Y-77766691D01*
X130872000Y-78182250D01*
X131030750Y-78341000D01*
X132080000Y-78341000D01*
X132080000Y-77416750D01*
X131921250Y-77258000D01*
X131380690Y-77258000D01*
X131147301Y-77354673D01*
X130968673Y-77533302D01*
X130872000Y-77766691D01*
X130101000Y-77766691D01*
X130101000Y-77216350D01*
X129942250Y-77057600D01*
X128778000Y-77057600D01*
X128524000Y-77057600D01*
X127359750Y-77057600D01*
X127201000Y-77216350D01*
X126746000Y-77216350D01*
X126746000Y-76581000D01*
X126697664Y-76337996D01*
X126560013Y-76131987D01*
X126354004Y-75994336D01*
X126111000Y-75946000D01*
X123063000Y-75946000D01*
X122819996Y-75994336D01*
X122613987Y-76131987D01*
X122476336Y-76337996D01*
X122428000Y-76581000D01*
X122428000Y-85344000D01*
X122477927Y-85590808D01*
X122616912Y-85795919D01*
X122823811Y-85932229D01*
X123067123Y-85978987D01*
X128762000Y-85942007D01*
X128762001Y-87190800D01*
X128275514Y-87190800D01*
X127628640Y-87458744D01*
X127133544Y-87953840D01*
X126865600Y-88600714D01*
X126865600Y-89300886D01*
X127133544Y-89947760D01*
X127628640Y-90442856D01*
X128275514Y-90710800D01*
X128975686Y-90710800D01*
X129622560Y-90442856D01*
X130117656Y-89947760D01*
X130385600Y-89300886D01*
X130385600Y-88600714D01*
X130282000Y-88350601D01*
X130282000Y-88129248D01*
X130296888Y-88054401D01*
X130282000Y-87979554D01*
X130282000Y-85932137D01*
X140602477Y-85865121D01*
X129913360Y-93153155D01*
X121409072Y-96071787D01*
X121160745Y-96228896D01*
X121025617Y-96436568D01*
X120980247Y-96680143D01*
X120991522Y-97604695D01*
X120962200Y-97598863D01*
X120875039Y-97616200D01*
X120875035Y-97616200D01*
X120616890Y-97667548D01*
X120503430Y-97743360D01*
X120047599Y-97743360D01*
X119704164Y-97811673D01*
X119413014Y-98006214D01*
X119218473Y-98297364D01*
X119150160Y-98640799D01*
X119150160Y-99290801D01*
X119218473Y-99634236D01*
X119413014Y-99925386D01*
X119510913Y-99990800D01*
X119413014Y-100056214D01*
X119218473Y-100347364D01*
X119150160Y-100690799D01*
X119150160Y-101340801D01*
X119218473Y-101684236D01*
X119413014Y-101975386D01*
X119704164Y-102169927D01*
X120047599Y-102238240D01*
X120947601Y-102238240D01*
X121047786Y-102218312D01*
X121054578Y-102775261D01*
X120879564Y-102810073D01*
X120588414Y-103004614D01*
X120523000Y-103102513D01*
X120457586Y-103004614D01*
X120166436Y-102810073D01*
X119823001Y-102741760D01*
X119172999Y-102741760D01*
X118829564Y-102810073D01*
X118538414Y-103004614D01*
X118343873Y-103295764D01*
X118275560Y-103639199D01*
X118275560Y-104539201D01*
X118343873Y-104882636D01*
X118531030Y-105162735D01*
X118352873Y-105429364D01*
X118284560Y-105772799D01*
X118284560Y-106672801D01*
X118352873Y-107016236D01*
X118547414Y-107307386D01*
X118838564Y-107501927D01*
X119181999Y-107570240D01*
X119832001Y-107570240D01*
X120175436Y-107501927D01*
X120466586Y-107307386D01*
X120467377Y-107306203D01*
X120622302Y-107461127D01*
X120855691Y-107557800D01*
X121271250Y-107557800D01*
X121430000Y-107399050D01*
X121430000Y-106349800D01*
X121684000Y-106349800D01*
X121684000Y-107399050D01*
X121842750Y-107557800D01*
X122258309Y-107557800D01*
X122491698Y-107461127D01*
X122670327Y-107282499D01*
X122767000Y-107049110D01*
X122767000Y-106508550D01*
X122608250Y-106349800D01*
X121684000Y-106349800D01*
X121430000Y-106349800D01*
X121410000Y-106349800D01*
X121410000Y-106095800D01*
X121430000Y-106095800D01*
X121430000Y-106075800D01*
X121684000Y-106075800D01*
X121684000Y-106095800D01*
X122608250Y-106095800D01*
X122767000Y-105937050D01*
X122767000Y-105396490D01*
X122670327Y-105163101D01*
X122577051Y-105069825D01*
X122702127Y-104882636D01*
X122770440Y-104539201D01*
X122770440Y-104118338D01*
X123370369Y-103518410D01*
X128270727Y-103408817D01*
X128275514Y-103410800D01*
X128975686Y-103410800D01*
X129020981Y-103392038D01*
X129655798Y-103377841D01*
X129867098Y-103336612D01*
X130077098Y-103205132D01*
X146368618Y-87852532D01*
X147074876Y-87270051D01*
X146941999Y-87463106D01*
X146888352Y-87704993D01*
X146634352Y-99300093D01*
X146648119Y-99446224D01*
X146745996Y-99673836D01*
X151077886Y-105972430D01*
X146772957Y-105892709D01*
X146562198Y-105924588D01*
X146346583Y-106046645D01*
X146194091Y-106241922D01*
X146127935Y-106480691D01*
X145924735Y-109223891D01*
X145926884Y-109340924D01*
X146185525Y-111668694D01*
X97510294Y-111433358D01*
X97487328Y-111423707D01*
X97143221Y-111162577D01*
X96901000Y-110857043D01*
X96901000Y-105127259D01*
X96911259Y-105152026D01*
X97539974Y-105780741D01*
X98361431Y-106121000D01*
X99250569Y-106121000D01*
X100072026Y-105780741D01*
X100700741Y-105152026D01*
X101041000Y-104330569D01*
X101041000Y-103441431D01*
X108001000Y-103441431D01*
X108001000Y-104330569D01*
X108341259Y-105152026D01*
X108969974Y-105780741D01*
X109791431Y-106121000D01*
X110680569Y-106121000D01*
X111502026Y-105780741D01*
X112130741Y-105152026D01*
X112471000Y-104330569D01*
X112471000Y-103441431D01*
X112130741Y-102619974D01*
X111502026Y-101991259D01*
X110680569Y-101651000D01*
X109791431Y-101651000D01*
X108969974Y-101991259D01*
X108341259Y-102619974D01*
X108001000Y-103441431D01*
X101041000Y-103441431D01*
X100700741Y-102619974D01*
X100072026Y-101991259D01*
X99250569Y-101651000D01*
X98361431Y-101651000D01*
X97539974Y-101991259D01*
X96911259Y-102619974D01*
X96901000Y-102644741D01*
X96901000Y-96786000D01*
X98678560Y-96786000D01*
X98678560Y-98286000D01*
X98727843Y-98533765D01*
X98868191Y-98743809D01*
X99078235Y-98884157D01*
X99326000Y-98933440D01*
X100826000Y-98933440D01*
X101073765Y-98884157D01*
X101283809Y-98743809D01*
X101424157Y-98533765D01*
X101462469Y-98341156D01*
X101831460Y-98710147D01*
X102340506Y-98921000D01*
X102891494Y-98921000D01*
X103400540Y-98710147D01*
X103790147Y-98320540D01*
X103886000Y-98089130D01*
X103981853Y-98320540D01*
X104371460Y-98710147D01*
X104880506Y-98921000D01*
X105431494Y-98921000D01*
X105456033Y-98910835D01*
X106089673Y-99544476D01*
X106132071Y-99607929D01*
X106195524Y-99650327D01*
X106195526Y-99650329D01*
X106320902Y-99734102D01*
X106383463Y-99775904D01*
X106605148Y-99820000D01*
X106605152Y-99820000D01*
X106679999Y-99834888D01*
X106754846Y-99820000D01*
X107688155Y-99820000D01*
X107763002Y-99834888D01*
X107837849Y-99820000D01*
X107837854Y-99820000D01*
X108059539Y-99775904D01*
X108310931Y-99607929D01*
X108353333Y-99544470D01*
X113260473Y-94637331D01*
X113323929Y-94594931D01*
X113426179Y-94441904D01*
X113491904Y-94343540D01*
X113506172Y-94271809D01*
X113536000Y-94121854D01*
X113536000Y-94121850D01*
X113550888Y-94047002D01*
X113536000Y-93972154D01*
X113536000Y-90992801D01*
X114775647Y-89753154D01*
X114917881Y-90096538D01*
X115310864Y-90489521D01*
X115517714Y-90575201D01*
X115310864Y-90660881D01*
X114917881Y-91053864D01*
X114705201Y-91567320D01*
X114705201Y-92123082D01*
X114917881Y-92636538D01*
X115310864Y-93029521D01*
X115517714Y-93115201D01*
X115310864Y-93200881D01*
X114917881Y-93593864D01*
X114705201Y-94107320D01*
X114705201Y-94663082D01*
X114917881Y-95176538D01*
X115310864Y-95569521D01*
X115517714Y-95655201D01*
X115310864Y-95740881D01*
X114917881Y-96133864D01*
X114705201Y-96647320D01*
X114705201Y-97203082D01*
X114917881Y-97716538D01*
X115310864Y-98109521D01*
X115517714Y-98195201D01*
X115310864Y-98280881D01*
X114917881Y-98673864D01*
X114705201Y-99187320D01*
X114705201Y-99743082D01*
X114917881Y-100256538D01*
X115310864Y-100649521D01*
X115517714Y-100735201D01*
X115310864Y-100820881D01*
X114917881Y-101213864D01*
X114705201Y-101727320D01*
X114705201Y-102283082D01*
X114917881Y-102796538D01*
X115310864Y-103189521D01*
X115517714Y-103275201D01*
X115310864Y-103360881D01*
X114917881Y-103753864D01*
X114705201Y-104267320D01*
X114705201Y-104823082D01*
X114917881Y-105336538D01*
X115310864Y-105729521D01*
X115517714Y-105815201D01*
X115310864Y-105900881D01*
X114917881Y-106293864D01*
X114705201Y-106807320D01*
X114705201Y-107363082D01*
X114917881Y-107876538D01*
X115310864Y-108269521D01*
X115517714Y-108355201D01*
X115310864Y-108440881D01*
X114917881Y-108833864D01*
X114705201Y-109347320D01*
X114705201Y-109903082D01*
X114917881Y-110416538D01*
X115310864Y-110809521D01*
X115824320Y-111022201D01*
X116380082Y-111022201D01*
X116893538Y-110809521D01*
X117286521Y-110416538D01*
X117499201Y-109903082D01*
X117499201Y-109347320D01*
X117286521Y-108833864D01*
X116893538Y-108440881D01*
X116686688Y-108355201D01*
X116893538Y-108269521D01*
X117286521Y-107876538D01*
X117499201Y-107363082D01*
X117499201Y-106807320D01*
X117286521Y-106293864D01*
X116893538Y-105900881D01*
X116686688Y-105815201D01*
X116893538Y-105729521D01*
X117286521Y-105336538D01*
X117499201Y-104823082D01*
X117499201Y-104267320D01*
X117286521Y-103753864D01*
X116893538Y-103360881D01*
X116686688Y-103275201D01*
X116893538Y-103189521D01*
X117286521Y-102796538D01*
X117499201Y-102283082D01*
X117499201Y-101727320D01*
X117286521Y-101213864D01*
X116893538Y-100820881D01*
X116686688Y-100735201D01*
X116893538Y-100649521D01*
X117286521Y-100256538D01*
X117499201Y-99743082D01*
X117499201Y-99187320D01*
X117286521Y-98673864D01*
X116893538Y-98280881D01*
X116686688Y-98195201D01*
X116893538Y-98109521D01*
X117286521Y-97716538D01*
X117499201Y-97203082D01*
X117499201Y-96647320D01*
X117286521Y-96133864D01*
X116893538Y-95740881D01*
X116686688Y-95655201D01*
X116893538Y-95569521D01*
X117286521Y-95176538D01*
X117499201Y-94663082D01*
X117499201Y-94107320D01*
X117286521Y-93593864D01*
X116893538Y-93200881D01*
X116686688Y-93115201D01*
X116893538Y-93029521D01*
X117286521Y-92636538D01*
X117499201Y-92123082D01*
X117499201Y-91567320D01*
X117286521Y-91053864D01*
X116893538Y-90660881D01*
X116686688Y-90575201D01*
X116893538Y-90489521D01*
X117286521Y-90096538D01*
X117499201Y-89583082D01*
X117499201Y-89027320D01*
X117389667Y-88762881D01*
X117570537Y-88726904D01*
X117821929Y-88558929D01*
X117864331Y-88495470D01*
X118047003Y-88312798D01*
X118191000Y-88341440D01*
X119191000Y-88341440D01*
X119438765Y-88292157D01*
X119648809Y-88151809D01*
X119789157Y-87941765D01*
X119838440Y-87694000D01*
X119838440Y-87629750D01*
X123506000Y-87629750D01*
X123506000Y-87820310D01*
X123602673Y-88053699D01*
X123781302Y-88232327D01*
X124014691Y-88329000D01*
X124355250Y-88329000D01*
X124514000Y-88170250D01*
X124514000Y-87471000D01*
X124768000Y-87471000D01*
X124768000Y-88170250D01*
X124926750Y-88329000D01*
X125267309Y-88329000D01*
X125500698Y-88232327D01*
X125679327Y-88053699D01*
X125776000Y-87820310D01*
X125776000Y-87629750D01*
X125617250Y-87471000D01*
X124768000Y-87471000D01*
X124514000Y-87471000D01*
X123664750Y-87471000D01*
X123506000Y-87629750D01*
X119838440Y-87629750D01*
X119838440Y-86994000D01*
X119813316Y-86867690D01*
X123506000Y-86867690D01*
X123506000Y-87058250D01*
X123664750Y-87217000D01*
X124514000Y-87217000D01*
X124514000Y-86517750D01*
X124768000Y-86517750D01*
X124768000Y-87217000D01*
X125617250Y-87217000D01*
X125776000Y-87058250D01*
X125776000Y-86867690D01*
X125679327Y-86634301D01*
X125500698Y-86455673D01*
X125267309Y-86359000D01*
X124926750Y-86359000D01*
X124768000Y-86517750D01*
X124514000Y-86517750D01*
X124355250Y-86359000D01*
X124014691Y-86359000D01*
X123781302Y-86455673D01*
X123602673Y-86634301D01*
X123506000Y-86867690D01*
X119813316Y-86867690D01*
X119789157Y-86746235D01*
X119648809Y-86536191D01*
X119438765Y-86395843D01*
X119191000Y-86346560D01*
X118191000Y-86346560D01*
X117943235Y-86395843D01*
X117733191Y-86536191D01*
X117675969Y-86621829D01*
X117644463Y-86628096D01*
X117499201Y-86725157D01*
X117499201Y-86487320D01*
X117385633Y-86213141D01*
X117517537Y-86186904D01*
X117768929Y-86018929D01*
X117811331Y-85955470D01*
X119175473Y-84591329D01*
X119238929Y-84548929D01*
X119406166Y-84298641D01*
X119438765Y-84292157D01*
X119648809Y-84151809D01*
X119789157Y-83941765D01*
X119838440Y-83694000D01*
X119838440Y-82994000D01*
X119789157Y-82746235D01*
X119648809Y-82536191D01*
X119438765Y-82395843D01*
X119191000Y-82346560D01*
X118191000Y-82346560D01*
X117943235Y-82395843D01*
X117733191Y-82536191D01*
X117592843Y-82746235D01*
X117543560Y-82994000D01*
X117543560Y-83694000D01*
X117592843Y-83941765D01*
X117625924Y-83991274D01*
X117499201Y-84117997D01*
X117499201Y-83947320D01*
X117286521Y-83433864D01*
X116893538Y-83040881D01*
X116686688Y-82955201D01*
X116893538Y-82869521D01*
X117286521Y-82476538D01*
X117499201Y-81963082D01*
X117499201Y-81866843D01*
X117644463Y-81963904D01*
X117675969Y-81970171D01*
X117733191Y-82055809D01*
X117943235Y-82196157D01*
X118191000Y-82245440D01*
X119191000Y-82245440D01*
X119438765Y-82196157D01*
X119648809Y-82055809D01*
X119789157Y-81845765D01*
X119838440Y-81598000D01*
X119838440Y-80898000D01*
X119789157Y-80650235D01*
X119648809Y-80440191D01*
X119438765Y-80299843D01*
X119191000Y-80250560D01*
X118191000Y-80250560D01*
X118047004Y-80279202D01*
X117039331Y-79271530D01*
X116996929Y-79208071D01*
X116745537Y-79040096D01*
X116523852Y-78996000D01*
X116523847Y-78996000D01*
X116449000Y-78981112D01*
X116374153Y-78996000D01*
X115257711Y-78996000D01*
X115140280Y-78878569D01*
X114759874Y-78721000D01*
X114377802Y-78721000D01*
X115090803Y-78008000D01*
X117701246Y-78008000D01*
X117733191Y-78055809D01*
X117943235Y-78196157D01*
X118191000Y-78245440D01*
X119191000Y-78245440D01*
X119438765Y-78196157D01*
X119648809Y-78055809D01*
X119789157Y-77845765D01*
X119838440Y-77598000D01*
X119838440Y-76898000D01*
X119789157Y-76650235D01*
X119648809Y-76440191D01*
X119438765Y-76299843D01*
X119191000Y-76250560D01*
X118191000Y-76250560D01*
X117943235Y-76299843D01*
X117733191Y-76440191D01*
X117701246Y-76488000D01*
X114850846Y-76488000D01*
X114775999Y-76473112D01*
X114701152Y-76488000D01*
X114701148Y-76488000D01*
X114479463Y-76532096D01*
X114479461Y-76532097D01*
X114479462Y-76532097D01*
X114291526Y-76657671D01*
X114291524Y-76657673D01*
X114228071Y-76700071D01*
X114185673Y-76763524D01*
X113053528Y-77895671D01*
X112990072Y-77938071D01*
X112947672Y-78001527D01*
X112947671Y-78001528D01*
X112822097Y-78189463D01*
X112763112Y-78486000D01*
X112778001Y-78560852D01*
X112778000Y-81894973D01*
X112473874Y-81769000D01*
X112062126Y-81769000D01*
X111681720Y-81926569D01*
X111390569Y-82217720D01*
X111233000Y-82598126D01*
X111233000Y-83009874D01*
X111390569Y-83390280D01*
X111508001Y-83507712D01*
X111508001Y-84081086D01*
X111367431Y-83741720D01*
X111076280Y-83450569D01*
X110763000Y-83320804D01*
X110763000Y-83106126D01*
X110605431Y-82725720D01*
X110314280Y-82434569D01*
X109933874Y-82277000D01*
X109853675Y-82277000D01*
X109892840Y-82080100D01*
X109892840Y-80479900D01*
X109843557Y-80232135D01*
X109703209Y-80022091D01*
X109493165Y-79881743D01*
X109245400Y-79832460D01*
X108686600Y-79832460D01*
X108438835Y-79881743D01*
X108331000Y-79953797D01*
X108223165Y-79881743D01*
X107975400Y-79832460D01*
X107416600Y-79832460D01*
X107168835Y-79881743D01*
X107061000Y-79953797D01*
X106953165Y-79881743D01*
X106705400Y-79832460D01*
X106146600Y-79832460D01*
X105898835Y-79881743D01*
X105791000Y-79953797D01*
X105683165Y-79881743D01*
X105435400Y-79832460D01*
X104876600Y-79832460D01*
X104628835Y-79881743D01*
X104521000Y-79953797D01*
X104413165Y-79881743D01*
X104165400Y-79832460D01*
X103606600Y-79832460D01*
X103358835Y-79881743D01*
X103251000Y-79953797D01*
X103143165Y-79881743D01*
X102895400Y-79832460D01*
X102336600Y-79832460D01*
X102088835Y-79881743D01*
X101981000Y-79953797D01*
X101873165Y-79881743D01*
X101625400Y-79832460D01*
X101066600Y-79832460D01*
X100818835Y-79881743D01*
X100711000Y-79953797D01*
X100603165Y-79881743D01*
X100355400Y-79832460D01*
X99796600Y-79832460D01*
X99548835Y-79881743D01*
X99338791Y-80022091D01*
X99198443Y-80232135D01*
X99149160Y-80479900D01*
X99149160Y-82080100D01*
X99198443Y-82327865D01*
X99316001Y-82503801D01*
X99316001Y-83237148D01*
X99301112Y-83312000D01*
X99360097Y-83608537D01*
X99483031Y-83792520D01*
X99528072Y-83859929D01*
X99591528Y-83902329D01*
X100861527Y-85172329D01*
X100861530Y-85172331D01*
X102025671Y-86336473D01*
X102068071Y-86399929D01*
X102319463Y-86567904D01*
X102541148Y-86612000D01*
X102541152Y-86612000D01*
X102615999Y-86626888D01*
X102690846Y-86612000D01*
X103054498Y-86612000D01*
X101198039Y-88468460D01*
X101066600Y-88468460D01*
X100818835Y-88517743D01*
X100711000Y-88589797D01*
X100603165Y-88517743D01*
X100355400Y-88468460D01*
X99796600Y-88468460D01*
X99548835Y-88517743D01*
X99338791Y-88658091D01*
X99198443Y-88868135D01*
X99149160Y-89115900D01*
X99149160Y-90716100D01*
X99198443Y-90963865D01*
X99316001Y-91139801D01*
X99316000Y-96140549D01*
X99078235Y-96187843D01*
X98868191Y-96328191D01*
X98727843Y-96538235D01*
X98678560Y-96786000D01*
X96901000Y-96786000D01*
X96901000Y-80357993D01*
X113845264Y-75714090D01*
X127201000Y-75714090D01*
X127201000Y-76644850D01*
X127359750Y-76803600D01*
X128524000Y-76803600D01*
X128524000Y-75364150D01*
X128778000Y-75364150D01*
X128778000Y-76803600D01*
X129942250Y-76803600D01*
X130101000Y-76644850D01*
X130101000Y-75714090D01*
X130004327Y-75480701D01*
X129825698Y-75302073D01*
X129592309Y-75205400D01*
X128936750Y-75205400D01*
X128778000Y-75364150D01*
X128524000Y-75364150D01*
X128365250Y-75205400D01*
X127709691Y-75205400D01*
X127476302Y-75302073D01*
X127297673Y-75480701D01*
X127201000Y-75714090D01*
X113845264Y-75714090D01*
X135933637Y-69660345D01*
X150763760Y-69636617D01*
X158846283Y-69645538D01*
G36*
X160067649Y-76846838D02*
X160019765Y-76814843D01*
X159772000Y-76765560D01*
X157234736Y-76765560D01*
X157345366Y-74110440D01*
X159772000Y-74110440D01*
X160019765Y-74061157D01*
X160098276Y-74008697D01*
X160067649Y-76846838D01*
X160067649Y-76846838D01*
G37*
X160067649Y-76846838D02*
X160019765Y-76814843D01*
X159772000Y-76765560D01*
X157234736Y-76765560D01*
X157345366Y-74110440D01*
X159772000Y-74110440D01*
X160019765Y-74061157D01*
X160098276Y-74008697D01*
X160067649Y-76846838D01*
G04 #@! TO.N,/VSS*
G36*
X142609063Y-73595000D02*
X142262750Y-73595000D01*
X142104000Y-73753750D01*
X142104000Y-74803000D01*
X142124000Y-74803000D01*
X142124000Y-75057000D01*
X142104000Y-75057000D01*
X142104000Y-76106250D01*
X142262750Y-76265000D01*
X142428769Y-76265000D01*
X142337191Y-76326191D01*
X142196843Y-76536235D01*
X142147560Y-76784000D01*
X142147560Y-76809000D01*
X141858250Y-76809000D01*
X141699500Y-76967750D01*
X141699500Y-78092000D01*
X141719500Y-78092000D01*
X141719500Y-78346000D01*
X141699500Y-78346000D01*
X141699500Y-79642000D01*
X141719500Y-79642000D01*
X141719500Y-79896000D01*
X141699500Y-79896000D01*
X141699500Y-81020250D01*
X141858250Y-81179000D01*
X141971336Y-81179000D01*
X141868004Y-85002262D01*
X141730848Y-85095778D01*
X134123535Y-85145176D01*
X134354431Y-84914280D01*
X134512000Y-84533874D01*
X134512000Y-84122126D01*
X134354431Y-83741720D01*
X134063280Y-83450569D01*
X133682874Y-83293000D01*
X133271126Y-83293000D01*
X132890720Y-83450569D01*
X132773289Y-83568000D01*
X132732778Y-83568000D01*
X132726127Y-83534564D01*
X132531586Y-83243414D01*
X132240436Y-83048873D01*
X131897001Y-82980560D01*
X131246999Y-82980560D01*
X130903564Y-83048873D01*
X130612414Y-83243414D01*
X130547000Y-83341313D01*
X130481586Y-83243414D01*
X130190436Y-83048873D01*
X129847001Y-82980560D01*
X129196999Y-82980560D01*
X128853564Y-83048873D01*
X128562414Y-83243414D01*
X128367873Y-83534564D01*
X128299560Y-83877999D01*
X128299560Y-84778001D01*
X128367873Y-85121436D01*
X128408532Y-85182286D01*
X123190000Y-85216173D01*
X123190000Y-83629750D01*
X123506000Y-83629750D01*
X123506000Y-83820310D01*
X123602673Y-84053699D01*
X123781302Y-84232327D01*
X124014691Y-84329000D01*
X124355250Y-84329000D01*
X124514000Y-84170250D01*
X124514000Y-83471000D01*
X124768000Y-83471000D01*
X124768000Y-84170250D01*
X124926750Y-84329000D01*
X125267309Y-84329000D01*
X125500698Y-84232327D01*
X125679327Y-84053699D01*
X125776000Y-83820310D01*
X125776000Y-83629750D01*
X125617250Y-83471000D01*
X124768000Y-83471000D01*
X124514000Y-83471000D01*
X123664750Y-83471000D01*
X123506000Y-83629750D01*
X123190000Y-83629750D01*
X123190000Y-82867690D01*
X123506000Y-82867690D01*
X123506000Y-83058250D01*
X123664750Y-83217000D01*
X124514000Y-83217000D01*
X124514000Y-82517750D01*
X124768000Y-82517750D01*
X124768000Y-83217000D01*
X125617250Y-83217000D01*
X125776000Y-83058250D01*
X125776000Y-82867690D01*
X125679327Y-82634301D01*
X125500698Y-82455673D01*
X125267309Y-82359000D01*
X124926750Y-82359000D01*
X124768000Y-82517750D01*
X124514000Y-82517750D01*
X124355250Y-82359000D01*
X124014691Y-82359000D01*
X123781302Y-82455673D01*
X123602673Y-82634301D01*
X123506000Y-82867690D01*
X123190000Y-82867690D01*
X123190000Y-81913000D01*
X123518280Y-81913000D01*
X123594463Y-81963904D01*
X123625969Y-81970171D01*
X123683191Y-82055809D01*
X123893235Y-82196157D01*
X124141000Y-82245440D01*
X125141000Y-82245440D01*
X125388765Y-82196157D01*
X125598809Y-82055809D01*
X125739157Y-81845765D01*
X125788440Y-81598000D01*
X125788440Y-80930750D01*
X127201000Y-80930750D01*
X127201000Y-81861510D01*
X127297673Y-82094899D01*
X127476302Y-82273527D01*
X127709691Y-82370200D01*
X128365250Y-82370200D01*
X128524000Y-82211450D01*
X128524000Y-80772000D01*
X128778000Y-80772000D01*
X128778000Y-82211450D01*
X128936750Y-82370200D01*
X129592309Y-82370200D01*
X129825698Y-82273527D01*
X130004327Y-82094899D01*
X130101000Y-81861510D01*
X130101000Y-80930750D01*
X129974000Y-80803750D01*
X130872000Y-80803750D01*
X130872000Y-81219309D01*
X130968673Y-81452698D01*
X131147301Y-81631327D01*
X131380690Y-81728000D01*
X131921250Y-81728000D01*
X132080000Y-81569250D01*
X132080000Y-80645000D01*
X132334000Y-80645000D01*
X132334000Y-81569250D01*
X132492750Y-81728000D01*
X133033310Y-81728000D01*
X133266699Y-81631327D01*
X133445327Y-81452698D01*
X133539000Y-81226552D01*
X133539000Y-81237309D01*
X133635673Y-81470698D01*
X133814301Y-81649327D01*
X134047690Y-81746000D01*
X134588250Y-81746000D01*
X134747000Y-81587250D01*
X134747000Y-80663000D01*
X135001000Y-80663000D01*
X135001000Y-81587250D01*
X135159750Y-81746000D01*
X135700310Y-81746000D01*
X135933699Y-81649327D01*
X136112327Y-81470698D01*
X136209000Y-81237309D01*
X136209000Y-81184750D01*
X136600000Y-81184750D01*
X136600000Y-81330310D01*
X136696673Y-81563699D01*
X136875302Y-81742327D01*
X137108691Y-81839000D01*
X137904250Y-81839000D01*
X138063000Y-81680250D01*
X138063000Y-81026000D01*
X136758750Y-81026000D01*
X136600000Y-81184750D01*
X136209000Y-81184750D01*
X136209000Y-80821750D01*
X136050250Y-80663000D01*
X135001000Y-80663000D01*
X134747000Y-80663000D01*
X133697750Y-80663000D01*
X133542000Y-80818750D01*
X133542000Y-80803750D01*
X133383250Y-80645000D01*
X132334000Y-80645000D01*
X132080000Y-80645000D01*
X131030750Y-80645000D01*
X130872000Y-80803750D01*
X129974000Y-80803750D01*
X129942250Y-80772000D01*
X128778000Y-80772000D01*
X128524000Y-80772000D01*
X127359750Y-80772000D01*
X127201000Y-80930750D01*
X125788440Y-80930750D01*
X125788440Y-80898000D01*
X125739157Y-80650235D01*
X125598809Y-80440191D01*
X125388765Y-80299843D01*
X125141000Y-80250560D01*
X124141000Y-80250560D01*
X123893235Y-80299843D01*
X123767662Y-80383749D01*
X123721153Y-80393000D01*
X123190000Y-80393000D01*
X123190000Y-77533750D01*
X123506000Y-77533750D01*
X123506000Y-77724310D01*
X123602673Y-77957699D01*
X123781302Y-78136327D01*
X124014691Y-78233000D01*
X124355250Y-78233000D01*
X124514000Y-78074250D01*
X124514000Y-77375000D01*
X124768000Y-77375000D01*
X124768000Y-78074250D01*
X124926750Y-78233000D01*
X125267309Y-78233000D01*
X125500698Y-78136327D01*
X125679327Y-77957699D01*
X125776000Y-77724310D01*
X125776000Y-77533750D01*
X125617250Y-77375000D01*
X124768000Y-77375000D01*
X124514000Y-77375000D01*
X123664750Y-77375000D01*
X123506000Y-77533750D01*
X123190000Y-77533750D01*
X123190000Y-76708000D01*
X123532381Y-76708000D01*
X123506000Y-76771690D01*
X123506000Y-76962250D01*
X123664750Y-77121000D01*
X124514000Y-77121000D01*
X124514000Y-77101000D01*
X124768000Y-77101000D01*
X124768000Y-77121000D01*
X125617250Y-77121000D01*
X125776000Y-76962250D01*
X125776000Y-76771690D01*
X125749619Y-76708000D01*
X125984000Y-76708000D01*
X125984000Y-79629000D01*
X125993667Y-79677601D01*
X126021197Y-79718803D01*
X126062399Y-79746333D01*
X126111000Y-79756000D01*
X127201000Y-79756000D01*
X127201000Y-80359250D01*
X127359750Y-80518000D01*
X128524000Y-80518000D01*
X128524000Y-80498000D01*
X128778000Y-80498000D01*
X128778000Y-80518000D01*
X129942250Y-80518000D01*
X130101000Y-80359250D01*
X130101000Y-79756000D01*
X130897139Y-79756000D01*
X130872000Y-79816691D01*
X130872000Y-80232250D01*
X131030750Y-80391000D01*
X132080000Y-80391000D01*
X132080000Y-80371000D01*
X132334000Y-80371000D01*
X132334000Y-80391000D01*
X133383250Y-80391000D01*
X133539000Y-80235250D01*
X133539000Y-80250250D01*
X133697750Y-80409000D01*
X134747000Y-80409000D01*
X134747000Y-80389000D01*
X135001000Y-80389000D01*
X135001000Y-80409000D01*
X136050250Y-80409000D01*
X136209000Y-80250250D01*
X136209000Y-80000606D01*
X136435197Y-80226803D01*
X136476399Y-80254333D01*
X136518658Y-80263842D01*
X136681073Y-80271963D01*
X136600000Y-80467690D01*
X136600000Y-80613250D01*
X136758750Y-80772000D01*
X138063000Y-80772000D01*
X138063000Y-80752000D01*
X138317000Y-80752000D01*
X138317000Y-80772000D01*
X138337000Y-80772000D01*
X138337000Y-81026000D01*
X138317000Y-81026000D01*
X138317000Y-81680250D01*
X138475750Y-81839000D01*
X139271309Y-81839000D01*
X139504698Y-81742327D01*
X139683327Y-81563699D01*
X139780000Y-81330310D01*
X139780000Y-81184750D01*
X139774250Y-81179000D01*
X140081750Y-81179000D01*
X140240500Y-81020250D01*
X140240500Y-80054750D01*
X140335000Y-80054750D01*
X140335000Y-80670310D01*
X140431673Y-80903699D01*
X140494500Y-80966526D01*
X140494500Y-81020250D01*
X140653250Y-81179000D01*
X141286750Y-81179000D01*
X141445500Y-81020250D01*
X141445500Y-80966526D01*
X141508327Y-80903699D01*
X141605000Y-80670310D01*
X141605000Y-80054750D01*
X141446250Y-79896000D01*
X140493750Y-79896000D01*
X140335000Y-80054750D01*
X140240500Y-80054750D01*
X140240500Y-79896000D01*
X140220500Y-79896000D01*
X140220500Y-79642000D01*
X140240500Y-79642000D01*
X140240500Y-78504750D01*
X140335000Y-78504750D01*
X140335000Y-79483250D01*
X140493750Y-79642000D01*
X141446250Y-79642000D01*
X141605000Y-79483250D01*
X141605000Y-78504750D01*
X141446250Y-78346000D01*
X140493750Y-78346000D01*
X140335000Y-78504750D01*
X140240500Y-78504750D01*
X140240500Y-78346000D01*
X140220500Y-78346000D01*
X140220500Y-78092000D01*
X140240500Y-78092000D01*
X140240500Y-77317690D01*
X140335000Y-77317690D01*
X140335000Y-77933250D01*
X140493750Y-78092000D01*
X141446250Y-78092000D01*
X141605000Y-77933250D01*
X141605000Y-77317690D01*
X141508327Y-77084301D01*
X141445500Y-77021474D01*
X141445500Y-76967750D01*
X141286750Y-76809000D01*
X140653250Y-76809000D01*
X140494500Y-76967750D01*
X140494500Y-77021474D01*
X140431673Y-77084301D01*
X140335000Y-77317690D01*
X140240500Y-77317690D01*
X140240500Y-76967750D01*
X140081750Y-76809000D01*
X139792440Y-76809000D01*
X139792440Y-76784000D01*
X139743157Y-76536235D01*
X139602809Y-76326191D01*
X139511231Y-76265000D01*
X139677250Y-76265000D01*
X139836000Y-76106250D01*
X139836000Y-75057000D01*
X140090000Y-75057000D01*
X140090000Y-76106250D01*
X140248750Y-76265000D01*
X140664309Y-76265000D01*
X140897698Y-76168327D01*
X140970000Y-76096025D01*
X141042302Y-76168327D01*
X141275691Y-76265000D01*
X141691250Y-76265000D01*
X141850000Y-76106250D01*
X141850000Y-75057000D01*
X140090000Y-75057000D01*
X139836000Y-75057000D01*
X139816000Y-75057000D01*
X139816000Y-74803000D01*
X139836000Y-74803000D01*
X139836000Y-73753750D01*
X140090000Y-73753750D01*
X140090000Y-74803000D01*
X141850000Y-74803000D01*
X141850000Y-73753750D01*
X141691250Y-73595000D01*
X141275691Y-73595000D01*
X141042302Y-73691673D01*
X140970000Y-73763975D01*
X140897698Y-73691673D01*
X140664309Y-73595000D01*
X140248750Y-73595000D01*
X140090000Y-73753750D01*
X139836000Y-73753750D01*
X139677250Y-73595000D01*
X139299581Y-73595000D01*
X139316968Y-72517000D01*
X142619736Y-72517000D01*
X142609063Y-73595000D01*
X142609063Y-73595000D01*
G37*
X142609063Y-73595000D02*
X142262750Y-73595000D01*
X142104000Y-73753750D01*
X142104000Y-74803000D01*
X142124000Y-74803000D01*
X142124000Y-75057000D01*
X142104000Y-75057000D01*
X142104000Y-76106250D01*
X142262750Y-76265000D01*
X142428769Y-76265000D01*
X142337191Y-76326191D01*
X142196843Y-76536235D01*
X142147560Y-76784000D01*
X142147560Y-76809000D01*
X141858250Y-76809000D01*
X141699500Y-76967750D01*
X141699500Y-78092000D01*
X141719500Y-78092000D01*
X141719500Y-78346000D01*
X141699500Y-78346000D01*
X141699500Y-79642000D01*
X141719500Y-79642000D01*
X141719500Y-79896000D01*
X141699500Y-79896000D01*
X141699500Y-81020250D01*
X141858250Y-81179000D01*
X141971336Y-81179000D01*
X141868004Y-85002262D01*
X141730848Y-85095778D01*
X134123535Y-85145176D01*
X134354431Y-84914280D01*
X134512000Y-84533874D01*
X134512000Y-84122126D01*
X134354431Y-83741720D01*
X134063280Y-83450569D01*
X133682874Y-83293000D01*
X133271126Y-83293000D01*
X132890720Y-83450569D01*
X132773289Y-83568000D01*
X132732778Y-83568000D01*
X132726127Y-83534564D01*
X132531586Y-83243414D01*
X132240436Y-83048873D01*
X131897001Y-82980560D01*
X131246999Y-82980560D01*
X130903564Y-83048873D01*
X130612414Y-83243414D01*
X130547000Y-83341313D01*
X130481586Y-83243414D01*
X130190436Y-83048873D01*
X129847001Y-82980560D01*
X129196999Y-82980560D01*
X128853564Y-83048873D01*
X128562414Y-83243414D01*
X128367873Y-83534564D01*
X128299560Y-83877999D01*
X128299560Y-84778001D01*
X128367873Y-85121436D01*
X128408532Y-85182286D01*
X123190000Y-85216173D01*
X123190000Y-83629750D01*
X123506000Y-83629750D01*
X123506000Y-83820310D01*
X123602673Y-84053699D01*
X123781302Y-84232327D01*
X124014691Y-84329000D01*
X124355250Y-84329000D01*
X124514000Y-84170250D01*
X124514000Y-83471000D01*
X124768000Y-83471000D01*
X124768000Y-84170250D01*
X124926750Y-84329000D01*
X125267309Y-84329000D01*
X125500698Y-84232327D01*
X125679327Y-84053699D01*
X125776000Y-83820310D01*
X125776000Y-83629750D01*
X125617250Y-83471000D01*
X124768000Y-83471000D01*
X124514000Y-83471000D01*
X123664750Y-83471000D01*
X123506000Y-83629750D01*
X123190000Y-83629750D01*
X123190000Y-82867690D01*
X123506000Y-82867690D01*
X123506000Y-83058250D01*
X123664750Y-83217000D01*
X124514000Y-83217000D01*
X124514000Y-82517750D01*
X124768000Y-82517750D01*
X124768000Y-83217000D01*
X125617250Y-83217000D01*
X125776000Y-83058250D01*
X125776000Y-82867690D01*
X125679327Y-82634301D01*
X125500698Y-82455673D01*
X125267309Y-82359000D01*
X124926750Y-82359000D01*
X124768000Y-82517750D01*
X124514000Y-82517750D01*
X124355250Y-82359000D01*
X124014691Y-82359000D01*
X123781302Y-82455673D01*
X123602673Y-82634301D01*
X123506000Y-82867690D01*
X123190000Y-82867690D01*
X123190000Y-81913000D01*
X123518280Y-81913000D01*
X123594463Y-81963904D01*
X123625969Y-81970171D01*
X123683191Y-82055809D01*
X123893235Y-82196157D01*
X124141000Y-82245440D01*
X125141000Y-82245440D01*
X125388765Y-82196157D01*
X125598809Y-82055809D01*
X125739157Y-81845765D01*
X125788440Y-81598000D01*
X125788440Y-80930750D01*
X127201000Y-80930750D01*
X127201000Y-81861510D01*
X127297673Y-82094899D01*
X127476302Y-82273527D01*
X127709691Y-82370200D01*
X128365250Y-82370200D01*
X128524000Y-82211450D01*
X128524000Y-80772000D01*
X128778000Y-80772000D01*
X128778000Y-82211450D01*
X128936750Y-82370200D01*
X129592309Y-82370200D01*
X129825698Y-82273527D01*
X130004327Y-82094899D01*
X130101000Y-81861510D01*
X130101000Y-80930750D01*
X129974000Y-80803750D01*
X130872000Y-80803750D01*
X130872000Y-81219309D01*
X130968673Y-81452698D01*
X131147301Y-81631327D01*
X131380690Y-81728000D01*
X131921250Y-81728000D01*
X132080000Y-81569250D01*
X132080000Y-80645000D01*
X132334000Y-80645000D01*
X132334000Y-81569250D01*
X132492750Y-81728000D01*
X133033310Y-81728000D01*
X133266699Y-81631327D01*
X133445327Y-81452698D01*
X133539000Y-81226552D01*
X133539000Y-81237309D01*
X133635673Y-81470698D01*
X133814301Y-81649327D01*
X134047690Y-81746000D01*
X134588250Y-81746000D01*
X134747000Y-81587250D01*
X134747000Y-80663000D01*
X135001000Y-80663000D01*
X135001000Y-81587250D01*
X135159750Y-81746000D01*
X135700310Y-81746000D01*
X135933699Y-81649327D01*
X136112327Y-81470698D01*
X136209000Y-81237309D01*
X136209000Y-81184750D01*
X136600000Y-81184750D01*
X136600000Y-81330310D01*
X136696673Y-81563699D01*
X136875302Y-81742327D01*
X137108691Y-81839000D01*
X137904250Y-81839000D01*
X138063000Y-81680250D01*
X138063000Y-81026000D01*
X136758750Y-81026000D01*
X136600000Y-81184750D01*
X136209000Y-81184750D01*
X136209000Y-80821750D01*
X136050250Y-80663000D01*
X135001000Y-80663000D01*
X134747000Y-80663000D01*
X133697750Y-80663000D01*
X133542000Y-80818750D01*
X133542000Y-80803750D01*
X133383250Y-80645000D01*
X132334000Y-80645000D01*
X132080000Y-80645000D01*
X131030750Y-80645000D01*
X130872000Y-80803750D01*
X129974000Y-80803750D01*
X129942250Y-80772000D01*
X128778000Y-80772000D01*
X128524000Y-80772000D01*
X127359750Y-80772000D01*
X127201000Y-80930750D01*
X125788440Y-80930750D01*
X125788440Y-80898000D01*
X125739157Y-80650235D01*
X125598809Y-80440191D01*
X125388765Y-80299843D01*
X125141000Y-80250560D01*
X124141000Y-80250560D01*
X123893235Y-80299843D01*
X123767662Y-80383749D01*
X123721153Y-80393000D01*
X123190000Y-80393000D01*
X123190000Y-77533750D01*
X123506000Y-77533750D01*
X123506000Y-77724310D01*
X123602673Y-77957699D01*
X123781302Y-78136327D01*
X124014691Y-78233000D01*
X124355250Y-78233000D01*
X124514000Y-78074250D01*
X124514000Y-77375000D01*
X124768000Y-77375000D01*
X124768000Y-78074250D01*
X124926750Y-78233000D01*
X125267309Y-78233000D01*
X125500698Y-78136327D01*
X125679327Y-77957699D01*
X125776000Y-77724310D01*
X125776000Y-77533750D01*
X125617250Y-77375000D01*
X124768000Y-77375000D01*
X124514000Y-77375000D01*
X123664750Y-77375000D01*
X123506000Y-77533750D01*
X123190000Y-77533750D01*
X123190000Y-76708000D01*
X123532381Y-76708000D01*
X123506000Y-76771690D01*
X123506000Y-76962250D01*
X123664750Y-77121000D01*
X124514000Y-77121000D01*
X124514000Y-77101000D01*
X124768000Y-77101000D01*
X124768000Y-77121000D01*
X125617250Y-77121000D01*
X125776000Y-76962250D01*
X125776000Y-76771690D01*
X125749619Y-76708000D01*
X125984000Y-76708000D01*
X125984000Y-79629000D01*
X125993667Y-79677601D01*
X126021197Y-79718803D01*
X126062399Y-79746333D01*
X126111000Y-79756000D01*
X127201000Y-79756000D01*
X127201000Y-80359250D01*
X127359750Y-80518000D01*
X128524000Y-80518000D01*
X128524000Y-80498000D01*
X128778000Y-80498000D01*
X128778000Y-80518000D01*
X129942250Y-80518000D01*
X130101000Y-80359250D01*
X130101000Y-79756000D01*
X130897139Y-79756000D01*
X130872000Y-79816691D01*
X130872000Y-80232250D01*
X131030750Y-80391000D01*
X132080000Y-80391000D01*
X132080000Y-80371000D01*
X132334000Y-80371000D01*
X132334000Y-80391000D01*
X133383250Y-80391000D01*
X133539000Y-80235250D01*
X133539000Y-80250250D01*
X133697750Y-80409000D01*
X134747000Y-80409000D01*
X134747000Y-80389000D01*
X135001000Y-80389000D01*
X135001000Y-80409000D01*
X136050250Y-80409000D01*
X136209000Y-80250250D01*
X136209000Y-80000606D01*
X136435197Y-80226803D01*
X136476399Y-80254333D01*
X136518658Y-80263842D01*
X136681073Y-80271963D01*
X136600000Y-80467690D01*
X136600000Y-80613250D01*
X136758750Y-80772000D01*
X138063000Y-80772000D01*
X138063000Y-80752000D01*
X138317000Y-80752000D01*
X138317000Y-80772000D01*
X138337000Y-80772000D01*
X138337000Y-81026000D01*
X138317000Y-81026000D01*
X138317000Y-81680250D01*
X138475750Y-81839000D01*
X139271309Y-81839000D01*
X139504698Y-81742327D01*
X139683327Y-81563699D01*
X139780000Y-81330310D01*
X139780000Y-81184750D01*
X139774250Y-81179000D01*
X140081750Y-81179000D01*
X140240500Y-81020250D01*
X140240500Y-80054750D01*
X140335000Y-80054750D01*
X140335000Y-80670310D01*
X140431673Y-80903699D01*
X140494500Y-80966526D01*
X140494500Y-81020250D01*
X140653250Y-81179000D01*
X141286750Y-81179000D01*
X141445500Y-81020250D01*
X141445500Y-80966526D01*
X141508327Y-80903699D01*
X141605000Y-80670310D01*
X141605000Y-80054750D01*
X141446250Y-79896000D01*
X140493750Y-79896000D01*
X140335000Y-80054750D01*
X140240500Y-80054750D01*
X140240500Y-79896000D01*
X140220500Y-79896000D01*
X140220500Y-79642000D01*
X140240500Y-79642000D01*
X140240500Y-78504750D01*
X140335000Y-78504750D01*
X140335000Y-79483250D01*
X140493750Y-79642000D01*
X141446250Y-79642000D01*
X141605000Y-79483250D01*
X141605000Y-78504750D01*
X141446250Y-78346000D01*
X140493750Y-78346000D01*
X140335000Y-78504750D01*
X140240500Y-78504750D01*
X140240500Y-78346000D01*
X140220500Y-78346000D01*
X140220500Y-78092000D01*
X140240500Y-78092000D01*
X140240500Y-77317690D01*
X140335000Y-77317690D01*
X140335000Y-77933250D01*
X140493750Y-78092000D01*
X141446250Y-78092000D01*
X141605000Y-77933250D01*
X141605000Y-77317690D01*
X141508327Y-77084301D01*
X141445500Y-77021474D01*
X141445500Y-76967750D01*
X141286750Y-76809000D01*
X140653250Y-76809000D01*
X140494500Y-76967750D01*
X140494500Y-77021474D01*
X140431673Y-77084301D01*
X140335000Y-77317690D01*
X140240500Y-77317690D01*
X140240500Y-76967750D01*
X140081750Y-76809000D01*
X139792440Y-76809000D01*
X139792440Y-76784000D01*
X139743157Y-76536235D01*
X139602809Y-76326191D01*
X139511231Y-76265000D01*
X139677250Y-76265000D01*
X139836000Y-76106250D01*
X139836000Y-75057000D01*
X140090000Y-75057000D01*
X140090000Y-76106250D01*
X140248750Y-76265000D01*
X140664309Y-76265000D01*
X140897698Y-76168327D01*
X140970000Y-76096025D01*
X141042302Y-76168327D01*
X141275691Y-76265000D01*
X141691250Y-76265000D01*
X141850000Y-76106250D01*
X141850000Y-75057000D01*
X140090000Y-75057000D01*
X139836000Y-75057000D01*
X139816000Y-75057000D01*
X139816000Y-74803000D01*
X139836000Y-74803000D01*
X139836000Y-73753750D01*
X140090000Y-73753750D01*
X140090000Y-74803000D01*
X141850000Y-74803000D01*
X141850000Y-73753750D01*
X141691250Y-73595000D01*
X141275691Y-73595000D01*
X141042302Y-73691673D01*
X140970000Y-73763975D01*
X140897698Y-73691673D01*
X140664309Y-73595000D01*
X140248750Y-73595000D01*
X140090000Y-73753750D01*
X139836000Y-73753750D01*
X139677250Y-73595000D01*
X139299581Y-73595000D01*
X139316968Y-72517000D01*
X142619736Y-72517000D01*
X142609063Y-73595000D01*
G04 #@! TO.N,Net-(C2-Pad2)*
G36*
X153633673Y-74153302D02*
X153537000Y-74386691D01*
X153537000Y-74527250D01*
X153695750Y-74686000D01*
X154895000Y-74686000D01*
X154895000Y-74666000D01*
X155149000Y-74666000D01*
X155149000Y-74686000D01*
X156348250Y-74686000D01*
X156507000Y-74527250D01*
X156507000Y-74386691D01*
X156410327Y-74153302D01*
X156298026Y-74041000D01*
X156585598Y-74041000D01*
X156533015Y-75303000D01*
X156480618Y-75303000D01*
X156507000Y-75239309D01*
X156507000Y-75098750D01*
X156348250Y-74940000D01*
X155149000Y-74940000D01*
X155149000Y-74960000D01*
X154895000Y-74960000D01*
X154895000Y-74940000D01*
X153695750Y-74940000D01*
X153537000Y-75098750D01*
X153537000Y-75239309D01*
X153621654Y-75443681D01*
X153573843Y-75515235D01*
X153524560Y-75763000D01*
X153524560Y-76363000D01*
X153573843Y-76610765D01*
X153714191Y-76820809D01*
X153924235Y-76961157D01*
X154172000Y-77010440D01*
X155872000Y-77010440D01*
X156119765Y-76961157D01*
X156326530Y-76823000D01*
X156469682Y-76823000D01*
X156466014Y-76911028D01*
X150787916Y-83220026D01*
X145867594Y-87278023D01*
X145861300Y-87283574D01*
X130385600Y-101867372D01*
X130385600Y-101300714D01*
X130117656Y-100653840D01*
X129622560Y-100158744D01*
X128975686Y-99890800D01*
X128275514Y-99890800D01*
X127628640Y-100158744D01*
X127196184Y-100591200D01*
X124616697Y-100591200D01*
X124474986Y-100379114D01*
X124183835Y-100184574D01*
X123840400Y-100116260D01*
X122769062Y-100116260D01*
X122755000Y-100113463D01*
X122740938Y-100116260D01*
X122590400Y-100116260D01*
X122517303Y-100130800D01*
X121784386Y-100130800D01*
X121780272Y-99793441D01*
X121832600Y-99667109D01*
X121832600Y-99603925D01*
X121980701Y-99752027D01*
X122214090Y-99848700D01*
X122929650Y-99848700D01*
X123088400Y-99689950D01*
X123088400Y-98628200D01*
X123342400Y-98628200D01*
X123342400Y-99689950D01*
X123501150Y-99848700D01*
X124216710Y-99848700D01*
X124450099Y-99752027D01*
X124628727Y-99573398D01*
X124725400Y-99340009D01*
X124725400Y-98786950D01*
X124566650Y-98628200D01*
X123342400Y-98628200D01*
X123088400Y-98628200D01*
X123068400Y-98628200D01*
X123068400Y-98374200D01*
X123088400Y-98374200D01*
X123088400Y-97312450D01*
X123342400Y-97312450D01*
X123342400Y-98374200D01*
X124566650Y-98374200D01*
X124725400Y-98215450D01*
X124725400Y-97662391D01*
X124628727Y-97429002D01*
X124450099Y-97250373D01*
X124216710Y-97153700D01*
X123501150Y-97153700D01*
X123342400Y-97312450D01*
X123088400Y-97312450D01*
X122929650Y-97153700D01*
X122214090Y-97153700D01*
X121980701Y-97250373D01*
X121802073Y-97429002D01*
X121752885Y-97547753D01*
X121744456Y-96856550D01*
X126865600Y-96856550D01*
X126865600Y-97822109D01*
X126962273Y-98055498D01*
X127140901Y-98234127D01*
X127374290Y-98330800D01*
X128339850Y-98330800D01*
X128498600Y-98172050D01*
X128498600Y-96697800D01*
X128752600Y-96697800D01*
X128752600Y-98172050D01*
X128911350Y-98330800D01*
X129876910Y-98330800D01*
X130110299Y-98234127D01*
X130288927Y-98055498D01*
X130385600Y-97822109D01*
X130385600Y-96856550D01*
X130226850Y-96697800D01*
X128752600Y-96697800D01*
X128498600Y-96697800D01*
X127024350Y-96697800D01*
X126865600Y-96856550D01*
X121744456Y-96856550D01*
X121743311Y-96762704D01*
X127136632Y-94911742D01*
X126962273Y-95086102D01*
X126865600Y-95319491D01*
X126865600Y-96285050D01*
X127024350Y-96443800D01*
X128498600Y-96443800D01*
X128498600Y-94969550D01*
X128752600Y-94969550D01*
X128752600Y-96443800D01*
X130226850Y-96443800D01*
X130385600Y-96285050D01*
X130385600Y-95319491D01*
X130288927Y-95086102D01*
X130110299Y-94907473D01*
X129876910Y-94810800D01*
X128911350Y-94810800D01*
X128752600Y-94969550D01*
X128498600Y-94969550D01*
X128339850Y-94810800D01*
X127430756Y-94810800D01*
X130241626Y-93846123D01*
X130271944Y-93830931D01*
X142565544Y-85448931D01*
X142600253Y-85413565D01*
X142620954Y-85347431D01*
X142715777Y-81839000D01*
X143464250Y-81839000D01*
X143623000Y-81680250D01*
X143623000Y-81026000D01*
X143877000Y-81026000D01*
X143877000Y-81680250D01*
X144035750Y-81839000D01*
X144831309Y-81839000D01*
X145064698Y-81742327D01*
X145243327Y-81563699D01*
X145340000Y-81330310D01*
X145340000Y-81184750D01*
X145181250Y-81026000D01*
X143877000Y-81026000D01*
X143623000Y-81026000D01*
X143603000Y-81026000D01*
X143603000Y-80772000D01*
X143623000Y-80772000D01*
X143623000Y-80752000D01*
X143877000Y-80752000D01*
X143877000Y-80772000D01*
X145181250Y-80772000D01*
X145340000Y-80613250D01*
X145340000Y-80507790D01*
X145717126Y-80664000D01*
X146128874Y-80664000D01*
X146186211Y-80640250D01*
X147207000Y-80640250D01*
X147207000Y-81193309D01*
X147303673Y-81426698D01*
X147482301Y-81605327D01*
X147715690Y-81702000D01*
X148431250Y-81702000D01*
X148590000Y-81543250D01*
X148590000Y-80481500D01*
X148844000Y-80481500D01*
X148844000Y-81543250D01*
X149002750Y-81702000D01*
X149718310Y-81702000D01*
X149951699Y-81605327D01*
X150130327Y-81426698D01*
X150227000Y-81193309D01*
X150227000Y-80640250D01*
X150068250Y-80481500D01*
X148844000Y-80481500D01*
X148590000Y-80481500D01*
X147365750Y-80481500D01*
X147207000Y-80640250D01*
X146186211Y-80640250D01*
X146509280Y-80506431D01*
X146800431Y-80215280D01*
X146958000Y-79834874D01*
X146958000Y-79423126D01*
X146952680Y-79410283D01*
X147295504Y-79302023D01*
X147207000Y-79515691D01*
X147207000Y-80068750D01*
X147365750Y-80227500D01*
X148590000Y-80227500D01*
X148590000Y-80207500D01*
X148844000Y-80207500D01*
X148844000Y-80227500D01*
X150068250Y-80227500D01*
X150227000Y-80068750D01*
X150227000Y-79515691D01*
X150154101Y-79339698D01*
X150159269Y-79338868D01*
X150201461Y-79312882D01*
X150228524Y-79276836D01*
X152859317Y-74041000D01*
X153745974Y-74041000D01*
X153633673Y-74153302D01*
X153633673Y-74153302D01*
G37*
X153633673Y-74153302D02*
X153537000Y-74386691D01*
X153537000Y-74527250D01*
X153695750Y-74686000D01*
X154895000Y-74686000D01*
X154895000Y-74666000D01*
X155149000Y-74666000D01*
X155149000Y-74686000D01*
X156348250Y-74686000D01*
X156507000Y-74527250D01*
X156507000Y-74386691D01*
X156410327Y-74153302D01*
X156298026Y-74041000D01*
X156585598Y-74041000D01*
X156533015Y-75303000D01*
X156480618Y-75303000D01*
X156507000Y-75239309D01*
X156507000Y-75098750D01*
X156348250Y-74940000D01*
X155149000Y-74940000D01*
X155149000Y-74960000D01*
X154895000Y-74960000D01*
X154895000Y-74940000D01*
X153695750Y-74940000D01*
X153537000Y-75098750D01*
X153537000Y-75239309D01*
X153621654Y-75443681D01*
X153573843Y-75515235D01*
X153524560Y-75763000D01*
X153524560Y-76363000D01*
X153573843Y-76610765D01*
X153714191Y-76820809D01*
X153924235Y-76961157D01*
X154172000Y-77010440D01*
X155872000Y-77010440D01*
X156119765Y-76961157D01*
X156326530Y-76823000D01*
X156469682Y-76823000D01*
X156466014Y-76911028D01*
X150787916Y-83220026D01*
X145867594Y-87278023D01*
X145861300Y-87283574D01*
X130385600Y-101867372D01*
X130385600Y-101300714D01*
X130117656Y-100653840D01*
X129622560Y-100158744D01*
X128975686Y-99890800D01*
X128275514Y-99890800D01*
X127628640Y-100158744D01*
X127196184Y-100591200D01*
X124616697Y-100591200D01*
X124474986Y-100379114D01*
X124183835Y-100184574D01*
X123840400Y-100116260D01*
X122769062Y-100116260D01*
X122755000Y-100113463D01*
X122740938Y-100116260D01*
X122590400Y-100116260D01*
X122517303Y-100130800D01*
X121784386Y-100130800D01*
X121780272Y-99793441D01*
X121832600Y-99667109D01*
X121832600Y-99603925D01*
X121980701Y-99752027D01*
X122214090Y-99848700D01*
X122929650Y-99848700D01*
X123088400Y-99689950D01*
X123088400Y-98628200D01*
X123342400Y-98628200D01*
X123342400Y-99689950D01*
X123501150Y-99848700D01*
X124216710Y-99848700D01*
X124450099Y-99752027D01*
X124628727Y-99573398D01*
X124725400Y-99340009D01*
X124725400Y-98786950D01*
X124566650Y-98628200D01*
X123342400Y-98628200D01*
X123088400Y-98628200D01*
X123068400Y-98628200D01*
X123068400Y-98374200D01*
X123088400Y-98374200D01*
X123088400Y-97312450D01*
X123342400Y-97312450D01*
X123342400Y-98374200D01*
X124566650Y-98374200D01*
X124725400Y-98215450D01*
X124725400Y-97662391D01*
X124628727Y-97429002D01*
X124450099Y-97250373D01*
X124216710Y-97153700D01*
X123501150Y-97153700D01*
X123342400Y-97312450D01*
X123088400Y-97312450D01*
X122929650Y-97153700D01*
X122214090Y-97153700D01*
X121980701Y-97250373D01*
X121802073Y-97429002D01*
X121752885Y-97547753D01*
X121744456Y-96856550D01*
X126865600Y-96856550D01*
X126865600Y-97822109D01*
X126962273Y-98055498D01*
X127140901Y-98234127D01*
X127374290Y-98330800D01*
X128339850Y-98330800D01*
X128498600Y-98172050D01*
X128498600Y-96697800D01*
X128752600Y-96697800D01*
X128752600Y-98172050D01*
X128911350Y-98330800D01*
X129876910Y-98330800D01*
X130110299Y-98234127D01*
X130288927Y-98055498D01*
X130385600Y-97822109D01*
X130385600Y-96856550D01*
X130226850Y-96697800D01*
X128752600Y-96697800D01*
X128498600Y-96697800D01*
X127024350Y-96697800D01*
X126865600Y-96856550D01*
X121744456Y-96856550D01*
X121743311Y-96762704D01*
X127136632Y-94911742D01*
X126962273Y-95086102D01*
X126865600Y-95319491D01*
X126865600Y-96285050D01*
X127024350Y-96443800D01*
X128498600Y-96443800D01*
X128498600Y-94969550D01*
X128752600Y-94969550D01*
X128752600Y-96443800D01*
X130226850Y-96443800D01*
X130385600Y-96285050D01*
X130385600Y-95319491D01*
X130288927Y-95086102D01*
X130110299Y-94907473D01*
X129876910Y-94810800D01*
X128911350Y-94810800D01*
X128752600Y-94969550D01*
X128498600Y-94969550D01*
X128339850Y-94810800D01*
X127430756Y-94810800D01*
X130241626Y-93846123D01*
X130271944Y-93830931D01*
X142565544Y-85448931D01*
X142600253Y-85413565D01*
X142620954Y-85347431D01*
X142715777Y-81839000D01*
X143464250Y-81839000D01*
X143623000Y-81680250D01*
X143623000Y-81026000D01*
X143877000Y-81026000D01*
X143877000Y-81680250D01*
X144035750Y-81839000D01*
X144831309Y-81839000D01*
X145064698Y-81742327D01*
X145243327Y-81563699D01*
X145340000Y-81330310D01*
X145340000Y-81184750D01*
X145181250Y-81026000D01*
X143877000Y-81026000D01*
X143623000Y-81026000D01*
X143603000Y-81026000D01*
X143603000Y-80772000D01*
X143623000Y-80772000D01*
X143623000Y-80752000D01*
X143877000Y-80752000D01*
X143877000Y-80772000D01*
X145181250Y-80772000D01*
X145340000Y-80613250D01*
X145340000Y-80507790D01*
X145717126Y-80664000D01*
X146128874Y-80664000D01*
X146186211Y-80640250D01*
X147207000Y-80640250D01*
X147207000Y-81193309D01*
X147303673Y-81426698D01*
X147482301Y-81605327D01*
X147715690Y-81702000D01*
X148431250Y-81702000D01*
X148590000Y-81543250D01*
X148590000Y-80481500D01*
X148844000Y-80481500D01*
X148844000Y-81543250D01*
X149002750Y-81702000D01*
X149718310Y-81702000D01*
X149951699Y-81605327D01*
X150130327Y-81426698D01*
X150227000Y-81193309D01*
X150227000Y-80640250D01*
X150068250Y-80481500D01*
X148844000Y-80481500D01*
X148590000Y-80481500D01*
X147365750Y-80481500D01*
X147207000Y-80640250D01*
X146186211Y-80640250D01*
X146509280Y-80506431D01*
X146800431Y-80215280D01*
X146958000Y-79834874D01*
X146958000Y-79423126D01*
X146952680Y-79410283D01*
X147295504Y-79302023D01*
X147207000Y-79515691D01*
X147207000Y-80068750D01*
X147365750Y-80227500D01*
X148590000Y-80227500D01*
X148590000Y-80207500D01*
X148844000Y-80207500D01*
X148844000Y-80227500D01*
X150068250Y-80227500D01*
X150227000Y-80068750D01*
X150227000Y-79515691D01*
X150154101Y-79339698D01*
X150159269Y-79338868D01*
X150201461Y-79312882D01*
X150228524Y-79276836D01*
X152859317Y-74041000D01*
X153745974Y-74041000D01*
X153633673Y-74153302D01*
G04 #@! TO.N,/-VREG*
G36*
X160031338Y-80047066D02*
X159697141Y-111127328D01*
X159574600Y-111288808D01*
X159236199Y-111557083D01*
X158975757Y-111673075D01*
X155896375Y-111633848D01*
X155711881Y-111365593D01*
X155701693Y-110810350D01*
X155750864Y-110859521D01*
X156264320Y-111072201D01*
X156820082Y-111072201D01*
X157333538Y-110859521D01*
X157726521Y-110466538D01*
X157939201Y-109953082D01*
X157939201Y-109397320D01*
X157726521Y-108883864D01*
X157333538Y-108490881D01*
X157126688Y-108405201D01*
X157333538Y-108319521D01*
X157726521Y-107926538D01*
X157939201Y-107413082D01*
X157939201Y-106857320D01*
X157726521Y-106343864D01*
X157333538Y-105950881D01*
X157122554Y-105863489D01*
X157233344Y-105817598D01*
X157302809Y-105575414D01*
X156502201Y-104774806D01*
X155701593Y-105575414D01*
X155771058Y-105817598D01*
X155933084Y-105875403D01*
X155750864Y-105950881D01*
X155453646Y-106248099D01*
X155448049Y-106239378D01*
X155244625Y-106097936D01*
X155002557Y-106045109D01*
X154672000Y-106038988D01*
X154672000Y-105848150D01*
X154513250Y-105689400D01*
X153289000Y-105689400D01*
X153289000Y-105709400D01*
X153035000Y-105709400D01*
X153035000Y-105689400D01*
X153015000Y-105689400D01*
X153015000Y-105435400D01*
X153035000Y-105435400D01*
X153035000Y-104373650D01*
X153289000Y-104373650D01*
X153289000Y-105435400D01*
X154513250Y-105435400D01*
X154672000Y-105276650D01*
X154672000Y-104723591D01*
X154575327Y-104490202D01*
X154472629Y-104387503D01*
X155093057Y-104387503D01*
X155120839Y-104942569D01*
X155279804Y-105326344D01*
X155521988Y-105395809D01*
X156322596Y-104595201D01*
X156681806Y-104595201D01*
X157482414Y-105395809D01*
X157724598Y-105326344D01*
X157911345Y-104802899D01*
X157883563Y-104247833D01*
X157724598Y-103864058D01*
X157482414Y-103794593D01*
X156681806Y-104595201D01*
X156322596Y-104595201D01*
X155521988Y-103794593D01*
X155279804Y-103864058D01*
X155093057Y-104387503D01*
X154472629Y-104387503D01*
X154396699Y-104311573D01*
X154163310Y-104214900D01*
X153447750Y-104214900D01*
X153289000Y-104373650D01*
X153035000Y-104373650D01*
X152876250Y-104214900D01*
X152160690Y-104214900D01*
X151927301Y-104311573D01*
X151748673Y-104490202D01*
X151652000Y-104723591D01*
X151652000Y-105276650D01*
X151810748Y-105435398D01*
X151652000Y-105435398D01*
X151652000Y-105462501D01*
X150381364Y-103614988D01*
X155701593Y-103614988D01*
X156502201Y-104415596D01*
X157302809Y-103614988D01*
X157233344Y-103372804D01*
X157131347Y-103336415D01*
X157273344Y-103277598D01*
X157342809Y-103035414D01*
X156542201Y-102234806D01*
X155741593Y-103035414D01*
X155811058Y-103277598D01*
X155913055Y-103313987D01*
X155771058Y-103372804D01*
X155701593Y-103614988D01*
X150381364Y-103614988D01*
X149165767Y-101847503D01*
X155133057Y-101847503D01*
X155160839Y-102402569D01*
X155319804Y-102786344D01*
X155561988Y-102855809D01*
X156362596Y-102055201D01*
X156721806Y-102055201D01*
X157522414Y-102855809D01*
X157764598Y-102786344D01*
X157951345Y-102262899D01*
X157923563Y-101707833D01*
X157764598Y-101324058D01*
X157522414Y-101254593D01*
X156721806Y-102055201D01*
X156362596Y-102055201D01*
X155561988Y-101254593D01*
X155319804Y-101324058D01*
X155133057Y-101847503D01*
X149165767Y-101847503D01*
X148634466Y-101074988D01*
X155741593Y-101074988D01*
X156542201Y-101875596D01*
X157342809Y-101074988D01*
X157273344Y-100832804D01*
X156749899Y-100646057D01*
X156194833Y-100673839D01*
X155811058Y-100832804D01*
X155741593Y-101074988D01*
X148634466Y-101074988D01*
X147397068Y-99275805D01*
X147479692Y-95504000D01*
X152663908Y-95504000D01*
X152779161Y-96083418D01*
X153107375Y-96574625D01*
X153405761Y-96774000D01*
X153107375Y-96973375D01*
X152779161Y-97464582D01*
X152663908Y-98044000D01*
X152779161Y-98623418D01*
X153107375Y-99114625D01*
X153598582Y-99442839D01*
X154031744Y-99529000D01*
X154324256Y-99529000D01*
X154757418Y-99442839D01*
X155248625Y-99114625D01*
X155576839Y-98623418D01*
X155692092Y-98044000D01*
X155576839Y-97464582D01*
X155248625Y-96973375D01*
X154950239Y-96774000D01*
X155248625Y-96574625D01*
X155576839Y-96083418D01*
X155692092Y-95504000D01*
X155576839Y-94924582D01*
X155248625Y-94433375D01*
X155230381Y-94421184D01*
X155275765Y-94412157D01*
X155485809Y-94271809D01*
X155626157Y-94061765D01*
X155675440Y-93814000D01*
X155675440Y-92114000D01*
X155626157Y-91866235D01*
X155485809Y-91656191D01*
X155275765Y-91515843D01*
X155028000Y-91466560D01*
X153328000Y-91466560D01*
X153080235Y-91515843D01*
X152870191Y-91656191D01*
X152729843Y-91866235D01*
X152680560Y-92114000D01*
X152680560Y-93814000D01*
X152729843Y-94061765D01*
X152870191Y-94271809D01*
X153080235Y-94412157D01*
X153125619Y-94421184D01*
X153107375Y-94433375D01*
X152779161Y-94924582D01*
X152663908Y-95504000D01*
X147479692Y-95504000D01*
X147596017Y-90193747D01*
X147882258Y-90193747D01*
X147996221Y-90473573D01*
X148651229Y-90720970D01*
X149351051Y-90698875D01*
X149894979Y-90473573D01*
X150008942Y-90193747D01*
X148945600Y-89130405D01*
X147882258Y-90193747D01*
X147596017Y-90193747D01*
X147600860Y-89972685D01*
X147702653Y-90014142D01*
X148765995Y-88950800D01*
X149125205Y-88950800D01*
X150188547Y-90014142D01*
X150468373Y-89900179D01*
X150715770Y-89245171D01*
X150693675Y-88545349D01*
X150468373Y-88001421D01*
X150188547Y-87887458D01*
X149125205Y-88950800D01*
X148765995Y-88950800D01*
X148751853Y-88936658D01*
X148931458Y-88757053D01*
X148945600Y-88771195D01*
X150008942Y-87707853D01*
X149894979Y-87428027D01*
X149239971Y-87180630D01*
X148540149Y-87202725D01*
X147999283Y-87426758D01*
X148898811Y-86537320D01*
X155145201Y-86537320D01*
X155145201Y-87093082D01*
X155357881Y-87606538D01*
X155750864Y-87999521D01*
X155957714Y-88085201D01*
X155750864Y-88170881D01*
X155357881Y-88563864D01*
X155145201Y-89077320D01*
X155145201Y-89633082D01*
X155357881Y-90146538D01*
X155750864Y-90539521D01*
X156264320Y-90752201D01*
X156820082Y-90752201D01*
X157333538Y-90539521D01*
X157726521Y-90146538D01*
X157939201Y-89633082D01*
X157939201Y-89077320D01*
X157726521Y-88563864D01*
X157333538Y-88170881D01*
X157126688Y-88085201D01*
X157333538Y-87999521D01*
X157726521Y-87606538D01*
X157939201Y-87093082D01*
X157939201Y-86537320D01*
X157726521Y-86023864D01*
X157333538Y-85630881D01*
X157142554Y-85551773D01*
X157273344Y-85497598D01*
X157342809Y-85255414D01*
X156542201Y-84454806D01*
X155741593Y-85255414D01*
X155811058Y-85497598D01*
X155951594Y-85547736D01*
X155750864Y-85630881D01*
X155357881Y-86023864D01*
X155145201Y-86537320D01*
X148898811Y-86537320D01*
X151396649Y-84067503D01*
X155133057Y-84067503D01*
X155160839Y-84622569D01*
X155319804Y-85006344D01*
X155561988Y-85075809D01*
X156362596Y-84275201D01*
X156721806Y-84275201D01*
X157522414Y-85075809D01*
X157764598Y-85006344D01*
X157951345Y-84482899D01*
X157923563Y-83927833D01*
X157764598Y-83544058D01*
X157522414Y-83474593D01*
X156721806Y-84275201D01*
X156362596Y-84275201D01*
X155561988Y-83474593D01*
X155319804Y-83544058D01*
X155133057Y-84067503D01*
X151396649Y-84067503D01*
X152764077Y-82715414D01*
X155741593Y-82715414D01*
X155811058Y-82957598D01*
X155934545Y-83001654D01*
X155811058Y-83052804D01*
X155741593Y-83294988D01*
X156542201Y-84095596D01*
X157342809Y-83294988D01*
X157273344Y-83052804D01*
X157149857Y-83008748D01*
X157273344Y-82957598D01*
X157342809Y-82715414D01*
X156542201Y-81914806D01*
X155741593Y-82715414D01*
X152764077Y-82715414D01*
X153965466Y-81527503D01*
X155133057Y-81527503D01*
X155160839Y-82082569D01*
X155319804Y-82466344D01*
X155561988Y-82535809D01*
X156362596Y-81735201D01*
X156721806Y-81735201D01*
X157522414Y-82535809D01*
X157764598Y-82466344D01*
X157951345Y-81942899D01*
X157923563Y-81387833D01*
X157764598Y-81004058D01*
X157522414Y-80934593D01*
X156721806Y-81735201D01*
X156362596Y-81735201D01*
X155561988Y-80934593D01*
X155319804Y-81004058D01*
X155133057Y-81527503D01*
X153965466Y-81527503D01*
X154746746Y-80754988D01*
X155741593Y-80754988D01*
X156542201Y-81555596D01*
X157342809Y-80754988D01*
X157273344Y-80512804D01*
X156749899Y-80326057D01*
X156194833Y-80353839D01*
X155811058Y-80512804D01*
X155741593Y-80754988D01*
X154746746Y-80754988D01*
X155499759Y-80010423D01*
X160031338Y-80047066D01*
X160031338Y-80047066D01*
G37*
X160031338Y-80047066D02*
X159697141Y-111127328D01*
X159574600Y-111288808D01*
X159236199Y-111557083D01*
X158975757Y-111673075D01*
X155896375Y-111633848D01*
X155711881Y-111365593D01*
X155701693Y-110810350D01*
X155750864Y-110859521D01*
X156264320Y-111072201D01*
X156820082Y-111072201D01*
X157333538Y-110859521D01*
X157726521Y-110466538D01*
X157939201Y-109953082D01*
X157939201Y-109397320D01*
X157726521Y-108883864D01*
X157333538Y-108490881D01*
X157126688Y-108405201D01*
X157333538Y-108319521D01*
X157726521Y-107926538D01*
X157939201Y-107413082D01*
X157939201Y-106857320D01*
X157726521Y-106343864D01*
X157333538Y-105950881D01*
X157122554Y-105863489D01*
X157233344Y-105817598D01*
X157302809Y-105575414D01*
X156502201Y-104774806D01*
X155701593Y-105575414D01*
X155771058Y-105817598D01*
X155933084Y-105875403D01*
X155750864Y-105950881D01*
X155453646Y-106248099D01*
X155448049Y-106239378D01*
X155244625Y-106097936D01*
X155002557Y-106045109D01*
X154672000Y-106038988D01*
X154672000Y-105848150D01*
X154513250Y-105689400D01*
X153289000Y-105689400D01*
X153289000Y-105709400D01*
X153035000Y-105709400D01*
X153035000Y-105689400D01*
X153015000Y-105689400D01*
X153015000Y-105435400D01*
X153035000Y-105435400D01*
X153035000Y-104373650D01*
X153289000Y-104373650D01*
X153289000Y-105435400D01*
X154513250Y-105435400D01*
X154672000Y-105276650D01*
X154672000Y-104723591D01*
X154575327Y-104490202D01*
X154472629Y-104387503D01*
X155093057Y-104387503D01*
X155120839Y-104942569D01*
X155279804Y-105326344D01*
X155521988Y-105395809D01*
X156322596Y-104595201D01*
X156681806Y-104595201D01*
X157482414Y-105395809D01*
X157724598Y-105326344D01*
X157911345Y-104802899D01*
X157883563Y-104247833D01*
X157724598Y-103864058D01*
X157482414Y-103794593D01*
X156681806Y-104595201D01*
X156322596Y-104595201D01*
X155521988Y-103794593D01*
X155279804Y-103864058D01*
X155093057Y-104387503D01*
X154472629Y-104387503D01*
X154396699Y-104311573D01*
X154163310Y-104214900D01*
X153447750Y-104214900D01*
X153289000Y-104373650D01*
X153035000Y-104373650D01*
X152876250Y-104214900D01*
X152160690Y-104214900D01*
X151927301Y-104311573D01*
X151748673Y-104490202D01*
X151652000Y-104723591D01*
X151652000Y-105276650D01*
X151810748Y-105435398D01*
X151652000Y-105435398D01*
X151652000Y-105462501D01*
X150381364Y-103614988D01*
X155701593Y-103614988D01*
X156502201Y-104415596D01*
X157302809Y-103614988D01*
X157233344Y-103372804D01*
X157131347Y-103336415D01*
X157273344Y-103277598D01*
X157342809Y-103035414D01*
X156542201Y-102234806D01*
X155741593Y-103035414D01*
X155811058Y-103277598D01*
X155913055Y-103313987D01*
X155771058Y-103372804D01*
X155701593Y-103614988D01*
X150381364Y-103614988D01*
X149165767Y-101847503D01*
X155133057Y-101847503D01*
X155160839Y-102402569D01*
X155319804Y-102786344D01*
X155561988Y-102855809D01*
X156362596Y-102055201D01*
X156721806Y-102055201D01*
X157522414Y-102855809D01*
X157764598Y-102786344D01*
X157951345Y-102262899D01*
X157923563Y-101707833D01*
X157764598Y-101324058D01*
X157522414Y-101254593D01*
X156721806Y-102055201D01*
X156362596Y-102055201D01*
X155561988Y-101254593D01*
X155319804Y-101324058D01*
X155133057Y-101847503D01*
X149165767Y-101847503D01*
X148634466Y-101074988D01*
X155741593Y-101074988D01*
X156542201Y-101875596D01*
X157342809Y-101074988D01*
X157273344Y-100832804D01*
X156749899Y-100646057D01*
X156194833Y-100673839D01*
X155811058Y-100832804D01*
X155741593Y-101074988D01*
X148634466Y-101074988D01*
X147397068Y-99275805D01*
X147479692Y-95504000D01*
X152663908Y-95504000D01*
X152779161Y-96083418D01*
X153107375Y-96574625D01*
X153405761Y-96774000D01*
X153107375Y-96973375D01*
X152779161Y-97464582D01*
X152663908Y-98044000D01*
X152779161Y-98623418D01*
X153107375Y-99114625D01*
X153598582Y-99442839D01*
X154031744Y-99529000D01*
X154324256Y-99529000D01*
X154757418Y-99442839D01*
X155248625Y-99114625D01*
X155576839Y-98623418D01*
X155692092Y-98044000D01*
X155576839Y-97464582D01*
X155248625Y-96973375D01*
X154950239Y-96774000D01*
X155248625Y-96574625D01*
X155576839Y-96083418D01*
X155692092Y-95504000D01*
X155576839Y-94924582D01*
X155248625Y-94433375D01*
X155230381Y-94421184D01*
X155275765Y-94412157D01*
X155485809Y-94271809D01*
X155626157Y-94061765D01*
X155675440Y-93814000D01*
X155675440Y-92114000D01*
X155626157Y-91866235D01*
X155485809Y-91656191D01*
X155275765Y-91515843D01*
X155028000Y-91466560D01*
X153328000Y-91466560D01*
X153080235Y-91515843D01*
X152870191Y-91656191D01*
X152729843Y-91866235D01*
X152680560Y-92114000D01*
X152680560Y-93814000D01*
X152729843Y-94061765D01*
X152870191Y-94271809D01*
X153080235Y-94412157D01*
X153125619Y-94421184D01*
X153107375Y-94433375D01*
X152779161Y-94924582D01*
X152663908Y-95504000D01*
X147479692Y-95504000D01*
X147596017Y-90193747D01*
X147882258Y-90193747D01*
X147996221Y-90473573D01*
X148651229Y-90720970D01*
X149351051Y-90698875D01*
X149894979Y-90473573D01*
X150008942Y-90193747D01*
X148945600Y-89130405D01*
X147882258Y-90193747D01*
X147596017Y-90193747D01*
X147600860Y-89972685D01*
X147702653Y-90014142D01*
X148765995Y-88950800D01*
X149125205Y-88950800D01*
X150188547Y-90014142D01*
X150468373Y-89900179D01*
X150715770Y-89245171D01*
X150693675Y-88545349D01*
X150468373Y-88001421D01*
X150188547Y-87887458D01*
X149125205Y-88950800D01*
X148765995Y-88950800D01*
X148751853Y-88936658D01*
X148931458Y-88757053D01*
X148945600Y-88771195D01*
X150008942Y-87707853D01*
X149894979Y-87428027D01*
X149239971Y-87180630D01*
X148540149Y-87202725D01*
X147999283Y-87426758D01*
X148898811Y-86537320D01*
X155145201Y-86537320D01*
X155145201Y-87093082D01*
X155357881Y-87606538D01*
X155750864Y-87999521D01*
X155957714Y-88085201D01*
X155750864Y-88170881D01*
X155357881Y-88563864D01*
X155145201Y-89077320D01*
X155145201Y-89633082D01*
X155357881Y-90146538D01*
X155750864Y-90539521D01*
X156264320Y-90752201D01*
X156820082Y-90752201D01*
X157333538Y-90539521D01*
X157726521Y-90146538D01*
X157939201Y-89633082D01*
X157939201Y-89077320D01*
X157726521Y-88563864D01*
X157333538Y-88170881D01*
X157126688Y-88085201D01*
X157333538Y-87999521D01*
X157726521Y-87606538D01*
X157939201Y-87093082D01*
X157939201Y-86537320D01*
X157726521Y-86023864D01*
X157333538Y-85630881D01*
X157142554Y-85551773D01*
X157273344Y-85497598D01*
X157342809Y-85255414D01*
X156542201Y-84454806D01*
X155741593Y-85255414D01*
X155811058Y-85497598D01*
X155951594Y-85547736D01*
X155750864Y-85630881D01*
X155357881Y-86023864D01*
X155145201Y-86537320D01*
X148898811Y-86537320D01*
X151396649Y-84067503D01*
X155133057Y-84067503D01*
X155160839Y-84622569D01*
X155319804Y-85006344D01*
X155561988Y-85075809D01*
X156362596Y-84275201D01*
X156721806Y-84275201D01*
X157522414Y-85075809D01*
X157764598Y-85006344D01*
X157951345Y-84482899D01*
X157923563Y-83927833D01*
X157764598Y-83544058D01*
X157522414Y-83474593D01*
X156721806Y-84275201D01*
X156362596Y-84275201D01*
X155561988Y-83474593D01*
X155319804Y-83544058D01*
X155133057Y-84067503D01*
X151396649Y-84067503D01*
X152764077Y-82715414D01*
X155741593Y-82715414D01*
X155811058Y-82957598D01*
X155934545Y-83001654D01*
X155811058Y-83052804D01*
X155741593Y-83294988D01*
X156542201Y-84095596D01*
X157342809Y-83294988D01*
X157273344Y-83052804D01*
X157149857Y-83008748D01*
X157273344Y-82957598D01*
X157342809Y-82715414D01*
X156542201Y-81914806D01*
X155741593Y-82715414D01*
X152764077Y-82715414D01*
X153965466Y-81527503D01*
X155133057Y-81527503D01*
X155160839Y-82082569D01*
X155319804Y-82466344D01*
X155561988Y-82535809D01*
X156362596Y-81735201D01*
X156721806Y-81735201D01*
X157522414Y-82535809D01*
X157764598Y-82466344D01*
X157951345Y-81942899D01*
X157923563Y-81387833D01*
X157764598Y-81004058D01*
X157522414Y-80934593D01*
X156721806Y-81735201D01*
X156362596Y-81735201D01*
X155561988Y-80934593D01*
X155319804Y-81004058D01*
X155133057Y-81527503D01*
X153965466Y-81527503D01*
X154746746Y-80754988D01*
X155741593Y-80754988D01*
X156542201Y-81555596D01*
X157342809Y-80754988D01*
X157273344Y-80512804D01*
X156749899Y-80326057D01*
X156194833Y-80353839D01*
X155811058Y-80512804D01*
X155741593Y-80754988D01*
X154746746Y-80754988D01*
X155499759Y-80010423D01*
X160031338Y-80047066D01*
G04 #@! TO.N,/VREG*
G36*
X152041477Y-106752405D02*
X152193565Y-106854026D01*
X152537000Y-106922340D01*
X153787000Y-106922340D01*
X154130435Y-106854026D01*
X154222087Y-106792786D01*
X154866067Y-106804712D01*
X154957786Y-111803404D01*
X146964928Y-111783118D01*
X146823887Y-110513747D01*
X147882258Y-110513747D01*
X147996221Y-110793573D01*
X148651229Y-111040970D01*
X149351051Y-111018875D01*
X149894979Y-110793573D01*
X150008942Y-110513747D01*
X148945600Y-109450405D01*
X147882258Y-110513747D01*
X146823887Y-110513747D01*
X146685521Y-109268460D01*
X146707152Y-108976429D01*
X147175430Y-108976429D01*
X147197525Y-109676251D01*
X147422827Y-110220179D01*
X147702653Y-110334142D01*
X148765995Y-109270800D01*
X149125205Y-109270800D01*
X150188547Y-110334142D01*
X150468373Y-110220179D01*
X150715770Y-109565171D01*
X150693675Y-108865349D01*
X150676196Y-108823150D01*
X151652000Y-108823150D01*
X151652000Y-109376209D01*
X151748673Y-109609598D01*
X151927301Y-109788227D01*
X152160690Y-109884900D01*
X152876250Y-109884900D01*
X153035000Y-109726150D01*
X153035000Y-108664400D01*
X153289000Y-108664400D01*
X153289000Y-109726150D01*
X153447750Y-109884900D01*
X154163310Y-109884900D01*
X154396699Y-109788227D01*
X154575327Y-109609598D01*
X154672000Y-109376209D01*
X154672000Y-108823150D01*
X154513250Y-108664400D01*
X153289000Y-108664400D01*
X153035000Y-108664400D01*
X151810750Y-108664400D01*
X151652000Y-108823150D01*
X150676196Y-108823150D01*
X150468373Y-108321421D01*
X150188547Y-108207458D01*
X149125205Y-109270800D01*
X148765995Y-109270800D01*
X147702653Y-108207458D01*
X147422827Y-108321421D01*
X147175430Y-108976429D01*
X146707152Y-108976429D01*
X146777417Y-108027853D01*
X147882258Y-108027853D01*
X148945600Y-109091195D01*
X150008942Y-108027853D01*
X149894979Y-107748027D01*
X149764093Y-107698591D01*
X151652000Y-107698591D01*
X151652000Y-108251650D01*
X151810750Y-108410400D01*
X153035000Y-108410400D01*
X153035000Y-107348650D01*
X153289000Y-107348650D01*
X153289000Y-108410400D01*
X154513250Y-108410400D01*
X154672000Y-108251650D01*
X154672000Y-107698591D01*
X154575327Y-107465202D01*
X154396699Y-107286573D01*
X154163310Y-107189900D01*
X153447750Y-107189900D01*
X153289000Y-107348650D01*
X153035000Y-107348650D01*
X152876250Y-107189900D01*
X152160690Y-107189900D01*
X151927301Y-107286573D01*
X151748673Y-107465202D01*
X151652000Y-107698591D01*
X149764093Y-107698591D01*
X149239971Y-107500630D01*
X148540149Y-107522725D01*
X147996221Y-107748027D01*
X147882258Y-108027853D01*
X146777417Y-108027853D01*
X146878977Y-106656803D01*
X152041477Y-106752405D01*
X152041477Y-106752405D01*
G37*
X152041477Y-106752405D02*
X152193565Y-106854026D01*
X152537000Y-106922340D01*
X153787000Y-106922340D01*
X154130435Y-106854026D01*
X154222087Y-106792786D01*
X154866067Y-106804712D01*
X154957786Y-111803404D01*
X146964928Y-111783118D01*
X146823887Y-110513747D01*
X147882258Y-110513747D01*
X147996221Y-110793573D01*
X148651229Y-111040970D01*
X149351051Y-111018875D01*
X149894979Y-110793573D01*
X150008942Y-110513747D01*
X148945600Y-109450405D01*
X147882258Y-110513747D01*
X146823887Y-110513747D01*
X146685521Y-109268460D01*
X146707152Y-108976429D01*
X147175430Y-108976429D01*
X147197525Y-109676251D01*
X147422827Y-110220179D01*
X147702653Y-110334142D01*
X148765995Y-109270800D01*
X149125205Y-109270800D01*
X150188547Y-110334142D01*
X150468373Y-110220179D01*
X150715770Y-109565171D01*
X150693675Y-108865349D01*
X150676196Y-108823150D01*
X151652000Y-108823150D01*
X151652000Y-109376209D01*
X151748673Y-109609598D01*
X151927301Y-109788227D01*
X152160690Y-109884900D01*
X152876250Y-109884900D01*
X153035000Y-109726150D01*
X153035000Y-108664400D01*
X153289000Y-108664400D01*
X153289000Y-109726150D01*
X153447750Y-109884900D01*
X154163310Y-109884900D01*
X154396699Y-109788227D01*
X154575327Y-109609598D01*
X154672000Y-109376209D01*
X154672000Y-108823150D01*
X154513250Y-108664400D01*
X153289000Y-108664400D01*
X153035000Y-108664400D01*
X151810750Y-108664400D01*
X151652000Y-108823150D01*
X150676196Y-108823150D01*
X150468373Y-108321421D01*
X150188547Y-108207458D01*
X149125205Y-109270800D01*
X148765995Y-109270800D01*
X147702653Y-108207458D01*
X147422827Y-108321421D01*
X147175430Y-108976429D01*
X146707152Y-108976429D01*
X146777417Y-108027853D01*
X147882258Y-108027853D01*
X148945600Y-109091195D01*
X150008942Y-108027853D01*
X149894979Y-107748027D01*
X149764093Y-107698591D01*
X151652000Y-107698591D01*
X151652000Y-108251650D01*
X151810750Y-108410400D01*
X153035000Y-108410400D01*
X153035000Y-107348650D01*
X153289000Y-107348650D01*
X153289000Y-108410400D01*
X154513250Y-108410400D01*
X154672000Y-108251650D01*
X154672000Y-107698591D01*
X154575327Y-107465202D01*
X154396699Y-107286573D01*
X154163310Y-107189900D01*
X153447750Y-107189900D01*
X153289000Y-107348650D01*
X153035000Y-107348650D01*
X152876250Y-107189900D01*
X152160690Y-107189900D01*
X151927301Y-107286573D01*
X151748673Y-107465202D01*
X151652000Y-107698591D01*
X149764093Y-107698591D01*
X149239971Y-107500630D01*
X148540149Y-107522725D01*
X147996221Y-107748027D01*
X147882258Y-108027853D01*
X146777417Y-108027853D01*
X146878977Y-106656803D01*
X152041477Y-106752405D01*
G04 #@! TD*
M02*
