G04 #@! TF.GenerationSoftware,KiCad,Pcbnew,(5.0.0)*
G04 #@! TF.CreationDate,2019-03-29T23:21:28-04:00*
G04 #@! TF.ProjectId,PoEShield,506F45536869656C642E6B696361645F,rev?*
G04 #@! TF.SameCoordinates,Original*
G04 #@! TF.FileFunction,Soldermask,Bot*
G04 #@! TF.FilePolarity,Negative*
%FSLAX46Y46*%
G04 Gerber Fmt 4.6, Leading zero omitted, Abs format (unit mm)*
G04 Created by KiCad (PCBNEW (5.0.0)) date 03/29/19 23:21:28*
%MOMM*%
%LPD*%
G01*
G04 APERTURE LIST*
%ADD10R,2.650000X2.650000*%
%ADD11C,2.650000*%
%ADD12C,1.900000*%
%ADD13R,1.900000X1.900000*%
%ADD14C,3.600000*%
%ADD15R,2.100000X2.100000*%
%ADD16O,2.100000X2.100000*%
%ADD17C,1.924000*%
%ADD18C,0.100000*%
%ADD19C,1.825000*%
G04 APERTURE END LIST*
D10*
G04 #@! TO.C,U3*
X128625600Y-96570800D03*
D11*
X128625600Y-101650800D03*
X148945600Y-109270800D03*
X148945600Y-88950800D03*
X128625600Y-88950800D03*
G04 #@! TD*
D12*
G04 #@! TO.C,J1*
X108966000Y-94996000D03*
X107696000Y-97536000D03*
X106426000Y-94996000D03*
X105156000Y-97536000D03*
X103886000Y-94996000D03*
X102616000Y-97536000D03*
X101346000Y-94996000D03*
D13*
X100076000Y-97536000D03*
D14*
X98806000Y-103886000D03*
X110236000Y-103886000D03*
G04 #@! TD*
D15*
G04 #@! TO.C,J3*
X154178000Y-92964000D03*
D16*
X154178000Y-95504000D03*
X154178000Y-98044000D03*
G04 #@! TD*
D17*
G04 #@! TO.C,U2*
X116102201Y-81685201D03*
X116102201Y-84225201D03*
X116102201Y-86765201D03*
X116102201Y-89305201D03*
X116102201Y-91845201D03*
X116102201Y-94385201D03*
X116102201Y-96925201D03*
X116102201Y-99465201D03*
X116102201Y-102005201D03*
X116102201Y-104545201D03*
X116102201Y-107085201D03*
X116102201Y-109625201D03*
X156542201Y-109675201D03*
X156542201Y-107135201D03*
X156502201Y-104595201D03*
X156542201Y-102055201D03*
X156542201Y-89355201D03*
X156542201Y-86815201D03*
X156542201Y-84275201D03*
X156542201Y-81735201D03*
G04 #@! TD*
D18*
G04 #@! TO.C,C6*
G36*
X137361407Y-103612642D02*
X137392487Y-103617252D01*
X137422966Y-103624887D01*
X137452550Y-103635472D01*
X137480954Y-103648906D01*
X137507904Y-103665059D01*
X137533142Y-103683777D01*
X137556423Y-103704877D01*
X137577523Y-103728158D01*
X137596241Y-103753396D01*
X137612394Y-103780346D01*
X137625828Y-103808750D01*
X137636413Y-103838334D01*
X137644048Y-103868813D01*
X137648658Y-103899893D01*
X137650200Y-103931276D01*
X137650200Y-105440924D01*
X137648658Y-105472307D01*
X137644048Y-105503387D01*
X137636413Y-105533866D01*
X137625828Y-105563450D01*
X137612394Y-105591854D01*
X137596241Y-105618804D01*
X137577523Y-105644042D01*
X137556423Y-105667323D01*
X137533142Y-105688423D01*
X137507904Y-105707141D01*
X137480954Y-105723294D01*
X137452550Y-105736728D01*
X137422966Y-105747313D01*
X137392487Y-105754948D01*
X137361407Y-105759558D01*
X137330024Y-105761100D01*
X136145376Y-105761100D01*
X136113993Y-105759558D01*
X136082913Y-105754948D01*
X136052434Y-105747313D01*
X136022850Y-105736728D01*
X135994446Y-105723294D01*
X135967496Y-105707141D01*
X135942258Y-105688423D01*
X135918977Y-105667323D01*
X135897877Y-105644042D01*
X135879159Y-105618804D01*
X135863006Y-105591854D01*
X135849572Y-105563450D01*
X135838987Y-105533866D01*
X135831352Y-105503387D01*
X135826742Y-105472307D01*
X135825200Y-105440924D01*
X135825200Y-103931276D01*
X135826742Y-103899893D01*
X135831352Y-103868813D01*
X135838987Y-103838334D01*
X135849572Y-103808750D01*
X135863006Y-103780346D01*
X135879159Y-103753396D01*
X135897877Y-103728158D01*
X135918977Y-103704877D01*
X135942258Y-103683777D01*
X135967496Y-103665059D01*
X135994446Y-103648906D01*
X136022850Y-103635472D01*
X136052434Y-103624887D01*
X136082913Y-103617252D01*
X136113993Y-103612642D01*
X136145376Y-103611100D01*
X137330024Y-103611100D01*
X137361407Y-103612642D01*
X137361407Y-103612642D01*
G37*
D19*
X136737700Y-104686100D03*
D18*
G36*
X140336407Y-103612642D02*
X140367487Y-103617252D01*
X140397966Y-103624887D01*
X140427550Y-103635472D01*
X140455954Y-103648906D01*
X140482904Y-103665059D01*
X140508142Y-103683777D01*
X140531423Y-103704877D01*
X140552523Y-103728158D01*
X140571241Y-103753396D01*
X140587394Y-103780346D01*
X140600828Y-103808750D01*
X140611413Y-103838334D01*
X140619048Y-103868813D01*
X140623658Y-103899893D01*
X140625200Y-103931276D01*
X140625200Y-105440924D01*
X140623658Y-105472307D01*
X140619048Y-105503387D01*
X140611413Y-105533866D01*
X140600828Y-105563450D01*
X140587394Y-105591854D01*
X140571241Y-105618804D01*
X140552523Y-105644042D01*
X140531423Y-105667323D01*
X140508142Y-105688423D01*
X140482904Y-105707141D01*
X140455954Y-105723294D01*
X140427550Y-105736728D01*
X140397966Y-105747313D01*
X140367487Y-105754948D01*
X140336407Y-105759558D01*
X140305024Y-105761100D01*
X139120376Y-105761100D01*
X139088993Y-105759558D01*
X139057913Y-105754948D01*
X139027434Y-105747313D01*
X138997850Y-105736728D01*
X138969446Y-105723294D01*
X138942496Y-105707141D01*
X138917258Y-105688423D01*
X138893977Y-105667323D01*
X138872877Y-105644042D01*
X138854159Y-105618804D01*
X138838006Y-105591854D01*
X138824572Y-105563450D01*
X138813987Y-105533866D01*
X138806352Y-105503387D01*
X138801742Y-105472307D01*
X138800200Y-105440924D01*
X138800200Y-103931276D01*
X138801742Y-103899893D01*
X138806352Y-103868813D01*
X138813987Y-103838334D01*
X138824572Y-103808750D01*
X138838006Y-103780346D01*
X138854159Y-103753396D01*
X138872877Y-103728158D01*
X138893977Y-103704877D01*
X138917258Y-103683777D01*
X138942496Y-103665059D01*
X138969446Y-103648906D01*
X138997850Y-103635472D01*
X139027434Y-103624887D01*
X139057913Y-103617252D01*
X139088993Y-103612642D01*
X139120376Y-103611100D01*
X140305024Y-103611100D01*
X140336407Y-103612642D01*
X140336407Y-103612642D01*
G37*
D19*
X139712700Y-104686100D03*
G04 #@! TD*
D18*
G04 #@! TO.C,C7*
G36*
X140350707Y-101174242D02*
X140381787Y-101178852D01*
X140412266Y-101186487D01*
X140441850Y-101197072D01*
X140470254Y-101210506D01*
X140497204Y-101226659D01*
X140522442Y-101245377D01*
X140545723Y-101266477D01*
X140566823Y-101289758D01*
X140585541Y-101314996D01*
X140601694Y-101341946D01*
X140615128Y-101370350D01*
X140625713Y-101399934D01*
X140633348Y-101430413D01*
X140637958Y-101461493D01*
X140639500Y-101492876D01*
X140639500Y-103002524D01*
X140637958Y-103033907D01*
X140633348Y-103064987D01*
X140625713Y-103095466D01*
X140615128Y-103125050D01*
X140601694Y-103153454D01*
X140585541Y-103180404D01*
X140566823Y-103205642D01*
X140545723Y-103228923D01*
X140522442Y-103250023D01*
X140497204Y-103268741D01*
X140470254Y-103284894D01*
X140441850Y-103298328D01*
X140412266Y-103308913D01*
X140381787Y-103316548D01*
X140350707Y-103321158D01*
X140319324Y-103322700D01*
X139134676Y-103322700D01*
X139103293Y-103321158D01*
X139072213Y-103316548D01*
X139041734Y-103308913D01*
X139012150Y-103298328D01*
X138983746Y-103284894D01*
X138956796Y-103268741D01*
X138931558Y-103250023D01*
X138908277Y-103228923D01*
X138887177Y-103205642D01*
X138868459Y-103180404D01*
X138852306Y-103153454D01*
X138838872Y-103125050D01*
X138828287Y-103095466D01*
X138820652Y-103064987D01*
X138816042Y-103033907D01*
X138814500Y-103002524D01*
X138814500Y-101492876D01*
X138816042Y-101461493D01*
X138820652Y-101430413D01*
X138828287Y-101399934D01*
X138838872Y-101370350D01*
X138852306Y-101341946D01*
X138868459Y-101314996D01*
X138887177Y-101289758D01*
X138908277Y-101266477D01*
X138931558Y-101245377D01*
X138956796Y-101226659D01*
X138983746Y-101210506D01*
X139012150Y-101197072D01*
X139041734Y-101186487D01*
X139072213Y-101178852D01*
X139103293Y-101174242D01*
X139134676Y-101172700D01*
X140319324Y-101172700D01*
X140350707Y-101174242D01*
X140350707Y-101174242D01*
G37*
D19*
X139727000Y-102247700D03*
D18*
G36*
X137375707Y-101174242D02*
X137406787Y-101178852D01*
X137437266Y-101186487D01*
X137466850Y-101197072D01*
X137495254Y-101210506D01*
X137522204Y-101226659D01*
X137547442Y-101245377D01*
X137570723Y-101266477D01*
X137591823Y-101289758D01*
X137610541Y-101314996D01*
X137626694Y-101341946D01*
X137640128Y-101370350D01*
X137650713Y-101399934D01*
X137658348Y-101430413D01*
X137662958Y-101461493D01*
X137664500Y-101492876D01*
X137664500Y-103002524D01*
X137662958Y-103033907D01*
X137658348Y-103064987D01*
X137650713Y-103095466D01*
X137640128Y-103125050D01*
X137626694Y-103153454D01*
X137610541Y-103180404D01*
X137591823Y-103205642D01*
X137570723Y-103228923D01*
X137547442Y-103250023D01*
X137522204Y-103268741D01*
X137495254Y-103284894D01*
X137466850Y-103298328D01*
X137437266Y-103308913D01*
X137406787Y-103316548D01*
X137375707Y-103321158D01*
X137344324Y-103322700D01*
X136159676Y-103322700D01*
X136128293Y-103321158D01*
X136097213Y-103316548D01*
X136066734Y-103308913D01*
X136037150Y-103298328D01*
X136008746Y-103284894D01*
X135981796Y-103268741D01*
X135956558Y-103250023D01*
X135933277Y-103228923D01*
X135912177Y-103205642D01*
X135893459Y-103180404D01*
X135877306Y-103153454D01*
X135863872Y-103125050D01*
X135853287Y-103095466D01*
X135845652Y-103064987D01*
X135841042Y-103033907D01*
X135839500Y-103002524D01*
X135839500Y-101492876D01*
X135841042Y-101461493D01*
X135845652Y-101430413D01*
X135853287Y-101399934D01*
X135863872Y-101370350D01*
X135877306Y-101341946D01*
X135893459Y-101314996D01*
X135912177Y-101289758D01*
X135933277Y-101266477D01*
X135956558Y-101245377D01*
X135981796Y-101226659D01*
X136008746Y-101210506D01*
X136037150Y-101197072D01*
X136066734Y-101186487D01*
X136097213Y-101178852D01*
X136128293Y-101174242D01*
X136159676Y-101172700D01*
X137344324Y-101172700D01*
X137375707Y-101174242D01*
X137375707Y-101174242D01*
G37*
D19*
X136752000Y-102247700D03*
G04 #@! TD*
M02*
