G04 #@! TF.GenerationSoftware,KiCad,Pcbnew,(5.0.0)*
G04 #@! TF.CreationDate,2019-03-29T23:21:28-04:00*
G04 #@! TF.ProjectId,PoEShield,506F45536869656C642E6B696361645F,rev?*
G04 #@! TF.SameCoordinates,Original*
G04 #@! TF.FileFunction,Paste,Top*
G04 #@! TF.FilePolarity,Positive*
%FSLAX46Y46*%
G04 Gerber Fmt 4.6, Leading zero omitted, Abs format (unit mm)*
G04 Created by KiCad (PCBNEW (5.0.0)) date 03/29/19 23:21:28*
%MOMM*%
%LPD*%
G01*
G04 APERTURE LIST*
%ADD10R,0.558800X1.600200*%
%ADD11C,0.100000*%
%ADD12C,1.150000*%
%ADD13R,1.630000X2.180400*%
%ADD14R,1.000000X0.700000*%
%ADD15R,1.700000X0.600000*%
%ADD16R,2.800000X1.000000*%
%ADD17R,1.910000X0.610000*%
%ADD18R,0.723000X0.930000*%
%ADD19C,1.425000*%
G04 APERTURE END LIST*
D10*
G04 #@! TO.C,T1*
X100076000Y-81280000D03*
X101346000Y-81280000D03*
X102616000Y-81280000D03*
X103886000Y-81280000D03*
X105156000Y-81280000D03*
X106426000Y-81280000D03*
X107696000Y-81280000D03*
X108966000Y-81280000D03*
X108966000Y-89916000D03*
X107696000Y-89916000D03*
X106426000Y-89916000D03*
X105156000Y-89916000D03*
X103886000Y-89916000D03*
X102616000Y-89916000D03*
X101346000Y-89916000D03*
X100076000Y-89916000D03*
G04 #@! TD*
D11*
G04 #@! TO.C,C1*
G36*
X132681505Y-77894204D02*
X132705773Y-77897804D01*
X132729572Y-77903765D01*
X132752671Y-77912030D01*
X132774850Y-77922520D01*
X132795893Y-77935132D01*
X132815599Y-77949747D01*
X132833777Y-77966223D01*
X132850253Y-77984401D01*
X132864868Y-78004107D01*
X132877480Y-78025150D01*
X132887970Y-78047329D01*
X132896235Y-78070428D01*
X132902196Y-78094227D01*
X132905796Y-78118495D01*
X132907000Y-78142999D01*
X132907000Y-78793001D01*
X132905796Y-78817505D01*
X132902196Y-78841773D01*
X132896235Y-78865572D01*
X132887970Y-78888671D01*
X132877480Y-78910850D01*
X132864868Y-78931893D01*
X132850253Y-78951599D01*
X132833777Y-78969777D01*
X132815599Y-78986253D01*
X132795893Y-79000868D01*
X132774850Y-79013480D01*
X132752671Y-79023970D01*
X132729572Y-79032235D01*
X132705773Y-79038196D01*
X132681505Y-79041796D01*
X132657001Y-79043000D01*
X131756999Y-79043000D01*
X131732495Y-79041796D01*
X131708227Y-79038196D01*
X131684428Y-79032235D01*
X131661329Y-79023970D01*
X131639150Y-79013480D01*
X131618107Y-79000868D01*
X131598401Y-78986253D01*
X131580223Y-78969777D01*
X131563747Y-78951599D01*
X131549132Y-78931893D01*
X131536520Y-78910850D01*
X131526030Y-78888671D01*
X131517765Y-78865572D01*
X131511804Y-78841773D01*
X131508204Y-78817505D01*
X131507000Y-78793001D01*
X131507000Y-78142999D01*
X131508204Y-78118495D01*
X131511804Y-78094227D01*
X131517765Y-78070428D01*
X131526030Y-78047329D01*
X131536520Y-78025150D01*
X131549132Y-78004107D01*
X131563747Y-77984401D01*
X131580223Y-77966223D01*
X131598401Y-77949747D01*
X131618107Y-77935132D01*
X131639150Y-77922520D01*
X131661329Y-77912030D01*
X131684428Y-77903765D01*
X131708227Y-77897804D01*
X131732495Y-77894204D01*
X131756999Y-77893000D01*
X132657001Y-77893000D01*
X132681505Y-77894204D01*
X132681505Y-77894204D01*
G37*
D12*
X132207000Y-78468000D03*
D11*
G36*
X132681505Y-79944204D02*
X132705773Y-79947804D01*
X132729572Y-79953765D01*
X132752671Y-79962030D01*
X132774850Y-79972520D01*
X132795893Y-79985132D01*
X132815599Y-79999747D01*
X132833777Y-80016223D01*
X132850253Y-80034401D01*
X132864868Y-80054107D01*
X132877480Y-80075150D01*
X132887970Y-80097329D01*
X132896235Y-80120428D01*
X132902196Y-80144227D01*
X132905796Y-80168495D01*
X132907000Y-80192999D01*
X132907000Y-80843001D01*
X132905796Y-80867505D01*
X132902196Y-80891773D01*
X132896235Y-80915572D01*
X132887970Y-80938671D01*
X132877480Y-80960850D01*
X132864868Y-80981893D01*
X132850253Y-81001599D01*
X132833777Y-81019777D01*
X132815599Y-81036253D01*
X132795893Y-81050868D01*
X132774850Y-81063480D01*
X132752671Y-81073970D01*
X132729572Y-81082235D01*
X132705773Y-81088196D01*
X132681505Y-81091796D01*
X132657001Y-81093000D01*
X131756999Y-81093000D01*
X131732495Y-81091796D01*
X131708227Y-81088196D01*
X131684428Y-81082235D01*
X131661329Y-81073970D01*
X131639150Y-81063480D01*
X131618107Y-81050868D01*
X131598401Y-81036253D01*
X131580223Y-81019777D01*
X131563747Y-81001599D01*
X131549132Y-80981893D01*
X131536520Y-80960850D01*
X131526030Y-80938671D01*
X131517765Y-80915572D01*
X131511804Y-80891773D01*
X131508204Y-80867505D01*
X131507000Y-80843001D01*
X131507000Y-80192999D01*
X131508204Y-80168495D01*
X131511804Y-80144227D01*
X131517765Y-80120428D01*
X131526030Y-80097329D01*
X131536520Y-80075150D01*
X131549132Y-80054107D01*
X131563747Y-80034401D01*
X131580223Y-80016223D01*
X131598401Y-79999747D01*
X131618107Y-79985132D01*
X131639150Y-79972520D01*
X131661329Y-79962030D01*
X131684428Y-79953765D01*
X131708227Y-79947804D01*
X131732495Y-79944204D01*
X131756999Y-79943000D01*
X132657001Y-79943000D01*
X132681505Y-79944204D01*
X132681505Y-79944204D01*
G37*
D12*
X132207000Y-80518000D03*
G04 #@! TD*
D13*
G04 #@! TO.C,D1*
X128651000Y-76930600D03*
X128651000Y-80645000D03*
G04 #@! TD*
D14*
G04 #@! TO.C,D2*
X118691000Y-81248000D03*
X118691000Y-77248000D03*
X124641000Y-77248000D03*
X124641000Y-81248000D03*
G04 #@! TD*
G04 #@! TO.C,D3*
X124641000Y-87344000D03*
X124641000Y-83344000D03*
X118691000Y-83344000D03*
X118691000Y-87344000D03*
G04 #@! TD*
D15*
G04 #@! TO.C,J2*
X155022000Y-74813000D03*
X155022000Y-76063000D03*
D16*
X158372000Y-72963000D03*
X158372000Y-77913000D03*
G04 #@! TD*
D11*
G04 #@! TO.C,R1*
G36*
X138262505Y-74231204D02*
X138286773Y-74234804D01*
X138310572Y-74240765D01*
X138333671Y-74249030D01*
X138355850Y-74259520D01*
X138376893Y-74272132D01*
X138396599Y-74286747D01*
X138414777Y-74303223D01*
X138431253Y-74321401D01*
X138445868Y-74341107D01*
X138458480Y-74362150D01*
X138468970Y-74384329D01*
X138477235Y-74407428D01*
X138483196Y-74431227D01*
X138486796Y-74455495D01*
X138488000Y-74479999D01*
X138488000Y-75380001D01*
X138486796Y-75404505D01*
X138483196Y-75428773D01*
X138477235Y-75452572D01*
X138468970Y-75475671D01*
X138458480Y-75497850D01*
X138445868Y-75518893D01*
X138431253Y-75538599D01*
X138414777Y-75556777D01*
X138396599Y-75573253D01*
X138376893Y-75587868D01*
X138355850Y-75600480D01*
X138333671Y-75610970D01*
X138310572Y-75619235D01*
X138286773Y-75625196D01*
X138262505Y-75628796D01*
X138238001Y-75630000D01*
X137587999Y-75630000D01*
X137563495Y-75628796D01*
X137539227Y-75625196D01*
X137515428Y-75619235D01*
X137492329Y-75610970D01*
X137470150Y-75600480D01*
X137449107Y-75587868D01*
X137429401Y-75573253D01*
X137411223Y-75556777D01*
X137394747Y-75538599D01*
X137380132Y-75518893D01*
X137367520Y-75497850D01*
X137357030Y-75475671D01*
X137348765Y-75452572D01*
X137342804Y-75428773D01*
X137339204Y-75404505D01*
X137338000Y-75380001D01*
X137338000Y-74479999D01*
X137339204Y-74455495D01*
X137342804Y-74431227D01*
X137348765Y-74407428D01*
X137357030Y-74384329D01*
X137367520Y-74362150D01*
X137380132Y-74341107D01*
X137394747Y-74321401D01*
X137411223Y-74303223D01*
X137429401Y-74286747D01*
X137449107Y-74272132D01*
X137470150Y-74259520D01*
X137492329Y-74249030D01*
X137515428Y-74240765D01*
X137539227Y-74234804D01*
X137563495Y-74231204D01*
X137587999Y-74230000D01*
X138238001Y-74230000D01*
X138262505Y-74231204D01*
X138262505Y-74231204D01*
G37*
D12*
X137913000Y-74930000D03*
D11*
G36*
X140312505Y-74231204D02*
X140336773Y-74234804D01*
X140360572Y-74240765D01*
X140383671Y-74249030D01*
X140405850Y-74259520D01*
X140426893Y-74272132D01*
X140446599Y-74286747D01*
X140464777Y-74303223D01*
X140481253Y-74321401D01*
X140495868Y-74341107D01*
X140508480Y-74362150D01*
X140518970Y-74384329D01*
X140527235Y-74407428D01*
X140533196Y-74431227D01*
X140536796Y-74455495D01*
X140538000Y-74479999D01*
X140538000Y-75380001D01*
X140536796Y-75404505D01*
X140533196Y-75428773D01*
X140527235Y-75452572D01*
X140518970Y-75475671D01*
X140508480Y-75497850D01*
X140495868Y-75518893D01*
X140481253Y-75538599D01*
X140464777Y-75556777D01*
X140446599Y-75573253D01*
X140426893Y-75587868D01*
X140405850Y-75600480D01*
X140383671Y-75610970D01*
X140360572Y-75619235D01*
X140336773Y-75625196D01*
X140312505Y-75628796D01*
X140288001Y-75630000D01*
X139637999Y-75630000D01*
X139613495Y-75628796D01*
X139589227Y-75625196D01*
X139565428Y-75619235D01*
X139542329Y-75610970D01*
X139520150Y-75600480D01*
X139499107Y-75587868D01*
X139479401Y-75573253D01*
X139461223Y-75556777D01*
X139444747Y-75538599D01*
X139430132Y-75518893D01*
X139417520Y-75497850D01*
X139407030Y-75475671D01*
X139398765Y-75452572D01*
X139392804Y-75428773D01*
X139389204Y-75404505D01*
X139388000Y-75380001D01*
X139388000Y-74479999D01*
X139389204Y-74455495D01*
X139392804Y-74431227D01*
X139398765Y-74407428D01*
X139407030Y-74384329D01*
X139417520Y-74362150D01*
X139430132Y-74341107D01*
X139444747Y-74321401D01*
X139461223Y-74303223D01*
X139479401Y-74286747D01*
X139499107Y-74272132D01*
X139520150Y-74259520D01*
X139542329Y-74249030D01*
X139565428Y-74240765D01*
X139589227Y-74234804D01*
X139613495Y-74231204D01*
X139637999Y-74230000D01*
X140288001Y-74230000D01*
X140312505Y-74231204D01*
X140312505Y-74231204D01*
G37*
D12*
X139963000Y-74930000D03*
G04 #@! TD*
D11*
G04 #@! TO.C,R2*
G36*
X135348505Y-77912204D02*
X135372773Y-77915804D01*
X135396572Y-77921765D01*
X135419671Y-77930030D01*
X135441850Y-77940520D01*
X135462893Y-77953132D01*
X135482599Y-77967747D01*
X135500777Y-77984223D01*
X135517253Y-78002401D01*
X135531868Y-78022107D01*
X135544480Y-78043150D01*
X135554970Y-78065329D01*
X135563235Y-78088428D01*
X135569196Y-78112227D01*
X135572796Y-78136495D01*
X135574000Y-78160999D01*
X135574000Y-78811001D01*
X135572796Y-78835505D01*
X135569196Y-78859773D01*
X135563235Y-78883572D01*
X135554970Y-78906671D01*
X135544480Y-78928850D01*
X135531868Y-78949893D01*
X135517253Y-78969599D01*
X135500777Y-78987777D01*
X135482599Y-79004253D01*
X135462893Y-79018868D01*
X135441850Y-79031480D01*
X135419671Y-79041970D01*
X135396572Y-79050235D01*
X135372773Y-79056196D01*
X135348505Y-79059796D01*
X135324001Y-79061000D01*
X134423999Y-79061000D01*
X134399495Y-79059796D01*
X134375227Y-79056196D01*
X134351428Y-79050235D01*
X134328329Y-79041970D01*
X134306150Y-79031480D01*
X134285107Y-79018868D01*
X134265401Y-79004253D01*
X134247223Y-78987777D01*
X134230747Y-78969599D01*
X134216132Y-78949893D01*
X134203520Y-78928850D01*
X134193030Y-78906671D01*
X134184765Y-78883572D01*
X134178804Y-78859773D01*
X134175204Y-78835505D01*
X134174000Y-78811001D01*
X134174000Y-78160999D01*
X134175204Y-78136495D01*
X134178804Y-78112227D01*
X134184765Y-78088428D01*
X134193030Y-78065329D01*
X134203520Y-78043150D01*
X134216132Y-78022107D01*
X134230747Y-78002401D01*
X134247223Y-77984223D01*
X134265401Y-77967747D01*
X134285107Y-77953132D01*
X134306150Y-77940520D01*
X134328329Y-77930030D01*
X134351428Y-77921765D01*
X134375227Y-77915804D01*
X134399495Y-77912204D01*
X134423999Y-77911000D01*
X135324001Y-77911000D01*
X135348505Y-77912204D01*
X135348505Y-77912204D01*
G37*
D12*
X134874000Y-78486000D03*
D11*
G36*
X135348505Y-79962204D02*
X135372773Y-79965804D01*
X135396572Y-79971765D01*
X135419671Y-79980030D01*
X135441850Y-79990520D01*
X135462893Y-80003132D01*
X135482599Y-80017747D01*
X135500777Y-80034223D01*
X135517253Y-80052401D01*
X135531868Y-80072107D01*
X135544480Y-80093150D01*
X135554970Y-80115329D01*
X135563235Y-80138428D01*
X135569196Y-80162227D01*
X135572796Y-80186495D01*
X135574000Y-80210999D01*
X135574000Y-80861001D01*
X135572796Y-80885505D01*
X135569196Y-80909773D01*
X135563235Y-80933572D01*
X135554970Y-80956671D01*
X135544480Y-80978850D01*
X135531868Y-80999893D01*
X135517253Y-81019599D01*
X135500777Y-81037777D01*
X135482599Y-81054253D01*
X135462893Y-81068868D01*
X135441850Y-81081480D01*
X135419671Y-81091970D01*
X135396572Y-81100235D01*
X135372773Y-81106196D01*
X135348505Y-81109796D01*
X135324001Y-81111000D01*
X134423999Y-81111000D01*
X134399495Y-81109796D01*
X134375227Y-81106196D01*
X134351428Y-81100235D01*
X134328329Y-81091970D01*
X134306150Y-81081480D01*
X134285107Y-81068868D01*
X134265401Y-81054253D01*
X134247223Y-81037777D01*
X134230747Y-81019599D01*
X134216132Y-80999893D01*
X134203520Y-80978850D01*
X134193030Y-80956671D01*
X134184765Y-80933572D01*
X134178804Y-80909773D01*
X134175204Y-80885505D01*
X134174000Y-80861001D01*
X134174000Y-80210999D01*
X134175204Y-80186495D01*
X134178804Y-80162227D01*
X134184765Y-80138428D01*
X134193030Y-80115329D01*
X134203520Y-80093150D01*
X134216132Y-80072107D01*
X134230747Y-80052401D01*
X134247223Y-80034223D01*
X134265401Y-80017747D01*
X134285107Y-80003132D01*
X134306150Y-79990520D01*
X134328329Y-79980030D01*
X134351428Y-79971765D01*
X134375227Y-79965804D01*
X134399495Y-79962204D01*
X134423999Y-79961000D01*
X135324001Y-79961000D01*
X135348505Y-79962204D01*
X135348505Y-79962204D01*
G37*
D12*
X134874000Y-80536000D03*
G04 #@! TD*
D11*
G04 #@! TO.C,R3*
G36*
X144358505Y-71183204D02*
X144382773Y-71186804D01*
X144406572Y-71192765D01*
X144429671Y-71201030D01*
X144451850Y-71211520D01*
X144472893Y-71224132D01*
X144492599Y-71238747D01*
X144510777Y-71255223D01*
X144527253Y-71273401D01*
X144541868Y-71293107D01*
X144554480Y-71314150D01*
X144564970Y-71336329D01*
X144573235Y-71359428D01*
X144579196Y-71383227D01*
X144582796Y-71407495D01*
X144584000Y-71431999D01*
X144584000Y-72332001D01*
X144582796Y-72356505D01*
X144579196Y-72380773D01*
X144573235Y-72404572D01*
X144564970Y-72427671D01*
X144554480Y-72449850D01*
X144541868Y-72470893D01*
X144527253Y-72490599D01*
X144510777Y-72508777D01*
X144492599Y-72525253D01*
X144472893Y-72539868D01*
X144451850Y-72552480D01*
X144429671Y-72562970D01*
X144406572Y-72571235D01*
X144382773Y-72577196D01*
X144358505Y-72580796D01*
X144334001Y-72582000D01*
X143683999Y-72582000D01*
X143659495Y-72580796D01*
X143635227Y-72577196D01*
X143611428Y-72571235D01*
X143588329Y-72562970D01*
X143566150Y-72552480D01*
X143545107Y-72539868D01*
X143525401Y-72525253D01*
X143507223Y-72508777D01*
X143490747Y-72490599D01*
X143476132Y-72470893D01*
X143463520Y-72449850D01*
X143453030Y-72427671D01*
X143444765Y-72404572D01*
X143438804Y-72380773D01*
X143435204Y-72356505D01*
X143434000Y-72332001D01*
X143434000Y-71431999D01*
X143435204Y-71407495D01*
X143438804Y-71383227D01*
X143444765Y-71359428D01*
X143453030Y-71336329D01*
X143463520Y-71314150D01*
X143476132Y-71293107D01*
X143490747Y-71273401D01*
X143507223Y-71255223D01*
X143525401Y-71238747D01*
X143545107Y-71224132D01*
X143566150Y-71211520D01*
X143588329Y-71201030D01*
X143611428Y-71192765D01*
X143635227Y-71186804D01*
X143659495Y-71183204D01*
X143683999Y-71182000D01*
X144334001Y-71182000D01*
X144358505Y-71183204D01*
X144358505Y-71183204D01*
G37*
D12*
X144009000Y-71882000D03*
D11*
G36*
X146408505Y-71183204D02*
X146432773Y-71186804D01*
X146456572Y-71192765D01*
X146479671Y-71201030D01*
X146501850Y-71211520D01*
X146522893Y-71224132D01*
X146542599Y-71238747D01*
X146560777Y-71255223D01*
X146577253Y-71273401D01*
X146591868Y-71293107D01*
X146604480Y-71314150D01*
X146614970Y-71336329D01*
X146623235Y-71359428D01*
X146629196Y-71383227D01*
X146632796Y-71407495D01*
X146634000Y-71431999D01*
X146634000Y-72332001D01*
X146632796Y-72356505D01*
X146629196Y-72380773D01*
X146623235Y-72404572D01*
X146614970Y-72427671D01*
X146604480Y-72449850D01*
X146591868Y-72470893D01*
X146577253Y-72490599D01*
X146560777Y-72508777D01*
X146542599Y-72525253D01*
X146522893Y-72539868D01*
X146501850Y-72552480D01*
X146479671Y-72562970D01*
X146456572Y-72571235D01*
X146432773Y-72577196D01*
X146408505Y-72580796D01*
X146384001Y-72582000D01*
X145733999Y-72582000D01*
X145709495Y-72580796D01*
X145685227Y-72577196D01*
X145661428Y-72571235D01*
X145638329Y-72562970D01*
X145616150Y-72552480D01*
X145595107Y-72539868D01*
X145575401Y-72525253D01*
X145557223Y-72508777D01*
X145540747Y-72490599D01*
X145526132Y-72470893D01*
X145513520Y-72449850D01*
X145503030Y-72427671D01*
X145494765Y-72404572D01*
X145488804Y-72380773D01*
X145485204Y-72356505D01*
X145484000Y-72332001D01*
X145484000Y-71431999D01*
X145485204Y-71407495D01*
X145488804Y-71383227D01*
X145494765Y-71359428D01*
X145503030Y-71336329D01*
X145513520Y-71314150D01*
X145526132Y-71293107D01*
X145540747Y-71273401D01*
X145557223Y-71255223D01*
X145575401Y-71238747D01*
X145595107Y-71224132D01*
X145616150Y-71211520D01*
X145638329Y-71201030D01*
X145661428Y-71192765D01*
X145685227Y-71186804D01*
X145709495Y-71183204D01*
X145733999Y-71182000D01*
X146384001Y-71182000D01*
X146408505Y-71183204D01*
X146408505Y-71183204D01*
G37*
D12*
X146059000Y-71882000D03*
G04 #@! TD*
D11*
G04 #@! TO.C,R4*
G36*
X144376505Y-74231204D02*
X144400773Y-74234804D01*
X144424572Y-74240765D01*
X144447671Y-74249030D01*
X144469850Y-74259520D01*
X144490893Y-74272132D01*
X144510599Y-74286747D01*
X144528777Y-74303223D01*
X144545253Y-74321401D01*
X144559868Y-74341107D01*
X144572480Y-74362150D01*
X144582970Y-74384329D01*
X144591235Y-74407428D01*
X144597196Y-74431227D01*
X144600796Y-74455495D01*
X144602000Y-74479999D01*
X144602000Y-75380001D01*
X144600796Y-75404505D01*
X144597196Y-75428773D01*
X144591235Y-75452572D01*
X144582970Y-75475671D01*
X144572480Y-75497850D01*
X144559868Y-75518893D01*
X144545253Y-75538599D01*
X144528777Y-75556777D01*
X144510599Y-75573253D01*
X144490893Y-75587868D01*
X144469850Y-75600480D01*
X144447671Y-75610970D01*
X144424572Y-75619235D01*
X144400773Y-75625196D01*
X144376505Y-75628796D01*
X144352001Y-75630000D01*
X143701999Y-75630000D01*
X143677495Y-75628796D01*
X143653227Y-75625196D01*
X143629428Y-75619235D01*
X143606329Y-75610970D01*
X143584150Y-75600480D01*
X143563107Y-75587868D01*
X143543401Y-75573253D01*
X143525223Y-75556777D01*
X143508747Y-75538599D01*
X143494132Y-75518893D01*
X143481520Y-75497850D01*
X143471030Y-75475671D01*
X143462765Y-75452572D01*
X143456804Y-75428773D01*
X143453204Y-75404505D01*
X143452000Y-75380001D01*
X143452000Y-74479999D01*
X143453204Y-74455495D01*
X143456804Y-74431227D01*
X143462765Y-74407428D01*
X143471030Y-74384329D01*
X143481520Y-74362150D01*
X143494132Y-74341107D01*
X143508747Y-74321401D01*
X143525223Y-74303223D01*
X143543401Y-74286747D01*
X143563107Y-74272132D01*
X143584150Y-74259520D01*
X143606329Y-74249030D01*
X143629428Y-74240765D01*
X143653227Y-74234804D01*
X143677495Y-74231204D01*
X143701999Y-74230000D01*
X144352001Y-74230000D01*
X144376505Y-74231204D01*
X144376505Y-74231204D01*
G37*
D12*
X144027000Y-74930000D03*
D11*
G36*
X142326505Y-74231204D02*
X142350773Y-74234804D01*
X142374572Y-74240765D01*
X142397671Y-74249030D01*
X142419850Y-74259520D01*
X142440893Y-74272132D01*
X142460599Y-74286747D01*
X142478777Y-74303223D01*
X142495253Y-74321401D01*
X142509868Y-74341107D01*
X142522480Y-74362150D01*
X142532970Y-74384329D01*
X142541235Y-74407428D01*
X142547196Y-74431227D01*
X142550796Y-74455495D01*
X142552000Y-74479999D01*
X142552000Y-75380001D01*
X142550796Y-75404505D01*
X142547196Y-75428773D01*
X142541235Y-75452572D01*
X142532970Y-75475671D01*
X142522480Y-75497850D01*
X142509868Y-75518893D01*
X142495253Y-75538599D01*
X142478777Y-75556777D01*
X142460599Y-75573253D01*
X142440893Y-75587868D01*
X142419850Y-75600480D01*
X142397671Y-75610970D01*
X142374572Y-75619235D01*
X142350773Y-75625196D01*
X142326505Y-75628796D01*
X142302001Y-75630000D01*
X141651999Y-75630000D01*
X141627495Y-75628796D01*
X141603227Y-75625196D01*
X141579428Y-75619235D01*
X141556329Y-75610970D01*
X141534150Y-75600480D01*
X141513107Y-75587868D01*
X141493401Y-75573253D01*
X141475223Y-75556777D01*
X141458747Y-75538599D01*
X141444132Y-75518893D01*
X141431520Y-75497850D01*
X141421030Y-75475671D01*
X141412765Y-75452572D01*
X141406804Y-75428773D01*
X141403204Y-75404505D01*
X141402000Y-75380001D01*
X141402000Y-74479999D01*
X141403204Y-74455495D01*
X141406804Y-74431227D01*
X141412765Y-74407428D01*
X141421030Y-74384329D01*
X141431520Y-74362150D01*
X141444132Y-74341107D01*
X141458747Y-74321401D01*
X141475223Y-74303223D01*
X141493401Y-74286747D01*
X141513107Y-74272132D01*
X141534150Y-74259520D01*
X141556329Y-74249030D01*
X141579428Y-74240765D01*
X141603227Y-74234804D01*
X141627495Y-74231204D01*
X141651999Y-74230000D01*
X142302001Y-74230000D01*
X142326505Y-74231204D01*
X142326505Y-74231204D01*
G37*
D12*
X141977000Y-74930000D03*
G04 #@! TD*
D11*
G04 #@! TO.C,R5*
G36*
X129871505Y-83629204D02*
X129895773Y-83632804D01*
X129919572Y-83638765D01*
X129942671Y-83647030D01*
X129964850Y-83657520D01*
X129985893Y-83670132D01*
X130005599Y-83684747D01*
X130023777Y-83701223D01*
X130040253Y-83719401D01*
X130054868Y-83739107D01*
X130067480Y-83760150D01*
X130077970Y-83782329D01*
X130086235Y-83805428D01*
X130092196Y-83829227D01*
X130095796Y-83853495D01*
X130097000Y-83877999D01*
X130097000Y-84778001D01*
X130095796Y-84802505D01*
X130092196Y-84826773D01*
X130086235Y-84850572D01*
X130077970Y-84873671D01*
X130067480Y-84895850D01*
X130054868Y-84916893D01*
X130040253Y-84936599D01*
X130023777Y-84954777D01*
X130005599Y-84971253D01*
X129985893Y-84985868D01*
X129964850Y-84998480D01*
X129942671Y-85008970D01*
X129919572Y-85017235D01*
X129895773Y-85023196D01*
X129871505Y-85026796D01*
X129847001Y-85028000D01*
X129196999Y-85028000D01*
X129172495Y-85026796D01*
X129148227Y-85023196D01*
X129124428Y-85017235D01*
X129101329Y-85008970D01*
X129079150Y-84998480D01*
X129058107Y-84985868D01*
X129038401Y-84971253D01*
X129020223Y-84954777D01*
X129003747Y-84936599D01*
X128989132Y-84916893D01*
X128976520Y-84895850D01*
X128966030Y-84873671D01*
X128957765Y-84850572D01*
X128951804Y-84826773D01*
X128948204Y-84802505D01*
X128947000Y-84778001D01*
X128947000Y-83877999D01*
X128948204Y-83853495D01*
X128951804Y-83829227D01*
X128957765Y-83805428D01*
X128966030Y-83782329D01*
X128976520Y-83760150D01*
X128989132Y-83739107D01*
X129003747Y-83719401D01*
X129020223Y-83701223D01*
X129038401Y-83684747D01*
X129058107Y-83670132D01*
X129079150Y-83657520D01*
X129101329Y-83647030D01*
X129124428Y-83638765D01*
X129148227Y-83632804D01*
X129172495Y-83629204D01*
X129196999Y-83628000D01*
X129847001Y-83628000D01*
X129871505Y-83629204D01*
X129871505Y-83629204D01*
G37*
D12*
X129522000Y-84328000D03*
D11*
G36*
X131921505Y-83629204D02*
X131945773Y-83632804D01*
X131969572Y-83638765D01*
X131992671Y-83647030D01*
X132014850Y-83657520D01*
X132035893Y-83670132D01*
X132055599Y-83684747D01*
X132073777Y-83701223D01*
X132090253Y-83719401D01*
X132104868Y-83739107D01*
X132117480Y-83760150D01*
X132127970Y-83782329D01*
X132136235Y-83805428D01*
X132142196Y-83829227D01*
X132145796Y-83853495D01*
X132147000Y-83877999D01*
X132147000Y-84778001D01*
X132145796Y-84802505D01*
X132142196Y-84826773D01*
X132136235Y-84850572D01*
X132127970Y-84873671D01*
X132117480Y-84895850D01*
X132104868Y-84916893D01*
X132090253Y-84936599D01*
X132073777Y-84954777D01*
X132055599Y-84971253D01*
X132035893Y-84985868D01*
X132014850Y-84998480D01*
X131992671Y-85008970D01*
X131969572Y-85017235D01*
X131945773Y-85023196D01*
X131921505Y-85026796D01*
X131897001Y-85028000D01*
X131246999Y-85028000D01*
X131222495Y-85026796D01*
X131198227Y-85023196D01*
X131174428Y-85017235D01*
X131151329Y-85008970D01*
X131129150Y-84998480D01*
X131108107Y-84985868D01*
X131088401Y-84971253D01*
X131070223Y-84954777D01*
X131053747Y-84936599D01*
X131039132Y-84916893D01*
X131026520Y-84895850D01*
X131016030Y-84873671D01*
X131007765Y-84850572D01*
X131001804Y-84826773D01*
X130998204Y-84802505D01*
X130997000Y-84778001D01*
X130997000Y-83877999D01*
X130998204Y-83853495D01*
X131001804Y-83829227D01*
X131007765Y-83805428D01*
X131016030Y-83782329D01*
X131026520Y-83760150D01*
X131039132Y-83739107D01*
X131053747Y-83719401D01*
X131070223Y-83701223D01*
X131088401Y-83684747D01*
X131108107Y-83670132D01*
X131129150Y-83657520D01*
X131151329Y-83647030D01*
X131174428Y-83638765D01*
X131198227Y-83632804D01*
X131222495Y-83629204D01*
X131246999Y-83628000D01*
X131897001Y-83628000D01*
X131921505Y-83629204D01*
X131921505Y-83629204D01*
G37*
D12*
X131572000Y-84328000D03*
G04 #@! TD*
D17*
G04 #@! TO.C,U1*
X138190000Y-77089000D03*
X138190000Y-78359000D03*
X138190000Y-79629000D03*
X138190000Y-80899000D03*
X143750000Y-80899000D03*
X143750000Y-79629000D03*
X143750000Y-78359000D03*
X143750000Y-77089000D03*
D18*
X141572500Y-79769000D03*
X141572500Y-78219000D03*
X140367500Y-79769000D03*
X140367500Y-78219000D03*
G04 #@! TD*
D11*
G04 #@! TO.C,C2*
G36*
X149366504Y-76668204D02*
X149390773Y-76671804D01*
X149414571Y-76677765D01*
X149437671Y-76686030D01*
X149459849Y-76696520D01*
X149480893Y-76709133D01*
X149500598Y-76723747D01*
X149518777Y-76740223D01*
X149535253Y-76758402D01*
X149549867Y-76778107D01*
X149562480Y-76799151D01*
X149572970Y-76821329D01*
X149581235Y-76844429D01*
X149587196Y-76868227D01*
X149590796Y-76892496D01*
X149592000Y-76917000D01*
X149592000Y-77842000D01*
X149590796Y-77866504D01*
X149587196Y-77890773D01*
X149581235Y-77914571D01*
X149572970Y-77937671D01*
X149562480Y-77959849D01*
X149549867Y-77980893D01*
X149535253Y-78000598D01*
X149518777Y-78018777D01*
X149500598Y-78035253D01*
X149480893Y-78049867D01*
X149459849Y-78062480D01*
X149437671Y-78072970D01*
X149414571Y-78081235D01*
X149390773Y-78087196D01*
X149366504Y-78090796D01*
X149342000Y-78092000D01*
X148092000Y-78092000D01*
X148067496Y-78090796D01*
X148043227Y-78087196D01*
X148019429Y-78081235D01*
X147996329Y-78072970D01*
X147974151Y-78062480D01*
X147953107Y-78049867D01*
X147933402Y-78035253D01*
X147915223Y-78018777D01*
X147898747Y-78000598D01*
X147884133Y-77980893D01*
X147871520Y-77959849D01*
X147861030Y-77937671D01*
X147852765Y-77914571D01*
X147846804Y-77890773D01*
X147843204Y-77866504D01*
X147842000Y-77842000D01*
X147842000Y-76917000D01*
X147843204Y-76892496D01*
X147846804Y-76868227D01*
X147852765Y-76844429D01*
X147861030Y-76821329D01*
X147871520Y-76799151D01*
X147884133Y-76778107D01*
X147898747Y-76758402D01*
X147915223Y-76740223D01*
X147933402Y-76723747D01*
X147953107Y-76709133D01*
X147974151Y-76696520D01*
X147996329Y-76686030D01*
X148019429Y-76677765D01*
X148043227Y-76671804D01*
X148067496Y-76668204D01*
X148092000Y-76667000D01*
X149342000Y-76667000D01*
X149366504Y-76668204D01*
X149366504Y-76668204D01*
G37*
D19*
X148717000Y-77379500D03*
D11*
G36*
X149366504Y-79643204D02*
X149390773Y-79646804D01*
X149414571Y-79652765D01*
X149437671Y-79661030D01*
X149459849Y-79671520D01*
X149480893Y-79684133D01*
X149500598Y-79698747D01*
X149518777Y-79715223D01*
X149535253Y-79733402D01*
X149549867Y-79753107D01*
X149562480Y-79774151D01*
X149572970Y-79796329D01*
X149581235Y-79819429D01*
X149587196Y-79843227D01*
X149590796Y-79867496D01*
X149592000Y-79892000D01*
X149592000Y-80817000D01*
X149590796Y-80841504D01*
X149587196Y-80865773D01*
X149581235Y-80889571D01*
X149572970Y-80912671D01*
X149562480Y-80934849D01*
X149549867Y-80955893D01*
X149535253Y-80975598D01*
X149518777Y-80993777D01*
X149500598Y-81010253D01*
X149480893Y-81024867D01*
X149459849Y-81037480D01*
X149437671Y-81047970D01*
X149414571Y-81056235D01*
X149390773Y-81062196D01*
X149366504Y-81065796D01*
X149342000Y-81067000D01*
X148092000Y-81067000D01*
X148067496Y-81065796D01*
X148043227Y-81062196D01*
X148019429Y-81056235D01*
X147996329Y-81047970D01*
X147974151Y-81037480D01*
X147953107Y-81024867D01*
X147933402Y-81010253D01*
X147915223Y-80993777D01*
X147898747Y-80975598D01*
X147884133Y-80955893D01*
X147871520Y-80934849D01*
X147861030Y-80912671D01*
X147852765Y-80889571D01*
X147846804Y-80865773D01*
X147843204Y-80841504D01*
X147842000Y-80817000D01*
X147842000Y-79892000D01*
X147843204Y-79867496D01*
X147846804Y-79843227D01*
X147852765Y-79819429D01*
X147861030Y-79796329D01*
X147871520Y-79774151D01*
X147884133Y-79753107D01*
X147898747Y-79733402D01*
X147915223Y-79715223D01*
X147933402Y-79698747D01*
X147953107Y-79684133D01*
X147974151Y-79671520D01*
X147996329Y-79661030D01*
X148019429Y-79652765D01*
X148043227Y-79646804D01*
X148067496Y-79643204D01*
X148092000Y-79642000D01*
X149342000Y-79642000D01*
X149366504Y-79643204D01*
X149366504Y-79643204D01*
G37*
D19*
X148717000Y-80354500D03*
G04 #@! TD*
D11*
G04 #@! TO.C,C3*
G36*
X123864904Y-100764904D02*
X123889173Y-100768504D01*
X123912971Y-100774465D01*
X123936071Y-100782730D01*
X123958249Y-100793220D01*
X123979293Y-100805833D01*
X123998998Y-100820447D01*
X124017177Y-100836923D01*
X124033653Y-100855102D01*
X124048267Y-100874807D01*
X124060880Y-100895851D01*
X124071370Y-100918029D01*
X124079635Y-100941129D01*
X124085596Y-100964927D01*
X124089196Y-100989196D01*
X124090400Y-101013700D01*
X124090400Y-101938700D01*
X124089196Y-101963204D01*
X124085596Y-101987473D01*
X124079635Y-102011271D01*
X124071370Y-102034371D01*
X124060880Y-102056549D01*
X124048267Y-102077593D01*
X124033653Y-102097298D01*
X124017177Y-102115477D01*
X123998998Y-102131953D01*
X123979293Y-102146567D01*
X123958249Y-102159180D01*
X123936071Y-102169670D01*
X123912971Y-102177935D01*
X123889173Y-102183896D01*
X123864904Y-102187496D01*
X123840400Y-102188700D01*
X122590400Y-102188700D01*
X122565896Y-102187496D01*
X122541627Y-102183896D01*
X122517829Y-102177935D01*
X122494729Y-102169670D01*
X122472551Y-102159180D01*
X122451507Y-102146567D01*
X122431802Y-102131953D01*
X122413623Y-102115477D01*
X122397147Y-102097298D01*
X122382533Y-102077593D01*
X122369920Y-102056549D01*
X122359430Y-102034371D01*
X122351165Y-102011271D01*
X122345204Y-101987473D01*
X122341604Y-101963204D01*
X122340400Y-101938700D01*
X122340400Y-101013700D01*
X122341604Y-100989196D01*
X122345204Y-100964927D01*
X122351165Y-100941129D01*
X122359430Y-100918029D01*
X122369920Y-100895851D01*
X122382533Y-100874807D01*
X122397147Y-100855102D01*
X122413623Y-100836923D01*
X122431802Y-100820447D01*
X122451507Y-100805833D01*
X122472551Y-100793220D01*
X122494729Y-100782730D01*
X122517829Y-100774465D01*
X122541627Y-100768504D01*
X122565896Y-100764904D01*
X122590400Y-100763700D01*
X123840400Y-100763700D01*
X123864904Y-100764904D01*
X123864904Y-100764904D01*
G37*
D19*
X123215400Y-101476200D03*
D11*
G36*
X123864904Y-97789904D02*
X123889173Y-97793504D01*
X123912971Y-97799465D01*
X123936071Y-97807730D01*
X123958249Y-97818220D01*
X123979293Y-97830833D01*
X123998998Y-97845447D01*
X124017177Y-97861923D01*
X124033653Y-97880102D01*
X124048267Y-97899807D01*
X124060880Y-97920851D01*
X124071370Y-97943029D01*
X124079635Y-97966129D01*
X124085596Y-97989927D01*
X124089196Y-98014196D01*
X124090400Y-98038700D01*
X124090400Y-98963700D01*
X124089196Y-98988204D01*
X124085596Y-99012473D01*
X124079635Y-99036271D01*
X124071370Y-99059371D01*
X124060880Y-99081549D01*
X124048267Y-99102593D01*
X124033653Y-99122298D01*
X124017177Y-99140477D01*
X123998998Y-99156953D01*
X123979293Y-99171567D01*
X123958249Y-99184180D01*
X123936071Y-99194670D01*
X123912971Y-99202935D01*
X123889173Y-99208896D01*
X123864904Y-99212496D01*
X123840400Y-99213700D01*
X122590400Y-99213700D01*
X122565896Y-99212496D01*
X122541627Y-99208896D01*
X122517829Y-99202935D01*
X122494729Y-99194670D01*
X122472551Y-99184180D01*
X122451507Y-99171567D01*
X122431802Y-99156953D01*
X122413623Y-99140477D01*
X122397147Y-99122298D01*
X122382533Y-99102593D01*
X122369920Y-99081549D01*
X122359430Y-99059371D01*
X122351165Y-99036271D01*
X122345204Y-99012473D01*
X122341604Y-98988204D01*
X122340400Y-98963700D01*
X122340400Y-98038700D01*
X122341604Y-98014196D01*
X122345204Y-97989927D01*
X122351165Y-97966129D01*
X122359430Y-97943029D01*
X122369920Y-97920851D01*
X122382533Y-97899807D01*
X122397147Y-97880102D01*
X122413623Y-97861923D01*
X122431802Y-97845447D01*
X122451507Y-97830833D01*
X122472551Y-97818220D01*
X122494729Y-97807730D01*
X122517829Y-97799465D01*
X122541627Y-97793504D01*
X122565896Y-97789904D01*
X122590400Y-97788700D01*
X123840400Y-97788700D01*
X123864904Y-97789904D01*
X123864904Y-97789904D01*
G37*
D19*
X123215400Y-98501200D03*
G04 #@! TD*
D11*
G04 #@! TO.C,C4*
G36*
X153811504Y-104851104D02*
X153835773Y-104854704D01*
X153859571Y-104860665D01*
X153882671Y-104868930D01*
X153904849Y-104879420D01*
X153925893Y-104892033D01*
X153945598Y-104906647D01*
X153963777Y-104923123D01*
X153980253Y-104941302D01*
X153994867Y-104961007D01*
X154007480Y-104982051D01*
X154017970Y-105004229D01*
X154026235Y-105027329D01*
X154032196Y-105051127D01*
X154035796Y-105075396D01*
X154037000Y-105099900D01*
X154037000Y-106024900D01*
X154035796Y-106049404D01*
X154032196Y-106073673D01*
X154026235Y-106097471D01*
X154017970Y-106120571D01*
X154007480Y-106142749D01*
X153994867Y-106163793D01*
X153980253Y-106183498D01*
X153963777Y-106201677D01*
X153945598Y-106218153D01*
X153925893Y-106232767D01*
X153904849Y-106245380D01*
X153882671Y-106255870D01*
X153859571Y-106264135D01*
X153835773Y-106270096D01*
X153811504Y-106273696D01*
X153787000Y-106274900D01*
X152537000Y-106274900D01*
X152512496Y-106273696D01*
X152488227Y-106270096D01*
X152464429Y-106264135D01*
X152441329Y-106255870D01*
X152419151Y-106245380D01*
X152398107Y-106232767D01*
X152378402Y-106218153D01*
X152360223Y-106201677D01*
X152343747Y-106183498D01*
X152329133Y-106163793D01*
X152316520Y-106142749D01*
X152306030Y-106120571D01*
X152297765Y-106097471D01*
X152291804Y-106073673D01*
X152288204Y-106049404D01*
X152287000Y-106024900D01*
X152287000Y-105099900D01*
X152288204Y-105075396D01*
X152291804Y-105051127D01*
X152297765Y-105027329D01*
X152306030Y-105004229D01*
X152316520Y-104982051D01*
X152329133Y-104961007D01*
X152343747Y-104941302D01*
X152360223Y-104923123D01*
X152378402Y-104906647D01*
X152398107Y-104892033D01*
X152419151Y-104879420D01*
X152441329Y-104868930D01*
X152464429Y-104860665D01*
X152488227Y-104854704D01*
X152512496Y-104851104D01*
X152537000Y-104849900D01*
X153787000Y-104849900D01*
X153811504Y-104851104D01*
X153811504Y-104851104D01*
G37*
D19*
X153162000Y-105562400D03*
D11*
G36*
X153811504Y-107826104D02*
X153835773Y-107829704D01*
X153859571Y-107835665D01*
X153882671Y-107843930D01*
X153904849Y-107854420D01*
X153925893Y-107867033D01*
X153945598Y-107881647D01*
X153963777Y-107898123D01*
X153980253Y-107916302D01*
X153994867Y-107936007D01*
X154007480Y-107957051D01*
X154017970Y-107979229D01*
X154026235Y-108002329D01*
X154032196Y-108026127D01*
X154035796Y-108050396D01*
X154037000Y-108074900D01*
X154037000Y-108999900D01*
X154035796Y-109024404D01*
X154032196Y-109048673D01*
X154026235Y-109072471D01*
X154017970Y-109095571D01*
X154007480Y-109117749D01*
X153994867Y-109138793D01*
X153980253Y-109158498D01*
X153963777Y-109176677D01*
X153945598Y-109193153D01*
X153925893Y-109207767D01*
X153904849Y-109220380D01*
X153882671Y-109230870D01*
X153859571Y-109239135D01*
X153835773Y-109245096D01*
X153811504Y-109248696D01*
X153787000Y-109249900D01*
X152537000Y-109249900D01*
X152512496Y-109248696D01*
X152488227Y-109245096D01*
X152464429Y-109239135D01*
X152441329Y-109230870D01*
X152419151Y-109220380D01*
X152398107Y-109207767D01*
X152378402Y-109193153D01*
X152360223Y-109176677D01*
X152343747Y-109158498D01*
X152329133Y-109138793D01*
X152316520Y-109117749D01*
X152306030Y-109095571D01*
X152297765Y-109072471D01*
X152291804Y-109048673D01*
X152288204Y-109024404D01*
X152287000Y-108999900D01*
X152287000Y-108074900D01*
X152288204Y-108050396D01*
X152291804Y-108026127D01*
X152297765Y-108002329D01*
X152306030Y-107979229D01*
X152316520Y-107957051D01*
X152329133Y-107936007D01*
X152343747Y-107916302D01*
X152360223Y-107898123D01*
X152378402Y-107881647D01*
X152398107Y-107867033D01*
X152419151Y-107854420D01*
X152441329Y-107843930D01*
X152464429Y-107835665D01*
X152488227Y-107829704D01*
X152512496Y-107826104D01*
X152537000Y-107824900D01*
X153787000Y-107824900D01*
X153811504Y-107826104D01*
X153811504Y-107826104D01*
G37*
D19*
X153162000Y-108537400D03*
G04 #@! TD*
D11*
G04 #@! TO.C,C5*
G36*
X120972105Y-100442004D02*
X120996373Y-100445604D01*
X121020172Y-100451565D01*
X121043271Y-100459830D01*
X121065450Y-100470320D01*
X121086493Y-100482932D01*
X121106199Y-100497547D01*
X121124377Y-100514023D01*
X121140853Y-100532201D01*
X121155468Y-100551907D01*
X121168080Y-100572950D01*
X121178570Y-100595129D01*
X121186835Y-100618228D01*
X121192796Y-100642027D01*
X121196396Y-100666295D01*
X121197600Y-100690799D01*
X121197600Y-101340801D01*
X121196396Y-101365305D01*
X121192796Y-101389573D01*
X121186835Y-101413372D01*
X121178570Y-101436471D01*
X121168080Y-101458650D01*
X121155468Y-101479693D01*
X121140853Y-101499399D01*
X121124377Y-101517577D01*
X121106199Y-101534053D01*
X121086493Y-101548668D01*
X121065450Y-101561280D01*
X121043271Y-101571770D01*
X121020172Y-101580035D01*
X120996373Y-101585996D01*
X120972105Y-101589596D01*
X120947601Y-101590800D01*
X120047599Y-101590800D01*
X120023095Y-101589596D01*
X119998827Y-101585996D01*
X119975028Y-101580035D01*
X119951929Y-101571770D01*
X119929750Y-101561280D01*
X119908707Y-101548668D01*
X119889001Y-101534053D01*
X119870823Y-101517577D01*
X119854347Y-101499399D01*
X119839732Y-101479693D01*
X119827120Y-101458650D01*
X119816630Y-101436471D01*
X119808365Y-101413372D01*
X119802404Y-101389573D01*
X119798804Y-101365305D01*
X119797600Y-101340801D01*
X119797600Y-100690799D01*
X119798804Y-100666295D01*
X119802404Y-100642027D01*
X119808365Y-100618228D01*
X119816630Y-100595129D01*
X119827120Y-100572950D01*
X119839732Y-100551907D01*
X119854347Y-100532201D01*
X119870823Y-100514023D01*
X119889001Y-100497547D01*
X119908707Y-100482932D01*
X119929750Y-100470320D01*
X119951929Y-100459830D01*
X119975028Y-100451565D01*
X119998827Y-100445604D01*
X120023095Y-100442004D01*
X120047599Y-100440800D01*
X120947601Y-100440800D01*
X120972105Y-100442004D01*
X120972105Y-100442004D01*
G37*
D12*
X120497600Y-101015800D03*
D11*
G36*
X120972105Y-98392004D02*
X120996373Y-98395604D01*
X121020172Y-98401565D01*
X121043271Y-98409830D01*
X121065450Y-98420320D01*
X121086493Y-98432932D01*
X121106199Y-98447547D01*
X121124377Y-98464023D01*
X121140853Y-98482201D01*
X121155468Y-98501907D01*
X121168080Y-98522950D01*
X121178570Y-98545129D01*
X121186835Y-98568228D01*
X121192796Y-98592027D01*
X121196396Y-98616295D01*
X121197600Y-98640799D01*
X121197600Y-99290801D01*
X121196396Y-99315305D01*
X121192796Y-99339573D01*
X121186835Y-99363372D01*
X121178570Y-99386471D01*
X121168080Y-99408650D01*
X121155468Y-99429693D01*
X121140853Y-99449399D01*
X121124377Y-99467577D01*
X121106199Y-99484053D01*
X121086493Y-99498668D01*
X121065450Y-99511280D01*
X121043271Y-99521770D01*
X121020172Y-99530035D01*
X120996373Y-99535996D01*
X120972105Y-99539596D01*
X120947601Y-99540800D01*
X120047599Y-99540800D01*
X120023095Y-99539596D01*
X119998827Y-99535996D01*
X119975028Y-99530035D01*
X119951929Y-99521770D01*
X119929750Y-99511280D01*
X119908707Y-99498668D01*
X119889001Y-99484053D01*
X119870823Y-99467577D01*
X119854347Y-99449399D01*
X119839732Y-99429693D01*
X119827120Y-99408650D01*
X119816630Y-99386471D01*
X119808365Y-99363372D01*
X119802404Y-99339573D01*
X119798804Y-99315305D01*
X119797600Y-99290801D01*
X119797600Y-98640799D01*
X119798804Y-98616295D01*
X119802404Y-98592027D01*
X119808365Y-98568228D01*
X119816630Y-98545129D01*
X119827120Y-98522950D01*
X119839732Y-98501907D01*
X119854347Y-98482201D01*
X119870823Y-98464023D01*
X119889001Y-98447547D01*
X119908707Y-98432932D01*
X119929750Y-98420320D01*
X119951929Y-98409830D01*
X119975028Y-98401565D01*
X119998827Y-98395604D01*
X120023095Y-98392004D01*
X120047599Y-98390800D01*
X120947601Y-98390800D01*
X120972105Y-98392004D01*
X120972105Y-98392004D01*
G37*
D12*
X120497600Y-98965800D03*
G04 #@! TD*
D11*
G04 #@! TO.C,F1*
G36*
X119856505Y-105524004D02*
X119880773Y-105527604D01*
X119904572Y-105533565D01*
X119927671Y-105541830D01*
X119949850Y-105552320D01*
X119970893Y-105564932D01*
X119990599Y-105579547D01*
X120008777Y-105596023D01*
X120025253Y-105614201D01*
X120039868Y-105633907D01*
X120052480Y-105654950D01*
X120062970Y-105677129D01*
X120071235Y-105700228D01*
X120077196Y-105724027D01*
X120080796Y-105748295D01*
X120082000Y-105772799D01*
X120082000Y-106672801D01*
X120080796Y-106697305D01*
X120077196Y-106721573D01*
X120071235Y-106745372D01*
X120062970Y-106768471D01*
X120052480Y-106790650D01*
X120039868Y-106811693D01*
X120025253Y-106831399D01*
X120008777Y-106849577D01*
X119990599Y-106866053D01*
X119970893Y-106880668D01*
X119949850Y-106893280D01*
X119927671Y-106903770D01*
X119904572Y-106912035D01*
X119880773Y-106917996D01*
X119856505Y-106921596D01*
X119832001Y-106922800D01*
X119181999Y-106922800D01*
X119157495Y-106921596D01*
X119133227Y-106917996D01*
X119109428Y-106912035D01*
X119086329Y-106903770D01*
X119064150Y-106893280D01*
X119043107Y-106880668D01*
X119023401Y-106866053D01*
X119005223Y-106849577D01*
X118988747Y-106831399D01*
X118974132Y-106811693D01*
X118961520Y-106790650D01*
X118951030Y-106768471D01*
X118942765Y-106745372D01*
X118936804Y-106721573D01*
X118933204Y-106697305D01*
X118932000Y-106672801D01*
X118932000Y-105772799D01*
X118933204Y-105748295D01*
X118936804Y-105724027D01*
X118942765Y-105700228D01*
X118951030Y-105677129D01*
X118961520Y-105654950D01*
X118974132Y-105633907D01*
X118988747Y-105614201D01*
X119005223Y-105596023D01*
X119023401Y-105579547D01*
X119043107Y-105564932D01*
X119064150Y-105552320D01*
X119086329Y-105541830D01*
X119109428Y-105533565D01*
X119133227Y-105527604D01*
X119157495Y-105524004D01*
X119181999Y-105522800D01*
X119832001Y-105522800D01*
X119856505Y-105524004D01*
X119856505Y-105524004D01*
G37*
D12*
X119507000Y-106222800D03*
D11*
G36*
X121906505Y-105524004D02*
X121930773Y-105527604D01*
X121954572Y-105533565D01*
X121977671Y-105541830D01*
X121999850Y-105552320D01*
X122020893Y-105564932D01*
X122040599Y-105579547D01*
X122058777Y-105596023D01*
X122075253Y-105614201D01*
X122089868Y-105633907D01*
X122102480Y-105654950D01*
X122112970Y-105677129D01*
X122121235Y-105700228D01*
X122127196Y-105724027D01*
X122130796Y-105748295D01*
X122132000Y-105772799D01*
X122132000Y-106672801D01*
X122130796Y-106697305D01*
X122127196Y-106721573D01*
X122121235Y-106745372D01*
X122112970Y-106768471D01*
X122102480Y-106790650D01*
X122089868Y-106811693D01*
X122075253Y-106831399D01*
X122058777Y-106849577D01*
X122040599Y-106866053D01*
X122020893Y-106880668D01*
X121999850Y-106893280D01*
X121977671Y-106903770D01*
X121954572Y-106912035D01*
X121930773Y-106917996D01*
X121906505Y-106921596D01*
X121882001Y-106922800D01*
X121231999Y-106922800D01*
X121207495Y-106921596D01*
X121183227Y-106917996D01*
X121159428Y-106912035D01*
X121136329Y-106903770D01*
X121114150Y-106893280D01*
X121093107Y-106880668D01*
X121073401Y-106866053D01*
X121055223Y-106849577D01*
X121038747Y-106831399D01*
X121024132Y-106811693D01*
X121011520Y-106790650D01*
X121001030Y-106768471D01*
X120992765Y-106745372D01*
X120986804Y-106721573D01*
X120983204Y-106697305D01*
X120982000Y-106672801D01*
X120982000Y-105772799D01*
X120983204Y-105748295D01*
X120986804Y-105724027D01*
X120992765Y-105700228D01*
X121001030Y-105677129D01*
X121011520Y-105654950D01*
X121024132Y-105633907D01*
X121038747Y-105614201D01*
X121055223Y-105596023D01*
X121073401Y-105579547D01*
X121093107Y-105564932D01*
X121114150Y-105552320D01*
X121136329Y-105541830D01*
X121159428Y-105533565D01*
X121183227Y-105527604D01*
X121207495Y-105524004D01*
X121231999Y-105522800D01*
X121882001Y-105522800D01*
X121906505Y-105524004D01*
X121906505Y-105524004D01*
G37*
D12*
X121557000Y-106222800D03*
G04 #@! TD*
D11*
G04 #@! TO.C,L1*
G36*
X119847505Y-103390404D02*
X119871773Y-103394004D01*
X119895572Y-103399965D01*
X119918671Y-103408230D01*
X119940850Y-103418720D01*
X119961893Y-103431332D01*
X119981599Y-103445947D01*
X119999777Y-103462423D01*
X120016253Y-103480601D01*
X120030868Y-103500307D01*
X120043480Y-103521350D01*
X120053970Y-103543529D01*
X120062235Y-103566628D01*
X120068196Y-103590427D01*
X120071796Y-103614695D01*
X120073000Y-103639199D01*
X120073000Y-104539201D01*
X120071796Y-104563705D01*
X120068196Y-104587973D01*
X120062235Y-104611772D01*
X120053970Y-104634871D01*
X120043480Y-104657050D01*
X120030868Y-104678093D01*
X120016253Y-104697799D01*
X119999777Y-104715977D01*
X119981599Y-104732453D01*
X119961893Y-104747068D01*
X119940850Y-104759680D01*
X119918671Y-104770170D01*
X119895572Y-104778435D01*
X119871773Y-104784396D01*
X119847505Y-104787996D01*
X119823001Y-104789200D01*
X119172999Y-104789200D01*
X119148495Y-104787996D01*
X119124227Y-104784396D01*
X119100428Y-104778435D01*
X119077329Y-104770170D01*
X119055150Y-104759680D01*
X119034107Y-104747068D01*
X119014401Y-104732453D01*
X118996223Y-104715977D01*
X118979747Y-104697799D01*
X118965132Y-104678093D01*
X118952520Y-104657050D01*
X118942030Y-104634871D01*
X118933765Y-104611772D01*
X118927804Y-104587973D01*
X118924204Y-104563705D01*
X118923000Y-104539201D01*
X118923000Y-103639199D01*
X118924204Y-103614695D01*
X118927804Y-103590427D01*
X118933765Y-103566628D01*
X118942030Y-103543529D01*
X118952520Y-103521350D01*
X118965132Y-103500307D01*
X118979747Y-103480601D01*
X118996223Y-103462423D01*
X119014401Y-103445947D01*
X119034107Y-103431332D01*
X119055150Y-103418720D01*
X119077329Y-103408230D01*
X119100428Y-103399965D01*
X119124227Y-103394004D01*
X119148495Y-103390404D01*
X119172999Y-103389200D01*
X119823001Y-103389200D01*
X119847505Y-103390404D01*
X119847505Y-103390404D01*
G37*
D12*
X119498000Y-104089200D03*
D11*
G36*
X121897505Y-103390404D02*
X121921773Y-103394004D01*
X121945572Y-103399965D01*
X121968671Y-103408230D01*
X121990850Y-103418720D01*
X122011893Y-103431332D01*
X122031599Y-103445947D01*
X122049777Y-103462423D01*
X122066253Y-103480601D01*
X122080868Y-103500307D01*
X122093480Y-103521350D01*
X122103970Y-103543529D01*
X122112235Y-103566628D01*
X122118196Y-103590427D01*
X122121796Y-103614695D01*
X122123000Y-103639199D01*
X122123000Y-104539201D01*
X122121796Y-104563705D01*
X122118196Y-104587973D01*
X122112235Y-104611772D01*
X122103970Y-104634871D01*
X122093480Y-104657050D01*
X122080868Y-104678093D01*
X122066253Y-104697799D01*
X122049777Y-104715977D01*
X122031599Y-104732453D01*
X122011893Y-104747068D01*
X121990850Y-104759680D01*
X121968671Y-104770170D01*
X121945572Y-104778435D01*
X121921773Y-104784396D01*
X121897505Y-104787996D01*
X121873001Y-104789200D01*
X121222999Y-104789200D01*
X121198495Y-104787996D01*
X121174227Y-104784396D01*
X121150428Y-104778435D01*
X121127329Y-104770170D01*
X121105150Y-104759680D01*
X121084107Y-104747068D01*
X121064401Y-104732453D01*
X121046223Y-104715977D01*
X121029747Y-104697799D01*
X121015132Y-104678093D01*
X121002520Y-104657050D01*
X120992030Y-104634871D01*
X120983765Y-104611772D01*
X120977804Y-104587973D01*
X120974204Y-104563705D01*
X120973000Y-104539201D01*
X120973000Y-103639199D01*
X120974204Y-103614695D01*
X120977804Y-103590427D01*
X120983765Y-103566628D01*
X120992030Y-103543529D01*
X121002520Y-103521350D01*
X121015132Y-103500307D01*
X121029747Y-103480601D01*
X121046223Y-103462423D01*
X121064401Y-103445947D01*
X121084107Y-103431332D01*
X121105150Y-103418720D01*
X121127329Y-103408230D01*
X121150428Y-103399965D01*
X121174227Y-103394004D01*
X121198495Y-103390404D01*
X121222999Y-103389200D01*
X121873001Y-103389200D01*
X121897505Y-103390404D01*
X121897505Y-103390404D01*
G37*
D12*
X121548000Y-104089200D03*
G04 #@! TD*
M02*
