G04 #@! TF.GenerationSoftware,KiCad,Pcbnew,(5.0.0)*
G04 #@! TF.CreationDate,2019-03-29T23:21:28-04:00*
G04 #@! TF.ProjectId,PoEShield,506F45536869656C642E6B696361645F,rev?*
G04 #@! TF.SameCoordinates,Original*
G04 #@! TF.FileFunction,Legend,Bot*
G04 #@! TF.FilePolarity,Positive*
%FSLAX46Y46*%
G04 Gerber Fmt 4.6, Leading zero omitted, Abs format (unit mm)*
G04 Created by KiCad (PCBNEW (5.0.0)) date 03/29/19 23:21:28*
%MOMM*%
%LPD*%
G01*
G04 APERTURE LIST*
%ADD10C,0.120000*%
%ADD11C,0.150000*%
G04 APERTURE END LIST*
D10*
G04 #@! TO.C,J3*
X152738000Y-91634000D02*
X152738000Y-99374000D01*
X152738000Y-99374000D02*
X150078000Y-99374000D01*
X150078000Y-99374000D02*
X150078000Y-91634000D01*
X150078000Y-91634000D02*
X152738000Y-91634000D01*
X150078000Y-92584000D02*
X144078000Y-92584000D01*
X144078000Y-92584000D02*
X144078000Y-93344000D01*
X144078000Y-93344000D02*
X150078000Y-93344000D01*
X150078000Y-92644000D02*
X144078000Y-92644000D01*
X150078000Y-92764000D02*
X144078000Y-92764000D01*
X150078000Y-92884000D02*
X144078000Y-92884000D01*
X150078000Y-93004000D02*
X144078000Y-93004000D01*
X150078000Y-93124000D02*
X144078000Y-93124000D01*
X150078000Y-93244000D02*
X144078000Y-93244000D01*
X153068000Y-92584000D02*
X152738000Y-92584000D01*
X153068000Y-93344000D02*
X152738000Y-93344000D01*
X152738000Y-94234000D02*
X150078000Y-94234000D01*
X150078000Y-95124000D02*
X144078000Y-95124000D01*
X144078000Y-95124000D02*
X144078000Y-95884000D01*
X144078000Y-95884000D02*
X150078000Y-95884000D01*
X153135071Y-95124000D02*
X152738000Y-95124000D01*
X153135071Y-95884000D02*
X152738000Y-95884000D01*
X152738000Y-96774000D02*
X150078000Y-96774000D01*
X150078000Y-97664000D02*
X144078000Y-97664000D01*
X144078000Y-97664000D02*
X144078000Y-98424000D01*
X144078000Y-98424000D02*
X150078000Y-98424000D01*
X153135071Y-97664000D02*
X152738000Y-97664000D01*
X153135071Y-98424000D02*
X152738000Y-98424000D01*
X155448000Y-92964000D02*
X155448000Y-91694000D01*
X155448000Y-91694000D02*
X154178000Y-91694000D01*
G04 #@! TO.C,C6*
X137623136Y-105596100D02*
X138827264Y-105596100D01*
X137623136Y-103776100D02*
X138827264Y-103776100D01*
G04 #@! TO.C,C7*
X137637436Y-101337700D02*
X138841564Y-101337700D01*
X137637436Y-103157700D02*
X138841564Y-103157700D01*
G04 #@! TO.C,J3*
D11*
X151854493Y-90287860D02*
X151854493Y-91002146D01*
X151902112Y-91145003D01*
X151997350Y-91240241D01*
X152140207Y-91287860D01*
X152235445Y-91287860D01*
X151473540Y-90287860D02*
X150854493Y-90287860D01*
X151187826Y-90668813D01*
X151044969Y-90668813D01*
X150949731Y-90716432D01*
X150902112Y-90764051D01*
X150854493Y-90859289D01*
X150854493Y-91097384D01*
X150902112Y-91192622D01*
X150949731Y-91240241D01*
X151044969Y-91287860D01*
X151330683Y-91287860D01*
X151425921Y-91240241D01*
X151473540Y-91192622D01*
G04 #@! TO.C,C6*
X134984786Y-105010222D02*
X135032405Y-105057841D01*
X135175262Y-105105460D01*
X135270500Y-105105460D01*
X135413358Y-105057841D01*
X135508596Y-104962603D01*
X135556215Y-104867365D01*
X135603834Y-104676889D01*
X135603834Y-104534032D01*
X135556215Y-104343556D01*
X135508596Y-104248318D01*
X135413358Y-104153080D01*
X135270500Y-104105460D01*
X135175262Y-104105460D01*
X135032405Y-104153080D01*
X134984786Y-104200699D01*
X134127643Y-104105460D02*
X134318120Y-104105460D01*
X134413358Y-104153080D01*
X134460977Y-104200699D01*
X134556215Y-104343556D01*
X134603834Y-104534032D01*
X134603834Y-104914984D01*
X134556215Y-105010222D01*
X134508596Y-105057841D01*
X134413358Y-105105460D01*
X134222881Y-105105460D01*
X134127643Y-105057841D01*
X134080024Y-105010222D01*
X134032405Y-104914984D01*
X134032405Y-104676889D01*
X134080024Y-104581651D01*
X134127643Y-104534032D01*
X134222881Y-104486413D01*
X134413358Y-104486413D01*
X134508596Y-104534032D01*
X134556215Y-104581651D01*
X134603834Y-104676889D01*
G04 #@! TO.C,C7*
X135066066Y-102637862D02*
X135113685Y-102685481D01*
X135256542Y-102733100D01*
X135351780Y-102733100D01*
X135494638Y-102685481D01*
X135589876Y-102590243D01*
X135637495Y-102495005D01*
X135685114Y-102304529D01*
X135685114Y-102161672D01*
X135637495Y-101971196D01*
X135589876Y-101875958D01*
X135494638Y-101780720D01*
X135351780Y-101733100D01*
X135256542Y-101733100D01*
X135113685Y-101780720D01*
X135066066Y-101828339D01*
X134732733Y-101733100D02*
X134066066Y-101733100D01*
X134494638Y-102733100D01*
G04 #@! TD*
M02*
