G04 #@! TF.GenerationSoftware,KiCad,Pcbnew,(5.0.0)*
G04 #@! TF.CreationDate,2019-03-29T23:21:28-04:00*
G04 #@! TF.ProjectId,PoEShield,506F45536869656C642E6B696361645F,rev?*
G04 #@! TF.SameCoordinates,Original*
G04 #@! TF.FileFunction,Paste,Bot*
G04 #@! TF.FilePolarity,Positive*
%FSLAX46Y46*%
G04 Gerber Fmt 4.6, Leading zero omitted, Abs format (unit mm)*
G04 Created by KiCad (PCBNEW (5.0.0)) date 03/29/19 23:21:28*
%MOMM*%
%LPD*%
G01*
G04 APERTURE LIST*
%ADD10C,0.100000*%
%ADD11C,1.425000*%
G04 APERTURE END LIST*
D10*
G04 #@! TO.C,C6*
G36*
X137224704Y-103812304D02*
X137248973Y-103815904D01*
X137272771Y-103821865D01*
X137295871Y-103830130D01*
X137318049Y-103840620D01*
X137339093Y-103853233D01*
X137358798Y-103867847D01*
X137376977Y-103884323D01*
X137393453Y-103902502D01*
X137408067Y-103922207D01*
X137420680Y-103943251D01*
X137431170Y-103965429D01*
X137439435Y-103988529D01*
X137445396Y-104012327D01*
X137448996Y-104036596D01*
X137450200Y-104061100D01*
X137450200Y-105311100D01*
X137448996Y-105335604D01*
X137445396Y-105359873D01*
X137439435Y-105383671D01*
X137431170Y-105406771D01*
X137420680Y-105428949D01*
X137408067Y-105449993D01*
X137393453Y-105469698D01*
X137376977Y-105487877D01*
X137358798Y-105504353D01*
X137339093Y-105518967D01*
X137318049Y-105531580D01*
X137295871Y-105542070D01*
X137272771Y-105550335D01*
X137248973Y-105556296D01*
X137224704Y-105559896D01*
X137200200Y-105561100D01*
X136275200Y-105561100D01*
X136250696Y-105559896D01*
X136226427Y-105556296D01*
X136202629Y-105550335D01*
X136179529Y-105542070D01*
X136157351Y-105531580D01*
X136136307Y-105518967D01*
X136116602Y-105504353D01*
X136098423Y-105487877D01*
X136081947Y-105469698D01*
X136067333Y-105449993D01*
X136054720Y-105428949D01*
X136044230Y-105406771D01*
X136035965Y-105383671D01*
X136030004Y-105359873D01*
X136026404Y-105335604D01*
X136025200Y-105311100D01*
X136025200Y-104061100D01*
X136026404Y-104036596D01*
X136030004Y-104012327D01*
X136035965Y-103988529D01*
X136044230Y-103965429D01*
X136054720Y-103943251D01*
X136067333Y-103922207D01*
X136081947Y-103902502D01*
X136098423Y-103884323D01*
X136116602Y-103867847D01*
X136136307Y-103853233D01*
X136157351Y-103840620D01*
X136179529Y-103830130D01*
X136202629Y-103821865D01*
X136226427Y-103815904D01*
X136250696Y-103812304D01*
X136275200Y-103811100D01*
X137200200Y-103811100D01*
X137224704Y-103812304D01*
X137224704Y-103812304D01*
G37*
D11*
X136737700Y-104686100D03*
D10*
G36*
X140199704Y-103812304D02*
X140223973Y-103815904D01*
X140247771Y-103821865D01*
X140270871Y-103830130D01*
X140293049Y-103840620D01*
X140314093Y-103853233D01*
X140333798Y-103867847D01*
X140351977Y-103884323D01*
X140368453Y-103902502D01*
X140383067Y-103922207D01*
X140395680Y-103943251D01*
X140406170Y-103965429D01*
X140414435Y-103988529D01*
X140420396Y-104012327D01*
X140423996Y-104036596D01*
X140425200Y-104061100D01*
X140425200Y-105311100D01*
X140423996Y-105335604D01*
X140420396Y-105359873D01*
X140414435Y-105383671D01*
X140406170Y-105406771D01*
X140395680Y-105428949D01*
X140383067Y-105449993D01*
X140368453Y-105469698D01*
X140351977Y-105487877D01*
X140333798Y-105504353D01*
X140314093Y-105518967D01*
X140293049Y-105531580D01*
X140270871Y-105542070D01*
X140247771Y-105550335D01*
X140223973Y-105556296D01*
X140199704Y-105559896D01*
X140175200Y-105561100D01*
X139250200Y-105561100D01*
X139225696Y-105559896D01*
X139201427Y-105556296D01*
X139177629Y-105550335D01*
X139154529Y-105542070D01*
X139132351Y-105531580D01*
X139111307Y-105518967D01*
X139091602Y-105504353D01*
X139073423Y-105487877D01*
X139056947Y-105469698D01*
X139042333Y-105449993D01*
X139029720Y-105428949D01*
X139019230Y-105406771D01*
X139010965Y-105383671D01*
X139005004Y-105359873D01*
X139001404Y-105335604D01*
X139000200Y-105311100D01*
X139000200Y-104061100D01*
X139001404Y-104036596D01*
X139005004Y-104012327D01*
X139010965Y-103988529D01*
X139019230Y-103965429D01*
X139029720Y-103943251D01*
X139042333Y-103922207D01*
X139056947Y-103902502D01*
X139073423Y-103884323D01*
X139091602Y-103867847D01*
X139111307Y-103853233D01*
X139132351Y-103840620D01*
X139154529Y-103830130D01*
X139177629Y-103821865D01*
X139201427Y-103815904D01*
X139225696Y-103812304D01*
X139250200Y-103811100D01*
X140175200Y-103811100D01*
X140199704Y-103812304D01*
X140199704Y-103812304D01*
G37*
D11*
X139712700Y-104686100D03*
G04 #@! TD*
D10*
G04 #@! TO.C,C7*
G36*
X140214004Y-101373904D02*
X140238273Y-101377504D01*
X140262071Y-101383465D01*
X140285171Y-101391730D01*
X140307349Y-101402220D01*
X140328393Y-101414833D01*
X140348098Y-101429447D01*
X140366277Y-101445923D01*
X140382753Y-101464102D01*
X140397367Y-101483807D01*
X140409980Y-101504851D01*
X140420470Y-101527029D01*
X140428735Y-101550129D01*
X140434696Y-101573927D01*
X140438296Y-101598196D01*
X140439500Y-101622700D01*
X140439500Y-102872700D01*
X140438296Y-102897204D01*
X140434696Y-102921473D01*
X140428735Y-102945271D01*
X140420470Y-102968371D01*
X140409980Y-102990549D01*
X140397367Y-103011593D01*
X140382753Y-103031298D01*
X140366277Y-103049477D01*
X140348098Y-103065953D01*
X140328393Y-103080567D01*
X140307349Y-103093180D01*
X140285171Y-103103670D01*
X140262071Y-103111935D01*
X140238273Y-103117896D01*
X140214004Y-103121496D01*
X140189500Y-103122700D01*
X139264500Y-103122700D01*
X139239996Y-103121496D01*
X139215727Y-103117896D01*
X139191929Y-103111935D01*
X139168829Y-103103670D01*
X139146651Y-103093180D01*
X139125607Y-103080567D01*
X139105902Y-103065953D01*
X139087723Y-103049477D01*
X139071247Y-103031298D01*
X139056633Y-103011593D01*
X139044020Y-102990549D01*
X139033530Y-102968371D01*
X139025265Y-102945271D01*
X139019304Y-102921473D01*
X139015704Y-102897204D01*
X139014500Y-102872700D01*
X139014500Y-101622700D01*
X139015704Y-101598196D01*
X139019304Y-101573927D01*
X139025265Y-101550129D01*
X139033530Y-101527029D01*
X139044020Y-101504851D01*
X139056633Y-101483807D01*
X139071247Y-101464102D01*
X139087723Y-101445923D01*
X139105902Y-101429447D01*
X139125607Y-101414833D01*
X139146651Y-101402220D01*
X139168829Y-101391730D01*
X139191929Y-101383465D01*
X139215727Y-101377504D01*
X139239996Y-101373904D01*
X139264500Y-101372700D01*
X140189500Y-101372700D01*
X140214004Y-101373904D01*
X140214004Y-101373904D01*
G37*
D11*
X139727000Y-102247700D03*
D10*
G36*
X137239004Y-101373904D02*
X137263273Y-101377504D01*
X137287071Y-101383465D01*
X137310171Y-101391730D01*
X137332349Y-101402220D01*
X137353393Y-101414833D01*
X137373098Y-101429447D01*
X137391277Y-101445923D01*
X137407753Y-101464102D01*
X137422367Y-101483807D01*
X137434980Y-101504851D01*
X137445470Y-101527029D01*
X137453735Y-101550129D01*
X137459696Y-101573927D01*
X137463296Y-101598196D01*
X137464500Y-101622700D01*
X137464500Y-102872700D01*
X137463296Y-102897204D01*
X137459696Y-102921473D01*
X137453735Y-102945271D01*
X137445470Y-102968371D01*
X137434980Y-102990549D01*
X137422367Y-103011593D01*
X137407753Y-103031298D01*
X137391277Y-103049477D01*
X137373098Y-103065953D01*
X137353393Y-103080567D01*
X137332349Y-103093180D01*
X137310171Y-103103670D01*
X137287071Y-103111935D01*
X137263273Y-103117896D01*
X137239004Y-103121496D01*
X137214500Y-103122700D01*
X136289500Y-103122700D01*
X136264996Y-103121496D01*
X136240727Y-103117896D01*
X136216929Y-103111935D01*
X136193829Y-103103670D01*
X136171651Y-103093180D01*
X136150607Y-103080567D01*
X136130902Y-103065953D01*
X136112723Y-103049477D01*
X136096247Y-103031298D01*
X136081633Y-103011593D01*
X136069020Y-102990549D01*
X136058530Y-102968371D01*
X136050265Y-102945271D01*
X136044304Y-102921473D01*
X136040704Y-102897204D01*
X136039500Y-102872700D01*
X136039500Y-101622700D01*
X136040704Y-101598196D01*
X136044304Y-101573927D01*
X136050265Y-101550129D01*
X136058530Y-101527029D01*
X136069020Y-101504851D01*
X136081633Y-101483807D01*
X136096247Y-101464102D01*
X136112723Y-101445923D01*
X136130902Y-101429447D01*
X136150607Y-101414833D01*
X136171651Y-101402220D01*
X136193829Y-101391730D01*
X136216929Y-101383465D01*
X136240727Y-101377504D01*
X136264996Y-101373904D01*
X136289500Y-101372700D01*
X137214500Y-101372700D01*
X137239004Y-101373904D01*
X137239004Y-101373904D01*
G37*
D11*
X136752000Y-102247700D03*
G04 #@! TD*
M02*
