M48
;DRILL file {KiCad (5.0.0)} date 03/29/19 23:21:33
;FORMAT={-:-/ absolute / inch / decimal}
FMAT,2
INCH,TZ
T1C0.0157
T2C0.0299
T3C0.0354
T4C0.0394
T5C0.0591
%
G90
G05
M72
T1
X4.32Y-3.28
X4.32Y-3.3515
X4.35Y-3.32
X4.36Y-3.38
X4.42Y-3.26
X4.51Y-3.14
X4.784Y-3.282
X4.784Y-3.358
X4.786Y-3.432
X4.79Y-3.046
X4.79Y-3.194
X4.794Y-3.112
X4.85Y-4.135
X4.851Y-4.198
X4.884Y-3.693
X4.923Y-4.136
X4.925Y-4.2
X4.956Y-3.693
X4.97Y-3.274
X4.97Y-3.322
X5.024Y-3.274
X5.024Y-3.324
X5.255Y-3.32
X5.358Y-3.284
X5.408Y-3.26
X5.408Y-3.314
X5.474Y-3.314
X5.476Y-3.262
X5.54Y-3.262
X5.54Y-3.316
X5.67Y-2.89
X5.74Y-3.085
X5.745Y-3.135
X5.856Y-2.888
X5.858Y-2.95
X5.922Y-2.95
X5.924Y-2.888
X5.998Y-4.342
X5.998Y-4.394
X6.038Y-4.368
X6.076Y-4.344
X6.076Y-4.392
X6.2Y-2.994
T2
X3.94Y-3.84
X3.99Y-3.74
X4.04Y-3.84
X4.09Y-3.74
X4.14Y-3.84
X4.19Y-3.74
X4.24Y-3.84
X4.29Y-3.74
T3
X4.571Y-3.216
X4.571Y-3.316
X4.571Y-3.416
X4.571Y-3.516
X4.571Y-3.616
X4.571Y-3.716
X4.571Y-3.816
X4.571Y-3.916
X4.571Y-4.016
X4.571Y-4.116
X4.571Y-4.216
X4.571Y-4.316
X6.1615Y-4.1179
X6.1631Y-3.2179
X6.1631Y-3.3179
X6.1631Y-3.4179
X6.1631Y-3.5179
X6.1631Y-4.0179
X6.1631Y-4.2179
X6.1631Y-4.3179
T4
X6.07Y-3.66
X6.07Y-3.76
X6.07Y-3.86
T5
X5.064Y-3.502
X5.064Y-3.802
X5.064Y-4.002
X5.864Y-3.502
X5.864Y-4.302
T0
M30
