G04 #@! TF.GenerationSoftware,KiCad,Pcbnew,(5.0.0)*
G04 #@! TF.CreationDate,2019-04-18T21:23:00-04:00*
G04 #@! TF.ProjectId,TouchscreenAdapter,546F75636873637265656E4164617074,rev?*
G04 #@! TF.SameCoordinates,Original*
G04 #@! TF.FileFunction,Paste,Top*
G04 #@! TF.FilePolarity,Positive*
%FSLAX46Y46*%
G04 Gerber Fmt 4.6, Leading zero omitted, Abs format (unit mm)*
G04 Created by KiCad (PCBNEW (5.0.0)) date 04/18/19 21:23:00*
%MOMM*%
%LPD*%
G01*
G04 APERTURE LIST*
%ADD10C,0.100000*%
%ADD11C,1.150000*%
%ADD12C,1.425000*%
%ADD13R,0.450000X0.600000*%
%ADD14R,0.600000X0.450000*%
%ADD15R,2.209800X1.803400*%
%ADD16R,1.295400X0.254000*%
%ADD17R,3.050000X1.300000*%
%ADD18R,2.200000X1.100000*%
%ADD19R,0.800000X0.300000*%
%ADD20R,1.700000X0.600000*%
%ADD21R,2.700000X1.000000*%
%ADD22R,1.300000X3.050000*%
%ADD23R,1.100000X2.200000*%
%ADD24R,0.300000X0.800000*%
%ADD25R,0.800000X0.900000*%
%ADD26R,1.400000X0.300000*%
%ADD27R,0.650000X1.560000*%
G04 APERTURE END LIST*
D10*
G04 #@! TO.C,C3*
G36*
X118965505Y-88181204D02*
X118989773Y-88184804D01*
X119013572Y-88190765D01*
X119036671Y-88199030D01*
X119058850Y-88209520D01*
X119079893Y-88222132D01*
X119099599Y-88236747D01*
X119117777Y-88253223D01*
X119134253Y-88271401D01*
X119148868Y-88291107D01*
X119161480Y-88312150D01*
X119171970Y-88334329D01*
X119180235Y-88357428D01*
X119186196Y-88381227D01*
X119189796Y-88405495D01*
X119191000Y-88429999D01*
X119191000Y-89080001D01*
X119189796Y-89104505D01*
X119186196Y-89128773D01*
X119180235Y-89152572D01*
X119171970Y-89175671D01*
X119161480Y-89197850D01*
X119148868Y-89218893D01*
X119134253Y-89238599D01*
X119117777Y-89256777D01*
X119099599Y-89273253D01*
X119079893Y-89287868D01*
X119058850Y-89300480D01*
X119036671Y-89310970D01*
X119013572Y-89319235D01*
X118989773Y-89325196D01*
X118965505Y-89328796D01*
X118941001Y-89330000D01*
X118040999Y-89330000D01*
X118016495Y-89328796D01*
X117992227Y-89325196D01*
X117968428Y-89319235D01*
X117945329Y-89310970D01*
X117923150Y-89300480D01*
X117902107Y-89287868D01*
X117882401Y-89273253D01*
X117864223Y-89256777D01*
X117847747Y-89238599D01*
X117833132Y-89218893D01*
X117820520Y-89197850D01*
X117810030Y-89175671D01*
X117801765Y-89152572D01*
X117795804Y-89128773D01*
X117792204Y-89104505D01*
X117791000Y-89080001D01*
X117791000Y-88429999D01*
X117792204Y-88405495D01*
X117795804Y-88381227D01*
X117801765Y-88357428D01*
X117810030Y-88334329D01*
X117820520Y-88312150D01*
X117833132Y-88291107D01*
X117847747Y-88271401D01*
X117864223Y-88253223D01*
X117882401Y-88236747D01*
X117902107Y-88222132D01*
X117923150Y-88209520D01*
X117945329Y-88199030D01*
X117968428Y-88190765D01*
X117992227Y-88184804D01*
X118016495Y-88181204D01*
X118040999Y-88180000D01*
X118941001Y-88180000D01*
X118965505Y-88181204D01*
X118965505Y-88181204D01*
G37*
D11*
X118491000Y-88755000D03*
D10*
G36*
X118965505Y-90231204D02*
X118989773Y-90234804D01*
X119013572Y-90240765D01*
X119036671Y-90249030D01*
X119058850Y-90259520D01*
X119079893Y-90272132D01*
X119099599Y-90286747D01*
X119117777Y-90303223D01*
X119134253Y-90321401D01*
X119148868Y-90341107D01*
X119161480Y-90362150D01*
X119171970Y-90384329D01*
X119180235Y-90407428D01*
X119186196Y-90431227D01*
X119189796Y-90455495D01*
X119191000Y-90479999D01*
X119191000Y-91130001D01*
X119189796Y-91154505D01*
X119186196Y-91178773D01*
X119180235Y-91202572D01*
X119171970Y-91225671D01*
X119161480Y-91247850D01*
X119148868Y-91268893D01*
X119134253Y-91288599D01*
X119117777Y-91306777D01*
X119099599Y-91323253D01*
X119079893Y-91337868D01*
X119058850Y-91350480D01*
X119036671Y-91360970D01*
X119013572Y-91369235D01*
X118989773Y-91375196D01*
X118965505Y-91378796D01*
X118941001Y-91380000D01*
X118040999Y-91380000D01*
X118016495Y-91378796D01*
X117992227Y-91375196D01*
X117968428Y-91369235D01*
X117945329Y-91360970D01*
X117923150Y-91350480D01*
X117902107Y-91337868D01*
X117882401Y-91323253D01*
X117864223Y-91306777D01*
X117847747Y-91288599D01*
X117833132Y-91268893D01*
X117820520Y-91247850D01*
X117810030Y-91225671D01*
X117801765Y-91202572D01*
X117795804Y-91178773D01*
X117792204Y-91154505D01*
X117791000Y-91130001D01*
X117791000Y-90479999D01*
X117792204Y-90455495D01*
X117795804Y-90431227D01*
X117801765Y-90407428D01*
X117810030Y-90384329D01*
X117820520Y-90362150D01*
X117833132Y-90341107D01*
X117847747Y-90321401D01*
X117864223Y-90303223D01*
X117882401Y-90286747D01*
X117902107Y-90272132D01*
X117923150Y-90259520D01*
X117945329Y-90249030D01*
X117968428Y-90240765D01*
X117992227Y-90234804D01*
X118016495Y-90231204D01*
X118040999Y-90230000D01*
X118941001Y-90230000D01*
X118965505Y-90231204D01*
X118965505Y-90231204D01*
G37*
D11*
X118491000Y-90805000D03*
G04 #@! TD*
D10*
G04 #@! TO.C,C4*
G36*
X130843004Y-89550204D02*
X130867273Y-89553804D01*
X130891071Y-89559765D01*
X130914171Y-89568030D01*
X130936349Y-89578520D01*
X130957393Y-89591133D01*
X130977098Y-89605747D01*
X130995277Y-89622223D01*
X131011753Y-89640402D01*
X131026367Y-89660107D01*
X131038980Y-89681151D01*
X131049470Y-89703329D01*
X131057735Y-89726429D01*
X131063696Y-89750227D01*
X131067296Y-89774496D01*
X131068500Y-89799000D01*
X131068500Y-91049000D01*
X131067296Y-91073504D01*
X131063696Y-91097773D01*
X131057735Y-91121571D01*
X131049470Y-91144671D01*
X131038980Y-91166849D01*
X131026367Y-91187893D01*
X131011753Y-91207598D01*
X130995277Y-91225777D01*
X130977098Y-91242253D01*
X130957393Y-91256867D01*
X130936349Y-91269480D01*
X130914171Y-91279970D01*
X130891071Y-91288235D01*
X130867273Y-91294196D01*
X130843004Y-91297796D01*
X130818500Y-91299000D01*
X129893500Y-91299000D01*
X129868996Y-91297796D01*
X129844727Y-91294196D01*
X129820929Y-91288235D01*
X129797829Y-91279970D01*
X129775651Y-91269480D01*
X129754607Y-91256867D01*
X129734902Y-91242253D01*
X129716723Y-91225777D01*
X129700247Y-91207598D01*
X129685633Y-91187893D01*
X129673020Y-91166849D01*
X129662530Y-91144671D01*
X129654265Y-91121571D01*
X129648304Y-91097773D01*
X129644704Y-91073504D01*
X129643500Y-91049000D01*
X129643500Y-89799000D01*
X129644704Y-89774496D01*
X129648304Y-89750227D01*
X129654265Y-89726429D01*
X129662530Y-89703329D01*
X129673020Y-89681151D01*
X129685633Y-89660107D01*
X129700247Y-89640402D01*
X129716723Y-89622223D01*
X129734902Y-89605747D01*
X129754607Y-89591133D01*
X129775651Y-89578520D01*
X129797829Y-89568030D01*
X129820929Y-89559765D01*
X129844727Y-89553804D01*
X129868996Y-89550204D01*
X129893500Y-89549000D01*
X130818500Y-89549000D01*
X130843004Y-89550204D01*
X130843004Y-89550204D01*
G37*
D12*
X130356000Y-90424000D03*
D10*
G36*
X127868004Y-89550204D02*
X127892273Y-89553804D01*
X127916071Y-89559765D01*
X127939171Y-89568030D01*
X127961349Y-89578520D01*
X127982393Y-89591133D01*
X128002098Y-89605747D01*
X128020277Y-89622223D01*
X128036753Y-89640402D01*
X128051367Y-89660107D01*
X128063980Y-89681151D01*
X128074470Y-89703329D01*
X128082735Y-89726429D01*
X128088696Y-89750227D01*
X128092296Y-89774496D01*
X128093500Y-89799000D01*
X128093500Y-91049000D01*
X128092296Y-91073504D01*
X128088696Y-91097773D01*
X128082735Y-91121571D01*
X128074470Y-91144671D01*
X128063980Y-91166849D01*
X128051367Y-91187893D01*
X128036753Y-91207598D01*
X128020277Y-91225777D01*
X128002098Y-91242253D01*
X127982393Y-91256867D01*
X127961349Y-91269480D01*
X127939171Y-91279970D01*
X127916071Y-91288235D01*
X127892273Y-91294196D01*
X127868004Y-91297796D01*
X127843500Y-91299000D01*
X126918500Y-91299000D01*
X126893996Y-91297796D01*
X126869727Y-91294196D01*
X126845929Y-91288235D01*
X126822829Y-91279970D01*
X126800651Y-91269480D01*
X126779607Y-91256867D01*
X126759902Y-91242253D01*
X126741723Y-91225777D01*
X126725247Y-91207598D01*
X126710633Y-91187893D01*
X126698020Y-91166849D01*
X126687530Y-91144671D01*
X126679265Y-91121571D01*
X126673304Y-91097773D01*
X126669704Y-91073504D01*
X126668500Y-91049000D01*
X126668500Y-89799000D01*
X126669704Y-89774496D01*
X126673304Y-89750227D01*
X126679265Y-89726429D01*
X126687530Y-89703329D01*
X126698020Y-89681151D01*
X126710633Y-89660107D01*
X126725247Y-89640402D01*
X126741723Y-89622223D01*
X126759902Y-89605747D01*
X126779607Y-89591133D01*
X126800651Y-89578520D01*
X126822829Y-89568030D01*
X126845929Y-89559765D01*
X126869727Y-89553804D01*
X126893996Y-89550204D01*
X126918500Y-89549000D01*
X127843500Y-89549000D01*
X127868004Y-89550204D01*
X127868004Y-89550204D01*
G37*
D12*
X127381000Y-90424000D03*
G04 #@! TD*
D10*
G04 #@! TO.C,C5*
G36*
X118965505Y-93270204D02*
X118989773Y-93273804D01*
X119013572Y-93279765D01*
X119036671Y-93288030D01*
X119058850Y-93298520D01*
X119079893Y-93311132D01*
X119099599Y-93325747D01*
X119117777Y-93342223D01*
X119134253Y-93360401D01*
X119148868Y-93380107D01*
X119161480Y-93401150D01*
X119171970Y-93423329D01*
X119180235Y-93446428D01*
X119186196Y-93470227D01*
X119189796Y-93494495D01*
X119191000Y-93518999D01*
X119191000Y-94169001D01*
X119189796Y-94193505D01*
X119186196Y-94217773D01*
X119180235Y-94241572D01*
X119171970Y-94264671D01*
X119161480Y-94286850D01*
X119148868Y-94307893D01*
X119134253Y-94327599D01*
X119117777Y-94345777D01*
X119099599Y-94362253D01*
X119079893Y-94376868D01*
X119058850Y-94389480D01*
X119036671Y-94399970D01*
X119013572Y-94408235D01*
X118989773Y-94414196D01*
X118965505Y-94417796D01*
X118941001Y-94419000D01*
X118040999Y-94419000D01*
X118016495Y-94417796D01*
X117992227Y-94414196D01*
X117968428Y-94408235D01*
X117945329Y-94399970D01*
X117923150Y-94389480D01*
X117902107Y-94376868D01*
X117882401Y-94362253D01*
X117864223Y-94345777D01*
X117847747Y-94327599D01*
X117833132Y-94307893D01*
X117820520Y-94286850D01*
X117810030Y-94264671D01*
X117801765Y-94241572D01*
X117795804Y-94217773D01*
X117792204Y-94193505D01*
X117791000Y-94169001D01*
X117791000Y-93518999D01*
X117792204Y-93494495D01*
X117795804Y-93470227D01*
X117801765Y-93446428D01*
X117810030Y-93423329D01*
X117820520Y-93401150D01*
X117833132Y-93380107D01*
X117847747Y-93360401D01*
X117864223Y-93342223D01*
X117882401Y-93325747D01*
X117902107Y-93311132D01*
X117923150Y-93298520D01*
X117945329Y-93288030D01*
X117968428Y-93279765D01*
X117992227Y-93273804D01*
X118016495Y-93270204D01*
X118040999Y-93269000D01*
X118941001Y-93269000D01*
X118965505Y-93270204D01*
X118965505Y-93270204D01*
G37*
D11*
X118491000Y-93844000D03*
D10*
G36*
X118965505Y-95320204D02*
X118989773Y-95323804D01*
X119013572Y-95329765D01*
X119036671Y-95338030D01*
X119058850Y-95348520D01*
X119079893Y-95361132D01*
X119099599Y-95375747D01*
X119117777Y-95392223D01*
X119134253Y-95410401D01*
X119148868Y-95430107D01*
X119161480Y-95451150D01*
X119171970Y-95473329D01*
X119180235Y-95496428D01*
X119186196Y-95520227D01*
X119189796Y-95544495D01*
X119191000Y-95568999D01*
X119191000Y-96219001D01*
X119189796Y-96243505D01*
X119186196Y-96267773D01*
X119180235Y-96291572D01*
X119171970Y-96314671D01*
X119161480Y-96336850D01*
X119148868Y-96357893D01*
X119134253Y-96377599D01*
X119117777Y-96395777D01*
X119099599Y-96412253D01*
X119079893Y-96426868D01*
X119058850Y-96439480D01*
X119036671Y-96449970D01*
X119013572Y-96458235D01*
X118989773Y-96464196D01*
X118965505Y-96467796D01*
X118941001Y-96469000D01*
X118040999Y-96469000D01*
X118016495Y-96467796D01*
X117992227Y-96464196D01*
X117968428Y-96458235D01*
X117945329Y-96449970D01*
X117923150Y-96439480D01*
X117902107Y-96426868D01*
X117882401Y-96412253D01*
X117864223Y-96395777D01*
X117847747Y-96377599D01*
X117833132Y-96357893D01*
X117820520Y-96336850D01*
X117810030Y-96314671D01*
X117801765Y-96291572D01*
X117795804Y-96267773D01*
X117792204Y-96243505D01*
X117791000Y-96219001D01*
X117791000Y-95568999D01*
X117792204Y-95544495D01*
X117795804Y-95520227D01*
X117801765Y-95496428D01*
X117810030Y-95473329D01*
X117820520Y-95451150D01*
X117833132Y-95430107D01*
X117847747Y-95410401D01*
X117864223Y-95392223D01*
X117882401Y-95375747D01*
X117902107Y-95361132D01*
X117923150Y-95348520D01*
X117945329Y-95338030D01*
X117968428Y-95329765D01*
X117992227Y-95323804D01*
X118016495Y-95320204D01*
X118040999Y-95319000D01*
X118941001Y-95319000D01*
X118965505Y-95320204D01*
X118965505Y-95320204D01*
G37*
D11*
X118491000Y-95894000D03*
G04 #@! TD*
D10*
G04 #@! TO.C,C6*
G36*
X123666505Y-88836204D02*
X123690773Y-88839804D01*
X123714572Y-88845765D01*
X123737671Y-88854030D01*
X123759850Y-88864520D01*
X123780893Y-88877132D01*
X123800599Y-88891747D01*
X123818777Y-88908223D01*
X123835253Y-88926401D01*
X123849868Y-88946107D01*
X123862480Y-88967150D01*
X123872970Y-88989329D01*
X123881235Y-89012428D01*
X123887196Y-89036227D01*
X123890796Y-89060495D01*
X123892000Y-89084999D01*
X123892000Y-89985001D01*
X123890796Y-90009505D01*
X123887196Y-90033773D01*
X123881235Y-90057572D01*
X123872970Y-90080671D01*
X123862480Y-90102850D01*
X123849868Y-90123893D01*
X123835253Y-90143599D01*
X123818777Y-90161777D01*
X123800599Y-90178253D01*
X123780893Y-90192868D01*
X123759850Y-90205480D01*
X123737671Y-90215970D01*
X123714572Y-90224235D01*
X123690773Y-90230196D01*
X123666505Y-90233796D01*
X123642001Y-90235000D01*
X122991999Y-90235000D01*
X122967495Y-90233796D01*
X122943227Y-90230196D01*
X122919428Y-90224235D01*
X122896329Y-90215970D01*
X122874150Y-90205480D01*
X122853107Y-90192868D01*
X122833401Y-90178253D01*
X122815223Y-90161777D01*
X122798747Y-90143599D01*
X122784132Y-90123893D01*
X122771520Y-90102850D01*
X122761030Y-90080671D01*
X122752765Y-90057572D01*
X122746804Y-90033773D01*
X122743204Y-90009505D01*
X122742000Y-89985001D01*
X122742000Y-89084999D01*
X122743204Y-89060495D01*
X122746804Y-89036227D01*
X122752765Y-89012428D01*
X122761030Y-88989329D01*
X122771520Y-88967150D01*
X122784132Y-88946107D01*
X122798747Y-88926401D01*
X122815223Y-88908223D01*
X122833401Y-88891747D01*
X122853107Y-88877132D01*
X122874150Y-88864520D01*
X122896329Y-88854030D01*
X122919428Y-88845765D01*
X122943227Y-88839804D01*
X122967495Y-88836204D01*
X122991999Y-88835000D01*
X123642001Y-88835000D01*
X123666505Y-88836204D01*
X123666505Y-88836204D01*
G37*
D11*
X123317000Y-89535000D03*
D10*
G36*
X125716505Y-88836204D02*
X125740773Y-88839804D01*
X125764572Y-88845765D01*
X125787671Y-88854030D01*
X125809850Y-88864520D01*
X125830893Y-88877132D01*
X125850599Y-88891747D01*
X125868777Y-88908223D01*
X125885253Y-88926401D01*
X125899868Y-88946107D01*
X125912480Y-88967150D01*
X125922970Y-88989329D01*
X125931235Y-89012428D01*
X125937196Y-89036227D01*
X125940796Y-89060495D01*
X125942000Y-89084999D01*
X125942000Y-89985001D01*
X125940796Y-90009505D01*
X125937196Y-90033773D01*
X125931235Y-90057572D01*
X125922970Y-90080671D01*
X125912480Y-90102850D01*
X125899868Y-90123893D01*
X125885253Y-90143599D01*
X125868777Y-90161777D01*
X125850599Y-90178253D01*
X125830893Y-90192868D01*
X125809850Y-90205480D01*
X125787671Y-90215970D01*
X125764572Y-90224235D01*
X125740773Y-90230196D01*
X125716505Y-90233796D01*
X125692001Y-90235000D01*
X125041999Y-90235000D01*
X125017495Y-90233796D01*
X124993227Y-90230196D01*
X124969428Y-90224235D01*
X124946329Y-90215970D01*
X124924150Y-90205480D01*
X124903107Y-90192868D01*
X124883401Y-90178253D01*
X124865223Y-90161777D01*
X124848747Y-90143599D01*
X124834132Y-90123893D01*
X124821520Y-90102850D01*
X124811030Y-90080671D01*
X124802765Y-90057572D01*
X124796804Y-90033773D01*
X124793204Y-90009505D01*
X124792000Y-89985001D01*
X124792000Y-89084999D01*
X124793204Y-89060495D01*
X124796804Y-89036227D01*
X124802765Y-89012428D01*
X124811030Y-88989329D01*
X124821520Y-88967150D01*
X124834132Y-88946107D01*
X124848747Y-88926401D01*
X124865223Y-88908223D01*
X124883401Y-88891747D01*
X124903107Y-88877132D01*
X124924150Y-88864520D01*
X124946329Y-88854030D01*
X124969428Y-88845765D01*
X124993227Y-88839804D01*
X125017495Y-88836204D01*
X125041999Y-88835000D01*
X125692001Y-88835000D01*
X125716505Y-88836204D01*
X125716505Y-88836204D01*
G37*
D11*
X125367000Y-89535000D03*
G04 #@! TD*
D10*
G04 #@! TO.C,C7*
G36*
X130134505Y-97599204D02*
X130158773Y-97602804D01*
X130182572Y-97608765D01*
X130205671Y-97617030D01*
X130227850Y-97627520D01*
X130248893Y-97640132D01*
X130268599Y-97654747D01*
X130286777Y-97671223D01*
X130303253Y-97689401D01*
X130317868Y-97709107D01*
X130330480Y-97730150D01*
X130340970Y-97752329D01*
X130349235Y-97775428D01*
X130355196Y-97799227D01*
X130358796Y-97823495D01*
X130360000Y-97847999D01*
X130360000Y-98748001D01*
X130358796Y-98772505D01*
X130355196Y-98796773D01*
X130349235Y-98820572D01*
X130340970Y-98843671D01*
X130330480Y-98865850D01*
X130317868Y-98886893D01*
X130303253Y-98906599D01*
X130286777Y-98924777D01*
X130268599Y-98941253D01*
X130248893Y-98955868D01*
X130227850Y-98968480D01*
X130205671Y-98978970D01*
X130182572Y-98987235D01*
X130158773Y-98993196D01*
X130134505Y-98996796D01*
X130110001Y-98998000D01*
X129459999Y-98998000D01*
X129435495Y-98996796D01*
X129411227Y-98993196D01*
X129387428Y-98987235D01*
X129364329Y-98978970D01*
X129342150Y-98968480D01*
X129321107Y-98955868D01*
X129301401Y-98941253D01*
X129283223Y-98924777D01*
X129266747Y-98906599D01*
X129252132Y-98886893D01*
X129239520Y-98865850D01*
X129229030Y-98843671D01*
X129220765Y-98820572D01*
X129214804Y-98796773D01*
X129211204Y-98772505D01*
X129210000Y-98748001D01*
X129210000Y-97847999D01*
X129211204Y-97823495D01*
X129214804Y-97799227D01*
X129220765Y-97775428D01*
X129229030Y-97752329D01*
X129239520Y-97730150D01*
X129252132Y-97709107D01*
X129266747Y-97689401D01*
X129283223Y-97671223D01*
X129301401Y-97654747D01*
X129321107Y-97640132D01*
X129342150Y-97627520D01*
X129364329Y-97617030D01*
X129387428Y-97608765D01*
X129411227Y-97602804D01*
X129435495Y-97599204D01*
X129459999Y-97598000D01*
X130110001Y-97598000D01*
X130134505Y-97599204D01*
X130134505Y-97599204D01*
G37*
D11*
X129785000Y-98298000D03*
D10*
G36*
X132184505Y-97599204D02*
X132208773Y-97602804D01*
X132232572Y-97608765D01*
X132255671Y-97617030D01*
X132277850Y-97627520D01*
X132298893Y-97640132D01*
X132318599Y-97654747D01*
X132336777Y-97671223D01*
X132353253Y-97689401D01*
X132367868Y-97709107D01*
X132380480Y-97730150D01*
X132390970Y-97752329D01*
X132399235Y-97775428D01*
X132405196Y-97799227D01*
X132408796Y-97823495D01*
X132410000Y-97847999D01*
X132410000Y-98748001D01*
X132408796Y-98772505D01*
X132405196Y-98796773D01*
X132399235Y-98820572D01*
X132390970Y-98843671D01*
X132380480Y-98865850D01*
X132367868Y-98886893D01*
X132353253Y-98906599D01*
X132336777Y-98924777D01*
X132318599Y-98941253D01*
X132298893Y-98955868D01*
X132277850Y-98968480D01*
X132255671Y-98978970D01*
X132232572Y-98987235D01*
X132208773Y-98993196D01*
X132184505Y-98996796D01*
X132160001Y-98998000D01*
X131509999Y-98998000D01*
X131485495Y-98996796D01*
X131461227Y-98993196D01*
X131437428Y-98987235D01*
X131414329Y-98978970D01*
X131392150Y-98968480D01*
X131371107Y-98955868D01*
X131351401Y-98941253D01*
X131333223Y-98924777D01*
X131316747Y-98906599D01*
X131302132Y-98886893D01*
X131289520Y-98865850D01*
X131279030Y-98843671D01*
X131270765Y-98820572D01*
X131264804Y-98796773D01*
X131261204Y-98772505D01*
X131260000Y-98748001D01*
X131260000Y-97847999D01*
X131261204Y-97823495D01*
X131264804Y-97799227D01*
X131270765Y-97775428D01*
X131279030Y-97752329D01*
X131289520Y-97730150D01*
X131302132Y-97709107D01*
X131316747Y-97689401D01*
X131333223Y-97671223D01*
X131351401Y-97654747D01*
X131371107Y-97640132D01*
X131392150Y-97627520D01*
X131414329Y-97617030D01*
X131437428Y-97608765D01*
X131461227Y-97602804D01*
X131485495Y-97599204D01*
X131509999Y-97598000D01*
X132160001Y-97598000D01*
X132184505Y-97599204D01*
X132184505Y-97599204D01*
G37*
D11*
X131835000Y-98298000D03*
G04 #@! TD*
D10*
G04 #@! TO.C,C8*
G36*
X132427505Y-92263204D02*
X132451773Y-92266804D01*
X132475572Y-92272765D01*
X132498671Y-92281030D01*
X132520850Y-92291520D01*
X132541893Y-92304132D01*
X132561599Y-92318747D01*
X132579777Y-92335223D01*
X132596253Y-92353401D01*
X132610868Y-92373107D01*
X132623480Y-92394150D01*
X132633970Y-92416329D01*
X132642235Y-92439428D01*
X132648196Y-92463227D01*
X132651796Y-92487495D01*
X132653000Y-92511999D01*
X132653000Y-93162001D01*
X132651796Y-93186505D01*
X132648196Y-93210773D01*
X132642235Y-93234572D01*
X132633970Y-93257671D01*
X132623480Y-93279850D01*
X132610868Y-93300893D01*
X132596253Y-93320599D01*
X132579777Y-93338777D01*
X132561599Y-93355253D01*
X132541893Y-93369868D01*
X132520850Y-93382480D01*
X132498671Y-93392970D01*
X132475572Y-93401235D01*
X132451773Y-93407196D01*
X132427505Y-93410796D01*
X132403001Y-93412000D01*
X131502999Y-93412000D01*
X131478495Y-93410796D01*
X131454227Y-93407196D01*
X131430428Y-93401235D01*
X131407329Y-93392970D01*
X131385150Y-93382480D01*
X131364107Y-93369868D01*
X131344401Y-93355253D01*
X131326223Y-93338777D01*
X131309747Y-93320599D01*
X131295132Y-93300893D01*
X131282520Y-93279850D01*
X131272030Y-93257671D01*
X131263765Y-93234572D01*
X131257804Y-93210773D01*
X131254204Y-93186505D01*
X131253000Y-93162001D01*
X131253000Y-92511999D01*
X131254204Y-92487495D01*
X131257804Y-92463227D01*
X131263765Y-92439428D01*
X131272030Y-92416329D01*
X131282520Y-92394150D01*
X131295132Y-92373107D01*
X131309747Y-92353401D01*
X131326223Y-92335223D01*
X131344401Y-92318747D01*
X131364107Y-92304132D01*
X131385150Y-92291520D01*
X131407329Y-92281030D01*
X131430428Y-92272765D01*
X131454227Y-92266804D01*
X131478495Y-92263204D01*
X131502999Y-92262000D01*
X132403001Y-92262000D01*
X132427505Y-92263204D01*
X132427505Y-92263204D01*
G37*
D11*
X131953000Y-92837000D03*
D10*
G36*
X132427505Y-94313204D02*
X132451773Y-94316804D01*
X132475572Y-94322765D01*
X132498671Y-94331030D01*
X132520850Y-94341520D01*
X132541893Y-94354132D01*
X132561599Y-94368747D01*
X132579777Y-94385223D01*
X132596253Y-94403401D01*
X132610868Y-94423107D01*
X132623480Y-94444150D01*
X132633970Y-94466329D01*
X132642235Y-94489428D01*
X132648196Y-94513227D01*
X132651796Y-94537495D01*
X132653000Y-94561999D01*
X132653000Y-95212001D01*
X132651796Y-95236505D01*
X132648196Y-95260773D01*
X132642235Y-95284572D01*
X132633970Y-95307671D01*
X132623480Y-95329850D01*
X132610868Y-95350893D01*
X132596253Y-95370599D01*
X132579777Y-95388777D01*
X132561599Y-95405253D01*
X132541893Y-95419868D01*
X132520850Y-95432480D01*
X132498671Y-95442970D01*
X132475572Y-95451235D01*
X132451773Y-95457196D01*
X132427505Y-95460796D01*
X132403001Y-95462000D01*
X131502999Y-95462000D01*
X131478495Y-95460796D01*
X131454227Y-95457196D01*
X131430428Y-95451235D01*
X131407329Y-95442970D01*
X131385150Y-95432480D01*
X131364107Y-95419868D01*
X131344401Y-95405253D01*
X131326223Y-95388777D01*
X131309747Y-95370599D01*
X131295132Y-95350893D01*
X131282520Y-95329850D01*
X131272030Y-95307671D01*
X131263765Y-95284572D01*
X131257804Y-95260773D01*
X131254204Y-95236505D01*
X131253000Y-95212001D01*
X131253000Y-94561999D01*
X131254204Y-94537495D01*
X131257804Y-94513227D01*
X131263765Y-94489428D01*
X131272030Y-94466329D01*
X131282520Y-94444150D01*
X131295132Y-94423107D01*
X131309747Y-94403401D01*
X131326223Y-94385223D01*
X131344401Y-94368747D01*
X131364107Y-94354132D01*
X131385150Y-94341520D01*
X131407329Y-94331030D01*
X131430428Y-94322765D01*
X131454227Y-94316804D01*
X131478495Y-94313204D01*
X131502999Y-94312000D01*
X132403001Y-94312000D01*
X132427505Y-94313204D01*
X132427505Y-94313204D01*
G37*
D11*
X131953000Y-94887000D03*
G04 #@! TD*
D10*
G04 #@! TO.C,C9*
G36*
X136745505Y-94295204D02*
X136769773Y-94298804D01*
X136793572Y-94304765D01*
X136816671Y-94313030D01*
X136838850Y-94323520D01*
X136859893Y-94336132D01*
X136879599Y-94350747D01*
X136897777Y-94367223D01*
X136914253Y-94385401D01*
X136928868Y-94405107D01*
X136941480Y-94426150D01*
X136951970Y-94448329D01*
X136960235Y-94471428D01*
X136966196Y-94495227D01*
X136969796Y-94519495D01*
X136971000Y-94543999D01*
X136971000Y-95194001D01*
X136969796Y-95218505D01*
X136966196Y-95242773D01*
X136960235Y-95266572D01*
X136951970Y-95289671D01*
X136941480Y-95311850D01*
X136928868Y-95332893D01*
X136914253Y-95352599D01*
X136897777Y-95370777D01*
X136879599Y-95387253D01*
X136859893Y-95401868D01*
X136838850Y-95414480D01*
X136816671Y-95424970D01*
X136793572Y-95433235D01*
X136769773Y-95439196D01*
X136745505Y-95442796D01*
X136721001Y-95444000D01*
X135820999Y-95444000D01*
X135796495Y-95442796D01*
X135772227Y-95439196D01*
X135748428Y-95433235D01*
X135725329Y-95424970D01*
X135703150Y-95414480D01*
X135682107Y-95401868D01*
X135662401Y-95387253D01*
X135644223Y-95370777D01*
X135627747Y-95352599D01*
X135613132Y-95332893D01*
X135600520Y-95311850D01*
X135590030Y-95289671D01*
X135581765Y-95266572D01*
X135575804Y-95242773D01*
X135572204Y-95218505D01*
X135571000Y-95194001D01*
X135571000Y-94543999D01*
X135572204Y-94519495D01*
X135575804Y-94495227D01*
X135581765Y-94471428D01*
X135590030Y-94448329D01*
X135600520Y-94426150D01*
X135613132Y-94405107D01*
X135627747Y-94385401D01*
X135644223Y-94367223D01*
X135662401Y-94350747D01*
X135682107Y-94336132D01*
X135703150Y-94323520D01*
X135725329Y-94313030D01*
X135748428Y-94304765D01*
X135772227Y-94298804D01*
X135796495Y-94295204D01*
X135820999Y-94294000D01*
X136721001Y-94294000D01*
X136745505Y-94295204D01*
X136745505Y-94295204D01*
G37*
D11*
X136271000Y-94869000D03*
D10*
G36*
X136745505Y-92245204D02*
X136769773Y-92248804D01*
X136793572Y-92254765D01*
X136816671Y-92263030D01*
X136838850Y-92273520D01*
X136859893Y-92286132D01*
X136879599Y-92300747D01*
X136897777Y-92317223D01*
X136914253Y-92335401D01*
X136928868Y-92355107D01*
X136941480Y-92376150D01*
X136951970Y-92398329D01*
X136960235Y-92421428D01*
X136966196Y-92445227D01*
X136969796Y-92469495D01*
X136971000Y-92493999D01*
X136971000Y-93144001D01*
X136969796Y-93168505D01*
X136966196Y-93192773D01*
X136960235Y-93216572D01*
X136951970Y-93239671D01*
X136941480Y-93261850D01*
X136928868Y-93282893D01*
X136914253Y-93302599D01*
X136897777Y-93320777D01*
X136879599Y-93337253D01*
X136859893Y-93351868D01*
X136838850Y-93364480D01*
X136816671Y-93374970D01*
X136793572Y-93383235D01*
X136769773Y-93389196D01*
X136745505Y-93392796D01*
X136721001Y-93394000D01*
X135820999Y-93394000D01*
X135796495Y-93392796D01*
X135772227Y-93389196D01*
X135748428Y-93383235D01*
X135725329Y-93374970D01*
X135703150Y-93364480D01*
X135682107Y-93351868D01*
X135662401Y-93337253D01*
X135644223Y-93320777D01*
X135627747Y-93302599D01*
X135613132Y-93282893D01*
X135600520Y-93261850D01*
X135590030Y-93239671D01*
X135581765Y-93216572D01*
X135575804Y-93192773D01*
X135572204Y-93168505D01*
X135571000Y-93144001D01*
X135571000Y-92493999D01*
X135572204Y-92469495D01*
X135575804Y-92445227D01*
X135581765Y-92421428D01*
X135590030Y-92398329D01*
X135600520Y-92376150D01*
X135613132Y-92355107D01*
X135627747Y-92335401D01*
X135644223Y-92317223D01*
X135662401Y-92300747D01*
X135682107Y-92286132D01*
X135703150Y-92273520D01*
X135725329Y-92263030D01*
X135748428Y-92254765D01*
X135772227Y-92248804D01*
X135796495Y-92245204D01*
X135820999Y-92244000D01*
X136721001Y-92244000D01*
X136745505Y-92245204D01*
X136745505Y-92245204D01*
G37*
D11*
X136271000Y-92819000D03*
G04 #@! TD*
D10*
G04 #@! TO.C,C10*
G36*
X142292004Y-98567204D02*
X142316273Y-98570804D01*
X142340071Y-98576765D01*
X142363171Y-98585030D01*
X142385349Y-98595520D01*
X142406393Y-98608133D01*
X142426098Y-98622747D01*
X142444277Y-98639223D01*
X142460753Y-98657402D01*
X142475367Y-98677107D01*
X142487980Y-98698151D01*
X142498470Y-98720329D01*
X142506735Y-98743429D01*
X142512696Y-98767227D01*
X142516296Y-98791496D01*
X142517500Y-98816000D01*
X142517500Y-100066000D01*
X142516296Y-100090504D01*
X142512696Y-100114773D01*
X142506735Y-100138571D01*
X142498470Y-100161671D01*
X142487980Y-100183849D01*
X142475367Y-100204893D01*
X142460753Y-100224598D01*
X142444277Y-100242777D01*
X142426098Y-100259253D01*
X142406393Y-100273867D01*
X142385349Y-100286480D01*
X142363171Y-100296970D01*
X142340071Y-100305235D01*
X142316273Y-100311196D01*
X142292004Y-100314796D01*
X142267500Y-100316000D01*
X141342500Y-100316000D01*
X141317996Y-100314796D01*
X141293727Y-100311196D01*
X141269929Y-100305235D01*
X141246829Y-100296970D01*
X141224651Y-100286480D01*
X141203607Y-100273867D01*
X141183902Y-100259253D01*
X141165723Y-100242777D01*
X141149247Y-100224598D01*
X141134633Y-100204893D01*
X141122020Y-100183849D01*
X141111530Y-100161671D01*
X141103265Y-100138571D01*
X141097304Y-100114773D01*
X141093704Y-100090504D01*
X141092500Y-100066000D01*
X141092500Y-98816000D01*
X141093704Y-98791496D01*
X141097304Y-98767227D01*
X141103265Y-98743429D01*
X141111530Y-98720329D01*
X141122020Y-98698151D01*
X141134633Y-98677107D01*
X141149247Y-98657402D01*
X141165723Y-98639223D01*
X141183902Y-98622747D01*
X141203607Y-98608133D01*
X141224651Y-98595520D01*
X141246829Y-98585030D01*
X141269929Y-98576765D01*
X141293727Y-98570804D01*
X141317996Y-98567204D01*
X141342500Y-98566000D01*
X142267500Y-98566000D01*
X142292004Y-98567204D01*
X142292004Y-98567204D01*
G37*
D12*
X141805000Y-99441000D03*
D10*
G36*
X145267004Y-98567204D02*
X145291273Y-98570804D01*
X145315071Y-98576765D01*
X145338171Y-98585030D01*
X145360349Y-98595520D01*
X145381393Y-98608133D01*
X145401098Y-98622747D01*
X145419277Y-98639223D01*
X145435753Y-98657402D01*
X145450367Y-98677107D01*
X145462980Y-98698151D01*
X145473470Y-98720329D01*
X145481735Y-98743429D01*
X145487696Y-98767227D01*
X145491296Y-98791496D01*
X145492500Y-98816000D01*
X145492500Y-100066000D01*
X145491296Y-100090504D01*
X145487696Y-100114773D01*
X145481735Y-100138571D01*
X145473470Y-100161671D01*
X145462980Y-100183849D01*
X145450367Y-100204893D01*
X145435753Y-100224598D01*
X145419277Y-100242777D01*
X145401098Y-100259253D01*
X145381393Y-100273867D01*
X145360349Y-100286480D01*
X145338171Y-100296970D01*
X145315071Y-100305235D01*
X145291273Y-100311196D01*
X145267004Y-100314796D01*
X145242500Y-100316000D01*
X144317500Y-100316000D01*
X144292996Y-100314796D01*
X144268727Y-100311196D01*
X144244929Y-100305235D01*
X144221829Y-100296970D01*
X144199651Y-100286480D01*
X144178607Y-100273867D01*
X144158902Y-100259253D01*
X144140723Y-100242777D01*
X144124247Y-100224598D01*
X144109633Y-100204893D01*
X144097020Y-100183849D01*
X144086530Y-100161671D01*
X144078265Y-100138571D01*
X144072304Y-100114773D01*
X144068704Y-100090504D01*
X144067500Y-100066000D01*
X144067500Y-98816000D01*
X144068704Y-98791496D01*
X144072304Y-98767227D01*
X144078265Y-98743429D01*
X144086530Y-98720329D01*
X144097020Y-98698151D01*
X144109633Y-98677107D01*
X144124247Y-98657402D01*
X144140723Y-98639223D01*
X144158902Y-98622747D01*
X144178607Y-98608133D01*
X144199651Y-98595520D01*
X144221829Y-98585030D01*
X144244929Y-98576765D01*
X144268727Y-98570804D01*
X144292996Y-98567204D01*
X144317500Y-98566000D01*
X145242500Y-98566000D01*
X145267004Y-98567204D01*
X145267004Y-98567204D01*
G37*
D12*
X144780000Y-99441000D03*
G04 #@! TD*
D10*
G04 #@! TO.C,C11*
G36*
X149874504Y-88896704D02*
X149898773Y-88900304D01*
X149922571Y-88906265D01*
X149945671Y-88914530D01*
X149967849Y-88925020D01*
X149988893Y-88937633D01*
X150008598Y-88952247D01*
X150026777Y-88968723D01*
X150043253Y-88986902D01*
X150057867Y-89006607D01*
X150070480Y-89027651D01*
X150080970Y-89049829D01*
X150089235Y-89072929D01*
X150095196Y-89096727D01*
X150098796Y-89120996D01*
X150100000Y-89145500D01*
X150100000Y-90070500D01*
X150098796Y-90095004D01*
X150095196Y-90119273D01*
X150089235Y-90143071D01*
X150080970Y-90166171D01*
X150070480Y-90188349D01*
X150057867Y-90209393D01*
X150043253Y-90229098D01*
X150026777Y-90247277D01*
X150008598Y-90263753D01*
X149988893Y-90278367D01*
X149967849Y-90290980D01*
X149945671Y-90301470D01*
X149922571Y-90309735D01*
X149898773Y-90315696D01*
X149874504Y-90319296D01*
X149850000Y-90320500D01*
X148600000Y-90320500D01*
X148575496Y-90319296D01*
X148551227Y-90315696D01*
X148527429Y-90309735D01*
X148504329Y-90301470D01*
X148482151Y-90290980D01*
X148461107Y-90278367D01*
X148441402Y-90263753D01*
X148423223Y-90247277D01*
X148406747Y-90229098D01*
X148392133Y-90209393D01*
X148379520Y-90188349D01*
X148369030Y-90166171D01*
X148360765Y-90143071D01*
X148354804Y-90119273D01*
X148351204Y-90095004D01*
X148350000Y-90070500D01*
X148350000Y-89145500D01*
X148351204Y-89120996D01*
X148354804Y-89096727D01*
X148360765Y-89072929D01*
X148369030Y-89049829D01*
X148379520Y-89027651D01*
X148392133Y-89006607D01*
X148406747Y-88986902D01*
X148423223Y-88968723D01*
X148441402Y-88952247D01*
X148461107Y-88937633D01*
X148482151Y-88925020D01*
X148504329Y-88914530D01*
X148527429Y-88906265D01*
X148551227Y-88900304D01*
X148575496Y-88896704D01*
X148600000Y-88895500D01*
X149850000Y-88895500D01*
X149874504Y-88896704D01*
X149874504Y-88896704D01*
G37*
D12*
X149225000Y-89608000D03*
D10*
G36*
X149874504Y-91871704D02*
X149898773Y-91875304D01*
X149922571Y-91881265D01*
X149945671Y-91889530D01*
X149967849Y-91900020D01*
X149988893Y-91912633D01*
X150008598Y-91927247D01*
X150026777Y-91943723D01*
X150043253Y-91961902D01*
X150057867Y-91981607D01*
X150070480Y-92002651D01*
X150080970Y-92024829D01*
X150089235Y-92047929D01*
X150095196Y-92071727D01*
X150098796Y-92095996D01*
X150100000Y-92120500D01*
X150100000Y-93045500D01*
X150098796Y-93070004D01*
X150095196Y-93094273D01*
X150089235Y-93118071D01*
X150080970Y-93141171D01*
X150070480Y-93163349D01*
X150057867Y-93184393D01*
X150043253Y-93204098D01*
X150026777Y-93222277D01*
X150008598Y-93238753D01*
X149988893Y-93253367D01*
X149967849Y-93265980D01*
X149945671Y-93276470D01*
X149922571Y-93284735D01*
X149898773Y-93290696D01*
X149874504Y-93294296D01*
X149850000Y-93295500D01*
X148600000Y-93295500D01*
X148575496Y-93294296D01*
X148551227Y-93290696D01*
X148527429Y-93284735D01*
X148504329Y-93276470D01*
X148482151Y-93265980D01*
X148461107Y-93253367D01*
X148441402Y-93238753D01*
X148423223Y-93222277D01*
X148406747Y-93204098D01*
X148392133Y-93184393D01*
X148379520Y-93163349D01*
X148369030Y-93141171D01*
X148360765Y-93118071D01*
X148354804Y-93094273D01*
X148351204Y-93070004D01*
X148350000Y-93045500D01*
X148350000Y-92120500D01*
X148351204Y-92095996D01*
X148354804Y-92071727D01*
X148360765Y-92047929D01*
X148369030Y-92024829D01*
X148379520Y-92002651D01*
X148392133Y-91981607D01*
X148406747Y-91961902D01*
X148423223Y-91943723D01*
X148441402Y-91927247D01*
X148461107Y-91912633D01*
X148482151Y-91900020D01*
X148504329Y-91889530D01*
X148527429Y-91881265D01*
X148551227Y-91875304D01*
X148575496Y-91871704D01*
X148600000Y-91870500D01*
X149850000Y-91870500D01*
X149874504Y-91871704D01*
X149874504Y-91871704D01*
G37*
D12*
X149225000Y-92583000D03*
G04 #@! TD*
D10*
G04 #@! TO.C,C12*
G36*
X141555505Y-86550204D02*
X141579773Y-86553804D01*
X141603572Y-86559765D01*
X141626671Y-86568030D01*
X141648850Y-86578520D01*
X141669893Y-86591132D01*
X141689599Y-86605747D01*
X141707777Y-86622223D01*
X141724253Y-86640401D01*
X141738868Y-86660107D01*
X141751480Y-86681150D01*
X141761970Y-86703329D01*
X141770235Y-86726428D01*
X141776196Y-86750227D01*
X141779796Y-86774495D01*
X141781000Y-86798999D01*
X141781000Y-87699001D01*
X141779796Y-87723505D01*
X141776196Y-87747773D01*
X141770235Y-87771572D01*
X141761970Y-87794671D01*
X141751480Y-87816850D01*
X141738868Y-87837893D01*
X141724253Y-87857599D01*
X141707777Y-87875777D01*
X141689599Y-87892253D01*
X141669893Y-87906868D01*
X141648850Y-87919480D01*
X141626671Y-87929970D01*
X141603572Y-87938235D01*
X141579773Y-87944196D01*
X141555505Y-87947796D01*
X141531001Y-87949000D01*
X140880999Y-87949000D01*
X140856495Y-87947796D01*
X140832227Y-87944196D01*
X140808428Y-87938235D01*
X140785329Y-87929970D01*
X140763150Y-87919480D01*
X140742107Y-87906868D01*
X140722401Y-87892253D01*
X140704223Y-87875777D01*
X140687747Y-87857599D01*
X140673132Y-87837893D01*
X140660520Y-87816850D01*
X140650030Y-87794671D01*
X140641765Y-87771572D01*
X140635804Y-87747773D01*
X140632204Y-87723505D01*
X140631000Y-87699001D01*
X140631000Y-86798999D01*
X140632204Y-86774495D01*
X140635804Y-86750227D01*
X140641765Y-86726428D01*
X140650030Y-86703329D01*
X140660520Y-86681150D01*
X140673132Y-86660107D01*
X140687747Y-86640401D01*
X140704223Y-86622223D01*
X140722401Y-86605747D01*
X140742107Y-86591132D01*
X140763150Y-86578520D01*
X140785329Y-86568030D01*
X140808428Y-86559765D01*
X140832227Y-86553804D01*
X140856495Y-86550204D01*
X140880999Y-86549000D01*
X141531001Y-86549000D01*
X141555505Y-86550204D01*
X141555505Y-86550204D01*
G37*
D11*
X141206000Y-87249000D03*
D10*
G36*
X143605505Y-86550204D02*
X143629773Y-86553804D01*
X143653572Y-86559765D01*
X143676671Y-86568030D01*
X143698850Y-86578520D01*
X143719893Y-86591132D01*
X143739599Y-86605747D01*
X143757777Y-86622223D01*
X143774253Y-86640401D01*
X143788868Y-86660107D01*
X143801480Y-86681150D01*
X143811970Y-86703329D01*
X143820235Y-86726428D01*
X143826196Y-86750227D01*
X143829796Y-86774495D01*
X143831000Y-86798999D01*
X143831000Y-87699001D01*
X143829796Y-87723505D01*
X143826196Y-87747773D01*
X143820235Y-87771572D01*
X143811970Y-87794671D01*
X143801480Y-87816850D01*
X143788868Y-87837893D01*
X143774253Y-87857599D01*
X143757777Y-87875777D01*
X143739599Y-87892253D01*
X143719893Y-87906868D01*
X143698850Y-87919480D01*
X143676671Y-87929970D01*
X143653572Y-87938235D01*
X143629773Y-87944196D01*
X143605505Y-87947796D01*
X143581001Y-87949000D01*
X142930999Y-87949000D01*
X142906495Y-87947796D01*
X142882227Y-87944196D01*
X142858428Y-87938235D01*
X142835329Y-87929970D01*
X142813150Y-87919480D01*
X142792107Y-87906868D01*
X142772401Y-87892253D01*
X142754223Y-87875777D01*
X142737747Y-87857599D01*
X142723132Y-87837893D01*
X142710520Y-87816850D01*
X142700030Y-87794671D01*
X142691765Y-87771572D01*
X142685804Y-87747773D01*
X142682204Y-87723505D01*
X142681000Y-87699001D01*
X142681000Y-86798999D01*
X142682204Y-86774495D01*
X142685804Y-86750227D01*
X142691765Y-86726428D01*
X142700030Y-86703329D01*
X142710520Y-86681150D01*
X142723132Y-86660107D01*
X142737747Y-86640401D01*
X142754223Y-86622223D01*
X142772401Y-86605747D01*
X142792107Y-86591132D01*
X142813150Y-86578520D01*
X142835329Y-86568030D01*
X142858428Y-86559765D01*
X142882227Y-86553804D01*
X142906495Y-86550204D01*
X142930999Y-86549000D01*
X143581001Y-86549000D01*
X143605505Y-86550204D01*
X143605505Y-86550204D01*
G37*
D11*
X143256000Y-87249000D03*
G04 #@! TD*
D13*
G04 #@! TO.C,D1*
X121031000Y-96139000D03*
X121031000Y-94039000D03*
G04 #@! TD*
G04 #@! TO.C,D2*
X136525000Y-98747000D03*
X136525000Y-96647000D03*
G04 #@! TD*
G04 #@! TO.C,D3*
X133985000Y-98747000D03*
X133985000Y-96647000D03*
G04 #@! TD*
D14*
G04 #@! TO.C,D4*
X143417000Y-94996000D03*
X141317000Y-94996000D03*
G04 #@! TD*
D15*
G04 #@! TO.C,J1*
X110159800Y-75730100D03*
X110159800Y-99021900D03*
D16*
X113411000Y-97125998D03*
X113411000Y-96625999D03*
X113411000Y-96126000D03*
X113411000Y-95625999D03*
X113411000Y-95126000D03*
X113411000Y-94625998D03*
X113411000Y-94125999D03*
X113411000Y-93626000D03*
X113411000Y-93125999D03*
X113411000Y-92626000D03*
X113411000Y-92125998D03*
X113411000Y-91625999D03*
X113411000Y-91126000D03*
X113411000Y-90625999D03*
X113411000Y-90126000D03*
X113411000Y-89625998D03*
X113411000Y-89125999D03*
X113411000Y-88626000D03*
X113411000Y-88125998D03*
X113411000Y-87626000D03*
X113411000Y-87125998D03*
X113411000Y-86625999D03*
X113411000Y-86126000D03*
X113411000Y-85625998D03*
X113411000Y-85125999D03*
X113411000Y-84625998D03*
X113411000Y-84125999D03*
X113411000Y-83626000D03*
X113411000Y-83125998D03*
X113411000Y-82625999D03*
X113411000Y-82125998D03*
X113411000Y-81625999D03*
X113411000Y-81126000D03*
X113411000Y-80625998D03*
X113411000Y-80125999D03*
X113411000Y-79626000D03*
X113411000Y-79125999D03*
X113411000Y-78626000D03*
X113411000Y-78125998D03*
X113411000Y-77625999D03*
G04 #@! TD*
D17*
G04 #@! TO.C,J2*
X108998000Y-67469000D03*
D18*
X109423200Y-66268600D03*
X109423200Y-72669400D03*
D17*
X108998000Y-71469000D03*
D19*
X110998000Y-68719000D03*
X110998000Y-69219000D03*
X110998000Y-69719000D03*
X110998000Y-70219000D03*
G04 #@! TD*
D20*
G04 #@! TO.C,J3*
X153280500Y-98986500D03*
X153280500Y-97736500D03*
D21*
X156480500Y-100836500D03*
X156480500Y-95886500D03*
G04 #@! TD*
D22*
G04 #@! TO.C,J4*
X148744500Y-68040500D03*
D23*
X149944900Y-68465700D03*
X143544100Y-68465700D03*
D22*
X144744500Y-68040500D03*
D24*
X147494500Y-70040500D03*
X146994500Y-70040500D03*
X146494500Y-70040500D03*
X145994500Y-70040500D03*
G04 #@! TD*
D10*
G04 #@! TO.C,L1*
G36*
X121680504Y-88134704D02*
X121704773Y-88138304D01*
X121728571Y-88144265D01*
X121751671Y-88152530D01*
X121773849Y-88163020D01*
X121794893Y-88175633D01*
X121814598Y-88190247D01*
X121832777Y-88206723D01*
X121849253Y-88224902D01*
X121863867Y-88244607D01*
X121876480Y-88265651D01*
X121886970Y-88287829D01*
X121895235Y-88310929D01*
X121901196Y-88334727D01*
X121904796Y-88358996D01*
X121906000Y-88383500D01*
X121906000Y-89308500D01*
X121904796Y-89333004D01*
X121901196Y-89357273D01*
X121895235Y-89381071D01*
X121886970Y-89404171D01*
X121876480Y-89426349D01*
X121863867Y-89447393D01*
X121849253Y-89467098D01*
X121832777Y-89485277D01*
X121814598Y-89501753D01*
X121794893Y-89516367D01*
X121773849Y-89528980D01*
X121751671Y-89539470D01*
X121728571Y-89547735D01*
X121704773Y-89553696D01*
X121680504Y-89557296D01*
X121656000Y-89558500D01*
X120406000Y-89558500D01*
X120381496Y-89557296D01*
X120357227Y-89553696D01*
X120333429Y-89547735D01*
X120310329Y-89539470D01*
X120288151Y-89528980D01*
X120267107Y-89516367D01*
X120247402Y-89501753D01*
X120229223Y-89485277D01*
X120212747Y-89467098D01*
X120198133Y-89447393D01*
X120185520Y-89426349D01*
X120175030Y-89404171D01*
X120166765Y-89381071D01*
X120160804Y-89357273D01*
X120157204Y-89333004D01*
X120156000Y-89308500D01*
X120156000Y-88383500D01*
X120157204Y-88358996D01*
X120160804Y-88334727D01*
X120166765Y-88310929D01*
X120175030Y-88287829D01*
X120185520Y-88265651D01*
X120198133Y-88244607D01*
X120212747Y-88224902D01*
X120229223Y-88206723D01*
X120247402Y-88190247D01*
X120267107Y-88175633D01*
X120288151Y-88163020D01*
X120310329Y-88152530D01*
X120333429Y-88144265D01*
X120357227Y-88138304D01*
X120381496Y-88134704D01*
X120406000Y-88133500D01*
X121656000Y-88133500D01*
X121680504Y-88134704D01*
X121680504Y-88134704D01*
G37*
D12*
X121031000Y-88846000D03*
D10*
G36*
X121680504Y-91109704D02*
X121704773Y-91113304D01*
X121728571Y-91119265D01*
X121751671Y-91127530D01*
X121773849Y-91138020D01*
X121794893Y-91150633D01*
X121814598Y-91165247D01*
X121832777Y-91181723D01*
X121849253Y-91199902D01*
X121863867Y-91219607D01*
X121876480Y-91240651D01*
X121886970Y-91262829D01*
X121895235Y-91285929D01*
X121901196Y-91309727D01*
X121904796Y-91333996D01*
X121906000Y-91358500D01*
X121906000Y-92283500D01*
X121904796Y-92308004D01*
X121901196Y-92332273D01*
X121895235Y-92356071D01*
X121886970Y-92379171D01*
X121876480Y-92401349D01*
X121863867Y-92422393D01*
X121849253Y-92442098D01*
X121832777Y-92460277D01*
X121814598Y-92476753D01*
X121794893Y-92491367D01*
X121773849Y-92503980D01*
X121751671Y-92514470D01*
X121728571Y-92522735D01*
X121704773Y-92528696D01*
X121680504Y-92532296D01*
X121656000Y-92533500D01*
X120406000Y-92533500D01*
X120381496Y-92532296D01*
X120357227Y-92528696D01*
X120333429Y-92522735D01*
X120310329Y-92514470D01*
X120288151Y-92503980D01*
X120267107Y-92491367D01*
X120247402Y-92476753D01*
X120229223Y-92460277D01*
X120212747Y-92442098D01*
X120198133Y-92422393D01*
X120185520Y-92401349D01*
X120175030Y-92379171D01*
X120166765Y-92356071D01*
X120160804Y-92332273D01*
X120157204Y-92308004D01*
X120156000Y-92283500D01*
X120156000Y-91358500D01*
X120157204Y-91333996D01*
X120160804Y-91309727D01*
X120166765Y-91285929D01*
X120175030Y-91262829D01*
X120185520Y-91240651D01*
X120198133Y-91219607D01*
X120212747Y-91199902D01*
X120229223Y-91181723D01*
X120247402Y-91165247D01*
X120267107Y-91150633D01*
X120288151Y-91138020D01*
X120310329Y-91127530D01*
X120333429Y-91119265D01*
X120357227Y-91113304D01*
X120381496Y-91109704D01*
X120406000Y-91108500D01*
X121656000Y-91108500D01*
X121680504Y-91109704D01*
X121680504Y-91109704D01*
G37*
D12*
X121031000Y-91821000D03*
G04 #@! TD*
D10*
G04 #@! TO.C,L2*
G36*
X136920504Y-87118704D02*
X136944773Y-87122304D01*
X136968571Y-87128265D01*
X136991671Y-87136530D01*
X137013849Y-87147020D01*
X137034893Y-87159633D01*
X137054598Y-87174247D01*
X137072777Y-87190723D01*
X137089253Y-87208902D01*
X137103867Y-87228607D01*
X137116480Y-87249651D01*
X137126970Y-87271829D01*
X137135235Y-87294929D01*
X137141196Y-87318727D01*
X137144796Y-87342996D01*
X137146000Y-87367500D01*
X137146000Y-88292500D01*
X137144796Y-88317004D01*
X137141196Y-88341273D01*
X137135235Y-88365071D01*
X137126970Y-88388171D01*
X137116480Y-88410349D01*
X137103867Y-88431393D01*
X137089253Y-88451098D01*
X137072777Y-88469277D01*
X137054598Y-88485753D01*
X137034893Y-88500367D01*
X137013849Y-88512980D01*
X136991671Y-88523470D01*
X136968571Y-88531735D01*
X136944773Y-88537696D01*
X136920504Y-88541296D01*
X136896000Y-88542500D01*
X135646000Y-88542500D01*
X135621496Y-88541296D01*
X135597227Y-88537696D01*
X135573429Y-88531735D01*
X135550329Y-88523470D01*
X135528151Y-88512980D01*
X135507107Y-88500367D01*
X135487402Y-88485753D01*
X135469223Y-88469277D01*
X135452747Y-88451098D01*
X135438133Y-88431393D01*
X135425520Y-88410349D01*
X135415030Y-88388171D01*
X135406765Y-88365071D01*
X135400804Y-88341273D01*
X135397204Y-88317004D01*
X135396000Y-88292500D01*
X135396000Y-87367500D01*
X135397204Y-87342996D01*
X135400804Y-87318727D01*
X135406765Y-87294929D01*
X135415030Y-87271829D01*
X135425520Y-87249651D01*
X135438133Y-87228607D01*
X135452747Y-87208902D01*
X135469223Y-87190723D01*
X135487402Y-87174247D01*
X135507107Y-87159633D01*
X135528151Y-87147020D01*
X135550329Y-87136530D01*
X135573429Y-87128265D01*
X135597227Y-87122304D01*
X135621496Y-87118704D01*
X135646000Y-87117500D01*
X136896000Y-87117500D01*
X136920504Y-87118704D01*
X136920504Y-87118704D01*
G37*
D12*
X136271000Y-87830000D03*
D10*
G36*
X136920504Y-90093704D02*
X136944773Y-90097304D01*
X136968571Y-90103265D01*
X136991671Y-90111530D01*
X137013849Y-90122020D01*
X137034893Y-90134633D01*
X137054598Y-90149247D01*
X137072777Y-90165723D01*
X137089253Y-90183902D01*
X137103867Y-90203607D01*
X137116480Y-90224651D01*
X137126970Y-90246829D01*
X137135235Y-90269929D01*
X137141196Y-90293727D01*
X137144796Y-90317996D01*
X137146000Y-90342500D01*
X137146000Y-91267500D01*
X137144796Y-91292004D01*
X137141196Y-91316273D01*
X137135235Y-91340071D01*
X137126970Y-91363171D01*
X137116480Y-91385349D01*
X137103867Y-91406393D01*
X137089253Y-91426098D01*
X137072777Y-91444277D01*
X137054598Y-91460753D01*
X137034893Y-91475367D01*
X137013849Y-91487980D01*
X136991671Y-91498470D01*
X136968571Y-91506735D01*
X136944773Y-91512696D01*
X136920504Y-91516296D01*
X136896000Y-91517500D01*
X135646000Y-91517500D01*
X135621496Y-91516296D01*
X135597227Y-91512696D01*
X135573429Y-91506735D01*
X135550329Y-91498470D01*
X135528151Y-91487980D01*
X135507107Y-91475367D01*
X135487402Y-91460753D01*
X135469223Y-91444277D01*
X135452747Y-91426098D01*
X135438133Y-91406393D01*
X135425520Y-91385349D01*
X135415030Y-91363171D01*
X135406765Y-91340071D01*
X135400804Y-91316273D01*
X135397204Y-91292004D01*
X135396000Y-91267500D01*
X135396000Y-90342500D01*
X135397204Y-90317996D01*
X135400804Y-90293727D01*
X135406765Y-90269929D01*
X135415030Y-90246829D01*
X135425520Y-90224651D01*
X135438133Y-90203607D01*
X135452747Y-90183902D01*
X135469223Y-90165723D01*
X135487402Y-90149247D01*
X135507107Y-90134633D01*
X135528151Y-90122020D01*
X135550329Y-90111530D01*
X135573429Y-90103265D01*
X135597227Y-90097304D01*
X135621496Y-90093704D01*
X135646000Y-90092500D01*
X136896000Y-90092500D01*
X136920504Y-90093704D01*
X136920504Y-90093704D01*
G37*
D12*
X136271000Y-90805000D03*
G04 #@! TD*
D10*
G04 #@! TO.C,L3*
G36*
X143524504Y-91925704D02*
X143548773Y-91929304D01*
X143572571Y-91935265D01*
X143595671Y-91943530D01*
X143617849Y-91954020D01*
X143638893Y-91966633D01*
X143658598Y-91981247D01*
X143676777Y-91997723D01*
X143693253Y-92015902D01*
X143707867Y-92035607D01*
X143720480Y-92056651D01*
X143730970Y-92078829D01*
X143739235Y-92101929D01*
X143745196Y-92125727D01*
X143748796Y-92149996D01*
X143750000Y-92174500D01*
X143750000Y-93099500D01*
X143748796Y-93124004D01*
X143745196Y-93148273D01*
X143739235Y-93172071D01*
X143730970Y-93195171D01*
X143720480Y-93217349D01*
X143707867Y-93238393D01*
X143693253Y-93258098D01*
X143676777Y-93276277D01*
X143658598Y-93292753D01*
X143638893Y-93307367D01*
X143617849Y-93319980D01*
X143595671Y-93330470D01*
X143572571Y-93338735D01*
X143548773Y-93344696D01*
X143524504Y-93348296D01*
X143500000Y-93349500D01*
X142250000Y-93349500D01*
X142225496Y-93348296D01*
X142201227Y-93344696D01*
X142177429Y-93338735D01*
X142154329Y-93330470D01*
X142132151Y-93319980D01*
X142111107Y-93307367D01*
X142091402Y-93292753D01*
X142073223Y-93276277D01*
X142056747Y-93258098D01*
X142042133Y-93238393D01*
X142029520Y-93217349D01*
X142019030Y-93195171D01*
X142010765Y-93172071D01*
X142004804Y-93148273D01*
X142001204Y-93124004D01*
X142000000Y-93099500D01*
X142000000Y-92174500D01*
X142001204Y-92149996D01*
X142004804Y-92125727D01*
X142010765Y-92101929D01*
X142019030Y-92078829D01*
X142029520Y-92056651D01*
X142042133Y-92035607D01*
X142056747Y-92015902D01*
X142073223Y-91997723D01*
X142091402Y-91981247D01*
X142111107Y-91966633D01*
X142132151Y-91954020D01*
X142154329Y-91943530D01*
X142177429Y-91935265D01*
X142201227Y-91929304D01*
X142225496Y-91925704D01*
X142250000Y-91924500D01*
X143500000Y-91924500D01*
X143524504Y-91925704D01*
X143524504Y-91925704D01*
G37*
D12*
X142875000Y-92637000D03*
D10*
G36*
X143524504Y-88950704D02*
X143548773Y-88954304D01*
X143572571Y-88960265D01*
X143595671Y-88968530D01*
X143617849Y-88979020D01*
X143638893Y-88991633D01*
X143658598Y-89006247D01*
X143676777Y-89022723D01*
X143693253Y-89040902D01*
X143707867Y-89060607D01*
X143720480Y-89081651D01*
X143730970Y-89103829D01*
X143739235Y-89126929D01*
X143745196Y-89150727D01*
X143748796Y-89174996D01*
X143750000Y-89199500D01*
X143750000Y-90124500D01*
X143748796Y-90149004D01*
X143745196Y-90173273D01*
X143739235Y-90197071D01*
X143730970Y-90220171D01*
X143720480Y-90242349D01*
X143707867Y-90263393D01*
X143693253Y-90283098D01*
X143676777Y-90301277D01*
X143658598Y-90317753D01*
X143638893Y-90332367D01*
X143617849Y-90344980D01*
X143595671Y-90355470D01*
X143572571Y-90363735D01*
X143548773Y-90369696D01*
X143524504Y-90373296D01*
X143500000Y-90374500D01*
X142250000Y-90374500D01*
X142225496Y-90373296D01*
X142201227Y-90369696D01*
X142177429Y-90363735D01*
X142154329Y-90355470D01*
X142132151Y-90344980D01*
X142111107Y-90332367D01*
X142091402Y-90317753D01*
X142073223Y-90301277D01*
X142056747Y-90283098D01*
X142042133Y-90263393D01*
X142029520Y-90242349D01*
X142019030Y-90220171D01*
X142010765Y-90197071D01*
X142004804Y-90173273D01*
X142001204Y-90149004D01*
X142000000Y-90124500D01*
X142000000Y-89199500D01*
X142001204Y-89174996D01*
X142004804Y-89150727D01*
X142010765Y-89126929D01*
X142019030Y-89103829D01*
X142029520Y-89081651D01*
X142042133Y-89060607D01*
X142056747Y-89040902D01*
X142073223Y-89022723D01*
X142091402Y-89006247D01*
X142111107Y-88991633D01*
X142132151Y-88979020D01*
X142154329Y-88968530D01*
X142177429Y-88960265D01*
X142201227Y-88954304D01*
X142225496Y-88950704D01*
X142250000Y-88949500D01*
X143500000Y-88949500D01*
X143524504Y-88950704D01*
X143524504Y-88950704D01*
G37*
D12*
X142875000Y-89662000D03*
G04 #@! TD*
D25*
G04 #@! TO.C,Q1*
X146873000Y-79581500D03*
X144973000Y-79581500D03*
X145923000Y-81581500D03*
G04 #@! TD*
D10*
G04 #@! TO.C,R11*
G36*
X147497005Y-76517204D02*
X147521273Y-76520804D01*
X147545072Y-76526765D01*
X147568171Y-76535030D01*
X147590350Y-76545520D01*
X147611393Y-76558132D01*
X147631099Y-76572747D01*
X147649277Y-76589223D01*
X147665753Y-76607401D01*
X147680368Y-76627107D01*
X147692980Y-76648150D01*
X147703470Y-76670329D01*
X147711735Y-76693428D01*
X147717696Y-76717227D01*
X147721296Y-76741495D01*
X147722500Y-76765999D01*
X147722500Y-77666001D01*
X147721296Y-77690505D01*
X147717696Y-77714773D01*
X147711735Y-77738572D01*
X147703470Y-77761671D01*
X147692980Y-77783850D01*
X147680368Y-77804893D01*
X147665753Y-77824599D01*
X147649277Y-77842777D01*
X147631099Y-77859253D01*
X147611393Y-77873868D01*
X147590350Y-77886480D01*
X147568171Y-77896970D01*
X147545072Y-77905235D01*
X147521273Y-77911196D01*
X147497005Y-77914796D01*
X147472501Y-77916000D01*
X146822499Y-77916000D01*
X146797995Y-77914796D01*
X146773727Y-77911196D01*
X146749928Y-77905235D01*
X146726829Y-77896970D01*
X146704650Y-77886480D01*
X146683607Y-77873868D01*
X146663901Y-77859253D01*
X146645723Y-77842777D01*
X146629247Y-77824599D01*
X146614632Y-77804893D01*
X146602020Y-77783850D01*
X146591530Y-77761671D01*
X146583265Y-77738572D01*
X146577304Y-77714773D01*
X146573704Y-77690505D01*
X146572500Y-77666001D01*
X146572500Y-76765999D01*
X146573704Y-76741495D01*
X146577304Y-76717227D01*
X146583265Y-76693428D01*
X146591530Y-76670329D01*
X146602020Y-76648150D01*
X146614632Y-76627107D01*
X146629247Y-76607401D01*
X146645723Y-76589223D01*
X146663901Y-76572747D01*
X146683607Y-76558132D01*
X146704650Y-76545520D01*
X146726829Y-76535030D01*
X146749928Y-76526765D01*
X146773727Y-76520804D01*
X146797995Y-76517204D01*
X146822499Y-76516000D01*
X147472501Y-76516000D01*
X147497005Y-76517204D01*
X147497005Y-76517204D01*
G37*
D11*
X147147500Y-77216000D03*
D10*
G36*
X145447005Y-76517204D02*
X145471273Y-76520804D01*
X145495072Y-76526765D01*
X145518171Y-76535030D01*
X145540350Y-76545520D01*
X145561393Y-76558132D01*
X145581099Y-76572747D01*
X145599277Y-76589223D01*
X145615753Y-76607401D01*
X145630368Y-76627107D01*
X145642980Y-76648150D01*
X145653470Y-76670329D01*
X145661735Y-76693428D01*
X145667696Y-76717227D01*
X145671296Y-76741495D01*
X145672500Y-76765999D01*
X145672500Y-77666001D01*
X145671296Y-77690505D01*
X145667696Y-77714773D01*
X145661735Y-77738572D01*
X145653470Y-77761671D01*
X145642980Y-77783850D01*
X145630368Y-77804893D01*
X145615753Y-77824599D01*
X145599277Y-77842777D01*
X145581099Y-77859253D01*
X145561393Y-77873868D01*
X145540350Y-77886480D01*
X145518171Y-77896970D01*
X145495072Y-77905235D01*
X145471273Y-77911196D01*
X145447005Y-77914796D01*
X145422501Y-77916000D01*
X144772499Y-77916000D01*
X144747995Y-77914796D01*
X144723727Y-77911196D01*
X144699928Y-77905235D01*
X144676829Y-77896970D01*
X144654650Y-77886480D01*
X144633607Y-77873868D01*
X144613901Y-77859253D01*
X144595723Y-77842777D01*
X144579247Y-77824599D01*
X144564632Y-77804893D01*
X144552020Y-77783850D01*
X144541530Y-77761671D01*
X144533265Y-77738572D01*
X144527304Y-77714773D01*
X144523704Y-77690505D01*
X144522500Y-77666001D01*
X144522500Y-76765999D01*
X144523704Y-76741495D01*
X144527304Y-76717227D01*
X144533265Y-76693428D01*
X144541530Y-76670329D01*
X144552020Y-76648150D01*
X144564632Y-76627107D01*
X144579247Y-76607401D01*
X144595723Y-76589223D01*
X144613901Y-76572747D01*
X144633607Y-76558132D01*
X144654650Y-76545520D01*
X144676829Y-76535030D01*
X144699928Y-76526765D01*
X144723727Y-76520804D01*
X144747995Y-76517204D01*
X144772499Y-76516000D01*
X145422501Y-76516000D01*
X145447005Y-76517204D01*
X145447005Y-76517204D01*
G37*
D11*
X145097500Y-77216000D03*
G04 #@! TD*
D10*
G04 #@! TO.C,R12*
G36*
X143413005Y-79046204D02*
X143437273Y-79049804D01*
X143461072Y-79055765D01*
X143484171Y-79064030D01*
X143506350Y-79074520D01*
X143527393Y-79087132D01*
X143547099Y-79101747D01*
X143565277Y-79118223D01*
X143581753Y-79136401D01*
X143596368Y-79156107D01*
X143608980Y-79177150D01*
X143619470Y-79199329D01*
X143627735Y-79222428D01*
X143633696Y-79246227D01*
X143637296Y-79270495D01*
X143638500Y-79294999D01*
X143638500Y-79945001D01*
X143637296Y-79969505D01*
X143633696Y-79993773D01*
X143627735Y-80017572D01*
X143619470Y-80040671D01*
X143608980Y-80062850D01*
X143596368Y-80083893D01*
X143581753Y-80103599D01*
X143565277Y-80121777D01*
X143547099Y-80138253D01*
X143527393Y-80152868D01*
X143506350Y-80165480D01*
X143484171Y-80175970D01*
X143461072Y-80184235D01*
X143437273Y-80190196D01*
X143413005Y-80193796D01*
X143388501Y-80195000D01*
X142488499Y-80195000D01*
X142463995Y-80193796D01*
X142439727Y-80190196D01*
X142415928Y-80184235D01*
X142392829Y-80175970D01*
X142370650Y-80165480D01*
X142349607Y-80152868D01*
X142329901Y-80138253D01*
X142311723Y-80121777D01*
X142295247Y-80103599D01*
X142280632Y-80083893D01*
X142268020Y-80062850D01*
X142257530Y-80040671D01*
X142249265Y-80017572D01*
X142243304Y-79993773D01*
X142239704Y-79969505D01*
X142238500Y-79945001D01*
X142238500Y-79294999D01*
X142239704Y-79270495D01*
X142243304Y-79246227D01*
X142249265Y-79222428D01*
X142257530Y-79199329D01*
X142268020Y-79177150D01*
X142280632Y-79156107D01*
X142295247Y-79136401D01*
X142311723Y-79118223D01*
X142329901Y-79101747D01*
X142349607Y-79087132D01*
X142370650Y-79074520D01*
X142392829Y-79064030D01*
X142415928Y-79055765D01*
X142439727Y-79049804D01*
X142463995Y-79046204D01*
X142488499Y-79045000D01*
X143388501Y-79045000D01*
X143413005Y-79046204D01*
X143413005Y-79046204D01*
G37*
D11*
X142938500Y-79620000D03*
D10*
G36*
X143413005Y-81096204D02*
X143437273Y-81099804D01*
X143461072Y-81105765D01*
X143484171Y-81114030D01*
X143506350Y-81124520D01*
X143527393Y-81137132D01*
X143547099Y-81151747D01*
X143565277Y-81168223D01*
X143581753Y-81186401D01*
X143596368Y-81206107D01*
X143608980Y-81227150D01*
X143619470Y-81249329D01*
X143627735Y-81272428D01*
X143633696Y-81296227D01*
X143637296Y-81320495D01*
X143638500Y-81344999D01*
X143638500Y-81995001D01*
X143637296Y-82019505D01*
X143633696Y-82043773D01*
X143627735Y-82067572D01*
X143619470Y-82090671D01*
X143608980Y-82112850D01*
X143596368Y-82133893D01*
X143581753Y-82153599D01*
X143565277Y-82171777D01*
X143547099Y-82188253D01*
X143527393Y-82202868D01*
X143506350Y-82215480D01*
X143484171Y-82225970D01*
X143461072Y-82234235D01*
X143437273Y-82240196D01*
X143413005Y-82243796D01*
X143388501Y-82245000D01*
X142488499Y-82245000D01*
X142463995Y-82243796D01*
X142439727Y-82240196D01*
X142415928Y-82234235D01*
X142392829Y-82225970D01*
X142370650Y-82215480D01*
X142349607Y-82202868D01*
X142329901Y-82188253D01*
X142311723Y-82171777D01*
X142295247Y-82153599D01*
X142280632Y-82133893D01*
X142268020Y-82112850D01*
X142257530Y-82090671D01*
X142249265Y-82067572D01*
X142243304Y-82043773D01*
X142239704Y-82019505D01*
X142238500Y-81995001D01*
X142238500Y-81344999D01*
X142239704Y-81320495D01*
X142243304Y-81296227D01*
X142249265Y-81272428D01*
X142257530Y-81249329D01*
X142268020Y-81227150D01*
X142280632Y-81206107D01*
X142295247Y-81186401D01*
X142311723Y-81168223D01*
X142329901Y-81151747D01*
X142349607Y-81137132D01*
X142370650Y-81124520D01*
X142392829Y-81114030D01*
X142415928Y-81105765D01*
X142439727Y-81099804D01*
X142463995Y-81096204D01*
X142488499Y-81095000D01*
X143388501Y-81095000D01*
X143413005Y-81096204D01*
X143413005Y-81096204D01*
G37*
D11*
X142938500Y-81670000D03*
G04 #@! TD*
D10*
G04 #@! TO.C,R13*
G36*
X129644505Y-87312204D02*
X129668773Y-87315804D01*
X129692572Y-87321765D01*
X129715671Y-87330030D01*
X129737850Y-87340520D01*
X129758893Y-87353132D01*
X129778599Y-87367747D01*
X129796777Y-87384223D01*
X129813253Y-87402401D01*
X129827868Y-87422107D01*
X129840480Y-87443150D01*
X129850970Y-87465329D01*
X129859235Y-87488428D01*
X129865196Y-87512227D01*
X129868796Y-87536495D01*
X129870000Y-87560999D01*
X129870000Y-88461001D01*
X129868796Y-88485505D01*
X129865196Y-88509773D01*
X129859235Y-88533572D01*
X129850970Y-88556671D01*
X129840480Y-88578850D01*
X129827868Y-88599893D01*
X129813253Y-88619599D01*
X129796777Y-88637777D01*
X129778599Y-88654253D01*
X129758893Y-88668868D01*
X129737850Y-88681480D01*
X129715671Y-88691970D01*
X129692572Y-88700235D01*
X129668773Y-88706196D01*
X129644505Y-88709796D01*
X129620001Y-88711000D01*
X128969999Y-88711000D01*
X128945495Y-88709796D01*
X128921227Y-88706196D01*
X128897428Y-88700235D01*
X128874329Y-88691970D01*
X128852150Y-88681480D01*
X128831107Y-88668868D01*
X128811401Y-88654253D01*
X128793223Y-88637777D01*
X128776747Y-88619599D01*
X128762132Y-88599893D01*
X128749520Y-88578850D01*
X128739030Y-88556671D01*
X128730765Y-88533572D01*
X128724804Y-88509773D01*
X128721204Y-88485505D01*
X128720000Y-88461001D01*
X128720000Y-87560999D01*
X128721204Y-87536495D01*
X128724804Y-87512227D01*
X128730765Y-87488428D01*
X128739030Y-87465329D01*
X128749520Y-87443150D01*
X128762132Y-87422107D01*
X128776747Y-87402401D01*
X128793223Y-87384223D01*
X128811401Y-87367747D01*
X128831107Y-87353132D01*
X128852150Y-87340520D01*
X128874329Y-87330030D01*
X128897428Y-87321765D01*
X128921227Y-87315804D01*
X128945495Y-87312204D01*
X128969999Y-87311000D01*
X129620001Y-87311000D01*
X129644505Y-87312204D01*
X129644505Y-87312204D01*
G37*
D11*
X129295000Y-88011000D03*
D10*
G36*
X127594505Y-87312204D02*
X127618773Y-87315804D01*
X127642572Y-87321765D01*
X127665671Y-87330030D01*
X127687850Y-87340520D01*
X127708893Y-87353132D01*
X127728599Y-87367747D01*
X127746777Y-87384223D01*
X127763253Y-87402401D01*
X127777868Y-87422107D01*
X127790480Y-87443150D01*
X127800970Y-87465329D01*
X127809235Y-87488428D01*
X127815196Y-87512227D01*
X127818796Y-87536495D01*
X127820000Y-87560999D01*
X127820000Y-88461001D01*
X127818796Y-88485505D01*
X127815196Y-88509773D01*
X127809235Y-88533572D01*
X127800970Y-88556671D01*
X127790480Y-88578850D01*
X127777868Y-88599893D01*
X127763253Y-88619599D01*
X127746777Y-88637777D01*
X127728599Y-88654253D01*
X127708893Y-88668868D01*
X127687850Y-88681480D01*
X127665671Y-88691970D01*
X127642572Y-88700235D01*
X127618773Y-88706196D01*
X127594505Y-88709796D01*
X127570001Y-88711000D01*
X126919999Y-88711000D01*
X126895495Y-88709796D01*
X126871227Y-88706196D01*
X126847428Y-88700235D01*
X126824329Y-88691970D01*
X126802150Y-88681480D01*
X126781107Y-88668868D01*
X126761401Y-88654253D01*
X126743223Y-88637777D01*
X126726747Y-88619599D01*
X126712132Y-88599893D01*
X126699520Y-88578850D01*
X126689030Y-88556671D01*
X126680765Y-88533572D01*
X126674804Y-88509773D01*
X126671204Y-88485505D01*
X126670000Y-88461001D01*
X126670000Y-87560999D01*
X126671204Y-87536495D01*
X126674804Y-87512227D01*
X126680765Y-87488428D01*
X126689030Y-87465329D01*
X126699520Y-87443150D01*
X126712132Y-87422107D01*
X126726747Y-87402401D01*
X126743223Y-87384223D01*
X126761401Y-87367747D01*
X126781107Y-87353132D01*
X126802150Y-87340520D01*
X126824329Y-87330030D01*
X126847428Y-87321765D01*
X126871227Y-87315804D01*
X126895495Y-87312204D01*
X126919999Y-87311000D01*
X127570001Y-87311000D01*
X127594505Y-87312204D01*
X127594505Y-87312204D01*
G37*
D11*
X127245000Y-88011000D03*
G04 #@! TD*
D10*
G04 #@! TO.C,R14*
G36*
X125707505Y-90868204D02*
X125731773Y-90871804D01*
X125755572Y-90877765D01*
X125778671Y-90886030D01*
X125800850Y-90896520D01*
X125821893Y-90909132D01*
X125841599Y-90923747D01*
X125859777Y-90940223D01*
X125876253Y-90958401D01*
X125890868Y-90978107D01*
X125903480Y-90999150D01*
X125913970Y-91021329D01*
X125922235Y-91044428D01*
X125928196Y-91068227D01*
X125931796Y-91092495D01*
X125933000Y-91116999D01*
X125933000Y-92017001D01*
X125931796Y-92041505D01*
X125928196Y-92065773D01*
X125922235Y-92089572D01*
X125913970Y-92112671D01*
X125903480Y-92134850D01*
X125890868Y-92155893D01*
X125876253Y-92175599D01*
X125859777Y-92193777D01*
X125841599Y-92210253D01*
X125821893Y-92224868D01*
X125800850Y-92237480D01*
X125778671Y-92247970D01*
X125755572Y-92256235D01*
X125731773Y-92262196D01*
X125707505Y-92265796D01*
X125683001Y-92267000D01*
X125032999Y-92267000D01*
X125008495Y-92265796D01*
X124984227Y-92262196D01*
X124960428Y-92256235D01*
X124937329Y-92247970D01*
X124915150Y-92237480D01*
X124894107Y-92224868D01*
X124874401Y-92210253D01*
X124856223Y-92193777D01*
X124839747Y-92175599D01*
X124825132Y-92155893D01*
X124812520Y-92134850D01*
X124802030Y-92112671D01*
X124793765Y-92089572D01*
X124787804Y-92065773D01*
X124784204Y-92041505D01*
X124783000Y-92017001D01*
X124783000Y-91116999D01*
X124784204Y-91092495D01*
X124787804Y-91068227D01*
X124793765Y-91044428D01*
X124802030Y-91021329D01*
X124812520Y-90999150D01*
X124825132Y-90978107D01*
X124839747Y-90958401D01*
X124856223Y-90940223D01*
X124874401Y-90923747D01*
X124894107Y-90909132D01*
X124915150Y-90896520D01*
X124937329Y-90886030D01*
X124960428Y-90877765D01*
X124984227Y-90871804D01*
X125008495Y-90868204D01*
X125032999Y-90867000D01*
X125683001Y-90867000D01*
X125707505Y-90868204D01*
X125707505Y-90868204D01*
G37*
D11*
X125358000Y-91567000D03*
D10*
G36*
X123657505Y-90868204D02*
X123681773Y-90871804D01*
X123705572Y-90877765D01*
X123728671Y-90886030D01*
X123750850Y-90896520D01*
X123771893Y-90909132D01*
X123791599Y-90923747D01*
X123809777Y-90940223D01*
X123826253Y-90958401D01*
X123840868Y-90978107D01*
X123853480Y-90999150D01*
X123863970Y-91021329D01*
X123872235Y-91044428D01*
X123878196Y-91068227D01*
X123881796Y-91092495D01*
X123883000Y-91116999D01*
X123883000Y-92017001D01*
X123881796Y-92041505D01*
X123878196Y-92065773D01*
X123872235Y-92089572D01*
X123863970Y-92112671D01*
X123853480Y-92134850D01*
X123840868Y-92155893D01*
X123826253Y-92175599D01*
X123809777Y-92193777D01*
X123791599Y-92210253D01*
X123771893Y-92224868D01*
X123750850Y-92237480D01*
X123728671Y-92247970D01*
X123705572Y-92256235D01*
X123681773Y-92262196D01*
X123657505Y-92265796D01*
X123633001Y-92267000D01*
X122982999Y-92267000D01*
X122958495Y-92265796D01*
X122934227Y-92262196D01*
X122910428Y-92256235D01*
X122887329Y-92247970D01*
X122865150Y-92237480D01*
X122844107Y-92224868D01*
X122824401Y-92210253D01*
X122806223Y-92193777D01*
X122789747Y-92175599D01*
X122775132Y-92155893D01*
X122762520Y-92134850D01*
X122752030Y-92112671D01*
X122743765Y-92089572D01*
X122737804Y-92065773D01*
X122734204Y-92041505D01*
X122733000Y-92017001D01*
X122733000Y-91116999D01*
X122734204Y-91092495D01*
X122737804Y-91068227D01*
X122743765Y-91044428D01*
X122752030Y-91021329D01*
X122762520Y-90999150D01*
X122775132Y-90978107D01*
X122789747Y-90958401D01*
X122806223Y-90940223D01*
X122824401Y-90923747D01*
X122844107Y-90909132D01*
X122865150Y-90896520D01*
X122887329Y-90886030D01*
X122910428Y-90877765D01*
X122934227Y-90871804D01*
X122958495Y-90868204D01*
X122982999Y-90867000D01*
X123633001Y-90867000D01*
X123657505Y-90868204D01*
X123657505Y-90868204D01*
G37*
D11*
X123308000Y-91567000D03*
G04 #@! TD*
D10*
G04 #@! TO.C,R15*
G36*
X123666505Y-86804204D02*
X123690773Y-86807804D01*
X123714572Y-86813765D01*
X123737671Y-86822030D01*
X123759850Y-86832520D01*
X123780893Y-86845132D01*
X123800599Y-86859747D01*
X123818777Y-86876223D01*
X123835253Y-86894401D01*
X123849868Y-86914107D01*
X123862480Y-86935150D01*
X123872970Y-86957329D01*
X123881235Y-86980428D01*
X123887196Y-87004227D01*
X123890796Y-87028495D01*
X123892000Y-87052999D01*
X123892000Y-87953001D01*
X123890796Y-87977505D01*
X123887196Y-88001773D01*
X123881235Y-88025572D01*
X123872970Y-88048671D01*
X123862480Y-88070850D01*
X123849868Y-88091893D01*
X123835253Y-88111599D01*
X123818777Y-88129777D01*
X123800599Y-88146253D01*
X123780893Y-88160868D01*
X123759850Y-88173480D01*
X123737671Y-88183970D01*
X123714572Y-88192235D01*
X123690773Y-88198196D01*
X123666505Y-88201796D01*
X123642001Y-88203000D01*
X122991999Y-88203000D01*
X122967495Y-88201796D01*
X122943227Y-88198196D01*
X122919428Y-88192235D01*
X122896329Y-88183970D01*
X122874150Y-88173480D01*
X122853107Y-88160868D01*
X122833401Y-88146253D01*
X122815223Y-88129777D01*
X122798747Y-88111599D01*
X122784132Y-88091893D01*
X122771520Y-88070850D01*
X122761030Y-88048671D01*
X122752765Y-88025572D01*
X122746804Y-88001773D01*
X122743204Y-87977505D01*
X122742000Y-87953001D01*
X122742000Y-87052999D01*
X122743204Y-87028495D01*
X122746804Y-87004227D01*
X122752765Y-86980428D01*
X122761030Y-86957329D01*
X122771520Y-86935150D01*
X122784132Y-86914107D01*
X122798747Y-86894401D01*
X122815223Y-86876223D01*
X122833401Y-86859747D01*
X122853107Y-86845132D01*
X122874150Y-86832520D01*
X122896329Y-86822030D01*
X122919428Y-86813765D01*
X122943227Y-86807804D01*
X122967495Y-86804204D01*
X122991999Y-86803000D01*
X123642001Y-86803000D01*
X123666505Y-86804204D01*
X123666505Y-86804204D01*
G37*
D11*
X123317000Y-87503000D03*
D10*
G36*
X125716505Y-86804204D02*
X125740773Y-86807804D01*
X125764572Y-86813765D01*
X125787671Y-86822030D01*
X125809850Y-86832520D01*
X125830893Y-86845132D01*
X125850599Y-86859747D01*
X125868777Y-86876223D01*
X125885253Y-86894401D01*
X125899868Y-86914107D01*
X125912480Y-86935150D01*
X125922970Y-86957329D01*
X125931235Y-86980428D01*
X125937196Y-87004227D01*
X125940796Y-87028495D01*
X125942000Y-87052999D01*
X125942000Y-87953001D01*
X125940796Y-87977505D01*
X125937196Y-88001773D01*
X125931235Y-88025572D01*
X125922970Y-88048671D01*
X125912480Y-88070850D01*
X125899868Y-88091893D01*
X125885253Y-88111599D01*
X125868777Y-88129777D01*
X125850599Y-88146253D01*
X125830893Y-88160868D01*
X125809850Y-88173480D01*
X125787671Y-88183970D01*
X125764572Y-88192235D01*
X125740773Y-88198196D01*
X125716505Y-88201796D01*
X125692001Y-88203000D01*
X125041999Y-88203000D01*
X125017495Y-88201796D01*
X124993227Y-88198196D01*
X124969428Y-88192235D01*
X124946329Y-88183970D01*
X124924150Y-88173480D01*
X124903107Y-88160868D01*
X124883401Y-88146253D01*
X124865223Y-88129777D01*
X124848747Y-88111599D01*
X124834132Y-88091893D01*
X124821520Y-88070850D01*
X124811030Y-88048671D01*
X124802765Y-88025572D01*
X124796804Y-88001773D01*
X124793204Y-87977505D01*
X124792000Y-87953001D01*
X124792000Y-87052999D01*
X124793204Y-87028495D01*
X124796804Y-87004227D01*
X124802765Y-86980428D01*
X124811030Y-86957329D01*
X124821520Y-86935150D01*
X124834132Y-86914107D01*
X124848747Y-86894401D01*
X124865223Y-86876223D01*
X124883401Y-86859747D01*
X124903107Y-86845132D01*
X124924150Y-86832520D01*
X124946329Y-86822030D01*
X124969428Y-86813765D01*
X124993227Y-86807804D01*
X125017495Y-86804204D01*
X125041999Y-86803000D01*
X125692001Y-86803000D01*
X125716505Y-86804204D01*
X125716505Y-86804204D01*
G37*
D11*
X125367000Y-87503000D03*
G04 #@! TD*
D10*
G04 #@! TO.C,R16*
G36*
X134459505Y-88435204D02*
X134483773Y-88438804D01*
X134507572Y-88444765D01*
X134530671Y-88453030D01*
X134552850Y-88463520D01*
X134573893Y-88476132D01*
X134593599Y-88490747D01*
X134611777Y-88507223D01*
X134628253Y-88525401D01*
X134642868Y-88545107D01*
X134655480Y-88566150D01*
X134665970Y-88588329D01*
X134674235Y-88611428D01*
X134680196Y-88635227D01*
X134683796Y-88659495D01*
X134685000Y-88683999D01*
X134685000Y-89334001D01*
X134683796Y-89358505D01*
X134680196Y-89382773D01*
X134674235Y-89406572D01*
X134665970Y-89429671D01*
X134655480Y-89451850D01*
X134642868Y-89472893D01*
X134628253Y-89492599D01*
X134611777Y-89510777D01*
X134593599Y-89527253D01*
X134573893Y-89541868D01*
X134552850Y-89554480D01*
X134530671Y-89564970D01*
X134507572Y-89573235D01*
X134483773Y-89579196D01*
X134459505Y-89582796D01*
X134435001Y-89584000D01*
X133534999Y-89584000D01*
X133510495Y-89582796D01*
X133486227Y-89579196D01*
X133462428Y-89573235D01*
X133439329Y-89564970D01*
X133417150Y-89554480D01*
X133396107Y-89541868D01*
X133376401Y-89527253D01*
X133358223Y-89510777D01*
X133341747Y-89492599D01*
X133327132Y-89472893D01*
X133314520Y-89451850D01*
X133304030Y-89429671D01*
X133295765Y-89406572D01*
X133289804Y-89382773D01*
X133286204Y-89358505D01*
X133285000Y-89334001D01*
X133285000Y-88683999D01*
X133286204Y-88659495D01*
X133289804Y-88635227D01*
X133295765Y-88611428D01*
X133304030Y-88588329D01*
X133314520Y-88566150D01*
X133327132Y-88545107D01*
X133341747Y-88525401D01*
X133358223Y-88507223D01*
X133376401Y-88490747D01*
X133396107Y-88476132D01*
X133417150Y-88463520D01*
X133439329Y-88453030D01*
X133462428Y-88444765D01*
X133486227Y-88438804D01*
X133510495Y-88435204D01*
X133534999Y-88434000D01*
X134435001Y-88434000D01*
X134459505Y-88435204D01*
X134459505Y-88435204D01*
G37*
D11*
X133985000Y-89009000D03*
D10*
G36*
X134459505Y-90485204D02*
X134483773Y-90488804D01*
X134507572Y-90494765D01*
X134530671Y-90503030D01*
X134552850Y-90513520D01*
X134573893Y-90526132D01*
X134593599Y-90540747D01*
X134611777Y-90557223D01*
X134628253Y-90575401D01*
X134642868Y-90595107D01*
X134655480Y-90616150D01*
X134665970Y-90638329D01*
X134674235Y-90661428D01*
X134680196Y-90685227D01*
X134683796Y-90709495D01*
X134685000Y-90733999D01*
X134685000Y-91384001D01*
X134683796Y-91408505D01*
X134680196Y-91432773D01*
X134674235Y-91456572D01*
X134665970Y-91479671D01*
X134655480Y-91501850D01*
X134642868Y-91522893D01*
X134628253Y-91542599D01*
X134611777Y-91560777D01*
X134593599Y-91577253D01*
X134573893Y-91591868D01*
X134552850Y-91604480D01*
X134530671Y-91614970D01*
X134507572Y-91623235D01*
X134483773Y-91629196D01*
X134459505Y-91632796D01*
X134435001Y-91634000D01*
X133534999Y-91634000D01*
X133510495Y-91632796D01*
X133486227Y-91629196D01*
X133462428Y-91623235D01*
X133439329Y-91614970D01*
X133417150Y-91604480D01*
X133396107Y-91591868D01*
X133376401Y-91577253D01*
X133358223Y-91560777D01*
X133341747Y-91542599D01*
X133327132Y-91522893D01*
X133314520Y-91501850D01*
X133304030Y-91479671D01*
X133295765Y-91456572D01*
X133289804Y-91432773D01*
X133286204Y-91408505D01*
X133285000Y-91384001D01*
X133285000Y-90733999D01*
X133286204Y-90709495D01*
X133289804Y-90685227D01*
X133295765Y-90661428D01*
X133304030Y-90638329D01*
X133314520Y-90616150D01*
X133327132Y-90595107D01*
X133341747Y-90575401D01*
X133358223Y-90557223D01*
X133376401Y-90540747D01*
X133396107Y-90526132D01*
X133417150Y-90513520D01*
X133439329Y-90503030D01*
X133462428Y-90494765D01*
X133486227Y-90488804D01*
X133510495Y-90485204D01*
X133534999Y-90484000D01*
X134435001Y-90484000D01*
X134459505Y-90485204D01*
X134459505Y-90485204D01*
G37*
D11*
X133985000Y-91059000D03*
G04 #@! TD*
D10*
G04 #@! TO.C,R17*
G36*
X134459505Y-92263204D02*
X134483773Y-92266804D01*
X134507572Y-92272765D01*
X134530671Y-92281030D01*
X134552850Y-92291520D01*
X134573893Y-92304132D01*
X134593599Y-92318747D01*
X134611777Y-92335223D01*
X134628253Y-92353401D01*
X134642868Y-92373107D01*
X134655480Y-92394150D01*
X134665970Y-92416329D01*
X134674235Y-92439428D01*
X134680196Y-92463227D01*
X134683796Y-92487495D01*
X134685000Y-92511999D01*
X134685000Y-93162001D01*
X134683796Y-93186505D01*
X134680196Y-93210773D01*
X134674235Y-93234572D01*
X134665970Y-93257671D01*
X134655480Y-93279850D01*
X134642868Y-93300893D01*
X134628253Y-93320599D01*
X134611777Y-93338777D01*
X134593599Y-93355253D01*
X134573893Y-93369868D01*
X134552850Y-93382480D01*
X134530671Y-93392970D01*
X134507572Y-93401235D01*
X134483773Y-93407196D01*
X134459505Y-93410796D01*
X134435001Y-93412000D01*
X133534999Y-93412000D01*
X133510495Y-93410796D01*
X133486227Y-93407196D01*
X133462428Y-93401235D01*
X133439329Y-93392970D01*
X133417150Y-93382480D01*
X133396107Y-93369868D01*
X133376401Y-93355253D01*
X133358223Y-93338777D01*
X133341747Y-93320599D01*
X133327132Y-93300893D01*
X133314520Y-93279850D01*
X133304030Y-93257671D01*
X133295765Y-93234572D01*
X133289804Y-93210773D01*
X133286204Y-93186505D01*
X133285000Y-93162001D01*
X133285000Y-92511999D01*
X133286204Y-92487495D01*
X133289804Y-92463227D01*
X133295765Y-92439428D01*
X133304030Y-92416329D01*
X133314520Y-92394150D01*
X133327132Y-92373107D01*
X133341747Y-92353401D01*
X133358223Y-92335223D01*
X133376401Y-92318747D01*
X133396107Y-92304132D01*
X133417150Y-92291520D01*
X133439329Y-92281030D01*
X133462428Y-92272765D01*
X133486227Y-92266804D01*
X133510495Y-92263204D01*
X133534999Y-92262000D01*
X134435001Y-92262000D01*
X134459505Y-92263204D01*
X134459505Y-92263204D01*
G37*
D11*
X133985000Y-92837000D03*
D10*
G36*
X134459505Y-94313204D02*
X134483773Y-94316804D01*
X134507572Y-94322765D01*
X134530671Y-94331030D01*
X134552850Y-94341520D01*
X134573893Y-94354132D01*
X134593599Y-94368747D01*
X134611777Y-94385223D01*
X134628253Y-94403401D01*
X134642868Y-94423107D01*
X134655480Y-94444150D01*
X134665970Y-94466329D01*
X134674235Y-94489428D01*
X134680196Y-94513227D01*
X134683796Y-94537495D01*
X134685000Y-94561999D01*
X134685000Y-95212001D01*
X134683796Y-95236505D01*
X134680196Y-95260773D01*
X134674235Y-95284572D01*
X134665970Y-95307671D01*
X134655480Y-95329850D01*
X134642868Y-95350893D01*
X134628253Y-95370599D01*
X134611777Y-95388777D01*
X134593599Y-95405253D01*
X134573893Y-95419868D01*
X134552850Y-95432480D01*
X134530671Y-95442970D01*
X134507572Y-95451235D01*
X134483773Y-95457196D01*
X134459505Y-95460796D01*
X134435001Y-95462000D01*
X133534999Y-95462000D01*
X133510495Y-95460796D01*
X133486227Y-95457196D01*
X133462428Y-95451235D01*
X133439329Y-95442970D01*
X133417150Y-95432480D01*
X133396107Y-95419868D01*
X133376401Y-95405253D01*
X133358223Y-95388777D01*
X133341747Y-95370599D01*
X133327132Y-95350893D01*
X133314520Y-95329850D01*
X133304030Y-95307671D01*
X133295765Y-95284572D01*
X133289804Y-95260773D01*
X133286204Y-95236505D01*
X133285000Y-95212001D01*
X133285000Y-94561999D01*
X133286204Y-94537495D01*
X133289804Y-94513227D01*
X133295765Y-94489428D01*
X133304030Y-94466329D01*
X133314520Y-94444150D01*
X133327132Y-94423107D01*
X133341747Y-94403401D01*
X133358223Y-94385223D01*
X133376401Y-94368747D01*
X133396107Y-94354132D01*
X133417150Y-94341520D01*
X133439329Y-94331030D01*
X133462428Y-94322765D01*
X133486227Y-94316804D01*
X133510495Y-94313204D01*
X133534999Y-94312000D01*
X134435001Y-94312000D01*
X134459505Y-94313204D01*
X134459505Y-94313204D01*
G37*
D11*
X133985000Y-94887000D03*
G04 #@! TD*
D10*
G04 #@! TO.C,R18*
G36*
X143995505Y-96456204D02*
X144019773Y-96459804D01*
X144043572Y-96465765D01*
X144066671Y-96474030D01*
X144088850Y-96484520D01*
X144109893Y-96497132D01*
X144129599Y-96511747D01*
X144147777Y-96528223D01*
X144164253Y-96546401D01*
X144178868Y-96566107D01*
X144191480Y-96587150D01*
X144201970Y-96609329D01*
X144210235Y-96632428D01*
X144216196Y-96656227D01*
X144219796Y-96680495D01*
X144221000Y-96704999D01*
X144221000Y-97605001D01*
X144219796Y-97629505D01*
X144216196Y-97653773D01*
X144210235Y-97677572D01*
X144201970Y-97700671D01*
X144191480Y-97722850D01*
X144178868Y-97743893D01*
X144164253Y-97763599D01*
X144147777Y-97781777D01*
X144129599Y-97798253D01*
X144109893Y-97812868D01*
X144088850Y-97825480D01*
X144066671Y-97835970D01*
X144043572Y-97844235D01*
X144019773Y-97850196D01*
X143995505Y-97853796D01*
X143971001Y-97855000D01*
X143320999Y-97855000D01*
X143296495Y-97853796D01*
X143272227Y-97850196D01*
X143248428Y-97844235D01*
X143225329Y-97835970D01*
X143203150Y-97825480D01*
X143182107Y-97812868D01*
X143162401Y-97798253D01*
X143144223Y-97781777D01*
X143127747Y-97763599D01*
X143113132Y-97743893D01*
X143100520Y-97722850D01*
X143090030Y-97700671D01*
X143081765Y-97677572D01*
X143075804Y-97653773D01*
X143072204Y-97629505D01*
X143071000Y-97605001D01*
X143071000Y-96704999D01*
X143072204Y-96680495D01*
X143075804Y-96656227D01*
X143081765Y-96632428D01*
X143090030Y-96609329D01*
X143100520Y-96587150D01*
X143113132Y-96566107D01*
X143127747Y-96546401D01*
X143144223Y-96528223D01*
X143162401Y-96511747D01*
X143182107Y-96497132D01*
X143203150Y-96484520D01*
X143225329Y-96474030D01*
X143248428Y-96465765D01*
X143272227Y-96459804D01*
X143296495Y-96456204D01*
X143320999Y-96455000D01*
X143971001Y-96455000D01*
X143995505Y-96456204D01*
X143995505Y-96456204D01*
G37*
D11*
X143646000Y-97155000D03*
D10*
G36*
X141945505Y-96456204D02*
X141969773Y-96459804D01*
X141993572Y-96465765D01*
X142016671Y-96474030D01*
X142038850Y-96484520D01*
X142059893Y-96497132D01*
X142079599Y-96511747D01*
X142097777Y-96528223D01*
X142114253Y-96546401D01*
X142128868Y-96566107D01*
X142141480Y-96587150D01*
X142151970Y-96609329D01*
X142160235Y-96632428D01*
X142166196Y-96656227D01*
X142169796Y-96680495D01*
X142171000Y-96704999D01*
X142171000Y-97605001D01*
X142169796Y-97629505D01*
X142166196Y-97653773D01*
X142160235Y-97677572D01*
X142151970Y-97700671D01*
X142141480Y-97722850D01*
X142128868Y-97743893D01*
X142114253Y-97763599D01*
X142097777Y-97781777D01*
X142079599Y-97798253D01*
X142059893Y-97812868D01*
X142038850Y-97825480D01*
X142016671Y-97835970D01*
X141993572Y-97844235D01*
X141969773Y-97850196D01*
X141945505Y-97853796D01*
X141921001Y-97855000D01*
X141270999Y-97855000D01*
X141246495Y-97853796D01*
X141222227Y-97850196D01*
X141198428Y-97844235D01*
X141175329Y-97835970D01*
X141153150Y-97825480D01*
X141132107Y-97812868D01*
X141112401Y-97798253D01*
X141094223Y-97781777D01*
X141077747Y-97763599D01*
X141063132Y-97743893D01*
X141050520Y-97722850D01*
X141040030Y-97700671D01*
X141031765Y-97677572D01*
X141025804Y-97653773D01*
X141022204Y-97629505D01*
X141021000Y-97605001D01*
X141021000Y-96704999D01*
X141022204Y-96680495D01*
X141025804Y-96656227D01*
X141031765Y-96632428D01*
X141040030Y-96609329D01*
X141050520Y-96587150D01*
X141063132Y-96566107D01*
X141077747Y-96546401D01*
X141094223Y-96528223D01*
X141112401Y-96511747D01*
X141132107Y-96497132D01*
X141153150Y-96484520D01*
X141175329Y-96474030D01*
X141198428Y-96465765D01*
X141222227Y-96459804D01*
X141246495Y-96456204D01*
X141270999Y-96455000D01*
X141921001Y-96455000D01*
X141945505Y-96456204D01*
X141945505Y-96456204D01*
G37*
D11*
X141596000Y-97155000D03*
G04 #@! TD*
D10*
G04 #@! TO.C,R19*
G36*
X145746505Y-96456204D02*
X145770773Y-96459804D01*
X145794572Y-96465765D01*
X145817671Y-96474030D01*
X145839850Y-96484520D01*
X145860893Y-96497132D01*
X145880599Y-96511747D01*
X145898777Y-96528223D01*
X145915253Y-96546401D01*
X145929868Y-96566107D01*
X145942480Y-96587150D01*
X145952970Y-96609329D01*
X145961235Y-96632428D01*
X145967196Y-96656227D01*
X145970796Y-96680495D01*
X145972000Y-96704999D01*
X145972000Y-97605001D01*
X145970796Y-97629505D01*
X145967196Y-97653773D01*
X145961235Y-97677572D01*
X145952970Y-97700671D01*
X145942480Y-97722850D01*
X145929868Y-97743893D01*
X145915253Y-97763599D01*
X145898777Y-97781777D01*
X145880599Y-97798253D01*
X145860893Y-97812868D01*
X145839850Y-97825480D01*
X145817671Y-97835970D01*
X145794572Y-97844235D01*
X145770773Y-97850196D01*
X145746505Y-97853796D01*
X145722001Y-97855000D01*
X145071999Y-97855000D01*
X145047495Y-97853796D01*
X145023227Y-97850196D01*
X144999428Y-97844235D01*
X144976329Y-97835970D01*
X144954150Y-97825480D01*
X144933107Y-97812868D01*
X144913401Y-97798253D01*
X144895223Y-97781777D01*
X144878747Y-97763599D01*
X144864132Y-97743893D01*
X144851520Y-97722850D01*
X144841030Y-97700671D01*
X144832765Y-97677572D01*
X144826804Y-97653773D01*
X144823204Y-97629505D01*
X144822000Y-97605001D01*
X144822000Y-96704999D01*
X144823204Y-96680495D01*
X144826804Y-96656227D01*
X144832765Y-96632428D01*
X144841030Y-96609329D01*
X144851520Y-96587150D01*
X144864132Y-96566107D01*
X144878747Y-96546401D01*
X144895223Y-96528223D01*
X144913401Y-96511747D01*
X144933107Y-96497132D01*
X144954150Y-96484520D01*
X144976329Y-96474030D01*
X144999428Y-96465765D01*
X145023227Y-96459804D01*
X145047495Y-96456204D01*
X145071999Y-96455000D01*
X145722001Y-96455000D01*
X145746505Y-96456204D01*
X145746505Y-96456204D01*
G37*
D11*
X145397000Y-97155000D03*
D10*
G36*
X147796505Y-96456204D02*
X147820773Y-96459804D01*
X147844572Y-96465765D01*
X147867671Y-96474030D01*
X147889850Y-96484520D01*
X147910893Y-96497132D01*
X147930599Y-96511747D01*
X147948777Y-96528223D01*
X147965253Y-96546401D01*
X147979868Y-96566107D01*
X147992480Y-96587150D01*
X148002970Y-96609329D01*
X148011235Y-96632428D01*
X148017196Y-96656227D01*
X148020796Y-96680495D01*
X148022000Y-96704999D01*
X148022000Y-97605001D01*
X148020796Y-97629505D01*
X148017196Y-97653773D01*
X148011235Y-97677572D01*
X148002970Y-97700671D01*
X147992480Y-97722850D01*
X147979868Y-97743893D01*
X147965253Y-97763599D01*
X147948777Y-97781777D01*
X147930599Y-97798253D01*
X147910893Y-97812868D01*
X147889850Y-97825480D01*
X147867671Y-97835970D01*
X147844572Y-97844235D01*
X147820773Y-97850196D01*
X147796505Y-97853796D01*
X147772001Y-97855000D01*
X147121999Y-97855000D01*
X147097495Y-97853796D01*
X147073227Y-97850196D01*
X147049428Y-97844235D01*
X147026329Y-97835970D01*
X147004150Y-97825480D01*
X146983107Y-97812868D01*
X146963401Y-97798253D01*
X146945223Y-97781777D01*
X146928747Y-97763599D01*
X146914132Y-97743893D01*
X146901520Y-97722850D01*
X146891030Y-97700671D01*
X146882765Y-97677572D01*
X146876804Y-97653773D01*
X146873204Y-97629505D01*
X146872000Y-97605001D01*
X146872000Y-96704999D01*
X146873204Y-96680495D01*
X146876804Y-96656227D01*
X146882765Y-96632428D01*
X146891030Y-96609329D01*
X146901520Y-96587150D01*
X146914132Y-96566107D01*
X146928747Y-96546401D01*
X146945223Y-96528223D01*
X146963401Y-96511747D01*
X146983107Y-96497132D01*
X147004150Y-96484520D01*
X147026329Y-96474030D01*
X147049428Y-96465765D01*
X147073227Y-96459804D01*
X147097495Y-96456204D01*
X147121999Y-96455000D01*
X147772001Y-96455000D01*
X147796505Y-96456204D01*
X147796505Y-96456204D01*
G37*
D11*
X147447000Y-97155000D03*
G04 #@! TD*
D10*
G04 #@! TO.C,R20*
G36*
X147533505Y-86677204D02*
X147557773Y-86680804D01*
X147581572Y-86686765D01*
X147604671Y-86695030D01*
X147626850Y-86705520D01*
X147647893Y-86718132D01*
X147667599Y-86732747D01*
X147685777Y-86749223D01*
X147702253Y-86767401D01*
X147716868Y-86787107D01*
X147729480Y-86808150D01*
X147739970Y-86830329D01*
X147748235Y-86853428D01*
X147754196Y-86877227D01*
X147757796Y-86901495D01*
X147759000Y-86925999D01*
X147759000Y-87826001D01*
X147757796Y-87850505D01*
X147754196Y-87874773D01*
X147748235Y-87898572D01*
X147739970Y-87921671D01*
X147729480Y-87943850D01*
X147716868Y-87964893D01*
X147702253Y-87984599D01*
X147685777Y-88002777D01*
X147667599Y-88019253D01*
X147647893Y-88033868D01*
X147626850Y-88046480D01*
X147604671Y-88056970D01*
X147581572Y-88065235D01*
X147557773Y-88071196D01*
X147533505Y-88074796D01*
X147509001Y-88076000D01*
X146858999Y-88076000D01*
X146834495Y-88074796D01*
X146810227Y-88071196D01*
X146786428Y-88065235D01*
X146763329Y-88056970D01*
X146741150Y-88046480D01*
X146720107Y-88033868D01*
X146700401Y-88019253D01*
X146682223Y-88002777D01*
X146665747Y-87984599D01*
X146651132Y-87964893D01*
X146638520Y-87943850D01*
X146628030Y-87921671D01*
X146619765Y-87898572D01*
X146613804Y-87874773D01*
X146610204Y-87850505D01*
X146609000Y-87826001D01*
X146609000Y-86925999D01*
X146610204Y-86901495D01*
X146613804Y-86877227D01*
X146619765Y-86853428D01*
X146628030Y-86830329D01*
X146638520Y-86808150D01*
X146651132Y-86787107D01*
X146665747Y-86767401D01*
X146682223Y-86749223D01*
X146700401Y-86732747D01*
X146720107Y-86718132D01*
X146741150Y-86705520D01*
X146763329Y-86695030D01*
X146786428Y-86686765D01*
X146810227Y-86680804D01*
X146834495Y-86677204D01*
X146858999Y-86676000D01*
X147509001Y-86676000D01*
X147533505Y-86677204D01*
X147533505Y-86677204D01*
G37*
D11*
X147184000Y-87376000D03*
D10*
G36*
X149583505Y-86677204D02*
X149607773Y-86680804D01*
X149631572Y-86686765D01*
X149654671Y-86695030D01*
X149676850Y-86705520D01*
X149697893Y-86718132D01*
X149717599Y-86732747D01*
X149735777Y-86749223D01*
X149752253Y-86767401D01*
X149766868Y-86787107D01*
X149779480Y-86808150D01*
X149789970Y-86830329D01*
X149798235Y-86853428D01*
X149804196Y-86877227D01*
X149807796Y-86901495D01*
X149809000Y-86925999D01*
X149809000Y-87826001D01*
X149807796Y-87850505D01*
X149804196Y-87874773D01*
X149798235Y-87898572D01*
X149789970Y-87921671D01*
X149779480Y-87943850D01*
X149766868Y-87964893D01*
X149752253Y-87984599D01*
X149735777Y-88002777D01*
X149717599Y-88019253D01*
X149697893Y-88033868D01*
X149676850Y-88046480D01*
X149654671Y-88056970D01*
X149631572Y-88065235D01*
X149607773Y-88071196D01*
X149583505Y-88074796D01*
X149559001Y-88076000D01*
X148908999Y-88076000D01*
X148884495Y-88074796D01*
X148860227Y-88071196D01*
X148836428Y-88065235D01*
X148813329Y-88056970D01*
X148791150Y-88046480D01*
X148770107Y-88033868D01*
X148750401Y-88019253D01*
X148732223Y-88002777D01*
X148715747Y-87984599D01*
X148701132Y-87964893D01*
X148688520Y-87943850D01*
X148678030Y-87921671D01*
X148669765Y-87898572D01*
X148663804Y-87874773D01*
X148660204Y-87850505D01*
X148659000Y-87826001D01*
X148659000Y-86925999D01*
X148660204Y-86901495D01*
X148663804Y-86877227D01*
X148669765Y-86853428D01*
X148678030Y-86830329D01*
X148688520Y-86808150D01*
X148701132Y-86787107D01*
X148715747Y-86767401D01*
X148732223Y-86749223D01*
X148750401Y-86732747D01*
X148770107Y-86718132D01*
X148791150Y-86705520D01*
X148813329Y-86695030D01*
X148836428Y-86686765D01*
X148860227Y-86680804D01*
X148884495Y-86677204D01*
X148908999Y-86676000D01*
X149559001Y-86676000D01*
X149583505Y-86677204D01*
X149583505Y-86677204D01*
G37*
D11*
X149234000Y-87376000D03*
G04 #@! TD*
D26*
G04 #@! TO.C,U1*
X129073000Y-95869000D03*
X129073000Y-95369000D03*
X129073000Y-94869000D03*
X129073000Y-94369000D03*
X129073000Y-93869000D03*
X124673000Y-93869000D03*
X124673000Y-94369000D03*
X124673000Y-94869000D03*
X124673000Y-95369000D03*
X124673000Y-95869000D03*
G04 #@! TD*
D27*
G04 #@! TO.C,U2*
X145100000Y-92536000D03*
X146050000Y-92536000D03*
X147000000Y-92536000D03*
X147000000Y-89836000D03*
X145100000Y-89836000D03*
G04 #@! TD*
M02*
