M48
;DRILL file {KiCad (5.0.0)} date 04/18/19 21:23:03
;FORMAT={-:-/ absolute / inch / decimal}
FMAT,2
INCH,TZ
T1C0.0157
T2C0.0394
%
G90
G05
M72
T1
X4.285Y-3.6875
X4.2925Y-3.2
X4.295Y-3.3625
X4.2966Y-3.5334
X4.2975Y-3.44
X4.375Y-3.69
X4.3772Y-3.1968
X4.3975Y-3.41
X4.4Y-3.47
X4.405Y-3.07
X4.405Y-3.7875
X4.41Y-3.235
X4.41Y-3.35
X4.415Y-3.295
X4.52Y-3.635
X4.53Y-3.13
X4.53Y-3.5475
X4.5312Y-3.045
X4.5852Y-3.7998
X4.665Y-3.635
X4.72Y-3.28
X4.72Y-3.33
X4.775Y-3.28
X4.775Y-3.33
X4.83Y-3.28
X4.83Y-3.33
X4.84Y-3.73
X4.925Y-3.365
X4.98Y-3.7
X4.985Y-3.755
X5.11Y-3.81
X5.13Y-3.925
X5.205Y-3.56
X5.405Y-3.85
X5.435Y-3.6625
X5.55Y-3.5
X5.745Y-3.715
X5.765Y-3.915
X5.83Y-3.71
X5.86Y-3.825
X6.0275Y-3.7625
X6.0872Y-3.7122
X6.135Y-3.4675
T2
X5.43Y-4.05
X5.53Y-4.05
X4.655Y-2.945
X4.655Y-3.045
X4.755Y-2.945
X4.755Y-3.045
X4.855Y-2.945
X4.855Y-3.045
X4.955Y-2.945
X4.955Y-3.045
X5.055Y-2.945
X5.055Y-3.045
X5.155Y-2.945
X5.155Y-3.045
X5.255Y-2.945
X5.255Y-3.045
X5.355Y-2.945
X5.355Y-3.045
X5.455Y-2.945
X5.455Y-3.045
X5.555Y-2.945
X5.555Y-3.045
X5.185Y-4.05
X5.285Y-4.05
X4.94Y-4.05
X5.04Y-4.05
T0
M30
