G04 #@! TF.GenerationSoftware,KiCad,Pcbnew,(5.0.0)*
G04 #@! TF.CreationDate,2019-04-18T21:23:00-04:00*
G04 #@! TF.ProjectId,TouchscreenAdapter,546F75636873637265656E4164617074,rev?*
G04 #@! TF.SameCoordinates,Original*
G04 #@! TF.FileFunction,Copper,L2,Bot,Signal*
G04 #@! TF.FilePolarity,Positive*
%FSLAX46Y46*%
G04 Gerber Fmt 4.6, Leading zero omitted, Abs format (unit mm)*
G04 Created by KiCad (PCBNEW (5.0.0)) date 04/18/19 21:23:00*
%MOMM*%
%LPD*%
G01*
G04 APERTURE LIST*
G04 #@! TA.AperFunction,Conductor*
%ADD10C,0.100000*%
G04 #@! TD*
G04 #@! TA.AperFunction,SMDPad,CuDef*
%ADD11C,1.425000*%
G04 #@! TD*
G04 #@! TA.AperFunction,ComponentPad*
%ADD12R,1.700000X1.700000*%
G04 #@! TD*
G04 #@! TA.AperFunction,ComponentPad*
%ADD13O,1.700000X1.700000*%
G04 #@! TD*
G04 #@! TA.AperFunction,SMDPad,CuDef*
%ADD14C,1.150000*%
G04 #@! TD*
G04 #@! TA.AperFunction,ViaPad*
%ADD15C,0.800000*%
G04 #@! TD*
G04 #@! TA.AperFunction,Conductor*
%ADD16C,0.250000*%
G04 #@! TD*
G04 #@! TA.AperFunction,Conductor*
%ADD17C,0.500000*%
G04 #@! TD*
G04 #@! TA.AperFunction,Conductor*
%ADD18C,0.254000*%
G04 #@! TD*
G04 APERTURE END LIST*
D10*
G04 #@! TO.N,GND*
G04 #@! TO.C,C1*
G36*
X114187504Y-71932704D02*
X114211773Y-71936304D01*
X114235571Y-71942265D01*
X114258671Y-71950530D01*
X114280849Y-71961020D01*
X114301893Y-71973633D01*
X114321598Y-71988247D01*
X114339777Y-72004723D01*
X114356253Y-72022902D01*
X114370867Y-72042607D01*
X114383480Y-72063651D01*
X114393970Y-72085829D01*
X114402235Y-72108929D01*
X114408196Y-72132727D01*
X114411796Y-72156996D01*
X114413000Y-72181500D01*
X114413000Y-73106500D01*
X114411796Y-73131004D01*
X114408196Y-73155273D01*
X114402235Y-73179071D01*
X114393970Y-73202171D01*
X114383480Y-73224349D01*
X114370867Y-73245393D01*
X114356253Y-73265098D01*
X114339777Y-73283277D01*
X114321598Y-73299753D01*
X114301893Y-73314367D01*
X114280849Y-73326980D01*
X114258671Y-73337470D01*
X114235571Y-73345735D01*
X114211773Y-73351696D01*
X114187504Y-73355296D01*
X114163000Y-73356500D01*
X112913000Y-73356500D01*
X112888496Y-73355296D01*
X112864227Y-73351696D01*
X112840429Y-73345735D01*
X112817329Y-73337470D01*
X112795151Y-73326980D01*
X112774107Y-73314367D01*
X112754402Y-73299753D01*
X112736223Y-73283277D01*
X112719747Y-73265098D01*
X112705133Y-73245393D01*
X112692520Y-73224349D01*
X112682030Y-73202171D01*
X112673765Y-73179071D01*
X112667804Y-73155273D01*
X112664204Y-73131004D01*
X112663000Y-73106500D01*
X112663000Y-72181500D01*
X112664204Y-72156996D01*
X112667804Y-72132727D01*
X112673765Y-72108929D01*
X112682030Y-72085829D01*
X112692520Y-72063651D01*
X112705133Y-72042607D01*
X112719747Y-72022902D01*
X112736223Y-72004723D01*
X112754402Y-71988247D01*
X112774107Y-71973633D01*
X112795151Y-71961020D01*
X112817329Y-71950530D01*
X112840429Y-71942265D01*
X112864227Y-71936304D01*
X112888496Y-71932704D01*
X112913000Y-71931500D01*
X114163000Y-71931500D01*
X114187504Y-71932704D01*
X114187504Y-71932704D01*
G37*
D11*
G04 #@! TD*
G04 #@! TO.P,C1,2*
G04 #@! TO.N,GND*
X113538000Y-72644000D03*
D10*
G04 #@! TO.N,/3V3DC*
G04 #@! TO.C,C1*
G36*
X114187504Y-74907704D02*
X114211773Y-74911304D01*
X114235571Y-74917265D01*
X114258671Y-74925530D01*
X114280849Y-74936020D01*
X114301893Y-74948633D01*
X114321598Y-74963247D01*
X114339777Y-74979723D01*
X114356253Y-74997902D01*
X114370867Y-75017607D01*
X114383480Y-75038651D01*
X114393970Y-75060829D01*
X114402235Y-75083929D01*
X114408196Y-75107727D01*
X114411796Y-75131996D01*
X114413000Y-75156500D01*
X114413000Y-76081500D01*
X114411796Y-76106004D01*
X114408196Y-76130273D01*
X114402235Y-76154071D01*
X114393970Y-76177171D01*
X114383480Y-76199349D01*
X114370867Y-76220393D01*
X114356253Y-76240098D01*
X114339777Y-76258277D01*
X114321598Y-76274753D01*
X114301893Y-76289367D01*
X114280849Y-76301980D01*
X114258671Y-76312470D01*
X114235571Y-76320735D01*
X114211773Y-76326696D01*
X114187504Y-76330296D01*
X114163000Y-76331500D01*
X112913000Y-76331500D01*
X112888496Y-76330296D01*
X112864227Y-76326696D01*
X112840429Y-76320735D01*
X112817329Y-76312470D01*
X112795151Y-76301980D01*
X112774107Y-76289367D01*
X112754402Y-76274753D01*
X112736223Y-76258277D01*
X112719747Y-76240098D01*
X112705133Y-76220393D01*
X112692520Y-76199349D01*
X112682030Y-76177171D01*
X112673765Y-76154071D01*
X112667804Y-76130273D01*
X112664204Y-76106004D01*
X112663000Y-76081500D01*
X112663000Y-75156500D01*
X112664204Y-75131996D01*
X112667804Y-75107727D01*
X112673765Y-75083929D01*
X112682030Y-75060829D01*
X112692520Y-75038651D01*
X112705133Y-75017607D01*
X112719747Y-74997902D01*
X112736223Y-74979723D01*
X112754402Y-74963247D01*
X112774107Y-74948633D01*
X112795151Y-74936020D01*
X112817329Y-74925530D01*
X112840429Y-74917265D01*
X112864227Y-74911304D01*
X112888496Y-74907704D01*
X112913000Y-74906500D01*
X114163000Y-74906500D01*
X114187504Y-74907704D01*
X114187504Y-74907704D01*
G37*
D11*
G04 #@! TD*
G04 #@! TO.P,C1,1*
G04 #@! TO.N,/3V3DC*
X113538000Y-75619000D03*
D10*
G04 #@! TO.N,/3V3DC*
G04 #@! TO.C,C2*
G36*
X111901504Y-74944204D02*
X111925773Y-74947804D01*
X111949571Y-74953765D01*
X111972671Y-74962030D01*
X111994849Y-74972520D01*
X112015893Y-74985133D01*
X112035598Y-74999747D01*
X112053777Y-75016223D01*
X112070253Y-75034402D01*
X112084867Y-75054107D01*
X112097480Y-75075151D01*
X112107970Y-75097329D01*
X112116235Y-75120429D01*
X112122196Y-75144227D01*
X112125796Y-75168496D01*
X112127000Y-75193000D01*
X112127000Y-76118000D01*
X112125796Y-76142504D01*
X112122196Y-76166773D01*
X112116235Y-76190571D01*
X112107970Y-76213671D01*
X112097480Y-76235849D01*
X112084867Y-76256893D01*
X112070253Y-76276598D01*
X112053777Y-76294777D01*
X112035598Y-76311253D01*
X112015893Y-76325867D01*
X111994849Y-76338480D01*
X111972671Y-76348970D01*
X111949571Y-76357235D01*
X111925773Y-76363196D01*
X111901504Y-76366796D01*
X111877000Y-76368000D01*
X110627000Y-76368000D01*
X110602496Y-76366796D01*
X110578227Y-76363196D01*
X110554429Y-76357235D01*
X110531329Y-76348970D01*
X110509151Y-76338480D01*
X110488107Y-76325867D01*
X110468402Y-76311253D01*
X110450223Y-76294777D01*
X110433747Y-76276598D01*
X110419133Y-76256893D01*
X110406520Y-76235849D01*
X110396030Y-76213671D01*
X110387765Y-76190571D01*
X110381804Y-76166773D01*
X110378204Y-76142504D01*
X110377000Y-76118000D01*
X110377000Y-75193000D01*
X110378204Y-75168496D01*
X110381804Y-75144227D01*
X110387765Y-75120429D01*
X110396030Y-75097329D01*
X110406520Y-75075151D01*
X110419133Y-75054107D01*
X110433747Y-75034402D01*
X110450223Y-75016223D01*
X110468402Y-74999747D01*
X110488107Y-74985133D01*
X110509151Y-74972520D01*
X110531329Y-74962030D01*
X110554429Y-74953765D01*
X110578227Y-74947804D01*
X110602496Y-74944204D01*
X110627000Y-74943000D01*
X111877000Y-74943000D01*
X111901504Y-74944204D01*
X111901504Y-74944204D01*
G37*
D11*
G04 #@! TD*
G04 #@! TO.P,C2,1*
G04 #@! TO.N,/3V3DC*
X111252000Y-75655500D03*
D10*
G04 #@! TO.N,GND*
G04 #@! TO.C,C2*
G36*
X111901504Y-71969204D02*
X111925773Y-71972804D01*
X111949571Y-71978765D01*
X111972671Y-71987030D01*
X111994849Y-71997520D01*
X112015893Y-72010133D01*
X112035598Y-72024747D01*
X112053777Y-72041223D01*
X112070253Y-72059402D01*
X112084867Y-72079107D01*
X112097480Y-72100151D01*
X112107970Y-72122329D01*
X112116235Y-72145429D01*
X112122196Y-72169227D01*
X112125796Y-72193496D01*
X112127000Y-72218000D01*
X112127000Y-73143000D01*
X112125796Y-73167504D01*
X112122196Y-73191773D01*
X112116235Y-73215571D01*
X112107970Y-73238671D01*
X112097480Y-73260849D01*
X112084867Y-73281893D01*
X112070253Y-73301598D01*
X112053777Y-73319777D01*
X112035598Y-73336253D01*
X112015893Y-73350867D01*
X111994849Y-73363480D01*
X111972671Y-73373970D01*
X111949571Y-73382235D01*
X111925773Y-73388196D01*
X111901504Y-73391796D01*
X111877000Y-73393000D01*
X110627000Y-73393000D01*
X110602496Y-73391796D01*
X110578227Y-73388196D01*
X110554429Y-73382235D01*
X110531329Y-73373970D01*
X110509151Y-73363480D01*
X110488107Y-73350867D01*
X110468402Y-73336253D01*
X110450223Y-73319777D01*
X110433747Y-73301598D01*
X110419133Y-73281893D01*
X110406520Y-73260849D01*
X110396030Y-73238671D01*
X110387765Y-73215571D01*
X110381804Y-73191773D01*
X110378204Y-73167504D01*
X110377000Y-73143000D01*
X110377000Y-72218000D01*
X110378204Y-72193496D01*
X110381804Y-72169227D01*
X110387765Y-72145429D01*
X110396030Y-72122329D01*
X110406520Y-72100151D01*
X110419133Y-72079107D01*
X110433747Y-72059402D01*
X110450223Y-72041223D01*
X110468402Y-72024747D01*
X110488107Y-72010133D01*
X110509151Y-71997520D01*
X110531329Y-71987030D01*
X110554429Y-71978765D01*
X110578227Y-71972804D01*
X110602496Y-71969204D01*
X110627000Y-71968000D01*
X111877000Y-71968000D01*
X111901504Y-71969204D01*
X111901504Y-71969204D01*
G37*
D11*
G04 #@! TD*
G04 #@! TO.P,C2,2*
G04 #@! TO.N,GND*
X111252000Y-72680500D03*
D12*
G04 #@! TO.P,J5,1*
G04 #@! TO.N,/9.6VDC*
X128016000Y-102870000D03*
D13*
G04 #@! TO.P,J5,2*
G04 #@! TO.N,Net-(C5-Pad2)*
X125476000Y-102870000D03*
G04 #@! TD*
G04 #@! TO.P,J6,2*
G04 #@! TO.N,Net-(C7-Pad1)*
X131699000Y-102870000D03*
D12*
G04 #@! TO.P,J6,1*
G04 #@! TO.N,/-6VDC*
X134239000Y-102870000D03*
G04 #@! TD*
G04 #@! TO.P,J7,1*
G04 #@! TO.N,/3V3DC*
X118237000Y-77343000D03*
D13*
G04 #@! TO.P,J7,2*
X118237000Y-74803000D03*
G04 #@! TO.P,J7,3*
G04 #@! TO.N,GND*
X120777000Y-77343000D03*
G04 #@! TO.P,J7,4*
X120777000Y-74803000D03*
G04 #@! TO.P,J7,5*
G04 #@! TO.N,/RXIN0-*
X123317000Y-77343000D03*
G04 #@! TO.P,J7,6*
G04 #@! TO.N,/RXIN0+*
X123317000Y-74803000D03*
G04 #@! TO.P,J7,7*
G04 #@! TO.N,GND*
X125857000Y-77343000D03*
G04 #@! TO.P,J7,8*
G04 #@! TO.N,/RXIN1-*
X125857000Y-74803000D03*
G04 #@! TO.P,J7,9*
G04 #@! TO.N,/RXIN1+*
X128397000Y-77343000D03*
G04 #@! TO.P,J7,10*
G04 #@! TO.N,GND*
X128397000Y-74803000D03*
G04 #@! TO.P,J7,11*
G04 #@! TO.N,/RXIN2-*
X130937000Y-77343000D03*
G04 #@! TO.P,J7,12*
G04 #@! TO.N,/RXIN2+*
X130937000Y-74803000D03*
G04 #@! TO.P,J7,13*
G04 #@! TO.N,GND*
X133477000Y-77343000D03*
G04 #@! TO.P,J7,14*
G04 #@! TO.N,/RXCLKIN-*
X133477000Y-74803000D03*
G04 #@! TO.P,J7,15*
G04 #@! TO.N,/RXCLKIN+*
X136017000Y-77343000D03*
G04 #@! TO.P,J7,16*
G04 #@! TO.N,GND*
X136017000Y-74803000D03*
G04 #@! TO.P,J7,17*
G04 #@! TO.N,/5VDC*
X138557000Y-77343000D03*
G04 #@! TO.P,J7,18*
X138557000Y-74803000D03*
G04 #@! TO.P,J7,19*
G04 #@! TO.N,/BLIGHT_CTRL*
X141097000Y-77343000D03*
G04 #@! TO.P,J7,20*
G04 #@! TO.N,GND*
X141097000Y-74803000D03*
G04 #@! TD*
D12*
G04 #@! TO.P,J8,1*
G04 #@! TO.N,/18VDC*
X140462000Y-102870000D03*
D13*
G04 #@! TO.P,J8,2*
G04 #@! TO.N,Net-(C10-Pad1)*
X137922000Y-102870000D03*
G04 #@! TD*
D10*
G04 #@! TO.N,/STBYB*
G04 #@! TO.C,R1*
G36*
X110615612Y-81766983D02*
X110639880Y-81770583D01*
X110663679Y-81776544D01*
X110686778Y-81784809D01*
X110708957Y-81795299D01*
X110730000Y-81807911D01*
X110749706Y-81822526D01*
X110767884Y-81839002D01*
X110784360Y-81857180D01*
X110798975Y-81876886D01*
X110811587Y-81897929D01*
X110822077Y-81920108D01*
X110830342Y-81943207D01*
X110836303Y-81967006D01*
X110839903Y-81991274D01*
X110841107Y-82015778D01*
X110841107Y-82665780D01*
X110839903Y-82690284D01*
X110836303Y-82714552D01*
X110830342Y-82738351D01*
X110822077Y-82761450D01*
X110811587Y-82783629D01*
X110798975Y-82804672D01*
X110784360Y-82824378D01*
X110767884Y-82842556D01*
X110749706Y-82859032D01*
X110730000Y-82873647D01*
X110708957Y-82886259D01*
X110686778Y-82896749D01*
X110663679Y-82905014D01*
X110639880Y-82910975D01*
X110615612Y-82914575D01*
X110591108Y-82915779D01*
X109691106Y-82915779D01*
X109666602Y-82914575D01*
X109642334Y-82910975D01*
X109618535Y-82905014D01*
X109595436Y-82896749D01*
X109573257Y-82886259D01*
X109552214Y-82873647D01*
X109532508Y-82859032D01*
X109514330Y-82842556D01*
X109497854Y-82824378D01*
X109483239Y-82804672D01*
X109470627Y-82783629D01*
X109460137Y-82761450D01*
X109451872Y-82738351D01*
X109445911Y-82714552D01*
X109442311Y-82690284D01*
X109441107Y-82665780D01*
X109441107Y-82015778D01*
X109442311Y-81991274D01*
X109445911Y-81967006D01*
X109451872Y-81943207D01*
X109460137Y-81920108D01*
X109470627Y-81897929D01*
X109483239Y-81876886D01*
X109497854Y-81857180D01*
X109514330Y-81839002D01*
X109532508Y-81822526D01*
X109552214Y-81807911D01*
X109573257Y-81795299D01*
X109595436Y-81784809D01*
X109618535Y-81776544D01*
X109642334Y-81770583D01*
X109666602Y-81766983D01*
X109691106Y-81765779D01*
X110591108Y-81765779D01*
X110615612Y-81766983D01*
X110615612Y-81766983D01*
G37*
D14*
G04 #@! TD*
G04 #@! TO.P,R1,2*
G04 #@! TO.N,/STBYB*
X110141107Y-82340779D03*
D10*
G04 #@! TO.N,/3V3DC*
G04 #@! TO.C,R1*
G36*
X110615612Y-83816983D02*
X110639880Y-83820583D01*
X110663679Y-83826544D01*
X110686778Y-83834809D01*
X110708957Y-83845299D01*
X110730000Y-83857911D01*
X110749706Y-83872526D01*
X110767884Y-83889002D01*
X110784360Y-83907180D01*
X110798975Y-83926886D01*
X110811587Y-83947929D01*
X110822077Y-83970108D01*
X110830342Y-83993207D01*
X110836303Y-84017006D01*
X110839903Y-84041274D01*
X110841107Y-84065778D01*
X110841107Y-84715780D01*
X110839903Y-84740284D01*
X110836303Y-84764552D01*
X110830342Y-84788351D01*
X110822077Y-84811450D01*
X110811587Y-84833629D01*
X110798975Y-84854672D01*
X110784360Y-84874378D01*
X110767884Y-84892556D01*
X110749706Y-84909032D01*
X110730000Y-84923647D01*
X110708957Y-84936259D01*
X110686778Y-84946749D01*
X110663679Y-84955014D01*
X110639880Y-84960975D01*
X110615612Y-84964575D01*
X110591108Y-84965779D01*
X109691106Y-84965779D01*
X109666602Y-84964575D01*
X109642334Y-84960975D01*
X109618535Y-84955014D01*
X109595436Y-84946749D01*
X109573257Y-84936259D01*
X109552214Y-84923647D01*
X109532508Y-84909032D01*
X109514330Y-84892556D01*
X109497854Y-84874378D01*
X109483239Y-84854672D01*
X109470627Y-84833629D01*
X109460137Y-84811450D01*
X109451872Y-84788351D01*
X109445911Y-84764552D01*
X109442311Y-84740284D01*
X109441107Y-84715780D01*
X109441107Y-84065778D01*
X109442311Y-84041274D01*
X109445911Y-84017006D01*
X109451872Y-83993207D01*
X109460137Y-83970108D01*
X109470627Y-83947929D01*
X109483239Y-83926886D01*
X109497854Y-83907180D01*
X109514330Y-83889002D01*
X109532508Y-83872526D01*
X109552214Y-83857911D01*
X109573257Y-83845299D01*
X109595436Y-83834809D01*
X109618535Y-83826544D01*
X109642334Y-83820583D01*
X109666602Y-83816983D01*
X109691106Y-83815779D01*
X110591108Y-83815779D01*
X110615612Y-83816983D01*
X110615612Y-83816983D01*
G37*
D14*
G04 #@! TD*
G04 #@! TO.P,R1,1*
G04 #@! TO.N,/3V3DC*
X110141107Y-84390779D03*
D10*
G04 #@! TO.N,GND*
G04 #@! TO.C,R2*
G36*
X110615612Y-77575983D02*
X110639880Y-77579583D01*
X110663679Y-77585544D01*
X110686778Y-77593809D01*
X110708957Y-77604299D01*
X110730000Y-77616911D01*
X110749706Y-77631526D01*
X110767884Y-77648002D01*
X110784360Y-77666180D01*
X110798975Y-77685886D01*
X110811587Y-77706929D01*
X110822077Y-77729108D01*
X110830342Y-77752207D01*
X110836303Y-77776006D01*
X110839903Y-77800274D01*
X110841107Y-77824778D01*
X110841107Y-78474780D01*
X110839903Y-78499284D01*
X110836303Y-78523552D01*
X110830342Y-78547351D01*
X110822077Y-78570450D01*
X110811587Y-78592629D01*
X110798975Y-78613672D01*
X110784360Y-78633378D01*
X110767884Y-78651556D01*
X110749706Y-78668032D01*
X110730000Y-78682647D01*
X110708957Y-78695259D01*
X110686778Y-78705749D01*
X110663679Y-78714014D01*
X110639880Y-78719975D01*
X110615612Y-78723575D01*
X110591108Y-78724779D01*
X109691106Y-78724779D01*
X109666602Y-78723575D01*
X109642334Y-78719975D01*
X109618535Y-78714014D01*
X109595436Y-78705749D01*
X109573257Y-78695259D01*
X109552214Y-78682647D01*
X109532508Y-78668032D01*
X109514330Y-78651556D01*
X109497854Y-78633378D01*
X109483239Y-78613672D01*
X109470627Y-78592629D01*
X109460137Y-78570450D01*
X109451872Y-78547351D01*
X109445911Y-78523552D01*
X109442311Y-78499284D01*
X109441107Y-78474780D01*
X109441107Y-77824778D01*
X109442311Y-77800274D01*
X109445911Y-77776006D01*
X109451872Y-77752207D01*
X109460137Y-77729108D01*
X109470627Y-77706929D01*
X109483239Y-77685886D01*
X109497854Y-77666180D01*
X109514330Y-77648002D01*
X109532508Y-77631526D01*
X109552214Y-77616911D01*
X109573257Y-77604299D01*
X109595436Y-77593809D01*
X109618535Y-77585544D01*
X109642334Y-77579583D01*
X109666602Y-77575983D01*
X109691106Y-77574779D01*
X110591108Y-77574779D01*
X110615612Y-77575983D01*
X110615612Y-77575983D01*
G37*
D14*
G04 #@! TD*
G04 #@! TO.P,R2,2*
G04 #@! TO.N,GND*
X110141107Y-78149779D03*
D10*
G04 #@! TO.N,/STBYB*
G04 #@! TO.C,R2*
G36*
X110615612Y-79625983D02*
X110639880Y-79629583D01*
X110663679Y-79635544D01*
X110686778Y-79643809D01*
X110708957Y-79654299D01*
X110730000Y-79666911D01*
X110749706Y-79681526D01*
X110767884Y-79698002D01*
X110784360Y-79716180D01*
X110798975Y-79735886D01*
X110811587Y-79756929D01*
X110822077Y-79779108D01*
X110830342Y-79802207D01*
X110836303Y-79826006D01*
X110839903Y-79850274D01*
X110841107Y-79874778D01*
X110841107Y-80524780D01*
X110839903Y-80549284D01*
X110836303Y-80573552D01*
X110830342Y-80597351D01*
X110822077Y-80620450D01*
X110811587Y-80642629D01*
X110798975Y-80663672D01*
X110784360Y-80683378D01*
X110767884Y-80701556D01*
X110749706Y-80718032D01*
X110730000Y-80732647D01*
X110708957Y-80745259D01*
X110686778Y-80755749D01*
X110663679Y-80764014D01*
X110639880Y-80769975D01*
X110615612Y-80773575D01*
X110591108Y-80774779D01*
X109691106Y-80774779D01*
X109666602Y-80773575D01*
X109642334Y-80769975D01*
X109618535Y-80764014D01*
X109595436Y-80755749D01*
X109573257Y-80745259D01*
X109552214Y-80732647D01*
X109532508Y-80718032D01*
X109514330Y-80701556D01*
X109497854Y-80683378D01*
X109483239Y-80663672D01*
X109470627Y-80642629D01*
X109460137Y-80620450D01*
X109451872Y-80597351D01*
X109445911Y-80573552D01*
X109442311Y-80549284D01*
X109441107Y-80524780D01*
X109441107Y-79874778D01*
X109442311Y-79850274D01*
X109445911Y-79826006D01*
X109451872Y-79802207D01*
X109460137Y-79779108D01*
X109470627Y-79756929D01*
X109483239Y-79735886D01*
X109497854Y-79716180D01*
X109514330Y-79698002D01*
X109532508Y-79681526D01*
X109552214Y-79666911D01*
X109573257Y-79654299D01*
X109595436Y-79643809D01*
X109618535Y-79635544D01*
X109642334Y-79629583D01*
X109666602Y-79625983D01*
X109691106Y-79624779D01*
X110591108Y-79624779D01*
X110615612Y-79625983D01*
X110615612Y-79625983D01*
G37*
D14*
G04 #@! TD*
G04 #@! TO.P,R2,1*
G04 #@! TO.N,/STBYB*
X110141107Y-80199779D03*
D10*
G04 #@! TO.N,/L-R*
G04 #@! TO.C,R3*
G36*
X108583612Y-94158483D02*
X108607880Y-94162083D01*
X108631679Y-94168044D01*
X108654778Y-94176309D01*
X108676957Y-94186799D01*
X108698000Y-94199411D01*
X108717706Y-94214026D01*
X108735884Y-94230502D01*
X108752360Y-94248680D01*
X108766975Y-94268386D01*
X108779587Y-94289429D01*
X108790077Y-94311608D01*
X108798342Y-94334707D01*
X108804303Y-94358506D01*
X108807903Y-94382774D01*
X108809107Y-94407278D01*
X108809107Y-95057280D01*
X108807903Y-95081784D01*
X108804303Y-95106052D01*
X108798342Y-95129851D01*
X108790077Y-95152950D01*
X108779587Y-95175129D01*
X108766975Y-95196172D01*
X108752360Y-95215878D01*
X108735884Y-95234056D01*
X108717706Y-95250532D01*
X108698000Y-95265147D01*
X108676957Y-95277759D01*
X108654778Y-95288249D01*
X108631679Y-95296514D01*
X108607880Y-95302475D01*
X108583612Y-95306075D01*
X108559108Y-95307279D01*
X107659106Y-95307279D01*
X107634602Y-95306075D01*
X107610334Y-95302475D01*
X107586535Y-95296514D01*
X107563436Y-95288249D01*
X107541257Y-95277759D01*
X107520214Y-95265147D01*
X107500508Y-95250532D01*
X107482330Y-95234056D01*
X107465854Y-95215878D01*
X107451239Y-95196172D01*
X107438627Y-95175129D01*
X107428137Y-95152950D01*
X107419872Y-95129851D01*
X107413911Y-95106052D01*
X107410311Y-95081784D01*
X107409107Y-95057280D01*
X107409107Y-94407278D01*
X107410311Y-94382774D01*
X107413911Y-94358506D01*
X107419872Y-94334707D01*
X107428137Y-94311608D01*
X107438627Y-94289429D01*
X107451239Y-94268386D01*
X107465854Y-94248680D01*
X107482330Y-94230502D01*
X107500508Y-94214026D01*
X107520214Y-94199411D01*
X107541257Y-94186799D01*
X107563436Y-94176309D01*
X107586535Y-94168044D01*
X107610334Y-94162083D01*
X107634602Y-94158483D01*
X107659106Y-94157279D01*
X108559108Y-94157279D01*
X108583612Y-94158483D01*
X108583612Y-94158483D01*
G37*
D14*
G04 #@! TD*
G04 #@! TO.P,R3,2*
G04 #@! TO.N,/L-R*
X108109107Y-94732279D03*
D10*
G04 #@! TO.N,/3V3DC*
G04 #@! TO.C,R3*
G36*
X108583612Y-96208483D02*
X108607880Y-96212083D01*
X108631679Y-96218044D01*
X108654778Y-96226309D01*
X108676957Y-96236799D01*
X108698000Y-96249411D01*
X108717706Y-96264026D01*
X108735884Y-96280502D01*
X108752360Y-96298680D01*
X108766975Y-96318386D01*
X108779587Y-96339429D01*
X108790077Y-96361608D01*
X108798342Y-96384707D01*
X108804303Y-96408506D01*
X108807903Y-96432774D01*
X108809107Y-96457278D01*
X108809107Y-97107280D01*
X108807903Y-97131784D01*
X108804303Y-97156052D01*
X108798342Y-97179851D01*
X108790077Y-97202950D01*
X108779587Y-97225129D01*
X108766975Y-97246172D01*
X108752360Y-97265878D01*
X108735884Y-97284056D01*
X108717706Y-97300532D01*
X108698000Y-97315147D01*
X108676957Y-97327759D01*
X108654778Y-97338249D01*
X108631679Y-97346514D01*
X108607880Y-97352475D01*
X108583612Y-97356075D01*
X108559108Y-97357279D01*
X107659106Y-97357279D01*
X107634602Y-97356075D01*
X107610334Y-97352475D01*
X107586535Y-97346514D01*
X107563436Y-97338249D01*
X107541257Y-97327759D01*
X107520214Y-97315147D01*
X107500508Y-97300532D01*
X107482330Y-97284056D01*
X107465854Y-97265878D01*
X107451239Y-97246172D01*
X107438627Y-97225129D01*
X107428137Y-97202950D01*
X107419872Y-97179851D01*
X107413911Y-97156052D01*
X107410311Y-97131784D01*
X107409107Y-97107280D01*
X107409107Y-96457278D01*
X107410311Y-96432774D01*
X107413911Y-96408506D01*
X107419872Y-96384707D01*
X107428137Y-96361608D01*
X107438627Y-96339429D01*
X107451239Y-96318386D01*
X107465854Y-96298680D01*
X107482330Y-96280502D01*
X107500508Y-96264026D01*
X107520214Y-96249411D01*
X107541257Y-96236799D01*
X107563436Y-96226309D01*
X107586535Y-96218044D01*
X107610334Y-96212083D01*
X107634602Y-96208483D01*
X107659106Y-96207279D01*
X108559108Y-96207279D01*
X108583612Y-96208483D01*
X108583612Y-96208483D01*
G37*
D14*
G04 #@! TD*
G04 #@! TO.P,R3,1*
G04 #@! TO.N,/3V3DC*
X108109107Y-96782279D03*
D10*
G04 #@! TO.N,/L-R*
G04 #@! TO.C,R4*
G36*
X108583612Y-92008483D02*
X108607880Y-92012083D01*
X108631679Y-92018044D01*
X108654778Y-92026309D01*
X108676957Y-92036799D01*
X108698000Y-92049411D01*
X108717706Y-92064026D01*
X108735884Y-92080502D01*
X108752360Y-92098680D01*
X108766975Y-92118386D01*
X108779587Y-92139429D01*
X108790077Y-92161608D01*
X108798342Y-92184707D01*
X108804303Y-92208506D01*
X108807903Y-92232774D01*
X108809107Y-92257278D01*
X108809107Y-92907280D01*
X108807903Y-92931784D01*
X108804303Y-92956052D01*
X108798342Y-92979851D01*
X108790077Y-93002950D01*
X108779587Y-93025129D01*
X108766975Y-93046172D01*
X108752360Y-93065878D01*
X108735884Y-93084056D01*
X108717706Y-93100532D01*
X108698000Y-93115147D01*
X108676957Y-93127759D01*
X108654778Y-93138249D01*
X108631679Y-93146514D01*
X108607880Y-93152475D01*
X108583612Y-93156075D01*
X108559108Y-93157279D01*
X107659106Y-93157279D01*
X107634602Y-93156075D01*
X107610334Y-93152475D01*
X107586535Y-93146514D01*
X107563436Y-93138249D01*
X107541257Y-93127759D01*
X107520214Y-93115147D01*
X107500508Y-93100532D01*
X107482330Y-93084056D01*
X107465854Y-93065878D01*
X107451239Y-93046172D01*
X107438627Y-93025129D01*
X107428137Y-93002950D01*
X107419872Y-92979851D01*
X107413911Y-92956052D01*
X107410311Y-92931784D01*
X107409107Y-92907280D01*
X107409107Y-92257278D01*
X107410311Y-92232774D01*
X107413911Y-92208506D01*
X107419872Y-92184707D01*
X107428137Y-92161608D01*
X107438627Y-92139429D01*
X107451239Y-92118386D01*
X107465854Y-92098680D01*
X107482330Y-92080502D01*
X107500508Y-92064026D01*
X107520214Y-92049411D01*
X107541257Y-92036799D01*
X107563436Y-92026309D01*
X107586535Y-92018044D01*
X107610334Y-92012083D01*
X107634602Y-92008483D01*
X107659106Y-92007279D01*
X108559108Y-92007279D01*
X108583612Y-92008483D01*
X108583612Y-92008483D01*
G37*
D14*
G04 #@! TD*
G04 #@! TO.P,R4,1*
G04 #@! TO.N,/L-R*
X108109107Y-92582279D03*
D10*
G04 #@! TO.N,GND*
G04 #@! TO.C,R4*
G36*
X108583612Y-89958483D02*
X108607880Y-89962083D01*
X108631679Y-89968044D01*
X108654778Y-89976309D01*
X108676957Y-89986799D01*
X108698000Y-89999411D01*
X108717706Y-90014026D01*
X108735884Y-90030502D01*
X108752360Y-90048680D01*
X108766975Y-90068386D01*
X108779587Y-90089429D01*
X108790077Y-90111608D01*
X108798342Y-90134707D01*
X108804303Y-90158506D01*
X108807903Y-90182774D01*
X108809107Y-90207278D01*
X108809107Y-90857280D01*
X108807903Y-90881784D01*
X108804303Y-90906052D01*
X108798342Y-90929851D01*
X108790077Y-90952950D01*
X108779587Y-90975129D01*
X108766975Y-90996172D01*
X108752360Y-91015878D01*
X108735884Y-91034056D01*
X108717706Y-91050532D01*
X108698000Y-91065147D01*
X108676957Y-91077759D01*
X108654778Y-91088249D01*
X108631679Y-91096514D01*
X108607880Y-91102475D01*
X108583612Y-91106075D01*
X108559108Y-91107279D01*
X107659106Y-91107279D01*
X107634602Y-91106075D01*
X107610334Y-91102475D01*
X107586535Y-91096514D01*
X107563436Y-91088249D01*
X107541257Y-91077759D01*
X107520214Y-91065147D01*
X107500508Y-91050532D01*
X107482330Y-91034056D01*
X107465854Y-91015878D01*
X107451239Y-90996172D01*
X107438627Y-90975129D01*
X107428137Y-90952950D01*
X107419872Y-90929851D01*
X107413911Y-90906052D01*
X107410311Y-90881784D01*
X107409107Y-90857280D01*
X107409107Y-90207278D01*
X107410311Y-90182774D01*
X107413911Y-90158506D01*
X107419872Y-90134707D01*
X107428137Y-90111608D01*
X107438627Y-90089429D01*
X107451239Y-90068386D01*
X107465854Y-90048680D01*
X107482330Y-90030502D01*
X107500508Y-90014026D01*
X107520214Y-89999411D01*
X107541257Y-89986799D01*
X107563436Y-89976309D01*
X107586535Y-89968044D01*
X107610334Y-89962083D01*
X107634602Y-89958483D01*
X107659106Y-89957279D01*
X108559108Y-89957279D01*
X108583612Y-89958483D01*
X108583612Y-89958483D01*
G37*
D14*
G04 #@! TD*
G04 #@! TO.P,R4,2*
G04 #@! TO.N,GND*
X108109107Y-90532279D03*
D10*
G04 #@! TO.N,/3V3DC*
G04 #@! TO.C,R5*
G36*
X108583612Y-83834983D02*
X108607880Y-83838583D01*
X108631679Y-83844544D01*
X108654778Y-83852809D01*
X108676957Y-83863299D01*
X108698000Y-83875911D01*
X108717706Y-83890526D01*
X108735884Y-83907002D01*
X108752360Y-83925180D01*
X108766975Y-83944886D01*
X108779587Y-83965929D01*
X108790077Y-83988108D01*
X108798342Y-84011207D01*
X108804303Y-84035006D01*
X108807903Y-84059274D01*
X108809107Y-84083778D01*
X108809107Y-84733780D01*
X108807903Y-84758284D01*
X108804303Y-84782552D01*
X108798342Y-84806351D01*
X108790077Y-84829450D01*
X108779587Y-84851629D01*
X108766975Y-84872672D01*
X108752360Y-84892378D01*
X108735884Y-84910556D01*
X108717706Y-84927032D01*
X108698000Y-84941647D01*
X108676957Y-84954259D01*
X108654778Y-84964749D01*
X108631679Y-84973014D01*
X108607880Y-84978975D01*
X108583612Y-84982575D01*
X108559108Y-84983779D01*
X107659106Y-84983779D01*
X107634602Y-84982575D01*
X107610334Y-84978975D01*
X107586535Y-84973014D01*
X107563436Y-84964749D01*
X107541257Y-84954259D01*
X107520214Y-84941647D01*
X107500508Y-84927032D01*
X107482330Y-84910556D01*
X107465854Y-84892378D01*
X107451239Y-84872672D01*
X107438627Y-84851629D01*
X107428137Y-84829450D01*
X107419872Y-84806351D01*
X107413911Y-84782552D01*
X107410311Y-84758284D01*
X107409107Y-84733780D01*
X107409107Y-84083778D01*
X107410311Y-84059274D01*
X107413911Y-84035006D01*
X107419872Y-84011207D01*
X107428137Y-83988108D01*
X107438627Y-83965929D01*
X107451239Y-83944886D01*
X107465854Y-83925180D01*
X107482330Y-83907002D01*
X107500508Y-83890526D01*
X107520214Y-83875911D01*
X107541257Y-83863299D01*
X107563436Y-83852809D01*
X107586535Y-83844544D01*
X107610334Y-83838583D01*
X107634602Y-83834983D01*
X107659106Y-83833779D01*
X108559108Y-83833779D01*
X108583612Y-83834983D01*
X108583612Y-83834983D01*
G37*
D14*
G04 #@! TD*
G04 #@! TO.P,R5,1*
G04 #@! TO.N,/3V3DC*
X108109107Y-84408779D03*
D10*
G04 #@! TO.N,/RST*
G04 #@! TO.C,R5*
G36*
X108583612Y-81784983D02*
X108607880Y-81788583D01*
X108631679Y-81794544D01*
X108654778Y-81802809D01*
X108676957Y-81813299D01*
X108698000Y-81825911D01*
X108717706Y-81840526D01*
X108735884Y-81857002D01*
X108752360Y-81875180D01*
X108766975Y-81894886D01*
X108779587Y-81915929D01*
X108790077Y-81938108D01*
X108798342Y-81961207D01*
X108804303Y-81985006D01*
X108807903Y-82009274D01*
X108809107Y-82033778D01*
X108809107Y-82683780D01*
X108807903Y-82708284D01*
X108804303Y-82732552D01*
X108798342Y-82756351D01*
X108790077Y-82779450D01*
X108779587Y-82801629D01*
X108766975Y-82822672D01*
X108752360Y-82842378D01*
X108735884Y-82860556D01*
X108717706Y-82877032D01*
X108698000Y-82891647D01*
X108676957Y-82904259D01*
X108654778Y-82914749D01*
X108631679Y-82923014D01*
X108607880Y-82928975D01*
X108583612Y-82932575D01*
X108559108Y-82933779D01*
X107659106Y-82933779D01*
X107634602Y-82932575D01*
X107610334Y-82928975D01*
X107586535Y-82923014D01*
X107563436Y-82914749D01*
X107541257Y-82904259D01*
X107520214Y-82891647D01*
X107500508Y-82877032D01*
X107482330Y-82860556D01*
X107465854Y-82842378D01*
X107451239Y-82822672D01*
X107438627Y-82801629D01*
X107428137Y-82779450D01*
X107419872Y-82756351D01*
X107413911Y-82732552D01*
X107410311Y-82708284D01*
X107409107Y-82683780D01*
X107409107Y-82033778D01*
X107410311Y-82009274D01*
X107413911Y-81985006D01*
X107419872Y-81961207D01*
X107428137Y-81938108D01*
X107438627Y-81915929D01*
X107451239Y-81894886D01*
X107465854Y-81875180D01*
X107482330Y-81857002D01*
X107500508Y-81840526D01*
X107520214Y-81825911D01*
X107541257Y-81813299D01*
X107563436Y-81802809D01*
X107586535Y-81794544D01*
X107610334Y-81788583D01*
X107634602Y-81784983D01*
X107659106Y-81783779D01*
X108559108Y-81783779D01*
X108583612Y-81784983D01*
X108583612Y-81784983D01*
G37*
D14*
G04 #@! TD*
G04 #@! TO.P,R5,2*
G04 #@! TO.N,/RST*
X108109107Y-82358779D03*
D10*
G04 #@! TO.N,GND*
G04 #@! TO.C,R6*
G36*
X108583612Y-77575983D02*
X108607880Y-77579583D01*
X108631679Y-77585544D01*
X108654778Y-77593809D01*
X108676957Y-77604299D01*
X108698000Y-77616911D01*
X108717706Y-77631526D01*
X108735884Y-77648002D01*
X108752360Y-77666180D01*
X108766975Y-77685886D01*
X108779587Y-77706929D01*
X108790077Y-77729108D01*
X108798342Y-77752207D01*
X108804303Y-77776006D01*
X108807903Y-77800274D01*
X108809107Y-77824778D01*
X108809107Y-78474780D01*
X108807903Y-78499284D01*
X108804303Y-78523552D01*
X108798342Y-78547351D01*
X108790077Y-78570450D01*
X108779587Y-78592629D01*
X108766975Y-78613672D01*
X108752360Y-78633378D01*
X108735884Y-78651556D01*
X108717706Y-78668032D01*
X108698000Y-78682647D01*
X108676957Y-78695259D01*
X108654778Y-78705749D01*
X108631679Y-78714014D01*
X108607880Y-78719975D01*
X108583612Y-78723575D01*
X108559108Y-78724779D01*
X107659106Y-78724779D01*
X107634602Y-78723575D01*
X107610334Y-78719975D01*
X107586535Y-78714014D01*
X107563436Y-78705749D01*
X107541257Y-78695259D01*
X107520214Y-78682647D01*
X107500508Y-78668032D01*
X107482330Y-78651556D01*
X107465854Y-78633378D01*
X107451239Y-78613672D01*
X107438627Y-78592629D01*
X107428137Y-78570450D01*
X107419872Y-78547351D01*
X107413911Y-78523552D01*
X107410311Y-78499284D01*
X107409107Y-78474780D01*
X107409107Y-77824778D01*
X107410311Y-77800274D01*
X107413911Y-77776006D01*
X107419872Y-77752207D01*
X107428137Y-77729108D01*
X107438627Y-77706929D01*
X107451239Y-77685886D01*
X107465854Y-77666180D01*
X107482330Y-77648002D01*
X107500508Y-77631526D01*
X107520214Y-77616911D01*
X107541257Y-77604299D01*
X107563436Y-77593809D01*
X107586535Y-77585544D01*
X107610334Y-77579583D01*
X107634602Y-77575983D01*
X107659106Y-77574779D01*
X108559108Y-77574779D01*
X108583612Y-77575983D01*
X108583612Y-77575983D01*
G37*
D14*
G04 #@! TD*
G04 #@! TO.P,R6,2*
G04 #@! TO.N,GND*
X108109107Y-78149779D03*
D10*
G04 #@! TO.N,/RST*
G04 #@! TO.C,R6*
G36*
X108583612Y-79625983D02*
X108607880Y-79629583D01*
X108631679Y-79635544D01*
X108654778Y-79643809D01*
X108676957Y-79654299D01*
X108698000Y-79666911D01*
X108717706Y-79681526D01*
X108735884Y-79698002D01*
X108752360Y-79716180D01*
X108766975Y-79735886D01*
X108779587Y-79756929D01*
X108790077Y-79779108D01*
X108798342Y-79802207D01*
X108804303Y-79826006D01*
X108807903Y-79850274D01*
X108809107Y-79874778D01*
X108809107Y-80524780D01*
X108807903Y-80549284D01*
X108804303Y-80573552D01*
X108798342Y-80597351D01*
X108790077Y-80620450D01*
X108779587Y-80642629D01*
X108766975Y-80663672D01*
X108752360Y-80683378D01*
X108735884Y-80701556D01*
X108717706Y-80718032D01*
X108698000Y-80732647D01*
X108676957Y-80745259D01*
X108654778Y-80755749D01*
X108631679Y-80764014D01*
X108607880Y-80769975D01*
X108583612Y-80773575D01*
X108559108Y-80774779D01*
X107659106Y-80774779D01*
X107634602Y-80773575D01*
X107610334Y-80769975D01*
X107586535Y-80764014D01*
X107563436Y-80755749D01*
X107541257Y-80745259D01*
X107520214Y-80732647D01*
X107500508Y-80718032D01*
X107482330Y-80701556D01*
X107465854Y-80683378D01*
X107451239Y-80663672D01*
X107438627Y-80642629D01*
X107428137Y-80620450D01*
X107419872Y-80597351D01*
X107413911Y-80573552D01*
X107410311Y-80549284D01*
X107409107Y-80524780D01*
X107409107Y-79874778D01*
X107410311Y-79850274D01*
X107413911Y-79826006D01*
X107419872Y-79802207D01*
X107428137Y-79779108D01*
X107438627Y-79756929D01*
X107451239Y-79735886D01*
X107465854Y-79716180D01*
X107482330Y-79698002D01*
X107500508Y-79681526D01*
X107520214Y-79666911D01*
X107541257Y-79654299D01*
X107563436Y-79643809D01*
X107586535Y-79635544D01*
X107610334Y-79629583D01*
X107634602Y-79625983D01*
X107659106Y-79624779D01*
X108559108Y-79624779D01*
X108583612Y-79625983D01*
X108583612Y-79625983D01*
G37*
D14*
G04 #@! TD*
G04 #@! TO.P,R6,1*
G04 #@! TO.N,/RST*
X108109107Y-80199779D03*
D10*
G04 #@! TO.N,/U-D*
G04 #@! TO.C,R7*
G36*
X110615612Y-94149483D02*
X110639880Y-94153083D01*
X110663679Y-94159044D01*
X110686778Y-94167309D01*
X110708957Y-94177799D01*
X110730000Y-94190411D01*
X110749706Y-94205026D01*
X110767884Y-94221502D01*
X110784360Y-94239680D01*
X110798975Y-94259386D01*
X110811587Y-94280429D01*
X110822077Y-94302608D01*
X110830342Y-94325707D01*
X110836303Y-94349506D01*
X110839903Y-94373774D01*
X110841107Y-94398278D01*
X110841107Y-95048280D01*
X110839903Y-95072784D01*
X110836303Y-95097052D01*
X110830342Y-95120851D01*
X110822077Y-95143950D01*
X110811587Y-95166129D01*
X110798975Y-95187172D01*
X110784360Y-95206878D01*
X110767884Y-95225056D01*
X110749706Y-95241532D01*
X110730000Y-95256147D01*
X110708957Y-95268759D01*
X110686778Y-95279249D01*
X110663679Y-95287514D01*
X110639880Y-95293475D01*
X110615612Y-95297075D01*
X110591108Y-95298279D01*
X109691106Y-95298279D01*
X109666602Y-95297075D01*
X109642334Y-95293475D01*
X109618535Y-95287514D01*
X109595436Y-95279249D01*
X109573257Y-95268759D01*
X109552214Y-95256147D01*
X109532508Y-95241532D01*
X109514330Y-95225056D01*
X109497854Y-95206878D01*
X109483239Y-95187172D01*
X109470627Y-95166129D01*
X109460137Y-95143950D01*
X109451872Y-95120851D01*
X109445911Y-95097052D01*
X109442311Y-95072784D01*
X109441107Y-95048280D01*
X109441107Y-94398278D01*
X109442311Y-94373774D01*
X109445911Y-94349506D01*
X109451872Y-94325707D01*
X109460137Y-94302608D01*
X109470627Y-94280429D01*
X109483239Y-94259386D01*
X109497854Y-94239680D01*
X109514330Y-94221502D01*
X109532508Y-94205026D01*
X109552214Y-94190411D01*
X109573257Y-94177799D01*
X109595436Y-94167309D01*
X109618535Y-94159044D01*
X109642334Y-94153083D01*
X109666602Y-94149483D01*
X109691106Y-94148279D01*
X110591108Y-94148279D01*
X110615612Y-94149483D01*
X110615612Y-94149483D01*
G37*
D14*
G04 #@! TD*
G04 #@! TO.P,R7,2*
G04 #@! TO.N,/U-D*
X110141107Y-94723279D03*
D10*
G04 #@! TO.N,/3V3DC*
G04 #@! TO.C,R7*
G36*
X110615612Y-96199483D02*
X110639880Y-96203083D01*
X110663679Y-96209044D01*
X110686778Y-96217309D01*
X110708957Y-96227799D01*
X110730000Y-96240411D01*
X110749706Y-96255026D01*
X110767884Y-96271502D01*
X110784360Y-96289680D01*
X110798975Y-96309386D01*
X110811587Y-96330429D01*
X110822077Y-96352608D01*
X110830342Y-96375707D01*
X110836303Y-96399506D01*
X110839903Y-96423774D01*
X110841107Y-96448278D01*
X110841107Y-97098280D01*
X110839903Y-97122784D01*
X110836303Y-97147052D01*
X110830342Y-97170851D01*
X110822077Y-97193950D01*
X110811587Y-97216129D01*
X110798975Y-97237172D01*
X110784360Y-97256878D01*
X110767884Y-97275056D01*
X110749706Y-97291532D01*
X110730000Y-97306147D01*
X110708957Y-97318759D01*
X110686778Y-97329249D01*
X110663679Y-97337514D01*
X110639880Y-97343475D01*
X110615612Y-97347075D01*
X110591108Y-97348279D01*
X109691106Y-97348279D01*
X109666602Y-97347075D01*
X109642334Y-97343475D01*
X109618535Y-97337514D01*
X109595436Y-97329249D01*
X109573257Y-97318759D01*
X109552214Y-97306147D01*
X109532508Y-97291532D01*
X109514330Y-97275056D01*
X109497854Y-97256878D01*
X109483239Y-97237172D01*
X109470627Y-97216129D01*
X109460137Y-97193950D01*
X109451872Y-97170851D01*
X109445911Y-97147052D01*
X109442311Y-97122784D01*
X109441107Y-97098280D01*
X109441107Y-96448278D01*
X109442311Y-96423774D01*
X109445911Y-96399506D01*
X109451872Y-96375707D01*
X109460137Y-96352608D01*
X109470627Y-96330429D01*
X109483239Y-96309386D01*
X109497854Y-96289680D01*
X109514330Y-96271502D01*
X109532508Y-96255026D01*
X109552214Y-96240411D01*
X109573257Y-96227799D01*
X109595436Y-96217309D01*
X109618535Y-96209044D01*
X109642334Y-96203083D01*
X109666602Y-96199483D01*
X109691106Y-96198279D01*
X110591108Y-96198279D01*
X110615612Y-96199483D01*
X110615612Y-96199483D01*
G37*
D14*
G04 #@! TD*
G04 #@! TO.P,R7,1*
G04 #@! TO.N,/3V3DC*
X110141107Y-96773279D03*
D10*
G04 #@! TO.N,/U-D*
G04 #@! TO.C,R8*
G36*
X110615612Y-92017483D02*
X110639880Y-92021083D01*
X110663679Y-92027044D01*
X110686778Y-92035309D01*
X110708957Y-92045799D01*
X110730000Y-92058411D01*
X110749706Y-92073026D01*
X110767884Y-92089502D01*
X110784360Y-92107680D01*
X110798975Y-92127386D01*
X110811587Y-92148429D01*
X110822077Y-92170608D01*
X110830342Y-92193707D01*
X110836303Y-92217506D01*
X110839903Y-92241774D01*
X110841107Y-92266278D01*
X110841107Y-92916280D01*
X110839903Y-92940784D01*
X110836303Y-92965052D01*
X110830342Y-92988851D01*
X110822077Y-93011950D01*
X110811587Y-93034129D01*
X110798975Y-93055172D01*
X110784360Y-93074878D01*
X110767884Y-93093056D01*
X110749706Y-93109532D01*
X110730000Y-93124147D01*
X110708957Y-93136759D01*
X110686778Y-93147249D01*
X110663679Y-93155514D01*
X110639880Y-93161475D01*
X110615612Y-93165075D01*
X110591108Y-93166279D01*
X109691106Y-93166279D01*
X109666602Y-93165075D01*
X109642334Y-93161475D01*
X109618535Y-93155514D01*
X109595436Y-93147249D01*
X109573257Y-93136759D01*
X109552214Y-93124147D01*
X109532508Y-93109532D01*
X109514330Y-93093056D01*
X109497854Y-93074878D01*
X109483239Y-93055172D01*
X109470627Y-93034129D01*
X109460137Y-93011950D01*
X109451872Y-92988851D01*
X109445911Y-92965052D01*
X109442311Y-92940784D01*
X109441107Y-92916280D01*
X109441107Y-92266278D01*
X109442311Y-92241774D01*
X109445911Y-92217506D01*
X109451872Y-92193707D01*
X109460137Y-92170608D01*
X109470627Y-92148429D01*
X109483239Y-92127386D01*
X109497854Y-92107680D01*
X109514330Y-92089502D01*
X109532508Y-92073026D01*
X109552214Y-92058411D01*
X109573257Y-92045799D01*
X109595436Y-92035309D01*
X109618535Y-92027044D01*
X109642334Y-92021083D01*
X109666602Y-92017483D01*
X109691106Y-92016279D01*
X110591108Y-92016279D01*
X110615612Y-92017483D01*
X110615612Y-92017483D01*
G37*
D14*
G04 #@! TD*
G04 #@! TO.P,R8,1*
G04 #@! TO.N,/U-D*
X110141107Y-92591279D03*
D10*
G04 #@! TO.N,GND*
G04 #@! TO.C,R8*
G36*
X110615612Y-89967483D02*
X110639880Y-89971083D01*
X110663679Y-89977044D01*
X110686778Y-89985309D01*
X110708957Y-89995799D01*
X110730000Y-90008411D01*
X110749706Y-90023026D01*
X110767884Y-90039502D01*
X110784360Y-90057680D01*
X110798975Y-90077386D01*
X110811587Y-90098429D01*
X110822077Y-90120608D01*
X110830342Y-90143707D01*
X110836303Y-90167506D01*
X110839903Y-90191774D01*
X110841107Y-90216278D01*
X110841107Y-90866280D01*
X110839903Y-90890784D01*
X110836303Y-90915052D01*
X110830342Y-90938851D01*
X110822077Y-90961950D01*
X110811587Y-90984129D01*
X110798975Y-91005172D01*
X110784360Y-91024878D01*
X110767884Y-91043056D01*
X110749706Y-91059532D01*
X110730000Y-91074147D01*
X110708957Y-91086759D01*
X110686778Y-91097249D01*
X110663679Y-91105514D01*
X110639880Y-91111475D01*
X110615612Y-91115075D01*
X110591108Y-91116279D01*
X109691106Y-91116279D01*
X109666602Y-91115075D01*
X109642334Y-91111475D01*
X109618535Y-91105514D01*
X109595436Y-91097249D01*
X109573257Y-91086759D01*
X109552214Y-91074147D01*
X109532508Y-91059532D01*
X109514330Y-91043056D01*
X109497854Y-91024878D01*
X109483239Y-91005172D01*
X109470627Y-90984129D01*
X109460137Y-90961950D01*
X109451872Y-90938851D01*
X109445911Y-90915052D01*
X109442311Y-90890784D01*
X109441107Y-90866280D01*
X109441107Y-90216278D01*
X109442311Y-90191774D01*
X109445911Y-90167506D01*
X109451872Y-90143707D01*
X109460137Y-90120608D01*
X109470627Y-90098429D01*
X109483239Y-90077386D01*
X109497854Y-90057680D01*
X109514330Y-90039502D01*
X109532508Y-90023026D01*
X109552214Y-90008411D01*
X109573257Y-89995799D01*
X109595436Y-89985309D01*
X109618535Y-89977044D01*
X109642334Y-89971083D01*
X109666602Y-89967483D01*
X109691106Y-89966279D01*
X110591108Y-89966279D01*
X110615612Y-89967483D01*
X110615612Y-89967483D01*
G37*
D14*
G04 #@! TD*
G04 #@! TO.P,R8,2*
G04 #@! TO.N,GND*
X110141107Y-90541279D03*
D10*
G04 #@! TO.N,/SELB*
G04 #@! TO.C,R9*
G36*
X110615612Y-86157483D02*
X110639880Y-86161083D01*
X110663679Y-86167044D01*
X110686778Y-86175309D01*
X110708957Y-86185799D01*
X110730000Y-86198411D01*
X110749706Y-86213026D01*
X110767884Y-86229502D01*
X110784360Y-86247680D01*
X110798975Y-86267386D01*
X110811587Y-86288429D01*
X110822077Y-86310608D01*
X110830342Y-86333707D01*
X110836303Y-86357506D01*
X110839903Y-86381774D01*
X110841107Y-86406278D01*
X110841107Y-87056280D01*
X110839903Y-87080784D01*
X110836303Y-87105052D01*
X110830342Y-87128851D01*
X110822077Y-87151950D01*
X110811587Y-87174129D01*
X110798975Y-87195172D01*
X110784360Y-87214878D01*
X110767884Y-87233056D01*
X110749706Y-87249532D01*
X110730000Y-87264147D01*
X110708957Y-87276759D01*
X110686778Y-87287249D01*
X110663679Y-87295514D01*
X110639880Y-87301475D01*
X110615612Y-87305075D01*
X110591108Y-87306279D01*
X109691106Y-87306279D01*
X109666602Y-87305075D01*
X109642334Y-87301475D01*
X109618535Y-87295514D01*
X109595436Y-87287249D01*
X109573257Y-87276759D01*
X109552214Y-87264147D01*
X109532508Y-87249532D01*
X109514330Y-87233056D01*
X109497854Y-87214878D01*
X109483239Y-87195172D01*
X109470627Y-87174129D01*
X109460137Y-87151950D01*
X109451872Y-87128851D01*
X109445911Y-87105052D01*
X109442311Y-87080784D01*
X109441107Y-87056280D01*
X109441107Y-86406278D01*
X109442311Y-86381774D01*
X109445911Y-86357506D01*
X109451872Y-86333707D01*
X109460137Y-86310608D01*
X109470627Y-86288429D01*
X109483239Y-86267386D01*
X109497854Y-86247680D01*
X109514330Y-86229502D01*
X109532508Y-86213026D01*
X109552214Y-86198411D01*
X109573257Y-86185799D01*
X109595436Y-86175309D01*
X109618535Y-86167044D01*
X109642334Y-86161083D01*
X109666602Y-86157483D01*
X109691106Y-86156279D01*
X110591108Y-86156279D01*
X110615612Y-86157483D01*
X110615612Y-86157483D01*
G37*
D14*
G04 #@! TD*
G04 #@! TO.P,R9,2*
G04 #@! TO.N,/SELB*
X110141107Y-86731279D03*
D10*
G04 #@! TO.N,/3V3DC*
G04 #@! TO.C,R9*
G36*
X110615612Y-88207483D02*
X110639880Y-88211083D01*
X110663679Y-88217044D01*
X110686778Y-88225309D01*
X110708957Y-88235799D01*
X110730000Y-88248411D01*
X110749706Y-88263026D01*
X110767884Y-88279502D01*
X110784360Y-88297680D01*
X110798975Y-88317386D01*
X110811587Y-88338429D01*
X110822077Y-88360608D01*
X110830342Y-88383707D01*
X110836303Y-88407506D01*
X110839903Y-88431774D01*
X110841107Y-88456278D01*
X110841107Y-89106280D01*
X110839903Y-89130784D01*
X110836303Y-89155052D01*
X110830342Y-89178851D01*
X110822077Y-89201950D01*
X110811587Y-89224129D01*
X110798975Y-89245172D01*
X110784360Y-89264878D01*
X110767884Y-89283056D01*
X110749706Y-89299532D01*
X110730000Y-89314147D01*
X110708957Y-89326759D01*
X110686778Y-89337249D01*
X110663679Y-89345514D01*
X110639880Y-89351475D01*
X110615612Y-89355075D01*
X110591108Y-89356279D01*
X109691106Y-89356279D01*
X109666602Y-89355075D01*
X109642334Y-89351475D01*
X109618535Y-89345514D01*
X109595436Y-89337249D01*
X109573257Y-89326759D01*
X109552214Y-89314147D01*
X109532508Y-89299532D01*
X109514330Y-89283056D01*
X109497854Y-89264878D01*
X109483239Y-89245172D01*
X109470627Y-89224129D01*
X109460137Y-89201950D01*
X109451872Y-89178851D01*
X109445911Y-89155052D01*
X109442311Y-89130784D01*
X109441107Y-89106280D01*
X109441107Y-88456278D01*
X109442311Y-88431774D01*
X109445911Y-88407506D01*
X109451872Y-88383707D01*
X109460137Y-88360608D01*
X109470627Y-88338429D01*
X109483239Y-88317386D01*
X109497854Y-88297680D01*
X109514330Y-88279502D01*
X109532508Y-88263026D01*
X109552214Y-88248411D01*
X109573257Y-88235799D01*
X109595436Y-88225309D01*
X109618535Y-88217044D01*
X109642334Y-88211083D01*
X109666602Y-88207483D01*
X109691106Y-88206279D01*
X110591108Y-88206279D01*
X110615612Y-88207483D01*
X110615612Y-88207483D01*
G37*
D14*
G04 #@! TD*
G04 #@! TO.P,R9,1*
G04 #@! TO.N,/3V3DC*
X110141107Y-88781279D03*
D10*
G04 #@! TO.N,/SELB*
G04 #@! TO.C,R10*
G36*
X108551505Y-86158204D02*
X108575773Y-86161804D01*
X108599572Y-86167765D01*
X108622671Y-86176030D01*
X108644850Y-86186520D01*
X108665893Y-86199132D01*
X108685599Y-86213747D01*
X108703777Y-86230223D01*
X108720253Y-86248401D01*
X108734868Y-86268107D01*
X108747480Y-86289150D01*
X108757970Y-86311329D01*
X108766235Y-86334428D01*
X108772196Y-86358227D01*
X108775796Y-86382495D01*
X108777000Y-86406999D01*
X108777000Y-87057001D01*
X108775796Y-87081505D01*
X108772196Y-87105773D01*
X108766235Y-87129572D01*
X108757970Y-87152671D01*
X108747480Y-87174850D01*
X108734868Y-87195893D01*
X108720253Y-87215599D01*
X108703777Y-87233777D01*
X108685599Y-87250253D01*
X108665893Y-87264868D01*
X108644850Y-87277480D01*
X108622671Y-87287970D01*
X108599572Y-87296235D01*
X108575773Y-87302196D01*
X108551505Y-87305796D01*
X108527001Y-87307000D01*
X107626999Y-87307000D01*
X107602495Y-87305796D01*
X107578227Y-87302196D01*
X107554428Y-87296235D01*
X107531329Y-87287970D01*
X107509150Y-87277480D01*
X107488107Y-87264868D01*
X107468401Y-87250253D01*
X107450223Y-87233777D01*
X107433747Y-87215599D01*
X107419132Y-87195893D01*
X107406520Y-87174850D01*
X107396030Y-87152671D01*
X107387765Y-87129572D01*
X107381804Y-87105773D01*
X107378204Y-87081505D01*
X107377000Y-87057001D01*
X107377000Y-86406999D01*
X107378204Y-86382495D01*
X107381804Y-86358227D01*
X107387765Y-86334428D01*
X107396030Y-86311329D01*
X107406520Y-86289150D01*
X107419132Y-86268107D01*
X107433747Y-86248401D01*
X107450223Y-86230223D01*
X107468401Y-86213747D01*
X107488107Y-86199132D01*
X107509150Y-86186520D01*
X107531329Y-86176030D01*
X107554428Y-86167765D01*
X107578227Y-86161804D01*
X107602495Y-86158204D01*
X107626999Y-86157000D01*
X108527001Y-86157000D01*
X108551505Y-86158204D01*
X108551505Y-86158204D01*
G37*
D14*
G04 #@! TD*
G04 #@! TO.P,R10,1*
G04 #@! TO.N,/SELB*
X108077000Y-86732000D03*
D10*
G04 #@! TO.N,GND*
G04 #@! TO.C,R10*
G36*
X108551505Y-88208204D02*
X108575773Y-88211804D01*
X108599572Y-88217765D01*
X108622671Y-88226030D01*
X108644850Y-88236520D01*
X108665893Y-88249132D01*
X108685599Y-88263747D01*
X108703777Y-88280223D01*
X108720253Y-88298401D01*
X108734868Y-88318107D01*
X108747480Y-88339150D01*
X108757970Y-88361329D01*
X108766235Y-88384428D01*
X108772196Y-88408227D01*
X108775796Y-88432495D01*
X108777000Y-88456999D01*
X108777000Y-89107001D01*
X108775796Y-89131505D01*
X108772196Y-89155773D01*
X108766235Y-89179572D01*
X108757970Y-89202671D01*
X108747480Y-89224850D01*
X108734868Y-89245893D01*
X108720253Y-89265599D01*
X108703777Y-89283777D01*
X108685599Y-89300253D01*
X108665893Y-89314868D01*
X108644850Y-89327480D01*
X108622671Y-89337970D01*
X108599572Y-89346235D01*
X108575773Y-89352196D01*
X108551505Y-89355796D01*
X108527001Y-89357000D01*
X107626999Y-89357000D01*
X107602495Y-89355796D01*
X107578227Y-89352196D01*
X107554428Y-89346235D01*
X107531329Y-89337970D01*
X107509150Y-89327480D01*
X107488107Y-89314868D01*
X107468401Y-89300253D01*
X107450223Y-89283777D01*
X107433747Y-89265599D01*
X107419132Y-89245893D01*
X107406520Y-89224850D01*
X107396030Y-89202671D01*
X107387765Y-89179572D01*
X107381804Y-89155773D01*
X107378204Y-89131505D01*
X107377000Y-89107001D01*
X107377000Y-88456999D01*
X107378204Y-88432495D01*
X107381804Y-88408227D01*
X107387765Y-88384428D01*
X107396030Y-88361329D01*
X107406520Y-88339150D01*
X107419132Y-88318107D01*
X107433747Y-88298401D01*
X107450223Y-88280223D01*
X107468401Y-88263747D01*
X107488107Y-88249132D01*
X107509150Y-88236520D01*
X107531329Y-88226030D01*
X107554428Y-88217765D01*
X107578227Y-88211804D01*
X107602495Y-88208204D01*
X107626999Y-88207000D01*
X108527001Y-88207000D01*
X108551505Y-88208204D01*
X108551505Y-88208204D01*
G37*
D14*
G04 #@! TD*
G04 #@! TO.P,R10,2*
G04 #@! TO.N,GND*
X108077000Y-88782000D03*
D15*
G04 #@! TO.N,GND*
X118491000Y-92329000D03*
X126492000Y-93980000D03*
X126619000Y-95377000D03*
X132207000Y-90424000D03*
X137287000Y-97790000D03*
X130302000Y-99695000D03*
X112014000Y-85090000D03*
X112141000Y-83693000D03*
X112014000Y-82169000D03*
X140970000Y-88900000D03*
X145923000Y-94361000D03*
X148082000Y-94234000D03*
X148844000Y-97155000D03*
X146431000Y-99441000D03*
X111696500Y-86614000D03*
X111760000Y-88138000D03*
X115062000Y-90106500D03*
X114808000Y-92329000D03*
X115062000Y-79502000D03*
X125095000Y-85471000D03*
X155829000Y-88074500D03*
X109133301Y-89747455D03*
G04 #@! TO.N,/3V3DC*
X119888000Y-83312000D03*
X121285000Y-83312000D03*
X122682000Y-83312000D03*
X119888000Y-84582000D03*
X121285000Y-84582000D03*
X122682000Y-84582000D03*
X115091698Y-77343000D03*
X111887000Y-77978000D03*
X122936000Y-94742000D03*
X111887000Y-96202500D03*
X109093000Y-85407500D03*
G04 #@! TO.N,Net-(C9-Pad2)*
X129794000Y-96774000D03*
X138049000Y-93027500D03*
G04 #@! TO.N,/U-D*
X111125000Y-93726000D03*
G04 #@! TO.N,/L-R*
X108839000Y-93662500D03*
G04 #@! TO.N,Net-(J1-Pad31)*
X154615846Y-94290846D03*
X116463653Y-96515347D03*
G04 #@! TO.N,/9.6VDC*
X153098500Y-95567500D03*
G04 #@! TO.N,/SELB*
X109156500Y-87376000D03*
G04 #@! TO.N,/STBYB*
X111181949Y-81199701D03*
G04 #@! TO.N,/RST*
X109029500Y-81280000D03*
G04 #@! TD*
D16*
G04 #@! TO.N,GND*
X116268500Y-90106500D02*
X115062000Y-90106500D01*
X118491000Y-92329000D02*
X116268500Y-90106500D01*
X115373685Y-92329000D02*
X118491000Y-92329000D01*
X114808000Y-92329000D02*
X115373685Y-92329000D01*
X108893931Y-89747455D02*
X108109107Y-90532279D01*
X109133301Y-89747455D02*
X108893931Y-89747455D01*
X109347283Y-89747455D02*
X110141107Y-90541279D01*
X109133301Y-89747455D02*
X109347283Y-89747455D01*
G04 #@! TO.N,/3V3DC*
X113501500Y-75655500D02*
X113538000Y-75619000D01*
X111252000Y-75655500D02*
X113501500Y-75655500D01*
X113538000Y-75789302D02*
X115091698Y-77343000D01*
X113538000Y-75619000D02*
X113538000Y-75789302D01*
X111252000Y-75655500D02*
X111252000Y-77343000D01*
X111252000Y-77343000D02*
X111887000Y-77978000D01*
X120885001Y-84981999D02*
X121285000Y-84582000D01*
X120885001Y-92691001D02*
X120885001Y-84981999D01*
X122936000Y-94742000D02*
X120885001Y-92691001D01*
X108118107Y-96773279D02*
X108109107Y-96782279D01*
X110141107Y-96773279D02*
X108118107Y-96773279D01*
X108127107Y-84390779D02*
X108109107Y-84408779D01*
X110764479Y-96149907D02*
X110141107Y-96773279D01*
X111850001Y-95064385D02*
X110764479Y-96149907D01*
X110141107Y-88781279D02*
X111850001Y-90490173D01*
X109138500Y-84408779D02*
X108250221Y-84408779D01*
X109156500Y-84390779D02*
X109138500Y-84408779D01*
X109156500Y-84390779D02*
X108127107Y-84390779D01*
X110141107Y-84390779D02*
X109156500Y-84390779D01*
X111850001Y-96165501D02*
X111887000Y-96202500D01*
X111850001Y-94869000D02*
X111850001Y-96165501D01*
X111850001Y-94869000D02*
X111850001Y-95064385D01*
X111850001Y-90490173D02*
X111850001Y-94869000D01*
D17*
X118237000Y-78693000D02*
X119253000Y-79709000D01*
X118237000Y-77343000D02*
X118237000Y-78693000D01*
D16*
X108109107Y-84408779D02*
X108109107Y-84423607D01*
X108109107Y-84423607D02*
X109093000Y-85407500D01*
X117910000Y-75619000D02*
X113538000Y-75619000D01*
X118237000Y-75946000D02*
X117910000Y-75619000D01*
D17*
X118237000Y-75946000D02*
X118237000Y-77343000D01*
X118237000Y-74803000D02*
X118237000Y-75946000D01*
D16*
G04 #@! TO.N,Net-(C9-Pad2)*
X129794000Y-96774000D02*
X134302500Y-96774000D01*
X134302500Y-96774000D02*
X138049000Y-93027500D01*
G04 #@! TO.N,/U-D*
X110141107Y-94723279D02*
X110141107Y-94709893D01*
X110141107Y-94709893D02*
X111125000Y-93726000D01*
X110141107Y-92742107D02*
X111125000Y-93726000D01*
X110141107Y-92591279D02*
X110141107Y-92742107D01*
G04 #@! TO.N,/L-R*
X108109107Y-94732279D02*
X108109107Y-94392393D01*
X108109107Y-94392393D02*
X108839000Y-93662500D01*
X108109107Y-92932607D02*
X108839000Y-93662500D01*
X108109107Y-92582279D02*
X108109107Y-92932607D01*
G04 #@! TO.N,Net-(J1-Pad31)*
X152781156Y-94290846D02*
X154615846Y-94290846D01*
X142614502Y-104457500D02*
X152781156Y-94290846D01*
X129921000Y-102489998D02*
X129921000Y-103695500D01*
X129921000Y-103695500D02*
X130683000Y-104457500D01*
X130683000Y-104457500D02*
X142614502Y-104457500D01*
X121294306Y-101346000D02*
X120459500Y-100511194D01*
X128777002Y-101346000D02*
X121294306Y-101346000D01*
X116463653Y-96515347D02*
X120459500Y-100511194D01*
X128777002Y-101346000D02*
X129921000Y-102489998D01*
G04 #@! TO.N,/9.6VDC*
X143573500Y-105092500D02*
X153098500Y-95567500D01*
X129138500Y-105092500D02*
X143573500Y-105092500D01*
X128016000Y-102870000D02*
X128016000Y-103970000D01*
X128016000Y-103970000D02*
X129138500Y-105092500D01*
G04 #@! TO.N,/SELB*
X108077721Y-86731279D02*
X108077000Y-86732000D01*
X109220000Y-87312500D02*
X109156500Y-87376000D01*
X109220000Y-86731279D02*
X109220000Y-87312500D01*
X109220000Y-86731279D02*
X108077721Y-86731279D01*
X110141107Y-86731279D02*
X109220000Y-86731279D01*
G04 #@! TO.N,/STBYB*
X111165150Y-81216500D02*
X111181949Y-81199701D01*
X110141107Y-81216500D02*
X111165150Y-81216500D01*
X110141107Y-81216500D02*
X110141107Y-80199779D01*
X110141107Y-82340779D02*
X110141107Y-81216500D01*
G04 #@! TO.N,/RST*
X108966000Y-81216500D02*
X109029500Y-81280000D01*
X108109107Y-81216500D02*
X108966000Y-81216500D01*
X108109107Y-81216500D02*
X108109107Y-80199779D01*
X108109107Y-82358779D02*
X108109107Y-81216500D01*
G04 #@! TD*
D18*
G04 #@! TO.N,GND*
G36*
X151881835Y-65682256D02*
X151958038Y-65692831D01*
X152929318Y-65776114D01*
X153822488Y-65992210D01*
X154672690Y-66340918D01*
X155460365Y-66814219D01*
X156167385Y-67401217D01*
X156777477Y-68088402D01*
X157276608Y-68859969D01*
X157653288Y-69698156D01*
X157896384Y-70574782D01*
X158449220Y-101601526D01*
X158289789Y-102260491D01*
X157941081Y-103110691D01*
X157467780Y-103898366D01*
X156880785Y-104605383D01*
X156193596Y-105215478D01*
X155422033Y-105714607D01*
X154583843Y-106091289D01*
X153698331Y-106336849D01*
X152767584Y-106447819D01*
X152451228Y-106453102D01*
X152340208Y-106463415D01*
X152281739Y-106478000D01*
X112956283Y-106478000D01*
X112913165Y-106466244D01*
X112836961Y-106455669D01*
X111865682Y-106372386D01*
X110972510Y-106156290D01*
X110122310Y-105807582D01*
X109334635Y-105334281D01*
X108627618Y-104747286D01*
X108017523Y-104060097D01*
X107518394Y-103288534D01*
X107141712Y-102450344D01*
X106896152Y-101564832D01*
X106785182Y-100634085D01*
X106779899Y-100317729D01*
X106769586Y-100206709D01*
X106757330Y-100157575D01*
X106795244Y-97276084D01*
X106829980Y-97450715D01*
X107024521Y-97741865D01*
X107315671Y-97936406D01*
X107659106Y-98004719D01*
X108559108Y-98004719D01*
X108902543Y-97936406D01*
X109131842Y-97783193D01*
X109347671Y-97927406D01*
X109691106Y-97995719D01*
X110591108Y-97995719D01*
X110934543Y-97927406D01*
X111225693Y-97732865D01*
X111420234Y-97441715D01*
X111477622Y-97153206D01*
X111681126Y-97237500D01*
X112092874Y-97237500D01*
X112473280Y-97079931D01*
X112764431Y-96788780D01*
X112922000Y-96408374D01*
X112922000Y-95996626D01*
X112764431Y-95616220D01*
X112610001Y-95461790D01*
X112610001Y-95139232D01*
X112624889Y-95064385D01*
X112610001Y-94989538D01*
X112610001Y-90565019D01*
X112624889Y-90490172D01*
X112610001Y-90415325D01*
X112610001Y-90415321D01*
X112565905Y-90193636D01*
X112397930Y-89942244D01*
X112334474Y-89899844D01*
X111488547Y-89053918D01*
X111488547Y-88456278D01*
X111420234Y-88112843D01*
X111225693Y-87821693D01*
X111127794Y-87756279D01*
X111225693Y-87690865D01*
X111420234Y-87399715D01*
X111488547Y-87056280D01*
X111488547Y-86406278D01*
X111420234Y-86062843D01*
X111225693Y-85771693D01*
X110934543Y-85577152D01*
X110853487Y-85561029D01*
X110934543Y-85544906D01*
X111225693Y-85350365D01*
X111420234Y-85059215D01*
X111488547Y-84715780D01*
X111488547Y-84065778D01*
X111420234Y-83722343D01*
X111225693Y-83431193D01*
X111127794Y-83365779D01*
X111225693Y-83300365D01*
X111420234Y-83009215D01*
X111488547Y-82665780D01*
X111488547Y-82192980D01*
X111768229Y-82077132D01*
X112059380Y-81785981D01*
X112216949Y-81405575D01*
X112216949Y-80993827D01*
X112059380Y-80613421D01*
X111768229Y-80322270D01*
X111488547Y-80206422D01*
X111488547Y-79874778D01*
X111420234Y-79531343D01*
X111225693Y-79240193D01*
X111224510Y-79239402D01*
X111379434Y-79084477D01*
X111448887Y-78916804D01*
X111681126Y-79013000D01*
X112092874Y-79013000D01*
X112473280Y-78855431D01*
X112764431Y-78564280D01*
X112922000Y-78183874D01*
X112922000Y-77772126D01*
X112764431Y-77391720D01*
X112473280Y-77100569D01*
X112140987Y-76962929D01*
X112220435Y-76947126D01*
X112422313Y-76812236D01*
X112569565Y-76910626D01*
X112913000Y-76978940D01*
X113652837Y-76978940D01*
X114056698Y-77382802D01*
X114056698Y-77548874D01*
X114214267Y-77929280D01*
X114505418Y-78220431D01*
X114885824Y-78378000D01*
X115297572Y-78378000D01*
X115677978Y-78220431D01*
X115969129Y-77929280D01*
X116126698Y-77548874D01*
X116126698Y-77137126D01*
X115969129Y-76756720D01*
X115677978Y-76465569D01*
X115468982Y-76379000D01*
X116173155Y-76379000D01*
X115951043Y-95369574D01*
X115991655Y-95590579D01*
X115877373Y-95637916D01*
X115586222Y-95929067D01*
X115428653Y-96309473D01*
X115428653Y-96721221D01*
X115586222Y-97101627D01*
X115877373Y-97392778D01*
X116257779Y-97550347D01*
X116423852Y-97550347D01*
X119975027Y-101101523D01*
X119975030Y-101101525D01*
X120703976Y-101830472D01*
X120746377Y-101893929D01*
X120997769Y-102061904D01*
X121219454Y-102106000D01*
X121219459Y-102106000D01*
X121294306Y-102120888D01*
X121369153Y-102106000D01*
X124200495Y-102106000D01*
X124077161Y-102290582D01*
X123961908Y-102870000D01*
X124077161Y-103449418D01*
X124405375Y-103940625D01*
X124896582Y-104268839D01*
X125329744Y-104355000D01*
X125622256Y-104355000D01*
X126055418Y-104268839D01*
X126546625Y-103940625D01*
X126558816Y-103922381D01*
X126567843Y-103967765D01*
X126708191Y-104177809D01*
X126918235Y-104318157D01*
X127166000Y-104367440D01*
X127367518Y-104367440D01*
X127424960Y-104453407D01*
X127468072Y-104517929D01*
X127531528Y-104560329D01*
X128548171Y-105576973D01*
X128590571Y-105640429D01*
X128654027Y-105682829D01*
X128841962Y-105808404D01*
X128871101Y-105814200D01*
X129063648Y-105852500D01*
X129063652Y-105852500D01*
X129138500Y-105867388D01*
X129213348Y-105852500D01*
X143498653Y-105852500D01*
X143573500Y-105867388D01*
X143648347Y-105852500D01*
X143648352Y-105852500D01*
X143870037Y-105808404D01*
X144121429Y-105640429D01*
X144163831Y-105576970D01*
X153138302Y-96602500D01*
X153304374Y-96602500D01*
X153684780Y-96444931D01*
X153975931Y-96153780D01*
X154133500Y-95773374D01*
X154133500Y-95361626D01*
X154058351Y-95180200D01*
X154409972Y-95325846D01*
X154821720Y-95325846D01*
X155202126Y-95168277D01*
X155493277Y-94877126D01*
X155650846Y-94496720D01*
X155650846Y-94084972D01*
X155493277Y-93704566D01*
X155202126Y-93413415D01*
X154821720Y-93255846D01*
X154409972Y-93255846D01*
X154029566Y-93413415D01*
X153912135Y-93530846D01*
X152856003Y-93530846D01*
X152781156Y-93515958D01*
X152706309Y-93530846D01*
X152706304Y-93530846D01*
X152484619Y-93574942D01*
X152233227Y-93742917D01*
X152190827Y-93806373D01*
X142299701Y-103697500D01*
X141959440Y-103697500D01*
X141959440Y-102020000D01*
X141910157Y-101772235D01*
X141769809Y-101562191D01*
X141559765Y-101421843D01*
X141312000Y-101372560D01*
X139612000Y-101372560D01*
X139364235Y-101421843D01*
X139154191Y-101562191D01*
X139013843Y-101772235D01*
X139004816Y-101817619D01*
X138992625Y-101799375D01*
X138501418Y-101471161D01*
X138068256Y-101385000D01*
X137775744Y-101385000D01*
X137342582Y-101471161D01*
X136851375Y-101799375D01*
X136523161Y-102290582D01*
X136407908Y-102870000D01*
X136523161Y-103449418D01*
X136688924Y-103697500D01*
X135736440Y-103697500D01*
X135736440Y-102020000D01*
X135687157Y-101772235D01*
X135546809Y-101562191D01*
X135336765Y-101421843D01*
X135089000Y-101372560D01*
X133389000Y-101372560D01*
X133141235Y-101421843D01*
X132931191Y-101562191D01*
X132790843Y-101772235D01*
X132781816Y-101817619D01*
X132769625Y-101799375D01*
X132278418Y-101471161D01*
X131845256Y-101385000D01*
X131552744Y-101385000D01*
X131119582Y-101471161D01*
X130628375Y-101799375D01*
X130500979Y-101990036D01*
X130468929Y-101942069D01*
X130405476Y-101899671D01*
X129367333Y-100861530D01*
X129324931Y-100798071D01*
X129073539Y-100630096D01*
X128851854Y-100586000D01*
X128851849Y-100586000D01*
X128777002Y-100571112D01*
X128702155Y-100586000D01*
X121609108Y-100586000D01*
X121049831Y-100026724D01*
X121049829Y-100026721D01*
X117591234Y-96568126D01*
X128759000Y-96568126D01*
X128759000Y-96979874D01*
X128916569Y-97360280D01*
X129207720Y-97651431D01*
X129588126Y-97809000D01*
X129999874Y-97809000D01*
X130380280Y-97651431D01*
X130497711Y-97534000D01*
X134227653Y-97534000D01*
X134302500Y-97548888D01*
X134377347Y-97534000D01*
X134377352Y-97534000D01*
X134599037Y-97489904D01*
X134850429Y-97321929D01*
X134892831Y-97258470D01*
X138088802Y-94062500D01*
X138254874Y-94062500D01*
X138635280Y-93904931D01*
X138926431Y-93613780D01*
X139084000Y-93233374D01*
X139084000Y-92821626D01*
X138926431Y-92441220D01*
X138635280Y-92150069D01*
X138254874Y-91992500D01*
X137843126Y-91992500D01*
X137462720Y-92150069D01*
X137171569Y-92441220D01*
X137014000Y-92821626D01*
X137014000Y-92987698D01*
X133987699Y-96014000D01*
X130497711Y-96014000D01*
X130380280Y-95896569D01*
X129999874Y-95739000D01*
X129588126Y-95739000D01*
X129207720Y-95896569D01*
X128916569Y-96187720D01*
X128759000Y-96568126D01*
X117591234Y-96568126D01*
X117498653Y-96475546D01*
X117498653Y-96309473D01*
X117381255Y-96026049D01*
X123813861Y-96138902D01*
X124073425Y-96088388D01*
X124278151Y-95948836D01*
X124413888Y-95741562D01*
X124459973Y-95498121D01*
X124332973Y-81782121D01*
X124254240Y-81481696D01*
X124094681Y-81292148D01*
X120526779Y-78437827D01*
X120571653Y-74803000D01*
X121802908Y-74803000D01*
X121918161Y-75382418D01*
X122246375Y-75873625D01*
X122544761Y-76073000D01*
X122246375Y-76272375D01*
X121918161Y-76763582D01*
X121802908Y-77343000D01*
X121918161Y-77922418D01*
X122246375Y-78413625D01*
X122737582Y-78741839D01*
X123170744Y-78828000D01*
X123463256Y-78828000D01*
X123896418Y-78741839D01*
X124387625Y-78413625D01*
X124715839Y-77922418D01*
X124831092Y-77343000D01*
X126882908Y-77343000D01*
X126998161Y-77922418D01*
X127326375Y-78413625D01*
X127817582Y-78741839D01*
X128250744Y-78828000D01*
X128543256Y-78828000D01*
X128976418Y-78741839D01*
X129467625Y-78413625D01*
X129667000Y-78115239D01*
X129866375Y-78413625D01*
X130357582Y-78741839D01*
X130790744Y-78828000D01*
X131083256Y-78828000D01*
X131516418Y-78741839D01*
X132007625Y-78413625D01*
X132335839Y-77922418D01*
X132451092Y-77343000D01*
X134502908Y-77343000D01*
X134618161Y-77922418D01*
X134946375Y-78413625D01*
X135437582Y-78741839D01*
X135870744Y-78828000D01*
X136163256Y-78828000D01*
X136596418Y-78741839D01*
X137087625Y-78413625D01*
X137287000Y-78115239D01*
X137486375Y-78413625D01*
X137977582Y-78741839D01*
X138410744Y-78828000D01*
X138703256Y-78828000D01*
X139136418Y-78741839D01*
X139627625Y-78413625D01*
X139827000Y-78115239D01*
X140026375Y-78413625D01*
X140517582Y-78741839D01*
X140950744Y-78828000D01*
X141243256Y-78828000D01*
X141676418Y-78741839D01*
X142167625Y-78413625D01*
X142495839Y-77922418D01*
X142611092Y-77343000D01*
X142495839Y-76763582D01*
X142167625Y-76272375D01*
X141676418Y-75944161D01*
X141243256Y-75858000D01*
X140950744Y-75858000D01*
X140517582Y-75944161D01*
X140026375Y-76272375D01*
X139827000Y-76570761D01*
X139627625Y-76272375D01*
X139329239Y-76073000D01*
X139627625Y-75873625D01*
X139955839Y-75382418D01*
X140071092Y-74803000D01*
X139955839Y-74223582D01*
X139627625Y-73732375D01*
X139136418Y-73404161D01*
X138703256Y-73318000D01*
X138410744Y-73318000D01*
X137977582Y-73404161D01*
X137486375Y-73732375D01*
X137158161Y-74223582D01*
X137042908Y-74803000D01*
X137158161Y-75382418D01*
X137486375Y-75873625D01*
X137784761Y-76073000D01*
X137486375Y-76272375D01*
X137287000Y-76570761D01*
X137087625Y-76272375D01*
X136596418Y-75944161D01*
X136163256Y-75858000D01*
X135870744Y-75858000D01*
X135437582Y-75944161D01*
X134946375Y-76272375D01*
X134618161Y-76763582D01*
X134502908Y-77343000D01*
X132451092Y-77343000D01*
X132335839Y-76763582D01*
X132007625Y-76272375D01*
X131709239Y-76073000D01*
X132007625Y-75873625D01*
X132207000Y-75575239D01*
X132406375Y-75873625D01*
X132897582Y-76201839D01*
X133330744Y-76288000D01*
X133623256Y-76288000D01*
X134056418Y-76201839D01*
X134547625Y-75873625D01*
X134875839Y-75382418D01*
X134991092Y-74803000D01*
X134875839Y-74223582D01*
X134547625Y-73732375D01*
X134056418Y-73404161D01*
X133623256Y-73318000D01*
X133330744Y-73318000D01*
X132897582Y-73404161D01*
X132406375Y-73732375D01*
X132207000Y-74030761D01*
X132007625Y-73732375D01*
X131516418Y-73404161D01*
X131083256Y-73318000D01*
X130790744Y-73318000D01*
X130357582Y-73404161D01*
X129866375Y-73732375D01*
X129538161Y-74223582D01*
X129422908Y-74803000D01*
X129538161Y-75382418D01*
X129866375Y-75873625D01*
X130164761Y-76073000D01*
X129866375Y-76272375D01*
X129667000Y-76570761D01*
X129467625Y-76272375D01*
X128976418Y-75944161D01*
X128543256Y-75858000D01*
X128250744Y-75858000D01*
X127817582Y-75944161D01*
X127326375Y-76272375D01*
X126998161Y-76763582D01*
X126882908Y-77343000D01*
X124831092Y-77343000D01*
X124715839Y-76763582D01*
X124387625Y-76272375D01*
X124089239Y-76073000D01*
X124387625Y-75873625D01*
X124587000Y-75575239D01*
X124786375Y-75873625D01*
X125277582Y-76201839D01*
X125710744Y-76288000D01*
X126003256Y-76288000D01*
X126436418Y-76201839D01*
X126927625Y-75873625D01*
X127255839Y-75382418D01*
X127371092Y-74803000D01*
X127255839Y-74223582D01*
X126927625Y-73732375D01*
X126436418Y-73404161D01*
X126003256Y-73318000D01*
X125710744Y-73318000D01*
X125277582Y-73404161D01*
X124786375Y-73732375D01*
X124587000Y-74030761D01*
X124387625Y-73732375D01*
X123896418Y-73404161D01*
X123463256Y-73318000D01*
X123170744Y-73318000D01*
X122737582Y-73404161D01*
X122246375Y-73732375D01*
X121918161Y-74223582D01*
X121802908Y-74803000D01*
X120571653Y-74803000D01*
X120586452Y-73604339D01*
X120533083Y-73341576D01*
X120391258Y-73138419D01*
X120182483Y-73005000D01*
X119938544Y-72961632D01*
X116827044Y-73025132D01*
X116603874Y-73070535D01*
X116396269Y-73205767D01*
X116256219Y-73410152D01*
X116205043Y-73652574D01*
X116190933Y-74859000D01*
X115001263Y-74859000D01*
X114992126Y-74813065D01*
X114797586Y-74521914D01*
X114506435Y-74327374D01*
X114163000Y-74259060D01*
X112913000Y-74259060D01*
X112569565Y-74327374D01*
X112367687Y-74462264D01*
X112220435Y-74363874D01*
X111877000Y-74295560D01*
X110627000Y-74295560D01*
X110283565Y-74363874D01*
X109992414Y-74558414D01*
X109797874Y-74849565D01*
X109729560Y-75193000D01*
X109729560Y-76118000D01*
X109797874Y-76461435D01*
X109992414Y-76752586D01*
X110283565Y-76947126D01*
X110396955Y-76969681D01*
X110268107Y-77098529D01*
X110268107Y-78022779D01*
X110288107Y-78022779D01*
X110288107Y-78276779D01*
X110268107Y-78276779D01*
X110268107Y-78296779D01*
X110014107Y-78296779D01*
X110014107Y-78276779D01*
X108236107Y-78276779D01*
X108236107Y-78296779D01*
X107982107Y-78296779D01*
X107982107Y-78276779D01*
X107962107Y-78276779D01*
X107962107Y-78022779D01*
X107982107Y-78022779D01*
X107982107Y-77098529D01*
X108236107Y-77098529D01*
X108236107Y-78022779D01*
X110014107Y-78022779D01*
X110014107Y-77098529D01*
X109855357Y-76939779D01*
X109314797Y-76939779D01*
X109125107Y-77018351D01*
X108935417Y-76939779D01*
X108394857Y-76939779D01*
X108236107Y-77098529D01*
X107982107Y-77098529D01*
X107823357Y-76939779D01*
X107282797Y-76939779D01*
X107061622Y-77031393D01*
X107115110Y-72966250D01*
X109742000Y-72966250D01*
X109742000Y-73519309D01*
X109838673Y-73752698D01*
X110017301Y-73931327D01*
X110250690Y-74028000D01*
X110966250Y-74028000D01*
X111125000Y-73869250D01*
X111125000Y-72807500D01*
X111379000Y-72807500D01*
X111379000Y-73869250D01*
X111537750Y-74028000D01*
X112253310Y-74028000D01*
X112439059Y-73951060D01*
X112536690Y-73991500D01*
X113252250Y-73991500D01*
X113411000Y-73832750D01*
X113411000Y-72771000D01*
X113665000Y-72771000D01*
X113665000Y-73832750D01*
X113823750Y-73991500D01*
X114539310Y-73991500D01*
X114772699Y-73894827D01*
X114951327Y-73716198D01*
X115048000Y-73482809D01*
X115048000Y-72929750D01*
X114889250Y-72771000D01*
X113665000Y-72771000D01*
X113411000Y-72771000D01*
X112186750Y-72771000D01*
X112150250Y-72807500D01*
X111379000Y-72807500D01*
X111125000Y-72807500D01*
X109900750Y-72807500D01*
X109742000Y-72966250D01*
X107115110Y-72966250D01*
X107129906Y-71841691D01*
X109742000Y-71841691D01*
X109742000Y-72394750D01*
X109900750Y-72553500D01*
X111125000Y-72553500D01*
X111125000Y-71491750D01*
X111379000Y-71491750D01*
X111379000Y-72553500D01*
X112603250Y-72553500D01*
X112639750Y-72517000D01*
X113411000Y-72517000D01*
X113411000Y-71455250D01*
X113665000Y-71455250D01*
X113665000Y-72517000D01*
X114889250Y-72517000D01*
X115048000Y-72358250D01*
X115048000Y-71805191D01*
X114951327Y-71571802D01*
X114772699Y-71393173D01*
X114539310Y-71296500D01*
X113823750Y-71296500D01*
X113665000Y-71455250D01*
X113411000Y-71455250D01*
X113252250Y-71296500D01*
X112536690Y-71296500D01*
X112350941Y-71373440D01*
X112253310Y-71333000D01*
X111537750Y-71333000D01*
X111379000Y-71491750D01*
X111125000Y-71491750D01*
X110966250Y-71333000D01*
X110250690Y-71333000D01*
X110017301Y-71429673D01*
X109838673Y-71608302D01*
X109742000Y-71841691D01*
X107129906Y-71841691D01*
X107198728Y-66611325D01*
X107249204Y-66308064D01*
X107364707Y-66094000D01*
X107543322Y-65928890D01*
X107778848Y-65824764D01*
X107995689Y-65797371D01*
X151840611Y-65671016D01*
X151881835Y-65682256D01*
X151881835Y-65682256D01*
G37*
X151881835Y-65682256D02*
X151958038Y-65692831D01*
X152929318Y-65776114D01*
X153822488Y-65992210D01*
X154672690Y-66340918D01*
X155460365Y-66814219D01*
X156167385Y-67401217D01*
X156777477Y-68088402D01*
X157276608Y-68859969D01*
X157653288Y-69698156D01*
X157896384Y-70574782D01*
X158449220Y-101601526D01*
X158289789Y-102260491D01*
X157941081Y-103110691D01*
X157467780Y-103898366D01*
X156880785Y-104605383D01*
X156193596Y-105215478D01*
X155422033Y-105714607D01*
X154583843Y-106091289D01*
X153698331Y-106336849D01*
X152767584Y-106447819D01*
X152451228Y-106453102D01*
X152340208Y-106463415D01*
X152281739Y-106478000D01*
X112956283Y-106478000D01*
X112913165Y-106466244D01*
X112836961Y-106455669D01*
X111865682Y-106372386D01*
X110972510Y-106156290D01*
X110122310Y-105807582D01*
X109334635Y-105334281D01*
X108627618Y-104747286D01*
X108017523Y-104060097D01*
X107518394Y-103288534D01*
X107141712Y-102450344D01*
X106896152Y-101564832D01*
X106785182Y-100634085D01*
X106779899Y-100317729D01*
X106769586Y-100206709D01*
X106757330Y-100157575D01*
X106795244Y-97276084D01*
X106829980Y-97450715D01*
X107024521Y-97741865D01*
X107315671Y-97936406D01*
X107659106Y-98004719D01*
X108559108Y-98004719D01*
X108902543Y-97936406D01*
X109131842Y-97783193D01*
X109347671Y-97927406D01*
X109691106Y-97995719D01*
X110591108Y-97995719D01*
X110934543Y-97927406D01*
X111225693Y-97732865D01*
X111420234Y-97441715D01*
X111477622Y-97153206D01*
X111681126Y-97237500D01*
X112092874Y-97237500D01*
X112473280Y-97079931D01*
X112764431Y-96788780D01*
X112922000Y-96408374D01*
X112922000Y-95996626D01*
X112764431Y-95616220D01*
X112610001Y-95461790D01*
X112610001Y-95139232D01*
X112624889Y-95064385D01*
X112610001Y-94989538D01*
X112610001Y-90565019D01*
X112624889Y-90490172D01*
X112610001Y-90415325D01*
X112610001Y-90415321D01*
X112565905Y-90193636D01*
X112397930Y-89942244D01*
X112334474Y-89899844D01*
X111488547Y-89053918D01*
X111488547Y-88456278D01*
X111420234Y-88112843D01*
X111225693Y-87821693D01*
X111127794Y-87756279D01*
X111225693Y-87690865D01*
X111420234Y-87399715D01*
X111488547Y-87056280D01*
X111488547Y-86406278D01*
X111420234Y-86062843D01*
X111225693Y-85771693D01*
X110934543Y-85577152D01*
X110853487Y-85561029D01*
X110934543Y-85544906D01*
X111225693Y-85350365D01*
X111420234Y-85059215D01*
X111488547Y-84715780D01*
X111488547Y-84065778D01*
X111420234Y-83722343D01*
X111225693Y-83431193D01*
X111127794Y-83365779D01*
X111225693Y-83300365D01*
X111420234Y-83009215D01*
X111488547Y-82665780D01*
X111488547Y-82192980D01*
X111768229Y-82077132D01*
X112059380Y-81785981D01*
X112216949Y-81405575D01*
X112216949Y-80993827D01*
X112059380Y-80613421D01*
X111768229Y-80322270D01*
X111488547Y-80206422D01*
X111488547Y-79874778D01*
X111420234Y-79531343D01*
X111225693Y-79240193D01*
X111224510Y-79239402D01*
X111379434Y-79084477D01*
X111448887Y-78916804D01*
X111681126Y-79013000D01*
X112092874Y-79013000D01*
X112473280Y-78855431D01*
X112764431Y-78564280D01*
X112922000Y-78183874D01*
X112922000Y-77772126D01*
X112764431Y-77391720D01*
X112473280Y-77100569D01*
X112140987Y-76962929D01*
X112220435Y-76947126D01*
X112422313Y-76812236D01*
X112569565Y-76910626D01*
X112913000Y-76978940D01*
X113652837Y-76978940D01*
X114056698Y-77382802D01*
X114056698Y-77548874D01*
X114214267Y-77929280D01*
X114505418Y-78220431D01*
X114885824Y-78378000D01*
X115297572Y-78378000D01*
X115677978Y-78220431D01*
X115969129Y-77929280D01*
X116126698Y-77548874D01*
X116126698Y-77137126D01*
X115969129Y-76756720D01*
X115677978Y-76465569D01*
X115468982Y-76379000D01*
X116173155Y-76379000D01*
X115951043Y-95369574D01*
X115991655Y-95590579D01*
X115877373Y-95637916D01*
X115586222Y-95929067D01*
X115428653Y-96309473D01*
X115428653Y-96721221D01*
X115586222Y-97101627D01*
X115877373Y-97392778D01*
X116257779Y-97550347D01*
X116423852Y-97550347D01*
X119975027Y-101101523D01*
X119975030Y-101101525D01*
X120703976Y-101830472D01*
X120746377Y-101893929D01*
X120997769Y-102061904D01*
X121219454Y-102106000D01*
X121219459Y-102106000D01*
X121294306Y-102120888D01*
X121369153Y-102106000D01*
X124200495Y-102106000D01*
X124077161Y-102290582D01*
X123961908Y-102870000D01*
X124077161Y-103449418D01*
X124405375Y-103940625D01*
X124896582Y-104268839D01*
X125329744Y-104355000D01*
X125622256Y-104355000D01*
X126055418Y-104268839D01*
X126546625Y-103940625D01*
X126558816Y-103922381D01*
X126567843Y-103967765D01*
X126708191Y-104177809D01*
X126918235Y-104318157D01*
X127166000Y-104367440D01*
X127367518Y-104367440D01*
X127424960Y-104453407D01*
X127468072Y-104517929D01*
X127531528Y-104560329D01*
X128548171Y-105576973D01*
X128590571Y-105640429D01*
X128654027Y-105682829D01*
X128841962Y-105808404D01*
X128871101Y-105814200D01*
X129063648Y-105852500D01*
X129063652Y-105852500D01*
X129138500Y-105867388D01*
X129213348Y-105852500D01*
X143498653Y-105852500D01*
X143573500Y-105867388D01*
X143648347Y-105852500D01*
X143648352Y-105852500D01*
X143870037Y-105808404D01*
X144121429Y-105640429D01*
X144163831Y-105576970D01*
X153138302Y-96602500D01*
X153304374Y-96602500D01*
X153684780Y-96444931D01*
X153975931Y-96153780D01*
X154133500Y-95773374D01*
X154133500Y-95361626D01*
X154058351Y-95180200D01*
X154409972Y-95325846D01*
X154821720Y-95325846D01*
X155202126Y-95168277D01*
X155493277Y-94877126D01*
X155650846Y-94496720D01*
X155650846Y-94084972D01*
X155493277Y-93704566D01*
X155202126Y-93413415D01*
X154821720Y-93255846D01*
X154409972Y-93255846D01*
X154029566Y-93413415D01*
X153912135Y-93530846D01*
X152856003Y-93530846D01*
X152781156Y-93515958D01*
X152706309Y-93530846D01*
X152706304Y-93530846D01*
X152484619Y-93574942D01*
X152233227Y-93742917D01*
X152190827Y-93806373D01*
X142299701Y-103697500D01*
X141959440Y-103697500D01*
X141959440Y-102020000D01*
X141910157Y-101772235D01*
X141769809Y-101562191D01*
X141559765Y-101421843D01*
X141312000Y-101372560D01*
X139612000Y-101372560D01*
X139364235Y-101421843D01*
X139154191Y-101562191D01*
X139013843Y-101772235D01*
X139004816Y-101817619D01*
X138992625Y-101799375D01*
X138501418Y-101471161D01*
X138068256Y-101385000D01*
X137775744Y-101385000D01*
X137342582Y-101471161D01*
X136851375Y-101799375D01*
X136523161Y-102290582D01*
X136407908Y-102870000D01*
X136523161Y-103449418D01*
X136688924Y-103697500D01*
X135736440Y-103697500D01*
X135736440Y-102020000D01*
X135687157Y-101772235D01*
X135546809Y-101562191D01*
X135336765Y-101421843D01*
X135089000Y-101372560D01*
X133389000Y-101372560D01*
X133141235Y-101421843D01*
X132931191Y-101562191D01*
X132790843Y-101772235D01*
X132781816Y-101817619D01*
X132769625Y-101799375D01*
X132278418Y-101471161D01*
X131845256Y-101385000D01*
X131552744Y-101385000D01*
X131119582Y-101471161D01*
X130628375Y-101799375D01*
X130500979Y-101990036D01*
X130468929Y-101942069D01*
X130405476Y-101899671D01*
X129367333Y-100861530D01*
X129324931Y-100798071D01*
X129073539Y-100630096D01*
X128851854Y-100586000D01*
X128851849Y-100586000D01*
X128777002Y-100571112D01*
X128702155Y-100586000D01*
X121609108Y-100586000D01*
X121049831Y-100026724D01*
X121049829Y-100026721D01*
X117591234Y-96568126D01*
X128759000Y-96568126D01*
X128759000Y-96979874D01*
X128916569Y-97360280D01*
X129207720Y-97651431D01*
X129588126Y-97809000D01*
X129999874Y-97809000D01*
X130380280Y-97651431D01*
X130497711Y-97534000D01*
X134227653Y-97534000D01*
X134302500Y-97548888D01*
X134377347Y-97534000D01*
X134377352Y-97534000D01*
X134599037Y-97489904D01*
X134850429Y-97321929D01*
X134892831Y-97258470D01*
X138088802Y-94062500D01*
X138254874Y-94062500D01*
X138635280Y-93904931D01*
X138926431Y-93613780D01*
X139084000Y-93233374D01*
X139084000Y-92821626D01*
X138926431Y-92441220D01*
X138635280Y-92150069D01*
X138254874Y-91992500D01*
X137843126Y-91992500D01*
X137462720Y-92150069D01*
X137171569Y-92441220D01*
X137014000Y-92821626D01*
X137014000Y-92987698D01*
X133987699Y-96014000D01*
X130497711Y-96014000D01*
X130380280Y-95896569D01*
X129999874Y-95739000D01*
X129588126Y-95739000D01*
X129207720Y-95896569D01*
X128916569Y-96187720D01*
X128759000Y-96568126D01*
X117591234Y-96568126D01*
X117498653Y-96475546D01*
X117498653Y-96309473D01*
X117381255Y-96026049D01*
X123813861Y-96138902D01*
X124073425Y-96088388D01*
X124278151Y-95948836D01*
X124413888Y-95741562D01*
X124459973Y-95498121D01*
X124332973Y-81782121D01*
X124254240Y-81481696D01*
X124094681Y-81292148D01*
X120526779Y-78437827D01*
X120571653Y-74803000D01*
X121802908Y-74803000D01*
X121918161Y-75382418D01*
X122246375Y-75873625D01*
X122544761Y-76073000D01*
X122246375Y-76272375D01*
X121918161Y-76763582D01*
X121802908Y-77343000D01*
X121918161Y-77922418D01*
X122246375Y-78413625D01*
X122737582Y-78741839D01*
X123170744Y-78828000D01*
X123463256Y-78828000D01*
X123896418Y-78741839D01*
X124387625Y-78413625D01*
X124715839Y-77922418D01*
X124831092Y-77343000D01*
X126882908Y-77343000D01*
X126998161Y-77922418D01*
X127326375Y-78413625D01*
X127817582Y-78741839D01*
X128250744Y-78828000D01*
X128543256Y-78828000D01*
X128976418Y-78741839D01*
X129467625Y-78413625D01*
X129667000Y-78115239D01*
X129866375Y-78413625D01*
X130357582Y-78741839D01*
X130790744Y-78828000D01*
X131083256Y-78828000D01*
X131516418Y-78741839D01*
X132007625Y-78413625D01*
X132335839Y-77922418D01*
X132451092Y-77343000D01*
X134502908Y-77343000D01*
X134618161Y-77922418D01*
X134946375Y-78413625D01*
X135437582Y-78741839D01*
X135870744Y-78828000D01*
X136163256Y-78828000D01*
X136596418Y-78741839D01*
X137087625Y-78413625D01*
X137287000Y-78115239D01*
X137486375Y-78413625D01*
X137977582Y-78741839D01*
X138410744Y-78828000D01*
X138703256Y-78828000D01*
X139136418Y-78741839D01*
X139627625Y-78413625D01*
X139827000Y-78115239D01*
X140026375Y-78413625D01*
X140517582Y-78741839D01*
X140950744Y-78828000D01*
X141243256Y-78828000D01*
X141676418Y-78741839D01*
X142167625Y-78413625D01*
X142495839Y-77922418D01*
X142611092Y-77343000D01*
X142495839Y-76763582D01*
X142167625Y-76272375D01*
X141676418Y-75944161D01*
X141243256Y-75858000D01*
X140950744Y-75858000D01*
X140517582Y-75944161D01*
X140026375Y-76272375D01*
X139827000Y-76570761D01*
X139627625Y-76272375D01*
X139329239Y-76073000D01*
X139627625Y-75873625D01*
X139955839Y-75382418D01*
X140071092Y-74803000D01*
X139955839Y-74223582D01*
X139627625Y-73732375D01*
X139136418Y-73404161D01*
X138703256Y-73318000D01*
X138410744Y-73318000D01*
X137977582Y-73404161D01*
X137486375Y-73732375D01*
X137158161Y-74223582D01*
X137042908Y-74803000D01*
X137158161Y-75382418D01*
X137486375Y-75873625D01*
X137784761Y-76073000D01*
X137486375Y-76272375D01*
X137287000Y-76570761D01*
X137087625Y-76272375D01*
X136596418Y-75944161D01*
X136163256Y-75858000D01*
X135870744Y-75858000D01*
X135437582Y-75944161D01*
X134946375Y-76272375D01*
X134618161Y-76763582D01*
X134502908Y-77343000D01*
X132451092Y-77343000D01*
X132335839Y-76763582D01*
X132007625Y-76272375D01*
X131709239Y-76073000D01*
X132007625Y-75873625D01*
X132207000Y-75575239D01*
X132406375Y-75873625D01*
X132897582Y-76201839D01*
X133330744Y-76288000D01*
X133623256Y-76288000D01*
X134056418Y-76201839D01*
X134547625Y-75873625D01*
X134875839Y-75382418D01*
X134991092Y-74803000D01*
X134875839Y-74223582D01*
X134547625Y-73732375D01*
X134056418Y-73404161D01*
X133623256Y-73318000D01*
X133330744Y-73318000D01*
X132897582Y-73404161D01*
X132406375Y-73732375D01*
X132207000Y-74030761D01*
X132007625Y-73732375D01*
X131516418Y-73404161D01*
X131083256Y-73318000D01*
X130790744Y-73318000D01*
X130357582Y-73404161D01*
X129866375Y-73732375D01*
X129538161Y-74223582D01*
X129422908Y-74803000D01*
X129538161Y-75382418D01*
X129866375Y-75873625D01*
X130164761Y-76073000D01*
X129866375Y-76272375D01*
X129667000Y-76570761D01*
X129467625Y-76272375D01*
X128976418Y-75944161D01*
X128543256Y-75858000D01*
X128250744Y-75858000D01*
X127817582Y-75944161D01*
X127326375Y-76272375D01*
X126998161Y-76763582D01*
X126882908Y-77343000D01*
X124831092Y-77343000D01*
X124715839Y-76763582D01*
X124387625Y-76272375D01*
X124089239Y-76073000D01*
X124387625Y-75873625D01*
X124587000Y-75575239D01*
X124786375Y-75873625D01*
X125277582Y-76201839D01*
X125710744Y-76288000D01*
X126003256Y-76288000D01*
X126436418Y-76201839D01*
X126927625Y-75873625D01*
X127255839Y-75382418D01*
X127371092Y-74803000D01*
X127255839Y-74223582D01*
X126927625Y-73732375D01*
X126436418Y-73404161D01*
X126003256Y-73318000D01*
X125710744Y-73318000D01*
X125277582Y-73404161D01*
X124786375Y-73732375D01*
X124587000Y-74030761D01*
X124387625Y-73732375D01*
X123896418Y-73404161D01*
X123463256Y-73318000D01*
X123170744Y-73318000D01*
X122737582Y-73404161D01*
X122246375Y-73732375D01*
X121918161Y-74223582D01*
X121802908Y-74803000D01*
X120571653Y-74803000D01*
X120586452Y-73604339D01*
X120533083Y-73341576D01*
X120391258Y-73138419D01*
X120182483Y-73005000D01*
X119938544Y-72961632D01*
X116827044Y-73025132D01*
X116603874Y-73070535D01*
X116396269Y-73205767D01*
X116256219Y-73410152D01*
X116205043Y-73652574D01*
X116190933Y-74859000D01*
X115001263Y-74859000D01*
X114992126Y-74813065D01*
X114797586Y-74521914D01*
X114506435Y-74327374D01*
X114163000Y-74259060D01*
X112913000Y-74259060D01*
X112569565Y-74327374D01*
X112367687Y-74462264D01*
X112220435Y-74363874D01*
X111877000Y-74295560D01*
X110627000Y-74295560D01*
X110283565Y-74363874D01*
X109992414Y-74558414D01*
X109797874Y-74849565D01*
X109729560Y-75193000D01*
X109729560Y-76118000D01*
X109797874Y-76461435D01*
X109992414Y-76752586D01*
X110283565Y-76947126D01*
X110396955Y-76969681D01*
X110268107Y-77098529D01*
X110268107Y-78022779D01*
X110288107Y-78022779D01*
X110288107Y-78276779D01*
X110268107Y-78276779D01*
X110268107Y-78296779D01*
X110014107Y-78296779D01*
X110014107Y-78276779D01*
X108236107Y-78276779D01*
X108236107Y-78296779D01*
X107982107Y-78296779D01*
X107982107Y-78276779D01*
X107962107Y-78276779D01*
X107962107Y-78022779D01*
X107982107Y-78022779D01*
X107982107Y-77098529D01*
X108236107Y-77098529D01*
X108236107Y-78022779D01*
X110014107Y-78022779D01*
X110014107Y-77098529D01*
X109855357Y-76939779D01*
X109314797Y-76939779D01*
X109125107Y-77018351D01*
X108935417Y-76939779D01*
X108394857Y-76939779D01*
X108236107Y-77098529D01*
X107982107Y-77098529D01*
X107823357Y-76939779D01*
X107282797Y-76939779D01*
X107061622Y-77031393D01*
X107115110Y-72966250D01*
X109742000Y-72966250D01*
X109742000Y-73519309D01*
X109838673Y-73752698D01*
X110017301Y-73931327D01*
X110250690Y-74028000D01*
X110966250Y-74028000D01*
X111125000Y-73869250D01*
X111125000Y-72807500D01*
X111379000Y-72807500D01*
X111379000Y-73869250D01*
X111537750Y-74028000D01*
X112253310Y-74028000D01*
X112439059Y-73951060D01*
X112536690Y-73991500D01*
X113252250Y-73991500D01*
X113411000Y-73832750D01*
X113411000Y-72771000D01*
X113665000Y-72771000D01*
X113665000Y-73832750D01*
X113823750Y-73991500D01*
X114539310Y-73991500D01*
X114772699Y-73894827D01*
X114951327Y-73716198D01*
X115048000Y-73482809D01*
X115048000Y-72929750D01*
X114889250Y-72771000D01*
X113665000Y-72771000D01*
X113411000Y-72771000D01*
X112186750Y-72771000D01*
X112150250Y-72807500D01*
X111379000Y-72807500D01*
X111125000Y-72807500D01*
X109900750Y-72807500D01*
X109742000Y-72966250D01*
X107115110Y-72966250D01*
X107129906Y-71841691D01*
X109742000Y-71841691D01*
X109742000Y-72394750D01*
X109900750Y-72553500D01*
X111125000Y-72553500D01*
X111125000Y-71491750D01*
X111379000Y-71491750D01*
X111379000Y-72553500D01*
X112603250Y-72553500D01*
X112639750Y-72517000D01*
X113411000Y-72517000D01*
X113411000Y-71455250D01*
X113665000Y-71455250D01*
X113665000Y-72517000D01*
X114889250Y-72517000D01*
X115048000Y-72358250D01*
X115048000Y-71805191D01*
X114951327Y-71571802D01*
X114772699Y-71393173D01*
X114539310Y-71296500D01*
X113823750Y-71296500D01*
X113665000Y-71455250D01*
X113411000Y-71455250D01*
X113252250Y-71296500D01*
X112536690Y-71296500D01*
X112350941Y-71373440D01*
X112253310Y-71333000D01*
X111537750Y-71333000D01*
X111379000Y-71491750D01*
X111125000Y-71491750D01*
X110966250Y-71333000D01*
X110250690Y-71333000D01*
X110017301Y-71429673D01*
X109838673Y-71608302D01*
X109742000Y-71841691D01*
X107129906Y-71841691D01*
X107198728Y-66611325D01*
X107249204Y-66308064D01*
X107364707Y-66094000D01*
X107543322Y-65928890D01*
X107778848Y-65824764D01*
X107995689Y-65797371D01*
X151840611Y-65671016D01*
X151881835Y-65682256D01*
G36*
X108204000Y-88655000D02*
X108224000Y-88655000D01*
X108224000Y-88909000D01*
X108204000Y-88909000D01*
X108204000Y-89833250D01*
X108236107Y-89865357D01*
X108236107Y-90405279D01*
X108955857Y-90405279D01*
X108964857Y-90414279D01*
X110014107Y-90414279D01*
X110014107Y-90394279D01*
X110268107Y-90394279D01*
X110268107Y-90414279D01*
X110288107Y-90414279D01*
X110288107Y-90668279D01*
X110268107Y-90668279D01*
X110268107Y-90688279D01*
X110014107Y-90688279D01*
X110014107Y-90668279D01*
X109294357Y-90668279D01*
X109285357Y-90659279D01*
X108236107Y-90659279D01*
X108236107Y-90679279D01*
X107982107Y-90679279D01*
X107982107Y-90659279D01*
X107962107Y-90659279D01*
X107962107Y-90405279D01*
X107982107Y-90405279D01*
X107982107Y-89481029D01*
X107950000Y-89448922D01*
X107950000Y-88909000D01*
X107930000Y-88909000D01*
X107930000Y-88655000D01*
X107950000Y-88655000D01*
X107950000Y-88635000D01*
X108204000Y-88635000D01*
X108204000Y-88655000D01*
X108204000Y-88655000D01*
G37*
X108204000Y-88655000D02*
X108224000Y-88655000D01*
X108224000Y-88909000D01*
X108204000Y-88909000D01*
X108204000Y-89833250D01*
X108236107Y-89865357D01*
X108236107Y-90405279D01*
X108955857Y-90405279D01*
X108964857Y-90414279D01*
X110014107Y-90414279D01*
X110014107Y-90394279D01*
X110268107Y-90394279D01*
X110268107Y-90414279D01*
X110288107Y-90414279D01*
X110288107Y-90668279D01*
X110268107Y-90668279D01*
X110268107Y-90688279D01*
X110014107Y-90688279D01*
X110014107Y-90668279D01*
X109294357Y-90668279D01*
X109285357Y-90659279D01*
X108236107Y-90659279D01*
X108236107Y-90679279D01*
X107982107Y-90679279D01*
X107982107Y-90659279D01*
X107962107Y-90659279D01*
X107962107Y-90405279D01*
X107982107Y-90405279D01*
X107982107Y-89481029D01*
X107950000Y-89448922D01*
X107950000Y-88909000D01*
X107930000Y-88909000D01*
X107930000Y-88655000D01*
X107950000Y-88655000D01*
X107950000Y-88635000D01*
X108204000Y-88635000D01*
X108204000Y-88655000D01*
G04 #@! TO.N,/3V3DC*
G36*
X119706375Y-73732375D02*
X119378161Y-74223582D01*
X119262908Y-74803000D01*
X119378161Y-75382418D01*
X119706375Y-75873625D01*
X119795642Y-75933271D01*
X119792163Y-76215053D01*
X119706375Y-76272375D01*
X119378161Y-76763582D01*
X119262908Y-77343000D01*
X119378161Y-77922418D01*
X119706375Y-78413625D01*
X119764540Y-78452490D01*
X119761010Y-78738432D01*
X119770076Y-78787149D01*
X119808664Y-78839170D01*
X123571563Y-81849490D01*
X123696797Y-95374732D01*
X116714468Y-95252235D01*
X116739769Y-93089000D01*
X117787289Y-93089000D01*
X117904720Y-93206431D01*
X118285126Y-93364000D01*
X118696874Y-93364000D01*
X119077280Y-93206431D01*
X119368431Y-92915280D01*
X119526000Y-92534874D01*
X119526000Y-92123126D01*
X119368431Y-91742720D01*
X119077280Y-91451569D01*
X118696874Y-91294000D01*
X118530802Y-91294000D01*
X116858831Y-89622030D01*
X116816429Y-89558571D01*
X116781335Y-89535122D01*
X116965553Y-73784465D01*
X119712311Y-73728409D01*
X119706375Y-73732375D01*
X119706375Y-73732375D01*
G37*
X119706375Y-73732375D02*
X119378161Y-74223582D01*
X119262908Y-74803000D01*
X119378161Y-75382418D01*
X119706375Y-75873625D01*
X119795642Y-75933271D01*
X119792163Y-76215053D01*
X119706375Y-76272375D01*
X119378161Y-76763582D01*
X119262908Y-77343000D01*
X119378161Y-77922418D01*
X119706375Y-78413625D01*
X119764540Y-78452490D01*
X119761010Y-78738432D01*
X119770076Y-78787149D01*
X119808664Y-78839170D01*
X123571563Y-81849490D01*
X123696797Y-95374732D01*
X116714468Y-95252235D01*
X116739769Y-93089000D01*
X117787289Y-93089000D01*
X117904720Y-93206431D01*
X118285126Y-93364000D01*
X118696874Y-93364000D01*
X119077280Y-93206431D01*
X119368431Y-92915280D01*
X119526000Y-92534874D01*
X119526000Y-92123126D01*
X119368431Y-91742720D01*
X119077280Y-91451569D01*
X118696874Y-91294000D01*
X118530802Y-91294000D01*
X116858831Y-89622030D01*
X116816429Y-89558571D01*
X116781335Y-89535122D01*
X116965553Y-73784465D01*
X119712311Y-73728409D01*
X119706375Y-73732375D01*
G04 #@! TD*
M02*
