G04 #@! TF.GenerationSoftware,KiCad,Pcbnew,(5.0.0)*
G04 #@! TF.CreationDate,2019-03-07T00:39:03-05:00*
G04 #@! TF.ProjectId,Reflow_Test1,5265666C6F775F54657374312E6B6963,rev?*
G04 #@! TF.SameCoordinates,Original*
G04 #@! TF.FileFunction,Copper,L1,Top,Signal*
G04 #@! TF.FilePolarity,Positive*
%FSLAX46Y46*%
G04 Gerber Fmt 4.6, Leading zero omitted, Abs format (unit mm)*
G04 Created by KiCad (PCBNEW (5.0.0)) date 03/07/19 00:39:03*
%MOMM*%
%LPD*%
G01*
G04 APERTURE LIST*
G04 #@! TA.AperFunction,NonConductor*
%ADD10C,0.300000*%
G04 #@! TD*
G04 #@! TA.AperFunction,Conductor*
%ADD11C,0.100000*%
G04 #@! TD*
G04 #@! TA.AperFunction,SMDPad,CuDef*
%ADD12C,0.975000*%
G04 #@! TD*
G04 #@! TA.AperFunction,SMDPad,CuDef*
%ADD13R,0.800000X0.900000*%
G04 #@! TD*
G04 #@! TA.AperFunction,SMDPad,CuDef*
%ADD14C,0.590000*%
G04 #@! TD*
G04 #@! TA.AperFunction,SMDPad,CuDef*
%ADD15C,1.250000*%
G04 #@! TD*
G04 #@! TA.AperFunction,BGAPad,CuDef*
%ADD16C,1.000000*%
G04 #@! TD*
G04 #@! TA.AperFunction,SMDPad,CuDef*
%ADD17O,0.300000X0.750000*%
G04 #@! TD*
G04 #@! TA.AperFunction,SMDPad,CuDef*
%ADD18O,0.750000X0.300000*%
G04 #@! TD*
G04 #@! TA.AperFunction,SMDPad,CuDef*
%ADD19R,1.800000X1.800000*%
G04 #@! TD*
G04 #@! TA.AperFunction,SMDPad,CuDef*
%ADD20R,0.700000X0.250000*%
G04 #@! TD*
G04 #@! TA.AperFunction,SMDPad,CuDef*
%ADD21R,0.250000X0.700000*%
G04 #@! TD*
G04 #@! TA.AperFunction,SMDPad,CuDef*
%ADD22R,3.450000X3.450000*%
G04 #@! TD*
G04 #@! TA.AperFunction,SMDPad,CuDef*
%ADD23R,0.650000X1.060000*%
G04 #@! TD*
G04 #@! TA.AperFunction,ViaPad*
%ADD24C,0.800000*%
G04 #@! TD*
G04 #@! TA.AperFunction,Conductor*
%ADD25C,0.250000*%
G04 #@! TD*
G04 #@! TA.AperFunction,Conductor*
%ADD26C,0.500000*%
G04 #@! TD*
G04 #@! TA.AperFunction,Conductor*
%ADD27C,0.254000*%
G04 #@! TD*
G04 APERTURE END LIST*
D10*
X151023214Y-90594571D02*
X150308928Y-90594571D01*
X150308928Y-89094571D01*
X151451785Y-90166000D02*
X152166071Y-90166000D01*
X151308928Y-90594571D02*
X151808928Y-89094571D01*
X152308928Y-90594571D01*
X153094642Y-89880285D02*
X153094642Y-90594571D01*
X152594642Y-89094571D02*
X153094642Y-89880285D01*
X153594642Y-89094571D01*
X154094642Y-89808857D02*
X154594642Y-89808857D01*
X154808928Y-90594571D02*
X154094642Y-90594571D01*
X154094642Y-89094571D01*
X154808928Y-89094571D01*
X156308928Y-90594571D02*
X155808928Y-89880285D01*
X155451785Y-90594571D02*
X155451785Y-89094571D01*
X156023214Y-89094571D01*
X156166071Y-89166000D01*
X156237500Y-89237428D01*
X156308928Y-89380285D01*
X156308928Y-89594571D01*
X156237500Y-89737428D01*
X156166071Y-89808857D01*
X156023214Y-89880285D01*
X155451785Y-89880285D01*
X157737500Y-90594571D02*
X156880357Y-90594571D01*
X157308928Y-90594571D02*
X157308928Y-89094571D01*
X157166071Y-89308857D01*
X157023214Y-89451714D01*
X156880357Y-89523142D01*
X115937595Y-105868547D02*
X115937595Y-105744738D01*
X115999500Y-105620928D01*
X116061404Y-105559023D01*
X116185214Y-105497119D01*
X116432833Y-105435214D01*
X116742357Y-105435214D01*
X116989976Y-105497119D01*
X117113785Y-105559023D01*
X117175690Y-105620928D01*
X117237595Y-105744738D01*
X117237595Y-105868547D01*
X117175690Y-105992357D01*
X117113785Y-106054261D01*
X116989976Y-106116166D01*
X116742357Y-106178071D01*
X116432833Y-106178071D01*
X116185214Y-106116166D01*
X116061404Y-106054261D01*
X115999500Y-105992357D01*
X115937595Y-105868547D01*
X116494738Y-104692357D02*
X116432833Y-104816166D01*
X116370928Y-104878071D01*
X116247119Y-104939976D01*
X116185214Y-104939976D01*
X116061404Y-104878071D01*
X115999500Y-104816166D01*
X115937595Y-104692357D01*
X115937595Y-104444738D01*
X115999500Y-104320928D01*
X116061404Y-104259023D01*
X116185214Y-104197119D01*
X116247119Y-104197119D01*
X116370928Y-104259023D01*
X116432833Y-104320928D01*
X116494738Y-104444738D01*
X116494738Y-104692357D01*
X116556642Y-104816166D01*
X116618547Y-104878071D01*
X116742357Y-104939976D01*
X116989976Y-104939976D01*
X117113785Y-104878071D01*
X117175690Y-104816166D01*
X117237595Y-104692357D01*
X117237595Y-104444738D01*
X117175690Y-104320928D01*
X117113785Y-104259023D01*
X116989976Y-104197119D01*
X116742357Y-104197119D01*
X116618547Y-104259023D01*
X116556642Y-104320928D01*
X116494738Y-104444738D01*
X115937595Y-103392357D02*
X115937595Y-103268547D01*
X115999500Y-103144738D01*
X116061404Y-103082833D01*
X116185214Y-103020928D01*
X116432833Y-102959023D01*
X116742357Y-102959023D01*
X116989976Y-103020928D01*
X117113785Y-103082833D01*
X117175690Y-103144738D01*
X117237595Y-103268547D01*
X117237595Y-103392357D01*
X117175690Y-103516166D01*
X117113785Y-103578071D01*
X116989976Y-103639976D01*
X116742357Y-103701880D01*
X116432833Y-103701880D01*
X116185214Y-103639976D01*
X116061404Y-103578071D01*
X115999500Y-103516166D01*
X115937595Y-103392357D01*
X115937595Y-101782833D02*
X115937595Y-102401880D01*
X116556642Y-102463785D01*
X116494738Y-102401880D01*
X116432833Y-102278071D01*
X116432833Y-101968547D01*
X116494738Y-101844738D01*
X116556642Y-101782833D01*
X116680452Y-101720928D01*
X116989976Y-101720928D01*
X117113785Y-101782833D01*
X117175690Y-101844738D01*
X117237595Y-101968547D01*
X117237595Y-102278071D01*
X117175690Y-102401880D01*
X117113785Y-102463785D01*
X117301095Y-111708952D02*
X117301095Y-112451809D01*
X117301095Y-112080380D02*
X116001095Y-112080380D01*
X116186809Y-112204190D01*
X116310619Y-112328000D01*
X116372523Y-112451809D01*
X116124904Y-111213714D02*
X116063000Y-111151809D01*
X116001095Y-111028000D01*
X116001095Y-110718476D01*
X116063000Y-110594666D01*
X116124904Y-110532761D01*
X116248714Y-110470857D01*
X116372523Y-110470857D01*
X116558238Y-110532761D01*
X117301095Y-111275619D01*
X117301095Y-110470857D01*
X116001095Y-109666095D02*
X116001095Y-109542285D01*
X116063000Y-109418476D01*
X116124904Y-109356571D01*
X116248714Y-109294666D01*
X116496333Y-109232761D01*
X116805857Y-109232761D01*
X117053476Y-109294666D01*
X117177285Y-109356571D01*
X117239190Y-109418476D01*
X117301095Y-109542285D01*
X117301095Y-109666095D01*
X117239190Y-109789904D01*
X117177285Y-109851809D01*
X117053476Y-109913714D01*
X116805857Y-109975619D01*
X116496333Y-109975619D01*
X116248714Y-109913714D01*
X116124904Y-109851809D01*
X116063000Y-109789904D01*
X116001095Y-109666095D01*
X116001095Y-108118476D02*
X116001095Y-108366095D01*
X116063000Y-108489904D01*
X116124904Y-108551809D01*
X116310619Y-108675619D01*
X116558238Y-108737523D01*
X117053476Y-108737523D01*
X117177285Y-108675619D01*
X117239190Y-108613714D01*
X117301095Y-108489904D01*
X117301095Y-108242285D01*
X117239190Y-108118476D01*
X117177285Y-108056571D01*
X117053476Y-107994666D01*
X116743952Y-107994666D01*
X116620142Y-108056571D01*
X116558238Y-108118476D01*
X116496333Y-108242285D01*
X116496333Y-108489904D01*
X116558238Y-108613714D01*
X116620142Y-108675619D01*
X116743952Y-108737523D01*
X115937595Y-100217047D02*
X115937595Y-100093238D01*
X115999500Y-99969428D01*
X116061404Y-99907523D01*
X116185214Y-99845619D01*
X116432833Y-99783714D01*
X116742357Y-99783714D01*
X116989976Y-99845619D01*
X117113785Y-99907523D01*
X117175690Y-99969428D01*
X117237595Y-100093238D01*
X117237595Y-100217047D01*
X117175690Y-100340857D01*
X117113785Y-100402761D01*
X116989976Y-100464666D01*
X116742357Y-100526571D01*
X116432833Y-100526571D01*
X116185214Y-100464666D01*
X116061404Y-100402761D01*
X115999500Y-100340857D01*
X115937595Y-100217047D01*
X116370928Y-98669428D02*
X117237595Y-98669428D01*
X115875690Y-98978952D02*
X116804261Y-99288476D01*
X116804261Y-98483714D01*
X115937595Y-97740857D02*
X115937595Y-97617047D01*
X115999500Y-97493238D01*
X116061404Y-97431333D01*
X116185214Y-97369428D01*
X116432833Y-97307523D01*
X116742357Y-97307523D01*
X116989976Y-97369428D01*
X117113785Y-97431333D01*
X117175690Y-97493238D01*
X117237595Y-97617047D01*
X117237595Y-97740857D01*
X117175690Y-97864666D01*
X117113785Y-97926571D01*
X116989976Y-97988476D01*
X116742357Y-98050380D01*
X116432833Y-98050380D01*
X116185214Y-97988476D01*
X116061404Y-97926571D01*
X115999500Y-97864666D01*
X115937595Y-97740857D01*
X116061404Y-96812285D02*
X115999500Y-96750380D01*
X115937595Y-96626571D01*
X115937595Y-96317047D01*
X115999500Y-96193238D01*
X116061404Y-96131333D01*
X116185214Y-96069428D01*
X116309023Y-96069428D01*
X116494738Y-96131333D01*
X117237595Y-96874190D01*
X117237595Y-96069428D01*
D11*
G04 #@! TO.N,GND*
G04 #@! TO.C,R2*
G36*
X120749142Y-102208174D02*
X120772803Y-102211684D01*
X120796007Y-102217496D01*
X120818529Y-102225554D01*
X120840153Y-102235782D01*
X120860670Y-102248079D01*
X120879883Y-102262329D01*
X120897607Y-102278393D01*
X120913671Y-102296117D01*
X120927921Y-102315330D01*
X120940218Y-102335847D01*
X120950446Y-102357471D01*
X120958504Y-102379993D01*
X120964316Y-102403197D01*
X120967826Y-102426858D01*
X120969000Y-102450750D01*
X120969000Y-102938250D01*
X120967826Y-102962142D01*
X120964316Y-102985803D01*
X120958504Y-103009007D01*
X120950446Y-103031529D01*
X120940218Y-103053153D01*
X120927921Y-103073670D01*
X120913671Y-103092883D01*
X120897607Y-103110607D01*
X120879883Y-103126671D01*
X120860670Y-103140921D01*
X120840153Y-103153218D01*
X120818529Y-103163446D01*
X120796007Y-103171504D01*
X120772803Y-103177316D01*
X120749142Y-103180826D01*
X120725250Y-103182000D01*
X119812750Y-103182000D01*
X119788858Y-103180826D01*
X119765197Y-103177316D01*
X119741993Y-103171504D01*
X119719471Y-103163446D01*
X119697847Y-103153218D01*
X119677330Y-103140921D01*
X119658117Y-103126671D01*
X119640393Y-103110607D01*
X119624329Y-103092883D01*
X119610079Y-103073670D01*
X119597782Y-103053153D01*
X119587554Y-103031529D01*
X119579496Y-103009007D01*
X119573684Y-102985803D01*
X119570174Y-102962142D01*
X119569000Y-102938250D01*
X119569000Y-102450750D01*
X119570174Y-102426858D01*
X119573684Y-102403197D01*
X119579496Y-102379993D01*
X119587554Y-102357471D01*
X119597782Y-102335847D01*
X119610079Y-102315330D01*
X119624329Y-102296117D01*
X119640393Y-102278393D01*
X119658117Y-102262329D01*
X119677330Y-102248079D01*
X119697847Y-102235782D01*
X119719471Y-102225554D01*
X119741993Y-102217496D01*
X119765197Y-102211684D01*
X119788858Y-102208174D01*
X119812750Y-102207000D01*
X120725250Y-102207000D01*
X120749142Y-102208174D01*
X120749142Y-102208174D01*
G37*
D12*
G04 #@! TD*
G04 #@! TO.P,R2,2*
G04 #@! TO.N,GND*
X120269000Y-102694500D03*
D11*
G04 #@! TO.N,VCC*
G04 #@! TO.C,R2*
G36*
X120749142Y-104083174D02*
X120772803Y-104086684D01*
X120796007Y-104092496D01*
X120818529Y-104100554D01*
X120840153Y-104110782D01*
X120860670Y-104123079D01*
X120879883Y-104137329D01*
X120897607Y-104153393D01*
X120913671Y-104171117D01*
X120927921Y-104190330D01*
X120940218Y-104210847D01*
X120950446Y-104232471D01*
X120958504Y-104254993D01*
X120964316Y-104278197D01*
X120967826Y-104301858D01*
X120969000Y-104325750D01*
X120969000Y-104813250D01*
X120967826Y-104837142D01*
X120964316Y-104860803D01*
X120958504Y-104884007D01*
X120950446Y-104906529D01*
X120940218Y-104928153D01*
X120927921Y-104948670D01*
X120913671Y-104967883D01*
X120897607Y-104985607D01*
X120879883Y-105001671D01*
X120860670Y-105015921D01*
X120840153Y-105028218D01*
X120818529Y-105038446D01*
X120796007Y-105046504D01*
X120772803Y-105052316D01*
X120749142Y-105055826D01*
X120725250Y-105057000D01*
X119812750Y-105057000D01*
X119788858Y-105055826D01*
X119765197Y-105052316D01*
X119741993Y-105046504D01*
X119719471Y-105038446D01*
X119697847Y-105028218D01*
X119677330Y-105015921D01*
X119658117Y-105001671D01*
X119640393Y-104985607D01*
X119624329Y-104967883D01*
X119610079Y-104948670D01*
X119597782Y-104928153D01*
X119587554Y-104906529D01*
X119579496Y-104884007D01*
X119573684Y-104860803D01*
X119570174Y-104837142D01*
X119569000Y-104813250D01*
X119569000Y-104325750D01*
X119570174Y-104301858D01*
X119573684Y-104278197D01*
X119579496Y-104254993D01*
X119587554Y-104232471D01*
X119597782Y-104210847D01*
X119610079Y-104190330D01*
X119624329Y-104171117D01*
X119640393Y-104153393D01*
X119658117Y-104137329D01*
X119677330Y-104123079D01*
X119697847Y-104110782D01*
X119719471Y-104100554D01*
X119741993Y-104092496D01*
X119765197Y-104086684D01*
X119788858Y-104083174D01*
X119812750Y-104082000D01*
X120725250Y-104082000D01*
X120749142Y-104083174D01*
X120749142Y-104083174D01*
G37*
D12*
G04 #@! TD*
G04 #@! TO.P,R2,1*
G04 #@! TO.N,VCC*
X120269000Y-104569500D03*
D13*
G04 #@! TO.P,Q1,1*
G04 #@! TO.N,N/C*
X142433000Y-93075000D03*
G04 #@! TO.P,Q1,2*
X144333000Y-93075000D03*
G04 #@! TO.P,Q1,3*
X143383000Y-91075000D03*
G04 #@! TD*
D11*
G04 #@! TO.N,VCC*
G04 #@! TO.C,R1*
G36*
X120455958Y-98511710D02*
X120470276Y-98513834D01*
X120484317Y-98517351D01*
X120497946Y-98522228D01*
X120511031Y-98528417D01*
X120523447Y-98535858D01*
X120535073Y-98544481D01*
X120545798Y-98554202D01*
X120555519Y-98564927D01*
X120564142Y-98576553D01*
X120571583Y-98588969D01*
X120577772Y-98602054D01*
X120582649Y-98615683D01*
X120586166Y-98629724D01*
X120588290Y-98644042D01*
X120589000Y-98658500D01*
X120589000Y-98953500D01*
X120588290Y-98967958D01*
X120586166Y-98982276D01*
X120582649Y-98996317D01*
X120577772Y-99009946D01*
X120571583Y-99023031D01*
X120564142Y-99035447D01*
X120555519Y-99047073D01*
X120545798Y-99057798D01*
X120535073Y-99067519D01*
X120523447Y-99076142D01*
X120511031Y-99083583D01*
X120497946Y-99089772D01*
X120484317Y-99094649D01*
X120470276Y-99098166D01*
X120455958Y-99100290D01*
X120441500Y-99101000D01*
X120096500Y-99101000D01*
X120082042Y-99100290D01*
X120067724Y-99098166D01*
X120053683Y-99094649D01*
X120040054Y-99089772D01*
X120026969Y-99083583D01*
X120014553Y-99076142D01*
X120002927Y-99067519D01*
X119992202Y-99057798D01*
X119982481Y-99047073D01*
X119973858Y-99035447D01*
X119966417Y-99023031D01*
X119960228Y-99009946D01*
X119955351Y-98996317D01*
X119951834Y-98982276D01*
X119949710Y-98967958D01*
X119949000Y-98953500D01*
X119949000Y-98658500D01*
X119949710Y-98644042D01*
X119951834Y-98629724D01*
X119955351Y-98615683D01*
X119960228Y-98602054D01*
X119966417Y-98588969D01*
X119973858Y-98576553D01*
X119982481Y-98564927D01*
X119992202Y-98554202D01*
X120002927Y-98544481D01*
X120014553Y-98535858D01*
X120026969Y-98528417D01*
X120040054Y-98522228D01*
X120053683Y-98517351D01*
X120067724Y-98513834D01*
X120082042Y-98511710D01*
X120096500Y-98511000D01*
X120441500Y-98511000D01*
X120455958Y-98511710D01*
X120455958Y-98511710D01*
G37*
D14*
G04 #@! TD*
G04 #@! TO.P,R1,1*
G04 #@! TO.N,VCC*
X120269000Y-98806000D03*
D11*
G04 #@! TO.N,GND*
G04 #@! TO.C,R1*
G36*
X120455958Y-97541710D02*
X120470276Y-97543834D01*
X120484317Y-97547351D01*
X120497946Y-97552228D01*
X120511031Y-97558417D01*
X120523447Y-97565858D01*
X120535073Y-97574481D01*
X120545798Y-97584202D01*
X120555519Y-97594927D01*
X120564142Y-97606553D01*
X120571583Y-97618969D01*
X120577772Y-97632054D01*
X120582649Y-97645683D01*
X120586166Y-97659724D01*
X120588290Y-97674042D01*
X120589000Y-97688500D01*
X120589000Y-97983500D01*
X120588290Y-97997958D01*
X120586166Y-98012276D01*
X120582649Y-98026317D01*
X120577772Y-98039946D01*
X120571583Y-98053031D01*
X120564142Y-98065447D01*
X120555519Y-98077073D01*
X120545798Y-98087798D01*
X120535073Y-98097519D01*
X120523447Y-98106142D01*
X120511031Y-98113583D01*
X120497946Y-98119772D01*
X120484317Y-98124649D01*
X120470276Y-98128166D01*
X120455958Y-98130290D01*
X120441500Y-98131000D01*
X120096500Y-98131000D01*
X120082042Y-98130290D01*
X120067724Y-98128166D01*
X120053683Y-98124649D01*
X120040054Y-98119772D01*
X120026969Y-98113583D01*
X120014553Y-98106142D01*
X120002927Y-98097519D01*
X119992202Y-98087798D01*
X119982481Y-98077073D01*
X119973858Y-98065447D01*
X119966417Y-98053031D01*
X119960228Y-98039946D01*
X119955351Y-98026317D01*
X119951834Y-98012276D01*
X119949710Y-97997958D01*
X119949000Y-97983500D01*
X119949000Y-97688500D01*
X119949710Y-97674042D01*
X119951834Y-97659724D01*
X119955351Y-97645683D01*
X119960228Y-97632054D01*
X119966417Y-97618969D01*
X119973858Y-97606553D01*
X119982481Y-97594927D01*
X119992202Y-97584202D01*
X120002927Y-97574481D01*
X120014553Y-97565858D01*
X120026969Y-97558417D01*
X120040054Y-97552228D01*
X120053683Y-97547351D01*
X120067724Y-97543834D01*
X120082042Y-97541710D01*
X120096500Y-97541000D01*
X120441500Y-97541000D01*
X120455958Y-97541710D01*
X120455958Y-97541710D01*
G37*
D14*
G04 #@! TD*
G04 #@! TO.P,R1,2*
G04 #@! TO.N,GND*
X120269000Y-97836000D03*
D11*
G04 #@! TO.N,GND*
G04 #@! TO.C,R3*
G36*
X120791504Y-108720204D02*
X120815773Y-108723804D01*
X120839571Y-108729765D01*
X120862671Y-108738030D01*
X120884849Y-108748520D01*
X120905893Y-108761133D01*
X120925598Y-108775747D01*
X120943777Y-108792223D01*
X120960253Y-108810402D01*
X120974867Y-108830107D01*
X120987480Y-108851151D01*
X120997970Y-108873329D01*
X121006235Y-108896429D01*
X121012196Y-108920227D01*
X121015796Y-108944496D01*
X121017000Y-108969000D01*
X121017000Y-109719000D01*
X121015796Y-109743504D01*
X121012196Y-109767773D01*
X121006235Y-109791571D01*
X120997970Y-109814671D01*
X120987480Y-109836849D01*
X120974867Y-109857893D01*
X120960253Y-109877598D01*
X120943777Y-109895777D01*
X120925598Y-109912253D01*
X120905893Y-109926867D01*
X120884849Y-109939480D01*
X120862671Y-109949970D01*
X120839571Y-109958235D01*
X120815773Y-109964196D01*
X120791504Y-109967796D01*
X120767000Y-109969000D01*
X119517000Y-109969000D01*
X119492496Y-109967796D01*
X119468227Y-109964196D01*
X119444429Y-109958235D01*
X119421329Y-109949970D01*
X119399151Y-109939480D01*
X119378107Y-109926867D01*
X119358402Y-109912253D01*
X119340223Y-109895777D01*
X119323747Y-109877598D01*
X119309133Y-109857893D01*
X119296520Y-109836849D01*
X119286030Y-109814671D01*
X119277765Y-109791571D01*
X119271804Y-109767773D01*
X119268204Y-109743504D01*
X119267000Y-109719000D01*
X119267000Y-108969000D01*
X119268204Y-108944496D01*
X119271804Y-108920227D01*
X119277765Y-108896429D01*
X119286030Y-108873329D01*
X119296520Y-108851151D01*
X119309133Y-108830107D01*
X119323747Y-108810402D01*
X119340223Y-108792223D01*
X119358402Y-108775747D01*
X119378107Y-108761133D01*
X119399151Y-108748520D01*
X119421329Y-108738030D01*
X119444429Y-108729765D01*
X119468227Y-108723804D01*
X119492496Y-108720204D01*
X119517000Y-108719000D01*
X120767000Y-108719000D01*
X120791504Y-108720204D01*
X120791504Y-108720204D01*
G37*
D15*
G04 #@! TD*
G04 #@! TO.P,R3,2*
G04 #@! TO.N,GND*
X120142000Y-109344000D03*
D11*
G04 #@! TO.N,VCC*
G04 #@! TO.C,R3*
G36*
X120791504Y-111520204D02*
X120815773Y-111523804D01*
X120839571Y-111529765D01*
X120862671Y-111538030D01*
X120884849Y-111548520D01*
X120905893Y-111561133D01*
X120925598Y-111575747D01*
X120943777Y-111592223D01*
X120960253Y-111610402D01*
X120974867Y-111630107D01*
X120987480Y-111651151D01*
X120997970Y-111673329D01*
X121006235Y-111696429D01*
X121012196Y-111720227D01*
X121015796Y-111744496D01*
X121017000Y-111769000D01*
X121017000Y-112519000D01*
X121015796Y-112543504D01*
X121012196Y-112567773D01*
X121006235Y-112591571D01*
X120997970Y-112614671D01*
X120987480Y-112636849D01*
X120974867Y-112657893D01*
X120960253Y-112677598D01*
X120943777Y-112695777D01*
X120925598Y-112712253D01*
X120905893Y-112726867D01*
X120884849Y-112739480D01*
X120862671Y-112749970D01*
X120839571Y-112758235D01*
X120815773Y-112764196D01*
X120791504Y-112767796D01*
X120767000Y-112769000D01*
X119517000Y-112769000D01*
X119492496Y-112767796D01*
X119468227Y-112764196D01*
X119444429Y-112758235D01*
X119421329Y-112749970D01*
X119399151Y-112739480D01*
X119378107Y-112726867D01*
X119358402Y-112712253D01*
X119340223Y-112695777D01*
X119323747Y-112677598D01*
X119309133Y-112657893D01*
X119296520Y-112636849D01*
X119286030Y-112614671D01*
X119277765Y-112591571D01*
X119271804Y-112567773D01*
X119268204Y-112543504D01*
X119267000Y-112519000D01*
X119267000Y-111769000D01*
X119268204Y-111744496D01*
X119271804Y-111720227D01*
X119277765Y-111696429D01*
X119286030Y-111673329D01*
X119296520Y-111651151D01*
X119309133Y-111630107D01*
X119323747Y-111610402D01*
X119340223Y-111592223D01*
X119358402Y-111575747D01*
X119378107Y-111561133D01*
X119399151Y-111548520D01*
X119421329Y-111538030D01*
X119444429Y-111529765D01*
X119468227Y-111523804D01*
X119492496Y-111520204D01*
X119517000Y-111519000D01*
X120767000Y-111519000D01*
X120791504Y-111520204D01*
X120791504Y-111520204D01*
G37*
D15*
G04 #@! TD*
G04 #@! TO.P,R3,1*
G04 #@! TO.N,VCC*
X120142000Y-112144000D03*
D11*
G04 #@! TO.N,GND*
G04 #@! TO.C,R4*
G36*
X125154958Y-97645710D02*
X125169276Y-97647834D01*
X125183317Y-97651351D01*
X125196946Y-97656228D01*
X125210031Y-97662417D01*
X125222447Y-97669858D01*
X125234073Y-97678481D01*
X125244798Y-97688202D01*
X125254519Y-97698927D01*
X125263142Y-97710553D01*
X125270583Y-97722969D01*
X125276772Y-97736054D01*
X125281649Y-97749683D01*
X125285166Y-97763724D01*
X125287290Y-97778042D01*
X125288000Y-97792500D01*
X125288000Y-98087500D01*
X125287290Y-98101958D01*
X125285166Y-98116276D01*
X125281649Y-98130317D01*
X125276772Y-98143946D01*
X125270583Y-98157031D01*
X125263142Y-98169447D01*
X125254519Y-98181073D01*
X125244798Y-98191798D01*
X125234073Y-98201519D01*
X125222447Y-98210142D01*
X125210031Y-98217583D01*
X125196946Y-98223772D01*
X125183317Y-98228649D01*
X125169276Y-98232166D01*
X125154958Y-98234290D01*
X125140500Y-98235000D01*
X124795500Y-98235000D01*
X124781042Y-98234290D01*
X124766724Y-98232166D01*
X124752683Y-98228649D01*
X124739054Y-98223772D01*
X124725969Y-98217583D01*
X124713553Y-98210142D01*
X124701927Y-98201519D01*
X124691202Y-98191798D01*
X124681481Y-98181073D01*
X124672858Y-98169447D01*
X124665417Y-98157031D01*
X124659228Y-98143946D01*
X124654351Y-98130317D01*
X124650834Y-98116276D01*
X124648710Y-98101958D01*
X124648000Y-98087500D01*
X124648000Y-97792500D01*
X124648710Y-97778042D01*
X124650834Y-97763724D01*
X124654351Y-97749683D01*
X124659228Y-97736054D01*
X124665417Y-97722969D01*
X124672858Y-97710553D01*
X124681481Y-97698927D01*
X124691202Y-97688202D01*
X124701927Y-97678481D01*
X124713553Y-97669858D01*
X124725969Y-97662417D01*
X124739054Y-97656228D01*
X124752683Y-97651351D01*
X124766724Y-97647834D01*
X124781042Y-97645710D01*
X124795500Y-97645000D01*
X125140500Y-97645000D01*
X125154958Y-97645710D01*
X125154958Y-97645710D01*
G37*
D14*
G04 #@! TD*
G04 #@! TO.P,R4,2*
G04 #@! TO.N,GND*
X124968000Y-97940000D03*
D11*
G04 #@! TO.N,VCC*
G04 #@! TO.C,R4*
G36*
X125154958Y-98615710D02*
X125169276Y-98617834D01*
X125183317Y-98621351D01*
X125196946Y-98626228D01*
X125210031Y-98632417D01*
X125222447Y-98639858D01*
X125234073Y-98648481D01*
X125244798Y-98658202D01*
X125254519Y-98668927D01*
X125263142Y-98680553D01*
X125270583Y-98692969D01*
X125276772Y-98706054D01*
X125281649Y-98719683D01*
X125285166Y-98733724D01*
X125287290Y-98748042D01*
X125288000Y-98762500D01*
X125288000Y-99057500D01*
X125287290Y-99071958D01*
X125285166Y-99086276D01*
X125281649Y-99100317D01*
X125276772Y-99113946D01*
X125270583Y-99127031D01*
X125263142Y-99139447D01*
X125254519Y-99151073D01*
X125244798Y-99161798D01*
X125234073Y-99171519D01*
X125222447Y-99180142D01*
X125210031Y-99187583D01*
X125196946Y-99193772D01*
X125183317Y-99198649D01*
X125169276Y-99202166D01*
X125154958Y-99204290D01*
X125140500Y-99205000D01*
X124795500Y-99205000D01*
X124781042Y-99204290D01*
X124766724Y-99202166D01*
X124752683Y-99198649D01*
X124739054Y-99193772D01*
X124725969Y-99187583D01*
X124713553Y-99180142D01*
X124701927Y-99171519D01*
X124691202Y-99161798D01*
X124681481Y-99151073D01*
X124672858Y-99139447D01*
X124665417Y-99127031D01*
X124659228Y-99113946D01*
X124654351Y-99100317D01*
X124650834Y-99086276D01*
X124648710Y-99071958D01*
X124648000Y-99057500D01*
X124648000Y-98762500D01*
X124648710Y-98748042D01*
X124650834Y-98733724D01*
X124654351Y-98719683D01*
X124659228Y-98706054D01*
X124665417Y-98692969D01*
X124672858Y-98680553D01*
X124681481Y-98668927D01*
X124691202Y-98658202D01*
X124701927Y-98648481D01*
X124713553Y-98639858D01*
X124725969Y-98632417D01*
X124739054Y-98626228D01*
X124752683Y-98621351D01*
X124766724Y-98617834D01*
X124781042Y-98615710D01*
X124795500Y-98615000D01*
X125140500Y-98615000D01*
X125154958Y-98615710D01*
X125154958Y-98615710D01*
G37*
D14*
G04 #@! TD*
G04 #@! TO.P,R4,1*
G04 #@! TO.N,VCC*
X124968000Y-98910000D03*
D11*
G04 #@! TO.N,VCC*
G04 #@! TO.C,R5*
G36*
X125321142Y-104034674D02*
X125344803Y-104038184D01*
X125368007Y-104043996D01*
X125390529Y-104052054D01*
X125412153Y-104062282D01*
X125432670Y-104074579D01*
X125451883Y-104088829D01*
X125469607Y-104104893D01*
X125485671Y-104122617D01*
X125499921Y-104141830D01*
X125512218Y-104162347D01*
X125522446Y-104183971D01*
X125530504Y-104206493D01*
X125536316Y-104229697D01*
X125539826Y-104253358D01*
X125541000Y-104277250D01*
X125541000Y-104764750D01*
X125539826Y-104788642D01*
X125536316Y-104812303D01*
X125530504Y-104835507D01*
X125522446Y-104858029D01*
X125512218Y-104879653D01*
X125499921Y-104900170D01*
X125485671Y-104919383D01*
X125469607Y-104937107D01*
X125451883Y-104953171D01*
X125432670Y-104967421D01*
X125412153Y-104979718D01*
X125390529Y-104989946D01*
X125368007Y-104998004D01*
X125344803Y-105003816D01*
X125321142Y-105007326D01*
X125297250Y-105008500D01*
X124384750Y-105008500D01*
X124360858Y-105007326D01*
X124337197Y-105003816D01*
X124313993Y-104998004D01*
X124291471Y-104989946D01*
X124269847Y-104979718D01*
X124249330Y-104967421D01*
X124230117Y-104953171D01*
X124212393Y-104937107D01*
X124196329Y-104919383D01*
X124182079Y-104900170D01*
X124169782Y-104879653D01*
X124159554Y-104858029D01*
X124151496Y-104835507D01*
X124145684Y-104812303D01*
X124142174Y-104788642D01*
X124141000Y-104764750D01*
X124141000Y-104277250D01*
X124142174Y-104253358D01*
X124145684Y-104229697D01*
X124151496Y-104206493D01*
X124159554Y-104183971D01*
X124169782Y-104162347D01*
X124182079Y-104141830D01*
X124196329Y-104122617D01*
X124212393Y-104104893D01*
X124230117Y-104088829D01*
X124249330Y-104074579D01*
X124269847Y-104062282D01*
X124291471Y-104052054D01*
X124313993Y-104043996D01*
X124337197Y-104038184D01*
X124360858Y-104034674D01*
X124384750Y-104033500D01*
X125297250Y-104033500D01*
X125321142Y-104034674D01*
X125321142Y-104034674D01*
G37*
D12*
G04 #@! TD*
G04 #@! TO.P,R5,1*
G04 #@! TO.N,VCC*
X124841000Y-104521000D03*
D11*
G04 #@! TO.N,GND*
G04 #@! TO.C,R5*
G36*
X125321142Y-102159674D02*
X125344803Y-102163184D01*
X125368007Y-102168996D01*
X125390529Y-102177054D01*
X125412153Y-102187282D01*
X125432670Y-102199579D01*
X125451883Y-102213829D01*
X125469607Y-102229893D01*
X125485671Y-102247617D01*
X125499921Y-102266830D01*
X125512218Y-102287347D01*
X125522446Y-102308971D01*
X125530504Y-102331493D01*
X125536316Y-102354697D01*
X125539826Y-102378358D01*
X125541000Y-102402250D01*
X125541000Y-102889750D01*
X125539826Y-102913642D01*
X125536316Y-102937303D01*
X125530504Y-102960507D01*
X125522446Y-102983029D01*
X125512218Y-103004653D01*
X125499921Y-103025170D01*
X125485671Y-103044383D01*
X125469607Y-103062107D01*
X125451883Y-103078171D01*
X125432670Y-103092421D01*
X125412153Y-103104718D01*
X125390529Y-103114946D01*
X125368007Y-103123004D01*
X125344803Y-103128816D01*
X125321142Y-103132326D01*
X125297250Y-103133500D01*
X124384750Y-103133500D01*
X124360858Y-103132326D01*
X124337197Y-103128816D01*
X124313993Y-103123004D01*
X124291471Y-103114946D01*
X124269847Y-103104718D01*
X124249330Y-103092421D01*
X124230117Y-103078171D01*
X124212393Y-103062107D01*
X124196329Y-103044383D01*
X124182079Y-103025170D01*
X124169782Y-103004653D01*
X124159554Y-102983029D01*
X124151496Y-102960507D01*
X124145684Y-102937303D01*
X124142174Y-102913642D01*
X124141000Y-102889750D01*
X124141000Y-102402250D01*
X124142174Y-102378358D01*
X124145684Y-102354697D01*
X124151496Y-102331493D01*
X124159554Y-102308971D01*
X124169782Y-102287347D01*
X124182079Y-102266830D01*
X124196329Y-102247617D01*
X124212393Y-102229893D01*
X124230117Y-102213829D01*
X124249330Y-102199579D01*
X124269847Y-102187282D01*
X124291471Y-102177054D01*
X124313993Y-102168996D01*
X124337197Y-102163184D01*
X124360858Y-102159674D01*
X124384750Y-102158500D01*
X125297250Y-102158500D01*
X125321142Y-102159674D01*
X125321142Y-102159674D01*
G37*
D12*
G04 #@! TD*
G04 #@! TO.P,R5,2*
G04 #@! TO.N,GND*
X124841000Y-102646000D03*
D11*
G04 #@! TO.N,VCC*
G04 #@! TO.C,R6*
G36*
X125490504Y-111523204D02*
X125514773Y-111526804D01*
X125538571Y-111532765D01*
X125561671Y-111541030D01*
X125583849Y-111551520D01*
X125604893Y-111564133D01*
X125624598Y-111578747D01*
X125642777Y-111595223D01*
X125659253Y-111613402D01*
X125673867Y-111633107D01*
X125686480Y-111654151D01*
X125696970Y-111676329D01*
X125705235Y-111699429D01*
X125711196Y-111723227D01*
X125714796Y-111747496D01*
X125716000Y-111772000D01*
X125716000Y-112522000D01*
X125714796Y-112546504D01*
X125711196Y-112570773D01*
X125705235Y-112594571D01*
X125696970Y-112617671D01*
X125686480Y-112639849D01*
X125673867Y-112660893D01*
X125659253Y-112680598D01*
X125642777Y-112698777D01*
X125624598Y-112715253D01*
X125604893Y-112729867D01*
X125583849Y-112742480D01*
X125561671Y-112752970D01*
X125538571Y-112761235D01*
X125514773Y-112767196D01*
X125490504Y-112770796D01*
X125466000Y-112772000D01*
X124216000Y-112772000D01*
X124191496Y-112770796D01*
X124167227Y-112767196D01*
X124143429Y-112761235D01*
X124120329Y-112752970D01*
X124098151Y-112742480D01*
X124077107Y-112729867D01*
X124057402Y-112715253D01*
X124039223Y-112698777D01*
X124022747Y-112680598D01*
X124008133Y-112660893D01*
X123995520Y-112639849D01*
X123985030Y-112617671D01*
X123976765Y-112594571D01*
X123970804Y-112570773D01*
X123967204Y-112546504D01*
X123966000Y-112522000D01*
X123966000Y-111772000D01*
X123967204Y-111747496D01*
X123970804Y-111723227D01*
X123976765Y-111699429D01*
X123985030Y-111676329D01*
X123995520Y-111654151D01*
X124008133Y-111633107D01*
X124022747Y-111613402D01*
X124039223Y-111595223D01*
X124057402Y-111578747D01*
X124077107Y-111564133D01*
X124098151Y-111551520D01*
X124120329Y-111541030D01*
X124143429Y-111532765D01*
X124167227Y-111526804D01*
X124191496Y-111523204D01*
X124216000Y-111522000D01*
X125466000Y-111522000D01*
X125490504Y-111523204D01*
X125490504Y-111523204D01*
G37*
D15*
G04 #@! TD*
G04 #@! TO.P,R6,1*
G04 #@! TO.N,VCC*
X124841000Y-112147000D03*
D11*
G04 #@! TO.N,GND*
G04 #@! TO.C,R6*
G36*
X125490504Y-108723204D02*
X125514773Y-108726804D01*
X125538571Y-108732765D01*
X125561671Y-108741030D01*
X125583849Y-108751520D01*
X125604893Y-108764133D01*
X125624598Y-108778747D01*
X125642777Y-108795223D01*
X125659253Y-108813402D01*
X125673867Y-108833107D01*
X125686480Y-108854151D01*
X125696970Y-108876329D01*
X125705235Y-108899429D01*
X125711196Y-108923227D01*
X125714796Y-108947496D01*
X125716000Y-108972000D01*
X125716000Y-109722000D01*
X125714796Y-109746504D01*
X125711196Y-109770773D01*
X125705235Y-109794571D01*
X125696970Y-109817671D01*
X125686480Y-109839849D01*
X125673867Y-109860893D01*
X125659253Y-109880598D01*
X125642777Y-109898777D01*
X125624598Y-109915253D01*
X125604893Y-109929867D01*
X125583849Y-109942480D01*
X125561671Y-109952970D01*
X125538571Y-109961235D01*
X125514773Y-109967196D01*
X125490504Y-109970796D01*
X125466000Y-109972000D01*
X124216000Y-109972000D01*
X124191496Y-109970796D01*
X124167227Y-109967196D01*
X124143429Y-109961235D01*
X124120329Y-109952970D01*
X124098151Y-109942480D01*
X124077107Y-109929867D01*
X124057402Y-109915253D01*
X124039223Y-109898777D01*
X124022747Y-109880598D01*
X124008133Y-109860893D01*
X123995520Y-109839849D01*
X123985030Y-109817671D01*
X123976765Y-109794571D01*
X123970804Y-109770773D01*
X123967204Y-109746504D01*
X123966000Y-109722000D01*
X123966000Y-108972000D01*
X123967204Y-108947496D01*
X123970804Y-108923227D01*
X123976765Y-108899429D01*
X123985030Y-108876329D01*
X123995520Y-108854151D01*
X124008133Y-108833107D01*
X124022747Y-108813402D01*
X124039223Y-108795223D01*
X124057402Y-108778747D01*
X124077107Y-108764133D01*
X124098151Y-108751520D01*
X124120329Y-108741030D01*
X124143429Y-108732765D01*
X124167227Y-108726804D01*
X124191496Y-108723204D01*
X124216000Y-108722000D01*
X125466000Y-108722000D01*
X125490504Y-108723204D01*
X125490504Y-108723204D01*
G37*
D15*
G04 #@! TD*
G04 #@! TO.P,R6,2*
G04 #@! TO.N,GND*
X124841000Y-109347000D03*
D11*
G04 #@! TO.N,VCC*
G04 #@! TO.C,R7*
G36*
X129726958Y-98615710D02*
X129741276Y-98617834D01*
X129755317Y-98621351D01*
X129768946Y-98626228D01*
X129782031Y-98632417D01*
X129794447Y-98639858D01*
X129806073Y-98648481D01*
X129816798Y-98658202D01*
X129826519Y-98668927D01*
X129835142Y-98680553D01*
X129842583Y-98692969D01*
X129848772Y-98706054D01*
X129853649Y-98719683D01*
X129857166Y-98733724D01*
X129859290Y-98748042D01*
X129860000Y-98762500D01*
X129860000Y-99057500D01*
X129859290Y-99071958D01*
X129857166Y-99086276D01*
X129853649Y-99100317D01*
X129848772Y-99113946D01*
X129842583Y-99127031D01*
X129835142Y-99139447D01*
X129826519Y-99151073D01*
X129816798Y-99161798D01*
X129806073Y-99171519D01*
X129794447Y-99180142D01*
X129782031Y-99187583D01*
X129768946Y-99193772D01*
X129755317Y-99198649D01*
X129741276Y-99202166D01*
X129726958Y-99204290D01*
X129712500Y-99205000D01*
X129367500Y-99205000D01*
X129353042Y-99204290D01*
X129338724Y-99202166D01*
X129324683Y-99198649D01*
X129311054Y-99193772D01*
X129297969Y-99187583D01*
X129285553Y-99180142D01*
X129273927Y-99171519D01*
X129263202Y-99161798D01*
X129253481Y-99151073D01*
X129244858Y-99139447D01*
X129237417Y-99127031D01*
X129231228Y-99113946D01*
X129226351Y-99100317D01*
X129222834Y-99086276D01*
X129220710Y-99071958D01*
X129220000Y-99057500D01*
X129220000Y-98762500D01*
X129220710Y-98748042D01*
X129222834Y-98733724D01*
X129226351Y-98719683D01*
X129231228Y-98706054D01*
X129237417Y-98692969D01*
X129244858Y-98680553D01*
X129253481Y-98668927D01*
X129263202Y-98658202D01*
X129273927Y-98648481D01*
X129285553Y-98639858D01*
X129297969Y-98632417D01*
X129311054Y-98626228D01*
X129324683Y-98621351D01*
X129338724Y-98617834D01*
X129353042Y-98615710D01*
X129367500Y-98615000D01*
X129712500Y-98615000D01*
X129726958Y-98615710D01*
X129726958Y-98615710D01*
G37*
D14*
G04 #@! TD*
G04 #@! TO.P,R7,1*
G04 #@! TO.N,VCC*
X129540000Y-98910000D03*
D11*
G04 #@! TO.N,GND*
G04 #@! TO.C,R7*
G36*
X129726958Y-97645710D02*
X129741276Y-97647834D01*
X129755317Y-97651351D01*
X129768946Y-97656228D01*
X129782031Y-97662417D01*
X129794447Y-97669858D01*
X129806073Y-97678481D01*
X129816798Y-97688202D01*
X129826519Y-97698927D01*
X129835142Y-97710553D01*
X129842583Y-97722969D01*
X129848772Y-97736054D01*
X129853649Y-97749683D01*
X129857166Y-97763724D01*
X129859290Y-97778042D01*
X129860000Y-97792500D01*
X129860000Y-98087500D01*
X129859290Y-98101958D01*
X129857166Y-98116276D01*
X129853649Y-98130317D01*
X129848772Y-98143946D01*
X129842583Y-98157031D01*
X129835142Y-98169447D01*
X129826519Y-98181073D01*
X129816798Y-98191798D01*
X129806073Y-98201519D01*
X129794447Y-98210142D01*
X129782031Y-98217583D01*
X129768946Y-98223772D01*
X129755317Y-98228649D01*
X129741276Y-98232166D01*
X129726958Y-98234290D01*
X129712500Y-98235000D01*
X129367500Y-98235000D01*
X129353042Y-98234290D01*
X129338724Y-98232166D01*
X129324683Y-98228649D01*
X129311054Y-98223772D01*
X129297969Y-98217583D01*
X129285553Y-98210142D01*
X129273927Y-98201519D01*
X129263202Y-98191798D01*
X129253481Y-98181073D01*
X129244858Y-98169447D01*
X129237417Y-98157031D01*
X129231228Y-98143946D01*
X129226351Y-98130317D01*
X129222834Y-98116276D01*
X129220710Y-98101958D01*
X129220000Y-98087500D01*
X129220000Y-97792500D01*
X129220710Y-97778042D01*
X129222834Y-97763724D01*
X129226351Y-97749683D01*
X129231228Y-97736054D01*
X129237417Y-97722969D01*
X129244858Y-97710553D01*
X129253481Y-97698927D01*
X129263202Y-97688202D01*
X129273927Y-97678481D01*
X129285553Y-97669858D01*
X129297969Y-97662417D01*
X129311054Y-97656228D01*
X129324683Y-97651351D01*
X129338724Y-97647834D01*
X129353042Y-97645710D01*
X129367500Y-97645000D01*
X129712500Y-97645000D01*
X129726958Y-97645710D01*
X129726958Y-97645710D01*
G37*
D14*
G04 #@! TD*
G04 #@! TO.P,R7,2*
G04 #@! TO.N,GND*
X129540000Y-97940000D03*
D11*
G04 #@! TO.N,GND*
G04 #@! TO.C,R8*
G36*
X130020142Y-102159674D02*
X130043803Y-102163184D01*
X130067007Y-102168996D01*
X130089529Y-102177054D01*
X130111153Y-102187282D01*
X130131670Y-102199579D01*
X130150883Y-102213829D01*
X130168607Y-102229893D01*
X130184671Y-102247617D01*
X130198921Y-102266830D01*
X130211218Y-102287347D01*
X130221446Y-102308971D01*
X130229504Y-102331493D01*
X130235316Y-102354697D01*
X130238826Y-102378358D01*
X130240000Y-102402250D01*
X130240000Y-102889750D01*
X130238826Y-102913642D01*
X130235316Y-102937303D01*
X130229504Y-102960507D01*
X130221446Y-102983029D01*
X130211218Y-103004653D01*
X130198921Y-103025170D01*
X130184671Y-103044383D01*
X130168607Y-103062107D01*
X130150883Y-103078171D01*
X130131670Y-103092421D01*
X130111153Y-103104718D01*
X130089529Y-103114946D01*
X130067007Y-103123004D01*
X130043803Y-103128816D01*
X130020142Y-103132326D01*
X129996250Y-103133500D01*
X129083750Y-103133500D01*
X129059858Y-103132326D01*
X129036197Y-103128816D01*
X129012993Y-103123004D01*
X128990471Y-103114946D01*
X128968847Y-103104718D01*
X128948330Y-103092421D01*
X128929117Y-103078171D01*
X128911393Y-103062107D01*
X128895329Y-103044383D01*
X128881079Y-103025170D01*
X128868782Y-103004653D01*
X128858554Y-102983029D01*
X128850496Y-102960507D01*
X128844684Y-102937303D01*
X128841174Y-102913642D01*
X128840000Y-102889750D01*
X128840000Y-102402250D01*
X128841174Y-102378358D01*
X128844684Y-102354697D01*
X128850496Y-102331493D01*
X128858554Y-102308971D01*
X128868782Y-102287347D01*
X128881079Y-102266830D01*
X128895329Y-102247617D01*
X128911393Y-102229893D01*
X128929117Y-102213829D01*
X128948330Y-102199579D01*
X128968847Y-102187282D01*
X128990471Y-102177054D01*
X129012993Y-102168996D01*
X129036197Y-102163184D01*
X129059858Y-102159674D01*
X129083750Y-102158500D01*
X129996250Y-102158500D01*
X130020142Y-102159674D01*
X130020142Y-102159674D01*
G37*
D12*
G04 #@! TD*
G04 #@! TO.P,R8,2*
G04 #@! TO.N,GND*
X129540000Y-102646000D03*
D11*
G04 #@! TO.N,VCC*
G04 #@! TO.C,R8*
G36*
X130020142Y-104034674D02*
X130043803Y-104038184D01*
X130067007Y-104043996D01*
X130089529Y-104052054D01*
X130111153Y-104062282D01*
X130131670Y-104074579D01*
X130150883Y-104088829D01*
X130168607Y-104104893D01*
X130184671Y-104122617D01*
X130198921Y-104141830D01*
X130211218Y-104162347D01*
X130221446Y-104183971D01*
X130229504Y-104206493D01*
X130235316Y-104229697D01*
X130238826Y-104253358D01*
X130240000Y-104277250D01*
X130240000Y-104764750D01*
X130238826Y-104788642D01*
X130235316Y-104812303D01*
X130229504Y-104835507D01*
X130221446Y-104858029D01*
X130211218Y-104879653D01*
X130198921Y-104900170D01*
X130184671Y-104919383D01*
X130168607Y-104937107D01*
X130150883Y-104953171D01*
X130131670Y-104967421D01*
X130111153Y-104979718D01*
X130089529Y-104989946D01*
X130067007Y-104998004D01*
X130043803Y-105003816D01*
X130020142Y-105007326D01*
X129996250Y-105008500D01*
X129083750Y-105008500D01*
X129059858Y-105007326D01*
X129036197Y-105003816D01*
X129012993Y-104998004D01*
X128990471Y-104989946D01*
X128968847Y-104979718D01*
X128948330Y-104967421D01*
X128929117Y-104953171D01*
X128911393Y-104937107D01*
X128895329Y-104919383D01*
X128881079Y-104900170D01*
X128868782Y-104879653D01*
X128858554Y-104858029D01*
X128850496Y-104835507D01*
X128844684Y-104812303D01*
X128841174Y-104788642D01*
X128840000Y-104764750D01*
X128840000Y-104277250D01*
X128841174Y-104253358D01*
X128844684Y-104229697D01*
X128850496Y-104206493D01*
X128858554Y-104183971D01*
X128868782Y-104162347D01*
X128881079Y-104141830D01*
X128895329Y-104122617D01*
X128911393Y-104104893D01*
X128929117Y-104088829D01*
X128948330Y-104074579D01*
X128968847Y-104062282D01*
X128990471Y-104052054D01*
X129012993Y-104043996D01*
X129036197Y-104038184D01*
X129059858Y-104034674D01*
X129083750Y-104033500D01*
X129996250Y-104033500D01*
X130020142Y-104034674D01*
X130020142Y-104034674D01*
G37*
D12*
G04 #@! TD*
G04 #@! TO.P,R8,1*
G04 #@! TO.N,VCC*
X129540000Y-104521000D03*
D11*
G04 #@! TO.N,VCC*
G04 #@! TO.C,R9*
G36*
X130062504Y-111520204D02*
X130086773Y-111523804D01*
X130110571Y-111529765D01*
X130133671Y-111538030D01*
X130155849Y-111548520D01*
X130176893Y-111561133D01*
X130196598Y-111575747D01*
X130214777Y-111592223D01*
X130231253Y-111610402D01*
X130245867Y-111630107D01*
X130258480Y-111651151D01*
X130268970Y-111673329D01*
X130277235Y-111696429D01*
X130283196Y-111720227D01*
X130286796Y-111744496D01*
X130288000Y-111769000D01*
X130288000Y-112519000D01*
X130286796Y-112543504D01*
X130283196Y-112567773D01*
X130277235Y-112591571D01*
X130268970Y-112614671D01*
X130258480Y-112636849D01*
X130245867Y-112657893D01*
X130231253Y-112677598D01*
X130214777Y-112695777D01*
X130196598Y-112712253D01*
X130176893Y-112726867D01*
X130155849Y-112739480D01*
X130133671Y-112749970D01*
X130110571Y-112758235D01*
X130086773Y-112764196D01*
X130062504Y-112767796D01*
X130038000Y-112769000D01*
X128788000Y-112769000D01*
X128763496Y-112767796D01*
X128739227Y-112764196D01*
X128715429Y-112758235D01*
X128692329Y-112749970D01*
X128670151Y-112739480D01*
X128649107Y-112726867D01*
X128629402Y-112712253D01*
X128611223Y-112695777D01*
X128594747Y-112677598D01*
X128580133Y-112657893D01*
X128567520Y-112636849D01*
X128557030Y-112614671D01*
X128548765Y-112591571D01*
X128542804Y-112567773D01*
X128539204Y-112543504D01*
X128538000Y-112519000D01*
X128538000Y-111769000D01*
X128539204Y-111744496D01*
X128542804Y-111720227D01*
X128548765Y-111696429D01*
X128557030Y-111673329D01*
X128567520Y-111651151D01*
X128580133Y-111630107D01*
X128594747Y-111610402D01*
X128611223Y-111592223D01*
X128629402Y-111575747D01*
X128649107Y-111561133D01*
X128670151Y-111548520D01*
X128692329Y-111538030D01*
X128715429Y-111529765D01*
X128739227Y-111523804D01*
X128763496Y-111520204D01*
X128788000Y-111519000D01*
X130038000Y-111519000D01*
X130062504Y-111520204D01*
X130062504Y-111520204D01*
G37*
D15*
G04 #@! TD*
G04 #@! TO.P,R9,1*
G04 #@! TO.N,VCC*
X129413000Y-112144000D03*
D11*
G04 #@! TO.N,GND*
G04 #@! TO.C,R9*
G36*
X130062504Y-108720204D02*
X130086773Y-108723804D01*
X130110571Y-108729765D01*
X130133671Y-108738030D01*
X130155849Y-108748520D01*
X130176893Y-108761133D01*
X130196598Y-108775747D01*
X130214777Y-108792223D01*
X130231253Y-108810402D01*
X130245867Y-108830107D01*
X130258480Y-108851151D01*
X130268970Y-108873329D01*
X130277235Y-108896429D01*
X130283196Y-108920227D01*
X130286796Y-108944496D01*
X130288000Y-108969000D01*
X130288000Y-109719000D01*
X130286796Y-109743504D01*
X130283196Y-109767773D01*
X130277235Y-109791571D01*
X130268970Y-109814671D01*
X130258480Y-109836849D01*
X130245867Y-109857893D01*
X130231253Y-109877598D01*
X130214777Y-109895777D01*
X130196598Y-109912253D01*
X130176893Y-109926867D01*
X130155849Y-109939480D01*
X130133671Y-109949970D01*
X130110571Y-109958235D01*
X130086773Y-109964196D01*
X130062504Y-109967796D01*
X130038000Y-109969000D01*
X128788000Y-109969000D01*
X128763496Y-109967796D01*
X128739227Y-109964196D01*
X128715429Y-109958235D01*
X128692329Y-109949970D01*
X128670151Y-109939480D01*
X128649107Y-109926867D01*
X128629402Y-109912253D01*
X128611223Y-109895777D01*
X128594747Y-109877598D01*
X128580133Y-109857893D01*
X128567520Y-109836849D01*
X128557030Y-109814671D01*
X128548765Y-109791571D01*
X128542804Y-109767773D01*
X128539204Y-109743504D01*
X128538000Y-109719000D01*
X128538000Y-108969000D01*
X128539204Y-108944496D01*
X128542804Y-108920227D01*
X128548765Y-108896429D01*
X128557030Y-108873329D01*
X128567520Y-108851151D01*
X128580133Y-108830107D01*
X128594747Y-108810402D01*
X128611223Y-108792223D01*
X128629402Y-108775747D01*
X128649107Y-108761133D01*
X128670151Y-108748520D01*
X128692329Y-108738030D01*
X128715429Y-108729765D01*
X128739227Y-108723804D01*
X128763496Y-108720204D01*
X128788000Y-108719000D01*
X130038000Y-108719000D01*
X130062504Y-108720204D01*
X130062504Y-108720204D01*
G37*
D15*
G04 #@! TD*
G04 #@! TO.P,R9,2*
G04 #@! TO.N,GND*
X129413000Y-109344000D03*
D11*
G04 #@! TO.N,GND*
G04 #@! TO.C,R10*
G36*
X134933958Y-97645710D02*
X134948276Y-97647834D01*
X134962317Y-97651351D01*
X134975946Y-97656228D01*
X134989031Y-97662417D01*
X135001447Y-97669858D01*
X135013073Y-97678481D01*
X135023798Y-97688202D01*
X135033519Y-97698927D01*
X135042142Y-97710553D01*
X135049583Y-97722969D01*
X135055772Y-97736054D01*
X135060649Y-97749683D01*
X135064166Y-97763724D01*
X135066290Y-97778042D01*
X135067000Y-97792500D01*
X135067000Y-98087500D01*
X135066290Y-98101958D01*
X135064166Y-98116276D01*
X135060649Y-98130317D01*
X135055772Y-98143946D01*
X135049583Y-98157031D01*
X135042142Y-98169447D01*
X135033519Y-98181073D01*
X135023798Y-98191798D01*
X135013073Y-98201519D01*
X135001447Y-98210142D01*
X134989031Y-98217583D01*
X134975946Y-98223772D01*
X134962317Y-98228649D01*
X134948276Y-98232166D01*
X134933958Y-98234290D01*
X134919500Y-98235000D01*
X134574500Y-98235000D01*
X134560042Y-98234290D01*
X134545724Y-98232166D01*
X134531683Y-98228649D01*
X134518054Y-98223772D01*
X134504969Y-98217583D01*
X134492553Y-98210142D01*
X134480927Y-98201519D01*
X134470202Y-98191798D01*
X134460481Y-98181073D01*
X134451858Y-98169447D01*
X134444417Y-98157031D01*
X134438228Y-98143946D01*
X134433351Y-98130317D01*
X134429834Y-98116276D01*
X134427710Y-98101958D01*
X134427000Y-98087500D01*
X134427000Y-97792500D01*
X134427710Y-97778042D01*
X134429834Y-97763724D01*
X134433351Y-97749683D01*
X134438228Y-97736054D01*
X134444417Y-97722969D01*
X134451858Y-97710553D01*
X134460481Y-97698927D01*
X134470202Y-97688202D01*
X134480927Y-97678481D01*
X134492553Y-97669858D01*
X134504969Y-97662417D01*
X134518054Y-97656228D01*
X134531683Y-97651351D01*
X134545724Y-97647834D01*
X134560042Y-97645710D01*
X134574500Y-97645000D01*
X134919500Y-97645000D01*
X134933958Y-97645710D01*
X134933958Y-97645710D01*
G37*
D14*
G04 #@! TD*
G04 #@! TO.P,R10,2*
G04 #@! TO.N,GND*
X134747000Y-97940000D03*
D11*
G04 #@! TO.N,VCC*
G04 #@! TO.C,R10*
G36*
X134933958Y-98615710D02*
X134948276Y-98617834D01*
X134962317Y-98621351D01*
X134975946Y-98626228D01*
X134989031Y-98632417D01*
X135001447Y-98639858D01*
X135013073Y-98648481D01*
X135023798Y-98658202D01*
X135033519Y-98668927D01*
X135042142Y-98680553D01*
X135049583Y-98692969D01*
X135055772Y-98706054D01*
X135060649Y-98719683D01*
X135064166Y-98733724D01*
X135066290Y-98748042D01*
X135067000Y-98762500D01*
X135067000Y-99057500D01*
X135066290Y-99071958D01*
X135064166Y-99086276D01*
X135060649Y-99100317D01*
X135055772Y-99113946D01*
X135049583Y-99127031D01*
X135042142Y-99139447D01*
X135033519Y-99151073D01*
X135023798Y-99161798D01*
X135013073Y-99171519D01*
X135001447Y-99180142D01*
X134989031Y-99187583D01*
X134975946Y-99193772D01*
X134962317Y-99198649D01*
X134948276Y-99202166D01*
X134933958Y-99204290D01*
X134919500Y-99205000D01*
X134574500Y-99205000D01*
X134560042Y-99204290D01*
X134545724Y-99202166D01*
X134531683Y-99198649D01*
X134518054Y-99193772D01*
X134504969Y-99187583D01*
X134492553Y-99180142D01*
X134480927Y-99171519D01*
X134470202Y-99161798D01*
X134460481Y-99151073D01*
X134451858Y-99139447D01*
X134444417Y-99127031D01*
X134438228Y-99113946D01*
X134433351Y-99100317D01*
X134429834Y-99086276D01*
X134427710Y-99071958D01*
X134427000Y-99057500D01*
X134427000Y-98762500D01*
X134427710Y-98748042D01*
X134429834Y-98733724D01*
X134433351Y-98719683D01*
X134438228Y-98706054D01*
X134444417Y-98692969D01*
X134451858Y-98680553D01*
X134460481Y-98668927D01*
X134470202Y-98658202D01*
X134480927Y-98648481D01*
X134492553Y-98639858D01*
X134504969Y-98632417D01*
X134518054Y-98626228D01*
X134531683Y-98621351D01*
X134545724Y-98617834D01*
X134560042Y-98615710D01*
X134574500Y-98615000D01*
X134919500Y-98615000D01*
X134933958Y-98615710D01*
X134933958Y-98615710D01*
G37*
D14*
G04 #@! TD*
G04 #@! TO.P,R10,1*
G04 #@! TO.N,VCC*
X134747000Y-98910000D03*
D11*
G04 #@! TO.N,VCC*
G04 #@! TO.C,R11*
G36*
X134846142Y-104083174D02*
X134869803Y-104086684D01*
X134893007Y-104092496D01*
X134915529Y-104100554D01*
X134937153Y-104110782D01*
X134957670Y-104123079D01*
X134976883Y-104137329D01*
X134994607Y-104153393D01*
X135010671Y-104171117D01*
X135024921Y-104190330D01*
X135037218Y-104210847D01*
X135047446Y-104232471D01*
X135055504Y-104254993D01*
X135061316Y-104278197D01*
X135064826Y-104301858D01*
X135066000Y-104325750D01*
X135066000Y-104813250D01*
X135064826Y-104837142D01*
X135061316Y-104860803D01*
X135055504Y-104884007D01*
X135047446Y-104906529D01*
X135037218Y-104928153D01*
X135024921Y-104948670D01*
X135010671Y-104967883D01*
X134994607Y-104985607D01*
X134976883Y-105001671D01*
X134957670Y-105015921D01*
X134937153Y-105028218D01*
X134915529Y-105038446D01*
X134893007Y-105046504D01*
X134869803Y-105052316D01*
X134846142Y-105055826D01*
X134822250Y-105057000D01*
X133909750Y-105057000D01*
X133885858Y-105055826D01*
X133862197Y-105052316D01*
X133838993Y-105046504D01*
X133816471Y-105038446D01*
X133794847Y-105028218D01*
X133774330Y-105015921D01*
X133755117Y-105001671D01*
X133737393Y-104985607D01*
X133721329Y-104967883D01*
X133707079Y-104948670D01*
X133694782Y-104928153D01*
X133684554Y-104906529D01*
X133676496Y-104884007D01*
X133670684Y-104860803D01*
X133667174Y-104837142D01*
X133666000Y-104813250D01*
X133666000Y-104325750D01*
X133667174Y-104301858D01*
X133670684Y-104278197D01*
X133676496Y-104254993D01*
X133684554Y-104232471D01*
X133694782Y-104210847D01*
X133707079Y-104190330D01*
X133721329Y-104171117D01*
X133737393Y-104153393D01*
X133755117Y-104137329D01*
X133774330Y-104123079D01*
X133794847Y-104110782D01*
X133816471Y-104100554D01*
X133838993Y-104092496D01*
X133862197Y-104086684D01*
X133885858Y-104083174D01*
X133909750Y-104082000D01*
X134822250Y-104082000D01*
X134846142Y-104083174D01*
X134846142Y-104083174D01*
G37*
D12*
G04 #@! TD*
G04 #@! TO.P,R11,1*
G04 #@! TO.N,VCC*
X134366000Y-104569500D03*
D11*
G04 #@! TO.N,GND*
G04 #@! TO.C,R11*
G36*
X134846142Y-102208174D02*
X134869803Y-102211684D01*
X134893007Y-102217496D01*
X134915529Y-102225554D01*
X134937153Y-102235782D01*
X134957670Y-102248079D01*
X134976883Y-102262329D01*
X134994607Y-102278393D01*
X135010671Y-102296117D01*
X135024921Y-102315330D01*
X135037218Y-102335847D01*
X135047446Y-102357471D01*
X135055504Y-102379993D01*
X135061316Y-102403197D01*
X135064826Y-102426858D01*
X135066000Y-102450750D01*
X135066000Y-102938250D01*
X135064826Y-102962142D01*
X135061316Y-102985803D01*
X135055504Y-103009007D01*
X135047446Y-103031529D01*
X135037218Y-103053153D01*
X135024921Y-103073670D01*
X135010671Y-103092883D01*
X134994607Y-103110607D01*
X134976883Y-103126671D01*
X134957670Y-103140921D01*
X134937153Y-103153218D01*
X134915529Y-103163446D01*
X134893007Y-103171504D01*
X134869803Y-103177316D01*
X134846142Y-103180826D01*
X134822250Y-103182000D01*
X133909750Y-103182000D01*
X133885858Y-103180826D01*
X133862197Y-103177316D01*
X133838993Y-103171504D01*
X133816471Y-103163446D01*
X133794847Y-103153218D01*
X133774330Y-103140921D01*
X133755117Y-103126671D01*
X133737393Y-103110607D01*
X133721329Y-103092883D01*
X133707079Y-103073670D01*
X133694782Y-103053153D01*
X133684554Y-103031529D01*
X133676496Y-103009007D01*
X133670684Y-102985803D01*
X133667174Y-102962142D01*
X133666000Y-102938250D01*
X133666000Y-102450750D01*
X133667174Y-102426858D01*
X133670684Y-102403197D01*
X133676496Y-102379993D01*
X133684554Y-102357471D01*
X133694782Y-102335847D01*
X133707079Y-102315330D01*
X133721329Y-102296117D01*
X133737393Y-102278393D01*
X133755117Y-102262329D01*
X133774330Y-102248079D01*
X133794847Y-102235782D01*
X133816471Y-102225554D01*
X133838993Y-102217496D01*
X133862197Y-102211684D01*
X133885858Y-102208174D01*
X133909750Y-102207000D01*
X134822250Y-102207000D01*
X134846142Y-102208174D01*
X134846142Y-102208174D01*
G37*
D12*
G04 #@! TD*
G04 #@! TO.P,R11,2*
G04 #@! TO.N,GND*
X134366000Y-102694500D03*
D11*
G04 #@! TO.N,GND*
G04 #@! TO.C,R12*
G36*
X137047504Y-108720204D02*
X137071773Y-108723804D01*
X137095571Y-108729765D01*
X137118671Y-108738030D01*
X137140849Y-108748520D01*
X137161893Y-108761133D01*
X137181598Y-108775747D01*
X137199777Y-108792223D01*
X137216253Y-108810402D01*
X137230867Y-108830107D01*
X137243480Y-108851151D01*
X137253970Y-108873329D01*
X137262235Y-108896429D01*
X137268196Y-108920227D01*
X137271796Y-108944496D01*
X137273000Y-108969000D01*
X137273000Y-109719000D01*
X137271796Y-109743504D01*
X137268196Y-109767773D01*
X137262235Y-109791571D01*
X137253970Y-109814671D01*
X137243480Y-109836849D01*
X137230867Y-109857893D01*
X137216253Y-109877598D01*
X137199777Y-109895777D01*
X137181598Y-109912253D01*
X137161893Y-109926867D01*
X137140849Y-109939480D01*
X137118671Y-109949970D01*
X137095571Y-109958235D01*
X137071773Y-109964196D01*
X137047504Y-109967796D01*
X137023000Y-109969000D01*
X135773000Y-109969000D01*
X135748496Y-109967796D01*
X135724227Y-109964196D01*
X135700429Y-109958235D01*
X135677329Y-109949970D01*
X135655151Y-109939480D01*
X135634107Y-109926867D01*
X135614402Y-109912253D01*
X135596223Y-109895777D01*
X135579747Y-109877598D01*
X135565133Y-109857893D01*
X135552520Y-109836849D01*
X135542030Y-109814671D01*
X135533765Y-109791571D01*
X135527804Y-109767773D01*
X135524204Y-109743504D01*
X135523000Y-109719000D01*
X135523000Y-108969000D01*
X135524204Y-108944496D01*
X135527804Y-108920227D01*
X135533765Y-108896429D01*
X135542030Y-108873329D01*
X135552520Y-108851151D01*
X135565133Y-108830107D01*
X135579747Y-108810402D01*
X135596223Y-108792223D01*
X135614402Y-108775747D01*
X135634107Y-108761133D01*
X135655151Y-108748520D01*
X135677329Y-108738030D01*
X135700429Y-108729765D01*
X135724227Y-108723804D01*
X135748496Y-108720204D01*
X135773000Y-108719000D01*
X137023000Y-108719000D01*
X137047504Y-108720204D01*
X137047504Y-108720204D01*
G37*
D15*
G04 #@! TD*
G04 #@! TO.P,R12,2*
G04 #@! TO.N,GND*
X136398000Y-109344000D03*
D11*
G04 #@! TO.N,VCC*
G04 #@! TO.C,R12*
G36*
X137047504Y-111520204D02*
X137071773Y-111523804D01*
X137095571Y-111529765D01*
X137118671Y-111538030D01*
X137140849Y-111548520D01*
X137161893Y-111561133D01*
X137181598Y-111575747D01*
X137199777Y-111592223D01*
X137216253Y-111610402D01*
X137230867Y-111630107D01*
X137243480Y-111651151D01*
X137253970Y-111673329D01*
X137262235Y-111696429D01*
X137268196Y-111720227D01*
X137271796Y-111744496D01*
X137273000Y-111769000D01*
X137273000Y-112519000D01*
X137271796Y-112543504D01*
X137268196Y-112567773D01*
X137262235Y-112591571D01*
X137253970Y-112614671D01*
X137243480Y-112636849D01*
X137230867Y-112657893D01*
X137216253Y-112677598D01*
X137199777Y-112695777D01*
X137181598Y-112712253D01*
X137161893Y-112726867D01*
X137140849Y-112739480D01*
X137118671Y-112749970D01*
X137095571Y-112758235D01*
X137071773Y-112764196D01*
X137047504Y-112767796D01*
X137023000Y-112769000D01*
X135773000Y-112769000D01*
X135748496Y-112767796D01*
X135724227Y-112764196D01*
X135700429Y-112758235D01*
X135677329Y-112749970D01*
X135655151Y-112739480D01*
X135634107Y-112726867D01*
X135614402Y-112712253D01*
X135596223Y-112695777D01*
X135579747Y-112677598D01*
X135565133Y-112657893D01*
X135552520Y-112636849D01*
X135542030Y-112614671D01*
X135533765Y-112591571D01*
X135527804Y-112567773D01*
X135524204Y-112543504D01*
X135523000Y-112519000D01*
X135523000Y-111769000D01*
X135524204Y-111744496D01*
X135527804Y-111720227D01*
X135533765Y-111696429D01*
X135542030Y-111673329D01*
X135552520Y-111651151D01*
X135565133Y-111630107D01*
X135579747Y-111610402D01*
X135596223Y-111592223D01*
X135614402Y-111575747D01*
X135634107Y-111561133D01*
X135655151Y-111548520D01*
X135677329Y-111538030D01*
X135700429Y-111529765D01*
X135724227Y-111523804D01*
X135748496Y-111520204D01*
X135773000Y-111519000D01*
X137023000Y-111519000D01*
X137047504Y-111520204D01*
X137047504Y-111520204D01*
G37*
D15*
G04 #@! TD*
G04 #@! TO.P,R12,1*
G04 #@! TO.N,VCC*
X136398000Y-112144000D03*
D11*
G04 #@! TO.N,VCC*
G04 #@! TO.C,R13*
G36*
X135949958Y-98615710D02*
X135964276Y-98617834D01*
X135978317Y-98621351D01*
X135991946Y-98626228D01*
X136005031Y-98632417D01*
X136017447Y-98639858D01*
X136029073Y-98648481D01*
X136039798Y-98658202D01*
X136049519Y-98668927D01*
X136058142Y-98680553D01*
X136065583Y-98692969D01*
X136071772Y-98706054D01*
X136076649Y-98719683D01*
X136080166Y-98733724D01*
X136082290Y-98748042D01*
X136083000Y-98762500D01*
X136083000Y-99057500D01*
X136082290Y-99071958D01*
X136080166Y-99086276D01*
X136076649Y-99100317D01*
X136071772Y-99113946D01*
X136065583Y-99127031D01*
X136058142Y-99139447D01*
X136049519Y-99151073D01*
X136039798Y-99161798D01*
X136029073Y-99171519D01*
X136017447Y-99180142D01*
X136005031Y-99187583D01*
X135991946Y-99193772D01*
X135978317Y-99198649D01*
X135964276Y-99202166D01*
X135949958Y-99204290D01*
X135935500Y-99205000D01*
X135590500Y-99205000D01*
X135576042Y-99204290D01*
X135561724Y-99202166D01*
X135547683Y-99198649D01*
X135534054Y-99193772D01*
X135520969Y-99187583D01*
X135508553Y-99180142D01*
X135496927Y-99171519D01*
X135486202Y-99161798D01*
X135476481Y-99151073D01*
X135467858Y-99139447D01*
X135460417Y-99127031D01*
X135454228Y-99113946D01*
X135449351Y-99100317D01*
X135445834Y-99086276D01*
X135443710Y-99071958D01*
X135443000Y-99057500D01*
X135443000Y-98762500D01*
X135443710Y-98748042D01*
X135445834Y-98733724D01*
X135449351Y-98719683D01*
X135454228Y-98706054D01*
X135460417Y-98692969D01*
X135467858Y-98680553D01*
X135476481Y-98668927D01*
X135486202Y-98658202D01*
X135496927Y-98648481D01*
X135508553Y-98639858D01*
X135520969Y-98632417D01*
X135534054Y-98626228D01*
X135547683Y-98621351D01*
X135561724Y-98617834D01*
X135576042Y-98615710D01*
X135590500Y-98615000D01*
X135935500Y-98615000D01*
X135949958Y-98615710D01*
X135949958Y-98615710D01*
G37*
D14*
G04 #@! TD*
G04 #@! TO.P,R13,1*
G04 #@! TO.N,VCC*
X135763000Y-98910000D03*
D11*
G04 #@! TO.N,GND*
G04 #@! TO.C,R13*
G36*
X135949958Y-97645710D02*
X135964276Y-97647834D01*
X135978317Y-97651351D01*
X135991946Y-97656228D01*
X136005031Y-97662417D01*
X136017447Y-97669858D01*
X136029073Y-97678481D01*
X136039798Y-97688202D01*
X136049519Y-97698927D01*
X136058142Y-97710553D01*
X136065583Y-97722969D01*
X136071772Y-97736054D01*
X136076649Y-97749683D01*
X136080166Y-97763724D01*
X136082290Y-97778042D01*
X136083000Y-97792500D01*
X136083000Y-98087500D01*
X136082290Y-98101958D01*
X136080166Y-98116276D01*
X136076649Y-98130317D01*
X136071772Y-98143946D01*
X136065583Y-98157031D01*
X136058142Y-98169447D01*
X136049519Y-98181073D01*
X136039798Y-98191798D01*
X136029073Y-98201519D01*
X136017447Y-98210142D01*
X136005031Y-98217583D01*
X135991946Y-98223772D01*
X135978317Y-98228649D01*
X135964276Y-98232166D01*
X135949958Y-98234290D01*
X135935500Y-98235000D01*
X135590500Y-98235000D01*
X135576042Y-98234290D01*
X135561724Y-98232166D01*
X135547683Y-98228649D01*
X135534054Y-98223772D01*
X135520969Y-98217583D01*
X135508553Y-98210142D01*
X135496927Y-98201519D01*
X135486202Y-98191798D01*
X135476481Y-98181073D01*
X135467858Y-98169447D01*
X135460417Y-98157031D01*
X135454228Y-98143946D01*
X135449351Y-98130317D01*
X135445834Y-98116276D01*
X135443710Y-98101958D01*
X135443000Y-98087500D01*
X135443000Y-97792500D01*
X135443710Y-97778042D01*
X135445834Y-97763724D01*
X135449351Y-97749683D01*
X135454228Y-97736054D01*
X135460417Y-97722969D01*
X135467858Y-97710553D01*
X135476481Y-97698927D01*
X135486202Y-97688202D01*
X135496927Y-97678481D01*
X135508553Y-97669858D01*
X135520969Y-97662417D01*
X135534054Y-97656228D01*
X135547683Y-97651351D01*
X135561724Y-97647834D01*
X135576042Y-97645710D01*
X135590500Y-97645000D01*
X135935500Y-97645000D01*
X135949958Y-97645710D01*
X135949958Y-97645710D01*
G37*
D14*
G04 #@! TD*
G04 #@! TO.P,R13,2*
G04 #@! TO.N,GND*
X135763000Y-97940000D03*
D11*
G04 #@! TO.N,VCC*
G04 #@! TO.C,R14*
G36*
X136751142Y-104083174D02*
X136774803Y-104086684D01*
X136798007Y-104092496D01*
X136820529Y-104100554D01*
X136842153Y-104110782D01*
X136862670Y-104123079D01*
X136881883Y-104137329D01*
X136899607Y-104153393D01*
X136915671Y-104171117D01*
X136929921Y-104190330D01*
X136942218Y-104210847D01*
X136952446Y-104232471D01*
X136960504Y-104254993D01*
X136966316Y-104278197D01*
X136969826Y-104301858D01*
X136971000Y-104325750D01*
X136971000Y-104813250D01*
X136969826Y-104837142D01*
X136966316Y-104860803D01*
X136960504Y-104884007D01*
X136952446Y-104906529D01*
X136942218Y-104928153D01*
X136929921Y-104948670D01*
X136915671Y-104967883D01*
X136899607Y-104985607D01*
X136881883Y-105001671D01*
X136862670Y-105015921D01*
X136842153Y-105028218D01*
X136820529Y-105038446D01*
X136798007Y-105046504D01*
X136774803Y-105052316D01*
X136751142Y-105055826D01*
X136727250Y-105057000D01*
X135814750Y-105057000D01*
X135790858Y-105055826D01*
X135767197Y-105052316D01*
X135743993Y-105046504D01*
X135721471Y-105038446D01*
X135699847Y-105028218D01*
X135679330Y-105015921D01*
X135660117Y-105001671D01*
X135642393Y-104985607D01*
X135626329Y-104967883D01*
X135612079Y-104948670D01*
X135599782Y-104928153D01*
X135589554Y-104906529D01*
X135581496Y-104884007D01*
X135575684Y-104860803D01*
X135572174Y-104837142D01*
X135571000Y-104813250D01*
X135571000Y-104325750D01*
X135572174Y-104301858D01*
X135575684Y-104278197D01*
X135581496Y-104254993D01*
X135589554Y-104232471D01*
X135599782Y-104210847D01*
X135612079Y-104190330D01*
X135626329Y-104171117D01*
X135642393Y-104153393D01*
X135660117Y-104137329D01*
X135679330Y-104123079D01*
X135699847Y-104110782D01*
X135721471Y-104100554D01*
X135743993Y-104092496D01*
X135767197Y-104086684D01*
X135790858Y-104083174D01*
X135814750Y-104082000D01*
X136727250Y-104082000D01*
X136751142Y-104083174D01*
X136751142Y-104083174D01*
G37*
D12*
G04 #@! TD*
G04 #@! TO.P,R14,1*
G04 #@! TO.N,VCC*
X136271000Y-104569500D03*
D11*
G04 #@! TO.N,GND*
G04 #@! TO.C,R14*
G36*
X136751142Y-102208174D02*
X136774803Y-102211684D01*
X136798007Y-102217496D01*
X136820529Y-102225554D01*
X136842153Y-102235782D01*
X136862670Y-102248079D01*
X136881883Y-102262329D01*
X136899607Y-102278393D01*
X136915671Y-102296117D01*
X136929921Y-102315330D01*
X136942218Y-102335847D01*
X136952446Y-102357471D01*
X136960504Y-102379993D01*
X136966316Y-102403197D01*
X136969826Y-102426858D01*
X136971000Y-102450750D01*
X136971000Y-102938250D01*
X136969826Y-102962142D01*
X136966316Y-102985803D01*
X136960504Y-103009007D01*
X136952446Y-103031529D01*
X136942218Y-103053153D01*
X136929921Y-103073670D01*
X136915671Y-103092883D01*
X136899607Y-103110607D01*
X136881883Y-103126671D01*
X136862670Y-103140921D01*
X136842153Y-103153218D01*
X136820529Y-103163446D01*
X136798007Y-103171504D01*
X136774803Y-103177316D01*
X136751142Y-103180826D01*
X136727250Y-103182000D01*
X135814750Y-103182000D01*
X135790858Y-103180826D01*
X135767197Y-103177316D01*
X135743993Y-103171504D01*
X135721471Y-103163446D01*
X135699847Y-103153218D01*
X135679330Y-103140921D01*
X135660117Y-103126671D01*
X135642393Y-103110607D01*
X135626329Y-103092883D01*
X135612079Y-103073670D01*
X135599782Y-103053153D01*
X135589554Y-103031529D01*
X135581496Y-103009007D01*
X135575684Y-102985803D01*
X135572174Y-102962142D01*
X135571000Y-102938250D01*
X135571000Y-102450750D01*
X135572174Y-102426858D01*
X135575684Y-102403197D01*
X135581496Y-102379993D01*
X135589554Y-102357471D01*
X135599782Y-102335847D01*
X135612079Y-102315330D01*
X135626329Y-102296117D01*
X135642393Y-102278393D01*
X135660117Y-102262329D01*
X135679330Y-102248079D01*
X135699847Y-102235782D01*
X135721471Y-102225554D01*
X135743993Y-102217496D01*
X135767197Y-102211684D01*
X135790858Y-102208174D01*
X135814750Y-102207000D01*
X136727250Y-102207000D01*
X136751142Y-102208174D01*
X136751142Y-102208174D01*
G37*
D12*
G04 #@! TD*
G04 #@! TO.P,R14,2*
G04 #@! TO.N,GND*
X136271000Y-102694500D03*
D11*
G04 #@! TO.N,VCC*
G04 #@! TO.C,R15*
G36*
X134786904Y-111520204D02*
X134811173Y-111523804D01*
X134834971Y-111529765D01*
X134858071Y-111538030D01*
X134880249Y-111548520D01*
X134901293Y-111561133D01*
X134920998Y-111575747D01*
X134939177Y-111592223D01*
X134955653Y-111610402D01*
X134970267Y-111630107D01*
X134982880Y-111651151D01*
X134993370Y-111673329D01*
X135001635Y-111696429D01*
X135007596Y-111720227D01*
X135011196Y-111744496D01*
X135012400Y-111769000D01*
X135012400Y-112519000D01*
X135011196Y-112543504D01*
X135007596Y-112567773D01*
X135001635Y-112591571D01*
X134993370Y-112614671D01*
X134982880Y-112636849D01*
X134970267Y-112657893D01*
X134955653Y-112677598D01*
X134939177Y-112695777D01*
X134920998Y-112712253D01*
X134901293Y-112726867D01*
X134880249Y-112739480D01*
X134858071Y-112749970D01*
X134834971Y-112758235D01*
X134811173Y-112764196D01*
X134786904Y-112767796D01*
X134762400Y-112769000D01*
X133512400Y-112769000D01*
X133487896Y-112767796D01*
X133463627Y-112764196D01*
X133439829Y-112758235D01*
X133416729Y-112749970D01*
X133394551Y-112739480D01*
X133373507Y-112726867D01*
X133353802Y-112712253D01*
X133335623Y-112695777D01*
X133319147Y-112677598D01*
X133304533Y-112657893D01*
X133291920Y-112636849D01*
X133281430Y-112614671D01*
X133273165Y-112591571D01*
X133267204Y-112567773D01*
X133263604Y-112543504D01*
X133262400Y-112519000D01*
X133262400Y-111769000D01*
X133263604Y-111744496D01*
X133267204Y-111720227D01*
X133273165Y-111696429D01*
X133281430Y-111673329D01*
X133291920Y-111651151D01*
X133304533Y-111630107D01*
X133319147Y-111610402D01*
X133335623Y-111592223D01*
X133353802Y-111575747D01*
X133373507Y-111561133D01*
X133394551Y-111548520D01*
X133416729Y-111538030D01*
X133439829Y-111529765D01*
X133463627Y-111523804D01*
X133487896Y-111520204D01*
X133512400Y-111519000D01*
X134762400Y-111519000D01*
X134786904Y-111520204D01*
X134786904Y-111520204D01*
G37*
D15*
G04 #@! TD*
G04 #@! TO.P,R15,1*
G04 #@! TO.N,VCC*
X134137400Y-112144000D03*
D11*
G04 #@! TO.N,GND*
G04 #@! TO.C,R15*
G36*
X134786904Y-108720204D02*
X134811173Y-108723804D01*
X134834971Y-108729765D01*
X134858071Y-108738030D01*
X134880249Y-108748520D01*
X134901293Y-108761133D01*
X134920998Y-108775747D01*
X134939177Y-108792223D01*
X134955653Y-108810402D01*
X134970267Y-108830107D01*
X134982880Y-108851151D01*
X134993370Y-108873329D01*
X135001635Y-108896429D01*
X135007596Y-108920227D01*
X135011196Y-108944496D01*
X135012400Y-108969000D01*
X135012400Y-109719000D01*
X135011196Y-109743504D01*
X135007596Y-109767773D01*
X135001635Y-109791571D01*
X134993370Y-109814671D01*
X134982880Y-109836849D01*
X134970267Y-109857893D01*
X134955653Y-109877598D01*
X134939177Y-109895777D01*
X134920998Y-109912253D01*
X134901293Y-109926867D01*
X134880249Y-109939480D01*
X134858071Y-109949970D01*
X134834971Y-109958235D01*
X134811173Y-109964196D01*
X134786904Y-109967796D01*
X134762400Y-109969000D01*
X133512400Y-109969000D01*
X133487896Y-109967796D01*
X133463627Y-109964196D01*
X133439829Y-109958235D01*
X133416729Y-109949970D01*
X133394551Y-109939480D01*
X133373507Y-109926867D01*
X133353802Y-109912253D01*
X133335623Y-109895777D01*
X133319147Y-109877598D01*
X133304533Y-109857893D01*
X133291920Y-109836849D01*
X133281430Y-109814671D01*
X133273165Y-109791571D01*
X133267204Y-109767773D01*
X133263604Y-109743504D01*
X133262400Y-109719000D01*
X133262400Y-108969000D01*
X133263604Y-108944496D01*
X133267204Y-108920227D01*
X133273165Y-108896429D01*
X133281430Y-108873329D01*
X133291920Y-108851151D01*
X133304533Y-108830107D01*
X133319147Y-108810402D01*
X133335623Y-108792223D01*
X133353802Y-108775747D01*
X133373507Y-108761133D01*
X133394551Y-108748520D01*
X133416729Y-108738030D01*
X133439829Y-108729765D01*
X133463627Y-108723804D01*
X133487896Y-108720204D01*
X133512400Y-108719000D01*
X134762400Y-108719000D01*
X134786904Y-108720204D01*
X134786904Y-108720204D01*
G37*
D15*
G04 #@! TD*
G04 #@! TO.P,R15,2*
G04 #@! TO.N,GND*
X134137400Y-109344000D03*
D11*
G04 #@! TO.N,GND*
G04 #@! TO.C,R16*
G36*
X141410958Y-97668710D02*
X141425276Y-97670834D01*
X141439317Y-97674351D01*
X141452946Y-97679228D01*
X141466031Y-97685417D01*
X141478447Y-97692858D01*
X141490073Y-97701481D01*
X141500798Y-97711202D01*
X141510519Y-97721927D01*
X141519142Y-97733553D01*
X141526583Y-97745969D01*
X141532772Y-97759054D01*
X141537649Y-97772683D01*
X141541166Y-97786724D01*
X141543290Y-97801042D01*
X141544000Y-97815500D01*
X141544000Y-98110500D01*
X141543290Y-98124958D01*
X141541166Y-98139276D01*
X141537649Y-98153317D01*
X141532772Y-98166946D01*
X141526583Y-98180031D01*
X141519142Y-98192447D01*
X141510519Y-98204073D01*
X141500798Y-98214798D01*
X141490073Y-98224519D01*
X141478447Y-98233142D01*
X141466031Y-98240583D01*
X141452946Y-98246772D01*
X141439317Y-98251649D01*
X141425276Y-98255166D01*
X141410958Y-98257290D01*
X141396500Y-98258000D01*
X141051500Y-98258000D01*
X141037042Y-98257290D01*
X141022724Y-98255166D01*
X141008683Y-98251649D01*
X140995054Y-98246772D01*
X140981969Y-98240583D01*
X140969553Y-98233142D01*
X140957927Y-98224519D01*
X140947202Y-98214798D01*
X140937481Y-98204073D01*
X140928858Y-98192447D01*
X140921417Y-98180031D01*
X140915228Y-98166946D01*
X140910351Y-98153317D01*
X140906834Y-98139276D01*
X140904710Y-98124958D01*
X140904000Y-98110500D01*
X140904000Y-97815500D01*
X140904710Y-97801042D01*
X140906834Y-97786724D01*
X140910351Y-97772683D01*
X140915228Y-97759054D01*
X140921417Y-97745969D01*
X140928858Y-97733553D01*
X140937481Y-97721927D01*
X140947202Y-97711202D01*
X140957927Y-97701481D01*
X140969553Y-97692858D01*
X140981969Y-97685417D01*
X140995054Y-97679228D01*
X141008683Y-97674351D01*
X141022724Y-97670834D01*
X141037042Y-97668710D01*
X141051500Y-97668000D01*
X141396500Y-97668000D01*
X141410958Y-97668710D01*
X141410958Y-97668710D01*
G37*
D14*
G04 #@! TD*
G04 #@! TO.P,R16,2*
G04 #@! TO.N,GND*
X141224000Y-97963000D03*
D11*
G04 #@! TO.N,VCC*
G04 #@! TO.C,R16*
G36*
X141410958Y-98638710D02*
X141425276Y-98640834D01*
X141439317Y-98644351D01*
X141452946Y-98649228D01*
X141466031Y-98655417D01*
X141478447Y-98662858D01*
X141490073Y-98671481D01*
X141500798Y-98681202D01*
X141510519Y-98691927D01*
X141519142Y-98703553D01*
X141526583Y-98715969D01*
X141532772Y-98729054D01*
X141537649Y-98742683D01*
X141541166Y-98756724D01*
X141543290Y-98771042D01*
X141544000Y-98785500D01*
X141544000Y-99080500D01*
X141543290Y-99094958D01*
X141541166Y-99109276D01*
X141537649Y-99123317D01*
X141532772Y-99136946D01*
X141526583Y-99150031D01*
X141519142Y-99162447D01*
X141510519Y-99174073D01*
X141500798Y-99184798D01*
X141490073Y-99194519D01*
X141478447Y-99203142D01*
X141466031Y-99210583D01*
X141452946Y-99216772D01*
X141439317Y-99221649D01*
X141425276Y-99225166D01*
X141410958Y-99227290D01*
X141396500Y-99228000D01*
X141051500Y-99228000D01*
X141037042Y-99227290D01*
X141022724Y-99225166D01*
X141008683Y-99221649D01*
X140995054Y-99216772D01*
X140981969Y-99210583D01*
X140969553Y-99203142D01*
X140957927Y-99194519D01*
X140947202Y-99184798D01*
X140937481Y-99174073D01*
X140928858Y-99162447D01*
X140921417Y-99150031D01*
X140915228Y-99136946D01*
X140910351Y-99123317D01*
X140906834Y-99109276D01*
X140904710Y-99094958D01*
X140904000Y-99080500D01*
X140904000Y-98785500D01*
X140904710Y-98771042D01*
X140906834Y-98756724D01*
X140910351Y-98742683D01*
X140915228Y-98729054D01*
X140921417Y-98715969D01*
X140928858Y-98703553D01*
X140937481Y-98691927D01*
X140947202Y-98681202D01*
X140957927Y-98671481D01*
X140969553Y-98662858D01*
X140981969Y-98655417D01*
X140995054Y-98649228D01*
X141008683Y-98644351D01*
X141022724Y-98640834D01*
X141037042Y-98638710D01*
X141051500Y-98638000D01*
X141396500Y-98638000D01*
X141410958Y-98638710D01*
X141410958Y-98638710D01*
G37*
D14*
G04 #@! TD*
G04 #@! TO.P,R16,1*
G04 #@! TO.N,VCC*
X141224000Y-98933000D03*
D11*
G04 #@! TO.N,VCC*
G04 #@! TO.C,R17*
G36*
X141704142Y-104034674D02*
X141727803Y-104038184D01*
X141751007Y-104043996D01*
X141773529Y-104052054D01*
X141795153Y-104062282D01*
X141815670Y-104074579D01*
X141834883Y-104088829D01*
X141852607Y-104104893D01*
X141868671Y-104122617D01*
X141882921Y-104141830D01*
X141895218Y-104162347D01*
X141905446Y-104183971D01*
X141913504Y-104206493D01*
X141919316Y-104229697D01*
X141922826Y-104253358D01*
X141924000Y-104277250D01*
X141924000Y-104764750D01*
X141922826Y-104788642D01*
X141919316Y-104812303D01*
X141913504Y-104835507D01*
X141905446Y-104858029D01*
X141895218Y-104879653D01*
X141882921Y-104900170D01*
X141868671Y-104919383D01*
X141852607Y-104937107D01*
X141834883Y-104953171D01*
X141815670Y-104967421D01*
X141795153Y-104979718D01*
X141773529Y-104989946D01*
X141751007Y-104998004D01*
X141727803Y-105003816D01*
X141704142Y-105007326D01*
X141680250Y-105008500D01*
X140767750Y-105008500D01*
X140743858Y-105007326D01*
X140720197Y-105003816D01*
X140696993Y-104998004D01*
X140674471Y-104989946D01*
X140652847Y-104979718D01*
X140632330Y-104967421D01*
X140613117Y-104953171D01*
X140595393Y-104937107D01*
X140579329Y-104919383D01*
X140565079Y-104900170D01*
X140552782Y-104879653D01*
X140542554Y-104858029D01*
X140534496Y-104835507D01*
X140528684Y-104812303D01*
X140525174Y-104788642D01*
X140524000Y-104764750D01*
X140524000Y-104277250D01*
X140525174Y-104253358D01*
X140528684Y-104229697D01*
X140534496Y-104206493D01*
X140542554Y-104183971D01*
X140552782Y-104162347D01*
X140565079Y-104141830D01*
X140579329Y-104122617D01*
X140595393Y-104104893D01*
X140613117Y-104088829D01*
X140632330Y-104074579D01*
X140652847Y-104062282D01*
X140674471Y-104052054D01*
X140696993Y-104043996D01*
X140720197Y-104038184D01*
X140743858Y-104034674D01*
X140767750Y-104033500D01*
X141680250Y-104033500D01*
X141704142Y-104034674D01*
X141704142Y-104034674D01*
G37*
D12*
G04 #@! TD*
G04 #@! TO.P,R17,1*
G04 #@! TO.N,VCC*
X141224000Y-104521000D03*
D11*
G04 #@! TO.N,GND*
G04 #@! TO.C,R17*
G36*
X141704142Y-102159674D02*
X141727803Y-102163184D01*
X141751007Y-102168996D01*
X141773529Y-102177054D01*
X141795153Y-102187282D01*
X141815670Y-102199579D01*
X141834883Y-102213829D01*
X141852607Y-102229893D01*
X141868671Y-102247617D01*
X141882921Y-102266830D01*
X141895218Y-102287347D01*
X141905446Y-102308971D01*
X141913504Y-102331493D01*
X141919316Y-102354697D01*
X141922826Y-102378358D01*
X141924000Y-102402250D01*
X141924000Y-102889750D01*
X141922826Y-102913642D01*
X141919316Y-102937303D01*
X141913504Y-102960507D01*
X141905446Y-102983029D01*
X141895218Y-103004653D01*
X141882921Y-103025170D01*
X141868671Y-103044383D01*
X141852607Y-103062107D01*
X141834883Y-103078171D01*
X141815670Y-103092421D01*
X141795153Y-103104718D01*
X141773529Y-103114946D01*
X141751007Y-103123004D01*
X141727803Y-103128816D01*
X141704142Y-103132326D01*
X141680250Y-103133500D01*
X140767750Y-103133500D01*
X140743858Y-103132326D01*
X140720197Y-103128816D01*
X140696993Y-103123004D01*
X140674471Y-103114946D01*
X140652847Y-103104718D01*
X140632330Y-103092421D01*
X140613117Y-103078171D01*
X140595393Y-103062107D01*
X140579329Y-103044383D01*
X140565079Y-103025170D01*
X140552782Y-103004653D01*
X140542554Y-102983029D01*
X140534496Y-102960507D01*
X140528684Y-102937303D01*
X140525174Y-102913642D01*
X140524000Y-102889750D01*
X140524000Y-102402250D01*
X140525174Y-102378358D01*
X140528684Y-102354697D01*
X140534496Y-102331493D01*
X140542554Y-102308971D01*
X140552782Y-102287347D01*
X140565079Y-102266830D01*
X140579329Y-102247617D01*
X140595393Y-102229893D01*
X140613117Y-102213829D01*
X140632330Y-102199579D01*
X140652847Y-102187282D01*
X140674471Y-102177054D01*
X140696993Y-102168996D01*
X140720197Y-102163184D01*
X140743858Y-102159674D01*
X140767750Y-102158500D01*
X141680250Y-102158500D01*
X141704142Y-102159674D01*
X141704142Y-102159674D01*
G37*
D12*
G04 #@! TD*
G04 #@! TO.P,R17,2*
G04 #@! TO.N,GND*
X141224000Y-102646000D03*
D11*
G04 #@! TO.N,GND*
G04 #@! TO.C,R18*
G36*
X141873504Y-108720204D02*
X141897773Y-108723804D01*
X141921571Y-108729765D01*
X141944671Y-108738030D01*
X141966849Y-108748520D01*
X141987893Y-108761133D01*
X142007598Y-108775747D01*
X142025777Y-108792223D01*
X142042253Y-108810402D01*
X142056867Y-108830107D01*
X142069480Y-108851151D01*
X142079970Y-108873329D01*
X142088235Y-108896429D01*
X142094196Y-108920227D01*
X142097796Y-108944496D01*
X142099000Y-108969000D01*
X142099000Y-109719000D01*
X142097796Y-109743504D01*
X142094196Y-109767773D01*
X142088235Y-109791571D01*
X142079970Y-109814671D01*
X142069480Y-109836849D01*
X142056867Y-109857893D01*
X142042253Y-109877598D01*
X142025777Y-109895777D01*
X142007598Y-109912253D01*
X141987893Y-109926867D01*
X141966849Y-109939480D01*
X141944671Y-109949970D01*
X141921571Y-109958235D01*
X141897773Y-109964196D01*
X141873504Y-109967796D01*
X141849000Y-109969000D01*
X140599000Y-109969000D01*
X140574496Y-109967796D01*
X140550227Y-109964196D01*
X140526429Y-109958235D01*
X140503329Y-109949970D01*
X140481151Y-109939480D01*
X140460107Y-109926867D01*
X140440402Y-109912253D01*
X140422223Y-109895777D01*
X140405747Y-109877598D01*
X140391133Y-109857893D01*
X140378520Y-109836849D01*
X140368030Y-109814671D01*
X140359765Y-109791571D01*
X140353804Y-109767773D01*
X140350204Y-109743504D01*
X140349000Y-109719000D01*
X140349000Y-108969000D01*
X140350204Y-108944496D01*
X140353804Y-108920227D01*
X140359765Y-108896429D01*
X140368030Y-108873329D01*
X140378520Y-108851151D01*
X140391133Y-108830107D01*
X140405747Y-108810402D01*
X140422223Y-108792223D01*
X140440402Y-108775747D01*
X140460107Y-108761133D01*
X140481151Y-108748520D01*
X140503329Y-108738030D01*
X140526429Y-108729765D01*
X140550227Y-108723804D01*
X140574496Y-108720204D01*
X140599000Y-108719000D01*
X141849000Y-108719000D01*
X141873504Y-108720204D01*
X141873504Y-108720204D01*
G37*
D15*
G04 #@! TD*
G04 #@! TO.P,R18,2*
G04 #@! TO.N,GND*
X141224000Y-109344000D03*
D11*
G04 #@! TO.N,VCC*
G04 #@! TO.C,R18*
G36*
X141873504Y-111520204D02*
X141897773Y-111523804D01*
X141921571Y-111529765D01*
X141944671Y-111538030D01*
X141966849Y-111548520D01*
X141987893Y-111561133D01*
X142007598Y-111575747D01*
X142025777Y-111592223D01*
X142042253Y-111610402D01*
X142056867Y-111630107D01*
X142069480Y-111651151D01*
X142079970Y-111673329D01*
X142088235Y-111696429D01*
X142094196Y-111720227D01*
X142097796Y-111744496D01*
X142099000Y-111769000D01*
X142099000Y-112519000D01*
X142097796Y-112543504D01*
X142094196Y-112567773D01*
X142088235Y-112591571D01*
X142079970Y-112614671D01*
X142069480Y-112636849D01*
X142056867Y-112657893D01*
X142042253Y-112677598D01*
X142025777Y-112695777D01*
X142007598Y-112712253D01*
X141987893Y-112726867D01*
X141966849Y-112739480D01*
X141944671Y-112749970D01*
X141921571Y-112758235D01*
X141897773Y-112764196D01*
X141873504Y-112767796D01*
X141849000Y-112769000D01*
X140599000Y-112769000D01*
X140574496Y-112767796D01*
X140550227Y-112764196D01*
X140526429Y-112758235D01*
X140503329Y-112749970D01*
X140481151Y-112739480D01*
X140460107Y-112726867D01*
X140440402Y-112712253D01*
X140422223Y-112695777D01*
X140405747Y-112677598D01*
X140391133Y-112657893D01*
X140378520Y-112636849D01*
X140368030Y-112614671D01*
X140359765Y-112591571D01*
X140353804Y-112567773D01*
X140350204Y-112543504D01*
X140349000Y-112519000D01*
X140349000Y-111769000D01*
X140350204Y-111744496D01*
X140353804Y-111720227D01*
X140359765Y-111696429D01*
X140368030Y-111673329D01*
X140378520Y-111651151D01*
X140391133Y-111630107D01*
X140405747Y-111610402D01*
X140422223Y-111592223D01*
X140440402Y-111575747D01*
X140460107Y-111561133D01*
X140481151Y-111548520D01*
X140503329Y-111538030D01*
X140526429Y-111529765D01*
X140550227Y-111523804D01*
X140574496Y-111520204D01*
X140599000Y-111519000D01*
X141849000Y-111519000D01*
X141873504Y-111520204D01*
X141873504Y-111520204D01*
G37*
D15*
G04 #@! TD*
G04 #@! TO.P,R18,1*
G04 #@! TO.N,VCC*
X141224000Y-112144000D03*
D11*
G04 #@! TO.N,VCC*
G04 #@! TO.C,R19*
G36*
X146490958Y-98638710D02*
X146505276Y-98640834D01*
X146519317Y-98644351D01*
X146532946Y-98649228D01*
X146546031Y-98655417D01*
X146558447Y-98662858D01*
X146570073Y-98671481D01*
X146580798Y-98681202D01*
X146590519Y-98691927D01*
X146599142Y-98703553D01*
X146606583Y-98715969D01*
X146612772Y-98729054D01*
X146617649Y-98742683D01*
X146621166Y-98756724D01*
X146623290Y-98771042D01*
X146624000Y-98785500D01*
X146624000Y-99080500D01*
X146623290Y-99094958D01*
X146621166Y-99109276D01*
X146617649Y-99123317D01*
X146612772Y-99136946D01*
X146606583Y-99150031D01*
X146599142Y-99162447D01*
X146590519Y-99174073D01*
X146580798Y-99184798D01*
X146570073Y-99194519D01*
X146558447Y-99203142D01*
X146546031Y-99210583D01*
X146532946Y-99216772D01*
X146519317Y-99221649D01*
X146505276Y-99225166D01*
X146490958Y-99227290D01*
X146476500Y-99228000D01*
X146131500Y-99228000D01*
X146117042Y-99227290D01*
X146102724Y-99225166D01*
X146088683Y-99221649D01*
X146075054Y-99216772D01*
X146061969Y-99210583D01*
X146049553Y-99203142D01*
X146037927Y-99194519D01*
X146027202Y-99184798D01*
X146017481Y-99174073D01*
X146008858Y-99162447D01*
X146001417Y-99150031D01*
X145995228Y-99136946D01*
X145990351Y-99123317D01*
X145986834Y-99109276D01*
X145984710Y-99094958D01*
X145984000Y-99080500D01*
X145984000Y-98785500D01*
X145984710Y-98771042D01*
X145986834Y-98756724D01*
X145990351Y-98742683D01*
X145995228Y-98729054D01*
X146001417Y-98715969D01*
X146008858Y-98703553D01*
X146017481Y-98691927D01*
X146027202Y-98681202D01*
X146037927Y-98671481D01*
X146049553Y-98662858D01*
X146061969Y-98655417D01*
X146075054Y-98649228D01*
X146088683Y-98644351D01*
X146102724Y-98640834D01*
X146117042Y-98638710D01*
X146131500Y-98638000D01*
X146476500Y-98638000D01*
X146490958Y-98638710D01*
X146490958Y-98638710D01*
G37*
D14*
G04 #@! TD*
G04 #@! TO.P,R19,1*
G04 #@! TO.N,VCC*
X146304000Y-98933000D03*
D11*
G04 #@! TO.N,GND*
G04 #@! TO.C,R19*
G36*
X146490958Y-97668710D02*
X146505276Y-97670834D01*
X146519317Y-97674351D01*
X146532946Y-97679228D01*
X146546031Y-97685417D01*
X146558447Y-97692858D01*
X146570073Y-97701481D01*
X146580798Y-97711202D01*
X146590519Y-97721927D01*
X146599142Y-97733553D01*
X146606583Y-97745969D01*
X146612772Y-97759054D01*
X146617649Y-97772683D01*
X146621166Y-97786724D01*
X146623290Y-97801042D01*
X146624000Y-97815500D01*
X146624000Y-98110500D01*
X146623290Y-98124958D01*
X146621166Y-98139276D01*
X146617649Y-98153317D01*
X146612772Y-98166946D01*
X146606583Y-98180031D01*
X146599142Y-98192447D01*
X146590519Y-98204073D01*
X146580798Y-98214798D01*
X146570073Y-98224519D01*
X146558447Y-98233142D01*
X146546031Y-98240583D01*
X146532946Y-98246772D01*
X146519317Y-98251649D01*
X146505276Y-98255166D01*
X146490958Y-98257290D01*
X146476500Y-98258000D01*
X146131500Y-98258000D01*
X146117042Y-98257290D01*
X146102724Y-98255166D01*
X146088683Y-98251649D01*
X146075054Y-98246772D01*
X146061969Y-98240583D01*
X146049553Y-98233142D01*
X146037927Y-98224519D01*
X146027202Y-98214798D01*
X146017481Y-98204073D01*
X146008858Y-98192447D01*
X146001417Y-98180031D01*
X145995228Y-98166946D01*
X145990351Y-98153317D01*
X145986834Y-98139276D01*
X145984710Y-98124958D01*
X145984000Y-98110500D01*
X145984000Y-97815500D01*
X145984710Y-97801042D01*
X145986834Y-97786724D01*
X145990351Y-97772683D01*
X145995228Y-97759054D01*
X146001417Y-97745969D01*
X146008858Y-97733553D01*
X146017481Y-97721927D01*
X146027202Y-97711202D01*
X146037927Y-97701481D01*
X146049553Y-97692858D01*
X146061969Y-97685417D01*
X146075054Y-97679228D01*
X146088683Y-97674351D01*
X146102724Y-97670834D01*
X146117042Y-97668710D01*
X146131500Y-97668000D01*
X146476500Y-97668000D01*
X146490958Y-97668710D01*
X146490958Y-97668710D01*
G37*
D14*
G04 #@! TD*
G04 #@! TO.P,R19,2*
G04 #@! TO.N,GND*
X146304000Y-97963000D03*
D11*
G04 #@! TO.N,GND*
G04 #@! TO.C,R20*
G36*
X146784142Y-102208174D02*
X146807803Y-102211684D01*
X146831007Y-102217496D01*
X146853529Y-102225554D01*
X146875153Y-102235782D01*
X146895670Y-102248079D01*
X146914883Y-102262329D01*
X146932607Y-102278393D01*
X146948671Y-102296117D01*
X146962921Y-102315330D01*
X146975218Y-102335847D01*
X146985446Y-102357471D01*
X146993504Y-102379993D01*
X146999316Y-102403197D01*
X147002826Y-102426858D01*
X147004000Y-102450750D01*
X147004000Y-102938250D01*
X147002826Y-102962142D01*
X146999316Y-102985803D01*
X146993504Y-103009007D01*
X146985446Y-103031529D01*
X146975218Y-103053153D01*
X146962921Y-103073670D01*
X146948671Y-103092883D01*
X146932607Y-103110607D01*
X146914883Y-103126671D01*
X146895670Y-103140921D01*
X146875153Y-103153218D01*
X146853529Y-103163446D01*
X146831007Y-103171504D01*
X146807803Y-103177316D01*
X146784142Y-103180826D01*
X146760250Y-103182000D01*
X145847750Y-103182000D01*
X145823858Y-103180826D01*
X145800197Y-103177316D01*
X145776993Y-103171504D01*
X145754471Y-103163446D01*
X145732847Y-103153218D01*
X145712330Y-103140921D01*
X145693117Y-103126671D01*
X145675393Y-103110607D01*
X145659329Y-103092883D01*
X145645079Y-103073670D01*
X145632782Y-103053153D01*
X145622554Y-103031529D01*
X145614496Y-103009007D01*
X145608684Y-102985803D01*
X145605174Y-102962142D01*
X145604000Y-102938250D01*
X145604000Y-102450750D01*
X145605174Y-102426858D01*
X145608684Y-102403197D01*
X145614496Y-102379993D01*
X145622554Y-102357471D01*
X145632782Y-102335847D01*
X145645079Y-102315330D01*
X145659329Y-102296117D01*
X145675393Y-102278393D01*
X145693117Y-102262329D01*
X145712330Y-102248079D01*
X145732847Y-102235782D01*
X145754471Y-102225554D01*
X145776993Y-102217496D01*
X145800197Y-102211684D01*
X145823858Y-102208174D01*
X145847750Y-102207000D01*
X146760250Y-102207000D01*
X146784142Y-102208174D01*
X146784142Y-102208174D01*
G37*
D12*
G04 #@! TD*
G04 #@! TO.P,R20,2*
G04 #@! TO.N,GND*
X146304000Y-102694500D03*
D11*
G04 #@! TO.N,VCC*
G04 #@! TO.C,R20*
G36*
X146784142Y-104083174D02*
X146807803Y-104086684D01*
X146831007Y-104092496D01*
X146853529Y-104100554D01*
X146875153Y-104110782D01*
X146895670Y-104123079D01*
X146914883Y-104137329D01*
X146932607Y-104153393D01*
X146948671Y-104171117D01*
X146962921Y-104190330D01*
X146975218Y-104210847D01*
X146985446Y-104232471D01*
X146993504Y-104254993D01*
X146999316Y-104278197D01*
X147002826Y-104301858D01*
X147004000Y-104325750D01*
X147004000Y-104813250D01*
X147002826Y-104837142D01*
X146999316Y-104860803D01*
X146993504Y-104884007D01*
X146985446Y-104906529D01*
X146975218Y-104928153D01*
X146962921Y-104948670D01*
X146948671Y-104967883D01*
X146932607Y-104985607D01*
X146914883Y-105001671D01*
X146895670Y-105015921D01*
X146875153Y-105028218D01*
X146853529Y-105038446D01*
X146831007Y-105046504D01*
X146807803Y-105052316D01*
X146784142Y-105055826D01*
X146760250Y-105057000D01*
X145847750Y-105057000D01*
X145823858Y-105055826D01*
X145800197Y-105052316D01*
X145776993Y-105046504D01*
X145754471Y-105038446D01*
X145732847Y-105028218D01*
X145712330Y-105015921D01*
X145693117Y-105001671D01*
X145675393Y-104985607D01*
X145659329Y-104967883D01*
X145645079Y-104948670D01*
X145632782Y-104928153D01*
X145622554Y-104906529D01*
X145614496Y-104884007D01*
X145608684Y-104860803D01*
X145605174Y-104837142D01*
X145604000Y-104813250D01*
X145604000Y-104325750D01*
X145605174Y-104301858D01*
X145608684Y-104278197D01*
X145614496Y-104254993D01*
X145622554Y-104232471D01*
X145632782Y-104210847D01*
X145645079Y-104190330D01*
X145659329Y-104171117D01*
X145675393Y-104153393D01*
X145693117Y-104137329D01*
X145712330Y-104123079D01*
X145732847Y-104110782D01*
X145754471Y-104100554D01*
X145776993Y-104092496D01*
X145800197Y-104086684D01*
X145823858Y-104083174D01*
X145847750Y-104082000D01*
X146760250Y-104082000D01*
X146784142Y-104083174D01*
X146784142Y-104083174D01*
G37*
D12*
G04 #@! TD*
G04 #@! TO.P,R20,1*
G04 #@! TO.N,VCC*
X146304000Y-104569500D03*
D11*
G04 #@! TO.N,VCC*
G04 #@! TO.C,R21*
G36*
X146826504Y-111517204D02*
X146850773Y-111520804D01*
X146874571Y-111526765D01*
X146897671Y-111535030D01*
X146919849Y-111545520D01*
X146940893Y-111558133D01*
X146960598Y-111572747D01*
X146978777Y-111589223D01*
X146995253Y-111607402D01*
X147009867Y-111627107D01*
X147022480Y-111648151D01*
X147032970Y-111670329D01*
X147041235Y-111693429D01*
X147047196Y-111717227D01*
X147050796Y-111741496D01*
X147052000Y-111766000D01*
X147052000Y-112516000D01*
X147050796Y-112540504D01*
X147047196Y-112564773D01*
X147041235Y-112588571D01*
X147032970Y-112611671D01*
X147022480Y-112633849D01*
X147009867Y-112654893D01*
X146995253Y-112674598D01*
X146978777Y-112692777D01*
X146960598Y-112709253D01*
X146940893Y-112723867D01*
X146919849Y-112736480D01*
X146897671Y-112746970D01*
X146874571Y-112755235D01*
X146850773Y-112761196D01*
X146826504Y-112764796D01*
X146802000Y-112766000D01*
X145552000Y-112766000D01*
X145527496Y-112764796D01*
X145503227Y-112761196D01*
X145479429Y-112755235D01*
X145456329Y-112746970D01*
X145434151Y-112736480D01*
X145413107Y-112723867D01*
X145393402Y-112709253D01*
X145375223Y-112692777D01*
X145358747Y-112674598D01*
X145344133Y-112654893D01*
X145331520Y-112633849D01*
X145321030Y-112611671D01*
X145312765Y-112588571D01*
X145306804Y-112564773D01*
X145303204Y-112540504D01*
X145302000Y-112516000D01*
X145302000Y-111766000D01*
X145303204Y-111741496D01*
X145306804Y-111717227D01*
X145312765Y-111693429D01*
X145321030Y-111670329D01*
X145331520Y-111648151D01*
X145344133Y-111627107D01*
X145358747Y-111607402D01*
X145375223Y-111589223D01*
X145393402Y-111572747D01*
X145413107Y-111558133D01*
X145434151Y-111545520D01*
X145456329Y-111535030D01*
X145479429Y-111526765D01*
X145503227Y-111520804D01*
X145527496Y-111517204D01*
X145552000Y-111516000D01*
X146802000Y-111516000D01*
X146826504Y-111517204D01*
X146826504Y-111517204D01*
G37*
D15*
G04 #@! TD*
G04 #@! TO.P,R21,1*
G04 #@! TO.N,VCC*
X146177000Y-112141000D03*
D11*
G04 #@! TO.N,GND*
G04 #@! TO.C,R21*
G36*
X146826504Y-108717204D02*
X146850773Y-108720804D01*
X146874571Y-108726765D01*
X146897671Y-108735030D01*
X146919849Y-108745520D01*
X146940893Y-108758133D01*
X146960598Y-108772747D01*
X146978777Y-108789223D01*
X146995253Y-108807402D01*
X147009867Y-108827107D01*
X147022480Y-108848151D01*
X147032970Y-108870329D01*
X147041235Y-108893429D01*
X147047196Y-108917227D01*
X147050796Y-108941496D01*
X147052000Y-108966000D01*
X147052000Y-109716000D01*
X147050796Y-109740504D01*
X147047196Y-109764773D01*
X147041235Y-109788571D01*
X147032970Y-109811671D01*
X147022480Y-109833849D01*
X147009867Y-109854893D01*
X146995253Y-109874598D01*
X146978777Y-109892777D01*
X146960598Y-109909253D01*
X146940893Y-109923867D01*
X146919849Y-109936480D01*
X146897671Y-109946970D01*
X146874571Y-109955235D01*
X146850773Y-109961196D01*
X146826504Y-109964796D01*
X146802000Y-109966000D01*
X145552000Y-109966000D01*
X145527496Y-109964796D01*
X145503227Y-109961196D01*
X145479429Y-109955235D01*
X145456329Y-109946970D01*
X145434151Y-109936480D01*
X145413107Y-109923867D01*
X145393402Y-109909253D01*
X145375223Y-109892777D01*
X145358747Y-109874598D01*
X145344133Y-109854893D01*
X145331520Y-109833849D01*
X145321030Y-109811671D01*
X145312765Y-109788571D01*
X145306804Y-109764773D01*
X145303204Y-109740504D01*
X145302000Y-109716000D01*
X145302000Y-108966000D01*
X145303204Y-108941496D01*
X145306804Y-108917227D01*
X145312765Y-108893429D01*
X145321030Y-108870329D01*
X145331520Y-108848151D01*
X145344133Y-108827107D01*
X145358747Y-108807402D01*
X145375223Y-108789223D01*
X145393402Y-108772747D01*
X145413107Y-108758133D01*
X145434151Y-108745520D01*
X145456329Y-108735030D01*
X145479429Y-108726765D01*
X145503227Y-108720804D01*
X145527496Y-108717204D01*
X145552000Y-108716000D01*
X146802000Y-108716000D01*
X146826504Y-108717204D01*
X146826504Y-108717204D01*
G37*
D15*
G04 #@! TD*
G04 #@! TO.P,R21,2*
G04 #@! TO.N,GND*
X146177000Y-109341000D03*
D16*
G04 #@! TO.P,TP1,1*
G04 #@! TO.N,Net-(TP1-Pad1)*
X161036000Y-95631000D03*
G04 #@! TD*
G04 #@! TO.P,TP2,1*
G04 #@! TO.N,Net-(TP2-Pad1)*
X159004000Y-93218000D03*
G04 #@! TD*
G04 #@! TO.P,TP3,1*
G04 #@! TO.N,Net-(TP3-Pad1)*
X161036000Y-98425000D03*
G04 #@! TD*
G04 #@! TO.P,TP4,1*
G04 #@! TO.N,Net-(TP4-Pad1)*
X160782000Y-112268000D03*
G04 #@! TD*
G04 #@! TO.P,TP5,1*
G04 #@! TO.N,Net-(TP5-Pad1)*
X156210000Y-93091000D03*
G04 #@! TD*
G04 #@! TO.P,TP6,1*
G04 #@! TO.N,Net-(TP6-Pad1)*
X161036000Y-101600000D03*
G04 #@! TD*
G04 #@! TO.P,TP7,1*
G04 #@! TO.N,Net-(TP7-Pad1)*
X153543000Y-93091000D03*
G04 #@! TD*
G04 #@! TO.P,TP8,1*
G04 #@! TO.N,Net-(TP8-Pad1)*
X161036000Y-105029000D03*
G04 #@! TD*
G04 #@! TO.P,TP9,1*
G04 #@! TO.N,Net-(TP9-Pad1)*
X150749000Y-93091000D03*
G04 #@! TD*
G04 #@! TO.P,TP10,1*
G04 #@! TO.N,Net-(TP10-Pad1)*
X150368000Y-112268000D03*
G04 #@! TD*
G04 #@! TO.P,TP11,1*
G04 #@! TO.N,Net-(TP11-Pad1)*
X154051000Y-112268000D03*
G04 #@! TD*
G04 #@! TO.P,TP12,1*
G04 #@! TO.N,Net-(TP12-Pad1)*
X157480000Y-112268000D03*
G04 #@! TD*
D17*
G04 #@! TO.P,U1,1*
G04 #@! TO.N,Net-(TP10-Pad1)*
X154571000Y-109171000D03*
G04 #@! TO.P,U1,2*
G04 #@! TO.N,Net-(TP11-Pad1)*
X155071000Y-109171000D03*
G04 #@! TO.P,U1,3*
G04 #@! TO.N,Net-(TP12-Pad1)*
X155571000Y-109171000D03*
G04 #@! TO.P,U1,4*
G04 #@! TO.N,Net-(TP4-Pad1)*
X156071000Y-109171000D03*
D18*
G04 #@! TO.P,U1,5*
G04 #@! TO.N,Net-(U1-Pad5)*
X156796000Y-108446000D03*
G04 #@! TO.P,U1,6*
X156796000Y-107946000D03*
G04 #@! TO.P,U1,7*
X156796000Y-107446000D03*
G04 #@! TO.P,U1,8*
X156796000Y-106946000D03*
D17*
G04 #@! TO.P,U1,9*
G04 #@! TO.N,N/C*
X156071000Y-106221000D03*
G04 #@! TO.P,U1,10*
X155571000Y-106221000D03*
G04 #@! TO.P,U1,11*
X155071000Y-106221000D03*
G04 #@! TO.P,U1,12*
X154571000Y-106221000D03*
D18*
G04 #@! TO.P,U1,13*
X153846000Y-106946000D03*
G04 #@! TO.P,U1,14*
X153846000Y-107446000D03*
G04 #@! TO.P,U1,15*
X153846000Y-107946000D03*
G04 #@! TO.P,U1,16*
X153846000Y-108446000D03*
D19*
G04 #@! TO.P,U1,17*
X155321000Y-107696000D03*
G04 #@! TD*
D20*
G04 #@! TO.P,U2,1*
G04 #@! TO.N,Net-(TP8-Pad1)*
X155816000Y-101445000D03*
G04 #@! TO.P,U2,2*
G04 #@! TO.N,Net-(TP6-Pad1)*
X155816000Y-100945000D03*
G04 #@! TO.P,U2,3*
G04 #@! TO.N,Net-(TP3-Pad1)*
X155816000Y-100445000D03*
G04 #@! TO.P,U2,4*
G04 #@! TO.N,Net-(TP1-Pad1)*
X155816000Y-99945000D03*
G04 #@! TO.P,U2,5*
G04 #@! TO.N,Net-(TP2-Pad1)*
X155816000Y-99445000D03*
G04 #@! TO.P,U2,6*
G04 #@! TO.N,Net-(TP5-Pad1)*
X155816000Y-98945000D03*
G04 #@! TO.P,U2,7*
G04 #@! TO.N,Net-(TP7-Pad1)*
X155816000Y-98445000D03*
G04 #@! TO.P,U2,8*
G04 #@! TO.N,Net-(TP9-Pad1)*
X155816000Y-97945000D03*
D21*
G04 #@! TO.P,U2,9*
G04 #@! TO.N,Net-(U2-Pad10)*
X155166000Y-97295000D03*
G04 #@! TO.P,U2,10*
X154666000Y-97295000D03*
G04 #@! TO.P,U2,11*
X154166000Y-97295000D03*
G04 #@! TO.P,U2,12*
X153666000Y-97295000D03*
G04 #@! TO.P,U2,13*
X153166000Y-97295000D03*
G04 #@! TO.P,U2,14*
X152666000Y-97295000D03*
G04 #@! TO.P,U2,15*
X152166000Y-97295000D03*
G04 #@! TO.P,U2,16*
X151666000Y-97295000D03*
D20*
G04 #@! TO.P,U2,17*
G04 #@! TO.N,N/C*
X151016000Y-97945000D03*
G04 #@! TO.P,U2,18*
X151016000Y-98445000D03*
G04 #@! TO.P,U2,19*
X151016000Y-98945000D03*
G04 #@! TO.P,U2,20*
X151016000Y-99445000D03*
G04 #@! TO.P,U2,21*
X151016000Y-99945000D03*
G04 #@! TO.P,U2,22*
X151016000Y-100445000D03*
G04 #@! TO.P,U2,23*
X151016000Y-100945000D03*
G04 #@! TO.P,U2,24*
X151016000Y-101445000D03*
D21*
G04 #@! TO.P,U2,25*
X151666000Y-102095000D03*
G04 #@! TO.P,U2,26*
X152166000Y-102095000D03*
G04 #@! TO.P,U2,27*
X152666000Y-102095000D03*
G04 #@! TO.P,U2,28*
G04 #@! TO.N,Net-(U2-Pad10)*
X153166000Y-102095000D03*
G04 #@! TO.P,U2,29*
G04 #@! TO.N,N/C*
X153666000Y-102095000D03*
G04 #@! TO.P,U2,30*
X154166000Y-102095000D03*
G04 #@! TO.P,U2,31*
X154666000Y-102095000D03*
G04 #@! TO.P,U2,32*
X155166000Y-102095000D03*
D22*
G04 #@! TO.P,U2,33*
X153416000Y-99695000D03*
G04 #@! TD*
D23*
G04 #@! TO.P,U3,1*
G04 #@! TO.N,N/C*
X136273500Y-93091000D03*
G04 #@! TO.P,U3,2*
X137223500Y-93091000D03*
G04 #@! TO.P,U3,3*
X138173500Y-93091000D03*
G04 #@! TO.P,U3,4*
X138173500Y-90891000D03*
G04 #@! TO.P,U3,6*
X136273500Y-90891000D03*
G04 #@! TO.P,U3,5*
X137223500Y-90891000D03*
G04 #@! TD*
D24*
G04 #@! TO.N,VCC*
X146558000Y-111887000D03*
X145669000Y-112395000D03*
X141224000Y-112141000D03*
X146812000Y-104267000D03*
X145923000Y-104775000D03*
X141224000Y-104521000D03*
G04 #@! TO.N,GND*
X146304000Y-97917000D03*
G04 #@! TO.N,VCC*
X146304000Y-98933000D03*
X141224000Y-98933000D03*
G04 #@! TD*
D25*
G04 #@! TO.N,*
X158242000Y-108458000D02*
X158242000Y-109601000D01*
X158242000Y-108458000D02*
X158242000Y-105791000D01*
X158242000Y-108712000D02*
X158242000Y-108458000D01*
X155448000Y-95885000D02*
X156210000Y-95885000D01*
X151638000Y-95885000D02*
X150622000Y-95885000D01*
X151638000Y-95885000D02*
X151384000Y-95885000D01*
X155448000Y-95885000D02*
X151638000Y-95885000D01*
G04 #@! TO.N,Net-(TP1-Pad1)*
X156722000Y-99945000D02*
X156726000Y-99949000D01*
X155816000Y-99945000D02*
X156722000Y-99945000D01*
X156726000Y-99949000D02*
X158242000Y-99949000D01*
X158242000Y-99949000D02*
X159385000Y-98806000D01*
X159385000Y-97282000D02*
X161036000Y-95631000D01*
X159385000Y-98806000D02*
X159385000Y-97282000D01*
G04 #@! TO.N,Net-(TP2-Pad1)*
X155816000Y-99445000D02*
X157857000Y-99445000D01*
X157857000Y-99445000D02*
X158877000Y-98425000D01*
X158877000Y-98425000D02*
X158877000Y-96901000D01*
X158877000Y-96901000D02*
X158877000Y-96774000D01*
X159004000Y-93980000D02*
X159004000Y-93218000D01*
X158877000Y-94107000D02*
X159004000Y-93980000D01*
X158877000Y-94107000D02*
X158877000Y-93980000D01*
X158877000Y-96774000D02*
X158877000Y-94107000D01*
G04 #@! TO.N,Net-(TP3-Pad1)*
X159016000Y-100445000D02*
X161036000Y-98425000D01*
X155816000Y-100445000D02*
X159016000Y-100445000D01*
G04 #@! TO.N,Net-(TP4-Pad1)*
X156071000Y-109796000D02*
X156210000Y-109935000D01*
X156071000Y-109171000D02*
X156071000Y-109796000D01*
X156210000Y-109935000D02*
X156210000Y-109982000D01*
X156210000Y-109982000D02*
X156718000Y-110490000D01*
X159004000Y-110490000D02*
X160782000Y-112268000D01*
X156718000Y-110490000D02*
X159004000Y-110490000D01*
G04 #@! TO.N,Net-(TP5-Pad1)*
X155816000Y-98945000D02*
X157595000Y-98945000D01*
X157595000Y-98945000D02*
X158369000Y-98171000D01*
X158369000Y-95250000D02*
X156210000Y-93091000D01*
X158369000Y-98171000D02*
X158369000Y-95250000D01*
G04 #@! TO.N,Net-(TP6-Pad1)*
X160381000Y-100945000D02*
X161036000Y-101600000D01*
X155816000Y-100945000D02*
X160381000Y-100945000D01*
G04 #@! TO.N,Net-(TP7-Pad1)*
X155816000Y-98445000D02*
X157333000Y-98445000D01*
X157333000Y-98445000D02*
X157861000Y-97917000D01*
X157861000Y-97917000D02*
X157861000Y-95885000D01*
X157861000Y-95885000D02*
X156464000Y-94488000D01*
X154940000Y-94488000D02*
X153543000Y-93091000D01*
X156464000Y-94488000D02*
X154940000Y-94488000D01*
G04 #@! TO.N,Net-(TP8-Pad1)*
X157579000Y-101445000D02*
X161163000Y-105029000D01*
X155816000Y-101445000D02*
X157579000Y-101445000D01*
G04 #@! TO.N,Net-(TP9-Pad1)*
X157071000Y-97945000D02*
X155816000Y-97945000D01*
X157353000Y-97663000D02*
X157071000Y-97945000D01*
X157353000Y-96013410D02*
X157353000Y-97663000D01*
X156277600Y-94938010D02*
X157353000Y-96013410D01*
X150749000Y-93091000D02*
X152596010Y-94938010D01*
X152596010Y-94938010D02*
X156277600Y-94938010D01*
G04 #@! TO.N,Net-(TP10-Pad1)*
X154571000Y-109796000D02*
X154004000Y-110363000D01*
X154571000Y-109171000D02*
X154571000Y-109796000D01*
X152273000Y-110363000D02*
X150368000Y-112268000D01*
X154004000Y-110363000D02*
X152273000Y-110363000D01*
G04 #@! TO.N,Net-(TP11-Pad1)*
X155071000Y-111248000D02*
X154051000Y-112268000D01*
X155071000Y-109171000D02*
X155071000Y-111248000D01*
G04 #@! TO.N,Net-(TP12-Pad1)*
X155571000Y-110359000D02*
X155571000Y-109171000D01*
X157480000Y-112268000D02*
X155571000Y-110359000D01*
D26*
G04 #@! TO.N,Net-(U1-Pad5)*
X156796000Y-108446000D02*
X156796000Y-107124500D01*
D25*
X156796000Y-107124500D02*
X156796000Y-106946000D01*
G04 #@! TO.N,Net-(U2-Pad10)*
X155166000Y-97295000D02*
X152666000Y-97295000D01*
D26*
X151666000Y-97295000D02*
X155166000Y-97295000D01*
G04 #@! TD*
D27*
G04 #@! TO.N,VCC*
G36*
X119314000Y-98431102D02*
X119314000Y-98520250D01*
X119472750Y-98679000D01*
X119734029Y-98679000D01*
X119792290Y-98717929D01*
X120096500Y-98778440D01*
X120441500Y-98778440D01*
X120745710Y-98717929D01*
X120803971Y-98679000D01*
X121065250Y-98679000D01*
X121224000Y-98520250D01*
X121224000Y-98439094D01*
X124100775Y-98451130D01*
X124233393Y-98649607D01*
X124491290Y-98821929D01*
X124795500Y-98882440D01*
X125140500Y-98882440D01*
X125444710Y-98821929D01*
X125702607Y-98649607D01*
X125830390Y-98458367D01*
X128685592Y-98470314D01*
X128805393Y-98649607D01*
X129063290Y-98821929D01*
X129367500Y-98882440D01*
X129712500Y-98882440D01*
X130016710Y-98821929D01*
X130274607Y-98649607D01*
X130389643Y-98477444D01*
X133792000Y-98491679D01*
X133792000Y-98624250D01*
X133950750Y-98783000D01*
X134212029Y-98783000D01*
X134270290Y-98821929D01*
X134574500Y-98882440D01*
X134919500Y-98882440D01*
X135223710Y-98821929D01*
X135255000Y-98801022D01*
X135286290Y-98821929D01*
X135590500Y-98882440D01*
X135935500Y-98882440D01*
X136239710Y-98821929D01*
X136297971Y-98783000D01*
X136559250Y-98783000D01*
X136718000Y-98624250D01*
X136718000Y-98503922D01*
X140269000Y-98518780D01*
X140269000Y-98647250D01*
X140427750Y-98806000D01*
X140689029Y-98806000D01*
X140747290Y-98844929D01*
X141051500Y-98905440D01*
X141396500Y-98905440D01*
X141700710Y-98844929D01*
X141758971Y-98806000D01*
X142020250Y-98806000D01*
X142179000Y-98647250D01*
X142179000Y-98526771D01*
X145349000Y-98540035D01*
X145349000Y-98647250D01*
X145507750Y-98806000D01*
X145745650Y-98806000D01*
X145807159Y-98831478D01*
X145827290Y-98844929D01*
X145851037Y-98849653D01*
X146098126Y-98952000D01*
X146509874Y-98952000D01*
X146756963Y-98849653D01*
X146780710Y-98844929D01*
X146800841Y-98831478D01*
X146862350Y-98806000D01*
X147100250Y-98806000D01*
X147259000Y-98647250D01*
X147259000Y-98548026D01*
X148082000Y-98551470D01*
X148082000Y-100330000D01*
X118523500Y-100330000D01*
X118523500Y-99091750D01*
X119314000Y-99091750D01*
X119314000Y-99227309D01*
X119410673Y-99460698D01*
X119589301Y-99639327D01*
X119822690Y-99736000D01*
X119983250Y-99736000D01*
X120142000Y-99577250D01*
X120142000Y-98933000D01*
X120396000Y-98933000D01*
X120396000Y-99577250D01*
X120554750Y-99736000D01*
X120715310Y-99736000D01*
X120948699Y-99639327D01*
X121127327Y-99460698D01*
X121224000Y-99227309D01*
X121224000Y-99195750D01*
X133792000Y-99195750D01*
X133792000Y-99331309D01*
X133888673Y-99564698D01*
X134067301Y-99743327D01*
X134300690Y-99840000D01*
X134461250Y-99840000D01*
X134620000Y-99681250D01*
X134620000Y-99195750D01*
X134808000Y-99195750D01*
X134808000Y-99331309D01*
X134874000Y-99490647D01*
X134874000Y-99681250D01*
X135032750Y-99840000D01*
X135193310Y-99840000D01*
X135255000Y-99814447D01*
X135316690Y-99840000D01*
X135477250Y-99840000D01*
X135636000Y-99681250D01*
X135636000Y-99490647D01*
X135702000Y-99331309D01*
X135702000Y-99195750D01*
X135636000Y-99129750D01*
X135636000Y-99037000D01*
X135890000Y-99037000D01*
X135890000Y-99681250D01*
X136048750Y-99840000D01*
X136209310Y-99840000D01*
X136442699Y-99743327D01*
X136621327Y-99564698D01*
X136718000Y-99331309D01*
X136718000Y-99218750D01*
X140269000Y-99218750D01*
X140269000Y-99354309D01*
X140365673Y-99587698D01*
X140544301Y-99766327D01*
X140777690Y-99863000D01*
X140938250Y-99863000D01*
X141097000Y-99704250D01*
X141097000Y-99060000D01*
X141351000Y-99060000D01*
X141351000Y-99704250D01*
X141509750Y-99863000D01*
X141670310Y-99863000D01*
X141903699Y-99766327D01*
X142082327Y-99587698D01*
X142179000Y-99354309D01*
X142179000Y-99218750D01*
X145349000Y-99218750D01*
X145349000Y-99354309D01*
X145445673Y-99587698D01*
X145624301Y-99766327D01*
X145857690Y-99863000D01*
X146018250Y-99863000D01*
X146177000Y-99704250D01*
X146177000Y-99060000D01*
X146431000Y-99060000D01*
X146431000Y-99704250D01*
X146589750Y-99863000D01*
X146750310Y-99863000D01*
X146983699Y-99766327D01*
X147162327Y-99587698D01*
X147259000Y-99354309D01*
X147259000Y-99218750D01*
X147100250Y-99060000D01*
X146431000Y-99060000D01*
X146177000Y-99060000D01*
X145507750Y-99060000D01*
X145349000Y-99218750D01*
X142179000Y-99218750D01*
X142020250Y-99060000D01*
X141351000Y-99060000D01*
X141097000Y-99060000D01*
X140427750Y-99060000D01*
X140269000Y-99218750D01*
X136718000Y-99218750D01*
X136718000Y-99195750D01*
X136559250Y-99037000D01*
X135890000Y-99037000D01*
X135636000Y-99037000D01*
X134874000Y-99037000D01*
X134874000Y-99129750D01*
X134808000Y-99195750D01*
X134620000Y-99195750D01*
X134620000Y-99037000D01*
X133950750Y-99037000D01*
X133792000Y-99195750D01*
X121224000Y-99195750D01*
X121224000Y-99091750D01*
X121065250Y-98933000D01*
X120396000Y-98933000D01*
X120142000Y-98933000D01*
X119472750Y-98933000D01*
X119314000Y-99091750D01*
X118523500Y-99091750D01*
X118523500Y-98427795D01*
X119314000Y-98431102D01*
X119314000Y-98431102D01*
G37*
X119314000Y-98431102D02*
X119314000Y-98520250D01*
X119472750Y-98679000D01*
X119734029Y-98679000D01*
X119792290Y-98717929D01*
X120096500Y-98778440D01*
X120441500Y-98778440D01*
X120745710Y-98717929D01*
X120803971Y-98679000D01*
X121065250Y-98679000D01*
X121224000Y-98520250D01*
X121224000Y-98439094D01*
X124100775Y-98451130D01*
X124233393Y-98649607D01*
X124491290Y-98821929D01*
X124795500Y-98882440D01*
X125140500Y-98882440D01*
X125444710Y-98821929D01*
X125702607Y-98649607D01*
X125830390Y-98458367D01*
X128685592Y-98470314D01*
X128805393Y-98649607D01*
X129063290Y-98821929D01*
X129367500Y-98882440D01*
X129712500Y-98882440D01*
X130016710Y-98821929D01*
X130274607Y-98649607D01*
X130389643Y-98477444D01*
X133792000Y-98491679D01*
X133792000Y-98624250D01*
X133950750Y-98783000D01*
X134212029Y-98783000D01*
X134270290Y-98821929D01*
X134574500Y-98882440D01*
X134919500Y-98882440D01*
X135223710Y-98821929D01*
X135255000Y-98801022D01*
X135286290Y-98821929D01*
X135590500Y-98882440D01*
X135935500Y-98882440D01*
X136239710Y-98821929D01*
X136297971Y-98783000D01*
X136559250Y-98783000D01*
X136718000Y-98624250D01*
X136718000Y-98503922D01*
X140269000Y-98518780D01*
X140269000Y-98647250D01*
X140427750Y-98806000D01*
X140689029Y-98806000D01*
X140747290Y-98844929D01*
X141051500Y-98905440D01*
X141396500Y-98905440D01*
X141700710Y-98844929D01*
X141758971Y-98806000D01*
X142020250Y-98806000D01*
X142179000Y-98647250D01*
X142179000Y-98526771D01*
X145349000Y-98540035D01*
X145349000Y-98647250D01*
X145507750Y-98806000D01*
X145745650Y-98806000D01*
X145807159Y-98831478D01*
X145827290Y-98844929D01*
X145851037Y-98849653D01*
X146098126Y-98952000D01*
X146509874Y-98952000D01*
X146756963Y-98849653D01*
X146780710Y-98844929D01*
X146800841Y-98831478D01*
X146862350Y-98806000D01*
X147100250Y-98806000D01*
X147259000Y-98647250D01*
X147259000Y-98548026D01*
X148082000Y-98551470D01*
X148082000Y-100330000D01*
X118523500Y-100330000D01*
X118523500Y-99091750D01*
X119314000Y-99091750D01*
X119314000Y-99227309D01*
X119410673Y-99460698D01*
X119589301Y-99639327D01*
X119822690Y-99736000D01*
X119983250Y-99736000D01*
X120142000Y-99577250D01*
X120142000Y-98933000D01*
X120396000Y-98933000D01*
X120396000Y-99577250D01*
X120554750Y-99736000D01*
X120715310Y-99736000D01*
X120948699Y-99639327D01*
X121127327Y-99460698D01*
X121224000Y-99227309D01*
X121224000Y-99195750D01*
X133792000Y-99195750D01*
X133792000Y-99331309D01*
X133888673Y-99564698D01*
X134067301Y-99743327D01*
X134300690Y-99840000D01*
X134461250Y-99840000D01*
X134620000Y-99681250D01*
X134620000Y-99195750D01*
X134808000Y-99195750D01*
X134808000Y-99331309D01*
X134874000Y-99490647D01*
X134874000Y-99681250D01*
X135032750Y-99840000D01*
X135193310Y-99840000D01*
X135255000Y-99814447D01*
X135316690Y-99840000D01*
X135477250Y-99840000D01*
X135636000Y-99681250D01*
X135636000Y-99490647D01*
X135702000Y-99331309D01*
X135702000Y-99195750D01*
X135636000Y-99129750D01*
X135636000Y-99037000D01*
X135890000Y-99037000D01*
X135890000Y-99681250D01*
X136048750Y-99840000D01*
X136209310Y-99840000D01*
X136442699Y-99743327D01*
X136621327Y-99564698D01*
X136718000Y-99331309D01*
X136718000Y-99218750D01*
X140269000Y-99218750D01*
X140269000Y-99354309D01*
X140365673Y-99587698D01*
X140544301Y-99766327D01*
X140777690Y-99863000D01*
X140938250Y-99863000D01*
X141097000Y-99704250D01*
X141097000Y-99060000D01*
X141351000Y-99060000D01*
X141351000Y-99704250D01*
X141509750Y-99863000D01*
X141670310Y-99863000D01*
X141903699Y-99766327D01*
X142082327Y-99587698D01*
X142179000Y-99354309D01*
X142179000Y-99218750D01*
X145349000Y-99218750D01*
X145349000Y-99354309D01*
X145445673Y-99587698D01*
X145624301Y-99766327D01*
X145857690Y-99863000D01*
X146018250Y-99863000D01*
X146177000Y-99704250D01*
X146177000Y-99060000D01*
X146431000Y-99060000D01*
X146431000Y-99704250D01*
X146589750Y-99863000D01*
X146750310Y-99863000D01*
X146983699Y-99766327D01*
X147162327Y-99587698D01*
X147259000Y-99354309D01*
X147259000Y-99218750D01*
X147100250Y-99060000D01*
X146431000Y-99060000D01*
X146177000Y-99060000D01*
X145507750Y-99060000D01*
X145349000Y-99218750D01*
X142179000Y-99218750D01*
X142020250Y-99060000D01*
X141351000Y-99060000D01*
X141097000Y-99060000D01*
X140427750Y-99060000D01*
X140269000Y-99218750D01*
X136718000Y-99218750D01*
X136718000Y-99195750D01*
X136559250Y-99037000D01*
X135890000Y-99037000D01*
X135636000Y-99037000D01*
X134874000Y-99037000D01*
X134874000Y-99129750D01*
X134808000Y-99195750D01*
X134620000Y-99195750D01*
X134620000Y-99037000D01*
X133950750Y-99037000D01*
X133792000Y-99195750D01*
X121224000Y-99195750D01*
X121224000Y-99091750D01*
X121065250Y-98933000D01*
X120396000Y-98933000D01*
X120142000Y-98933000D01*
X119472750Y-98933000D01*
X119314000Y-99091750D01*
X118523500Y-99091750D01*
X118523500Y-98427795D01*
X119314000Y-98431102D01*
G04 #@! TO.N,GND*
G36*
X148082000Y-96392470D02*
X148082000Y-97789464D01*
X147150683Y-97785567D01*
X147259000Y-97677250D01*
X147259000Y-97541691D01*
X147162327Y-97308302D01*
X146983699Y-97129673D01*
X146750310Y-97033000D01*
X146589750Y-97033000D01*
X146431000Y-97191750D01*
X146431000Y-97782556D01*
X146177000Y-97781493D01*
X146177000Y-97191750D01*
X146018250Y-97033000D01*
X145857690Y-97033000D01*
X145624301Y-97129673D01*
X145445673Y-97308302D01*
X145349000Y-97541691D01*
X145349000Y-97677250D01*
X145450202Y-97778452D01*
X142091850Y-97764400D01*
X142179000Y-97677250D01*
X142179000Y-97541691D01*
X142082327Y-97308302D01*
X141903699Y-97129673D01*
X141670310Y-97033000D01*
X141509750Y-97033000D01*
X141351000Y-97191750D01*
X141351000Y-97761300D01*
X141097000Y-97760238D01*
X141097000Y-97191750D01*
X140938250Y-97033000D01*
X140777690Y-97033000D01*
X140544301Y-97129673D01*
X140365673Y-97308302D01*
X140269000Y-97541691D01*
X140269000Y-97677250D01*
X140348857Y-97757107D01*
X136630700Y-97741550D01*
X136718000Y-97654250D01*
X136718000Y-97518691D01*
X136621327Y-97285302D01*
X136442699Y-97106673D01*
X136209310Y-97010000D01*
X136048750Y-97010000D01*
X135890000Y-97168750D01*
X135890000Y-97738451D01*
X135636000Y-97737388D01*
X135636000Y-97720250D01*
X135702000Y-97654250D01*
X135702000Y-97518691D01*
X135636000Y-97359353D01*
X135636000Y-97168750D01*
X135477250Y-97010000D01*
X135316690Y-97010000D01*
X135255000Y-97035553D01*
X135193310Y-97010000D01*
X135032750Y-97010000D01*
X134874000Y-97168750D01*
X134874000Y-97359353D01*
X134808000Y-97518691D01*
X134808000Y-97654250D01*
X134874000Y-97720250D01*
X134874000Y-97734200D01*
X134620000Y-97733137D01*
X134620000Y-97168750D01*
X134461250Y-97010000D01*
X134300690Y-97010000D01*
X134067301Y-97106673D01*
X133888673Y-97285302D01*
X133792000Y-97518691D01*
X133792000Y-97654250D01*
X133867740Y-97729990D01*
X125880679Y-97696571D01*
X125923000Y-97654250D01*
X125923000Y-97518691D01*
X125826327Y-97285302D01*
X125647699Y-97106673D01*
X125414310Y-97010000D01*
X125253750Y-97010000D01*
X125095000Y-97168750D01*
X125095000Y-97693284D01*
X124841000Y-97692221D01*
X124841000Y-97168750D01*
X124682250Y-97010000D01*
X124521690Y-97010000D01*
X124288301Y-97106673D01*
X124109673Y-97285302D01*
X124013000Y-97518691D01*
X124013000Y-97654250D01*
X124047651Y-97688901D01*
X121097692Y-97676558D01*
X121224000Y-97550250D01*
X121224000Y-97414691D01*
X121127327Y-97181302D01*
X120948699Y-97002673D01*
X120715310Y-96906000D01*
X120554750Y-96906000D01*
X120396000Y-97064750D01*
X120396000Y-97673622D01*
X120142000Y-97672560D01*
X120142000Y-97064750D01*
X119983250Y-96906000D01*
X119822690Y-96906000D01*
X119589301Y-97002673D01*
X119410673Y-97181302D01*
X119314000Y-97414691D01*
X119314000Y-97550250D01*
X119433345Y-97669595D01*
X118523500Y-97665788D01*
X118523500Y-96268795D01*
X148082000Y-96392470D01*
X148082000Y-96392470D01*
G37*
X148082000Y-96392470D02*
X148082000Y-97789464D01*
X147150683Y-97785567D01*
X147259000Y-97677250D01*
X147259000Y-97541691D01*
X147162327Y-97308302D01*
X146983699Y-97129673D01*
X146750310Y-97033000D01*
X146589750Y-97033000D01*
X146431000Y-97191750D01*
X146431000Y-97782556D01*
X146177000Y-97781493D01*
X146177000Y-97191750D01*
X146018250Y-97033000D01*
X145857690Y-97033000D01*
X145624301Y-97129673D01*
X145445673Y-97308302D01*
X145349000Y-97541691D01*
X145349000Y-97677250D01*
X145450202Y-97778452D01*
X142091850Y-97764400D01*
X142179000Y-97677250D01*
X142179000Y-97541691D01*
X142082327Y-97308302D01*
X141903699Y-97129673D01*
X141670310Y-97033000D01*
X141509750Y-97033000D01*
X141351000Y-97191750D01*
X141351000Y-97761300D01*
X141097000Y-97760238D01*
X141097000Y-97191750D01*
X140938250Y-97033000D01*
X140777690Y-97033000D01*
X140544301Y-97129673D01*
X140365673Y-97308302D01*
X140269000Y-97541691D01*
X140269000Y-97677250D01*
X140348857Y-97757107D01*
X136630700Y-97741550D01*
X136718000Y-97654250D01*
X136718000Y-97518691D01*
X136621327Y-97285302D01*
X136442699Y-97106673D01*
X136209310Y-97010000D01*
X136048750Y-97010000D01*
X135890000Y-97168750D01*
X135890000Y-97738451D01*
X135636000Y-97737388D01*
X135636000Y-97720250D01*
X135702000Y-97654250D01*
X135702000Y-97518691D01*
X135636000Y-97359353D01*
X135636000Y-97168750D01*
X135477250Y-97010000D01*
X135316690Y-97010000D01*
X135255000Y-97035553D01*
X135193310Y-97010000D01*
X135032750Y-97010000D01*
X134874000Y-97168750D01*
X134874000Y-97359353D01*
X134808000Y-97518691D01*
X134808000Y-97654250D01*
X134874000Y-97720250D01*
X134874000Y-97734200D01*
X134620000Y-97733137D01*
X134620000Y-97168750D01*
X134461250Y-97010000D01*
X134300690Y-97010000D01*
X134067301Y-97106673D01*
X133888673Y-97285302D01*
X133792000Y-97518691D01*
X133792000Y-97654250D01*
X133867740Y-97729990D01*
X125880679Y-97696571D01*
X125923000Y-97654250D01*
X125923000Y-97518691D01*
X125826327Y-97285302D01*
X125647699Y-97106673D01*
X125414310Y-97010000D01*
X125253750Y-97010000D01*
X125095000Y-97168750D01*
X125095000Y-97693284D01*
X124841000Y-97692221D01*
X124841000Y-97168750D01*
X124682250Y-97010000D01*
X124521690Y-97010000D01*
X124288301Y-97106673D01*
X124109673Y-97285302D01*
X124013000Y-97518691D01*
X124013000Y-97654250D01*
X124047651Y-97688901D01*
X121097692Y-97676558D01*
X121224000Y-97550250D01*
X121224000Y-97414691D01*
X121127327Y-97181302D01*
X120948699Y-97002673D01*
X120715310Y-96906000D01*
X120554750Y-96906000D01*
X120396000Y-97064750D01*
X120396000Y-97673622D01*
X120142000Y-97672560D01*
X120142000Y-97064750D01*
X119983250Y-96906000D01*
X119822690Y-96906000D01*
X119589301Y-97002673D01*
X119410673Y-97181302D01*
X119314000Y-97414691D01*
X119314000Y-97550250D01*
X119433345Y-97669595D01*
X118523500Y-97665788D01*
X118523500Y-96268795D01*
X148082000Y-96392470D01*
G36*
X148082000Y-102869464D02*
X147525887Y-102867137D01*
X147480250Y-102821500D01*
X146431000Y-102821500D01*
X146431000Y-102841500D01*
X146177000Y-102841500D01*
X146177000Y-102821500D01*
X145127750Y-102821500D01*
X145092296Y-102856954D01*
X142473246Y-102845996D01*
X142400250Y-102773000D01*
X141351000Y-102773000D01*
X141351000Y-102793000D01*
X141097000Y-102793000D01*
X141097000Y-102773000D01*
X140047750Y-102773000D01*
X139985164Y-102835586D01*
X137450731Y-102824981D01*
X137447250Y-102821500D01*
X136618723Y-102821500D01*
X126021410Y-102777160D01*
X126017250Y-102773000D01*
X125027223Y-102773000D01*
X118523500Y-102745788D01*
X118523500Y-102080691D01*
X118934000Y-102080691D01*
X118934000Y-102408750D01*
X119092750Y-102567500D01*
X120142000Y-102567500D01*
X120142000Y-101730750D01*
X120396000Y-101730750D01*
X120396000Y-102567500D01*
X121445250Y-102567500D01*
X121604000Y-102408750D01*
X121604000Y-102080691D01*
X121583911Y-102032191D01*
X123506000Y-102032191D01*
X123506000Y-102360250D01*
X123664750Y-102519000D01*
X124714000Y-102519000D01*
X124714000Y-101682250D01*
X124968000Y-101682250D01*
X124968000Y-102519000D01*
X126017250Y-102519000D01*
X126176000Y-102360250D01*
X126176000Y-102080691D01*
X133031000Y-102080691D01*
X133031000Y-102408750D01*
X133189750Y-102567500D01*
X134239000Y-102567500D01*
X134239000Y-101730750D01*
X134493000Y-101730750D01*
X134493000Y-102567500D01*
X136144000Y-102567500D01*
X136144000Y-101730750D01*
X136398000Y-101730750D01*
X136398000Y-102567500D01*
X137447250Y-102567500D01*
X137606000Y-102408750D01*
X137606000Y-102080691D01*
X137585911Y-102032191D01*
X139889000Y-102032191D01*
X139889000Y-102360250D01*
X140047750Y-102519000D01*
X141097000Y-102519000D01*
X141097000Y-101682250D01*
X141351000Y-101682250D01*
X141351000Y-102519000D01*
X142400250Y-102519000D01*
X142559000Y-102360250D01*
X142559000Y-102080691D01*
X144969000Y-102080691D01*
X144969000Y-102408750D01*
X145127750Y-102567500D01*
X146177000Y-102567500D01*
X146177000Y-101730750D01*
X146431000Y-101730750D01*
X146431000Y-102567500D01*
X147480250Y-102567500D01*
X147639000Y-102408750D01*
X147639000Y-102080691D01*
X147542327Y-101847302D01*
X147363699Y-101668673D01*
X147130310Y-101572000D01*
X146589750Y-101572000D01*
X146431000Y-101730750D01*
X146177000Y-101730750D01*
X146018250Y-101572000D01*
X145477690Y-101572000D01*
X145244301Y-101668673D01*
X145065673Y-101847302D01*
X144969000Y-102080691D01*
X142559000Y-102080691D01*
X142559000Y-102032191D01*
X142462327Y-101798802D01*
X142283699Y-101620173D01*
X142050310Y-101523500D01*
X141509750Y-101523500D01*
X141351000Y-101682250D01*
X141097000Y-101682250D01*
X140938250Y-101523500D01*
X140397690Y-101523500D01*
X140164301Y-101620173D01*
X139985673Y-101798802D01*
X139889000Y-102032191D01*
X137585911Y-102032191D01*
X137509327Y-101847302D01*
X137330699Y-101668673D01*
X137097310Y-101572000D01*
X136556750Y-101572000D01*
X136398000Y-101730750D01*
X136144000Y-101730750D01*
X135985250Y-101572000D01*
X135444690Y-101572000D01*
X135318500Y-101624270D01*
X135192310Y-101572000D01*
X134651750Y-101572000D01*
X134493000Y-101730750D01*
X134239000Y-101730750D01*
X134080250Y-101572000D01*
X133539690Y-101572000D01*
X133306301Y-101668673D01*
X133127673Y-101847302D01*
X133031000Y-102080691D01*
X126176000Y-102080691D01*
X126176000Y-102032191D01*
X126079327Y-101798802D01*
X125900699Y-101620173D01*
X125667310Y-101523500D01*
X125126750Y-101523500D01*
X124968000Y-101682250D01*
X124714000Y-101682250D01*
X124555250Y-101523500D01*
X124014690Y-101523500D01*
X123781301Y-101620173D01*
X123602673Y-101798802D01*
X123506000Y-102032191D01*
X121583911Y-102032191D01*
X121507327Y-101847302D01*
X121328699Y-101668673D01*
X121095310Y-101572000D01*
X120554750Y-101572000D01*
X120396000Y-101730750D01*
X120142000Y-101730750D01*
X119983250Y-101572000D01*
X119442690Y-101572000D01*
X119209301Y-101668673D01*
X119030673Y-101847302D01*
X118934000Y-102080691D01*
X118523500Y-102080691D01*
X118523500Y-101092000D01*
X148082000Y-101092000D01*
X148082000Y-102869464D01*
X148082000Y-102869464D01*
G37*
X148082000Y-102869464D02*
X147525887Y-102867137D01*
X147480250Y-102821500D01*
X146431000Y-102821500D01*
X146431000Y-102841500D01*
X146177000Y-102841500D01*
X146177000Y-102821500D01*
X145127750Y-102821500D01*
X145092296Y-102856954D01*
X142473246Y-102845996D01*
X142400250Y-102773000D01*
X141351000Y-102773000D01*
X141351000Y-102793000D01*
X141097000Y-102793000D01*
X141097000Y-102773000D01*
X140047750Y-102773000D01*
X139985164Y-102835586D01*
X137450731Y-102824981D01*
X137447250Y-102821500D01*
X136618723Y-102821500D01*
X126021410Y-102777160D01*
X126017250Y-102773000D01*
X125027223Y-102773000D01*
X118523500Y-102745788D01*
X118523500Y-102080691D01*
X118934000Y-102080691D01*
X118934000Y-102408750D01*
X119092750Y-102567500D01*
X120142000Y-102567500D01*
X120142000Y-101730750D01*
X120396000Y-101730750D01*
X120396000Y-102567500D01*
X121445250Y-102567500D01*
X121604000Y-102408750D01*
X121604000Y-102080691D01*
X121583911Y-102032191D01*
X123506000Y-102032191D01*
X123506000Y-102360250D01*
X123664750Y-102519000D01*
X124714000Y-102519000D01*
X124714000Y-101682250D01*
X124968000Y-101682250D01*
X124968000Y-102519000D01*
X126017250Y-102519000D01*
X126176000Y-102360250D01*
X126176000Y-102080691D01*
X133031000Y-102080691D01*
X133031000Y-102408750D01*
X133189750Y-102567500D01*
X134239000Y-102567500D01*
X134239000Y-101730750D01*
X134493000Y-101730750D01*
X134493000Y-102567500D01*
X136144000Y-102567500D01*
X136144000Y-101730750D01*
X136398000Y-101730750D01*
X136398000Y-102567500D01*
X137447250Y-102567500D01*
X137606000Y-102408750D01*
X137606000Y-102080691D01*
X137585911Y-102032191D01*
X139889000Y-102032191D01*
X139889000Y-102360250D01*
X140047750Y-102519000D01*
X141097000Y-102519000D01*
X141097000Y-101682250D01*
X141351000Y-101682250D01*
X141351000Y-102519000D01*
X142400250Y-102519000D01*
X142559000Y-102360250D01*
X142559000Y-102080691D01*
X144969000Y-102080691D01*
X144969000Y-102408750D01*
X145127750Y-102567500D01*
X146177000Y-102567500D01*
X146177000Y-101730750D01*
X146431000Y-101730750D01*
X146431000Y-102567500D01*
X147480250Y-102567500D01*
X147639000Y-102408750D01*
X147639000Y-102080691D01*
X147542327Y-101847302D01*
X147363699Y-101668673D01*
X147130310Y-101572000D01*
X146589750Y-101572000D01*
X146431000Y-101730750D01*
X146177000Y-101730750D01*
X146018250Y-101572000D01*
X145477690Y-101572000D01*
X145244301Y-101668673D01*
X145065673Y-101847302D01*
X144969000Y-102080691D01*
X142559000Y-102080691D01*
X142559000Y-102032191D01*
X142462327Y-101798802D01*
X142283699Y-101620173D01*
X142050310Y-101523500D01*
X141509750Y-101523500D01*
X141351000Y-101682250D01*
X141097000Y-101682250D01*
X140938250Y-101523500D01*
X140397690Y-101523500D01*
X140164301Y-101620173D01*
X139985673Y-101798802D01*
X139889000Y-102032191D01*
X137585911Y-102032191D01*
X137509327Y-101847302D01*
X137330699Y-101668673D01*
X137097310Y-101572000D01*
X136556750Y-101572000D01*
X136398000Y-101730750D01*
X136144000Y-101730750D01*
X135985250Y-101572000D01*
X135444690Y-101572000D01*
X135318500Y-101624270D01*
X135192310Y-101572000D01*
X134651750Y-101572000D01*
X134493000Y-101730750D01*
X134239000Y-101730750D01*
X134080250Y-101572000D01*
X133539690Y-101572000D01*
X133306301Y-101668673D01*
X133127673Y-101847302D01*
X133031000Y-102080691D01*
X126176000Y-102080691D01*
X126176000Y-102032191D01*
X126079327Y-101798802D01*
X125900699Y-101620173D01*
X125667310Y-101523500D01*
X125126750Y-101523500D01*
X124968000Y-101682250D01*
X124714000Y-101682250D01*
X124555250Y-101523500D01*
X124014690Y-101523500D01*
X123781301Y-101620173D01*
X123602673Y-101798802D01*
X123506000Y-102032191D01*
X121583911Y-102032191D01*
X121507327Y-101847302D01*
X121328699Y-101668673D01*
X121095310Y-101572000D01*
X120554750Y-101572000D01*
X120396000Y-101730750D01*
X120142000Y-101730750D01*
X119983250Y-101572000D01*
X119442690Y-101572000D01*
X119209301Y-101668673D01*
X119030673Y-101847302D01*
X118934000Y-102080691D01*
X118523500Y-102080691D01*
X118523500Y-101092000D01*
X148082000Y-101092000D01*
X148082000Y-102869464D01*
G04 #@! TO.N,VCC*
G36*
X119143812Y-103510390D02*
X119182584Y-103568416D01*
X119183767Y-103569207D01*
X119030673Y-103722302D01*
X118934000Y-103955691D01*
X118934000Y-104283750D01*
X119092750Y-104442500D01*
X120142000Y-104442500D01*
X120142000Y-104422500D01*
X120396000Y-104422500D01*
X120396000Y-104442500D01*
X121445250Y-104442500D01*
X121604000Y-104283750D01*
X121604000Y-103955691D01*
X121507327Y-103722302D01*
X121354233Y-103569207D01*
X121355416Y-103568416D01*
X121387914Y-103519779D01*
X123769292Y-103529743D01*
X124043706Y-103713102D01*
X124384750Y-103780940D01*
X125297250Y-103780940D01*
X125638294Y-103713102D01*
X125899370Y-103538656D01*
X128497902Y-103549528D01*
X128742706Y-103713102D01*
X129083750Y-103780940D01*
X129996250Y-103780940D01*
X130337294Y-103713102D01*
X130569128Y-103558195D01*
X133280435Y-103569539D01*
X133127673Y-103722302D01*
X133031000Y-103955691D01*
X133031000Y-104283750D01*
X133189750Y-104442500D01*
X134239000Y-104442500D01*
X134239000Y-104422500D01*
X134493000Y-104422500D01*
X134493000Y-104442500D01*
X136144000Y-104442500D01*
X136144000Y-104422500D01*
X136398000Y-104422500D01*
X136398000Y-104442500D01*
X137447250Y-104442500D01*
X137606000Y-104283750D01*
X137606000Y-103955691D01*
X137509327Y-103722302D01*
X137373691Y-103586665D01*
X140061563Y-103597912D01*
X139985673Y-103673802D01*
X139889000Y-103907191D01*
X139889000Y-104235250D01*
X140047750Y-104394000D01*
X141097000Y-104394000D01*
X141097000Y-104374000D01*
X141351000Y-104374000D01*
X141351000Y-104394000D01*
X142400250Y-104394000D01*
X142559000Y-104235250D01*
X142559000Y-103907191D01*
X142462327Y-103673802D01*
X142396206Y-103607680D01*
X145168694Y-103619280D01*
X145065673Y-103722302D01*
X144969000Y-103955691D01*
X144969000Y-104283750D01*
X145127750Y-104442500D01*
X146177000Y-104442500D01*
X146177000Y-104422500D01*
X146431000Y-104422500D01*
X146431000Y-104442500D01*
X147480250Y-104442500D01*
X147639000Y-104283750D01*
X147639000Y-103955691D01*
X147542327Y-103722302D01*
X147448846Y-103628821D01*
X148082000Y-103631470D01*
X148082000Y-106172000D01*
X118587000Y-106172000D01*
X118587000Y-104855250D01*
X118934000Y-104855250D01*
X118934000Y-105183309D01*
X119030673Y-105416698D01*
X119209301Y-105595327D01*
X119442690Y-105692000D01*
X119983250Y-105692000D01*
X120142000Y-105533250D01*
X120142000Y-104696500D01*
X120396000Y-104696500D01*
X120396000Y-105533250D01*
X120554750Y-105692000D01*
X121095310Y-105692000D01*
X121328699Y-105595327D01*
X121507327Y-105416698D01*
X121604000Y-105183309D01*
X121604000Y-104855250D01*
X133031000Y-104855250D01*
X133031000Y-105183309D01*
X133127673Y-105416698D01*
X133306301Y-105595327D01*
X133539690Y-105692000D01*
X134080250Y-105692000D01*
X134239000Y-105533250D01*
X134239000Y-104696500D01*
X134493000Y-104696500D01*
X134493000Y-105533250D01*
X134651750Y-105692000D01*
X135192310Y-105692000D01*
X135318500Y-105639730D01*
X135444690Y-105692000D01*
X135985250Y-105692000D01*
X136144000Y-105533250D01*
X136144000Y-104696500D01*
X136398000Y-104696500D01*
X136398000Y-105533250D01*
X136556750Y-105692000D01*
X137097310Y-105692000D01*
X137330699Y-105595327D01*
X137509327Y-105416698D01*
X137606000Y-105183309D01*
X137606000Y-104855250D01*
X137557500Y-104806750D01*
X139889000Y-104806750D01*
X139889000Y-105134809D01*
X139985673Y-105368198D01*
X140164301Y-105546827D01*
X140397690Y-105643500D01*
X140938250Y-105643500D01*
X141097000Y-105484750D01*
X141097000Y-104648000D01*
X141351000Y-104648000D01*
X141351000Y-105484750D01*
X141509750Y-105643500D01*
X142050310Y-105643500D01*
X142283699Y-105546827D01*
X142462327Y-105368198D01*
X142559000Y-105134809D01*
X142559000Y-104855250D01*
X144969000Y-104855250D01*
X144969000Y-105183309D01*
X145065673Y-105416698D01*
X145244301Y-105595327D01*
X145477690Y-105692000D01*
X146018250Y-105692000D01*
X146177000Y-105533250D01*
X146177000Y-104696500D01*
X146431000Y-104696500D01*
X146431000Y-105533250D01*
X146589750Y-105692000D01*
X147130310Y-105692000D01*
X147363699Y-105595327D01*
X147542327Y-105416698D01*
X147639000Y-105183309D01*
X147639000Y-104855250D01*
X147480250Y-104696500D01*
X146431000Y-104696500D01*
X146177000Y-104696500D01*
X145127750Y-104696500D01*
X144969000Y-104855250D01*
X142559000Y-104855250D01*
X142559000Y-104806750D01*
X142400250Y-104648000D01*
X141351000Y-104648000D01*
X141097000Y-104648000D01*
X140047750Y-104648000D01*
X139889000Y-104806750D01*
X137557500Y-104806750D01*
X137447250Y-104696500D01*
X136398000Y-104696500D01*
X136144000Y-104696500D01*
X134493000Y-104696500D01*
X134239000Y-104696500D01*
X133189750Y-104696500D01*
X133031000Y-104855250D01*
X121604000Y-104855250D01*
X121445250Y-104696500D01*
X120396000Y-104696500D01*
X120142000Y-104696500D01*
X119092750Y-104696500D01*
X118934000Y-104855250D01*
X118587000Y-104855250D01*
X118587000Y-103990619D01*
X118523500Y-103990619D01*
X118523500Y-103507795D01*
X119143812Y-103510390D01*
X119143812Y-103510390D01*
G37*
X119143812Y-103510390D02*
X119182584Y-103568416D01*
X119183767Y-103569207D01*
X119030673Y-103722302D01*
X118934000Y-103955691D01*
X118934000Y-104283750D01*
X119092750Y-104442500D01*
X120142000Y-104442500D01*
X120142000Y-104422500D01*
X120396000Y-104422500D01*
X120396000Y-104442500D01*
X121445250Y-104442500D01*
X121604000Y-104283750D01*
X121604000Y-103955691D01*
X121507327Y-103722302D01*
X121354233Y-103569207D01*
X121355416Y-103568416D01*
X121387914Y-103519779D01*
X123769292Y-103529743D01*
X124043706Y-103713102D01*
X124384750Y-103780940D01*
X125297250Y-103780940D01*
X125638294Y-103713102D01*
X125899370Y-103538656D01*
X128497902Y-103549528D01*
X128742706Y-103713102D01*
X129083750Y-103780940D01*
X129996250Y-103780940D01*
X130337294Y-103713102D01*
X130569128Y-103558195D01*
X133280435Y-103569539D01*
X133127673Y-103722302D01*
X133031000Y-103955691D01*
X133031000Y-104283750D01*
X133189750Y-104442500D01*
X134239000Y-104442500D01*
X134239000Y-104422500D01*
X134493000Y-104422500D01*
X134493000Y-104442500D01*
X136144000Y-104442500D01*
X136144000Y-104422500D01*
X136398000Y-104422500D01*
X136398000Y-104442500D01*
X137447250Y-104442500D01*
X137606000Y-104283750D01*
X137606000Y-103955691D01*
X137509327Y-103722302D01*
X137373691Y-103586665D01*
X140061563Y-103597912D01*
X139985673Y-103673802D01*
X139889000Y-103907191D01*
X139889000Y-104235250D01*
X140047750Y-104394000D01*
X141097000Y-104394000D01*
X141097000Y-104374000D01*
X141351000Y-104374000D01*
X141351000Y-104394000D01*
X142400250Y-104394000D01*
X142559000Y-104235250D01*
X142559000Y-103907191D01*
X142462327Y-103673802D01*
X142396206Y-103607680D01*
X145168694Y-103619280D01*
X145065673Y-103722302D01*
X144969000Y-103955691D01*
X144969000Y-104283750D01*
X145127750Y-104442500D01*
X146177000Y-104442500D01*
X146177000Y-104422500D01*
X146431000Y-104422500D01*
X146431000Y-104442500D01*
X147480250Y-104442500D01*
X147639000Y-104283750D01*
X147639000Y-103955691D01*
X147542327Y-103722302D01*
X147448846Y-103628821D01*
X148082000Y-103631470D01*
X148082000Y-106172000D01*
X118587000Y-106172000D01*
X118587000Y-104855250D01*
X118934000Y-104855250D01*
X118934000Y-105183309D01*
X119030673Y-105416698D01*
X119209301Y-105595327D01*
X119442690Y-105692000D01*
X119983250Y-105692000D01*
X120142000Y-105533250D01*
X120142000Y-104696500D01*
X120396000Y-104696500D01*
X120396000Y-105533250D01*
X120554750Y-105692000D01*
X121095310Y-105692000D01*
X121328699Y-105595327D01*
X121507327Y-105416698D01*
X121604000Y-105183309D01*
X121604000Y-104855250D01*
X133031000Y-104855250D01*
X133031000Y-105183309D01*
X133127673Y-105416698D01*
X133306301Y-105595327D01*
X133539690Y-105692000D01*
X134080250Y-105692000D01*
X134239000Y-105533250D01*
X134239000Y-104696500D01*
X134493000Y-104696500D01*
X134493000Y-105533250D01*
X134651750Y-105692000D01*
X135192310Y-105692000D01*
X135318500Y-105639730D01*
X135444690Y-105692000D01*
X135985250Y-105692000D01*
X136144000Y-105533250D01*
X136144000Y-104696500D01*
X136398000Y-104696500D01*
X136398000Y-105533250D01*
X136556750Y-105692000D01*
X137097310Y-105692000D01*
X137330699Y-105595327D01*
X137509327Y-105416698D01*
X137606000Y-105183309D01*
X137606000Y-104855250D01*
X137557500Y-104806750D01*
X139889000Y-104806750D01*
X139889000Y-105134809D01*
X139985673Y-105368198D01*
X140164301Y-105546827D01*
X140397690Y-105643500D01*
X140938250Y-105643500D01*
X141097000Y-105484750D01*
X141097000Y-104648000D01*
X141351000Y-104648000D01*
X141351000Y-105484750D01*
X141509750Y-105643500D01*
X142050310Y-105643500D01*
X142283699Y-105546827D01*
X142462327Y-105368198D01*
X142559000Y-105134809D01*
X142559000Y-104855250D01*
X144969000Y-104855250D01*
X144969000Y-105183309D01*
X145065673Y-105416698D01*
X145244301Y-105595327D01*
X145477690Y-105692000D01*
X146018250Y-105692000D01*
X146177000Y-105533250D01*
X146177000Y-104696500D01*
X146431000Y-104696500D01*
X146431000Y-105533250D01*
X146589750Y-105692000D01*
X147130310Y-105692000D01*
X147363699Y-105595327D01*
X147542327Y-105416698D01*
X147639000Y-105183309D01*
X147639000Y-104855250D01*
X147480250Y-104696500D01*
X146431000Y-104696500D01*
X146177000Y-104696500D01*
X145127750Y-104696500D01*
X144969000Y-104855250D01*
X142559000Y-104855250D01*
X142559000Y-104806750D01*
X142400250Y-104648000D01*
X141351000Y-104648000D01*
X141097000Y-104648000D01*
X140047750Y-104648000D01*
X139889000Y-104806750D01*
X137557500Y-104806750D01*
X137447250Y-104696500D01*
X136398000Y-104696500D01*
X136144000Y-104696500D01*
X134493000Y-104696500D01*
X134239000Y-104696500D01*
X133189750Y-104696500D01*
X133031000Y-104855250D01*
X121604000Y-104855250D01*
X121445250Y-104696500D01*
X120396000Y-104696500D01*
X120142000Y-104696500D01*
X119092750Y-104696500D01*
X118934000Y-104855250D01*
X118587000Y-104855250D01*
X118587000Y-103990619D01*
X118523500Y-103990619D01*
X118523500Y-103507795D01*
X119143812Y-103510390D01*
G36*
X120962619Y-110884000D02*
X120427750Y-110884000D01*
X120269000Y-111042750D01*
X120269000Y-112017000D01*
X121493250Y-112017000D01*
X121652000Y-111858250D01*
X121652000Y-111392691D01*
X121555327Y-111159302D01*
X121376699Y-110980673D01*
X121145154Y-110884764D01*
X133014352Y-110934426D01*
X132902701Y-110980673D01*
X132724073Y-111159302D01*
X132627400Y-111392691D01*
X132627400Y-111858250D01*
X132786150Y-112017000D01*
X134010400Y-112017000D01*
X134010400Y-111997000D01*
X134264400Y-111997000D01*
X134264400Y-112017000D01*
X136271000Y-112017000D01*
X136271000Y-111997000D01*
X136525000Y-111997000D01*
X136525000Y-112017000D01*
X137749250Y-112017000D01*
X137908000Y-111858250D01*
X137908000Y-111392691D01*
X137811327Y-111159302D01*
X137632699Y-110980673D01*
X137567036Y-110953474D01*
X140030084Y-110963780D01*
X139989301Y-110980673D01*
X139810673Y-111159302D01*
X139714000Y-111392691D01*
X139714000Y-111858250D01*
X139872750Y-112017000D01*
X141097000Y-112017000D01*
X141097000Y-111997000D01*
X141351000Y-111997000D01*
X141351000Y-112017000D01*
X142575250Y-112017000D01*
X142734000Y-111858250D01*
X142734000Y-111392691D01*
X142637327Y-111159302D01*
X142458699Y-110980673D01*
X142442282Y-110973873D01*
X144935669Y-110984305D01*
X144763673Y-111156302D01*
X144667000Y-111389691D01*
X144667000Y-111855250D01*
X144825750Y-112014000D01*
X146050000Y-112014000D01*
X146050000Y-111994000D01*
X146304000Y-111994000D01*
X146304000Y-112014000D01*
X147528250Y-112014000D01*
X147687000Y-111855250D01*
X147687000Y-111389691D01*
X147590327Y-111156302D01*
X147428763Y-110994737D01*
X148082000Y-110997470D01*
X148082000Y-113692000D01*
X118587000Y-113692000D01*
X118587000Y-112429750D01*
X118632000Y-112429750D01*
X118632000Y-112895309D01*
X118728673Y-113128698D01*
X118907301Y-113307327D01*
X119140690Y-113404000D01*
X119856250Y-113404000D01*
X120015000Y-113245250D01*
X120015000Y-112271000D01*
X120269000Y-112271000D01*
X120269000Y-113245250D01*
X120427750Y-113404000D01*
X121143310Y-113404000D01*
X121376699Y-113307327D01*
X121555327Y-113128698D01*
X121652000Y-112895309D01*
X121652000Y-112429750D01*
X132627400Y-112429750D01*
X132627400Y-112895309D01*
X132724073Y-113128698D01*
X132902701Y-113307327D01*
X133136090Y-113404000D01*
X133851650Y-113404000D01*
X134010400Y-113245250D01*
X134010400Y-112271000D01*
X134264400Y-112271000D01*
X134264400Y-113245250D01*
X134423150Y-113404000D01*
X135138710Y-113404000D01*
X135267700Y-113350571D01*
X135396690Y-113404000D01*
X136112250Y-113404000D01*
X136271000Y-113245250D01*
X136271000Y-112271000D01*
X136525000Y-112271000D01*
X136525000Y-113245250D01*
X136683750Y-113404000D01*
X137399310Y-113404000D01*
X137632699Y-113307327D01*
X137811327Y-113128698D01*
X137908000Y-112895309D01*
X137908000Y-112429750D01*
X139714000Y-112429750D01*
X139714000Y-112895309D01*
X139810673Y-113128698D01*
X139989301Y-113307327D01*
X140222690Y-113404000D01*
X140938250Y-113404000D01*
X141097000Y-113245250D01*
X141097000Y-112271000D01*
X141351000Y-112271000D01*
X141351000Y-113245250D01*
X141509750Y-113404000D01*
X142225310Y-113404000D01*
X142458699Y-113307327D01*
X142637327Y-113128698D01*
X142734000Y-112895309D01*
X142734000Y-112429750D01*
X142731000Y-112426750D01*
X144667000Y-112426750D01*
X144667000Y-112892309D01*
X144763673Y-113125698D01*
X144942301Y-113304327D01*
X145175690Y-113401000D01*
X145891250Y-113401000D01*
X146050000Y-113242250D01*
X146050000Y-112268000D01*
X146304000Y-112268000D01*
X146304000Y-113242250D01*
X146462750Y-113401000D01*
X147178310Y-113401000D01*
X147411699Y-113304327D01*
X147590327Y-113125698D01*
X147687000Y-112892309D01*
X147687000Y-112426750D01*
X147528250Y-112268000D01*
X146304000Y-112268000D01*
X146050000Y-112268000D01*
X144825750Y-112268000D01*
X144667000Y-112426750D01*
X142731000Y-112426750D01*
X142575250Y-112271000D01*
X141351000Y-112271000D01*
X141097000Y-112271000D01*
X139872750Y-112271000D01*
X139714000Y-112429750D01*
X137908000Y-112429750D01*
X137749250Y-112271000D01*
X136525000Y-112271000D01*
X136271000Y-112271000D01*
X134264400Y-112271000D01*
X134010400Y-112271000D01*
X132786150Y-112271000D01*
X132627400Y-112429750D01*
X121652000Y-112429750D01*
X121493250Y-112271000D01*
X120269000Y-112271000D01*
X120015000Y-112271000D01*
X118790750Y-112271000D01*
X118632000Y-112429750D01*
X118587000Y-112429750D01*
X118587000Y-111392691D01*
X118632000Y-111392691D01*
X118632000Y-111858250D01*
X118790750Y-112017000D01*
X120015000Y-112017000D01*
X120015000Y-111042750D01*
X119856250Y-110884000D01*
X119140690Y-110884000D01*
X118907301Y-110980673D01*
X118728673Y-111159302D01*
X118632000Y-111392691D01*
X118587000Y-111392691D01*
X118587000Y-110874060D01*
X120962619Y-110884000D01*
X120962619Y-110884000D01*
G37*
X120962619Y-110884000D02*
X120427750Y-110884000D01*
X120269000Y-111042750D01*
X120269000Y-112017000D01*
X121493250Y-112017000D01*
X121652000Y-111858250D01*
X121652000Y-111392691D01*
X121555327Y-111159302D01*
X121376699Y-110980673D01*
X121145154Y-110884764D01*
X133014352Y-110934426D01*
X132902701Y-110980673D01*
X132724073Y-111159302D01*
X132627400Y-111392691D01*
X132627400Y-111858250D01*
X132786150Y-112017000D01*
X134010400Y-112017000D01*
X134010400Y-111997000D01*
X134264400Y-111997000D01*
X134264400Y-112017000D01*
X136271000Y-112017000D01*
X136271000Y-111997000D01*
X136525000Y-111997000D01*
X136525000Y-112017000D01*
X137749250Y-112017000D01*
X137908000Y-111858250D01*
X137908000Y-111392691D01*
X137811327Y-111159302D01*
X137632699Y-110980673D01*
X137567036Y-110953474D01*
X140030084Y-110963780D01*
X139989301Y-110980673D01*
X139810673Y-111159302D01*
X139714000Y-111392691D01*
X139714000Y-111858250D01*
X139872750Y-112017000D01*
X141097000Y-112017000D01*
X141097000Y-111997000D01*
X141351000Y-111997000D01*
X141351000Y-112017000D01*
X142575250Y-112017000D01*
X142734000Y-111858250D01*
X142734000Y-111392691D01*
X142637327Y-111159302D01*
X142458699Y-110980673D01*
X142442282Y-110973873D01*
X144935669Y-110984305D01*
X144763673Y-111156302D01*
X144667000Y-111389691D01*
X144667000Y-111855250D01*
X144825750Y-112014000D01*
X146050000Y-112014000D01*
X146050000Y-111994000D01*
X146304000Y-111994000D01*
X146304000Y-112014000D01*
X147528250Y-112014000D01*
X147687000Y-111855250D01*
X147687000Y-111389691D01*
X147590327Y-111156302D01*
X147428763Y-110994737D01*
X148082000Y-110997470D01*
X148082000Y-113692000D01*
X118587000Y-113692000D01*
X118587000Y-112429750D01*
X118632000Y-112429750D01*
X118632000Y-112895309D01*
X118728673Y-113128698D01*
X118907301Y-113307327D01*
X119140690Y-113404000D01*
X119856250Y-113404000D01*
X120015000Y-113245250D01*
X120015000Y-112271000D01*
X120269000Y-112271000D01*
X120269000Y-113245250D01*
X120427750Y-113404000D01*
X121143310Y-113404000D01*
X121376699Y-113307327D01*
X121555327Y-113128698D01*
X121652000Y-112895309D01*
X121652000Y-112429750D01*
X132627400Y-112429750D01*
X132627400Y-112895309D01*
X132724073Y-113128698D01*
X132902701Y-113307327D01*
X133136090Y-113404000D01*
X133851650Y-113404000D01*
X134010400Y-113245250D01*
X134010400Y-112271000D01*
X134264400Y-112271000D01*
X134264400Y-113245250D01*
X134423150Y-113404000D01*
X135138710Y-113404000D01*
X135267700Y-113350571D01*
X135396690Y-113404000D01*
X136112250Y-113404000D01*
X136271000Y-113245250D01*
X136271000Y-112271000D01*
X136525000Y-112271000D01*
X136525000Y-113245250D01*
X136683750Y-113404000D01*
X137399310Y-113404000D01*
X137632699Y-113307327D01*
X137811327Y-113128698D01*
X137908000Y-112895309D01*
X137908000Y-112429750D01*
X139714000Y-112429750D01*
X139714000Y-112895309D01*
X139810673Y-113128698D01*
X139989301Y-113307327D01*
X140222690Y-113404000D01*
X140938250Y-113404000D01*
X141097000Y-113245250D01*
X141097000Y-112271000D01*
X141351000Y-112271000D01*
X141351000Y-113245250D01*
X141509750Y-113404000D01*
X142225310Y-113404000D01*
X142458699Y-113307327D01*
X142637327Y-113128698D01*
X142734000Y-112895309D01*
X142734000Y-112429750D01*
X142731000Y-112426750D01*
X144667000Y-112426750D01*
X144667000Y-112892309D01*
X144763673Y-113125698D01*
X144942301Y-113304327D01*
X145175690Y-113401000D01*
X145891250Y-113401000D01*
X146050000Y-113242250D01*
X146050000Y-112268000D01*
X146304000Y-112268000D01*
X146304000Y-113242250D01*
X146462750Y-113401000D01*
X147178310Y-113401000D01*
X147411699Y-113304327D01*
X147590327Y-113125698D01*
X147687000Y-112892309D01*
X147687000Y-112426750D01*
X147528250Y-112268000D01*
X146304000Y-112268000D01*
X146050000Y-112268000D01*
X144825750Y-112268000D01*
X144667000Y-112426750D01*
X142731000Y-112426750D01*
X142575250Y-112271000D01*
X141351000Y-112271000D01*
X141097000Y-112271000D01*
X139872750Y-112271000D01*
X139714000Y-112429750D01*
X137908000Y-112429750D01*
X137749250Y-112271000D01*
X136525000Y-112271000D01*
X136271000Y-112271000D01*
X134264400Y-112271000D01*
X134010400Y-112271000D01*
X132786150Y-112271000D01*
X132627400Y-112429750D01*
X121652000Y-112429750D01*
X121493250Y-112271000D01*
X120269000Y-112271000D01*
X120015000Y-112271000D01*
X118790750Y-112271000D01*
X118632000Y-112429750D01*
X118587000Y-112429750D01*
X118587000Y-111392691D01*
X118632000Y-111392691D01*
X118632000Y-111858250D01*
X118790750Y-112017000D01*
X120015000Y-112017000D01*
X120015000Y-111042750D01*
X119856250Y-110884000D01*
X119140690Y-110884000D01*
X118907301Y-110980673D01*
X118728673Y-111159302D01*
X118632000Y-111392691D01*
X118587000Y-111392691D01*
X118587000Y-110874060D01*
X120962619Y-110884000D01*
G04 #@! TO.N,GND*
G36*
X148082000Y-110235464D02*
X147628489Y-110233566D01*
X147687000Y-110092309D01*
X147687000Y-109626750D01*
X147528250Y-109468000D01*
X146304000Y-109468000D01*
X146304000Y-109488000D01*
X146050000Y-109488000D01*
X146050000Y-109468000D01*
X144825750Y-109468000D01*
X144667000Y-109626750D01*
X144667000Y-110092309D01*
X144720471Y-110221399D01*
X142685299Y-110212883D01*
X142734000Y-110095309D01*
X142734000Y-109629750D01*
X142575250Y-109471000D01*
X141351000Y-109471000D01*
X141351000Y-109491000D01*
X141097000Y-109491000D01*
X141097000Y-109471000D01*
X139872750Y-109471000D01*
X139714000Y-109629750D01*
X139714000Y-110095309D01*
X139757627Y-110200633D01*
X137867649Y-110192726D01*
X137908000Y-110095309D01*
X137908000Y-109629750D01*
X137749250Y-109471000D01*
X136525000Y-109471000D01*
X136525000Y-109491000D01*
X136271000Y-109491000D01*
X136271000Y-109471000D01*
X134264400Y-109471000D01*
X134264400Y-109491000D01*
X134010400Y-109491000D01*
X134010400Y-109471000D01*
X132786150Y-109471000D01*
X132627400Y-109629750D01*
X132627400Y-110095309D01*
X132658724Y-110170931D01*
X126331884Y-110144459D01*
X126351000Y-110098309D01*
X126351000Y-109632750D01*
X126192250Y-109474000D01*
X124968000Y-109474000D01*
X124968000Y-109494000D01*
X124714000Y-109494000D01*
X124714000Y-109474000D01*
X123489750Y-109474000D01*
X123331000Y-109632750D01*
X123331000Y-110098309D01*
X123344939Y-110131961D01*
X121639773Y-110124827D01*
X121652000Y-110095309D01*
X121652000Y-109629750D01*
X121493250Y-109471000D01*
X120269000Y-109471000D01*
X120269000Y-109491000D01*
X120015000Y-109491000D01*
X120015000Y-109471000D01*
X118790750Y-109471000D01*
X118632000Y-109629750D01*
X118632000Y-110095309D01*
X118639026Y-110112271D01*
X118587000Y-110112053D01*
X118587000Y-108592691D01*
X118632000Y-108592691D01*
X118632000Y-109058250D01*
X118790750Y-109217000D01*
X120015000Y-109217000D01*
X120015000Y-108242750D01*
X120269000Y-108242750D01*
X120269000Y-109217000D01*
X121493250Y-109217000D01*
X121652000Y-109058250D01*
X121652000Y-108595691D01*
X123331000Y-108595691D01*
X123331000Y-109061250D01*
X123489750Y-109220000D01*
X124714000Y-109220000D01*
X124714000Y-108245750D01*
X124968000Y-108245750D01*
X124968000Y-109220000D01*
X126192250Y-109220000D01*
X126351000Y-109061250D01*
X126351000Y-108595691D01*
X126349758Y-108592691D01*
X132627400Y-108592691D01*
X132627400Y-109058250D01*
X132786150Y-109217000D01*
X134010400Y-109217000D01*
X134010400Y-108242750D01*
X134264400Y-108242750D01*
X134264400Y-109217000D01*
X136271000Y-109217000D01*
X136271000Y-108242750D01*
X136525000Y-108242750D01*
X136525000Y-109217000D01*
X137749250Y-109217000D01*
X137908000Y-109058250D01*
X137908000Y-108592691D01*
X139714000Y-108592691D01*
X139714000Y-109058250D01*
X139872750Y-109217000D01*
X141097000Y-109217000D01*
X141097000Y-108242750D01*
X141351000Y-108242750D01*
X141351000Y-109217000D01*
X142575250Y-109217000D01*
X142734000Y-109058250D01*
X142734000Y-108592691D01*
X142732758Y-108589691D01*
X144667000Y-108589691D01*
X144667000Y-109055250D01*
X144825750Y-109214000D01*
X146050000Y-109214000D01*
X146050000Y-108239750D01*
X146304000Y-108239750D01*
X146304000Y-109214000D01*
X147528250Y-109214000D01*
X147687000Y-109055250D01*
X147687000Y-108589691D01*
X147590327Y-108356302D01*
X147411699Y-108177673D01*
X147178310Y-108081000D01*
X146462750Y-108081000D01*
X146304000Y-108239750D01*
X146050000Y-108239750D01*
X145891250Y-108081000D01*
X145175690Y-108081000D01*
X144942301Y-108177673D01*
X144763673Y-108356302D01*
X144667000Y-108589691D01*
X142732758Y-108589691D01*
X142637327Y-108359302D01*
X142458699Y-108180673D01*
X142225310Y-108084000D01*
X141509750Y-108084000D01*
X141351000Y-108242750D01*
X141097000Y-108242750D01*
X140938250Y-108084000D01*
X140222690Y-108084000D01*
X139989301Y-108180673D01*
X139810673Y-108359302D01*
X139714000Y-108592691D01*
X137908000Y-108592691D01*
X137811327Y-108359302D01*
X137632699Y-108180673D01*
X137399310Y-108084000D01*
X136683750Y-108084000D01*
X136525000Y-108242750D01*
X136271000Y-108242750D01*
X136112250Y-108084000D01*
X135396690Y-108084000D01*
X135267700Y-108137429D01*
X135138710Y-108084000D01*
X134423150Y-108084000D01*
X134264400Y-108242750D01*
X134010400Y-108242750D01*
X133851650Y-108084000D01*
X133136090Y-108084000D01*
X132902701Y-108180673D01*
X132724073Y-108359302D01*
X132627400Y-108592691D01*
X126349758Y-108592691D01*
X126254327Y-108362302D01*
X126075699Y-108183673D01*
X125842310Y-108087000D01*
X125126750Y-108087000D01*
X124968000Y-108245750D01*
X124714000Y-108245750D01*
X124555250Y-108087000D01*
X123839690Y-108087000D01*
X123606301Y-108183673D01*
X123427673Y-108362302D01*
X123331000Y-108595691D01*
X121652000Y-108595691D01*
X121652000Y-108592691D01*
X121555327Y-108359302D01*
X121376699Y-108180673D01*
X121143310Y-108084000D01*
X120427750Y-108084000D01*
X120269000Y-108242750D01*
X120015000Y-108242750D01*
X119856250Y-108084000D01*
X119140690Y-108084000D01*
X118907301Y-108180673D01*
X118728673Y-108359302D01*
X118632000Y-108592691D01*
X118587000Y-108592691D01*
X118587000Y-107188000D01*
X148082000Y-107188000D01*
X148082000Y-110235464D01*
X148082000Y-110235464D01*
G37*
X148082000Y-110235464D02*
X147628489Y-110233566D01*
X147687000Y-110092309D01*
X147687000Y-109626750D01*
X147528250Y-109468000D01*
X146304000Y-109468000D01*
X146304000Y-109488000D01*
X146050000Y-109488000D01*
X146050000Y-109468000D01*
X144825750Y-109468000D01*
X144667000Y-109626750D01*
X144667000Y-110092309D01*
X144720471Y-110221399D01*
X142685299Y-110212883D01*
X142734000Y-110095309D01*
X142734000Y-109629750D01*
X142575250Y-109471000D01*
X141351000Y-109471000D01*
X141351000Y-109491000D01*
X141097000Y-109491000D01*
X141097000Y-109471000D01*
X139872750Y-109471000D01*
X139714000Y-109629750D01*
X139714000Y-110095309D01*
X139757627Y-110200633D01*
X137867649Y-110192726D01*
X137908000Y-110095309D01*
X137908000Y-109629750D01*
X137749250Y-109471000D01*
X136525000Y-109471000D01*
X136525000Y-109491000D01*
X136271000Y-109491000D01*
X136271000Y-109471000D01*
X134264400Y-109471000D01*
X134264400Y-109491000D01*
X134010400Y-109491000D01*
X134010400Y-109471000D01*
X132786150Y-109471000D01*
X132627400Y-109629750D01*
X132627400Y-110095309D01*
X132658724Y-110170931D01*
X126331884Y-110144459D01*
X126351000Y-110098309D01*
X126351000Y-109632750D01*
X126192250Y-109474000D01*
X124968000Y-109474000D01*
X124968000Y-109494000D01*
X124714000Y-109494000D01*
X124714000Y-109474000D01*
X123489750Y-109474000D01*
X123331000Y-109632750D01*
X123331000Y-110098309D01*
X123344939Y-110131961D01*
X121639773Y-110124827D01*
X121652000Y-110095309D01*
X121652000Y-109629750D01*
X121493250Y-109471000D01*
X120269000Y-109471000D01*
X120269000Y-109491000D01*
X120015000Y-109491000D01*
X120015000Y-109471000D01*
X118790750Y-109471000D01*
X118632000Y-109629750D01*
X118632000Y-110095309D01*
X118639026Y-110112271D01*
X118587000Y-110112053D01*
X118587000Y-108592691D01*
X118632000Y-108592691D01*
X118632000Y-109058250D01*
X118790750Y-109217000D01*
X120015000Y-109217000D01*
X120015000Y-108242750D01*
X120269000Y-108242750D01*
X120269000Y-109217000D01*
X121493250Y-109217000D01*
X121652000Y-109058250D01*
X121652000Y-108595691D01*
X123331000Y-108595691D01*
X123331000Y-109061250D01*
X123489750Y-109220000D01*
X124714000Y-109220000D01*
X124714000Y-108245750D01*
X124968000Y-108245750D01*
X124968000Y-109220000D01*
X126192250Y-109220000D01*
X126351000Y-109061250D01*
X126351000Y-108595691D01*
X126349758Y-108592691D01*
X132627400Y-108592691D01*
X132627400Y-109058250D01*
X132786150Y-109217000D01*
X134010400Y-109217000D01*
X134010400Y-108242750D01*
X134264400Y-108242750D01*
X134264400Y-109217000D01*
X136271000Y-109217000D01*
X136271000Y-108242750D01*
X136525000Y-108242750D01*
X136525000Y-109217000D01*
X137749250Y-109217000D01*
X137908000Y-109058250D01*
X137908000Y-108592691D01*
X139714000Y-108592691D01*
X139714000Y-109058250D01*
X139872750Y-109217000D01*
X141097000Y-109217000D01*
X141097000Y-108242750D01*
X141351000Y-108242750D01*
X141351000Y-109217000D01*
X142575250Y-109217000D01*
X142734000Y-109058250D01*
X142734000Y-108592691D01*
X142732758Y-108589691D01*
X144667000Y-108589691D01*
X144667000Y-109055250D01*
X144825750Y-109214000D01*
X146050000Y-109214000D01*
X146050000Y-108239750D01*
X146304000Y-108239750D01*
X146304000Y-109214000D01*
X147528250Y-109214000D01*
X147687000Y-109055250D01*
X147687000Y-108589691D01*
X147590327Y-108356302D01*
X147411699Y-108177673D01*
X147178310Y-108081000D01*
X146462750Y-108081000D01*
X146304000Y-108239750D01*
X146050000Y-108239750D01*
X145891250Y-108081000D01*
X145175690Y-108081000D01*
X144942301Y-108177673D01*
X144763673Y-108356302D01*
X144667000Y-108589691D01*
X142732758Y-108589691D01*
X142637327Y-108359302D01*
X142458699Y-108180673D01*
X142225310Y-108084000D01*
X141509750Y-108084000D01*
X141351000Y-108242750D01*
X141097000Y-108242750D01*
X140938250Y-108084000D01*
X140222690Y-108084000D01*
X139989301Y-108180673D01*
X139810673Y-108359302D01*
X139714000Y-108592691D01*
X137908000Y-108592691D01*
X137811327Y-108359302D01*
X137632699Y-108180673D01*
X137399310Y-108084000D01*
X136683750Y-108084000D01*
X136525000Y-108242750D01*
X136271000Y-108242750D01*
X136112250Y-108084000D01*
X135396690Y-108084000D01*
X135267700Y-108137429D01*
X135138710Y-108084000D01*
X134423150Y-108084000D01*
X134264400Y-108242750D01*
X134010400Y-108242750D01*
X133851650Y-108084000D01*
X133136090Y-108084000D01*
X132902701Y-108180673D01*
X132724073Y-108359302D01*
X132627400Y-108592691D01*
X126349758Y-108592691D01*
X126254327Y-108362302D01*
X126075699Y-108183673D01*
X125842310Y-108087000D01*
X125126750Y-108087000D01*
X124968000Y-108245750D01*
X124714000Y-108245750D01*
X124555250Y-108087000D01*
X123839690Y-108087000D01*
X123606301Y-108183673D01*
X123427673Y-108362302D01*
X123331000Y-108595691D01*
X121652000Y-108595691D01*
X121652000Y-108592691D01*
X121555327Y-108359302D01*
X121376699Y-108180673D01*
X121143310Y-108084000D01*
X120427750Y-108084000D01*
X120269000Y-108242750D01*
X120015000Y-108242750D01*
X119856250Y-108084000D01*
X119140690Y-108084000D01*
X118907301Y-108180673D01*
X118728673Y-108359302D01*
X118632000Y-108592691D01*
X118587000Y-108592691D01*
X118587000Y-107188000D01*
X148082000Y-107188000D01*
X148082000Y-110235464D01*
G04 #@! TD*
M02*
