G04 #@! TF.GenerationSoftware,KiCad,Pcbnew,(5.0.0)*
G04 #@! TF.CreationDate,2019-03-07T00:39:03-05:00*
G04 #@! TF.ProjectId,Reflow_Test1,5265666C6F775F54657374312E6B6963,rev?*
G04 #@! TF.SameCoordinates,Original*
G04 #@! TF.FileFunction,Paste,Top*
G04 #@! TF.FilePolarity,Positive*
%FSLAX46Y46*%
G04 Gerber Fmt 4.6, Leading zero omitted, Abs format (unit mm)*
G04 Created by KiCad (PCBNEW (5.0.0)) date 03/07/19 00:39:03*
%MOMM*%
%LPD*%
G01*
G04 APERTURE LIST*
%ADD10C,0.100000*%
%ADD11C,0.975000*%
%ADD12R,0.800000X0.900000*%
%ADD13C,0.590000*%
%ADD14C,1.250000*%
%ADD15O,0.300000X0.750000*%
%ADD16O,0.750000X0.300000*%
%ADD17R,0.730000X0.730000*%
%ADD18R,0.700000X0.250000*%
%ADD19R,0.250000X0.700000*%
%ADD20R,0.920000X0.920000*%
%ADD21R,0.650000X1.060000*%
G04 APERTURE END LIST*
D10*
G04 #@! TO.C,R2*
G36*
X120749142Y-102208174D02*
X120772803Y-102211684D01*
X120796007Y-102217496D01*
X120818529Y-102225554D01*
X120840153Y-102235782D01*
X120860670Y-102248079D01*
X120879883Y-102262329D01*
X120897607Y-102278393D01*
X120913671Y-102296117D01*
X120927921Y-102315330D01*
X120940218Y-102335847D01*
X120950446Y-102357471D01*
X120958504Y-102379993D01*
X120964316Y-102403197D01*
X120967826Y-102426858D01*
X120969000Y-102450750D01*
X120969000Y-102938250D01*
X120967826Y-102962142D01*
X120964316Y-102985803D01*
X120958504Y-103009007D01*
X120950446Y-103031529D01*
X120940218Y-103053153D01*
X120927921Y-103073670D01*
X120913671Y-103092883D01*
X120897607Y-103110607D01*
X120879883Y-103126671D01*
X120860670Y-103140921D01*
X120840153Y-103153218D01*
X120818529Y-103163446D01*
X120796007Y-103171504D01*
X120772803Y-103177316D01*
X120749142Y-103180826D01*
X120725250Y-103182000D01*
X119812750Y-103182000D01*
X119788858Y-103180826D01*
X119765197Y-103177316D01*
X119741993Y-103171504D01*
X119719471Y-103163446D01*
X119697847Y-103153218D01*
X119677330Y-103140921D01*
X119658117Y-103126671D01*
X119640393Y-103110607D01*
X119624329Y-103092883D01*
X119610079Y-103073670D01*
X119597782Y-103053153D01*
X119587554Y-103031529D01*
X119579496Y-103009007D01*
X119573684Y-102985803D01*
X119570174Y-102962142D01*
X119569000Y-102938250D01*
X119569000Y-102450750D01*
X119570174Y-102426858D01*
X119573684Y-102403197D01*
X119579496Y-102379993D01*
X119587554Y-102357471D01*
X119597782Y-102335847D01*
X119610079Y-102315330D01*
X119624329Y-102296117D01*
X119640393Y-102278393D01*
X119658117Y-102262329D01*
X119677330Y-102248079D01*
X119697847Y-102235782D01*
X119719471Y-102225554D01*
X119741993Y-102217496D01*
X119765197Y-102211684D01*
X119788858Y-102208174D01*
X119812750Y-102207000D01*
X120725250Y-102207000D01*
X120749142Y-102208174D01*
X120749142Y-102208174D01*
G37*
D11*
X120269000Y-102694500D03*
D10*
G36*
X120749142Y-104083174D02*
X120772803Y-104086684D01*
X120796007Y-104092496D01*
X120818529Y-104100554D01*
X120840153Y-104110782D01*
X120860670Y-104123079D01*
X120879883Y-104137329D01*
X120897607Y-104153393D01*
X120913671Y-104171117D01*
X120927921Y-104190330D01*
X120940218Y-104210847D01*
X120950446Y-104232471D01*
X120958504Y-104254993D01*
X120964316Y-104278197D01*
X120967826Y-104301858D01*
X120969000Y-104325750D01*
X120969000Y-104813250D01*
X120967826Y-104837142D01*
X120964316Y-104860803D01*
X120958504Y-104884007D01*
X120950446Y-104906529D01*
X120940218Y-104928153D01*
X120927921Y-104948670D01*
X120913671Y-104967883D01*
X120897607Y-104985607D01*
X120879883Y-105001671D01*
X120860670Y-105015921D01*
X120840153Y-105028218D01*
X120818529Y-105038446D01*
X120796007Y-105046504D01*
X120772803Y-105052316D01*
X120749142Y-105055826D01*
X120725250Y-105057000D01*
X119812750Y-105057000D01*
X119788858Y-105055826D01*
X119765197Y-105052316D01*
X119741993Y-105046504D01*
X119719471Y-105038446D01*
X119697847Y-105028218D01*
X119677330Y-105015921D01*
X119658117Y-105001671D01*
X119640393Y-104985607D01*
X119624329Y-104967883D01*
X119610079Y-104948670D01*
X119597782Y-104928153D01*
X119587554Y-104906529D01*
X119579496Y-104884007D01*
X119573684Y-104860803D01*
X119570174Y-104837142D01*
X119569000Y-104813250D01*
X119569000Y-104325750D01*
X119570174Y-104301858D01*
X119573684Y-104278197D01*
X119579496Y-104254993D01*
X119587554Y-104232471D01*
X119597782Y-104210847D01*
X119610079Y-104190330D01*
X119624329Y-104171117D01*
X119640393Y-104153393D01*
X119658117Y-104137329D01*
X119677330Y-104123079D01*
X119697847Y-104110782D01*
X119719471Y-104100554D01*
X119741993Y-104092496D01*
X119765197Y-104086684D01*
X119788858Y-104083174D01*
X119812750Y-104082000D01*
X120725250Y-104082000D01*
X120749142Y-104083174D01*
X120749142Y-104083174D01*
G37*
D11*
X120269000Y-104569500D03*
G04 #@! TD*
D12*
G04 #@! TO.C,Q1*
X142433000Y-93075000D03*
X144333000Y-93075000D03*
X143383000Y-91075000D03*
G04 #@! TD*
D10*
G04 #@! TO.C,R1*
G36*
X120455958Y-98511710D02*
X120470276Y-98513834D01*
X120484317Y-98517351D01*
X120497946Y-98522228D01*
X120511031Y-98528417D01*
X120523447Y-98535858D01*
X120535073Y-98544481D01*
X120545798Y-98554202D01*
X120555519Y-98564927D01*
X120564142Y-98576553D01*
X120571583Y-98588969D01*
X120577772Y-98602054D01*
X120582649Y-98615683D01*
X120586166Y-98629724D01*
X120588290Y-98644042D01*
X120589000Y-98658500D01*
X120589000Y-98953500D01*
X120588290Y-98967958D01*
X120586166Y-98982276D01*
X120582649Y-98996317D01*
X120577772Y-99009946D01*
X120571583Y-99023031D01*
X120564142Y-99035447D01*
X120555519Y-99047073D01*
X120545798Y-99057798D01*
X120535073Y-99067519D01*
X120523447Y-99076142D01*
X120511031Y-99083583D01*
X120497946Y-99089772D01*
X120484317Y-99094649D01*
X120470276Y-99098166D01*
X120455958Y-99100290D01*
X120441500Y-99101000D01*
X120096500Y-99101000D01*
X120082042Y-99100290D01*
X120067724Y-99098166D01*
X120053683Y-99094649D01*
X120040054Y-99089772D01*
X120026969Y-99083583D01*
X120014553Y-99076142D01*
X120002927Y-99067519D01*
X119992202Y-99057798D01*
X119982481Y-99047073D01*
X119973858Y-99035447D01*
X119966417Y-99023031D01*
X119960228Y-99009946D01*
X119955351Y-98996317D01*
X119951834Y-98982276D01*
X119949710Y-98967958D01*
X119949000Y-98953500D01*
X119949000Y-98658500D01*
X119949710Y-98644042D01*
X119951834Y-98629724D01*
X119955351Y-98615683D01*
X119960228Y-98602054D01*
X119966417Y-98588969D01*
X119973858Y-98576553D01*
X119982481Y-98564927D01*
X119992202Y-98554202D01*
X120002927Y-98544481D01*
X120014553Y-98535858D01*
X120026969Y-98528417D01*
X120040054Y-98522228D01*
X120053683Y-98517351D01*
X120067724Y-98513834D01*
X120082042Y-98511710D01*
X120096500Y-98511000D01*
X120441500Y-98511000D01*
X120455958Y-98511710D01*
X120455958Y-98511710D01*
G37*
D13*
X120269000Y-98806000D03*
D10*
G36*
X120455958Y-97541710D02*
X120470276Y-97543834D01*
X120484317Y-97547351D01*
X120497946Y-97552228D01*
X120511031Y-97558417D01*
X120523447Y-97565858D01*
X120535073Y-97574481D01*
X120545798Y-97584202D01*
X120555519Y-97594927D01*
X120564142Y-97606553D01*
X120571583Y-97618969D01*
X120577772Y-97632054D01*
X120582649Y-97645683D01*
X120586166Y-97659724D01*
X120588290Y-97674042D01*
X120589000Y-97688500D01*
X120589000Y-97983500D01*
X120588290Y-97997958D01*
X120586166Y-98012276D01*
X120582649Y-98026317D01*
X120577772Y-98039946D01*
X120571583Y-98053031D01*
X120564142Y-98065447D01*
X120555519Y-98077073D01*
X120545798Y-98087798D01*
X120535073Y-98097519D01*
X120523447Y-98106142D01*
X120511031Y-98113583D01*
X120497946Y-98119772D01*
X120484317Y-98124649D01*
X120470276Y-98128166D01*
X120455958Y-98130290D01*
X120441500Y-98131000D01*
X120096500Y-98131000D01*
X120082042Y-98130290D01*
X120067724Y-98128166D01*
X120053683Y-98124649D01*
X120040054Y-98119772D01*
X120026969Y-98113583D01*
X120014553Y-98106142D01*
X120002927Y-98097519D01*
X119992202Y-98087798D01*
X119982481Y-98077073D01*
X119973858Y-98065447D01*
X119966417Y-98053031D01*
X119960228Y-98039946D01*
X119955351Y-98026317D01*
X119951834Y-98012276D01*
X119949710Y-97997958D01*
X119949000Y-97983500D01*
X119949000Y-97688500D01*
X119949710Y-97674042D01*
X119951834Y-97659724D01*
X119955351Y-97645683D01*
X119960228Y-97632054D01*
X119966417Y-97618969D01*
X119973858Y-97606553D01*
X119982481Y-97594927D01*
X119992202Y-97584202D01*
X120002927Y-97574481D01*
X120014553Y-97565858D01*
X120026969Y-97558417D01*
X120040054Y-97552228D01*
X120053683Y-97547351D01*
X120067724Y-97543834D01*
X120082042Y-97541710D01*
X120096500Y-97541000D01*
X120441500Y-97541000D01*
X120455958Y-97541710D01*
X120455958Y-97541710D01*
G37*
D13*
X120269000Y-97836000D03*
G04 #@! TD*
D10*
G04 #@! TO.C,R3*
G36*
X120791504Y-108720204D02*
X120815773Y-108723804D01*
X120839571Y-108729765D01*
X120862671Y-108738030D01*
X120884849Y-108748520D01*
X120905893Y-108761133D01*
X120925598Y-108775747D01*
X120943777Y-108792223D01*
X120960253Y-108810402D01*
X120974867Y-108830107D01*
X120987480Y-108851151D01*
X120997970Y-108873329D01*
X121006235Y-108896429D01*
X121012196Y-108920227D01*
X121015796Y-108944496D01*
X121017000Y-108969000D01*
X121017000Y-109719000D01*
X121015796Y-109743504D01*
X121012196Y-109767773D01*
X121006235Y-109791571D01*
X120997970Y-109814671D01*
X120987480Y-109836849D01*
X120974867Y-109857893D01*
X120960253Y-109877598D01*
X120943777Y-109895777D01*
X120925598Y-109912253D01*
X120905893Y-109926867D01*
X120884849Y-109939480D01*
X120862671Y-109949970D01*
X120839571Y-109958235D01*
X120815773Y-109964196D01*
X120791504Y-109967796D01*
X120767000Y-109969000D01*
X119517000Y-109969000D01*
X119492496Y-109967796D01*
X119468227Y-109964196D01*
X119444429Y-109958235D01*
X119421329Y-109949970D01*
X119399151Y-109939480D01*
X119378107Y-109926867D01*
X119358402Y-109912253D01*
X119340223Y-109895777D01*
X119323747Y-109877598D01*
X119309133Y-109857893D01*
X119296520Y-109836849D01*
X119286030Y-109814671D01*
X119277765Y-109791571D01*
X119271804Y-109767773D01*
X119268204Y-109743504D01*
X119267000Y-109719000D01*
X119267000Y-108969000D01*
X119268204Y-108944496D01*
X119271804Y-108920227D01*
X119277765Y-108896429D01*
X119286030Y-108873329D01*
X119296520Y-108851151D01*
X119309133Y-108830107D01*
X119323747Y-108810402D01*
X119340223Y-108792223D01*
X119358402Y-108775747D01*
X119378107Y-108761133D01*
X119399151Y-108748520D01*
X119421329Y-108738030D01*
X119444429Y-108729765D01*
X119468227Y-108723804D01*
X119492496Y-108720204D01*
X119517000Y-108719000D01*
X120767000Y-108719000D01*
X120791504Y-108720204D01*
X120791504Y-108720204D01*
G37*
D14*
X120142000Y-109344000D03*
D10*
G36*
X120791504Y-111520204D02*
X120815773Y-111523804D01*
X120839571Y-111529765D01*
X120862671Y-111538030D01*
X120884849Y-111548520D01*
X120905893Y-111561133D01*
X120925598Y-111575747D01*
X120943777Y-111592223D01*
X120960253Y-111610402D01*
X120974867Y-111630107D01*
X120987480Y-111651151D01*
X120997970Y-111673329D01*
X121006235Y-111696429D01*
X121012196Y-111720227D01*
X121015796Y-111744496D01*
X121017000Y-111769000D01*
X121017000Y-112519000D01*
X121015796Y-112543504D01*
X121012196Y-112567773D01*
X121006235Y-112591571D01*
X120997970Y-112614671D01*
X120987480Y-112636849D01*
X120974867Y-112657893D01*
X120960253Y-112677598D01*
X120943777Y-112695777D01*
X120925598Y-112712253D01*
X120905893Y-112726867D01*
X120884849Y-112739480D01*
X120862671Y-112749970D01*
X120839571Y-112758235D01*
X120815773Y-112764196D01*
X120791504Y-112767796D01*
X120767000Y-112769000D01*
X119517000Y-112769000D01*
X119492496Y-112767796D01*
X119468227Y-112764196D01*
X119444429Y-112758235D01*
X119421329Y-112749970D01*
X119399151Y-112739480D01*
X119378107Y-112726867D01*
X119358402Y-112712253D01*
X119340223Y-112695777D01*
X119323747Y-112677598D01*
X119309133Y-112657893D01*
X119296520Y-112636849D01*
X119286030Y-112614671D01*
X119277765Y-112591571D01*
X119271804Y-112567773D01*
X119268204Y-112543504D01*
X119267000Y-112519000D01*
X119267000Y-111769000D01*
X119268204Y-111744496D01*
X119271804Y-111720227D01*
X119277765Y-111696429D01*
X119286030Y-111673329D01*
X119296520Y-111651151D01*
X119309133Y-111630107D01*
X119323747Y-111610402D01*
X119340223Y-111592223D01*
X119358402Y-111575747D01*
X119378107Y-111561133D01*
X119399151Y-111548520D01*
X119421329Y-111538030D01*
X119444429Y-111529765D01*
X119468227Y-111523804D01*
X119492496Y-111520204D01*
X119517000Y-111519000D01*
X120767000Y-111519000D01*
X120791504Y-111520204D01*
X120791504Y-111520204D01*
G37*
D14*
X120142000Y-112144000D03*
G04 #@! TD*
D10*
G04 #@! TO.C,R4*
G36*
X125154958Y-97645710D02*
X125169276Y-97647834D01*
X125183317Y-97651351D01*
X125196946Y-97656228D01*
X125210031Y-97662417D01*
X125222447Y-97669858D01*
X125234073Y-97678481D01*
X125244798Y-97688202D01*
X125254519Y-97698927D01*
X125263142Y-97710553D01*
X125270583Y-97722969D01*
X125276772Y-97736054D01*
X125281649Y-97749683D01*
X125285166Y-97763724D01*
X125287290Y-97778042D01*
X125288000Y-97792500D01*
X125288000Y-98087500D01*
X125287290Y-98101958D01*
X125285166Y-98116276D01*
X125281649Y-98130317D01*
X125276772Y-98143946D01*
X125270583Y-98157031D01*
X125263142Y-98169447D01*
X125254519Y-98181073D01*
X125244798Y-98191798D01*
X125234073Y-98201519D01*
X125222447Y-98210142D01*
X125210031Y-98217583D01*
X125196946Y-98223772D01*
X125183317Y-98228649D01*
X125169276Y-98232166D01*
X125154958Y-98234290D01*
X125140500Y-98235000D01*
X124795500Y-98235000D01*
X124781042Y-98234290D01*
X124766724Y-98232166D01*
X124752683Y-98228649D01*
X124739054Y-98223772D01*
X124725969Y-98217583D01*
X124713553Y-98210142D01*
X124701927Y-98201519D01*
X124691202Y-98191798D01*
X124681481Y-98181073D01*
X124672858Y-98169447D01*
X124665417Y-98157031D01*
X124659228Y-98143946D01*
X124654351Y-98130317D01*
X124650834Y-98116276D01*
X124648710Y-98101958D01*
X124648000Y-98087500D01*
X124648000Y-97792500D01*
X124648710Y-97778042D01*
X124650834Y-97763724D01*
X124654351Y-97749683D01*
X124659228Y-97736054D01*
X124665417Y-97722969D01*
X124672858Y-97710553D01*
X124681481Y-97698927D01*
X124691202Y-97688202D01*
X124701927Y-97678481D01*
X124713553Y-97669858D01*
X124725969Y-97662417D01*
X124739054Y-97656228D01*
X124752683Y-97651351D01*
X124766724Y-97647834D01*
X124781042Y-97645710D01*
X124795500Y-97645000D01*
X125140500Y-97645000D01*
X125154958Y-97645710D01*
X125154958Y-97645710D01*
G37*
D13*
X124968000Y-97940000D03*
D10*
G36*
X125154958Y-98615710D02*
X125169276Y-98617834D01*
X125183317Y-98621351D01*
X125196946Y-98626228D01*
X125210031Y-98632417D01*
X125222447Y-98639858D01*
X125234073Y-98648481D01*
X125244798Y-98658202D01*
X125254519Y-98668927D01*
X125263142Y-98680553D01*
X125270583Y-98692969D01*
X125276772Y-98706054D01*
X125281649Y-98719683D01*
X125285166Y-98733724D01*
X125287290Y-98748042D01*
X125288000Y-98762500D01*
X125288000Y-99057500D01*
X125287290Y-99071958D01*
X125285166Y-99086276D01*
X125281649Y-99100317D01*
X125276772Y-99113946D01*
X125270583Y-99127031D01*
X125263142Y-99139447D01*
X125254519Y-99151073D01*
X125244798Y-99161798D01*
X125234073Y-99171519D01*
X125222447Y-99180142D01*
X125210031Y-99187583D01*
X125196946Y-99193772D01*
X125183317Y-99198649D01*
X125169276Y-99202166D01*
X125154958Y-99204290D01*
X125140500Y-99205000D01*
X124795500Y-99205000D01*
X124781042Y-99204290D01*
X124766724Y-99202166D01*
X124752683Y-99198649D01*
X124739054Y-99193772D01*
X124725969Y-99187583D01*
X124713553Y-99180142D01*
X124701927Y-99171519D01*
X124691202Y-99161798D01*
X124681481Y-99151073D01*
X124672858Y-99139447D01*
X124665417Y-99127031D01*
X124659228Y-99113946D01*
X124654351Y-99100317D01*
X124650834Y-99086276D01*
X124648710Y-99071958D01*
X124648000Y-99057500D01*
X124648000Y-98762500D01*
X124648710Y-98748042D01*
X124650834Y-98733724D01*
X124654351Y-98719683D01*
X124659228Y-98706054D01*
X124665417Y-98692969D01*
X124672858Y-98680553D01*
X124681481Y-98668927D01*
X124691202Y-98658202D01*
X124701927Y-98648481D01*
X124713553Y-98639858D01*
X124725969Y-98632417D01*
X124739054Y-98626228D01*
X124752683Y-98621351D01*
X124766724Y-98617834D01*
X124781042Y-98615710D01*
X124795500Y-98615000D01*
X125140500Y-98615000D01*
X125154958Y-98615710D01*
X125154958Y-98615710D01*
G37*
D13*
X124968000Y-98910000D03*
G04 #@! TD*
D10*
G04 #@! TO.C,R5*
G36*
X125321142Y-104034674D02*
X125344803Y-104038184D01*
X125368007Y-104043996D01*
X125390529Y-104052054D01*
X125412153Y-104062282D01*
X125432670Y-104074579D01*
X125451883Y-104088829D01*
X125469607Y-104104893D01*
X125485671Y-104122617D01*
X125499921Y-104141830D01*
X125512218Y-104162347D01*
X125522446Y-104183971D01*
X125530504Y-104206493D01*
X125536316Y-104229697D01*
X125539826Y-104253358D01*
X125541000Y-104277250D01*
X125541000Y-104764750D01*
X125539826Y-104788642D01*
X125536316Y-104812303D01*
X125530504Y-104835507D01*
X125522446Y-104858029D01*
X125512218Y-104879653D01*
X125499921Y-104900170D01*
X125485671Y-104919383D01*
X125469607Y-104937107D01*
X125451883Y-104953171D01*
X125432670Y-104967421D01*
X125412153Y-104979718D01*
X125390529Y-104989946D01*
X125368007Y-104998004D01*
X125344803Y-105003816D01*
X125321142Y-105007326D01*
X125297250Y-105008500D01*
X124384750Y-105008500D01*
X124360858Y-105007326D01*
X124337197Y-105003816D01*
X124313993Y-104998004D01*
X124291471Y-104989946D01*
X124269847Y-104979718D01*
X124249330Y-104967421D01*
X124230117Y-104953171D01*
X124212393Y-104937107D01*
X124196329Y-104919383D01*
X124182079Y-104900170D01*
X124169782Y-104879653D01*
X124159554Y-104858029D01*
X124151496Y-104835507D01*
X124145684Y-104812303D01*
X124142174Y-104788642D01*
X124141000Y-104764750D01*
X124141000Y-104277250D01*
X124142174Y-104253358D01*
X124145684Y-104229697D01*
X124151496Y-104206493D01*
X124159554Y-104183971D01*
X124169782Y-104162347D01*
X124182079Y-104141830D01*
X124196329Y-104122617D01*
X124212393Y-104104893D01*
X124230117Y-104088829D01*
X124249330Y-104074579D01*
X124269847Y-104062282D01*
X124291471Y-104052054D01*
X124313993Y-104043996D01*
X124337197Y-104038184D01*
X124360858Y-104034674D01*
X124384750Y-104033500D01*
X125297250Y-104033500D01*
X125321142Y-104034674D01*
X125321142Y-104034674D01*
G37*
D11*
X124841000Y-104521000D03*
D10*
G36*
X125321142Y-102159674D02*
X125344803Y-102163184D01*
X125368007Y-102168996D01*
X125390529Y-102177054D01*
X125412153Y-102187282D01*
X125432670Y-102199579D01*
X125451883Y-102213829D01*
X125469607Y-102229893D01*
X125485671Y-102247617D01*
X125499921Y-102266830D01*
X125512218Y-102287347D01*
X125522446Y-102308971D01*
X125530504Y-102331493D01*
X125536316Y-102354697D01*
X125539826Y-102378358D01*
X125541000Y-102402250D01*
X125541000Y-102889750D01*
X125539826Y-102913642D01*
X125536316Y-102937303D01*
X125530504Y-102960507D01*
X125522446Y-102983029D01*
X125512218Y-103004653D01*
X125499921Y-103025170D01*
X125485671Y-103044383D01*
X125469607Y-103062107D01*
X125451883Y-103078171D01*
X125432670Y-103092421D01*
X125412153Y-103104718D01*
X125390529Y-103114946D01*
X125368007Y-103123004D01*
X125344803Y-103128816D01*
X125321142Y-103132326D01*
X125297250Y-103133500D01*
X124384750Y-103133500D01*
X124360858Y-103132326D01*
X124337197Y-103128816D01*
X124313993Y-103123004D01*
X124291471Y-103114946D01*
X124269847Y-103104718D01*
X124249330Y-103092421D01*
X124230117Y-103078171D01*
X124212393Y-103062107D01*
X124196329Y-103044383D01*
X124182079Y-103025170D01*
X124169782Y-103004653D01*
X124159554Y-102983029D01*
X124151496Y-102960507D01*
X124145684Y-102937303D01*
X124142174Y-102913642D01*
X124141000Y-102889750D01*
X124141000Y-102402250D01*
X124142174Y-102378358D01*
X124145684Y-102354697D01*
X124151496Y-102331493D01*
X124159554Y-102308971D01*
X124169782Y-102287347D01*
X124182079Y-102266830D01*
X124196329Y-102247617D01*
X124212393Y-102229893D01*
X124230117Y-102213829D01*
X124249330Y-102199579D01*
X124269847Y-102187282D01*
X124291471Y-102177054D01*
X124313993Y-102168996D01*
X124337197Y-102163184D01*
X124360858Y-102159674D01*
X124384750Y-102158500D01*
X125297250Y-102158500D01*
X125321142Y-102159674D01*
X125321142Y-102159674D01*
G37*
D11*
X124841000Y-102646000D03*
G04 #@! TD*
D10*
G04 #@! TO.C,R6*
G36*
X125490504Y-111523204D02*
X125514773Y-111526804D01*
X125538571Y-111532765D01*
X125561671Y-111541030D01*
X125583849Y-111551520D01*
X125604893Y-111564133D01*
X125624598Y-111578747D01*
X125642777Y-111595223D01*
X125659253Y-111613402D01*
X125673867Y-111633107D01*
X125686480Y-111654151D01*
X125696970Y-111676329D01*
X125705235Y-111699429D01*
X125711196Y-111723227D01*
X125714796Y-111747496D01*
X125716000Y-111772000D01*
X125716000Y-112522000D01*
X125714796Y-112546504D01*
X125711196Y-112570773D01*
X125705235Y-112594571D01*
X125696970Y-112617671D01*
X125686480Y-112639849D01*
X125673867Y-112660893D01*
X125659253Y-112680598D01*
X125642777Y-112698777D01*
X125624598Y-112715253D01*
X125604893Y-112729867D01*
X125583849Y-112742480D01*
X125561671Y-112752970D01*
X125538571Y-112761235D01*
X125514773Y-112767196D01*
X125490504Y-112770796D01*
X125466000Y-112772000D01*
X124216000Y-112772000D01*
X124191496Y-112770796D01*
X124167227Y-112767196D01*
X124143429Y-112761235D01*
X124120329Y-112752970D01*
X124098151Y-112742480D01*
X124077107Y-112729867D01*
X124057402Y-112715253D01*
X124039223Y-112698777D01*
X124022747Y-112680598D01*
X124008133Y-112660893D01*
X123995520Y-112639849D01*
X123985030Y-112617671D01*
X123976765Y-112594571D01*
X123970804Y-112570773D01*
X123967204Y-112546504D01*
X123966000Y-112522000D01*
X123966000Y-111772000D01*
X123967204Y-111747496D01*
X123970804Y-111723227D01*
X123976765Y-111699429D01*
X123985030Y-111676329D01*
X123995520Y-111654151D01*
X124008133Y-111633107D01*
X124022747Y-111613402D01*
X124039223Y-111595223D01*
X124057402Y-111578747D01*
X124077107Y-111564133D01*
X124098151Y-111551520D01*
X124120329Y-111541030D01*
X124143429Y-111532765D01*
X124167227Y-111526804D01*
X124191496Y-111523204D01*
X124216000Y-111522000D01*
X125466000Y-111522000D01*
X125490504Y-111523204D01*
X125490504Y-111523204D01*
G37*
D14*
X124841000Y-112147000D03*
D10*
G36*
X125490504Y-108723204D02*
X125514773Y-108726804D01*
X125538571Y-108732765D01*
X125561671Y-108741030D01*
X125583849Y-108751520D01*
X125604893Y-108764133D01*
X125624598Y-108778747D01*
X125642777Y-108795223D01*
X125659253Y-108813402D01*
X125673867Y-108833107D01*
X125686480Y-108854151D01*
X125696970Y-108876329D01*
X125705235Y-108899429D01*
X125711196Y-108923227D01*
X125714796Y-108947496D01*
X125716000Y-108972000D01*
X125716000Y-109722000D01*
X125714796Y-109746504D01*
X125711196Y-109770773D01*
X125705235Y-109794571D01*
X125696970Y-109817671D01*
X125686480Y-109839849D01*
X125673867Y-109860893D01*
X125659253Y-109880598D01*
X125642777Y-109898777D01*
X125624598Y-109915253D01*
X125604893Y-109929867D01*
X125583849Y-109942480D01*
X125561671Y-109952970D01*
X125538571Y-109961235D01*
X125514773Y-109967196D01*
X125490504Y-109970796D01*
X125466000Y-109972000D01*
X124216000Y-109972000D01*
X124191496Y-109970796D01*
X124167227Y-109967196D01*
X124143429Y-109961235D01*
X124120329Y-109952970D01*
X124098151Y-109942480D01*
X124077107Y-109929867D01*
X124057402Y-109915253D01*
X124039223Y-109898777D01*
X124022747Y-109880598D01*
X124008133Y-109860893D01*
X123995520Y-109839849D01*
X123985030Y-109817671D01*
X123976765Y-109794571D01*
X123970804Y-109770773D01*
X123967204Y-109746504D01*
X123966000Y-109722000D01*
X123966000Y-108972000D01*
X123967204Y-108947496D01*
X123970804Y-108923227D01*
X123976765Y-108899429D01*
X123985030Y-108876329D01*
X123995520Y-108854151D01*
X124008133Y-108833107D01*
X124022747Y-108813402D01*
X124039223Y-108795223D01*
X124057402Y-108778747D01*
X124077107Y-108764133D01*
X124098151Y-108751520D01*
X124120329Y-108741030D01*
X124143429Y-108732765D01*
X124167227Y-108726804D01*
X124191496Y-108723204D01*
X124216000Y-108722000D01*
X125466000Y-108722000D01*
X125490504Y-108723204D01*
X125490504Y-108723204D01*
G37*
D14*
X124841000Y-109347000D03*
G04 #@! TD*
D10*
G04 #@! TO.C,R7*
G36*
X129726958Y-98615710D02*
X129741276Y-98617834D01*
X129755317Y-98621351D01*
X129768946Y-98626228D01*
X129782031Y-98632417D01*
X129794447Y-98639858D01*
X129806073Y-98648481D01*
X129816798Y-98658202D01*
X129826519Y-98668927D01*
X129835142Y-98680553D01*
X129842583Y-98692969D01*
X129848772Y-98706054D01*
X129853649Y-98719683D01*
X129857166Y-98733724D01*
X129859290Y-98748042D01*
X129860000Y-98762500D01*
X129860000Y-99057500D01*
X129859290Y-99071958D01*
X129857166Y-99086276D01*
X129853649Y-99100317D01*
X129848772Y-99113946D01*
X129842583Y-99127031D01*
X129835142Y-99139447D01*
X129826519Y-99151073D01*
X129816798Y-99161798D01*
X129806073Y-99171519D01*
X129794447Y-99180142D01*
X129782031Y-99187583D01*
X129768946Y-99193772D01*
X129755317Y-99198649D01*
X129741276Y-99202166D01*
X129726958Y-99204290D01*
X129712500Y-99205000D01*
X129367500Y-99205000D01*
X129353042Y-99204290D01*
X129338724Y-99202166D01*
X129324683Y-99198649D01*
X129311054Y-99193772D01*
X129297969Y-99187583D01*
X129285553Y-99180142D01*
X129273927Y-99171519D01*
X129263202Y-99161798D01*
X129253481Y-99151073D01*
X129244858Y-99139447D01*
X129237417Y-99127031D01*
X129231228Y-99113946D01*
X129226351Y-99100317D01*
X129222834Y-99086276D01*
X129220710Y-99071958D01*
X129220000Y-99057500D01*
X129220000Y-98762500D01*
X129220710Y-98748042D01*
X129222834Y-98733724D01*
X129226351Y-98719683D01*
X129231228Y-98706054D01*
X129237417Y-98692969D01*
X129244858Y-98680553D01*
X129253481Y-98668927D01*
X129263202Y-98658202D01*
X129273927Y-98648481D01*
X129285553Y-98639858D01*
X129297969Y-98632417D01*
X129311054Y-98626228D01*
X129324683Y-98621351D01*
X129338724Y-98617834D01*
X129353042Y-98615710D01*
X129367500Y-98615000D01*
X129712500Y-98615000D01*
X129726958Y-98615710D01*
X129726958Y-98615710D01*
G37*
D13*
X129540000Y-98910000D03*
D10*
G36*
X129726958Y-97645710D02*
X129741276Y-97647834D01*
X129755317Y-97651351D01*
X129768946Y-97656228D01*
X129782031Y-97662417D01*
X129794447Y-97669858D01*
X129806073Y-97678481D01*
X129816798Y-97688202D01*
X129826519Y-97698927D01*
X129835142Y-97710553D01*
X129842583Y-97722969D01*
X129848772Y-97736054D01*
X129853649Y-97749683D01*
X129857166Y-97763724D01*
X129859290Y-97778042D01*
X129860000Y-97792500D01*
X129860000Y-98087500D01*
X129859290Y-98101958D01*
X129857166Y-98116276D01*
X129853649Y-98130317D01*
X129848772Y-98143946D01*
X129842583Y-98157031D01*
X129835142Y-98169447D01*
X129826519Y-98181073D01*
X129816798Y-98191798D01*
X129806073Y-98201519D01*
X129794447Y-98210142D01*
X129782031Y-98217583D01*
X129768946Y-98223772D01*
X129755317Y-98228649D01*
X129741276Y-98232166D01*
X129726958Y-98234290D01*
X129712500Y-98235000D01*
X129367500Y-98235000D01*
X129353042Y-98234290D01*
X129338724Y-98232166D01*
X129324683Y-98228649D01*
X129311054Y-98223772D01*
X129297969Y-98217583D01*
X129285553Y-98210142D01*
X129273927Y-98201519D01*
X129263202Y-98191798D01*
X129253481Y-98181073D01*
X129244858Y-98169447D01*
X129237417Y-98157031D01*
X129231228Y-98143946D01*
X129226351Y-98130317D01*
X129222834Y-98116276D01*
X129220710Y-98101958D01*
X129220000Y-98087500D01*
X129220000Y-97792500D01*
X129220710Y-97778042D01*
X129222834Y-97763724D01*
X129226351Y-97749683D01*
X129231228Y-97736054D01*
X129237417Y-97722969D01*
X129244858Y-97710553D01*
X129253481Y-97698927D01*
X129263202Y-97688202D01*
X129273927Y-97678481D01*
X129285553Y-97669858D01*
X129297969Y-97662417D01*
X129311054Y-97656228D01*
X129324683Y-97651351D01*
X129338724Y-97647834D01*
X129353042Y-97645710D01*
X129367500Y-97645000D01*
X129712500Y-97645000D01*
X129726958Y-97645710D01*
X129726958Y-97645710D01*
G37*
D13*
X129540000Y-97940000D03*
G04 #@! TD*
D10*
G04 #@! TO.C,R8*
G36*
X130020142Y-102159674D02*
X130043803Y-102163184D01*
X130067007Y-102168996D01*
X130089529Y-102177054D01*
X130111153Y-102187282D01*
X130131670Y-102199579D01*
X130150883Y-102213829D01*
X130168607Y-102229893D01*
X130184671Y-102247617D01*
X130198921Y-102266830D01*
X130211218Y-102287347D01*
X130221446Y-102308971D01*
X130229504Y-102331493D01*
X130235316Y-102354697D01*
X130238826Y-102378358D01*
X130240000Y-102402250D01*
X130240000Y-102889750D01*
X130238826Y-102913642D01*
X130235316Y-102937303D01*
X130229504Y-102960507D01*
X130221446Y-102983029D01*
X130211218Y-103004653D01*
X130198921Y-103025170D01*
X130184671Y-103044383D01*
X130168607Y-103062107D01*
X130150883Y-103078171D01*
X130131670Y-103092421D01*
X130111153Y-103104718D01*
X130089529Y-103114946D01*
X130067007Y-103123004D01*
X130043803Y-103128816D01*
X130020142Y-103132326D01*
X129996250Y-103133500D01*
X129083750Y-103133500D01*
X129059858Y-103132326D01*
X129036197Y-103128816D01*
X129012993Y-103123004D01*
X128990471Y-103114946D01*
X128968847Y-103104718D01*
X128948330Y-103092421D01*
X128929117Y-103078171D01*
X128911393Y-103062107D01*
X128895329Y-103044383D01*
X128881079Y-103025170D01*
X128868782Y-103004653D01*
X128858554Y-102983029D01*
X128850496Y-102960507D01*
X128844684Y-102937303D01*
X128841174Y-102913642D01*
X128840000Y-102889750D01*
X128840000Y-102402250D01*
X128841174Y-102378358D01*
X128844684Y-102354697D01*
X128850496Y-102331493D01*
X128858554Y-102308971D01*
X128868782Y-102287347D01*
X128881079Y-102266830D01*
X128895329Y-102247617D01*
X128911393Y-102229893D01*
X128929117Y-102213829D01*
X128948330Y-102199579D01*
X128968847Y-102187282D01*
X128990471Y-102177054D01*
X129012993Y-102168996D01*
X129036197Y-102163184D01*
X129059858Y-102159674D01*
X129083750Y-102158500D01*
X129996250Y-102158500D01*
X130020142Y-102159674D01*
X130020142Y-102159674D01*
G37*
D11*
X129540000Y-102646000D03*
D10*
G36*
X130020142Y-104034674D02*
X130043803Y-104038184D01*
X130067007Y-104043996D01*
X130089529Y-104052054D01*
X130111153Y-104062282D01*
X130131670Y-104074579D01*
X130150883Y-104088829D01*
X130168607Y-104104893D01*
X130184671Y-104122617D01*
X130198921Y-104141830D01*
X130211218Y-104162347D01*
X130221446Y-104183971D01*
X130229504Y-104206493D01*
X130235316Y-104229697D01*
X130238826Y-104253358D01*
X130240000Y-104277250D01*
X130240000Y-104764750D01*
X130238826Y-104788642D01*
X130235316Y-104812303D01*
X130229504Y-104835507D01*
X130221446Y-104858029D01*
X130211218Y-104879653D01*
X130198921Y-104900170D01*
X130184671Y-104919383D01*
X130168607Y-104937107D01*
X130150883Y-104953171D01*
X130131670Y-104967421D01*
X130111153Y-104979718D01*
X130089529Y-104989946D01*
X130067007Y-104998004D01*
X130043803Y-105003816D01*
X130020142Y-105007326D01*
X129996250Y-105008500D01*
X129083750Y-105008500D01*
X129059858Y-105007326D01*
X129036197Y-105003816D01*
X129012993Y-104998004D01*
X128990471Y-104989946D01*
X128968847Y-104979718D01*
X128948330Y-104967421D01*
X128929117Y-104953171D01*
X128911393Y-104937107D01*
X128895329Y-104919383D01*
X128881079Y-104900170D01*
X128868782Y-104879653D01*
X128858554Y-104858029D01*
X128850496Y-104835507D01*
X128844684Y-104812303D01*
X128841174Y-104788642D01*
X128840000Y-104764750D01*
X128840000Y-104277250D01*
X128841174Y-104253358D01*
X128844684Y-104229697D01*
X128850496Y-104206493D01*
X128858554Y-104183971D01*
X128868782Y-104162347D01*
X128881079Y-104141830D01*
X128895329Y-104122617D01*
X128911393Y-104104893D01*
X128929117Y-104088829D01*
X128948330Y-104074579D01*
X128968847Y-104062282D01*
X128990471Y-104052054D01*
X129012993Y-104043996D01*
X129036197Y-104038184D01*
X129059858Y-104034674D01*
X129083750Y-104033500D01*
X129996250Y-104033500D01*
X130020142Y-104034674D01*
X130020142Y-104034674D01*
G37*
D11*
X129540000Y-104521000D03*
G04 #@! TD*
D10*
G04 #@! TO.C,R9*
G36*
X130062504Y-111520204D02*
X130086773Y-111523804D01*
X130110571Y-111529765D01*
X130133671Y-111538030D01*
X130155849Y-111548520D01*
X130176893Y-111561133D01*
X130196598Y-111575747D01*
X130214777Y-111592223D01*
X130231253Y-111610402D01*
X130245867Y-111630107D01*
X130258480Y-111651151D01*
X130268970Y-111673329D01*
X130277235Y-111696429D01*
X130283196Y-111720227D01*
X130286796Y-111744496D01*
X130288000Y-111769000D01*
X130288000Y-112519000D01*
X130286796Y-112543504D01*
X130283196Y-112567773D01*
X130277235Y-112591571D01*
X130268970Y-112614671D01*
X130258480Y-112636849D01*
X130245867Y-112657893D01*
X130231253Y-112677598D01*
X130214777Y-112695777D01*
X130196598Y-112712253D01*
X130176893Y-112726867D01*
X130155849Y-112739480D01*
X130133671Y-112749970D01*
X130110571Y-112758235D01*
X130086773Y-112764196D01*
X130062504Y-112767796D01*
X130038000Y-112769000D01*
X128788000Y-112769000D01*
X128763496Y-112767796D01*
X128739227Y-112764196D01*
X128715429Y-112758235D01*
X128692329Y-112749970D01*
X128670151Y-112739480D01*
X128649107Y-112726867D01*
X128629402Y-112712253D01*
X128611223Y-112695777D01*
X128594747Y-112677598D01*
X128580133Y-112657893D01*
X128567520Y-112636849D01*
X128557030Y-112614671D01*
X128548765Y-112591571D01*
X128542804Y-112567773D01*
X128539204Y-112543504D01*
X128538000Y-112519000D01*
X128538000Y-111769000D01*
X128539204Y-111744496D01*
X128542804Y-111720227D01*
X128548765Y-111696429D01*
X128557030Y-111673329D01*
X128567520Y-111651151D01*
X128580133Y-111630107D01*
X128594747Y-111610402D01*
X128611223Y-111592223D01*
X128629402Y-111575747D01*
X128649107Y-111561133D01*
X128670151Y-111548520D01*
X128692329Y-111538030D01*
X128715429Y-111529765D01*
X128739227Y-111523804D01*
X128763496Y-111520204D01*
X128788000Y-111519000D01*
X130038000Y-111519000D01*
X130062504Y-111520204D01*
X130062504Y-111520204D01*
G37*
D14*
X129413000Y-112144000D03*
D10*
G36*
X130062504Y-108720204D02*
X130086773Y-108723804D01*
X130110571Y-108729765D01*
X130133671Y-108738030D01*
X130155849Y-108748520D01*
X130176893Y-108761133D01*
X130196598Y-108775747D01*
X130214777Y-108792223D01*
X130231253Y-108810402D01*
X130245867Y-108830107D01*
X130258480Y-108851151D01*
X130268970Y-108873329D01*
X130277235Y-108896429D01*
X130283196Y-108920227D01*
X130286796Y-108944496D01*
X130288000Y-108969000D01*
X130288000Y-109719000D01*
X130286796Y-109743504D01*
X130283196Y-109767773D01*
X130277235Y-109791571D01*
X130268970Y-109814671D01*
X130258480Y-109836849D01*
X130245867Y-109857893D01*
X130231253Y-109877598D01*
X130214777Y-109895777D01*
X130196598Y-109912253D01*
X130176893Y-109926867D01*
X130155849Y-109939480D01*
X130133671Y-109949970D01*
X130110571Y-109958235D01*
X130086773Y-109964196D01*
X130062504Y-109967796D01*
X130038000Y-109969000D01*
X128788000Y-109969000D01*
X128763496Y-109967796D01*
X128739227Y-109964196D01*
X128715429Y-109958235D01*
X128692329Y-109949970D01*
X128670151Y-109939480D01*
X128649107Y-109926867D01*
X128629402Y-109912253D01*
X128611223Y-109895777D01*
X128594747Y-109877598D01*
X128580133Y-109857893D01*
X128567520Y-109836849D01*
X128557030Y-109814671D01*
X128548765Y-109791571D01*
X128542804Y-109767773D01*
X128539204Y-109743504D01*
X128538000Y-109719000D01*
X128538000Y-108969000D01*
X128539204Y-108944496D01*
X128542804Y-108920227D01*
X128548765Y-108896429D01*
X128557030Y-108873329D01*
X128567520Y-108851151D01*
X128580133Y-108830107D01*
X128594747Y-108810402D01*
X128611223Y-108792223D01*
X128629402Y-108775747D01*
X128649107Y-108761133D01*
X128670151Y-108748520D01*
X128692329Y-108738030D01*
X128715429Y-108729765D01*
X128739227Y-108723804D01*
X128763496Y-108720204D01*
X128788000Y-108719000D01*
X130038000Y-108719000D01*
X130062504Y-108720204D01*
X130062504Y-108720204D01*
G37*
D14*
X129413000Y-109344000D03*
G04 #@! TD*
D10*
G04 #@! TO.C,R10*
G36*
X134933958Y-97645710D02*
X134948276Y-97647834D01*
X134962317Y-97651351D01*
X134975946Y-97656228D01*
X134989031Y-97662417D01*
X135001447Y-97669858D01*
X135013073Y-97678481D01*
X135023798Y-97688202D01*
X135033519Y-97698927D01*
X135042142Y-97710553D01*
X135049583Y-97722969D01*
X135055772Y-97736054D01*
X135060649Y-97749683D01*
X135064166Y-97763724D01*
X135066290Y-97778042D01*
X135067000Y-97792500D01*
X135067000Y-98087500D01*
X135066290Y-98101958D01*
X135064166Y-98116276D01*
X135060649Y-98130317D01*
X135055772Y-98143946D01*
X135049583Y-98157031D01*
X135042142Y-98169447D01*
X135033519Y-98181073D01*
X135023798Y-98191798D01*
X135013073Y-98201519D01*
X135001447Y-98210142D01*
X134989031Y-98217583D01*
X134975946Y-98223772D01*
X134962317Y-98228649D01*
X134948276Y-98232166D01*
X134933958Y-98234290D01*
X134919500Y-98235000D01*
X134574500Y-98235000D01*
X134560042Y-98234290D01*
X134545724Y-98232166D01*
X134531683Y-98228649D01*
X134518054Y-98223772D01*
X134504969Y-98217583D01*
X134492553Y-98210142D01*
X134480927Y-98201519D01*
X134470202Y-98191798D01*
X134460481Y-98181073D01*
X134451858Y-98169447D01*
X134444417Y-98157031D01*
X134438228Y-98143946D01*
X134433351Y-98130317D01*
X134429834Y-98116276D01*
X134427710Y-98101958D01*
X134427000Y-98087500D01*
X134427000Y-97792500D01*
X134427710Y-97778042D01*
X134429834Y-97763724D01*
X134433351Y-97749683D01*
X134438228Y-97736054D01*
X134444417Y-97722969D01*
X134451858Y-97710553D01*
X134460481Y-97698927D01*
X134470202Y-97688202D01*
X134480927Y-97678481D01*
X134492553Y-97669858D01*
X134504969Y-97662417D01*
X134518054Y-97656228D01*
X134531683Y-97651351D01*
X134545724Y-97647834D01*
X134560042Y-97645710D01*
X134574500Y-97645000D01*
X134919500Y-97645000D01*
X134933958Y-97645710D01*
X134933958Y-97645710D01*
G37*
D13*
X134747000Y-97940000D03*
D10*
G36*
X134933958Y-98615710D02*
X134948276Y-98617834D01*
X134962317Y-98621351D01*
X134975946Y-98626228D01*
X134989031Y-98632417D01*
X135001447Y-98639858D01*
X135013073Y-98648481D01*
X135023798Y-98658202D01*
X135033519Y-98668927D01*
X135042142Y-98680553D01*
X135049583Y-98692969D01*
X135055772Y-98706054D01*
X135060649Y-98719683D01*
X135064166Y-98733724D01*
X135066290Y-98748042D01*
X135067000Y-98762500D01*
X135067000Y-99057500D01*
X135066290Y-99071958D01*
X135064166Y-99086276D01*
X135060649Y-99100317D01*
X135055772Y-99113946D01*
X135049583Y-99127031D01*
X135042142Y-99139447D01*
X135033519Y-99151073D01*
X135023798Y-99161798D01*
X135013073Y-99171519D01*
X135001447Y-99180142D01*
X134989031Y-99187583D01*
X134975946Y-99193772D01*
X134962317Y-99198649D01*
X134948276Y-99202166D01*
X134933958Y-99204290D01*
X134919500Y-99205000D01*
X134574500Y-99205000D01*
X134560042Y-99204290D01*
X134545724Y-99202166D01*
X134531683Y-99198649D01*
X134518054Y-99193772D01*
X134504969Y-99187583D01*
X134492553Y-99180142D01*
X134480927Y-99171519D01*
X134470202Y-99161798D01*
X134460481Y-99151073D01*
X134451858Y-99139447D01*
X134444417Y-99127031D01*
X134438228Y-99113946D01*
X134433351Y-99100317D01*
X134429834Y-99086276D01*
X134427710Y-99071958D01*
X134427000Y-99057500D01*
X134427000Y-98762500D01*
X134427710Y-98748042D01*
X134429834Y-98733724D01*
X134433351Y-98719683D01*
X134438228Y-98706054D01*
X134444417Y-98692969D01*
X134451858Y-98680553D01*
X134460481Y-98668927D01*
X134470202Y-98658202D01*
X134480927Y-98648481D01*
X134492553Y-98639858D01*
X134504969Y-98632417D01*
X134518054Y-98626228D01*
X134531683Y-98621351D01*
X134545724Y-98617834D01*
X134560042Y-98615710D01*
X134574500Y-98615000D01*
X134919500Y-98615000D01*
X134933958Y-98615710D01*
X134933958Y-98615710D01*
G37*
D13*
X134747000Y-98910000D03*
G04 #@! TD*
D10*
G04 #@! TO.C,R11*
G36*
X134846142Y-104083174D02*
X134869803Y-104086684D01*
X134893007Y-104092496D01*
X134915529Y-104100554D01*
X134937153Y-104110782D01*
X134957670Y-104123079D01*
X134976883Y-104137329D01*
X134994607Y-104153393D01*
X135010671Y-104171117D01*
X135024921Y-104190330D01*
X135037218Y-104210847D01*
X135047446Y-104232471D01*
X135055504Y-104254993D01*
X135061316Y-104278197D01*
X135064826Y-104301858D01*
X135066000Y-104325750D01*
X135066000Y-104813250D01*
X135064826Y-104837142D01*
X135061316Y-104860803D01*
X135055504Y-104884007D01*
X135047446Y-104906529D01*
X135037218Y-104928153D01*
X135024921Y-104948670D01*
X135010671Y-104967883D01*
X134994607Y-104985607D01*
X134976883Y-105001671D01*
X134957670Y-105015921D01*
X134937153Y-105028218D01*
X134915529Y-105038446D01*
X134893007Y-105046504D01*
X134869803Y-105052316D01*
X134846142Y-105055826D01*
X134822250Y-105057000D01*
X133909750Y-105057000D01*
X133885858Y-105055826D01*
X133862197Y-105052316D01*
X133838993Y-105046504D01*
X133816471Y-105038446D01*
X133794847Y-105028218D01*
X133774330Y-105015921D01*
X133755117Y-105001671D01*
X133737393Y-104985607D01*
X133721329Y-104967883D01*
X133707079Y-104948670D01*
X133694782Y-104928153D01*
X133684554Y-104906529D01*
X133676496Y-104884007D01*
X133670684Y-104860803D01*
X133667174Y-104837142D01*
X133666000Y-104813250D01*
X133666000Y-104325750D01*
X133667174Y-104301858D01*
X133670684Y-104278197D01*
X133676496Y-104254993D01*
X133684554Y-104232471D01*
X133694782Y-104210847D01*
X133707079Y-104190330D01*
X133721329Y-104171117D01*
X133737393Y-104153393D01*
X133755117Y-104137329D01*
X133774330Y-104123079D01*
X133794847Y-104110782D01*
X133816471Y-104100554D01*
X133838993Y-104092496D01*
X133862197Y-104086684D01*
X133885858Y-104083174D01*
X133909750Y-104082000D01*
X134822250Y-104082000D01*
X134846142Y-104083174D01*
X134846142Y-104083174D01*
G37*
D11*
X134366000Y-104569500D03*
D10*
G36*
X134846142Y-102208174D02*
X134869803Y-102211684D01*
X134893007Y-102217496D01*
X134915529Y-102225554D01*
X134937153Y-102235782D01*
X134957670Y-102248079D01*
X134976883Y-102262329D01*
X134994607Y-102278393D01*
X135010671Y-102296117D01*
X135024921Y-102315330D01*
X135037218Y-102335847D01*
X135047446Y-102357471D01*
X135055504Y-102379993D01*
X135061316Y-102403197D01*
X135064826Y-102426858D01*
X135066000Y-102450750D01*
X135066000Y-102938250D01*
X135064826Y-102962142D01*
X135061316Y-102985803D01*
X135055504Y-103009007D01*
X135047446Y-103031529D01*
X135037218Y-103053153D01*
X135024921Y-103073670D01*
X135010671Y-103092883D01*
X134994607Y-103110607D01*
X134976883Y-103126671D01*
X134957670Y-103140921D01*
X134937153Y-103153218D01*
X134915529Y-103163446D01*
X134893007Y-103171504D01*
X134869803Y-103177316D01*
X134846142Y-103180826D01*
X134822250Y-103182000D01*
X133909750Y-103182000D01*
X133885858Y-103180826D01*
X133862197Y-103177316D01*
X133838993Y-103171504D01*
X133816471Y-103163446D01*
X133794847Y-103153218D01*
X133774330Y-103140921D01*
X133755117Y-103126671D01*
X133737393Y-103110607D01*
X133721329Y-103092883D01*
X133707079Y-103073670D01*
X133694782Y-103053153D01*
X133684554Y-103031529D01*
X133676496Y-103009007D01*
X133670684Y-102985803D01*
X133667174Y-102962142D01*
X133666000Y-102938250D01*
X133666000Y-102450750D01*
X133667174Y-102426858D01*
X133670684Y-102403197D01*
X133676496Y-102379993D01*
X133684554Y-102357471D01*
X133694782Y-102335847D01*
X133707079Y-102315330D01*
X133721329Y-102296117D01*
X133737393Y-102278393D01*
X133755117Y-102262329D01*
X133774330Y-102248079D01*
X133794847Y-102235782D01*
X133816471Y-102225554D01*
X133838993Y-102217496D01*
X133862197Y-102211684D01*
X133885858Y-102208174D01*
X133909750Y-102207000D01*
X134822250Y-102207000D01*
X134846142Y-102208174D01*
X134846142Y-102208174D01*
G37*
D11*
X134366000Y-102694500D03*
G04 #@! TD*
D10*
G04 #@! TO.C,R12*
G36*
X137047504Y-108720204D02*
X137071773Y-108723804D01*
X137095571Y-108729765D01*
X137118671Y-108738030D01*
X137140849Y-108748520D01*
X137161893Y-108761133D01*
X137181598Y-108775747D01*
X137199777Y-108792223D01*
X137216253Y-108810402D01*
X137230867Y-108830107D01*
X137243480Y-108851151D01*
X137253970Y-108873329D01*
X137262235Y-108896429D01*
X137268196Y-108920227D01*
X137271796Y-108944496D01*
X137273000Y-108969000D01*
X137273000Y-109719000D01*
X137271796Y-109743504D01*
X137268196Y-109767773D01*
X137262235Y-109791571D01*
X137253970Y-109814671D01*
X137243480Y-109836849D01*
X137230867Y-109857893D01*
X137216253Y-109877598D01*
X137199777Y-109895777D01*
X137181598Y-109912253D01*
X137161893Y-109926867D01*
X137140849Y-109939480D01*
X137118671Y-109949970D01*
X137095571Y-109958235D01*
X137071773Y-109964196D01*
X137047504Y-109967796D01*
X137023000Y-109969000D01*
X135773000Y-109969000D01*
X135748496Y-109967796D01*
X135724227Y-109964196D01*
X135700429Y-109958235D01*
X135677329Y-109949970D01*
X135655151Y-109939480D01*
X135634107Y-109926867D01*
X135614402Y-109912253D01*
X135596223Y-109895777D01*
X135579747Y-109877598D01*
X135565133Y-109857893D01*
X135552520Y-109836849D01*
X135542030Y-109814671D01*
X135533765Y-109791571D01*
X135527804Y-109767773D01*
X135524204Y-109743504D01*
X135523000Y-109719000D01*
X135523000Y-108969000D01*
X135524204Y-108944496D01*
X135527804Y-108920227D01*
X135533765Y-108896429D01*
X135542030Y-108873329D01*
X135552520Y-108851151D01*
X135565133Y-108830107D01*
X135579747Y-108810402D01*
X135596223Y-108792223D01*
X135614402Y-108775747D01*
X135634107Y-108761133D01*
X135655151Y-108748520D01*
X135677329Y-108738030D01*
X135700429Y-108729765D01*
X135724227Y-108723804D01*
X135748496Y-108720204D01*
X135773000Y-108719000D01*
X137023000Y-108719000D01*
X137047504Y-108720204D01*
X137047504Y-108720204D01*
G37*
D14*
X136398000Y-109344000D03*
D10*
G36*
X137047504Y-111520204D02*
X137071773Y-111523804D01*
X137095571Y-111529765D01*
X137118671Y-111538030D01*
X137140849Y-111548520D01*
X137161893Y-111561133D01*
X137181598Y-111575747D01*
X137199777Y-111592223D01*
X137216253Y-111610402D01*
X137230867Y-111630107D01*
X137243480Y-111651151D01*
X137253970Y-111673329D01*
X137262235Y-111696429D01*
X137268196Y-111720227D01*
X137271796Y-111744496D01*
X137273000Y-111769000D01*
X137273000Y-112519000D01*
X137271796Y-112543504D01*
X137268196Y-112567773D01*
X137262235Y-112591571D01*
X137253970Y-112614671D01*
X137243480Y-112636849D01*
X137230867Y-112657893D01*
X137216253Y-112677598D01*
X137199777Y-112695777D01*
X137181598Y-112712253D01*
X137161893Y-112726867D01*
X137140849Y-112739480D01*
X137118671Y-112749970D01*
X137095571Y-112758235D01*
X137071773Y-112764196D01*
X137047504Y-112767796D01*
X137023000Y-112769000D01*
X135773000Y-112769000D01*
X135748496Y-112767796D01*
X135724227Y-112764196D01*
X135700429Y-112758235D01*
X135677329Y-112749970D01*
X135655151Y-112739480D01*
X135634107Y-112726867D01*
X135614402Y-112712253D01*
X135596223Y-112695777D01*
X135579747Y-112677598D01*
X135565133Y-112657893D01*
X135552520Y-112636849D01*
X135542030Y-112614671D01*
X135533765Y-112591571D01*
X135527804Y-112567773D01*
X135524204Y-112543504D01*
X135523000Y-112519000D01*
X135523000Y-111769000D01*
X135524204Y-111744496D01*
X135527804Y-111720227D01*
X135533765Y-111696429D01*
X135542030Y-111673329D01*
X135552520Y-111651151D01*
X135565133Y-111630107D01*
X135579747Y-111610402D01*
X135596223Y-111592223D01*
X135614402Y-111575747D01*
X135634107Y-111561133D01*
X135655151Y-111548520D01*
X135677329Y-111538030D01*
X135700429Y-111529765D01*
X135724227Y-111523804D01*
X135748496Y-111520204D01*
X135773000Y-111519000D01*
X137023000Y-111519000D01*
X137047504Y-111520204D01*
X137047504Y-111520204D01*
G37*
D14*
X136398000Y-112144000D03*
G04 #@! TD*
D10*
G04 #@! TO.C,R13*
G36*
X135949958Y-98615710D02*
X135964276Y-98617834D01*
X135978317Y-98621351D01*
X135991946Y-98626228D01*
X136005031Y-98632417D01*
X136017447Y-98639858D01*
X136029073Y-98648481D01*
X136039798Y-98658202D01*
X136049519Y-98668927D01*
X136058142Y-98680553D01*
X136065583Y-98692969D01*
X136071772Y-98706054D01*
X136076649Y-98719683D01*
X136080166Y-98733724D01*
X136082290Y-98748042D01*
X136083000Y-98762500D01*
X136083000Y-99057500D01*
X136082290Y-99071958D01*
X136080166Y-99086276D01*
X136076649Y-99100317D01*
X136071772Y-99113946D01*
X136065583Y-99127031D01*
X136058142Y-99139447D01*
X136049519Y-99151073D01*
X136039798Y-99161798D01*
X136029073Y-99171519D01*
X136017447Y-99180142D01*
X136005031Y-99187583D01*
X135991946Y-99193772D01*
X135978317Y-99198649D01*
X135964276Y-99202166D01*
X135949958Y-99204290D01*
X135935500Y-99205000D01*
X135590500Y-99205000D01*
X135576042Y-99204290D01*
X135561724Y-99202166D01*
X135547683Y-99198649D01*
X135534054Y-99193772D01*
X135520969Y-99187583D01*
X135508553Y-99180142D01*
X135496927Y-99171519D01*
X135486202Y-99161798D01*
X135476481Y-99151073D01*
X135467858Y-99139447D01*
X135460417Y-99127031D01*
X135454228Y-99113946D01*
X135449351Y-99100317D01*
X135445834Y-99086276D01*
X135443710Y-99071958D01*
X135443000Y-99057500D01*
X135443000Y-98762500D01*
X135443710Y-98748042D01*
X135445834Y-98733724D01*
X135449351Y-98719683D01*
X135454228Y-98706054D01*
X135460417Y-98692969D01*
X135467858Y-98680553D01*
X135476481Y-98668927D01*
X135486202Y-98658202D01*
X135496927Y-98648481D01*
X135508553Y-98639858D01*
X135520969Y-98632417D01*
X135534054Y-98626228D01*
X135547683Y-98621351D01*
X135561724Y-98617834D01*
X135576042Y-98615710D01*
X135590500Y-98615000D01*
X135935500Y-98615000D01*
X135949958Y-98615710D01*
X135949958Y-98615710D01*
G37*
D13*
X135763000Y-98910000D03*
D10*
G36*
X135949958Y-97645710D02*
X135964276Y-97647834D01*
X135978317Y-97651351D01*
X135991946Y-97656228D01*
X136005031Y-97662417D01*
X136017447Y-97669858D01*
X136029073Y-97678481D01*
X136039798Y-97688202D01*
X136049519Y-97698927D01*
X136058142Y-97710553D01*
X136065583Y-97722969D01*
X136071772Y-97736054D01*
X136076649Y-97749683D01*
X136080166Y-97763724D01*
X136082290Y-97778042D01*
X136083000Y-97792500D01*
X136083000Y-98087500D01*
X136082290Y-98101958D01*
X136080166Y-98116276D01*
X136076649Y-98130317D01*
X136071772Y-98143946D01*
X136065583Y-98157031D01*
X136058142Y-98169447D01*
X136049519Y-98181073D01*
X136039798Y-98191798D01*
X136029073Y-98201519D01*
X136017447Y-98210142D01*
X136005031Y-98217583D01*
X135991946Y-98223772D01*
X135978317Y-98228649D01*
X135964276Y-98232166D01*
X135949958Y-98234290D01*
X135935500Y-98235000D01*
X135590500Y-98235000D01*
X135576042Y-98234290D01*
X135561724Y-98232166D01*
X135547683Y-98228649D01*
X135534054Y-98223772D01*
X135520969Y-98217583D01*
X135508553Y-98210142D01*
X135496927Y-98201519D01*
X135486202Y-98191798D01*
X135476481Y-98181073D01*
X135467858Y-98169447D01*
X135460417Y-98157031D01*
X135454228Y-98143946D01*
X135449351Y-98130317D01*
X135445834Y-98116276D01*
X135443710Y-98101958D01*
X135443000Y-98087500D01*
X135443000Y-97792500D01*
X135443710Y-97778042D01*
X135445834Y-97763724D01*
X135449351Y-97749683D01*
X135454228Y-97736054D01*
X135460417Y-97722969D01*
X135467858Y-97710553D01*
X135476481Y-97698927D01*
X135486202Y-97688202D01*
X135496927Y-97678481D01*
X135508553Y-97669858D01*
X135520969Y-97662417D01*
X135534054Y-97656228D01*
X135547683Y-97651351D01*
X135561724Y-97647834D01*
X135576042Y-97645710D01*
X135590500Y-97645000D01*
X135935500Y-97645000D01*
X135949958Y-97645710D01*
X135949958Y-97645710D01*
G37*
D13*
X135763000Y-97940000D03*
G04 #@! TD*
D10*
G04 #@! TO.C,R14*
G36*
X136751142Y-104083174D02*
X136774803Y-104086684D01*
X136798007Y-104092496D01*
X136820529Y-104100554D01*
X136842153Y-104110782D01*
X136862670Y-104123079D01*
X136881883Y-104137329D01*
X136899607Y-104153393D01*
X136915671Y-104171117D01*
X136929921Y-104190330D01*
X136942218Y-104210847D01*
X136952446Y-104232471D01*
X136960504Y-104254993D01*
X136966316Y-104278197D01*
X136969826Y-104301858D01*
X136971000Y-104325750D01*
X136971000Y-104813250D01*
X136969826Y-104837142D01*
X136966316Y-104860803D01*
X136960504Y-104884007D01*
X136952446Y-104906529D01*
X136942218Y-104928153D01*
X136929921Y-104948670D01*
X136915671Y-104967883D01*
X136899607Y-104985607D01*
X136881883Y-105001671D01*
X136862670Y-105015921D01*
X136842153Y-105028218D01*
X136820529Y-105038446D01*
X136798007Y-105046504D01*
X136774803Y-105052316D01*
X136751142Y-105055826D01*
X136727250Y-105057000D01*
X135814750Y-105057000D01*
X135790858Y-105055826D01*
X135767197Y-105052316D01*
X135743993Y-105046504D01*
X135721471Y-105038446D01*
X135699847Y-105028218D01*
X135679330Y-105015921D01*
X135660117Y-105001671D01*
X135642393Y-104985607D01*
X135626329Y-104967883D01*
X135612079Y-104948670D01*
X135599782Y-104928153D01*
X135589554Y-104906529D01*
X135581496Y-104884007D01*
X135575684Y-104860803D01*
X135572174Y-104837142D01*
X135571000Y-104813250D01*
X135571000Y-104325750D01*
X135572174Y-104301858D01*
X135575684Y-104278197D01*
X135581496Y-104254993D01*
X135589554Y-104232471D01*
X135599782Y-104210847D01*
X135612079Y-104190330D01*
X135626329Y-104171117D01*
X135642393Y-104153393D01*
X135660117Y-104137329D01*
X135679330Y-104123079D01*
X135699847Y-104110782D01*
X135721471Y-104100554D01*
X135743993Y-104092496D01*
X135767197Y-104086684D01*
X135790858Y-104083174D01*
X135814750Y-104082000D01*
X136727250Y-104082000D01*
X136751142Y-104083174D01*
X136751142Y-104083174D01*
G37*
D11*
X136271000Y-104569500D03*
D10*
G36*
X136751142Y-102208174D02*
X136774803Y-102211684D01*
X136798007Y-102217496D01*
X136820529Y-102225554D01*
X136842153Y-102235782D01*
X136862670Y-102248079D01*
X136881883Y-102262329D01*
X136899607Y-102278393D01*
X136915671Y-102296117D01*
X136929921Y-102315330D01*
X136942218Y-102335847D01*
X136952446Y-102357471D01*
X136960504Y-102379993D01*
X136966316Y-102403197D01*
X136969826Y-102426858D01*
X136971000Y-102450750D01*
X136971000Y-102938250D01*
X136969826Y-102962142D01*
X136966316Y-102985803D01*
X136960504Y-103009007D01*
X136952446Y-103031529D01*
X136942218Y-103053153D01*
X136929921Y-103073670D01*
X136915671Y-103092883D01*
X136899607Y-103110607D01*
X136881883Y-103126671D01*
X136862670Y-103140921D01*
X136842153Y-103153218D01*
X136820529Y-103163446D01*
X136798007Y-103171504D01*
X136774803Y-103177316D01*
X136751142Y-103180826D01*
X136727250Y-103182000D01*
X135814750Y-103182000D01*
X135790858Y-103180826D01*
X135767197Y-103177316D01*
X135743993Y-103171504D01*
X135721471Y-103163446D01*
X135699847Y-103153218D01*
X135679330Y-103140921D01*
X135660117Y-103126671D01*
X135642393Y-103110607D01*
X135626329Y-103092883D01*
X135612079Y-103073670D01*
X135599782Y-103053153D01*
X135589554Y-103031529D01*
X135581496Y-103009007D01*
X135575684Y-102985803D01*
X135572174Y-102962142D01*
X135571000Y-102938250D01*
X135571000Y-102450750D01*
X135572174Y-102426858D01*
X135575684Y-102403197D01*
X135581496Y-102379993D01*
X135589554Y-102357471D01*
X135599782Y-102335847D01*
X135612079Y-102315330D01*
X135626329Y-102296117D01*
X135642393Y-102278393D01*
X135660117Y-102262329D01*
X135679330Y-102248079D01*
X135699847Y-102235782D01*
X135721471Y-102225554D01*
X135743993Y-102217496D01*
X135767197Y-102211684D01*
X135790858Y-102208174D01*
X135814750Y-102207000D01*
X136727250Y-102207000D01*
X136751142Y-102208174D01*
X136751142Y-102208174D01*
G37*
D11*
X136271000Y-102694500D03*
G04 #@! TD*
D10*
G04 #@! TO.C,R15*
G36*
X134786904Y-111520204D02*
X134811173Y-111523804D01*
X134834971Y-111529765D01*
X134858071Y-111538030D01*
X134880249Y-111548520D01*
X134901293Y-111561133D01*
X134920998Y-111575747D01*
X134939177Y-111592223D01*
X134955653Y-111610402D01*
X134970267Y-111630107D01*
X134982880Y-111651151D01*
X134993370Y-111673329D01*
X135001635Y-111696429D01*
X135007596Y-111720227D01*
X135011196Y-111744496D01*
X135012400Y-111769000D01*
X135012400Y-112519000D01*
X135011196Y-112543504D01*
X135007596Y-112567773D01*
X135001635Y-112591571D01*
X134993370Y-112614671D01*
X134982880Y-112636849D01*
X134970267Y-112657893D01*
X134955653Y-112677598D01*
X134939177Y-112695777D01*
X134920998Y-112712253D01*
X134901293Y-112726867D01*
X134880249Y-112739480D01*
X134858071Y-112749970D01*
X134834971Y-112758235D01*
X134811173Y-112764196D01*
X134786904Y-112767796D01*
X134762400Y-112769000D01*
X133512400Y-112769000D01*
X133487896Y-112767796D01*
X133463627Y-112764196D01*
X133439829Y-112758235D01*
X133416729Y-112749970D01*
X133394551Y-112739480D01*
X133373507Y-112726867D01*
X133353802Y-112712253D01*
X133335623Y-112695777D01*
X133319147Y-112677598D01*
X133304533Y-112657893D01*
X133291920Y-112636849D01*
X133281430Y-112614671D01*
X133273165Y-112591571D01*
X133267204Y-112567773D01*
X133263604Y-112543504D01*
X133262400Y-112519000D01*
X133262400Y-111769000D01*
X133263604Y-111744496D01*
X133267204Y-111720227D01*
X133273165Y-111696429D01*
X133281430Y-111673329D01*
X133291920Y-111651151D01*
X133304533Y-111630107D01*
X133319147Y-111610402D01*
X133335623Y-111592223D01*
X133353802Y-111575747D01*
X133373507Y-111561133D01*
X133394551Y-111548520D01*
X133416729Y-111538030D01*
X133439829Y-111529765D01*
X133463627Y-111523804D01*
X133487896Y-111520204D01*
X133512400Y-111519000D01*
X134762400Y-111519000D01*
X134786904Y-111520204D01*
X134786904Y-111520204D01*
G37*
D14*
X134137400Y-112144000D03*
D10*
G36*
X134786904Y-108720204D02*
X134811173Y-108723804D01*
X134834971Y-108729765D01*
X134858071Y-108738030D01*
X134880249Y-108748520D01*
X134901293Y-108761133D01*
X134920998Y-108775747D01*
X134939177Y-108792223D01*
X134955653Y-108810402D01*
X134970267Y-108830107D01*
X134982880Y-108851151D01*
X134993370Y-108873329D01*
X135001635Y-108896429D01*
X135007596Y-108920227D01*
X135011196Y-108944496D01*
X135012400Y-108969000D01*
X135012400Y-109719000D01*
X135011196Y-109743504D01*
X135007596Y-109767773D01*
X135001635Y-109791571D01*
X134993370Y-109814671D01*
X134982880Y-109836849D01*
X134970267Y-109857893D01*
X134955653Y-109877598D01*
X134939177Y-109895777D01*
X134920998Y-109912253D01*
X134901293Y-109926867D01*
X134880249Y-109939480D01*
X134858071Y-109949970D01*
X134834971Y-109958235D01*
X134811173Y-109964196D01*
X134786904Y-109967796D01*
X134762400Y-109969000D01*
X133512400Y-109969000D01*
X133487896Y-109967796D01*
X133463627Y-109964196D01*
X133439829Y-109958235D01*
X133416729Y-109949970D01*
X133394551Y-109939480D01*
X133373507Y-109926867D01*
X133353802Y-109912253D01*
X133335623Y-109895777D01*
X133319147Y-109877598D01*
X133304533Y-109857893D01*
X133291920Y-109836849D01*
X133281430Y-109814671D01*
X133273165Y-109791571D01*
X133267204Y-109767773D01*
X133263604Y-109743504D01*
X133262400Y-109719000D01*
X133262400Y-108969000D01*
X133263604Y-108944496D01*
X133267204Y-108920227D01*
X133273165Y-108896429D01*
X133281430Y-108873329D01*
X133291920Y-108851151D01*
X133304533Y-108830107D01*
X133319147Y-108810402D01*
X133335623Y-108792223D01*
X133353802Y-108775747D01*
X133373507Y-108761133D01*
X133394551Y-108748520D01*
X133416729Y-108738030D01*
X133439829Y-108729765D01*
X133463627Y-108723804D01*
X133487896Y-108720204D01*
X133512400Y-108719000D01*
X134762400Y-108719000D01*
X134786904Y-108720204D01*
X134786904Y-108720204D01*
G37*
D14*
X134137400Y-109344000D03*
G04 #@! TD*
D10*
G04 #@! TO.C,R16*
G36*
X141410958Y-97668710D02*
X141425276Y-97670834D01*
X141439317Y-97674351D01*
X141452946Y-97679228D01*
X141466031Y-97685417D01*
X141478447Y-97692858D01*
X141490073Y-97701481D01*
X141500798Y-97711202D01*
X141510519Y-97721927D01*
X141519142Y-97733553D01*
X141526583Y-97745969D01*
X141532772Y-97759054D01*
X141537649Y-97772683D01*
X141541166Y-97786724D01*
X141543290Y-97801042D01*
X141544000Y-97815500D01*
X141544000Y-98110500D01*
X141543290Y-98124958D01*
X141541166Y-98139276D01*
X141537649Y-98153317D01*
X141532772Y-98166946D01*
X141526583Y-98180031D01*
X141519142Y-98192447D01*
X141510519Y-98204073D01*
X141500798Y-98214798D01*
X141490073Y-98224519D01*
X141478447Y-98233142D01*
X141466031Y-98240583D01*
X141452946Y-98246772D01*
X141439317Y-98251649D01*
X141425276Y-98255166D01*
X141410958Y-98257290D01*
X141396500Y-98258000D01*
X141051500Y-98258000D01*
X141037042Y-98257290D01*
X141022724Y-98255166D01*
X141008683Y-98251649D01*
X140995054Y-98246772D01*
X140981969Y-98240583D01*
X140969553Y-98233142D01*
X140957927Y-98224519D01*
X140947202Y-98214798D01*
X140937481Y-98204073D01*
X140928858Y-98192447D01*
X140921417Y-98180031D01*
X140915228Y-98166946D01*
X140910351Y-98153317D01*
X140906834Y-98139276D01*
X140904710Y-98124958D01*
X140904000Y-98110500D01*
X140904000Y-97815500D01*
X140904710Y-97801042D01*
X140906834Y-97786724D01*
X140910351Y-97772683D01*
X140915228Y-97759054D01*
X140921417Y-97745969D01*
X140928858Y-97733553D01*
X140937481Y-97721927D01*
X140947202Y-97711202D01*
X140957927Y-97701481D01*
X140969553Y-97692858D01*
X140981969Y-97685417D01*
X140995054Y-97679228D01*
X141008683Y-97674351D01*
X141022724Y-97670834D01*
X141037042Y-97668710D01*
X141051500Y-97668000D01*
X141396500Y-97668000D01*
X141410958Y-97668710D01*
X141410958Y-97668710D01*
G37*
D13*
X141224000Y-97963000D03*
D10*
G36*
X141410958Y-98638710D02*
X141425276Y-98640834D01*
X141439317Y-98644351D01*
X141452946Y-98649228D01*
X141466031Y-98655417D01*
X141478447Y-98662858D01*
X141490073Y-98671481D01*
X141500798Y-98681202D01*
X141510519Y-98691927D01*
X141519142Y-98703553D01*
X141526583Y-98715969D01*
X141532772Y-98729054D01*
X141537649Y-98742683D01*
X141541166Y-98756724D01*
X141543290Y-98771042D01*
X141544000Y-98785500D01*
X141544000Y-99080500D01*
X141543290Y-99094958D01*
X141541166Y-99109276D01*
X141537649Y-99123317D01*
X141532772Y-99136946D01*
X141526583Y-99150031D01*
X141519142Y-99162447D01*
X141510519Y-99174073D01*
X141500798Y-99184798D01*
X141490073Y-99194519D01*
X141478447Y-99203142D01*
X141466031Y-99210583D01*
X141452946Y-99216772D01*
X141439317Y-99221649D01*
X141425276Y-99225166D01*
X141410958Y-99227290D01*
X141396500Y-99228000D01*
X141051500Y-99228000D01*
X141037042Y-99227290D01*
X141022724Y-99225166D01*
X141008683Y-99221649D01*
X140995054Y-99216772D01*
X140981969Y-99210583D01*
X140969553Y-99203142D01*
X140957927Y-99194519D01*
X140947202Y-99184798D01*
X140937481Y-99174073D01*
X140928858Y-99162447D01*
X140921417Y-99150031D01*
X140915228Y-99136946D01*
X140910351Y-99123317D01*
X140906834Y-99109276D01*
X140904710Y-99094958D01*
X140904000Y-99080500D01*
X140904000Y-98785500D01*
X140904710Y-98771042D01*
X140906834Y-98756724D01*
X140910351Y-98742683D01*
X140915228Y-98729054D01*
X140921417Y-98715969D01*
X140928858Y-98703553D01*
X140937481Y-98691927D01*
X140947202Y-98681202D01*
X140957927Y-98671481D01*
X140969553Y-98662858D01*
X140981969Y-98655417D01*
X140995054Y-98649228D01*
X141008683Y-98644351D01*
X141022724Y-98640834D01*
X141037042Y-98638710D01*
X141051500Y-98638000D01*
X141396500Y-98638000D01*
X141410958Y-98638710D01*
X141410958Y-98638710D01*
G37*
D13*
X141224000Y-98933000D03*
G04 #@! TD*
D10*
G04 #@! TO.C,R17*
G36*
X141704142Y-104034674D02*
X141727803Y-104038184D01*
X141751007Y-104043996D01*
X141773529Y-104052054D01*
X141795153Y-104062282D01*
X141815670Y-104074579D01*
X141834883Y-104088829D01*
X141852607Y-104104893D01*
X141868671Y-104122617D01*
X141882921Y-104141830D01*
X141895218Y-104162347D01*
X141905446Y-104183971D01*
X141913504Y-104206493D01*
X141919316Y-104229697D01*
X141922826Y-104253358D01*
X141924000Y-104277250D01*
X141924000Y-104764750D01*
X141922826Y-104788642D01*
X141919316Y-104812303D01*
X141913504Y-104835507D01*
X141905446Y-104858029D01*
X141895218Y-104879653D01*
X141882921Y-104900170D01*
X141868671Y-104919383D01*
X141852607Y-104937107D01*
X141834883Y-104953171D01*
X141815670Y-104967421D01*
X141795153Y-104979718D01*
X141773529Y-104989946D01*
X141751007Y-104998004D01*
X141727803Y-105003816D01*
X141704142Y-105007326D01*
X141680250Y-105008500D01*
X140767750Y-105008500D01*
X140743858Y-105007326D01*
X140720197Y-105003816D01*
X140696993Y-104998004D01*
X140674471Y-104989946D01*
X140652847Y-104979718D01*
X140632330Y-104967421D01*
X140613117Y-104953171D01*
X140595393Y-104937107D01*
X140579329Y-104919383D01*
X140565079Y-104900170D01*
X140552782Y-104879653D01*
X140542554Y-104858029D01*
X140534496Y-104835507D01*
X140528684Y-104812303D01*
X140525174Y-104788642D01*
X140524000Y-104764750D01*
X140524000Y-104277250D01*
X140525174Y-104253358D01*
X140528684Y-104229697D01*
X140534496Y-104206493D01*
X140542554Y-104183971D01*
X140552782Y-104162347D01*
X140565079Y-104141830D01*
X140579329Y-104122617D01*
X140595393Y-104104893D01*
X140613117Y-104088829D01*
X140632330Y-104074579D01*
X140652847Y-104062282D01*
X140674471Y-104052054D01*
X140696993Y-104043996D01*
X140720197Y-104038184D01*
X140743858Y-104034674D01*
X140767750Y-104033500D01*
X141680250Y-104033500D01*
X141704142Y-104034674D01*
X141704142Y-104034674D01*
G37*
D11*
X141224000Y-104521000D03*
D10*
G36*
X141704142Y-102159674D02*
X141727803Y-102163184D01*
X141751007Y-102168996D01*
X141773529Y-102177054D01*
X141795153Y-102187282D01*
X141815670Y-102199579D01*
X141834883Y-102213829D01*
X141852607Y-102229893D01*
X141868671Y-102247617D01*
X141882921Y-102266830D01*
X141895218Y-102287347D01*
X141905446Y-102308971D01*
X141913504Y-102331493D01*
X141919316Y-102354697D01*
X141922826Y-102378358D01*
X141924000Y-102402250D01*
X141924000Y-102889750D01*
X141922826Y-102913642D01*
X141919316Y-102937303D01*
X141913504Y-102960507D01*
X141905446Y-102983029D01*
X141895218Y-103004653D01*
X141882921Y-103025170D01*
X141868671Y-103044383D01*
X141852607Y-103062107D01*
X141834883Y-103078171D01*
X141815670Y-103092421D01*
X141795153Y-103104718D01*
X141773529Y-103114946D01*
X141751007Y-103123004D01*
X141727803Y-103128816D01*
X141704142Y-103132326D01*
X141680250Y-103133500D01*
X140767750Y-103133500D01*
X140743858Y-103132326D01*
X140720197Y-103128816D01*
X140696993Y-103123004D01*
X140674471Y-103114946D01*
X140652847Y-103104718D01*
X140632330Y-103092421D01*
X140613117Y-103078171D01*
X140595393Y-103062107D01*
X140579329Y-103044383D01*
X140565079Y-103025170D01*
X140552782Y-103004653D01*
X140542554Y-102983029D01*
X140534496Y-102960507D01*
X140528684Y-102937303D01*
X140525174Y-102913642D01*
X140524000Y-102889750D01*
X140524000Y-102402250D01*
X140525174Y-102378358D01*
X140528684Y-102354697D01*
X140534496Y-102331493D01*
X140542554Y-102308971D01*
X140552782Y-102287347D01*
X140565079Y-102266830D01*
X140579329Y-102247617D01*
X140595393Y-102229893D01*
X140613117Y-102213829D01*
X140632330Y-102199579D01*
X140652847Y-102187282D01*
X140674471Y-102177054D01*
X140696993Y-102168996D01*
X140720197Y-102163184D01*
X140743858Y-102159674D01*
X140767750Y-102158500D01*
X141680250Y-102158500D01*
X141704142Y-102159674D01*
X141704142Y-102159674D01*
G37*
D11*
X141224000Y-102646000D03*
G04 #@! TD*
D10*
G04 #@! TO.C,R18*
G36*
X141873504Y-108720204D02*
X141897773Y-108723804D01*
X141921571Y-108729765D01*
X141944671Y-108738030D01*
X141966849Y-108748520D01*
X141987893Y-108761133D01*
X142007598Y-108775747D01*
X142025777Y-108792223D01*
X142042253Y-108810402D01*
X142056867Y-108830107D01*
X142069480Y-108851151D01*
X142079970Y-108873329D01*
X142088235Y-108896429D01*
X142094196Y-108920227D01*
X142097796Y-108944496D01*
X142099000Y-108969000D01*
X142099000Y-109719000D01*
X142097796Y-109743504D01*
X142094196Y-109767773D01*
X142088235Y-109791571D01*
X142079970Y-109814671D01*
X142069480Y-109836849D01*
X142056867Y-109857893D01*
X142042253Y-109877598D01*
X142025777Y-109895777D01*
X142007598Y-109912253D01*
X141987893Y-109926867D01*
X141966849Y-109939480D01*
X141944671Y-109949970D01*
X141921571Y-109958235D01*
X141897773Y-109964196D01*
X141873504Y-109967796D01*
X141849000Y-109969000D01*
X140599000Y-109969000D01*
X140574496Y-109967796D01*
X140550227Y-109964196D01*
X140526429Y-109958235D01*
X140503329Y-109949970D01*
X140481151Y-109939480D01*
X140460107Y-109926867D01*
X140440402Y-109912253D01*
X140422223Y-109895777D01*
X140405747Y-109877598D01*
X140391133Y-109857893D01*
X140378520Y-109836849D01*
X140368030Y-109814671D01*
X140359765Y-109791571D01*
X140353804Y-109767773D01*
X140350204Y-109743504D01*
X140349000Y-109719000D01*
X140349000Y-108969000D01*
X140350204Y-108944496D01*
X140353804Y-108920227D01*
X140359765Y-108896429D01*
X140368030Y-108873329D01*
X140378520Y-108851151D01*
X140391133Y-108830107D01*
X140405747Y-108810402D01*
X140422223Y-108792223D01*
X140440402Y-108775747D01*
X140460107Y-108761133D01*
X140481151Y-108748520D01*
X140503329Y-108738030D01*
X140526429Y-108729765D01*
X140550227Y-108723804D01*
X140574496Y-108720204D01*
X140599000Y-108719000D01*
X141849000Y-108719000D01*
X141873504Y-108720204D01*
X141873504Y-108720204D01*
G37*
D14*
X141224000Y-109344000D03*
D10*
G36*
X141873504Y-111520204D02*
X141897773Y-111523804D01*
X141921571Y-111529765D01*
X141944671Y-111538030D01*
X141966849Y-111548520D01*
X141987893Y-111561133D01*
X142007598Y-111575747D01*
X142025777Y-111592223D01*
X142042253Y-111610402D01*
X142056867Y-111630107D01*
X142069480Y-111651151D01*
X142079970Y-111673329D01*
X142088235Y-111696429D01*
X142094196Y-111720227D01*
X142097796Y-111744496D01*
X142099000Y-111769000D01*
X142099000Y-112519000D01*
X142097796Y-112543504D01*
X142094196Y-112567773D01*
X142088235Y-112591571D01*
X142079970Y-112614671D01*
X142069480Y-112636849D01*
X142056867Y-112657893D01*
X142042253Y-112677598D01*
X142025777Y-112695777D01*
X142007598Y-112712253D01*
X141987893Y-112726867D01*
X141966849Y-112739480D01*
X141944671Y-112749970D01*
X141921571Y-112758235D01*
X141897773Y-112764196D01*
X141873504Y-112767796D01*
X141849000Y-112769000D01*
X140599000Y-112769000D01*
X140574496Y-112767796D01*
X140550227Y-112764196D01*
X140526429Y-112758235D01*
X140503329Y-112749970D01*
X140481151Y-112739480D01*
X140460107Y-112726867D01*
X140440402Y-112712253D01*
X140422223Y-112695777D01*
X140405747Y-112677598D01*
X140391133Y-112657893D01*
X140378520Y-112636849D01*
X140368030Y-112614671D01*
X140359765Y-112591571D01*
X140353804Y-112567773D01*
X140350204Y-112543504D01*
X140349000Y-112519000D01*
X140349000Y-111769000D01*
X140350204Y-111744496D01*
X140353804Y-111720227D01*
X140359765Y-111696429D01*
X140368030Y-111673329D01*
X140378520Y-111651151D01*
X140391133Y-111630107D01*
X140405747Y-111610402D01*
X140422223Y-111592223D01*
X140440402Y-111575747D01*
X140460107Y-111561133D01*
X140481151Y-111548520D01*
X140503329Y-111538030D01*
X140526429Y-111529765D01*
X140550227Y-111523804D01*
X140574496Y-111520204D01*
X140599000Y-111519000D01*
X141849000Y-111519000D01*
X141873504Y-111520204D01*
X141873504Y-111520204D01*
G37*
D14*
X141224000Y-112144000D03*
G04 #@! TD*
D10*
G04 #@! TO.C,R19*
G36*
X146490958Y-98638710D02*
X146505276Y-98640834D01*
X146519317Y-98644351D01*
X146532946Y-98649228D01*
X146546031Y-98655417D01*
X146558447Y-98662858D01*
X146570073Y-98671481D01*
X146580798Y-98681202D01*
X146590519Y-98691927D01*
X146599142Y-98703553D01*
X146606583Y-98715969D01*
X146612772Y-98729054D01*
X146617649Y-98742683D01*
X146621166Y-98756724D01*
X146623290Y-98771042D01*
X146624000Y-98785500D01*
X146624000Y-99080500D01*
X146623290Y-99094958D01*
X146621166Y-99109276D01*
X146617649Y-99123317D01*
X146612772Y-99136946D01*
X146606583Y-99150031D01*
X146599142Y-99162447D01*
X146590519Y-99174073D01*
X146580798Y-99184798D01*
X146570073Y-99194519D01*
X146558447Y-99203142D01*
X146546031Y-99210583D01*
X146532946Y-99216772D01*
X146519317Y-99221649D01*
X146505276Y-99225166D01*
X146490958Y-99227290D01*
X146476500Y-99228000D01*
X146131500Y-99228000D01*
X146117042Y-99227290D01*
X146102724Y-99225166D01*
X146088683Y-99221649D01*
X146075054Y-99216772D01*
X146061969Y-99210583D01*
X146049553Y-99203142D01*
X146037927Y-99194519D01*
X146027202Y-99184798D01*
X146017481Y-99174073D01*
X146008858Y-99162447D01*
X146001417Y-99150031D01*
X145995228Y-99136946D01*
X145990351Y-99123317D01*
X145986834Y-99109276D01*
X145984710Y-99094958D01*
X145984000Y-99080500D01*
X145984000Y-98785500D01*
X145984710Y-98771042D01*
X145986834Y-98756724D01*
X145990351Y-98742683D01*
X145995228Y-98729054D01*
X146001417Y-98715969D01*
X146008858Y-98703553D01*
X146017481Y-98691927D01*
X146027202Y-98681202D01*
X146037927Y-98671481D01*
X146049553Y-98662858D01*
X146061969Y-98655417D01*
X146075054Y-98649228D01*
X146088683Y-98644351D01*
X146102724Y-98640834D01*
X146117042Y-98638710D01*
X146131500Y-98638000D01*
X146476500Y-98638000D01*
X146490958Y-98638710D01*
X146490958Y-98638710D01*
G37*
D13*
X146304000Y-98933000D03*
D10*
G36*
X146490958Y-97668710D02*
X146505276Y-97670834D01*
X146519317Y-97674351D01*
X146532946Y-97679228D01*
X146546031Y-97685417D01*
X146558447Y-97692858D01*
X146570073Y-97701481D01*
X146580798Y-97711202D01*
X146590519Y-97721927D01*
X146599142Y-97733553D01*
X146606583Y-97745969D01*
X146612772Y-97759054D01*
X146617649Y-97772683D01*
X146621166Y-97786724D01*
X146623290Y-97801042D01*
X146624000Y-97815500D01*
X146624000Y-98110500D01*
X146623290Y-98124958D01*
X146621166Y-98139276D01*
X146617649Y-98153317D01*
X146612772Y-98166946D01*
X146606583Y-98180031D01*
X146599142Y-98192447D01*
X146590519Y-98204073D01*
X146580798Y-98214798D01*
X146570073Y-98224519D01*
X146558447Y-98233142D01*
X146546031Y-98240583D01*
X146532946Y-98246772D01*
X146519317Y-98251649D01*
X146505276Y-98255166D01*
X146490958Y-98257290D01*
X146476500Y-98258000D01*
X146131500Y-98258000D01*
X146117042Y-98257290D01*
X146102724Y-98255166D01*
X146088683Y-98251649D01*
X146075054Y-98246772D01*
X146061969Y-98240583D01*
X146049553Y-98233142D01*
X146037927Y-98224519D01*
X146027202Y-98214798D01*
X146017481Y-98204073D01*
X146008858Y-98192447D01*
X146001417Y-98180031D01*
X145995228Y-98166946D01*
X145990351Y-98153317D01*
X145986834Y-98139276D01*
X145984710Y-98124958D01*
X145984000Y-98110500D01*
X145984000Y-97815500D01*
X145984710Y-97801042D01*
X145986834Y-97786724D01*
X145990351Y-97772683D01*
X145995228Y-97759054D01*
X146001417Y-97745969D01*
X146008858Y-97733553D01*
X146017481Y-97721927D01*
X146027202Y-97711202D01*
X146037927Y-97701481D01*
X146049553Y-97692858D01*
X146061969Y-97685417D01*
X146075054Y-97679228D01*
X146088683Y-97674351D01*
X146102724Y-97670834D01*
X146117042Y-97668710D01*
X146131500Y-97668000D01*
X146476500Y-97668000D01*
X146490958Y-97668710D01*
X146490958Y-97668710D01*
G37*
D13*
X146304000Y-97963000D03*
G04 #@! TD*
D10*
G04 #@! TO.C,R20*
G36*
X146784142Y-102208174D02*
X146807803Y-102211684D01*
X146831007Y-102217496D01*
X146853529Y-102225554D01*
X146875153Y-102235782D01*
X146895670Y-102248079D01*
X146914883Y-102262329D01*
X146932607Y-102278393D01*
X146948671Y-102296117D01*
X146962921Y-102315330D01*
X146975218Y-102335847D01*
X146985446Y-102357471D01*
X146993504Y-102379993D01*
X146999316Y-102403197D01*
X147002826Y-102426858D01*
X147004000Y-102450750D01*
X147004000Y-102938250D01*
X147002826Y-102962142D01*
X146999316Y-102985803D01*
X146993504Y-103009007D01*
X146985446Y-103031529D01*
X146975218Y-103053153D01*
X146962921Y-103073670D01*
X146948671Y-103092883D01*
X146932607Y-103110607D01*
X146914883Y-103126671D01*
X146895670Y-103140921D01*
X146875153Y-103153218D01*
X146853529Y-103163446D01*
X146831007Y-103171504D01*
X146807803Y-103177316D01*
X146784142Y-103180826D01*
X146760250Y-103182000D01*
X145847750Y-103182000D01*
X145823858Y-103180826D01*
X145800197Y-103177316D01*
X145776993Y-103171504D01*
X145754471Y-103163446D01*
X145732847Y-103153218D01*
X145712330Y-103140921D01*
X145693117Y-103126671D01*
X145675393Y-103110607D01*
X145659329Y-103092883D01*
X145645079Y-103073670D01*
X145632782Y-103053153D01*
X145622554Y-103031529D01*
X145614496Y-103009007D01*
X145608684Y-102985803D01*
X145605174Y-102962142D01*
X145604000Y-102938250D01*
X145604000Y-102450750D01*
X145605174Y-102426858D01*
X145608684Y-102403197D01*
X145614496Y-102379993D01*
X145622554Y-102357471D01*
X145632782Y-102335847D01*
X145645079Y-102315330D01*
X145659329Y-102296117D01*
X145675393Y-102278393D01*
X145693117Y-102262329D01*
X145712330Y-102248079D01*
X145732847Y-102235782D01*
X145754471Y-102225554D01*
X145776993Y-102217496D01*
X145800197Y-102211684D01*
X145823858Y-102208174D01*
X145847750Y-102207000D01*
X146760250Y-102207000D01*
X146784142Y-102208174D01*
X146784142Y-102208174D01*
G37*
D11*
X146304000Y-102694500D03*
D10*
G36*
X146784142Y-104083174D02*
X146807803Y-104086684D01*
X146831007Y-104092496D01*
X146853529Y-104100554D01*
X146875153Y-104110782D01*
X146895670Y-104123079D01*
X146914883Y-104137329D01*
X146932607Y-104153393D01*
X146948671Y-104171117D01*
X146962921Y-104190330D01*
X146975218Y-104210847D01*
X146985446Y-104232471D01*
X146993504Y-104254993D01*
X146999316Y-104278197D01*
X147002826Y-104301858D01*
X147004000Y-104325750D01*
X147004000Y-104813250D01*
X147002826Y-104837142D01*
X146999316Y-104860803D01*
X146993504Y-104884007D01*
X146985446Y-104906529D01*
X146975218Y-104928153D01*
X146962921Y-104948670D01*
X146948671Y-104967883D01*
X146932607Y-104985607D01*
X146914883Y-105001671D01*
X146895670Y-105015921D01*
X146875153Y-105028218D01*
X146853529Y-105038446D01*
X146831007Y-105046504D01*
X146807803Y-105052316D01*
X146784142Y-105055826D01*
X146760250Y-105057000D01*
X145847750Y-105057000D01*
X145823858Y-105055826D01*
X145800197Y-105052316D01*
X145776993Y-105046504D01*
X145754471Y-105038446D01*
X145732847Y-105028218D01*
X145712330Y-105015921D01*
X145693117Y-105001671D01*
X145675393Y-104985607D01*
X145659329Y-104967883D01*
X145645079Y-104948670D01*
X145632782Y-104928153D01*
X145622554Y-104906529D01*
X145614496Y-104884007D01*
X145608684Y-104860803D01*
X145605174Y-104837142D01*
X145604000Y-104813250D01*
X145604000Y-104325750D01*
X145605174Y-104301858D01*
X145608684Y-104278197D01*
X145614496Y-104254993D01*
X145622554Y-104232471D01*
X145632782Y-104210847D01*
X145645079Y-104190330D01*
X145659329Y-104171117D01*
X145675393Y-104153393D01*
X145693117Y-104137329D01*
X145712330Y-104123079D01*
X145732847Y-104110782D01*
X145754471Y-104100554D01*
X145776993Y-104092496D01*
X145800197Y-104086684D01*
X145823858Y-104083174D01*
X145847750Y-104082000D01*
X146760250Y-104082000D01*
X146784142Y-104083174D01*
X146784142Y-104083174D01*
G37*
D11*
X146304000Y-104569500D03*
G04 #@! TD*
D10*
G04 #@! TO.C,R21*
G36*
X146826504Y-111517204D02*
X146850773Y-111520804D01*
X146874571Y-111526765D01*
X146897671Y-111535030D01*
X146919849Y-111545520D01*
X146940893Y-111558133D01*
X146960598Y-111572747D01*
X146978777Y-111589223D01*
X146995253Y-111607402D01*
X147009867Y-111627107D01*
X147022480Y-111648151D01*
X147032970Y-111670329D01*
X147041235Y-111693429D01*
X147047196Y-111717227D01*
X147050796Y-111741496D01*
X147052000Y-111766000D01*
X147052000Y-112516000D01*
X147050796Y-112540504D01*
X147047196Y-112564773D01*
X147041235Y-112588571D01*
X147032970Y-112611671D01*
X147022480Y-112633849D01*
X147009867Y-112654893D01*
X146995253Y-112674598D01*
X146978777Y-112692777D01*
X146960598Y-112709253D01*
X146940893Y-112723867D01*
X146919849Y-112736480D01*
X146897671Y-112746970D01*
X146874571Y-112755235D01*
X146850773Y-112761196D01*
X146826504Y-112764796D01*
X146802000Y-112766000D01*
X145552000Y-112766000D01*
X145527496Y-112764796D01*
X145503227Y-112761196D01*
X145479429Y-112755235D01*
X145456329Y-112746970D01*
X145434151Y-112736480D01*
X145413107Y-112723867D01*
X145393402Y-112709253D01*
X145375223Y-112692777D01*
X145358747Y-112674598D01*
X145344133Y-112654893D01*
X145331520Y-112633849D01*
X145321030Y-112611671D01*
X145312765Y-112588571D01*
X145306804Y-112564773D01*
X145303204Y-112540504D01*
X145302000Y-112516000D01*
X145302000Y-111766000D01*
X145303204Y-111741496D01*
X145306804Y-111717227D01*
X145312765Y-111693429D01*
X145321030Y-111670329D01*
X145331520Y-111648151D01*
X145344133Y-111627107D01*
X145358747Y-111607402D01*
X145375223Y-111589223D01*
X145393402Y-111572747D01*
X145413107Y-111558133D01*
X145434151Y-111545520D01*
X145456329Y-111535030D01*
X145479429Y-111526765D01*
X145503227Y-111520804D01*
X145527496Y-111517204D01*
X145552000Y-111516000D01*
X146802000Y-111516000D01*
X146826504Y-111517204D01*
X146826504Y-111517204D01*
G37*
D14*
X146177000Y-112141000D03*
D10*
G36*
X146826504Y-108717204D02*
X146850773Y-108720804D01*
X146874571Y-108726765D01*
X146897671Y-108735030D01*
X146919849Y-108745520D01*
X146940893Y-108758133D01*
X146960598Y-108772747D01*
X146978777Y-108789223D01*
X146995253Y-108807402D01*
X147009867Y-108827107D01*
X147022480Y-108848151D01*
X147032970Y-108870329D01*
X147041235Y-108893429D01*
X147047196Y-108917227D01*
X147050796Y-108941496D01*
X147052000Y-108966000D01*
X147052000Y-109716000D01*
X147050796Y-109740504D01*
X147047196Y-109764773D01*
X147041235Y-109788571D01*
X147032970Y-109811671D01*
X147022480Y-109833849D01*
X147009867Y-109854893D01*
X146995253Y-109874598D01*
X146978777Y-109892777D01*
X146960598Y-109909253D01*
X146940893Y-109923867D01*
X146919849Y-109936480D01*
X146897671Y-109946970D01*
X146874571Y-109955235D01*
X146850773Y-109961196D01*
X146826504Y-109964796D01*
X146802000Y-109966000D01*
X145552000Y-109966000D01*
X145527496Y-109964796D01*
X145503227Y-109961196D01*
X145479429Y-109955235D01*
X145456329Y-109946970D01*
X145434151Y-109936480D01*
X145413107Y-109923867D01*
X145393402Y-109909253D01*
X145375223Y-109892777D01*
X145358747Y-109874598D01*
X145344133Y-109854893D01*
X145331520Y-109833849D01*
X145321030Y-109811671D01*
X145312765Y-109788571D01*
X145306804Y-109764773D01*
X145303204Y-109740504D01*
X145302000Y-109716000D01*
X145302000Y-108966000D01*
X145303204Y-108941496D01*
X145306804Y-108917227D01*
X145312765Y-108893429D01*
X145321030Y-108870329D01*
X145331520Y-108848151D01*
X145344133Y-108827107D01*
X145358747Y-108807402D01*
X145375223Y-108789223D01*
X145393402Y-108772747D01*
X145413107Y-108758133D01*
X145434151Y-108745520D01*
X145456329Y-108735030D01*
X145479429Y-108726765D01*
X145503227Y-108720804D01*
X145527496Y-108717204D01*
X145552000Y-108716000D01*
X146802000Y-108716000D01*
X146826504Y-108717204D01*
X146826504Y-108717204D01*
G37*
D14*
X146177000Y-109341000D03*
G04 #@! TD*
D15*
G04 #@! TO.C,U1*
X154571000Y-109171000D03*
X155071000Y-109171000D03*
X155571000Y-109171000D03*
X156071000Y-109171000D03*
D16*
X156796000Y-108446000D03*
X156796000Y-107946000D03*
X156796000Y-107446000D03*
X156796000Y-106946000D03*
D15*
X156071000Y-106221000D03*
X155571000Y-106221000D03*
X155071000Y-106221000D03*
X154571000Y-106221000D03*
D16*
X153846000Y-106946000D03*
X153846000Y-107446000D03*
X153846000Y-107946000D03*
X153846000Y-108446000D03*
D17*
X155771000Y-108146000D03*
X155771000Y-107246000D03*
X154871000Y-107246000D03*
X154871000Y-108146000D03*
G04 #@! TD*
D18*
G04 #@! TO.C,U2*
X155816000Y-101445000D03*
X155816000Y-100945000D03*
X155816000Y-100445000D03*
X155816000Y-99945000D03*
X155816000Y-99445000D03*
X155816000Y-98945000D03*
X155816000Y-98445000D03*
X155816000Y-97945000D03*
D19*
X155166000Y-97295000D03*
X154666000Y-97295000D03*
X154166000Y-97295000D03*
X153666000Y-97295000D03*
X153166000Y-97295000D03*
X152666000Y-97295000D03*
X152166000Y-97295000D03*
X151666000Y-97295000D03*
D18*
X151016000Y-97945000D03*
X151016000Y-98445000D03*
X151016000Y-98945000D03*
X151016000Y-99445000D03*
X151016000Y-99945000D03*
X151016000Y-100445000D03*
X151016000Y-100945000D03*
X151016000Y-101445000D03*
D19*
X151666000Y-102095000D03*
X152166000Y-102095000D03*
X152666000Y-102095000D03*
X153166000Y-102095000D03*
X153666000Y-102095000D03*
X154166000Y-102095000D03*
X154666000Y-102095000D03*
X155166000Y-102095000D03*
D20*
X152266000Y-98545000D03*
X153416000Y-98545000D03*
X154566000Y-98545000D03*
X154566000Y-99695000D03*
X153416000Y-99695000D03*
X152266000Y-99695000D03*
X154566000Y-100845000D03*
X153416000Y-100845000D03*
X152266000Y-100845000D03*
G04 #@! TD*
D21*
G04 #@! TO.C,U3*
X136273500Y-93091000D03*
X137223500Y-93091000D03*
X138173500Y-93091000D03*
X138173500Y-90891000D03*
X136273500Y-90891000D03*
X137223500Y-90891000D03*
G04 #@! TD*
M02*
