G04 #@! TF.GenerationSoftware,KiCad,Pcbnew,(5.0.0)*
G04 #@! TF.CreationDate,2019-03-07T00:39:03-05:00*
G04 #@! TF.ProjectId,Reflow_Test1,5265666C6F775F54657374312E6B6963,rev?*
G04 #@! TF.SameCoordinates,Original*
G04 #@! TF.FileFunction,Copper,L2,Bot,Signal*
G04 #@! TF.FilePolarity,Positive*
%FSLAX46Y46*%
G04 Gerber Fmt 4.6, Leading zero omitted, Abs format (unit mm)*
G04 Created by KiCad (PCBNEW (5.0.0)) date 03/07/19 00:39:03*
%MOMM*%
%LPD*%
G01*
G04 APERTURE LIST*
G04 #@! TA.AperFunction,NonConductor*
%ADD10C,0.300000*%
G04 #@! TD*
G04 #@! TA.AperFunction,EtchedComponent*
%ADD11C,0.010000*%
G04 #@! TD*
G04 #@! TA.AperFunction,ViaPad*
%ADD12C,0.800000*%
G04 #@! TD*
G04 #@! TA.AperFunction,Conductor*
%ADD13C,0.254000*%
G04 #@! TD*
G04 APERTURE END LIST*
D10*
X151023285Y-90594571D02*
X150309000Y-90594571D01*
X150309000Y-89094571D01*
X151451857Y-90166000D02*
X152166142Y-90166000D01*
X151309000Y-90594571D02*
X151809000Y-89094571D01*
X152309000Y-90594571D01*
X153094714Y-89880285D02*
X153094714Y-90594571D01*
X152594714Y-89094571D02*
X153094714Y-89880285D01*
X153594714Y-89094571D01*
X154094714Y-89808857D02*
X154594714Y-89808857D01*
X154809000Y-90594571D02*
X154094714Y-90594571D01*
X154094714Y-89094571D01*
X154809000Y-89094571D01*
X156309000Y-90594571D02*
X155809000Y-89880285D01*
X155451857Y-90594571D02*
X155451857Y-89094571D01*
X156023285Y-89094571D01*
X156166142Y-89166000D01*
X156237571Y-89237428D01*
X156309000Y-89380285D01*
X156309000Y-89594571D01*
X156237571Y-89737428D01*
X156166142Y-89808857D01*
X156023285Y-89880285D01*
X155451857Y-89880285D01*
X158023285Y-89237428D02*
X158094714Y-89166000D01*
X158237571Y-89094571D01*
X158594714Y-89094571D01*
X158737571Y-89166000D01*
X158809000Y-89237428D01*
X158880428Y-89380285D01*
X158880428Y-89523142D01*
X158809000Y-89737428D01*
X157951857Y-90594571D01*
X158880428Y-90594571D01*
D11*
G04 #@! TO.C,REF\002A\002A*
G36*
X119974590Y-89698348D02*
X119896046Y-89698778D01*
X119839202Y-89699942D01*
X119800395Y-89702207D01*
X119775962Y-89705940D01*
X119762238Y-89711506D01*
X119755560Y-89719273D01*
X119752264Y-89729605D01*
X119751944Y-89730943D01*
X119746938Y-89755079D01*
X119737671Y-89802701D01*
X119725108Y-89868741D01*
X119710213Y-89948128D01*
X119693949Y-90035796D01*
X119693381Y-90038875D01*
X119677090Y-90124789D01*
X119661848Y-90200696D01*
X119648639Y-90262045D01*
X119638446Y-90304282D01*
X119632252Y-90322855D01*
X119631957Y-90323184D01*
X119613712Y-90332253D01*
X119576095Y-90347367D01*
X119527229Y-90365262D01*
X119526957Y-90365358D01*
X119465407Y-90388493D01*
X119392843Y-90417965D01*
X119324443Y-90447597D01*
X119321206Y-90449062D01*
X119209798Y-90499626D01*
X118963101Y-90331160D01*
X118887423Y-90279803D01*
X118818869Y-90233889D01*
X118761412Y-90196030D01*
X118719024Y-90168837D01*
X118695675Y-90154921D01*
X118693458Y-90153889D01*
X118676490Y-90158484D01*
X118644799Y-90180655D01*
X118597148Y-90221447D01*
X118532302Y-90281905D01*
X118466103Y-90346227D01*
X118402286Y-90409612D01*
X118345171Y-90467451D01*
X118298195Y-90516175D01*
X118264797Y-90552210D01*
X118248415Y-90571984D01*
X118247806Y-90573002D01*
X118245995Y-90586572D01*
X118252817Y-90608733D01*
X118269960Y-90642478D01*
X118299107Y-90690800D01*
X118341945Y-90756692D01*
X118399052Y-90841517D01*
X118449734Y-90916177D01*
X118495039Y-90983140D01*
X118532350Y-91038516D01*
X118559048Y-91078420D01*
X118572515Y-91098962D01*
X118573363Y-91100356D01*
X118571719Y-91120038D01*
X118559255Y-91158293D01*
X118538452Y-91207889D01*
X118531038Y-91223728D01*
X118498686Y-91294290D01*
X118464172Y-91374353D01*
X118436135Y-91443629D01*
X118415932Y-91495045D01*
X118399885Y-91534119D01*
X118390612Y-91554541D01*
X118389459Y-91556114D01*
X118372404Y-91558721D01*
X118332202Y-91565863D01*
X118274198Y-91576523D01*
X118203737Y-91589685D01*
X118126165Y-91604333D01*
X118046828Y-91619449D01*
X117971069Y-91634018D01*
X117904236Y-91647022D01*
X117851672Y-91657445D01*
X117818724Y-91664270D01*
X117810643Y-91666199D01*
X117802295Y-91670962D01*
X117795994Y-91681718D01*
X117791455Y-91702098D01*
X117788396Y-91735734D01*
X117786533Y-91786255D01*
X117785582Y-91857292D01*
X117785260Y-91952476D01*
X117785243Y-91991492D01*
X117785243Y-92308799D01*
X117861443Y-92323839D01*
X117903837Y-92331995D01*
X117967100Y-92343899D01*
X118043538Y-92358116D01*
X118125457Y-92373210D01*
X118148100Y-92377355D01*
X118223694Y-92392053D01*
X118289547Y-92406505D01*
X118340134Y-92419375D01*
X118369926Y-92429322D01*
X118374888Y-92432287D01*
X118387074Y-92453283D01*
X118404547Y-92493967D01*
X118423923Y-92546322D01*
X118427766Y-92557600D01*
X118453161Y-92627523D01*
X118484683Y-92706418D01*
X118515531Y-92777266D01*
X118515683Y-92777595D01*
X118567053Y-92888733D01*
X118398101Y-93137253D01*
X118229148Y-93385772D01*
X118446071Y-93603058D01*
X118511681Y-93667726D01*
X118571521Y-93724733D01*
X118622233Y-93771033D01*
X118660454Y-93803584D01*
X118682825Y-93819343D01*
X118686034Y-93820343D01*
X118704874Y-93812469D01*
X118743320Y-93790578D01*
X118797170Y-93757267D01*
X118862224Y-93715131D01*
X118932560Y-93667943D01*
X119003945Y-93619810D01*
X119067592Y-93577928D01*
X119119459Y-93544871D01*
X119155505Y-93523218D01*
X119171633Y-93515543D01*
X119191311Y-93522037D01*
X119228625Y-93539150D01*
X119275879Y-93563326D01*
X119280888Y-93566013D01*
X119344523Y-93597927D01*
X119388159Y-93613579D01*
X119415298Y-93613745D01*
X119429443Y-93599204D01*
X119429525Y-93599000D01*
X119436595Y-93581779D01*
X119453458Y-93540899D01*
X119478805Y-93479525D01*
X119511329Y-93400819D01*
X119549722Y-93307947D01*
X119592678Y-93204072D01*
X119634278Y-93103502D01*
X119679996Y-92992516D01*
X119721974Y-92889703D01*
X119758952Y-92798215D01*
X119789673Y-92721201D01*
X119812878Y-92661815D01*
X119827310Y-92623209D01*
X119831757Y-92608800D01*
X119820604Y-92592272D01*
X119791431Y-92565930D01*
X119752529Y-92536887D01*
X119641743Y-92445039D01*
X119555149Y-92339759D01*
X119493784Y-92223266D01*
X119458685Y-92097776D01*
X119450892Y-91965507D01*
X119456557Y-91904457D01*
X119487422Y-91777795D01*
X119540580Y-91665941D01*
X119612733Y-91570001D01*
X119700583Y-91491076D01*
X119800835Y-91430270D01*
X119910190Y-91388687D01*
X120025353Y-91367428D01*
X120143025Y-91367599D01*
X120259910Y-91390301D01*
X120372711Y-91436638D01*
X120478131Y-91507713D01*
X120522132Y-91547911D01*
X120606521Y-91651129D01*
X120665278Y-91763925D01*
X120698796Y-91883010D01*
X120707465Y-92005095D01*
X120691677Y-92126893D01*
X120651822Y-92245116D01*
X120588293Y-92356475D01*
X120501479Y-92457684D01*
X120404471Y-92536887D01*
X120364063Y-92567162D01*
X120335518Y-92593219D01*
X120325243Y-92608825D01*
X120330623Y-92625843D01*
X120345925Y-92666500D01*
X120369888Y-92727642D01*
X120401256Y-92806119D01*
X120438768Y-92898780D01*
X120481167Y-93002472D01*
X120522837Y-93103526D01*
X120568810Y-93214607D01*
X120611393Y-93317541D01*
X120649279Y-93409165D01*
X120681160Y-93486316D01*
X120705729Y-93545831D01*
X120721680Y-93584544D01*
X120727590Y-93599000D01*
X120741552Y-93613685D01*
X120768560Y-93613642D01*
X120812087Y-93598099D01*
X120875610Y-93566284D01*
X120876112Y-93566013D01*
X120923940Y-93541323D01*
X120962603Y-93523338D01*
X120984405Y-93515614D01*
X120985367Y-93515543D01*
X121001779Y-93523378D01*
X121038013Y-93545165D01*
X121090026Y-93578328D01*
X121153775Y-93620291D01*
X121224440Y-93667943D01*
X121296384Y-93716191D01*
X121361226Y-93758151D01*
X121414765Y-93791227D01*
X121452803Y-93812821D01*
X121470967Y-93820343D01*
X121487692Y-93810457D01*
X121521320Y-93782826D01*
X121568490Y-93740495D01*
X121625842Y-93686505D01*
X121690016Y-93623899D01*
X121711003Y-93602983D01*
X121928001Y-93385623D01*
X121762832Y-93143220D01*
X121712636Y-93068781D01*
X121668581Y-93001972D01*
X121633138Y-92946665D01*
X121608781Y-92906729D01*
X121597978Y-92886036D01*
X121597662Y-92884563D01*
X121603357Y-92865058D01*
X121618674Y-92825822D01*
X121640963Y-92773430D01*
X121656607Y-92738355D01*
X121685859Y-92671201D01*
X121713406Y-92603358D01*
X121734763Y-92546034D01*
X121740565Y-92528572D01*
X121757048Y-92481938D01*
X121773160Y-92445905D01*
X121782010Y-92432287D01*
X121801540Y-92423952D01*
X121844166Y-92412137D01*
X121904355Y-92398181D01*
X121976578Y-92383422D01*
X122008900Y-92377355D01*
X122090978Y-92362273D01*
X122169705Y-92347669D01*
X122237391Y-92334980D01*
X122286340Y-92325642D01*
X122295557Y-92323839D01*
X122371757Y-92308799D01*
X122371757Y-91991492D01*
X122371586Y-91887154D01*
X122370884Y-91808213D01*
X122369366Y-91751038D01*
X122366751Y-91711999D01*
X122362754Y-91687465D01*
X122357091Y-91673805D01*
X122349480Y-91667389D01*
X122346357Y-91666199D01*
X122327522Y-91661980D01*
X122285912Y-91653562D01*
X122226870Y-91641961D01*
X122155743Y-91628195D01*
X122077875Y-91613280D01*
X121998613Y-91598232D01*
X121923302Y-91584069D01*
X121857287Y-91571806D01*
X121805913Y-91562461D01*
X121774525Y-91557050D01*
X121767541Y-91556114D01*
X121761215Y-91543596D01*
X121747210Y-91510246D01*
X121728145Y-91462377D01*
X121720866Y-91443629D01*
X121691504Y-91371195D01*
X121656929Y-91291170D01*
X121625963Y-91223728D01*
X121603177Y-91172159D01*
X121588018Y-91129785D01*
X121582958Y-91103834D01*
X121583764Y-91100356D01*
X121594459Y-91083936D01*
X121618880Y-91047417D01*
X121654405Y-90994687D01*
X121698413Y-90929635D01*
X121748283Y-90856151D01*
X121758144Y-90841645D01*
X121816008Y-90755704D01*
X121858544Y-90690261D01*
X121887446Y-90642304D01*
X121904410Y-90608820D01*
X121911133Y-90586795D01*
X121909310Y-90573217D01*
X121909264Y-90573131D01*
X121894914Y-90555297D01*
X121863177Y-90520817D01*
X121817490Y-90473268D01*
X121761296Y-90416222D01*
X121698032Y-90353255D01*
X121690898Y-90346227D01*
X121611170Y-90269020D01*
X121549643Y-90212330D01*
X121505079Y-90175110D01*
X121476243Y-90156315D01*
X121463542Y-90153889D01*
X121445006Y-90164471D01*
X121406539Y-90188916D01*
X121352114Y-90224612D01*
X121285702Y-90268947D01*
X121211275Y-90319311D01*
X121193899Y-90331160D01*
X120947203Y-90499626D01*
X120835794Y-90449062D01*
X120768043Y-90419595D01*
X120695317Y-90389959D01*
X120632797Y-90366330D01*
X120630043Y-90365358D01*
X120581140Y-90347457D01*
X120543443Y-90332320D01*
X120525075Y-90323210D01*
X120525044Y-90323184D01*
X120519215Y-90306717D01*
X120509308Y-90266219D01*
X120496305Y-90206242D01*
X120481191Y-90131340D01*
X120464948Y-90046064D01*
X120463619Y-90038875D01*
X120447325Y-89951014D01*
X120432367Y-89871260D01*
X120419709Y-89804681D01*
X120410314Y-89756347D01*
X120405146Y-89731325D01*
X120405056Y-89730943D01*
X120401911Y-89720299D01*
X120395796Y-89712262D01*
X120383047Y-89706467D01*
X120360000Y-89702547D01*
X120322991Y-89700135D01*
X120268356Y-89698865D01*
X120192433Y-89698371D01*
X120091556Y-89698286D01*
X120078500Y-89698286D01*
X119974590Y-89698348D01*
X119974590Y-89698348D01*
G37*
X119974590Y-89698348D02*
X119896046Y-89698778D01*
X119839202Y-89699942D01*
X119800395Y-89702207D01*
X119775962Y-89705940D01*
X119762238Y-89711506D01*
X119755560Y-89719273D01*
X119752264Y-89729605D01*
X119751944Y-89730943D01*
X119746938Y-89755079D01*
X119737671Y-89802701D01*
X119725108Y-89868741D01*
X119710213Y-89948128D01*
X119693949Y-90035796D01*
X119693381Y-90038875D01*
X119677090Y-90124789D01*
X119661848Y-90200696D01*
X119648639Y-90262045D01*
X119638446Y-90304282D01*
X119632252Y-90322855D01*
X119631957Y-90323184D01*
X119613712Y-90332253D01*
X119576095Y-90347367D01*
X119527229Y-90365262D01*
X119526957Y-90365358D01*
X119465407Y-90388493D01*
X119392843Y-90417965D01*
X119324443Y-90447597D01*
X119321206Y-90449062D01*
X119209798Y-90499626D01*
X118963101Y-90331160D01*
X118887423Y-90279803D01*
X118818869Y-90233889D01*
X118761412Y-90196030D01*
X118719024Y-90168837D01*
X118695675Y-90154921D01*
X118693458Y-90153889D01*
X118676490Y-90158484D01*
X118644799Y-90180655D01*
X118597148Y-90221447D01*
X118532302Y-90281905D01*
X118466103Y-90346227D01*
X118402286Y-90409612D01*
X118345171Y-90467451D01*
X118298195Y-90516175D01*
X118264797Y-90552210D01*
X118248415Y-90571984D01*
X118247806Y-90573002D01*
X118245995Y-90586572D01*
X118252817Y-90608733D01*
X118269960Y-90642478D01*
X118299107Y-90690800D01*
X118341945Y-90756692D01*
X118399052Y-90841517D01*
X118449734Y-90916177D01*
X118495039Y-90983140D01*
X118532350Y-91038516D01*
X118559048Y-91078420D01*
X118572515Y-91098962D01*
X118573363Y-91100356D01*
X118571719Y-91120038D01*
X118559255Y-91158293D01*
X118538452Y-91207889D01*
X118531038Y-91223728D01*
X118498686Y-91294290D01*
X118464172Y-91374353D01*
X118436135Y-91443629D01*
X118415932Y-91495045D01*
X118399885Y-91534119D01*
X118390612Y-91554541D01*
X118389459Y-91556114D01*
X118372404Y-91558721D01*
X118332202Y-91565863D01*
X118274198Y-91576523D01*
X118203737Y-91589685D01*
X118126165Y-91604333D01*
X118046828Y-91619449D01*
X117971069Y-91634018D01*
X117904236Y-91647022D01*
X117851672Y-91657445D01*
X117818724Y-91664270D01*
X117810643Y-91666199D01*
X117802295Y-91670962D01*
X117795994Y-91681718D01*
X117791455Y-91702098D01*
X117788396Y-91735734D01*
X117786533Y-91786255D01*
X117785582Y-91857292D01*
X117785260Y-91952476D01*
X117785243Y-91991492D01*
X117785243Y-92308799D01*
X117861443Y-92323839D01*
X117903837Y-92331995D01*
X117967100Y-92343899D01*
X118043538Y-92358116D01*
X118125457Y-92373210D01*
X118148100Y-92377355D01*
X118223694Y-92392053D01*
X118289547Y-92406505D01*
X118340134Y-92419375D01*
X118369926Y-92429322D01*
X118374888Y-92432287D01*
X118387074Y-92453283D01*
X118404547Y-92493967D01*
X118423923Y-92546322D01*
X118427766Y-92557600D01*
X118453161Y-92627523D01*
X118484683Y-92706418D01*
X118515531Y-92777266D01*
X118515683Y-92777595D01*
X118567053Y-92888733D01*
X118398101Y-93137253D01*
X118229148Y-93385772D01*
X118446071Y-93603058D01*
X118511681Y-93667726D01*
X118571521Y-93724733D01*
X118622233Y-93771033D01*
X118660454Y-93803584D01*
X118682825Y-93819343D01*
X118686034Y-93820343D01*
X118704874Y-93812469D01*
X118743320Y-93790578D01*
X118797170Y-93757267D01*
X118862224Y-93715131D01*
X118932560Y-93667943D01*
X119003945Y-93619810D01*
X119067592Y-93577928D01*
X119119459Y-93544871D01*
X119155505Y-93523218D01*
X119171633Y-93515543D01*
X119191311Y-93522037D01*
X119228625Y-93539150D01*
X119275879Y-93563326D01*
X119280888Y-93566013D01*
X119344523Y-93597927D01*
X119388159Y-93613579D01*
X119415298Y-93613745D01*
X119429443Y-93599204D01*
X119429525Y-93599000D01*
X119436595Y-93581779D01*
X119453458Y-93540899D01*
X119478805Y-93479525D01*
X119511329Y-93400819D01*
X119549722Y-93307947D01*
X119592678Y-93204072D01*
X119634278Y-93103502D01*
X119679996Y-92992516D01*
X119721974Y-92889703D01*
X119758952Y-92798215D01*
X119789673Y-92721201D01*
X119812878Y-92661815D01*
X119827310Y-92623209D01*
X119831757Y-92608800D01*
X119820604Y-92592272D01*
X119791431Y-92565930D01*
X119752529Y-92536887D01*
X119641743Y-92445039D01*
X119555149Y-92339759D01*
X119493784Y-92223266D01*
X119458685Y-92097776D01*
X119450892Y-91965507D01*
X119456557Y-91904457D01*
X119487422Y-91777795D01*
X119540580Y-91665941D01*
X119612733Y-91570001D01*
X119700583Y-91491076D01*
X119800835Y-91430270D01*
X119910190Y-91388687D01*
X120025353Y-91367428D01*
X120143025Y-91367599D01*
X120259910Y-91390301D01*
X120372711Y-91436638D01*
X120478131Y-91507713D01*
X120522132Y-91547911D01*
X120606521Y-91651129D01*
X120665278Y-91763925D01*
X120698796Y-91883010D01*
X120707465Y-92005095D01*
X120691677Y-92126893D01*
X120651822Y-92245116D01*
X120588293Y-92356475D01*
X120501479Y-92457684D01*
X120404471Y-92536887D01*
X120364063Y-92567162D01*
X120335518Y-92593219D01*
X120325243Y-92608825D01*
X120330623Y-92625843D01*
X120345925Y-92666500D01*
X120369888Y-92727642D01*
X120401256Y-92806119D01*
X120438768Y-92898780D01*
X120481167Y-93002472D01*
X120522837Y-93103526D01*
X120568810Y-93214607D01*
X120611393Y-93317541D01*
X120649279Y-93409165D01*
X120681160Y-93486316D01*
X120705729Y-93545831D01*
X120721680Y-93584544D01*
X120727590Y-93599000D01*
X120741552Y-93613685D01*
X120768560Y-93613642D01*
X120812087Y-93598099D01*
X120875610Y-93566284D01*
X120876112Y-93566013D01*
X120923940Y-93541323D01*
X120962603Y-93523338D01*
X120984405Y-93515614D01*
X120985367Y-93515543D01*
X121001779Y-93523378D01*
X121038013Y-93545165D01*
X121090026Y-93578328D01*
X121153775Y-93620291D01*
X121224440Y-93667943D01*
X121296384Y-93716191D01*
X121361226Y-93758151D01*
X121414765Y-93791227D01*
X121452803Y-93812821D01*
X121470967Y-93820343D01*
X121487692Y-93810457D01*
X121521320Y-93782826D01*
X121568490Y-93740495D01*
X121625842Y-93686505D01*
X121690016Y-93623899D01*
X121711003Y-93602983D01*
X121928001Y-93385623D01*
X121762832Y-93143220D01*
X121712636Y-93068781D01*
X121668581Y-93001972D01*
X121633138Y-92946665D01*
X121608781Y-92906729D01*
X121597978Y-92886036D01*
X121597662Y-92884563D01*
X121603357Y-92865058D01*
X121618674Y-92825822D01*
X121640963Y-92773430D01*
X121656607Y-92738355D01*
X121685859Y-92671201D01*
X121713406Y-92603358D01*
X121734763Y-92546034D01*
X121740565Y-92528572D01*
X121757048Y-92481938D01*
X121773160Y-92445905D01*
X121782010Y-92432287D01*
X121801540Y-92423952D01*
X121844166Y-92412137D01*
X121904355Y-92398181D01*
X121976578Y-92383422D01*
X122008900Y-92377355D01*
X122090978Y-92362273D01*
X122169705Y-92347669D01*
X122237391Y-92334980D01*
X122286340Y-92325642D01*
X122295557Y-92323839D01*
X122371757Y-92308799D01*
X122371757Y-91991492D01*
X122371586Y-91887154D01*
X122370884Y-91808213D01*
X122369366Y-91751038D01*
X122366751Y-91711999D01*
X122362754Y-91687465D01*
X122357091Y-91673805D01*
X122349480Y-91667389D01*
X122346357Y-91666199D01*
X122327522Y-91661980D01*
X122285912Y-91653562D01*
X122226870Y-91641961D01*
X122155743Y-91628195D01*
X122077875Y-91613280D01*
X121998613Y-91598232D01*
X121923302Y-91584069D01*
X121857287Y-91571806D01*
X121805913Y-91562461D01*
X121774525Y-91557050D01*
X121767541Y-91556114D01*
X121761215Y-91543596D01*
X121747210Y-91510246D01*
X121728145Y-91462377D01*
X121720866Y-91443629D01*
X121691504Y-91371195D01*
X121656929Y-91291170D01*
X121625963Y-91223728D01*
X121603177Y-91172159D01*
X121588018Y-91129785D01*
X121582958Y-91103834D01*
X121583764Y-91100356D01*
X121594459Y-91083936D01*
X121618880Y-91047417D01*
X121654405Y-90994687D01*
X121698413Y-90929635D01*
X121748283Y-90856151D01*
X121758144Y-90841645D01*
X121816008Y-90755704D01*
X121858544Y-90690261D01*
X121887446Y-90642304D01*
X121904410Y-90608820D01*
X121911133Y-90586795D01*
X121909310Y-90573217D01*
X121909264Y-90573131D01*
X121894914Y-90555297D01*
X121863177Y-90520817D01*
X121817490Y-90473268D01*
X121761296Y-90416222D01*
X121698032Y-90353255D01*
X121690898Y-90346227D01*
X121611170Y-90269020D01*
X121549643Y-90212330D01*
X121505079Y-90175110D01*
X121476243Y-90156315D01*
X121463542Y-90153889D01*
X121445006Y-90164471D01*
X121406539Y-90188916D01*
X121352114Y-90224612D01*
X121285702Y-90268947D01*
X121211275Y-90319311D01*
X121193899Y-90331160D01*
X120947203Y-90499626D01*
X120835794Y-90449062D01*
X120768043Y-90419595D01*
X120695317Y-90389959D01*
X120632797Y-90366330D01*
X120630043Y-90365358D01*
X120581140Y-90347457D01*
X120543443Y-90332320D01*
X120525075Y-90323210D01*
X120525044Y-90323184D01*
X120519215Y-90306717D01*
X120509308Y-90266219D01*
X120496305Y-90206242D01*
X120481191Y-90131340D01*
X120464948Y-90046064D01*
X120463619Y-90038875D01*
X120447325Y-89951014D01*
X120432367Y-89871260D01*
X120419709Y-89804681D01*
X120410314Y-89756347D01*
X120405146Y-89731325D01*
X120405056Y-89730943D01*
X120401911Y-89720299D01*
X120395796Y-89712262D01*
X120383047Y-89706467D01*
X120360000Y-89702547D01*
X120322991Y-89700135D01*
X120268356Y-89698865D01*
X120192433Y-89698371D01*
X120091556Y-89698286D01*
X120078500Y-89698286D01*
X119974590Y-89698348D01*
G36*
X116924905Y-94422966D02*
X116867479Y-94460497D01*
X116839781Y-94494096D01*
X116817838Y-94555064D01*
X116816095Y-94603308D01*
X116820043Y-94667816D01*
X116968814Y-94732934D01*
X117041151Y-94766202D01*
X117088416Y-94792964D01*
X117112993Y-94816144D01*
X117117263Y-94838667D01*
X117103611Y-94863455D01*
X117088557Y-94879886D01*
X117044754Y-94906235D01*
X116997111Y-94908081D01*
X116953355Y-94887546D01*
X116921211Y-94846752D01*
X116915462Y-94832347D01*
X116887924Y-94787356D01*
X116856242Y-94768182D01*
X116812786Y-94751779D01*
X116812786Y-94813966D01*
X116816628Y-94856283D01*
X116831677Y-94891969D01*
X116863220Y-94932943D01*
X116867908Y-94938267D01*
X116902994Y-94974720D01*
X116933153Y-94994283D01*
X116970885Y-95003283D01*
X117002165Y-95006230D01*
X117058115Y-95006965D01*
X117097945Y-94997660D01*
X117122792Y-94983846D01*
X117161844Y-94953467D01*
X117188875Y-94920613D01*
X117205983Y-94879294D01*
X117215262Y-94823521D01*
X117218807Y-94747305D01*
X117219090Y-94708622D01*
X117218128Y-94662247D01*
X117130493Y-94662247D01*
X117129477Y-94687126D01*
X117126944Y-94691200D01*
X117110226Y-94685665D01*
X117074251Y-94671017D01*
X117026169Y-94650190D01*
X117016114Y-94645714D01*
X116955348Y-94614814D01*
X116921868Y-94587657D01*
X116914510Y-94562220D01*
X116932109Y-94536481D01*
X116946644Y-94525109D01*
X116999090Y-94502364D01*
X117048178Y-94506122D01*
X117089273Y-94533884D01*
X117117742Y-94583152D01*
X117126869Y-94622257D01*
X117130493Y-94662247D01*
X117218128Y-94662247D01*
X117217215Y-94618249D01*
X117210304Y-94551384D01*
X117196616Y-94502695D01*
X117174404Y-94466849D01*
X117141926Y-94438513D01*
X117127767Y-94429355D01*
X117063447Y-94405507D01*
X116993027Y-94404006D01*
X116924905Y-94422966D01*
X116924905Y-94422966D01*
G37*
X116924905Y-94422966D02*
X116867479Y-94460497D01*
X116839781Y-94494096D01*
X116817838Y-94555064D01*
X116816095Y-94603308D01*
X116820043Y-94667816D01*
X116968814Y-94732934D01*
X117041151Y-94766202D01*
X117088416Y-94792964D01*
X117112993Y-94816144D01*
X117117263Y-94838667D01*
X117103611Y-94863455D01*
X117088557Y-94879886D01*
X117044754Y-94906235D01*
X116997111Y-94908081D01*
X116953355Y-94887546D01*
X116921211Y-94846752D01*
X116915462Y-94832347D01*
X116887924Y-94787356D01*
X116856242Y-94768182D01*
X116812786Y-94751779D01*
X116812786Y-94813966D01*
X116816628Y-94856283D01*
X116831677Y-94891969D01*
X116863220Y-94932943D01*
X116867908Y-94938267D01*
X116902994Y-94974720D01*
X116933153Y-94994283D01*
X116970885Y-95003283D01*
X117002165Y-95006230D01*
X117058115Y-95006965D01*
X117097945Y-94997660D01*
X117122792Y-94983846D01*
X117161844Y-94953467D01*
X117188875Y-94920613D01*
X117205983Y-94879294D01*
X117215262Y-94823521D01*
X117218807Y-94747305D01*
X117219090Y-94708622D01*
X117218128Y-94662247D01*
X117130493Y-94662247D01*
X117129477Y-94687126D01*
X117126944Y-94691200D01*
X117110226Y-94685665D01*
X117074251Y-94671017D01*
X117026169Y-94650190D01*
X117016114Y-94645714D01*
X116955348Y-94614814D01*
X116921868Y-94587657D01*
X116914510Y-94562220D01*
X116932109Y-94536481D01*
X116946644Y-94525109D01*
X116999090Y-94502364D01*
X117048178Y-94506122D01*
X117089273Y-94533884D01*
X117117742Y-94583152D01*
X117126869Y-94622257D01*
X117130493Y-94662247D01*
X117218128Y-94662247D01*
X117217215Y-94618249D01*
X117210304Y-94551384D01*
X117196616Y-94502695D01*
X117174404Y-94466849D01*
X117141926Y-94438513D01*
X117127767Y-94429355D01*
X117063447Y-94405507D01*
X116993027Y-94404006D01*
X116924905Y-94422966D01*
G36*
X117425900Y-94414752D02*
X117408552Y-94422334D01*
X117367144Y-94455128D01*
X117331735Y-94502547D01*
X117309836Y-94553151D01*
X117306271Y-94578098D01*
X117318221Y-94612927D01*
X117344433Y-94631357D01*
X117372536Y-94642516D01*
X117385405Y-94644572D01*
X117391671Y-94629649D01*
X117404044Y-94597175D01*
X117409472Y-94582502D01*
X117439910Y-94531744D01*
X117483980Y-94506427D01*
X117540490Y-94507206D01*
X117544675Y-94508203D01*
X117574845Y-94522507D01*
X117597024Y-94550393D01*
X117612173Y-94595287D01*
X117621250Y-94660615D01*
X117625214Y-94749804D01*
X117625586Y-94797261D01*
X117625770Y-94872071D01*
X117626978Y-94923069D01*
X117630191Y-94955471D01*
X117636391Y-94974495D01*
X117646560Y-94985356D01*
X117661681Y-94993272D01*
X117662554Y-94993670D01*
X117691672Y-95005981D01*
X117706097Y-95010514D01*
X117708314Y-94996809D01*
X117710211Y-94958925D01*
X117711653Y-94901715D01*
X117712502Y-94830027D01*
X117712671Y-94777565D01*
X117711808Y-94676047D01*
X117708430Y-94599032D01*
X117701358Y-94542023D01*
X117689412Y-94500526D01*
X117671410Y-94470043D01*
X117646173Y-94446080D01*
X117621253Y-94429355D01*
X117561329Y-94407097D01*
X117491589Y-94402076D01*
X117425900Y-94414752D01*
X117425900Y-94414752D01*
G37*
X117425900Y-94414752D02*
X117408552Y-94422334D01*
X117367144Y-94455128D01*
X117331735Y-94502547D01*
X117309836Y-94553151D01*
X117306271Y-94578098D01*
X117318221Y-94612927D01*
X117344433Y-94631357D01*
X117372536Y-94642516D01*
X117385405Y-94644572D01*
X117391671Y-94629649D01*
X117404044Y-94597175D01*
X117409472Y-94582502D01*
X117439910Y-94531744D01*
X117483980Y-94506427D01*
X117540490Y-94507206D01*
X117544675Y-94508203D01*
X117574845Y-94522507D01*
X117597024Y-94550393D01*
X117612173Y-94595287D01*
X117621250Y-94660615D01*
X117625214Y-94749804D01*
X117625586Y-94797261D01*
X117625770Y-94872071D01*
X117626978Y-94923069D01*
X117630191Y-94955471D01*
X117636391Y-94974495D01*
X117646560Y-94985356D01*
X117661681Y-94993272D01*
X117662554Y-94993670D01*
X117691672Y-95005981D01*
X117706097Y-95010514D01*
X117708314Y-94996809D01*
X117710211Y-94958925D01*
X117711653Y-94901715D01*
X117712502Y-94830027D01*
X117712671Y-94777565D01*
X117711808Y-94676047D01*
X117708430Y-94599032D01*
X117701358Y-94542023D01*
X117689412Y-94500526D01*
X117671410Y-94470043D01*
X117646173Y-94446080D01*
X117621253Y-94429355D01*
X117561329Y-94407097D01*
X117491589Y-94402076D01*
X117425900Y-94414752D01*
G36*
X117933624Y-94412335D02*
X117891833Y-94431344D01*
X117859031Y-94454378D01*
X117834997Y-94480133D01*
X117818403Y-94513358D01*
X117807923Y-94558800D01*
X117802229Y-94621207D01*
X117799993Y-94705327D01*
X117799757Y-94760721D01*
X117799757Y-94976826D01*
X117836726Y-94993670D01*
X117865844Y-95005981D01*
X117880269Y-95010514D01*
X117883028Y-94997025D01*
X117885218Y-94960653D01*
X117886558Y-94907542D01*
X117886843Y-94865372D01*
X117888066Y-94804447D01*
X117891364Y-94756115D01*
X117896179Y-94726518D01*
X117900004Y-94720229D01*
X117925717Y-94726652D01*
X117966082Y-94743125D01*
X118012821Y-94765458D01*
X118057655Y-94789457D01*
X118092307Y-94810930D01*
X118108498Y-94825685D01*
X118108562Y-94825845D01*
X118107170Y-94853152D01*
X118094682Y-94879219D01*
X118072757Y-94900392D01*
X118040757Y-94907474D01*
X118013408Y-94906649D01*
X117974674Y-94906042D01*
X117954342Y-94915116D01*
X117942131Y-94939092D01*
X117940591Y-94943613D01*
X117935297Y-94977806D01*
X117949453Y-94998568D01*
X117986352Y-95008462D01*
X118026211Y-95010292D01*
X118097938Y-94996727D01*
X118135068Y-94977355D01*
X118180924Y-94931845D01*
X118205244Y-94875983D01*
X118207427Y-94816957D01*
X118186871Y-94761953D01*
X118155951Y-94727486D01*
X118125080Y-94708189D01*
X118076558Y-94683759D01*
X118020015Y-94658985D01*
X118010590Y-94655199D01*
X117948481Y-94627791D01*
X117912678Y-94603634D01*
X117901163Y-94579619D01*
X117911920Y-94552635D01*
X117930386Y-94531543D01*
X117974031Y-94505572D01*
X118022054Y-94503624D01*
X118066094Y-94523637D01*
X118097791Y-94563551D01*
X118101951Y-94573848D01*
X118126173Y-94611724D01*
X118161535Y-94639842D01*
X118206157Y-94662917D01*
X118206157Y-94597485D01*
X118203531Y-94557506D01*
X118192270Y-94525997D01*
X118167301Y-94492378D01*
X118143331Y-94466484D01*
X118106059Y-94429817D01*
X118077099Y-94410121D01*
X118045995Y-94402220D01*
X118010787Y-94400914D01*
X117933624Y-94412335D01*
X117933624Y-94412335D01*
G37*
X117933624Y-94412335D02*
X117891833Y-94431344D01*
X117859031Y-94454378D01*
X117834997Y-94480133D01*
X117818403Y-94513358D01*
X117807923Y-94558800D01*
X117802229Y-94621207D01*
X117799993Y-94705327D01*
X117799757Y-94760721D01*
X117799757Y-94976826D01*
X117836726Y-94993670D01*
X117865844Y-95005981D01*
X117880269Y-95010514D01*
X117883028Y-94997025D01*
X117885218Y-94960653D01*
X117886558Y-94907542D01*
X117886843Y-94865372D01*
X117888066Y-94804447D01*
X117891364Y-94756115D01*
X117896179Y-94726518D01*
X117900004Y-94720229D01*
X117925717Y-94726652D01*
X117966082Y-94743125D01*
X118012821Y-94765458D01*
X118057655Y-94789457D01*
X118092307Y-94810930D01*
X118108498Y-94825685D01*
X118108562Y-94825845D01*
X118107170Y-94853152D01*
X118094682Y-94879219D01*
X118072757Y-94900392D01*
X118040757Y-94907474D01*
X118013408Y-94906649D01*
X117974674Y-94906042D01*
X117954342Y-94915116D01*
X117942131Y-94939092D01*
X117940591Y-94943613D01*
X117935297Y-94977806D01*
X117949453Y-94998568D01*
X117986352Y-95008462D01*
X118026211Y-95010292D01*
X118097938Y-94996727D01*
X118135068Y-94977355D01*
X118180924Y-94931845D01*
X118205244Y-94875983D01*
X118207427Y-94816957D01*
X118186871Y-94761953D01*
X118155951Y-94727486D01*
X118125080Y-94708189D01*
X118076558Y-94683759D01*
X118020015Y-94658985D01*
X118010590Y-94655199D01*
X117948481Y-94627791D01*
X117912678Y-94603634D01*
X117901163Y-94579619D01*
X117911920Y-94552635D01*
X117930386Y-94531543D01*
X117974031Y-94505572D01*
X118022054Y-94503624D01*
X118066094Y-94523637D01*
X118097791Y-94563551D01*
X118101951Y-94573848D01*
X118126173Y-94611724D01*
X118161535Y-94639842D01*
X118206157Y-94662917D01*
X118206157Y-94597485D01*
X118203531Y-94557506D01*
X118192270Y-94525997D01*
X118167301Y-94492378D01*
X118143331Y-94466484D01*
X118106059Y-94429817D01*
X118077099Y-94410121D01*
X118045995Y-94402220D01*
X118010787Y-94400914D01*
X117933624Y-94412335D01*
G36*
X118298667Y-94414663D02*
X118296452Y-94452850D01*
X118294716Y-94510886D01*
X118293601Y-94584180D01*
X118293243Y-94661055D01*
X118293243Y-94921196D01*
X118339174Y-94967127D01*
X118370825Y-94995429D01*
X118398610Y-95006893D01*
X118436585Y-95006168D01*
X118451660Y-95004321D01*
X118498774Y-94998948D01*
X118537744Y-94995869D01*
X118547243Y-94995585D01*
X118579267Y-94997445D01*
X118625068Y-95002114D01*
X118642826Y-95004321D01*
X118686443Y-95007735D01*
X118715755Y-95000320D01*
X118744820Y-94977427D01*
X118755312Y-94967127D01*
X118801243Y-94921196D01*
X118801243Y-94434602D01*
X118764274Y-94417758D01*
X118732441Y-94405282D01*
X118713817Y-94400914D01*
X118709042Y-94414718D01*
X118704579Y-94453286D01*
X118700725Y-94512356D01*
X118697778Y-94587663D01*
X118696357Y-94651286D01*
X118692386Y-94901657D01*
X118657741Y-94906556D01*
X118626232Y-94903131D01*
X118610792Y-94892041D01*
X118606477Y-94871308D01*
X118602792Y-94827145D01*
X118600031Y-94765146D01*
X118598488Y-94690909D01*
X118598265Y-94652706D01*
X118598043Y-94432783D01*
X118552334Y-94416849D01*
X118519982Y-94406015D01*
X118502385Y-94400962D01*
X118501877Y-94400914D01*
X118500112Y-94414648D01*
X118498171Y-94452730D01*
X118496218Y-94510482D01*
X118494416Y-94583227D01*
X118493157Y-94651286D01*
X118489186Y-94901657D01*
X118402100Y-94901657D01*
X118398104Y-94673240D01*
X118394108Y-94444822D01*
X118351653Y-94422868D01*
X118320308Y-94407793D01*
X118301756Y-94400951D01*
X118301221Y-94400914D01*
X118298667Y-94414663D01*
X118298667Y-94414663D01*
G37*
X118298667Y-94414663D02*
X118296452Y-94452850D01*
X118294716Y-94510886D01*
X118293601Y-94584180D01*
X118293243Y-94661055D01*
X118293243Y-94921196D01*
X118339174Y-94967127D01*
X118370825Y-94995429D01*
X118398610Y-95006893D01*
X118436585Y-95006168D01*
X118451660Y-95004321D01*
X118498774Y-94998948D01*
X118537744Y-94995869D01*
X118547243Y-94995585D01*
X118579267Y-94997445D01*
X118625068Y-95002114D01*
X118642826Y-95004321D01*
X118686443Y-95007735D01*
X118715755Y-95000320D01*
X118744820Y-94977427D01*
X118755312Y-94967127D01*
X118801243Y-94921196D01*
X118801243Y-94434602D01*
X118764274Y-94417758D01*
X118732441Y-94405282D01*
X118713817Y-94400914D01*
X118709042Y-94414718D01*
X118704579Y-94453286D01*
X118700725Y-94512356D01*
X118697778Y-94587663D01*
X118696357Y-94651286D01*
X118692386Y-94901657D01*
X118657741Y-94906556D01*
X118626232Y-94903131D01*
X118610792Y-94892041D01*
X118606477Y-94871308D01*
X118602792Y-94827145D01*
X118600031Y-94765146D01*
X118598488Y-94690909D01*
X118598265Y-94652706D01*
X118598043Y-94432783D01*
X118552334Y-94416849D01*
X118519982Y-94406015D01*
X118502385Y-94400962D01*
X118501877Y-94400914D01*
X118500112Y-94414648D01*
X118498171Y-94452730D01*
X118496218Y-94510482D01*
X118494416Y-94583227D01*
X118493157Y-94651286D01*
X118489186Y-94901657D01*
X118402100Y-94901657D01*
X118398104Y-94673240D01*
X118394108Y-94444822D01*
X118351653Y-94422868D01*
X118320308Y-94407793D01*
X118301756Y-94400951D01*
X118301221Y-94400914D01*
X118298667Y-94414663D01*
G36*
X118888383Y-94521358D02*
X118888567Y-94629837D01*
X118889281Y-94713287D01*
X118890825Y-94775704D01*
X118893499Y-94821085D01*
X118897606Y-94853429D01*
X118903445Y-94876733D01*
X118911318Y-94894995D01*
X118917279Y-94905418D01*
X118966645Y-94961945D01*
X119029236Y-94997377D01*
X119098487Y-95010090D01*
X119167832Y-94998463D01*
X119209125Y-94977568D01*
X119252475Y-94941422D01*
X119282019Y-94897276D01*
X119299845Y-94839462D01*
X119308037Y-94762313D01*
X119309198Y-94705714D01*
X119309042Y-94701647D01*
X119207643Y-94701647D01*
X119207024Y-94766550D01*
X119204186Y-94809514D01*
X119197660Y-94837622D01*
X119185977Y-94857953D01*
X119172017Y-94873288D01*
X119125135Y-94902890D01*
X119074799Y-94905419D01*
X119027224Y-94880705D01*
X119023521Y-94877356D01*
X119007717Y-94859935D01*
X118997807Y-94839209D01*
X118992442Y-94808362D01*
X118990272Y-94760577D01*
X118989929Y-94707748D01*
X118990673Y-94641381D01*
X118993752Y-94597106D01*
X119000439Y-94568009D01*
X119012004Y-94547173D01*
X119021487Y-94536107D01*
X119065540Y-94508198D01*
X119116276Y-94504843D01*
X119164704Y-94526159D01*
X119174050Y-94534073D01*
X119189960Y-94551647D01*
X119199890Y-94572587D01*
X119205222Y-94603782D01*
X119207337Y-94652122D01*
X119207643Y-94701647D01*
X119309042Y-94701647D01*
X119305690Y-94614568D01*
X119293774Y-94546086D01*
X119271365Y-94494600D01*
X119236376Y-94454443D01*
X119209125Y-94433861D01*
X119159593Y-94411625D01*
X119102184Y-94401304D01*
X119048818Y-94404067D01*
X119018957Y-94415212D01*
X119007239Y-94418383D01*
X118999463Y-94406557D01*
X118994035Y-94374866D01*
X118989929Y-94326593D01*
X118985433Y-94272829D01*
X118979187Y-94240482D01*
X118967824Y-94221985D01*
X118947972Y-94209770D01*
X118935500Y-94204362D01*
X118888329Y-94184601D01*
X118888383Y-94521358D01*
X118888383Y-94521358D01*
G37*
X118888383Y-94521358D02*
X118888567Y-94629837D01*
X118889281Y-94713287D01*
X118890825Y-94775704D01*
X118893499Y-94821085D01*
X118897606Y-94853429D01*
X118903445Y-94876733D01*
X118911318Y-94894995D01*
X118917279Y-94905418D01*
X118966645Y-94961945D01*
X119029236Y-94997377D01*
X119098487Y-95010090D01*
X119167832Y-94998463D01*
X119209125Y-94977568D01*
X119252475Y-94941422D01*
X119282019Y-94897276D01*
X119299845Y-94839462D01*
X119308037Y-94762313D01*
X119309198Y-94705714D01*
X119309042Y-94701647D01*
X119207643Y-94701647D01*
X119207024Y-94766550D01*
X119204186Y-94809514D01*
X119197660Y-94837622D01*
X119185977Y-94857953D01*
X119172017Y-94873288D01*
X119125135Y-94902890D01*
X119074799Y-94905419D01*
X119027224Y-94880705D01*
X119023521Y-94877356D01*
X119007717Y-94859935D01*
X118997807Y-94839209D01*
X118992442Y-94808362D01*
X118990272Y-94760577D01*
X118989929Y-94707748D01*
X118990673Y-94641381D01*
X118993752Y-94597106D01*
X119000439Y-94568009D01*
X119012004Y-94547173D01*
X119021487Y-94536107D01*
X119065540Y-94508198D01*
X119116276Y-94504843D01*
X119164704Y-94526159D01*
X119174050Y-94534073D01*
X119189960Y-94551647D01*
X119199890Y-94572587D01*
X119205222Y-94603782D01*
X119207337Y-94652122D01*
X119207643Y-94701647D01*
X119309042Y-94701647D01*
X119305690Y-94614568D01*
X119293774Y-94546086D01*
X119271365Y-94494600D01*
X119236376Y-94454443D01*
X119209125Y-94433861D01*
X119159593Y-94411625D01*
X119102184Y-94401304D01*
X119048818Y-94404067D01*
X119018957Y-94415212D01*
X119007239Y-94418383D01*
X118999463Y-94406557D01*
X118994035Y-94374866D01*
X118989929Y-94326593D01*
X118985433Y-94272829D01*
X118979187Y-94240482D01*
X118967824Y-94221985D01*
X118947972Y-94209770D01*
X118935500Y-94204362D01*
X118888329Y-94184601D01*
X118888383Y-94521358D01*
G36*
X119548574Y-94405755D02*
X119482642Y-94430084D01*
X119429227Y-94473117D01*
X119408336Y-94503409D01*
X119385561Y-94558994D01*
X119386034Y-94599186D01*
X119409938Y-94626217D01*
X119418783Y-94630813D01*
X119456970Y-94645144D01*
X119476472Y-94641472D01*
X119483078Y-94617407D01*
X119483414Y-94604114D01*
X119495508Y-94555210D01*
X119527029Y-94520999D01*
X119570841Y-94504476D01*
X119619805Y-94508634D01*
X119659606Y-94530227D01*
X119673050Y-94542544D01*
X119682579Y-94557487D01*
X119689015Y-94580075D01*
X119693183Y-94615328D01*
X119695903Y-94668266D01*
X119697998Y-94743907D01*
X119698540Y-94767857D01*
X119700519Y-94849790D01*
X119702769Y-94907455D01*
X119706143Y-94945608D01*
X119711494Y-94969004D01*
X119719676Y-94982398D01*
X119731541Y-94990545D01*
X119739138Y-94994144D01*
X119771398Y-95006452D01*
X119790389Y-95010514D01*
X119796664Y-94996948D01*
X119800494Y-94955934D01*
X119801900Y-94886999D01*
X119800902Y-94789669D01*
X119800592Y-94774657D01*
X119798399Y-94685859D01*
X119795807Y-94621019D01*
X119792118Y-94575067D01*
X119786636Y-94542935D01*
X119778665Y-94519553D01*
X119767507Y-94499852D01*
X119761670Y-94491410D01*
X119728204Y-94454057D01*
X119690773Y-94425003D01*
X119686191Y-94422467D01*
X119619074Y-94402443D01*
X119548574Y-94405755D01*
X119548574Y-94405755D01*
G37*
X119548574Y-94405755D02*
X119482642Y-94430084D01*
X119429227Y-94473117D01*
X119408336Y-94503409D01*
X119385561Y-94558994D01*
X119386034Y-94599186D01*
X119409938Y-94626217D01*
X119418783Y-94630813D01*
X119456970Y-94645144D01*
X119476472Y-94641472D01*
X119483078Y-94617407D01*
X119483414Y-94604114D01*
X119495508Y-94555210D01*
X119527029Y-94520999D01*
X119570841Y-94504476D01*
X119619805Y-94508634D01*
X119659606Y-94530227D01*
X119673050Y-94542544D01*
X119682579Y-94557487D01*
X119689015Y-94580075D01*
X119693183Y-94615328D01*
X119695903Y-94668266D01*
X119697998Y-94743907D01*
X119698540Y-94767857D01*
X119700519Y-94849790D01*
X119702769Y-94907455D01*
X119706143Y-94945608D01*
X119711494Y-94969004D01*
X119719676Y-94982398D01*
X119731541Y-94990545D01*
X119739138Y-94994144D01*
X119771398Y-95006452D01*
X119790389Y-95010514D01*
X119796664Y-94996948D01*
X119800494Y-94955934D01*
X119801900Y-94886999D01*
X119800902Y-94789669D01*
X119800592Y-94774657D01*
X119798399Y-94685859D01*
X119795807Y-94621019D01*
X119792118Y-94575067D01*
X119786636Y-94542935D01*
X119778665Y-94519553D01*
X119767507Y-94499852D01*
X119761670Y-94491410D01*
X119728204Y-94454057D01*
X119690773Y-94425003D01*
X119686191Y-94422467D01*
X119619074Y-94402443D01*
X119548574Y-94405755D01*
G36*
X120038756Y-94406968D02*
X119981884Y-94428087D01*
X119981233Y-94428493D01*
X119946060Y-94454380D01*
X119920093Y-94484633D01*
X119901830Y-94524058D01*
X119889768Y-94577462D01*
X119882404Y-94649651D01*
X119878236Y-94745432D01*
X119877871Y-94759078D01*
X119872624Y-94964842D01*
X119916784Y-94987678D01*
X119948737Y-95003110D01*
X119968030Y-95010423D01*
X119968922Y-95010514D01*
X119972261Y-94997022D01*
X119974913Y-94960626D01*
X119976544Y-94907452D01*
X119976900Y-94864393D01*
X119976908Y-94794641D01*
X119980097Y-94750837D01*
X119991212Y-94729944D01*
X120014999Y-94728925D01*
X120056204Y-94744741D01*
X120118414Y-94773815D01*
X120164159Y-94797963D01*
X120187687Y-94818913D01*
X120194604Y-94841747D01*
X120194614Y-94842877D01*
X120183201Y-94882212D01*
X120149408Y-94903462D01*
X120097691Y-94906539D01*
X120060439Y-94906006D01*
X120040797Y-94916735D01*
X120028548Y-94942505D01*
X120021498Y-94975337D01*
X120031658Y-94993966D01*
X120035483Y-94996632D01*
X120071499Y-95007340D01*
X120121934Y-95008856D01*
X120173874Y-95001759D01*
X120210678Y-94988788D01*
X120261562Y-94945585D01*
X120290486Y-94885446D01*
X120296214Y-94838462D01*
X120291843Y-94796082D01*
X120276025Y-94761488D01*
X120244703Y-94730763D01*
X120193822Y-94699990D01*
X120119324Y-94665252D01*
X120114786Y-94663288D01*
X120047679Y-94632287D01*
X120006268Y-94606862D01*
X119988519Y-94584014D01*
X119992393Y-94560745D01*
X120015857Y-94534056D01*
X120022873Y-94527914D01*
X120069870Y-94504100D01*
X120118567Y-94505103D01*
X120160978Y-94528451D01*
X120189116Y-94571675D01*
X120191731Y-94580160D01*
X120217192Y-94621308D01*
X120249499Y-94641128D01*
X120296214Y-94660770D01*
X120296214Y-94609950D01*
X120282004Y-94536082D01*
X120239825Y-94468327D01*
X120217876Y-94445661D01*
X120167983Y-94416569D01*
X120104533Y-94403400D01*
X120038756Y-94406968D01*
X120038756Y-94406968D01*
G37*
X120038756Y-94406968D02*
X119981884Y-94428087D01*
X119981233Y-94428493D01*
X119946060Y-94454380D01*
X119920093Y-94484633D01*
X119901830Y-94524058D01*
X119889768Y-94577462D01*
X119882404Y-94649651D01*
X119878236Y-94745432D01*
X119877871Y-94759078D01*
X119872624Y-94964842D01*
X119916784Y-94987678D01*
X119948737Y-95003110D01*
X119968030Y-95010423D01*
X119968922Y-95010514D01*
X119972261Y-94997022D01*
X119974913Y-94960626D01*
X119976544Y-94907452D01*
X119976900Y-94864393D01*
X119976908Y-94794641D01*
X119980097Y-94750837D01*
X119991212Y-94729944D01*
X120014999Y-94728925D01*
X120056204Y-94744741D01*
X120118414Y-94773815D01*
X120164159Y-94797963D01*
X120187687Y-94818913D01*
X120194604Y-94841747D01*
X120194614Y-94842877D01*
X120183201Y-94882212D01*
X120149408Y-94903462D01*
X120097691Y-94906539D01*
X120060439Y-94906006D01*
X120040797Y-94916735D01*
X120028548Y-94942505D01*
X120021498Y-94975337D01*
X120031658Y-94993966D01*
X120035483Y-94996632D01*
X120071499Y-95007340D01*
X120121934Y-95008856D01*
X120173874Y-95001759D01*
X120210678Y-94988788D01*
X120261562Y-94945585D01*
X120290486Y-94885446D01*
X120296214Y-94838462D01*
X120291843Y-94796082D01*
X120276025Y-94761488D01*
X120244703Y-94730763D01*
X120193822Y-94699990D01*
X120119324Y-94665252D01*
X120114786Y-94663288D01*
X120047679Y-94632287D01*
X120006268Y-94606862D01*
X119988519Y-94584014D01*
X119992393Y-94560745D01*
X120015857Y-94534056D01*
X120022873Y-94527914D01*
X120069870Y-94504100D01*
X120118567Y-94505103D01*
X120160978Y-94528451D01*
X120189116Y-94571675D01*
X120191731Y-94580160D01*
X120217192Y-94621308D01*
X120249499Y-94641128D01*
X120296214Y-94660770D01*
X120296214Y-94609950D01*
X120282004Y-94536082D01*
X120239825Y-94468327D01*
X120217876Y-94445661D01*
X120167983Y-94416569D01*
X120104533Y-94403400D01*
X120038756Y-94406968D01*
G36*
X120702614Y-94307289D02*
X120698361Y-94366613D01*
X120693475Y-94401572D01*
X120686705Y-94416820D01*
X120676798Y-94417015D01*
X120673586Y-94415195D01*
X120630856Y-94402015D01*
X120575273Y-94402785D01*
X120518763Y-94416333D01*
X120483418Y-94433861D01*
X120447179Y-94461861D01*
X120420687Y-94493549D01*
X120402501Y-94533813D01*
X120391178Y-94587543D01*
X120385278Y-94659626D01*
X120383357Y-94754951D01*
X120383323Y-94773237D01*
X120383300Y-94978646D01*
X120429009Y-94994580D01*
X120461473Y-95005420D01*
X120479285Y-95010468D01*
X120479809Y-95010514D01*
X120481563Y-94996828D01*
X120483056Y-94959076D01*
X120484174Y-94902224D01*
X120484803Y-94831234D01*
X120484900Y-94788073D01*
X120485102Y-94702973D01*
X120486142Y-94641981D01*
X120488669Y-94600177D01*
X120493336Y-94572642D01*
X120500793Y-94554456D01*
X120511689Y-94540698D01*
X120518493Y-94534073D01*
X120565228Y-94507375D01*
X120616228Y-94505375D01*
X120662499Y-94527955D01*
X120671056Y-94536107D01*
X120683607Y-94551436D01*
X120692312Y-94569618D01*
X120697869Y-94595909D01*
X120700974Y-94635562D01*
X120702324Y-94693832D01*
X120702614Y-94774173D01*
X120702614Y-94978646D01*
X120748323Y-94994580D01*
X120780787Y-95005420D01*
X120798599Y-95010468D01*
X120799123Y-95010514D01*
X120800463Y-94996623D01*
X120801672Y-94957439D01*
X120802699Y-94896700D01*
X120803498Y-94818141D01*
X120804019Y-94725498D01*
X120804214Y-94622509D01*
X120804214Y-94225342D01*
X120757043Y-94205444D01*
X120709871Y-94185547D01*
X120702614Y-94307289D01*
X120702614Y-94307289D01*
G37*
X120702614Y-94307289D02*
X120698361Y-94366613D01*
X120693475Y-94401572D01*
X120686705Y-94416820D01*
X120676798Y-94417015D01*
X120673586Y-94415195D01*
X120630856Y-94402015D01*
X120575273Y-94402785D01*
X120518763Y-94416333D01*
X120483418Y-94433861D01*
X120447179Y-94461861D01*
X120420687Y-94493549D01*
X120402501Y-94533813D01*
X120391178Y-94587543D01*
X120385278Y-94659626D01*
X120383357Y-94754951D01*
X120383323Y-94773237D01*
X120383300Y-94978646D01*
X120429009Y-94994580D01*
X120461473Y-95005420D01*
X120479285Y-95010468D01*
X120479809Y-95010514D01*
X120481563Y-94996828D01*
X120483056Y-94959076D01*
X120484174Y-94902224D01*
X120484803Y-94831234D01*
X120484900Y-94788073D01*
X120485102Y-94702973D01*
X120486142Y-94641981D01*
X120488669Y-94600177D01*
X120493336Y-94572642D01*
X120500793Y-94554456D01*
X120511689Y-94540698D01*
X120518493Y-94534073D01*
X120565228Y-94507375D01*
X120616228Y-94505375D01*
X120662499Y-94527955D01*
X120671056Y-94536107D01*
X120683607Y-94551436D01*
X120692312Y-94569618D01*
X120697869Y-94595909D01*
X120700974Y-94635562D01*
X120702324Y-94693832D01*
X120702614Y-94774173D01*
X120702614Y-94978646D01*
X120748323Y-94994580D01*
X120780787Y-95005420D01*
X120798599Y-95010468D01*
X120799123Y-95010514D01*
X120800463Y-94996623D01*
X120801672Y-94957439D01*
X120802699Y-94896700D01*
X120803498Y-94818141D01*
X120804019Y-94725498D01*
X120804214Y-94622509D01*
X120804214Y-94225342D01*
X120757043Y-94205444D01*
X120709871Y-94185547D01*
X120702614Y-94307289D01*
G36*
X121910197Y-94387239D02*
X121852973Y-94425735D01*
X121808751Y-94481335D01*
X121782333Y-94552086D01*
X121776990Y-94604162D01*
X121777597Y-94625893D01*
X121782678Y-94642531D01*
X121796645Y-94657437D01*
X121823911Y-94673973D01*
X121868888Y-94695498D01*
X121935989Y-94725374D01*
X121936329Y-94725524D01*
X121998093Y-94753813D01*
X122048741Y-94778933D01*
X122083096Y-94798179D01*
X122095982Y-94808848D01*
X122095986Y-94808934D01*
X122084628Y-94832166D01*
X122058069Y-94857774D01*
X122027577Y-94876221D01*
X122012130Y-94879886D01*
X121969985Y-94867212D01*
X121933692Y-94835471D01*
X121915983Y-94800572D01*
X121898948Y-94774845D01*
X121865578Y-94745546D01*
X121826351Y-94720235D01*
X121791744Y-94706471D01*
X121784507Y-94705714D01*
X121776361Y-94718160D01*
X121775870Y-94749972D01*
X121781857Y-94792866D01*
X121793143Y-94838558D01*
X121808550Y-94878761D01*
X121809329Y-94880322D01*
X121855696Y-94945062D01*
X121915789Y-94989097D01*
X121984035Y-95010711D01*
X122054862Y-95008185D01*
X122122696Y-94979804D01*
X122125712Y-94977808D01*
X122179073Y-94929448D01*
X122214160Y-94866352D01*
X122233578Y-94783387D01*
X122236184Y-94760078D01*
X122240799Y-94650055D01*
X122235267Y-94598748D01*
X122095986Y-94598748D01*
X122094176Y-94630753D01*
X122084278Y-94640093D01*
X122059602Y-94633105D01*
X122020705Y-94616587D01*
X121977225Y-94595881D01*
X121976144Y-94595333D01*
X121939291Y-94575949D01*
X121924500Y-94563013D01*
X121928147Y-94549451D01*
X121943505Y-94531632D01*
X121982577Y-94505845D01*
X122024654Y-94503950D01*
X122062397Y-94522717D01*
X122088466Y-94558915D01*
X122095986Y-94598748D01*
X122235267Y-94598748D01*
X122231306Y-94562027D01*
X122206950Y-94492212D01*
X122173044Y-94443302D01*
X122111847Y-94393878D01*
X122044437Y-94369359D01*
X121975620Y-94367797D01*
X121910197Y-94387239D01*
X121910197Y-94387239D01*
G37*
X121910197Y-94387239D02*
X121852973Y-94425735D01*
X121808751Y-94481335D01*
X121782333Y-94552086D01*
X121776990Y-94604162D01*
X121777597Y-94625893D01*
X121782678Y-94642531D01*
X121796645Y-94657437D01*
X121823911Y-94673973D01*
X121868888Y-94695498D01*
X121935989Y-94725374D01*
X121936329Y-94725524D01*
X121998093Y-94753813D01*
X122048741Y-94778933D01*
X122083096Y-94798179D01*
X122095982Y-94808848D01*
X122095986Y-94808934D01*
X122084628Y-94832166D01*
X122058069Y-94857774D01*
X122027577Y-94876221D01*
X122012130Y-94879886D01*
X121969985Y-94867212D01*
X121933692Y-94835471D01*
X121915983Y-94800572D01*
X121898948Y-94774845D01*
X121865578Y-94745546D01*
X121826351Y-94720235D01*
X121791744Y-94706471D01*
X121784507Y-94705714D01*
X121776361Y-94718160D01*
X121775870Y-94749972D01*
X121781857Y-94792866D01*
X121793143Y-94838558D01*
X121808550Y-94878761D01*
X121809329Y-94880322D01*
X121855696Y-94945062D01*
X121915789Y-94989097D01*
X121984035Y-95010711D01*
X122054862Y-95008185D01*
X122122696Y-94979804D01*
X122125712Y-94977808D01*
X122179073Y-94929448D01*
X122214160Y-94866352D01*
X122233578Y-94783387D01*
X122236184Y-94760078D01*
X122240799Y-94650055D01*
X122235267Y-94598748D01*
X122095986Y-94598748D01*
X122094176Y-94630753D01*
X122084278Y-94640093D01*
X122059602Y-94633105D01*
X122020705Y-94616587D01*
X121977225Y-94595881D01*
X121976144Y-94595333D01*
X121939291Y-94575949D01*
X121924500Y-94563013D01*
X121928147Y-94549451D01*
X121943505Y-94531632D01*
X121982577Y-94505845D01*
X122024654Y-94503950D01*
X122062397Y-94522717D01*
X122088466Y-94558915D01*
X122095986Y-94598748D01*
X122235267Y-94598748D01*
X122231306Y-94562027D01*
X122206950Y-94492212D01*
X122173044Y-94443302D01*
X122111847Y-94393878D01*
X122044437Y-94369359D01*
X121975620Y-94367797D01*
X121910197Y-94387239D01*
G36*
X123037385Y-94377962D02*
X122969355Y-94413733D01*
X122919149Y-94471301D01*
X122901315Y-94508312D01*
X122887437Y-94563882D01*
X122880333Y-94634096D01*
X122879660Y-94710727D01*
X122885073Y-94785552D01*
X122896230Y-94850342D01*
X122912786Y-94896873D01*
X122917874Y-94904887D01*
X122978145Y-94964707D01*
X123049731Y-95000535D01*
X123127408Y-95011020D01*
X123205952Y-94994810D01*
X123227811Y-94985092D01*
X123270378Y-94955143D01*
X123307737Y-94915433D01*
X123311268Y-94910397D01*
X123325619Y-94886124D01*
X123335106Y-94860178D01*
X123340710Y-94826022D01*
X123343414Y-94777119D01*
X123344201Y-94706935D01*
X123344214Y-94691200D01*
X123344178Y-94686192D01*
X123199071Y-94686192D01*
X123198227Y-94752430D01*
X123194904Y-94796386D01*
X123187917Y-94824779D01*
X123176084Y-94844325D01*
X123170043Y-94850857D01*
X123135314Y-94875680D01*
X123101597Y-94874548D01*
X123067505Y-94853016D01*
X123047171Y-94830029D01*
X123035129Y-94796478D01*
X123028366Y-94743569D01*
X123027902Y-94737399D01*
X123026748Y-94641513D01*
X123038812Y-94570299D01*
X123063930Y-94524194D01*
X123101940Y-94503635D01*
X123115508Y-94502514D01*
X123151136Y-94508152D01*
X123175506Y-94527686D01*
X123190407Y-94565042D01*
X123197625Y-94624150D01*
X123199071Y-94686192D01*
X123344178Y-94686192D01*
X123343674Y-94616413D01*
X123341404Y-94564159D01*
X123336432Y-94527949D01*
X123327787Y-94501299D01*
X123314495Y-94477722D01*
X123311557Y-94473338D01*
X123262187Y-94414249D01*
X123208391Y-94379947D01*
X123142898Y-94366331D01*
X123120658Y-94365665D01*
X123037385Y-94377962D01*
X123037385Y-94377962D01*
G37*
X123037385Y-94377962D02*
X122969355Y-94413733D01*
X122919149Y-94471301D01*
X122901315Y-94508312D01*
X122887437Y-94563882D01*
X122880333Y-94634096D01*
X122879660Y-94710727D01*
X122885073Y-94785552D01*
X122896230Y-94850342D01*
X122912786Y-94896873D01*
X122917874Y-94904887D01*
X122978145Y-94964707D01*
X123049731Y-95000535D01*
X123127408Y-95011020D01*
X123205952Y-94994810D01*
X123227811Y-94985092D01*
X123270378Y-94955143D01*
X123307737Y-94915433D01*
X123311268Y-94910397D01*
X123325619Y-94886124D01*
X123335106Y-94860178D01*
X123340710Y-94826022D01*
X123343414Y-94777119D01*
X123344201Y-94706935D01*
X123344214Y-94691200D01*
X123344178Y-94686192D01*
X123199071Y-94686192D01*
X123198227Y-94752430D01*
X123194904Y-94796386D01*
X123187917Y-94824779D01*
X123176084Y-94844325D01*
X123170043Y-94850857D01*
X123135314Y-94875680D01*
X123101597Y-94874548D01*
X123067505Y-94853016D01*
X123047171Y-94830029D01*
X123035129Y-94796478D01*
X123028366Y-94743569D01*
X123027902Y-94737399D01*
X123026748Y-94641513D01*
X123038812Y-94570299D01*
X123063930Y-94524194D01*
X123101940Y-94503635D01*
X123115508Y-94502514D01*
X123151136Y-94508152D01*
X123175506Y-94527686D01*
X123190407Y-94565042D01*
X123197625Y-94624150D01*
X123199071Y-94686192D01*
X123344178Y-94686192D01*
X123343674Y-94616413D01*
X123341404Y-94564159D01*
X123336432Y-94527949D01*
X123327787Y-94501299D01*
X123314495Y-94477722D01*
X123311557Y-94473338D01*
X123262187Y-94414249D01*
X123208391Y-94379947D01*
X123142898Y-94366331D01*
X123120658Y-94365665D01*
X123037385Y-94377962D01*
G36*
X121362407Y-94383780D02*
X121315828Y-94410723D01*
X121283443Y-94437466D01*
X121259758Y-94465484D01*
X121243441Y-94499748D01*
X121233161Y-94545227D01*
X121227586Y-94606892D01*
X121225384Y-94689711D01*
X121225129Y-94749246D01*
X121225129Y-94968391D01*
X121286814Y-94996044D01*
X121348500Y-95023697D01*
X121355757Y-94783670D01*
X121358756Y-94694028D01*
X121361902Y-94628962D01*
X121365799Y-94584026D01*
X121371053Y-94554770D01*
X121378269Y-94536748D01*
X121388050Y-94525511D01*
X121391188Y-94523079D01*
X121438739Y-94504083D01*
X121486803Y-94511600D01*
X121515414Y-94531543D01*
X121527053Y-94545675D01*
X121535109Y-94564220D01*
X121540229Y-94592334D01*
X121543059Y-94635173D01*
X121544244Y-94697895D01*
X121544443Y-94763261D01*
X121544482Y-94845268D01*
X121545886Y-94903316D01*
X121550586Y-94942465D01*
X121560513Y-94967780D01*
X121577597Y-94984323D01*
X121603768Y-94997156D01*
X121638725Y-95010491D01*
X121676904Y-95025007D01*
X121672359Y-94767389D01*
X121670529Y-94674519D01*
X121668388Y-94605889D01*
X121665319Y-94556711D01*
X121660706Y-94522198D01*
X121653932Y-94497562D01*
X121644381Y-94478016D01*
X121632866Y-94460770D01*
X121577310Y-94405680D01*
X121509520Y-94373822D01*
X121435787Y-94366191D01*
X121362407Y-94383780D01*
X121362407Y-94383780D01*
G37*
X121362407Y-94383780D02*
X121315828Y-94410723D01*
X121283443Y-94437466D01*
X121259758Y-94465484D01*
X121243441Y-94499748D01*
X121233161Y-94545227D01*
X121227586Y-94606892D01*
X121225384Y-94689711D01*
X121225129Y-94749246D01*
X121225129Y-94968391D01*
X121286814Y-94996044D01*
X121348500Y-95023697D01*
X121355757Y-94783670D01*
X121358756Y-94694028D01*
X121361902Y-94628962D01*
X121365799Y-94584026D01*
X121371053Y-94554770D01*
X121378269Y-94536748D01*
X121388050Y-94525511D01*
X121391188Y-94523079D01*
X121438739Y-94504083D01*
X121486803Y-94511600D01*
X121515414Y-94531543D01*
X121527053Y-94545675D01*
X121535109Y-94564220D01*
X121540229Y-94592334D01*
X121543059Y-94635173D01*
X121544244Y-94697895D01*
X121544443Y-94763261D01*
X121544482Y-94845268D01*
X121545886Y-94903316D01*
X121550586Y-94942465D01*
X121560513Y-94967780D01*
X121577597Y-94984323D01*
X121603768Y-94997156D01*
X121638725Y-95010491D01*
X121676904Y-95025007D01*
X121672359Y-94767389D01*
X121670529Y-94674519D01*
X121668388Y-94605889D01*
X121665319Y-94556711D01*
X121660706Y-94522198D01*
X121653932Y-94497562D01*
X121644381Y-94478016D01*
X121632866Y-94460770D01*
X121577310Y-94405680D01*
X121509520Y-94373822D01*
X121435787Y-94366191D01*
X121362407Y-94383780D01*
G36*
X122478756Y-94375918D02*
X122423299Y-94403568D01*
X122374352Y-94454480D01*
X122360871Y-94473338D01*
X122346186Y-94498015D01*
X122336658Y-94524816D01*
X122331207Y-94560587D01*
X122328753Y-94612169D01*
X122328214Y-94680267D01*
X122330648Y-94773588D01*
X122339106Y-94843657D01*
X122355326Y-94895931D01*
X122381046Y-94935869D01*
X122418003Y-94968929D01*
X122420718Y-94970886D01*
X122457140Y-94990908D01*
X122500998Y-95000815D01*
X122556776Y-95003257D01*
X122647452Y-95003257D01*
X122647490Y-95091283D01*
X122648334Y-95140308D01*
X122653476Y-95169065D01*
X122666913Y-95186311D01*
X122692642Y-95200808D01*
X122698821Y-95203769D01*
X122727736Y-95217648D01*
X122750124Y-95226414D01*
X122766771Y-95227171D01*
X122778464Y-95217023D01*
X122785990Y-95193073D01*
X122790134Y-95152426D01*
X122791685Y-95092186D01*
X122791429Y-95009455D01*
X122790151Y-94901339D01*
X122789752Y-94869000D01*
X122788315Y-94757524D01*
X122787028Y-94684603D01*
X122647529Y-94684603D01*
X122646745Y-94746499D01*
X122643260Y-94786997D01*
X122635376Y-94813708D01*
X122621395Y-94834244D01*
X122611903Y-94844260D01*
X122573096Y-94873567D01*
X122538737Y-94875952D01*
X122503284Y-94851750D01*
X122502386Y-94850857D01*
X122487961Y-94832153D01*
X122479187Y-94806732D01*
X122474761Y-94767584D01*
X122473382Y-94707697D01*
X122473357Y-94694430D01*
X122476688Y-94611901D01*
X122487531Y-94554691D01*
X122507160Y-94519766D01*
X122536850Y-94504094D01*
X122554009Y-94502514D01*
X122594734Y-94509926D01*
X122622668Y-94534330D01*
X122639483Y-94578980D01*
X122646850Y-94647130D01*
X122647529Y-94684603D01*
X122787028Y-94684603D01*
X122786792Y-94671245D01*
X122784823Y-94606333D01*
X122782050Y-94558958D01*
X122778112Y-94525290D01*
X122772651Y-94501498D01*
X122765308Y-94483753D01*
X122755723Y-94468224D01*
X122751613Y-94462381D01*
X122697095Y-94407185D01*
X122628164Y-94375890D01*
X122548428Y-94367165D01*
X122478756Y-94375918D01*
X122478756Y-94375918D01*
G37*
X122478756Y-94375918D02*
X122423299Y-94403568D01*
X122374352Y-94454480D01*
X122360871Y-94473338D01*
X122346186Y-94498015D01*
X122336658Y-94524816D01*
X122331207Y-94560587D01*
X122328753Y-94612169D01*
X122328214Y-94680267D01*
X122330648Y-94773588D01*
X122339106Y-94843657D01*
X122355326Y-94895931D01*
X122381046Y-94935869D01*
X122418003Y-94968929D01*
X122420718Y-94970886D01*
X122457140Y-94990908D01*
X122500998Y-95000815D01*
X122556776Y-95003257D01*
X122647452Y-95003257D01*
X122647490Y-95091283D01*
X122648334Y-95140308D01*
X122653476Y-95169065D01*
X122666913Y-95186311D01*
X122692642Y-95200808D01*
X122698821Y-95203769D01*
X122727736Y-95217648D01*
X122750124Y-95226414D01*
X122766771Y-95227171D01*
X122778464Y-95217023D01*
X122785990Y-95193073D01*
X122790134Y-95152426D01*
X122791685Y-95092186D01*
X122791429Y-95009455D01*
X122790151Y-94901339D01*
X122789752Y-94869000D01*
X122788315Y-94757524D01*
X122787028Y-94684603D01*
X122647529Y-94684603D01*
X122646745Y-94746499D01*
X122643260Y-94786997D01*
X122635376Y-94813708D01*
X122621395Y-94834244D01*
X122611903Y-94844260D01*
X122573096Y-94873567D01*
X122538737Y-94875952D01*
X122503284Y-94851750D01*
X122502386Y-94850857D01*
X122487961Y-94832153D01*
X122479187Y-94806732D01*
X122474761Y-94767584D01*
X122473382Y-94707697D01*
X122473357Y-94694430D01*
X122476688Y-94611901D01*
X122487531Y-94554691D01*
X122507160Y-94519766D01*
X122536850Y-94504094D01*
X122554009Y-94502514D01*
X122594734Y-94509926D01*
X122622668Y-94534330D01*
X122639483Y-94578980D01*
X122646850Y-94647130D01*
X122647529Y-94684603D01*
X122787028Y-94684603D01*
X122786792Y-94671245D01*
X122784823Y-94606333D01*
X122782050Y-94558958D01*
X122778112Y-94525290D01*
X122772651Y-94501498D01*
X122765308Y-94483753D01*
X122755723Y-94468224D01*
X122751613Y-94462381D01*
X122697095Y-94407185D01*
X122628164Y-94375890D01*
X122548428Y-94367165D01*
X122478756Y-94375918D01*
G04 #@! TD*
D12*
G04 #@! TO.N,VCC*
X146558000Y-111887000D03*
X145669000Y-112395000D03*
X141224000Y-112141000D03*
X146812000Y-104267000D03*
X145923000Y-104775000D03*
X141224000Y-104521000D03*
G04 #@! TO.N,GND*
X146304000Y-97917000D03*
G04 #@! TO.N,VCC*
X146304000Y-98933000D03*
X141224000Y-98933000D03*
G04 #@! TD*
D13*
G04 #@! TO.N,GND*
G36*
X119434612Y-88873000D02*
X148971000Y-88873000D01*
X148971000Y-91821000D01*
X148980667Y-91869601D01*
X149008197Y-91910803D01*
X149049399Y-91938333D01*
X149098000Y-91948000D01*
X161698000Y-91948000D01*
X161698001Y-113692000D01*
X116051000Y-113692000D01*
X116051000Y-111935126D01*
X140189000Y-111935126D01*
X140189000Y-112346874D01*
X140346569Y-112727280D01*
X140637720Y-113018431D01*
X141018126Y-113176000D01*
X141429874Y-113176000D01*
X141810280Y-113018431D01*
X142101431Y-112727280D01*
X142259000Y-112346874D01*
X142259000Y-112189126D01*
X144634000Y-112189126D01*
X144634000Y-112600874D01*
X144791569Y-112981280D01*
X145082720Y-113272431D01*
X145463126Y-113430000D01*
X145874874Y-113430000D01*
X146255280Y-113272431D01*
X146546431Y-112981280D01*
X146570986Y-112922000D01*
X146763874Y-112922000D01*
X147144280Y-112764431D01*
X147435431Y-112473280D01*
X147593000Y-112092874D01*
X147593000Y-111681126D01*
X147435431Y-111300720D01*
X147144280Y-111009569D01*
X146763874Y-110852000D01*
X146352126Y-110852000D01*
X145971720Y-111009569D01*
X145680569Y-111300720D01*
X145656014Y-111360000D01*
X145463126Y-111360000D01*
X145082720Y-111517569D01*
X144791569Y-111808720D01*
X144634000Y-112189126D01*
X142259000Y-112189126D01*
X142259000Y-111935126D01*
X142101431Y-111554720D01*
X141810280Y-111263569D01*
X141429874Y-111106000D01*
X141018126Y-111106000D01*
X140637720Y-111263569D01*
X140346569Y-111554720D01*
X140189000Y-111935126D01*
X116051000Y-111935126D01*
X116051000Y-104315126D01*
X140189000Y-104315126D01*
X140189000Y-104726874D01*
X140346569Y-105107280D01*
X140637720Y-105398431D01*
X141018126Y-105556000D01*
X141429874Y-105556000D01*
X141810280Y-105398431D01*
X142101431Y-105107280D01*
X142259000Y-104726874D01*
X142259000Y-104569126D01*
X144888000Y-104569126D01*
X144888000Y-104980874D01*
X145045569Y-105361280D01*
X145336720Y-105652431D01*
X145717126Y-105810000D01*
X146128874Y-105810000D01*
X146509280Y-105652431D01*
X146800431Y-105361280D01*
X146824986Y-105302000D01*
X147017874Y-105302000D01*
X147398280Y-105144431D01*
X147689431Y-104853280D01*
X147847000Y-104472874D01*
X147847000Y-104061126D01*
X147689431Y-103680720D01*
X147398280Y-103389569D01*
X147017874Y-103232000D01*
X146606126Y-103232000D01*
X146225720Y-103389569D01*
X145934569Y-103680720D01*
X145910014Y-103740000D01*
X145717126Y-103740000D01*
X145336720Y-103897569D01*
X145045569Y-104188720D01*
X144888000Y-104569126D01*
X142259000Y-104569126D01*
X142259000Y-104315126D01*
X142101431Y-103934720D01*
X141810280Y-103643569D01*
X141429874Y-103486000D01*
X141018126Y-103486000D01*
X140637720Y-103643569D01*
X140346569Y-103934720D01*
X140189000Y-104315126D01*
X116051000Y-104315126D01*
X116051000Y-98727126D01*
X140189000Y-98727126D01*
X140189000Y-99138874D01*
X140346569Y-99519280D01*
X140637720Y-99810431D01*
X141018126Y-99968000D01*
X141429874Y-99968000D01*
X141810280Y-99810431D01*
X142101431Y-99519280D01*
X142259000Y-99138874D01*
X142259000Y-98727126D01*
X145269000Y-98727126D01*
X145269000Y-99138874D01*
X145426569Y-99519280D01*
X145717720Y-99810431D01*
X146098126Y-99968000D01*
X146509874Y-99968000D01*
X146890280Y-99810431D01*
X147181431Y-99519280D01*
X147339000Y-99138874D01*
X147339000Y-98727126D01*
X147181431Y-98346720D01*
X146890280Y-98055569D01*
X146509874Y-97898000D01*
X146098126Y-97898000D01*
X145717720Y-98055569D01*
X145426569Y-98346720D01*
X145269000Y-98727126D01*
X142259000Y-98727126D01*
X142101431Y-98346720D01*
X141810280Y-98055569D01*
X141429874Y-97898000D01*
X141018126Y-97898000D01*
X140637720Y-98055569D01*
X140346569Y-98346720D01*
X140189000Y-98727126D01*
X116051000Y-98727126D01*
X116051000Y-94751779D01*
X116172786Y-94751779D01*
X116172786Y-94813966D01*
X116178502Y-94842702D01*
X116175408Y-94871834D01*
X116179250Y-94914151D01*
X116207101Y-95008551D01*
X116211981Y-95032295D01*
X116213746Y-95058586D01*
X116219969Y-95071155D01*
X116226919Y-95104967D01*
X116241968Y-95140652D01*
X116249242Y-95151390D01*
X116249912Y-95153660D01*
X116255285Y-95160310D01*
X116288070Y-95208704D01*
X116324544Y-95282375D01*
X116356087Y-95323349D01*
X116372173Y-95337412D01*
X116382892Y-95355891D01*
X116387580Y-95361215D01*
X116399024Y-95369960D01*
X116406796Y-95382087D01*
X116441882Y-95418540D01*
X116502114Y-95460472D01*
X116554707Y-95511652D01*
X116584865Y-95531215D01*
X116628965Y-95548782D01*
X116646825Y-95561216D01*
X116667634Y-95565770D01*
X116671587Y-95568986D01*
X116697096Y-95576606D01*
X116784663Y-95616819D01*
X116822396Y-95625819D01*
X116867556Y-95627527D01*
X116910854Y-95640461D01*
X116942135Y-95643408D01*
X116968162Y-95640733D01*
X116993758Y-95646175D01*
X117049708Y-95646910D01*
X117126082Y-95632758D01*
X117152138Y-95631894D01*
X117171199Y-95633454D01*
X117178801Y-95631010D01*
X117203710Y-95630184D01*
X117243540Y-95620879D01*
X117280380Y-95604168D01*
X117295244Y-95601414D01*
X117307735Y-95593303D01*
X117328551Y-95582866D01*
X117379740Y-95566408D01*
X117382329Y-95568264D01*
X117387751Y-95569529D01*
X117396194Y-95575609D01*
X117397067Y-95576007D01*
X117405854Y-95578077D01*
X117413324Y-95583148D01*
X117442443Y-95595459D01*
X117472701Y-95601708D01*
X117499805Y-95616544D01*
X117514230Y-95621077D01*
X117560389Y-95626088D01*
X117603895Y-95642301D01*
X117659560Y-95640298D01*
X117686997Y-95645964D01*
X117707449Y-95642051D01*
X117762486Y-95648025D01*
X117797514Y-95637779D01*
X117822180Y-95637912D01*
X117861169Y-95645964D01*
X117881621Y-95642051D01*
X117936658Y-95648025D01*
X117946410Y-95645173D01*
X117956999Y-95647789D01*
X117996858Y-95649619D01*
X118049359Y-95641659D01*
X118069777Y-95643001D01*
X118082875Y-95638557D01*
X118145140Y-95639145D01*
X118216866Y-95625580D01*
X118240134Y-95616198D01*
X118258863Y-95619553D01*
X118265393Y-95622847D01*
X118285220Y-95624326D01*
X118399493Y-95646892D01*
X118405149Y-95645759D01*
X118410826Y-95646776D01*
X118448801Y-95646051D01*
X118481268Y-95638946D01*
X118514416Y-95641418D01*
X118526911Y-95639887D01*
X118547574Y-95637531D01*
X118553121Y-95638096D01*
X118563893Y-95639435D01*
X118578648Y-95638360D01*
X118592885Y-95642369D01*
X118636501Y-95645783D01*
X118739659Y-95633529D01*
X118843398Y-95628190D01*
X118872710Y-95620776D01*
X118880556Y-95617043D01*
X118887570Y-95616494D01*
X118913677Y-95626858D01*
X118982928Y-95639571D01*
X119093643Y-95637933D01*
X119204318Y-95641279D01*
X119273663Y-95629652D01*
X119363865Y-95595445D01*
X119381780Y-95590446D01*
X119399679Y-95588542D01*
X119411316Y-95582205D01*
X119456795Y-95569515D01*
X119457757Y-95569028D01*
X119465136Y-95572524D01*
X119489624Y-95578674D01*
X119511002Y-95592102D01*
X119543262Y-95604410D01*
X119587996Y-95612003D01*
X119598749Y-95616617D01*
X119601243Y-95616649D01*
X119637536Y-95632296D01*
X119656527Y-95636358D01*
X119711249Y-95637144D01*
X119764447Y-95649988D01*
X119789036Y-95646126D01*
X119789456Y-95646197D01*
X119791382Y-95645757D01*
X119834901Y-95638921D01*
X119878427Y-95639547D01*
X119903076Y-95647118D01*
X119903968Y-95647209D01*
X119946141Y-95643204D01*
X119987471Y-95650127D01*
X120024943Y-95641482D01*
X120028887Y-95641665D01*
X120052270Y-95647051D01*
X120102705Y-95648567D01*
X120133087Y-95643467D01*
X120137754Y-95643901D01*
X120146351Y-95641241D01*
X120155323Y-95639735D01*
X120208578Y-95642964D01*
X120260518Y-95635867D01*
X120295839Y-95623684D01*
X120304778Y-95626217D01*
X120353028Y-95630076D01*
X120398452Y-95645322D01*
X120411095Y-95644450D01*
X120423317Y-95648016D01*
X120423841Y-95648062D01*
X120486155Y-95641256D01*
X120506511Y-95643833D01*
X120510701Y-95642688D01*
X120553699Y-95646127D01*
X120598946Y-95631489D01*
X120647575Y-95628134D01*
X120647642Y-95628101D01*
X120682259Y-95630869D01*
X120737670Y-95647557D01*
X120740190Y-95647304D01*
X120742631Y-95648016D01*
X120743155Y-95648062D01*
X120805469Y-95641256D01*
X120825825Y-95643833D01*
X120830015Y-95642688D01*
X120873013Y-95646127D01*
X120927608Y-95628465D01*
X120986134Y-95622582D01*
X120988606Y-95621255D01*
X120991394Y-95620950D01*
X121047562Y-95590157D01*
X121086699Y-95607701D01*
X121208129Y-95635503D01*
X121329159Y-95663405D01*
X121329641Y-95663324D01*
X121330116Y-95663433D01*
X121452800Y-95642674D01*
X121508962Y-95633257D01*
X121568979Y-95643373D01*
X121688193Y-95664907D01*
X121691927Y-95664096D01*
X121695697Y-95664731D01*
X121813759Y-95637620D01*
X121857134Y-95628194D01*
X121899201Y-95632855D01*
X122006846Y-95650304D01*
X122077673Y-95647778D01*
X122189370Y-95621389D01*
X122206113Y-95617997D01*
X122214463Y-95625167D01*
X122216254Y-95628189D01*
X122229874Y-95638398D01*
X122253400Y-95658598D01*
X122287650Y-95694203D01*
X122301789Y-95700384D01*
X122351018Y-95742917D01*
X122351977Y-95743235D01*
X122352744Y-95743893D01*
X122378473Y-95758390D01*
X122398882Y-95765080D01*
X122416068Y-95777962D01*
X122421876Y-95780745D01*
X122450791Y-95794624D01*
X122469836Y-95799511D01*
X122478600Y-95805961D01*
X122484900Y-95807515D01*
X122494394Y-95813594D01*
X122516782Y-95822360D01*
X122619623Y-95840739D01*
X122721051Y-95865753D01*
X122737698Y-95866510D01*
X122751812Y-95864364D01*
X122762602Y-95866292D01*
X122815712Y-95854647D01*
X122824124Y-95853368D01*
X122834859Y-95854533D01*
X122854552Y-95848772D01*
X122969356Y-95834262D01*
X122976475Y-95830201D01*
X122984575Y-95828969D01*
X123043042Y-95793635D01*
X123074531Y-95784424D01*
X123118013Y-95749456D01*
X123186259Y-95710524D01*
X123197952Y-95700376D01*
X123229288Y-95659972D01*
X123256873Y-95637789D01*
X123335310Y-95621601D01*
X123363444Y-95609710D01*
X123367741Y-95609607D01*
X123403782Y-95593651D01*
X123465945Y-95579621D01*
X123487804Y-95569903D01*
X123531457Y-95539088D01*
X123533211Y-95538683D01*
X123535703Y-95536906D01*
X123565325Y-95524386D01*
X123569261Y-95520393D01*
X123596081Y-95508520D01*
X123638648Y-95478571D01*
X123682764Y-95432279D01*
X123691811Y-95425892D01*
X123692186Y-95425299D01*
X123736515Y-95393682D01*
X123773873Y-95353973D01*
X123794568Y-95320857D01*
X123796838Y-95319198D01*
X123801142Y-95312129D01*
X123831762Y-95282854D01*
X123835293Y-95277817D01*
X123845424Y-95254831D01*
X123862183Y-95236116D01*
X123876534Y-95211843D01*
X123894271Y-95161316D01*
X123906212Y-95142208D01*
X123906825Y-95138546D01*
X123926698Y-95105905D01*
X123936185Y-95079959D01*
X123945455Y-95020314D01*
X123966662Y-94963798D01*
X123972266Y-94929642D01*
X123971096Y-94894963D01*
X123979734Y-94861356D01*
X123982438Y-94812452D01*
X123980426Y-94798291D01*
X123983374Y-94784295D01*
X123984161Y-94714112D01*
X123983538Y-94710784D01*
X123984201Y-94707464D01*
X123984214Y-94691729D01*
X123983706Y-94689164D01*
X123984197Y-94686599D01*
X123984161Y-94681591D01*
X123984159Y-94681581D01*
X123984161Y-94681570D01*
X123983657Y-94611791D01*
X123981278Y-94600267D01*
X123983071Y-94588636D01*
X123980801Y-94536383D01*
X123973653Y-94507145D01*
X123975455Y-94477098D01*
X123970483Y-94440887D01*
X123951872Y-94387044D01*
X123945203Y-94330470D01*
X123936558Y-94303820D01*
X123905271Y-94247890D01*
X123885293Y-94186994D01*
X123872001Y-94163417D01*
X123855732Y-94144478D01*
X123846147Y-94121427D01*
X123843209Y-94117044D01*
X123819044Y-94092945D01*
X123802690Y-94062986D01*
X123753320Y-94003898D01*
X123677032Y-93942406D01*
X123606274Y-93874616D01*
X123552478Y-93840314D01*
X123444925Y-93798440D01*
X123338661Y-93753345D01*
X123273169Y-93739729D01*
X123216893Y-93739243D01*
X123162055Y-93726618D01*
X123139815Y-93725952D01*
X123083847Y-93735353D01*
X123027162Y-93732531D01*
X122943890Y-93744828D01*
X122842630Y-93780985D01*
X122841821Y-93781225D01*
X122794255Y-93770096D01*
X122697780Y-93739687D01*
X122618044Y-93730962D01*
X122543393Y-93737500D01*
X122468651Y-93732157D01*
X122464843Y-93732635D01*
X122485959Y-93680318D01*
X122519488Y-93630048D01*
X122532242Y-93565651D01*
X122556810Y-93504781D01*
X122556262Y-93444363D01*
X122568001Y-93385089D01*
X122555140Y-93320714D01*
X122554545Y-93255075D01*
X122530918Y-93199466D01*
X122519080Y-93140212D01*
X122482563Y-93085659D01*
X122456894Y-93025245D01*
X122408168Y-92953734D01*
X122409206Y-92953737D01*
X122418423Y-92951934D01*
X122418932Y-92951725D01*
X122419486Y-92951726D01*
X122495686Y-92936686D01*
X122554392Y-92912471D01*
X122616674Y-92900082D01*
X122668695Y-92865323D01*
X122726534Y-92841465D01*
X122771504Y-92796627D01*
X122824305Y-92761347D01*
X122859065Y-92709325D01*
X122903371Y-92665150D01*
X122927759Y-92606518D01*
X122963040Y-92553716D01*
X122975246Y-92492351D01*
X122999274Y-92434585D01*
X122999368Y-92371084D01*
X123011757Y-92308799D01*
X123011757Y-91991492D01*
X123011653Y-91990967D01*
X123011756Y-91990443D01*
X123011585Y-91886105D01*
X123011120Y-91883788D01*
X123011561Y-91881463D01*
X123010859Y-91802522D01*
X123009687Y-91796894D01*
X123010659Y-91791227D01*
X123009141Y-91734052D01*
X123006242Y-91721264D01*
X123007935Y-91708263D01*
X123005320Y-91669225D01*
X122997357Y-91639675D01*
X122998423Y-91609089D01*
X122994426Y-91584555D01*
X122968453Y-91515098D01*
X122953963Y-91442368D01*
X122948300Y-91428709D01*
X122933834Y-91407073D01*
X122933506Y-91405640D01*
X122932622Y-91404395D01*
X122925450Y-91379580D01*
X122911022Y-91361519D01*
X122906961Y-91350659D01*
X122890585Y-91333100D01*
X122886881Y-91323513D01*
X122857008Y-91292170D01*
X122809503Y-91221120D01*
X122796025Y-91212120D01*
X122788883Y-91202067D01*
X122778379Y-91195475D01*
X122769592Y-91184476D01*
X122761980Y-91178059D01*
X122733030Y-91162091D01*
X122714595Y-91142748D01*
X122647968Y-91113257D01*
X122601829Y-91082448D01*
X122596610Y-91081411D01*
X122577365Y-91069335D01*
X122574242Y-91068145D01*
X122557607Y-91065329D01*
X122543323Y-91057450D01*
X122514643Y-91054243D01*
X122486249Y-91041675D01*
X122467414Y-91037456D01*
X122460661Y-91037294D01*
X122454428Y-91034688D01*
X122412818Y-91026270D01*
X122410992Y-91026264D01*
X122409305Y-91025570D01*
X122403260Y-91024382D01*
X122406694Y-91020612D01*
X122435596Y-90972655D01*
X122443668Y-90950267D01*
X122458357Y-90931545D01*
X122475321Y-90898061D01*
X122490270Y-90844586D01*
X122516528Y-90795665D01*
X122523251Y-90773641D01*
X122524452Y-90761664D01*
X122529748Y-90750854D01*
X122533608Y-90689556D01*
X122542551Y-90657566D01*
X122542027Y-90653221D01*
X122545546Y-90642010D01*
X122541273Y-90593862D01*
X122548159Y-90525171D01*
X122545588Y-90516641D01*
X122546210Y-90510302D01*
X122545122Y-90506718D01*
X122545442Y-90501632D01*
X122543618Y-90488054D01*
X122527775Y-90441773D01*
X122523471Y-90393272D01*
X122497001Y-90342579D01*
X122495827Y-90335062D01*
X122490189Y-90325817D01*
X122473652Y-90271360D01*
X122473606Y-90271274D01*
X122466412Y-90262513D01*
X122462744Y-90251798D01*
X122430499Y-90215220D01*
X122407888Y-90171916D01*
X122393539Y-90154082D01*
X122377020Y-90140256D01*
X122365805Y-90121867D01*
X122334068Y-90087387D01*
X122328431Y-90083273D01*
X122324671Y-90077395D01*
X122278984Y-90029846D01*
X122275658Y-90027526D01*
X122273430Y-90024137D01*
X122217236Y-89967091D01*
X122214573Y-89965282D01*
X122212778Y-89962610D01*
X122149514Y-89899643D01*
X122148120Y-89898716D01*
X122147180Y-89897332D01*
X122140047Y-89890304D01*
X122137709Y-89888767D01*
X122136119Y-89886468D01*
X122056391Y-89809261D01*
X122049600Y-89804879D01*
X122044839Y-89798349D01*
X121983312Y-89741659D01*
X121969823Y-89733423D01*
X121959903Y-89721121D01*
X121915339Y-89683900D01*
X121881835Y-89665619D01*
X121854545Y-89638945D01*
X121825710Y-89620150D01*
X121723147Y-89579032D01*
X121696132Y-89564292D01*
X121685576Y-89563160D01*
X121632188Y-89536509D01*
X121615138Y-89535308D01*
X121596318Y-89527680D01*
X121583617Y-89525254D01*
X121483226Y-89526018D01*
X121383089Y-89518966D01*
X121359149Y-89526963D01*
X121333909Y-89527155D01*
X121241463Y-89566275D01*
X121146239Y-89598084D01*
X121127703Y-89608666D01*
X121116087Y-89618754D01*
X121101746Y-89624312D01*
X121063279Y-89648757D01*
X121059889Y-89651994D01*
X121055539Y-89653753D01*
X121043842Y-89661425D01*
X121038556Y-89634231D01*
X121037113Y-89630704D01*
X121037085Y-89626895D01*
X121031917Y-89601873D01*
X121028406Y-89593569D01*
X121028090Y-89584558D01*
X121028000Y-89584176D01*
X121021566Y-89570064D01*
X121020775Y-89557182D01*
X121019228Y-89554013D01*
X121018825Y-89549592D01*
X121015679Y-89538948D01*
X120997933Y-89505163D01*
X120995046Y-89487543D01*
X120959002Y-89429423D01*
X120934668Y-89371872D01*
X120928398Y-89365694D01*
X120924416Y-89356958D01*
X120921911Y-89354622D01*
X120911245Y-89332770D01*
X120905130Y-89324732D01*
X120901454Y-89321481D01*
X120899559Y-89317874D01*
X120879421Y-89301102D01*
X120863435Y-89275325D01*
X120787812Y-89220996D01*
X120718058Y-89159318D01*
X120687165Y-89148690D01*
X120660630Y-89129627D01*
X120647881Y-89123832D01*
X120567493Y-89104986D01*
X120490362Y-89075528D01*
X120467315Y-89071608D01*
X120433906Y-89072540D01*
X120401623Y-89063902D01*
X120364614Y-89061490D01*
X120351134Y-89063270D01*
X120337864Y-89060308D01*
X120283229Y-89059038D01*
X120277859Y-89059977D01*
X120272521Y-89058879D01*
X120196597Y-89058385D01*
X120194785Y-89058733D01*
X120192972Y-89058371D01*
X120092095Y-89058286D01*
X120091825Y-89058339D01*
X120091556Y-89058286D01*
X120078500Y-89058286D01*
X120078309Y-89058324D01*
X120078118Y-89058286D01*
X119974208Y-89058348D01*
X119972647Y-89058660D01*
X119971086Y-89058358D01*
X119892542Y-89058788D01*
X119887756Y-89059767D01*
X119882943Y-89058912D01*
X119826099Y-89060076D01*
X119814091Y-89062721D01*
X119801911Y-89061029D01*
X119763104Y-89063294D01*
X119733889Y-89070899D01*
X119703735Y-89069549D01*
X119679301Y-89073282D01*
X119608944Y-89098802D01*
X119535429Y-89112860D01*
X119521704Y-89118426D01*
X119499341Y-89133130D01*
X119473563Y-89140309D01*
X119455485Y-89154465D01*
X119444552Y-89158430D01*
X119409557Y-89190426D01*
X119404477Y-89194404D01*
X119400733Y-89195919D01*
X119394453Y-89202097D01*
X119313053Y-89255620D01*
X119298022Y-89277759D01*
X119276949Y-89294259D01*
X119270271Y-89302026D01*
X119268885Y-89304483D01*
X119266681Y-89306239D01*
X119246818Y-89342156D01*
X119234167Y-89353871D01*
X119229196Y-89364679D01*
X119222722Y-89371048D01*
X119202852Y-89417933D01*
X119172785Y-89462218D01*
X119168695Y-89482011D01*
X119147539Y-89519499D01*
X119147199Y-89522295D01*
X119145833Y-89524765D01*
X119142537Y-89535097D01*
X119139844Y-89558940D01*
X119129818Y-89580739D01*
X119129498Y-89582077D01*
X119129120Y-89591909D01*
X119125281Y-89600968D01*
X119120275Y-89625104D01*
X119120242Y-89629118D01*
X119118722Y-89632832D01*
X119113153Y-89661452D01*
X119109857Y-89660112D01*
X119106990Y-89657350D01*
X119064601Y-89630157D01*
X119054635Y-89626245D01*
X119046682Y-89619073D01*
X119023334Y-89605158D01*
X119016514Y-89602737D01*
X119011981Y-89598783D01*
X118987313Y-89590482D01*
X118965762Y-89574703D01*
X118963546Y-89573671D01*
X118871109Y-89551118D01*
X118788007Y-89521616D01*
X118783364Y-89521856D01*
X118775305Y-89519144D01*
X118747763Y-89521023D01*
X118720947Y-89514480D01*
X118624024Y-89529464D01*
X118586847Y-89532001D01*
X118568430Y-89532951D01*
X118538224Y-89533598D01*
X118533593Y-89535634D01*
X118526169Y-89536140D01*
X118509201Y-89540735D01*
X118490242Y-89550147D01*
X118474163Y-89552633D01*
X118424764Y-89582654D01*
X118410494Y-89589739D01*
X118309616Y-89634077D01*
X118277924Y-89656248D01*
X118256103Y-89679024D01*
X118228596Y-89694470D01*
X118180946Y-89735262D01*
X118172430Y-89746090D01*
X118160715Y-89753338D01*
X118095869Y-89813796D01*
X118091945Y-89819246D01*
X118086308Y-89822896D01*
X118020109Y-89887218D01*
X118018078Y-89890165D01*
X118015094Y-89892144D01*
X117951277Y-89955529D01*
X117949512Y-89958151D01*
X117946896Y-89959923D01*
X117889781Y-90017762D01*
X117887635Y-90021018D01*
X117884433Y-90023243D01*
X117837458Y-90071967D01*
X117833992Y-90077364D01*
X117828798Y-90081128D01*
X117795400Y-90117163D01*
X117785955Y-90132530D01*
X117771956Y-90143911D01*
X117755575Y-90163685D01*
X117732192Y-90206949D01*
X117699191Y-90243421D01*
X117698583Y-90244439D01*
X117697077Y-90248659D01*
X117694118Y-90252021D01*
X117683391Y-90283439D01*
X117680331Y-90287199D01*
X117670332Y-90320657D01*
X117664645Y-90329909D01*
X117664188Y-90332768D01*
X117636841Y-90383366D01*
X117631894Y-90431319D01*
X117614654Y-90479628D01*
X117614878Y-90484101D01*
X117613430Y-90488341D01*
X117611619Y-90501911D01*
X117612418Y-90514434D01*
X117608824Y-90526458D01*
X117615434Y-90590853D01*
X117611213Y-90631764D01*
X117615979Y-90647740D01*
X117614730Y-90658182D01*
X117623598Y-90689770D01*
X117627510Y-90751120D01*
X117633041Y-90762386D01*
X117634322Y-90774868D01*
X117641143Y-90797029D01*
X117667327Y-90845535D01*
X117682225Y-90898603D01*
X117699368Y-90932348D01*
X117713935Y-90950872D01*
X117721936Y-90973037D01*
X117751083Y-91021359D01*
X117753840Y-91024383D01*
X117727189Y-91029668D01*
X117724628Y-91030727D01*
X117721855Y-91030749D01*
X117688907Y-91037574D01*
X117679900Y-91041389D01*
X117670126Y-91041760D01*
X117662045Y-91043689D01*
X117645119Y-91051465D01*
X117640563Y-91051735D01*
X117577947Y-91082123D01*
X117493480Y-91110315D01*
X117485132Y-91115078D01*
X117465341Y-91132256D01*
X117458963Y-91134957D01*
X117455306Y-91138672D01*
X117435132Y-91147941D01*
X117429253Y-91154285D01*
X117415906Y-91160762D01*
X117360056Y-91223641D01*
X117296547Y-91278764D01*
X117285087Y-91301706D01*
X117272095Y-91314119D01*
X117264600Y-91331108D01*
X117250073Y-91347463D01*
X117243772Y-91358220D01*
X117229868Y-91398345D01*
X117224784Y-91404635D01*
X117211941Y-91448143D01*
X117184958Y-91502161D01*
X117184161Y-91513436D01*
X117171300Y-91542588D01*
X117166761Y-91562967D01*
X117166334Y-91581691D01*
X117162010Y-91594170D01*
X117163150Y-91613425D01*
X117154085Y-91644133D01*
X117151026Y-91677769D01*
X117152869Y-91695149D01*
X117148831Y-91712150D01*
X117146968Y-91762671D01*
X117148181Y-91770213D01*
X117146590Y-91777688D01*
X117145639Y-91848725D01*
X117146232Y-91851932D01*
X117145586Y-91855126D01*
X117145264Y-91950311D01*
X117145448Y-91951253D01*
X117145260Y-91952197D01*
X117145243Y-91991213D01*
X117145271Y-91991353D01*
X117145243Y-91991492D01*
X117145243Y-92308799D01*
X117157632Y-92371082D01*
X117157726Y-92434585D01*
X117181754Y-92492351D01*
X117193960Y-92553716D01*
X117229241Y-92606518D01*
X117253629Y-92665150D01*
X117297935Y-92709325D01*
X117332695Y-92761347D01*
X117385496Y-92796627D01*
X117430466Y-92841465D01*
X117488305Y-92865323D01*
X117540326Y-92900082D01*
X117602608Y-92912471D01*
X117661314Y-92936686D01*
X117737514Y-92951726D01*
X117739082Y-92951724D01*
X117740533Y-92952314D01*
X117748850Y-92953914D01*
X117699876Y-93025952D01*
X117674402Y-93086084D01*
X117638070Y-93140360D01*
X117626167Y-93199942D01*
X117602467Y-93255885D01*
X117601943Y-93321194D01*
X117589149Y-93385237D01*
X117600952Y-93444836D01*
X117600465Y-93505593D01*
X117624973Y-93566130D01*
X117637661Y-93630195D01*
X117671374Y-93680742D01*
X117694174Y-93737059D01*
X117739981Y-93783606D01*
X117752262Y-93802020D01*
X117694688Y-93792770D01*
X117607288Y-93768749D01*
X117537547Y-93763728D01*
X117454260Y-93774149D01*
X117370326Y-93773669D01*
X117304636Y-93786345D01*
X117265746Y-93802194D01*
X117180927Y-93788618D01*
X117077085Y-93765652D01*
X117006665Y-93764151D01*
X116914622Y-93780429D01*
X116821422Y-93787442D01*
X116753300Y-93806401D01*
X116665758Y-93850628D01*
X116574775Y-93887234D01*
X116517349Y-93924765D01*
X116448405Y-93992320D01*
X116373647Y-94053397D01*
X116345949Y-94086996D01*
X116339463Y-94099067D01*
X116338986Y-94099534D01*
X116338120Y-94101566D01*
X116294094Y-94183499D01*
X116237596Y-94277363D01*
X116215653Y-94338331D01*
X116200991Y-94435919D01*
X116178255Y-94531957D01*
X116176512Y-94580201D01*
X116181529Y-94611245D01*
X116177290Y-94642404D01*
X116181238Y-94706912D01*
X116181507Y-94707934D01*
X116172786Y-94751779D01*
X116051000Y-94751779D01*
X116051000Y-92256612D01*
X116041289Y-92207792D01*
X116095634Y-91653535D01*
X116291805Y-91003789D01*
X116610435Y-90404531D01*
X117039400Y-89878568D01*
X117562357Y-89445941D01*
X118159382Y-89123132D01*
X118807727Y-88922435D01*
X119380492Y-88862235D01*
X119434612Y-88873000D01*
X119434612Y-88873000D01*
G37*
X119434612Y-88873000D02*
X148971000Y-88873000D01*
X148971000Y-91821000D01*
X148980667Y-91869601D01*
X149008197Y-91910803D01*
X149049399Y-91938333D01*
X149098000Y-91948000D01*
X161698000Y-91948000D01*
X161698001Y-113692000D01*
X116051000Y-113692000D01*
X116051000Y-111935126D01*
X140189000Y-111935126D01*
X140189000Y-112346874D01*
X140346569Y-112727280D01*
X140637720Y-113018431D01*
X141018126Y-113176000D01*
X141429874Y-113176000D01*
X141810280Y-113018431D01*
X142101431Y-112727280D01*
X142259000Y-112346874D01*
X142259000Y-112189126D01*
X144634000Y-112189126D01*
X144634000Y-112600874D01*
X144791569Y-112981280D01*
X145082720Y-113272431D01*
X145463126Y-113430000D01*
X145874874Y-113430000D01*
X146255280Y-113272431D01*
X146546431Y-112981280D01*
X146570986Y-112922000D01*
X146763874Y-112922000D01*
X147144280Y-112764431D01*
X147435431Y-112473280D01*
X147593000Y-112092874D01*
X147593000Y-111681126D01*
X147435431Y-111300720D01*
X147144280Y-111009569D01*
X146763874Y-110852000D01*
X146352126Y-110852000D01*
X145971720Y-111009569D01*
X145680569Y-111300720D01*
X145656014Y-111360000D01*
X145463126Y-111360000D01*
X145082720Y-111517569D01*
X144791569Y-111808720D01*
X144634000Y-112189126D01*
X142259000Y-112189126D01*
X142259000Y-111935126D01*
X142101431Y-111554720D01*
X141810280Y-111263569D01*
X141429874Y-111106000D01*
X141018126Y-111106000D01*
X140637720Y-111263569D01*
X140346569Y-111554720D01*
X140189000Y-111935126D01*
X116051000Y-111935126D01*
X116051000Y-104315126D01*
X140189000Y-104315126D01*
X140189000Y-104726874D01*
X140346569Y-105107280D01*
X140637720Y-105398431D01*
X141018126Y-105556000D01*
X141429874Y-105556000D01*
X141810280Y-105398431D01*
X142101431Y-105107280D01*
X142259000Y-104726874D01*
X142259000Y-104569126D01*
X144888000Y-104569126D01*
X144888000Y-104980874D01*
X145045569Y-105361280D01*
X145336720Y-105652431D01*
X145717126Y-105810000D01*
X146128874Y-105810000D01*
X146509280Y-105652431D01*
X146800431Y-105361280D01*
X146824986Y-105302000D01*
X147017874Y-105302000D01*
X147398280Y-105144431D01*
X147689431Y-104853280D01*
X147847000Y-104472874D01*
X147847000Y-104061126D01*
X147689431Y-103680720D01*
X147398280Y-103389569D01*
X147017874Y-103232000D01*
X146606126Y-103232000D01*
X146225720Y-103389569D01*
X145934569Y-103680720D01*
X145910014Y-103740000D01*
X145717126Y-103740000D01*
X145336720Y-103897569D01*
X145045569Y-104188720D01*
X144888000Y-104569126D01*
X142259000Y-104569126D01*
X142259000Y-104315126D01*
X142101431Y-103934720D01*
X141810280Y-103643569D01*
X141429874Y-103486000D01*
X141018126Y-103486000D01*
X140637720Y-103643569D01*
X140346569Y-103934720D01*
X140189000Y-104315126D01*
X116051000Y-104315126D01*
X116051000Y-98727126D01*
X140189000Y-98727126D01*
X140189000Y-99138874D01*
X140346569Y-99519280D01*
X140637720Y-99810431D01*
X141018126Y-99968000D01*
X141429874Y-99968000D01*
X141810280Y-99810431D01*
X142101431Y-99519280D01*
X142259000Y-99138874D01*
X142259000Y-98727126D01*
X145269000Y-98727126D01*
X145269000Y-99138874D01*
X145426569Y-99519280D01*
X145717720Y-99810431D01*
X146098126Y-99968000D01*
X146509874Y-99968000D01*
X146890280Y-99810431D01*
X147181431Y-99519280D01*
X147339000Y-99138874D01*
X147339000Y-98727126D01*
X147181431Y-98346720D01*
X146890280Y-98055569D01*
X146509874Y-97898000D01*
X146098126Y-97898000D01*
X145717720Y-98055569D01*
X145426569Y-98346720D01*
X145269000Y-98727126D01*
X142259000Y-98727126D01*
X142101431Y-98346720D01*
X141810280Y-98055569D01*
X141429874Y-97898000D01*
X141018126Y-97898000D01*
X140637720Y-98055569D01*
X140346569Y-98346720D01*
X140189000Y-98727126D01*
X116051000Y-98727126D01*
X116051000Y-94751779D01*
X116172786Y-94751779D01*
X116172786Y-94813966D01*
X116178502Y-94842702D01*
X116175408Y-94871834D01*
X116179250Y-94914151D01*
X116207101Y-95008551D01*
X116211981Y-95032295D01*
X116213746Y-95058586D01*
X116219969Y-95071155D01*
X116226919Y-95104967D01*
X116241968Y-95140652D01*
X116249242Y-95151390D01*
X116249912Y-95153660D01*
X116255285Y-95160310D01*
X116288070Y-95208704D01*
X116324544Y-95282375D01*
X116356087Y-95323349D01*
X116372173Y-95337412D01*
X116382892Y-95355891D01*
X116387580Y-95361215D01*
X116399024Y-95369960D01*
X116406796Y-95382087D01*
X116441882Y-95418540D01*
X116502114Y-95460472D01*
X116554707Y-95511652D01*
X116584865Y-95531215D01*
X116628965Y-95548782D01*
X116646825Y-95561216D01*
X116667634Y-95565770D01*
X116671587Y-95568986D01*
X116697096Y-95576606D01*
X116784663Y-95616819D01*
X116822396Y-95625819D01*
X116867556Y-95627527D01*
X116910854Y-95640461D01*
X116942135Y-95643408D01*
X116968162Y-95640733D01*
X116993758Y-95646175D01*
X117049708Y-95646910D01*
X117126082Y-95632758D01*
X117152138Y-95631894D01*
X117171199Y-95633454D01*
X117178801Y-95631010D01*
X117203710Y-95630184D01*
X117243540Y-95620879D01*
X117280380Y-95604168D01*
X117295244Y-95601414D01*
X117307735Y-95593303D01*
X117328551Y-95582866D01*
X117379740Y-95566408D01*
X117382329Y-95568264D01*
X117387751Y-95569529D01*
X117396194Y-95575609D01*
X117397067Y-95576007D01*
X117405854Y-95578077D01*
X117413324Y-95583148D01*
X117442443Y-95595459D01*
X117472701Y-95601708D01*
X117499805Y-95616544D01*
X117514230Y-95621077D01*
X117560389Y-95626088D01*
X117603895Y-95642301D01*
X117659560Y-95640298D01*
X117686997Y-95645964D01*
X117707449Y-95642051D01*
X117762486Y-95648025D01*
X117797514Y-95637779D01*
X117822180Y-95637912D01*
X117861169Y-95645964D01*
X117881621Y-95642051D01*
X117936658Y-95648025D01*
X117946410Y-95645173D01*
X117956999Y-95647789D01*
X117996858Y-95649619D01*
X118049359Y-95641659D01*
X118069777Y-95643001D01*
X118082875Y-95638557D01*
X118145140Y-95639145D01*
X118216866Y-95625580D01*
X118240134Y-95616198D01*
X118258863Y-95619553D01*
X118265393Y-95622847D01*
X118285220Y-95624326D01*
X118399493Y-95646892D01*
X118405149Y-95645759D01*
X118410826Y-95646776D01*
X118448801Y-95646051D01*
X118481268Y-95638946D01*
X118514416Y-95641418D01*
X118526911Y-95639887D01*
X118547574Y-95637531D01*
X118553121Y-95638096D01*
X118563893Y-95639435D01*
X118578648Y-95638360D01*
X118592885Y-95642369D01*
X118636501Y-95645783D01*
X118739659Y-95633529D01*
X118843398Y-95628190D01*
X118872710Y-95620776D01*
X118880556Y-95617043D01*
X118887570Y-95616494D01*
X118913677Y-95626858D01*
X118982928Y-95639571D01*
X119093643Y-95637933D01*
X119204318Y-95641279D01*
X119273663Y-95629652D01*
X119363865Y-95595445D01*
X119381780Y-95590446D01*
X119399679Y-95588542D01*
X119411316Y-95582205D01*
X119456795Y-95569515D01*
X119457757Y-95569028D01*
X119465136Y-95572524D01*
X119489624Y-95578674D01*
X119511002Y-95592102D01*
X119543262Y-95604410D01*
X119587996Y-95612003D01*
X119598749Y-95616617D01*
X119601243Y-95616649D01*
X119637536Y-95632296D01*
X119656527Y-95636358D01*
X119711249Y-95637144D01*
X119764447Y-95649988D01*
X119789036Y-95646126D01*
X119789456Y-95646197D01*
X119791382Y-95645757D01*
X119834901Y-95638921D01*
X119878427Y-95639547D01*
X119903076Y-95647118D01*
X119903968Y-95647209D01*
X119946141Y-95643204D01*
X119987471Y-95650127D01*
X120024943Y-95641482D01*
X120028887Y-95641665D01*
X120052270Y-95647051D01*
X120102705Y-95648567D01*
X120133087Y-95643467D01*
X120137754Y-95643901D01*
X120146351Y-95641241D01*
X120155323Y-95639735D01*
X120208578Y-95642964D01*
X120260518Y-95635867D01*
X120295839Y-95623684D01*
X120304778Y-95626217D01*
X120353028Y-95630076D01*
X120398452Y-95645322D01*
X120411095Y-95644450D01*
X120423317Y-95648016D01*
X120423841Y-95648062D01*
X120486155Y-95641256D01*
X120506511Y-95643833D01*
X120510701Y-95642688D01*
X120553699Y-95646127D01*
X120598946Y-95631489D01*
X120647575Y-95628134D01*
X120647642Y-95628101D01*
X120682259Y-95630869D01*
X120737670Y-95647557D01*
X120740190Y-95647304D01*
X120742631Y-95648016D01*
X120743155Y-95648062D01*
X120805469Y-95641256D01*
X120825825Y-95643833D01*
X120830015Y-95642688D01*
X120873013Y-95646127D01*
X120927608Y-95628465D01*
X120986134Y-95622582D01*
X120988606Y-95621255D01*
X120991394Y-95620950D01*
X121047562Y-95590157D01*
X121086699Y-95607701D01*
X121208129Y-95635503D01*
X121329159Y-95663405D01*
X121329641Y-95663324D01*
X121330116Y-95663433D01*
X121452800Y-95642674D01*
X121508962Y-95633257D01*
X121568979Y-95643373D01*
X121688193Y-95664907D01*
X121691927Y-95664096D01*
X121695697Y-95664731D01*
X121813759Y-95637620D01*
X121857134Y-95628194D01*
X121899201Y-95632855D01*
X122006846Y-95650304D01*
X122077673Y-95647778D01*
X122189370Y-95621389D01*
X122206113Y-95617997D01*
X122214463Y-95625167D01*
X122216254Y-95628189D01*
X122229874Y-95638398D01*
X122253400Y-95658598D01*
X122287650Y-95694203D01*
X122301789Y-95700384D01*
X122351018Y-95742917D01*
X122351977Y-95743235D01*
X122352744Y-95743893D01*
X122378473Y-95758390D01*
X122398882Y-95765080D01*
X122416068Y-95777962D01*
X122421876Y-95780745D01*
X122450791Y-95794624D01*
X122469836Y-95799511D01*
X122478600Y-95805961D01*
X122484900Y-95807515D01*
X122494394Y-95813594D01*
X122516782Y-95822360D01*
X122619623Y-95840739D01*
X122721051Y-95865753D01*
X122737698Y-95866510D01*
X122751812Y-95864364D01*
X122762602Y-95866292D01*
X122815712Y-95854647D01*
X122824124Y-95853368D01*
X122834859Y-95854533D01*
X122854552Y-95848772D01*
X122969356Y-95834262D01*
X122976475Y-95830201D01*
X122984575Y-95828969D01*
X123043042Y-95793635D01*
X123074531Y-95784424D01*
X123118013Y-95749456D01*
X123186259Y-95710524D01*
X123197952Y-95700376D01*
X123229288Y-95659972D01*
X123256873Y-95637789D01*
X123335310Y-95621601D01*
X123363444Y-95609710D01*
X123367741Y-95609607D01*
X123403782Y-95593651D01*
X123465945Y-95579621D01*
X123487804Y-95569903D01*
X123531457Y-95539088D01*
X123533211Y-95538683D01*
X123535703Y-95536906D01*
X123565325Y-95524386D01*
X123569261Y-95520393D01*
X123596081Y-95508520D01*
X123638648Y-95478571D01*
X123682764Y-95432279D01*
X123691811Y-95425892D01*
X123692186Y-95425299D01*
X123736515Y-95393682D01*
X123773873Y-95353973D01*
X123794568Y-95320857D01*
X123796838Y-95319198D01*
X123801142Y-95312129D01*
X123831762Y-95282854D01*
X123835293Y-95277817D01*
X123845424Y-95254831D01*
X123862183Y-95236116D01*
X123876534Y-95211843D01*
X123894271Y-95161316D01*
X123906212Y-95142208D01*
X123906825Y-95138546D01*
X123926698Y-95105905D01*
X123936185Y-95079959D01*
X123945455Y-95020314D01*
X123966662Y-94963798D01*
X123972266Y-94929642D01*
X123971096Y-94894963D01*
X123979734Y-94861356D01*
X123982438Y-94812452D01*
X123980426Y-94798291D01*
X123983374Y-94784295D01*
X123984161Y-94714112D01*
X123983538Y-94710784D01*
X123984201Y-94707464D01*
X123984214Y-94691729D01*
X123983706Y-94689164D01*
X123984197Y-94686599D01*
X123984161Y-94681591D01*
X123984159Y-94681581D01*
X123984161Y-94681570D01*
X123983657Y-94611791D01*
X123981278Y-94600267D01*
X123983071Y-94588636D01*
X123980801Y-94536383D01*
X123973653Y-94507145D01*
X123975455Y-94477098D01*
X123970483Y-94440887D01*
X123951872Y-94387044D01*
X123945203Y-94330470D01*
X123936558Y-94303820D01*
X123905271Y-94247890D01*
X123885293Y-94186994D01*
X123872001Y-94163417D01*
X123855732Y-94144478D01*
X123846147Y-94121427D01*
X123843209Y-94117044D01*
X123819044Y-94092945D01*
X123802690Y-94062986D01*
X123753320Y-94003898D01*
X123677032Y-93942406D01*
X123606274Y-93874616D01*
X123552478Y-93840314D01*
X123444925Y-93798440D01*
X123338661Y-93753345D01*
X123273169Y-93739729D01*
X123216893Y-93739243D01*
X123162055Y-93726618D01*
X123139815Y-93725952D01*
X123083847Y-93735353D01*
X123027162Y-93732531D01*
X122943890Y-93744828D01*
X122842630Y-93780985D01*
X122841821Y-93781225D01*
X122794255Y-93770096D01*
X122697780Y-93739687D01*
X122618044Y-93730962D01*
X122543393Y-93737500D01*
X122468651Y-93732157D01*
X122464843Y-93732635D01*
X122485959Y-93680318D01*
X122519488Y-93630048D01*
X122532242Y-93565651D01*
X122556810Y-93504781D01*
X122556262Y-93444363D01*
X122568001Y-93385089D01*
X122555140Y-93320714D01*
X122554545Y-93255075D01*
X122530918Y-93199466D01*
X122519080Y-93140212D01*
X122482563Y-93085659D01*
X122456894Y-93025245D01*
X122408168Y-92953734D01*
X122409206Y-92953737D01*
X122418423Y-92951934D01*
X122418932Y-92951725D01*
X122419486Y-92951726D01*
X122495686Y-92936686D01*
X122554392Y-92912471D01*
X122616674Y-92900082D01*
X122668695Y-92865323D01*
X122726534Y-92841465D01*
X122771504Y-92796627D01*
X122824305Y-92761347D01*
X122859065Y-92709325D01*
X122903371Y-92665150D01*
X122927759Y-92606518D01*
X122963040Y-92553716D01*
X122975246Y-92492351D01*
X122999274Y-92434585D01*
X122999368Y-92371084D01*
X123011757Y-92308799D01*
X123011757Y-91991492D01*
X123011653Y-91990967D01*
X123011756Y-91990443D01*
X123011585Y-91886105D01*
X123011120Y-91883788D01*
X123011561Y-91881463D01*
X123010859Y-91802522D01*
X123009687Y-91796894D01*
X123010659Y-91791227D01*
X123009141Y-91734052D01*
X123006242Y-91721264D01*
X123007935Y-91708263D01*
X123005320Y-91669225D01*
X122997357Y-91639675D01*
X122998423Y-91609089D01*
X122994426Y-91584555D01*
X122968453Y-91515098D01*
X122953963Y-91442368D01*
X122948300Y-91428709D01*
X122933834Y-91407073D01*
X122933506Y-91405640D01*
X122932622Y-91404395D01*
X122925450Y-91379580D01*
X122911022Y-91361519D01*
X122906961Y-91350659D01*
X122890585Y-91333100D01*
X122886881Y-91323513D01*
X122857008Y-91292170D01*
X122809503Y-91221120D01*
X122796025Y-91212120D01*
X122788883Y-91202067D01*
X122778379Y-91195475D01*
X122769592Y-91184476D01*
X122761980Y-91178059D01*
X122733030Y-91162091D01*
X122714595Y-91142748D01*
X122647968Y-91113257D01*
X122601829Y-91082448D01*
X122596610Y-91081411D01*
X122577365Y-91069335D01*
X122574242Y-91068145D01*
X122557607Y-91065329D01*
X122543323Y-91057450D01*
X122514643Y-91054243D01*
X122486249Y-91041675D01*
X122467414Y-91037456D01*
X122460661Y-91037294D01*
X122454428Y-91034688D01*
X122412818Y-91026270D01*
X122410992Y-91026264D01*
X122409305Y-91025570D01*
X122403260Y-91024382D01*
X122406694Y-91020612D01*
X122435596Y-90972655D01*
X122443668Y-90950267D01*
X122458357Y-90931545D01*
X122475321Y-90898061D01*
X122490270Y-90844586D01*
X122516528Y-90795665D01*
X122523251Y-90773641D01*
X122524452Y-90761664D01*
X122529748Y-90750854D01*
X122533608Y-90689556D01*
X122542551Y-90657566D01*
X122542027Y-90653221D01*
X122545546Y-90642010D01*
X122541273Y-90593862D01*
X122548159Y-90525171D01*
X122545588Y-90516641D01*
X122546210Y-90510302D01*
X122545122Y-90506718D01*
X122545442Y-90501632D01*
X122543618Y-90488054D01*
X122527775Y-90441773D01*
X122523471Y-90393272D01*
X122497001Y-90342579D01*
X122495827Y-90335062D01*
X122490189Y-90325817D01*
X122473652Y-90271360D01*
X122473606Y-90271274D01*
X122466412Y-90262513D01*
X122462744Y-90251798D01*
X122430499Y-90215220D01*
X122407888Y-90171916D01*
X122393539Y-90154082D01*
X122377020Y-90140256D01*
X122365805Y-90121867D01*
X122334068Y-90087387D01*
X122328431Y-90083273D01*
X122324671Y-90077395D01*
X122278984Y-90029846D01*
X122275658Y-90027526D01*
X122273430Y-90024137D01*
X122217236Y-89967091D01*
X122214573Y-89965282D01*
X122212778Y-89962610D01*
X122149514Y-89899643D01*
X122148120Y-89898716D01*
X122147180Y-89897332D01*
X122140047Y-89890304D01*
X122137709Y-89888767D01*
X122136119Y-89886468D01*
X122056391Y-89809261D01*
X122049600Y-89804879D01*
X122044839Y-89798349D01*
X121983312Y-89741659D01*
X121969823Y-89733423D01*
X121959903Y-89721121D01*
X121915339Y-89683900D01*
X121881835Y-89665619D01*
X121854545Y-89638945D01*
X121825710Y-89620150D01*
X121723147Y-89579032D01*
X121696132Y-89564292D01*
X121685576Y-89563160D01*
X121632188Y-89536509D01*
X121615138Y-89535308D01*
X121596318Y-89527680D01*
X121583617Y-89525254D01*
X121483226Y-89526018D01*
X121383089Y-89518966D01*
X121359149Y-89526963D01*
X121333909Y-89527155D01*
X121241463Y-89566275D01*
X121146239Y-89598084D01*
X121127703Y-89608666D01*
X121116087Y-89618754D01*
X121101746Y-89624312D01*
X121063279Y-89648757D01*
X121059889Y-89651994D01*
X121055539Y-89653753D01*
X121043842Y-89661425D01*
X121038556Y-89634231D01*
X121037113Y-89630704D01*
X121037085Y-89626895D01*
X121031917Y-89601873D01*
X121028406Y-89593569D01*
X121028090Y-89584558D01*
X121028000Y-89584176D01*
X121021566Y-89570064D01*
X121020775Y-89557182D01*
X121019228Y-89554013D01*
X121018825Y-89549592D01*
X121015679Y-89538948D01*
X120997933Y-89505163D01*
X120995046Y-89487543D01*
X120959002Y-89429423D01*
X120934668Y-89371872D01*
X120928398Y-89365694D01*
X120924416Y-89356958D01*
X120921911Y-89354622D01*
X120911245Y-89332770D01*
X120905130Y-89324732D01*
X120901454Y-89321481D01*
X120899559Y-89317874D01*
X120879421Y-89301102D01*
X120863435Y-89275325D01*
X120787812Y-89220996D01*
X120718058Y-89159318D01*
X120687165Y-89148690D01*
X120660630Y-89129627D01*
X120647881Y-89123832D01*
X120567493Y-89104986D01*
X120490362Y-89075528D01*
X120467315Y-89071608D01*
X120433906Y-89072540D01*
X120401623Y-89063902D01*
X120364614Y-89061490D01*
X120351134Y-89063270D01*
X120337864Y-89060308D01*
X120283229Y-89059038D01*
X120277859Y-89059977D01*
X120272521Y-89058879D01*
X120196597Y-89058385D01*
X120194785Y-89058733D01*
X120192972Y-89058371D01*
X120092095Y-89058286D01*
X120091825Y-89058339D01*
X120091556Y-89058286D01*
X120078500Y-89058286D01*
X120078309Y-89058324D01*
X120078118Y-89058286D01*
X119974208Y-89058348D01*
X119972647Y-89058660D01*
X119971086Y-89058358D01*
X119892542Y-89058788D01*
X119887756Y-89059767D01*
X119882943Y-89058912D01*
X119826099Y-89060076D01*
X119814091Y-89062721D01*
X119801911Y-89061029D01*
X119763104Y-89063294D01*
X119733889Y-89070899D01*
X119703735Y-89069549D01*
X119679301Y-89073282D01*
X119608944Y-89098802D01*
X119535429Y-89112860D01*
X119521704Y-89118426D01*
X119499341Y-89133130D01*
X119473563Y-89140309D01*
X119455485Y-89154465D01*
X119444552Y-89158430D01*
X119409557Y-89190426D01*
X119404477Y-89194404D01*
X119400733Y-89195919D01*
X119394453Y-89202097D01*
X119313053Y-89255620D01*
X119298022Y-89277759D01*
X119276949Y-89294259D01*
X119270271Y-89302026D01*
X119268885Y-89304483D01*
X119266681Y-89306239D01*
X119246818Y-89342156D01*
X119234167Y-89353871D01*
X119229196Y-89364679D01*
X119222722Y-89371048D01*
X119202852Y-89417933D01*
X119172785Y-89462218D01*
X119168695Y-89482011D01*
X119147539Y-89519499D01*
X119147199Y-89522295D01*
X119145833Y-89524765D01*
X119142537Y-89535097D01*
X119139844Y-89558940D01*
X119129818Y-89580739D01*
X119129498Y-89582077D01*
X119129120Y-89591909D01*
X119125281Y-89600968D01*
X119120275Y-89625104D01*
X119120242Y-89629118D01*
X119118722Y-89632832D01*
X119113153Y-89661452D01*
X119109857Y-89660112D01*
X119106990Y-89657350D01*
X119064601Y-89630157D01*
X119054635Y-89626245D01*
X119046682Y-89619073D01*
X119023334Y-89605158D01*
X119016514Y-89602737D01*
X119011981Y-89598783D01*
X118987313Y-89590482D01*
X118965762Y-89574703D01*
X118963546Y-89573671D01*
X118871109Y-89551118D01*
X118788007Y-89521616D01*
X118783364Y-89521856D01*
X118775305Y-89519144D01*
X118747763Y-89521023D01*
X118720947Y-89514480D01*
X118624024Y-89529464D01*
X118586847Y-89532001D01*
X118568430Y-89532951D01*
X118538224Y-89533598D01*
X118533593Y-89535634D01*
X118526169Y-89536140D01*
X118509201Y-89540735D01*
X118490242Y-89550147D01*
X118474163Y-89552633D01*
X118424764Y-89582654D01*
X118410494Y-89589739D01*
X118309616Y-89634077D01*
X118277924Y-89656248D01*
X118256103Y-89679024D01*
X118228596Y-89694470D01*
X118180946Y-89735262D01*
X118172430Y-89746090D01*
X118160715Y-89753338D01*
X118095869Y-89813796D01*
X118091945Y-89819246D01*
X118086308Y-89822896D01*
X118020109Y-89887218D01*
X118018078Y-89890165D01*
X118015094Y-89892144D01*
X117951277Y-89955529D01*
X117949512Y-89958151D01*
X117946896Y-89959923D01*
X117889781Y-90017762D01*
X117887635Y-90021018D01*
X117884433Y-90023243D01*
X117837458Y-90071967D01*
X117833992Y-90077364D01*
X117828798Y-90081128D01*
X117795400Y-90117163D01*
X117785955Y-90132530D01*
X117771956Y-90143911D01*
X117755575Y-90163685D01*
X117732192Y-90206949D01*
X117699191Y-90243421D01*
X117698583Y-90244439D01*
X117697077Y-90248659D01*
X117694118Y-90252021D01*
X117683391Y-90283439D01*
X117680331Y-90287199D01*
X117670332Y-90320657D01*
X117664645Y-90329909D01*
X117664188Y-90332768D01*
X117636841Y-90383366D01*
X117631894Y-90431319D01*
X117614654Y-90479628D01*
X117614878Y-90484101D01*
X117613430Y-90488341D01*
X117611619Y-90501911D01*
X117612418Y-90514434D01*
X117608824Y-90526458D01*
X117615434Y-90590853D01*
X117611213Y-90631764D01*
X117615979Y-90647740D01*
X117614730Y-90658182D01*
X117623598Y-90689770D01*
X117627510Y-90751120D01*
X117633041Y-90762386D01*
X117634322Y-90774868D01*
X117641143Y-90797029D01*
X117667327Y-90845535D01*
X117682225Y-90898603D01*
X117699368Y-90932348D01*
X117713935Y-90950872D01*
X117721936Y-90973037D01*
X117751083Y-91021359D01*
X117753840Y-91024383D01*
X117727189Y-91029668D01*
X117724628Y-91030727D01*
X117721855Y-91030749D01*
X117688907Y-91037574D01*
X117679900Y-91041389D01*
X117670126Y-91041760D01*
X117662045Y-91043689D01*
X117645119Y-91051465D01*
X117640563Y-91051735D01*
X117577947Y-91082123D01*
X117493480Y-91110315D01*
X117485132Y-91115078D01*
X117465341Y-91132256D01*
X117458963Y-91134957D01*
X117455306Y-91138672D01*
X117435132Y-91147941D01*
X117429253Y-91154285D01*
X117415906Y-91160762D01*
X117360056Y-91223641D01*
X117296547Y-91278764D01*
X117285087Y-91301706D01*
X117272095Y-91314119D01*
X117264600Y-91331108D01*
X117250073Y-91347463D01*
X117243772Y-91358220D01*
X117229868Y-91398345D01*
X117224784Y-91404635D01*
X117211941Y-91448143D01*
X117184958Y-91502161D01*
X117184161Y-91513436D01*
X117171300Y-91542588D01*
X117166761Y-91562967D01*
X117166334Y-91581691D01*
X117162010Y-91594170D01*
X117163150Y-91613425D01*
X117154085Y-91644133D01*
X117151026Y-91677769D01*
X117152869Y-91695149D01*
X117148831Y-91712150D01*
X117146968Y-91762671D01*
X117148181Y-91770213D01*
X117146590Y-91777688D01*
X117145639Y-91848725D01*
X117146232Y-91851932D01*
X117145586Y-91855126D01*
X117145264Y-91950311D01*
X117145448Y-91951253D01*
X117145260Y-91952197D01*
X117145243Y-91991213D01*
X117145271Y-91991353D01*
X117145243Y-91991492D01*
X117145243Y-92308799D01*
X117157632Y-92371082D01*
X117157726Y-92434585D01*
X117181754Y-92492351D01*
X117193960Y-92553716D01*
X117229241Y-92606518D01*
X117253629Y-92665150D01*
X117297935Y-92709325D01*
X117332695Y-92761347D01*
X117385496Y-92796627D01*
X117430466Y-92841465D01*
X117488305Y-92865323D01*
X117540326Y-92900082D01*
X117602608Y-92912471D01*
X117661314Y-92936686D01*
X117737514Y-92951726D01*
X117739082Y-92951724D01*
X117740533Y-92952314D01*
X117748850Y-92953914D01*
X117699876Y-93025952D01*
X117674402Y-93086084D01*
X117638070Y-93140360D01*
X117626167Y-93199942D01*
X117602467Y-93255885D01*
X117601943Y-93321194D01*
X117589149Y-93385237D01*
X117600952Y-93444836D01*
X117600465Y-93505593D01*
X117624973Y-93566130D01*
X117637661Y-93630195D01*
X117671374Y-93680742D01*
X117694174Y-93737059D01*
X117739981Y-93783606D01*
X117752262Y-93802020D01*
X117694688Y-93792770D01*
X117607288Y-93768749D01*
X117537547Y-93763728D01*
X117454260Y-93774149D01*
X117370326Y-93773669D01*
X117304636Y-93786345D01*
X117265746Y-93802194D01*
X117180927Y-93788618D01*
X117077085Y-93765652D01*
X117006665Y-93764151D01*
X116914622Y-93780429D01*
X116821422Y-93787442D01*
X116753300Y-93806401D01*
X116665758Y-93850628D01*
X116574775Y-93887234D01*
X116517349Y-93924765D01*
X116448405Y-93992320D01*
X116373647Y-94053397D01*
X116345949Y-94086996D01*
X116339463Y-94099067D01*
X116338986Y-94099534D01*
X116338120Y-94101566D01*
X116294094Y-94183499D01*
X116237596Y-94277363D01*
X116215653Y-94338331D01*
X116200991Y-94435919D01*
X116178255Y-94531957D01*
X116176512Y-94580201D01*
X116181529Y-94611245D01*
X116177290Y-94642404D01*
X116181238Y-94706912D01*
X116181507Y-94707934D01*
X116172786Y-94751779D01*
X116051000Y-94751779D01*
X116051000Y-92256612D01*
X116041289Y-92207792D01*
X116095634Y-91653535D01*
X116291805Y-91003789D01*
X116610435Y-90404531D01*
X117039400Y-89878568D01*
X117562357Y-89445941D01*
X118159382Y-89123132D01*
X118807727Y-88922435D01*
X119380492Y-88862235D01*
X119434612Y-88873000D01*
G04 #@! TD*
M02*
