G04 #@! TF.GenerationSoftware,KiCad,Pcbnew,(5.0.0)*
G04 #@! TF.CreationDate,2019-01-08T22:48:22-05:00*
G04 #@! TF.ProjectId,PoE PSE,506F45205053452E6B696361645F7063,rev?*
G04 #@! TF.SameCoordinates,Original*
G04 #@! TF.FileFunction,Soldermask,Top*
G04 #@! TF.FilePolarity,Negative*
%FSLAX46Y46*%
G04 Gerber Fmt 4.6, Leading zero omitted, Abs format (unit mm)*
G04 Created by KiCad (PCBNEW (5.0.0)) date 01/08/19 22:48:22*
%MOMM*%
%LPD*%
G01*
G04 APERTURE LIST*
%ADD10C,3.400000*%
%ADD11R,2.900000X2.100000*%
%ADD12R,3.900000X3.400000*%
%ADD13R,1.300000X1.200000*%
%ADD14C,0.100000*%
%ADD15C,1.550000*%
%ADD16C,1.900000*%
%ADD17R,1.900000X1.900000*%
%ADD18C,3.600000*%
%ADD19R,1.000000X2.100000*%
%ADD20R,1.400000X3.200000*%
%ADD21C,0.500000*%
%ADD22R,1.900000X1.400000*%
%ADD23R,1.000000X1.900000*%
G04 APERTURE END LIST*
D10*
G04 #@! TO.C,REF\002A\002A*
X150065740Y-116784120D03*
G04 #@! TD*
D11*
G04 #@! TO.C,D3*
X144113000Y-107315000D03*
X140113000Y-107315000D03*
G04 #@! TD*
D12*
G04 #@! TO.C,L1*
X134686040Y-97693480D03*
X124186040Y-97693480D03*
G04 #@! TD*
D13*
G04 #@! TO.C,D2*
X121078500Y-102547460D03*
X121078500Y-100647460D03*
X119078500Y-101597460D03*
G04 #@! TD*
D14*
G04 #@! TO.C,C1*
G36*
X120571164Y-107809192D02*
X120603874Y-107814044D01*
X120635950Y-107822078D01*
X120667084Y-107833218D01*
X120696977Y-107847356D01*
X120725340Y-107864356D01*
X120751900Y-107884054D01*
X120776401Y-107906261D01*
X120798608Y-107930762D01*
X120818306Y-107957322D01*
X120835306Y-107985685D01*
X120849444Y-108015578D01*
X120860584Y-108046712D01*
X120868618Y-108078788D01*
X120873470Y-108111498D01*
X120875093Y-108144525D01*
X120875093Y-109020613D01*
X120873470Y-109053640D01*
X120868618Y-109086350D01*
X120860584Y-109118426D01*
X120849444Y-109149560D01*
X120835306Y-109179453D01*
X120818306Y-109207816D01*
X120798608Y-109234376D01*
X120776401Y-109258877D01*
X120751900Y-109281084D01*
X120725340Y-109300782D01*
X120696977Y-109317782D01*
X120667084Y-109331920D01*
X120635950Y-109343060D01*
X120603874Y-109351094D01*
X120571164Y-109355946D01*
X120538137Y-109357569D01*
X119412049Y-109357569D01*
X119379022Y-109355946D01*
X119346312Y-109351094D01*
X119314236Y-109343060D01*
X119283102Y-109331920D01*
X119253209Y-109317782D01*
X119224846Y-109300782D01*
X119198286Y-109281084D01*
X119173785Y-109258877D01*
X119151578Y-109234376D01*
X119131880Y-109207816D01*
X119114880Y-109179453D01*
X119100742Y-109149560D01*
X119089602Y-109118426D01*
X119081568Y-109086350D01*
X119076716Y-109053640D01*
X119075093Y-109020613D01*
X119075093Y-108144525D01*
X119076716Y-108111498D01*
X119081568Y-108078788D01*
X119089602Y-108046712D01*
X119100742Y-108015578D01*
X119114880Y-107985685D01*
X119131880Y-107957322D01*
X119151578Y-107930762D01*
X119173785Y-107906261D01*
X119198286Y-107884054D01*
X119224846Y-107864356D01*
X119253209Y-107847356D01*
X119283102Y-107833218D01*
X119314236Y-107822078D01*
X119346312Y-107814044D01*
X119379022Y-107809192D01*
X119412049Y-107807569D01*
X120538137Y-107807569D01*
X120571164Y-107809192D01*
X120571164Y-107809192D01*
G37*
D15*
X119975093Y-108582569D03*
D14*
G36*
X120571164Y-105759192D02*
X120603874Y-105764044D01*
X120635950Y-105772078D01*
X120667084Y-105783218D01*
X120696977Y-105797356D01*
X120725340Y-105814356D01*
X120751900Y-105834054D01*
X120776401Y-105856261D01*
X120798608Y-105880762D01*
X120818306Y-105907322D01*
X120835306Y-105935685D01*
X120849444Y-105965578D01*
X120860584Y-105996712D01*
X120868618Y-106028788D01*
X120873470Y-106061498D01*
X120875093Y-106094525D01*
X120875093Y-106970613D01*
X120873470Y-107003640D01*
X120868618Y-107036350D01*
X120860584Y-107068426D01*
X120849444Y-107099560D01*
X120835306Y-107129453D01*
X120818306Y-107157816D01*
X120798608Y-107184376D01*
X120776401Y-107208877D01*
X120751900Y-107231084D01*
X120725340Y-107250782D01*
X120696977Y-107267782D01*
X120667084Y-107281920D01*
X120635950Y-107293060D01*
X120603874Y-107301094D01*
X120571164Y-107305946D01*
X120538137Y-107307569D01*
X119412049Y-107307569D01*
X119379022Y-107305946D01*
X119346312Y-107301094D01*
X119314236Y-107293060D01*
X119283102Y-107281920D01*
X119253209Y-107267782D01*
X119224846Y-107250782D01*
X119198286Y-107231084D01*
X119173785Y-107208877D01*
X119151578Y-107184376D01*
X119131880Y-107157816D01*
X119114880Y-107129453D01*
X119100742Y-107099560D01*
X119089602Y-107068426D01*
X119081568Y-107036350D01*
X119076716Y-107003640D01*
X119075093Y-106970613D01*
X119075093Y-106094525D01*
X119076716Y-106061498D01*
X119081568Y-106028788D01*
X119089602Y-105996712D01*
X119100742Y-105965578D01*
X119114880Y-105935685D01*
X119131880Y-105907322D01*
X119151578Y-105880762D01*
X119173785Y-105856261D01*
X119198286Y-105834054D01*
X119224846Y-105814356D01*
X119253209Y-105797356D01*
X119283102Y-105783218D01*
X119314236Y-105772078D01*
X119346312Y-105764044D01*
X119379022Y-105759192D01*
X119412049Y-105757569D01*
X120538137Y-105757569D01*
X120571164Y-105759192D01*
X120571164Y-105759192D01*
G37*
D15*
X119975093Y-106532569D03*
G04 #@! TD*
D14*
G04 #@! TO.C,C2*
G36*
X112940271Y-111947903D02*
X112972981Y-111952755D01*
X113005057Y-111960789D01*
X113036191Y-111971929D01*
X113066084Y-111986067D01*
X113094447Y-112003067D01*
X113121007Y-112022765D01*
X113145508Y-112044972D01*
X113167715Y-112069473D01*
X113187413Y-112096033D01*
X113204413Y-112124396D01*
X113218551Y-112154289D01*
X113229691Y-112185423D01*
X113237725Y-112217499D01*
X113242577Y-112250209D01*
X113244200Y-112283236D01*
X113244200Y-113159324D01*
X113242577Y-113192351D01*
X113237725Y-113225061D01*
X113229691Y-113257137D01*
X113218551Y-113288271D01*
X113204413Y-113318164D01*
X113187413Y-113346527D01*
X113167715Y-113373087D01*
X113145508Y-113397588D01*
X113121007Y-113419795D01*
X113094447Y-113439493D01*
X113066084Y-113456493D01*
X113036191Y-113470631D01*
X113005057Y-113481771D01*
X112972981Y-113489805D01*
X112940271Y-113494657D01*
X112907244Y-113496280D01*
X111781156Y-113496280D01*
X111748129Y-113494657D01*
X111715419Y-113489805D01*
X111683343Y-113481771D01*
X111652209Y-113470631D01*
X111622316Y-113456493D01*
X111593953Y-113439493D01*
X111567393Y-113419795D01*
X111542892Y-113397588D01*
X111520685Y-113373087D01*
X111500987Y-113346527D01*
X111483987Y-113318164D01*
X111469849Y-113288271D01*
X111458709Y-113257137D01*
X111450675Y-113225061D01*
X111445823Y-113192351D01*
X111444200Y-113159324D01*
X111444200Y-112283236D01*
X111445823Y-112250209D01*
X111450675Y-112217499D01*
X111458709Y-112185423D01*
X111469849Y-112154289D01*
X111483987Y-112124396D01*
X111500987Y-112096033D01*
X111520685Y-112069473D01*
X111542892Y-112044972D01*
X111567393Y-112022765D01*
X111593953Y-112003067D01*
X111622316Y-111986067D01*
X111652209Y-111971929D01*
X111683343Y-111960789D01*
X111715419Y-111952755D01*
X111748129Y-111947903D01*
X111781156Y-111946280D01*
X112907244Y-111946280D01*
X112940271Y-111947903D01*
X112940271Y-111947903D01*
G37*
D15*
X112344200Y-112721280D03*
D14*
G36*
X112940271Y-113997903D02*
X112972981Y-114002755D01*
X113005057Y-114010789D01*
X113036191Y-114021929D01*
X113066084Y-114036067D01*
X113094447Y-114053067D01*
X113121007Y-114072765D01*
X113145508Y-114094972D01*
X113167715Y-114119473D01*
X113187413Y-114146033D01*
X113204413Y-114174396D01*
X113218551Y-114204289D01*
X113229691Y-114235423D01*
X113237725Y-114267499D01*
X113242577Y-114300209D01*
X113244200Y-114333236D01*
X113244200Y-115209324D01*
X113242577Y-115242351D01*
X113237725Y-115275061D01*
X113229691Y-115307137D01*
X113218551Y-115338271D01*
X113204413Y-115368164D01*
X113187413Y-115396527D01*
X113167715Y-115423087D01*
X113145508Y-115447588D01*
X113121007Y-115469795D01*
X113094447Y-115489493D01*
X113066084Y-115506493D01*
X113036191Y-115520631D01*
X113005057Y-115531771D01*
X112972981Y-115539805D01*
X112940271Y-115544657D01*
X112907244Y-115546280D01*
X111781156Y-115546280D01*
X111748129Y-115544657D01*
X111715419Y-115539805D01*
X111683343Y-115531771D01*
X111652209Y-115520631D01*
X111622316Y-115506493D01*
X111593953Y-115489493D01*
X111567393Y-115469795D01*
X111542892Y-115447588D01*
X111520685Y-115423087D01*
X111500987Y-115396527D01*
X111483987Y-115368164D01*
X111469849Y-115338271D01*
X111458709Y-115307137D01*
X111450675Y-115275061D01*
X111445823Y-115242351D01*
X111444200Y-115209324D01*
X111444200Y-114333236D01*
X111445823Y-114300209D01*
X111450675Y-114267499D01*
X111458709Y-114235423D01*
X111469849Y-114204289D01*
X111483987Y-114174396D01*
X111500987Y-114146033D01*
X111520685Y-114119473D01*
X111542892Y-114094972D01*
X111567393Y-114072765D01*
X111593953Y-114053067D01*
X111622316Y-114036067D01*
X111652209Y-114021929D01*
X111683343Y-114010789D01*
X111715419Y-114002755D01*
X111748129Y-113997903D01*
X111781156Y-113996280D01*
X112907244Y-113996280D01*
X112940271Y-113997903D01*
X112940271Y-113997903D01*
G37*
D15*
X112344200Y-114771280D03*
G04 #@! TD*
D14*
G04 #@! TO.C,C3*
G36*
X126772571Y-114608123D02*
X126805281Y-114612975D01*
X126837357Y-114621009D01*
X126868491Y-114632149D01*
X126898384Y-114646287D01*
X126926747Y-114663287D01*
X126953307Y-114682985D01*
X126977808Y-114705192D01*
X127000015Y-114729693D01*
X127019713Y-114756253D01*
X127036713Y-114784616D01*
X127050851Y-114814509D01*
X127061991Y-114845643D01*
X127070025Y-114877719D01*
X127074877Y-114910429D01*
X127076500Y-114943456D01*
X127076500Y-116069544D01*
X127074877Y-116102571D01*
X127070025Y-116135281D01*
X127061991Y-116167357D01*
X127050851Y-116198491D01*
X127036713Y-116228384D01*
X127019713Y-116256747D01*
X127000015Y-116283307D01*
X126977808Y-116307808D01*
X126953307Y-116330015D01*
X126926747Y-116349713D01*
X126898384Y-116366713D01*
X126868491Y-116380851D01*
X126837357Y-116391991D01*
X126805281Y-116400025D01*
X126772571Y-116404877D01*
X126739544Y-116406500D01*
X125863456Y-116406500D01*
X125830429Y-116404877D01*
X125797719Y-116400025D01*
X125765643Y-116391991D01*
X125734509Y-116380851D01*
X125704616Y-116366713D01*
X125676253Y-116349713D01*
X125649693Y-116330015D01*
X125625192Y-116307808D01*
X125602985Y-116283307D01*
X125583287Y-116256747D01*
X125566287Y-116228384D01*
X125552149Y-116198491D01*
X125541009Y-116167357D01*
X125532975Y-116135281D01*
X125528123Y-116102571D01*
X125526500Y-116069544D01*
X125526500Y-114943456D01*
X125528123Y-114910429D01*
X125532975Y-114877719D01*
X125541009Y-114845643D01*
X125552149Y-114814509D01*
X125566287Y-114784616D01*
X125583287Y-114756253D01*
X125602985Y-114729693D01*
X125625192Y-114705192D01*
X125649693Y-114682985D01*
X125676253Y-114663287D01*
X125704616Y-114646287D01*
X125734509Y-114632149D01*
X125765643Y-114621009D01*
X125797719Y-114612975D01*
X125830429Y-114608123D01*
X125863456Y-114606500D01*
X126739544Y-114606500D01*
X126772571Y-114608123D01*
X126772571Y-114608123D01*
G37*
D15*
X126301500Y-115506500D03*
D14*
G36*
X128822571Y-114608123D02*
X128855281Y-114612975D01*
X128887357Y-114621009D01*
X128918491Y-114632149D01*
X128948384Y-114646287D01*
X128976747Y-114663287D01*
X129003307Y-114682985D01*
X129027808Y-114705192D01*
X129050015Y-114729693D01*
X129069713Y-114756253D01*
X129086713Y-114784616D01*
X129100851Y-114814509D01*
X129111991Y-114845643D01*
X129120025Y-114877719D01*
X129124877Y-114910429D01*
X129126500Y-114943456D01*
X129126500Y-116069544D01*
X129124877Y-116102571D01*
X129120025Y-116135281D01*
X129111991Y-116167357D01*
X129100851Y-116198491D01*
X129086713Y-116228384D01*
X129069713Y-116256747D01*
X129050015Y-116283307D01*
X129027808Y-116307808D01*
X129003307Y-116330015D01*
X128976747Y-116349713D01*
X128948384Y-116366713D01*
X128918491Y-116380851D01*
X128887357Y-116391991D01*
X128855281Y-116400025D01*
X128822571Y-116404877D01*
X128789544Y-116406500D01*
X127913456Y-116406500D01*
X127880429Y-116404877D01*
X127847719Y-116400025D01*
X127815643Y-116391991D01*
X127784509Y-116380851D01*
X127754616Y-116366713D01*
X127726253Y-116349713D01*
X127699693Y-116330015D01*
X127675192Y-116307808D01*
X127652985Y-116283307D01*
X127633287Y-116256747D01*
X127616287Y-116228384D01*
X127602149Y-116198491D01*
X127591009Y-116167357D01*
X127582975Y-116135281D01*
X127578123Y-116102571D01*
X127576500Y-116069544D01*
X127576500Y-114943456D01*
X127578123Y-114910429D01*
X127582975Y-114877719D01*
X127591009Y-114845643D01*
X127602149Y-114814509D01*
X127616287Y-114784616D01*
X127633287Y-114756253D01*
X127652985Y-114729693D01*
X127675192Y-114705192D01*
X127699693Y-114682985D01*
X127726253Y-114663287D01*
X127754616Y-114646287D01*
X127784509Y-114632149D01*
X127815643Y-114621009D01*
X127847719Y-114612975D01*
X127880429Y-114608123D01*
X127913456Y-114606500D01*
X128789544Y-114606500D01*
X128822571Y-114608123D01*
X128822571Y-114608123D01*
G37*
D15*
X128351500Y-115506500D03*
G04 #@! TD*
D14*
G04 #@! TO.C,C4*
G36*
X133946071Y-111930123D02*
X133978781Y-111934975D01*
X134010857Y-111943009D01*
X134041991Y-111954149D01*
X134071884Y-111968287D01*
X134100247Y-111985287D01*
X134126807Y-112004985D01*
X134151308Y-112027192D01*
X134173515Y-112051693D01*
X134193213Y-112078253D01*
X134210213Y-112106616D01*
X134224351Y-112136509D01*
X134235491Y-112167643D01*
X134243525Y-112199719D01*
X134248377Y-112232429D01*
X134250000Y-112265456D01*
X134250000Y-113141544D01*
X134248377Y-113174571D01*
X134243525Y-113207281D01*
X134235491Y-113239357D01*
X134224351Y-113270491D01*
X134210213Y-113300384D01*
X134193213Y-113328747D01*
X134173515Y-113355307D01*
X134151308Y-113379808D01*
X134126807Y-113402015D01*
X134100247Y-113421713D01*
X134071884Y-113438713D01*
X134041991Y-113452851D01*
X134010857Y-113463991D01*
X133978781Y-113472025D01*
X133946071Y-113476877D01*
X133913044Y-113478500D01*
X132786956Y-113478500D01*
X132753929Y-113476877D01*
X132721219Y-113472025D01*
X132689143Y-113463991D01*
X132658009Y-113452851D01*
X132628116Y-113438713D01*
X132599753Y-113421713D01*
X132573193Y-113402015D01*
X132548692Y-113379808D01*
X132526485Y-113355307D01*
X132506787Y-113328747D01*
X132489787Y-113300384D01*
X132475649Y-113270491D01*
X132464509Y-113239357D01*
X132456475Y-113207281D01*
X132451623Y-113174571D01*
X132450000Y-113141544D01*
X132450000Y-112265456D01*
X132451623Y-112232429D01*
X132456475Y-112199719D01*
X132464509Y-112167643D01*
X132475649Y-112136509D01*
X132489787Y-112106616D01*
X132506787Y-112078253D01*
X132526485Y-112051693D01*
X132548692Y-112027192D01*
X132573193Y-112004985D01*
X132599753Y-111985287D01*
X132628116Y-111968287D01*
X132658009Y-111954149D01*
X132689143Y-111943009D01*
X132721219Y-111934975D01*
X132753929Y-111930123D01*
X132786956Y-111928500D01*
X133913044Y-111928500D01*
X133946071Y-111930123D01*
X133946071Y-111930123D01*
G37*
D15*
X133350000Y-112703500D03*
D14*
G36*
X133946071Y-113980123D02*
X133978781Y-113984975D01*
X134010857Y-113993009D01*
X134041991Y-114004149D01*
X134071884Y-114018287D01*
X134100247Y-114035287D01*
X134126807Y-114054985D01*
X134151308Y-114077192D01*
X134173515Y-114101693D01*
X134193213Y-114128253D01*
X134210213Y-114156616D01*
X134224351Y-114186509D01*
X134235491Y-114217643D01*
X134243525Y-114249719D01*
X134248377Y-114282429D01*
X134250000Y-114315456D01*
X134250000Y-115191544D01*
X134248377Y-115224571D01*
X134243525Y-115257281D01*
X134235491Y-115289357D01*
X134224351Y-115320491D01*
X134210213Y-115350384D01*
X134193213Y-115378747D01*
X134173515Y-115405307D01*
X134151308Y-115429808D01*
X134126807Y-115452015D01*
X134100247Y-115471713D01*
X134071884Y-115488713D01*
X134041991Y-115502851D01*
X134010857Y-115513991D01*
X133978781Y-115522025D01*
X133946071Y-115526877D01*
X133913044Y-115528500D01*
X132786956Y-115528500D01*
X132753929Y-115526877D01*
X132721219Y-115522025D01*
X132689143Y-115513991D01*
X132658009Y-115502851D01*
X132628116Y-115488713D01*
X132599753Y-115471713D01*
X132573193Y-115452015D01*
X132548692Y-115429808D01*
X132526485Y-115405307D01*
X132506787Y-115378747D01*
X132489787Y-115350384D01*
X132475649Y-115320491D01*
X132464509Y-115289357D01*
X132456475Y-115257281D01*
X132451623Y-115224571D01*
X132450000Y-115191544D01*
X132450000Y-114315456D01*
X132451623Y-114282429D01*
X132456475Y-114249719D01*
X132464509Y-114217643D01*
X132475649Y-114186509D01*
X132489787Y-114156616D01*
X132506787Y-114128253D01*
X132526485Y-114101693D01*
X132548692Y-114077192D01*
X132573193Y-114054985D01*
X132599753Y-114035287D01*
X132628116Y-114018287D01*
X132658009Y-114004149D01*
X132689143Y-113993009D01*
X132721219Y-113984975D01*
X132753929Y-113980123D01*
X132786956Y-113978500D01*
X133913044Y-113978500D01*
X133946071Y-113980123D01*
X133946071Y-113980123D01*
G37*
D15*
X133350000Y-114753500D03*
G04 #@! TD*
D14*
G04 #@! TO.C,C5*
G36*
X147667151Y-105237443D02*
X147699861Y-105242295D01*
X147731937Y-105250329D01*
X147763071Y-105261469D01*
X147792964Y-105275607D01*
X147821327Y-105292607D01*
X147847887Y-105312305D01*
X147872388Y-105334512D01*
X147894595Y-105359013D01*
X147914293Y-105385573D01*
X147931293Y-105413936D01*
X147945431Y-105443829D01*
X147956571Y-105474963D01*
X147964605Y-105507039D01*
X147969457Y-105539749D01*
X147971080Y-105572776D01*
X147971080Y-106448864D01*
X147969457Y-106481891D01*
X147964605Y-106514601D01*
X147956571Y-106546677D01*
X147945431Y-106577811D01*
X147931293Y-106607704D01*
X147914293Y-106636067D01*
X147894595Y-106662627D01*
X147872388Y-106687128D01*
X147847887Y-106709335D01*
X147821327Y-106729033D01*
X147792964Y-106746033D01*
X147763071Y-106760171D01*
X147731937Y-106771311D01*
X147699861Y-106779345D01*
X147667151Y-106784197D01*
X147634124Y-106785820D01*
X146508036Y-106785820D01*
X146475009Y-106784197D01*
X146442299Y-106779345D01*
X146410223Y-106771311D01*
X146379089Y-106760171D01*
X146349196Y-106746033D01*
X146320833Y-106729033D01*
X146294273Y-106709335D01*
X146269772Y-106687128D01*
X146247565Y-106662627D01*
X146227867Y-106636067D01*
X146210867Y-106607704D01*
X146196729Y-106577811D01*
X146185589Y-106546677D01*
X146177555Y-106514601D01*
X146172703Y-106481891D01*
X146171080Y-106448864D01*
X146171080Y-105572776D01*
X146172703Y-105539749D01*
X146177555Y-105507039D01*
X146185589Y-105474963D01*
X146196729Y-105443829D01*
X146210867Y-105413936D01*
X146227867Y-105385573D01*
X146247565Y-105359013D01*
X146269772Y-105334512D01*
X146294273Y-105312305D01*
X146320833Y-105292607D01*
X146349196Y-105275607D01*
X146379089Y-105261469D01*
X146410223Y-105250329D01*
X146442299Y-105242295D01*
X146475009Y-105237443D01*
X146508036Y-105235820D01*
X147634124Y-105235820D01*
X147667151Y-105237443D01*
X147667151Y-105237443D01*
G37*
D15*
X147071080Y-106010820D03*
D14*
G36*
X147667151Y-103187443D02*
X147699861Y-103192295D01*
X147731937Y-103200329D01*
X147763071Y-103211469D01*
X147792964Y-103225607D01*
X147821327Y-103242607D01*
X147847887Y-103262305D01*
X147872388Y-103284512D01*
X147894595Y-103309013D01*
X147914293Y-103335573D01*
X147931293Y-103363936D01*
X147945431Y-103393829D01*
X147956571Y-103424963D01*
X147964605Y-103457039D01*
X147969457Y-103489749D01*
X147971080Y-103522776D01*
X147971080Y-104398864D01*
X147969457Y-104431891D01*
X147964605Y-104464601D01*
X147956571Y-104496677D01*
X147945431Y-104527811D01*
X147931293Y-104557704D01*
X147914293Y-104586067D01*
X147894595Y-104612627D01*
X147872388Y-104637128D01*
X147847887Y-104659335D01*
X147821327Y-104679033D01*
X147792964Y-104696033D01*
X147763071Y-104710171D01*
X147731937Y-104721311D01*
X147699861Y-104729345D01*
X147667151Y-104734197D01*
X147634124Y-104735820D01*
X146508036Y-104735820D01*
X146475009Y-104734197D01*
X146442299Y-104729345D01*
X146410223Y-104721311D01*
X146379089Y-104710171D01*
X146349196Y-104696033D01*
X146320833Y-104679033D01*
X146294273Y-104659335D01*
X146269772Y-104637128D01*
X146247565Y-104612627D01*
X146227867Y-104586067D01*
X146210867Y-104557704D01*
X146196729Y-104527811D01*
X146185589Y-104496677D01*
X146177555Y-104464601D01*
X146172703Y-104431891D01*
X146171080Y-104398864D01*
X146171080Y-103522776D01*
X146172703Y-103489749D01*
X146177555Y-103457039D01*
X146185589Y-103424963D01*
X146196729Y-103393829D01*
X146210867Y-103363936D01*
X146227867Y-103335573D01*
X146247565Y-103309013D01*
X146269772Y-103284512D01*
X146294273Y-103262305D01*
X146320833Y-103242607D01*
X146349196Y-103225607D01*
X146379089Y-103211469D01*
X146410223Y-103200329D01*
X146442299Y-103192295D01*
X146475009Y-103187443D01*
X146508036Y-103185820D01*
X147634124Y-103185820D01*
X147667151Y-103187443D01*
X147667151Y-103187443D01*
G37*
D15*
X147071080Y-103960820D03*
G04 #@! TD*
D14*
G04 #@! TO.C,D1*
G36*
X119785571Y-95788423D02*
X119818281Y-95793275D01*
X119850357Y-95801309D01*
X119881491Y-95812449D01*
X119911384Y-95826587D01*
X119939747Y-95843587D01*
X119966307Y-95863285D01*
X119990808Y-95885492D01*
X120013015Y-95909993D01*
X120032713Y-95936553D01*
X120049713Y-95964916D01*
X120063851Y-95994809D01*
X120074991Y-96025943D01*
X120083025Y-96058019D01*
X120087877Y-96090729D01*
X120089500Y-96123756D01*
X120089500Y-96999844D01*
X120087877Y-97032871D01*
X120083025Y-97065581D01*
X120074991Y-97097657D01*
X120063851Y-97128791D01*
X120049713Y-97158684D01*
X120032713Y-97187047D01*
X120013015Y-97213607D01*
X119990808Y-97238108D01*
X119966307Y-97260315D01*
X119939747Y-97280013D01*
X119911384Y-97297013D01*
X119881491Y-97311151D01*
X119850357Y-97322291D01*
X119818281Y-97330325D01*
X119785571Y-97335177D01*
X119752544Y-97336800D01*
X118626456Y-97336800D01*
X118593429Y-97335177D01*
X118560719Y-97330325D01*
X118528643Y-97322291D01*
X118497509Y-97311151D01*
X118467616Y-97297013D01*
X118439253Y-97280013D01*
X118412693Y-97260315D01*
X118388192Y-97238108D01*
X118365985Y-97213607D01*
X118346287Y-97187047D01*
X118329287Y-97158684D01*
X118315149Y-97128791D01*
X118304009Y-97097657D01*
X118295975Y-97065581D01*
X118291123Y-97032871D01*
X118289500Y-96999844D01*
X118289500Y-96123756D01*
X118291123Y-96090729D01*
X118295975Y-96058019D01*
X118304009Y-96025943D01*
X118315149Y-95994809D01*
X118329287Y-95964916D01*
X118346287Y-95936553D01*
X118365985Y-95909993D01*
X118388192Y-95885492D01*
X118412693Y-95863285D01*
X118439253Y-95843587D01*
X118467616Y-95826587D01*
X118497509Y-95812449D01*
X118528643Y-95801309D01*
X118560719Y-95793275D01*
X118593429Y-95788423D01*
X118626456Y-95786800D01*
X119752544Y-95786800D01*
X119785571Y-95788423D01*
X119785571Y-95788423D01*
G37*
D15*
X119189500Y-96561800D03*
D14*
G36*
X119785571Y-97838423D02*
X119818281Y-97843275D01*
X119850357Y-97851309D01*
X119881491Y-97862449D01*
X119911384Y-97876587D01*
X119939747Y-97893587D01*
X119966307Y-97913285D01*
X119990808Y-97935492D01*
X120013015Y-97959993D01*
X120032713Y-97986553D01*
X120049713Y-98014916D01*
X120063851Y-98044809D01*
X120074991Y-98075943D01*
X120083025Y-98108019D01*
X120087877Y-98140729D01*
X120089500Y-98173756D01*
X120089500Y-99049844D01*
X120087877Y-99082871D01*
X120083025Y-99115581D01*
X120074991Y-99147657D01*
X120063851Y-99178791D01*
X120049713Y-99208684D01*
X120032713Y-99237047D01*
X120013015Y-99263607D01*
X119990808Y-99288108D01*
X119966307Y-99310315D01*
X119939747Y-99330013D01*
X119911384Y-99347013D01*
X119881491Y-99361151D01*
X119850357Y-99372291D01*
X119818281Y-99380325D01*
X119785571Y-99385177D01*
X119752544Y-99386800D01*
X118626456Y-99386800D01*
X118593429Y-99385177D01*
X118560719Y-99380325D01*
X118528643Y-99372291D01*
X118497509Y-99361151D01*
X118467616Y-99347013D01*
X118439253Y-99330013D01*
X118412693Y-99310315D01*
X118388192Y-99288108D01*
X118365985Y-99263607D01*
X118346287Y-99237047D01*
X118329287Y-99208684D01*
X118315149Y-99178791D01*
X118304009Y-99147657D01*
X118295975Y-99115581D01*
X118291123Y-99082871D01*
X118289500Y-99049844D01*
X118289500Y-98173756D01*
X118291123Y-98140729D01*
X118295975Y-98108019D01*
X118304009Y-98075943D01*
X118315149Y-98044809D01*
X118329287Y-98014916D01*
X118346287Y-97986553D01*
X118365985Y-97959993D01*
X118388192Y-97935492D01*
X118412693Y-97913285D01*
X118439253Y-97893587D01*
X118467616Y-97876587D01*
X118497509Y-97862449D01*
X118528643Y-97851309D01*
X118560719Y-97843275D01*
X118593429Y-97838423D01*
X118626456Y-97836800D01*
X119752544Y-97836800D01*
X119785571Y-97838423D01*
X119785571Y-97838423D01*
G37*
D15*
X119189500Y-98611800D03*
G04 #@! TD*
D14*
G04 #@! TO.C,F1*
G36*
X144988291Y-103157803D02*
X145021001Y-103162655D01*
X145053077Y-103170689D01*
X145084211Y-103181829D01*
X145114104Y-103195967D01*
X145142467Y-103212967D01*
X145169027Y-103232665D01*
X145193528Y-103254872D01*
X145215735Y-103279373D01*
X145235433Y-103305933D01*
X145252433Y-103334296D01*
X145266571Y-103364189D01*
X145277711Y-103395323D01*
X145285745Y-103427399D01*
X145290597Y-103460109D01*
X145292220Y-103493136D01*
X145292220Y-104619224D01*
X145290597Y-104652251D01*
X145285745Y-104684961D01*
X145277711Y-104717037D01*
X145266571Y-104748171D01*
X145252433Y-104778064D01*
X145235433Y-104806427D01*
X145215735Y-104832987D01*
X145193528Y-104857488D01*
X145169027Y-104879695D01*
X145142467Y-104899393D01*
X145114104Y-104916393D01*
X145084211Y-104930531D01*
X145053077Y-104941671D01*
X145021001Y-104949705D01*
X144988291Y-104954557D01*
X144955264Y-104956180D01*
X144079176Y-104956180D01*
X144046149Y-104954557D01*
X144013439Y-104949705D01*
X143981363Y-104941671D01*
X143950229Y-104930531D01*
X143920336Y-104916393D01*
X143891973Y-104899393D01*
X143865413Y-104879695D01*
X143840912Y-104857488D01*
X143818705Y-104832987D01*
X143799007Y-104806427D01*
X143782007Y-104778064D01*
X143767869Y-104748171D01*
X143756729Y-104717037D01*
X143748695Y-104684961D01*
X143743843Y-104652251D01*
X143742220Y-104619224D01*
X143742220Y-103493136D01*
X143743843Y-103460109D01*
X143748695Y-103427399D01*
X143756729Y-103395323D01*
X143767869Y-103364189D01*
X143782007Y-103334296D01*
X143799007Y-103305933D01*
X143818705Y-103279373D01*
X143840912Y-103254872D01*
X143865413Y-103232665D01*
X143891973Y-103212967D01*
X143920336Y-103195967D01*
X143950229Y-103181829D01*
X143981363Y-103170689D01*
X144013439Y-103162655D01*
X144046149Y-103157803D01*
X144079176Y-103156180D01*
X144955264Y-103156180D01*
X144988291Y-103157803D01*
X144988291Y-103157803D01*
G37*
D15*
X144517220Y-104056180D03*
D14*
G36*
X142938291Y-103157803D02*
X142971001Y-103162655D01*
X143003077Y-103170689D01*
X143034211Y-103181829D01*
X143064104Y-103195967D01*
X143092467Y-103212967D01*
X143119027Y-103232665D01*
X143143528Y-103254872D01*
X143165735Y-103279373D01*
X143185433Y-103305933D01*
X143202433Y-103334296D01*
X143216571Y-103364189D01*
X143227711Y-103395323D01*
X143235745Y-103427399D01*
X143240597Y-103460109D01*
X143242220Y-103493136D01*
X143242220Y-104619224D01*
X143240597Y-104652251D01*
X143235745Y-104684961D01*
X143227711Y-104717037D01*
X143216571Y-104748171D01*
X143202433Y-104778064D01*
X143185433Y-104806427D01*
X143165735Y-104832987D01*
X143143528Y-104857488D01*
X143119027Y-104879695D01*
X143092467Y-104899393D01*
X143064104Y-104916393D01*
X143034211Y-104930531D01*
X143003077Y-104941671D01*
X142971001Y-104949705D01*
X142938291Y-104954557D01*
X142905264Y-104956180D01*
X142029176Y-104956180D01*
X141996149Y-104954557D01*
X141963439Y-104949705D01*
X141931363Y-104941671D01*
X141900229Y-104930531D01*
X141870336Y-104916393D01*
X141841973Y-104899393D01*
X141815413Y-104879695D01*
X141790912Y-104857488D01*
X141768705Y-104832987D01*
X141749007Y-104806427D01*
X141732007Y-104778064D01*
X141717869Y-104748171D01*
X141706729Y-104717037D01*
X141698695Y-104684961D01*
X141693843Y-104652251D01*
X141692220Y-104619224D01*
X141692220Y-103493136D01*
X141693843Y-103460109D01*
X141698695Y-103427399D01*
X141706729Y-103395323D01*
X141717869Y-103364189D01*
X141732007Y-103334296D01*
X141749007Y-103305933D01*
X141768705Y-103279373D01*
X141790912Y-103254872D01*
X141815413Y-103232665D01*
X141841973Y-103212967D01*
X141870336Y-103195967D01*
X141900229Y-103181829D01*
X141931363Y-103170689D01*
X141963439Y-103162655D01*
X141996149Y-103157803D01*
X142029176Y-103156180D01*
X142905264Y-103156180D01*
X142938291Y-103157803D01*
X142938291Y-103157803D01*
G37*
D15*
X142467220Y-104056180D03*
G04 #@! TD*
D16*
G04 #@! TO.C,J1*
X105727500Y-110998000D03*
X103187500Y-109728000D03*
X105727500Y-108458000D03*
X103187500Y-107188000D03*
X105727500Y-105918000D03*
X103187500Y-104648000D03*
X105727500Y-103378000D03*
D17*
X103187500Y-102108000D03*
D18*
X96837500Y-100838000D03*
X96837500Y-112268000D03*
G04 #@! TD*
D19*
G04 #@! TO.C,J2*
X112765680Y-99750160D03*
X114015680Y-99750160D03*
D20*
X110915680Y-96400160D03*
X115865680Y-96400160D03*
G04 #@! TD*
D18*
G04 #@! TO.C,J3*
X160782000Y-99504500D03*
X160782000Y-110934500D03*
D17*
X154432000Y-109664500D03*
D16*
X151892000Y-108394500D03*
X154432000Y-107124500D03*
X151892000Y-105854500D03*
X154432000Y-104584500D03*
X151892000Y-103314500D03*
X154432000Y-102044500D03*
X151892000Y-100774500D03*
G04 #@! TD*
D21*
G04 #@! TO.C,JP1*
X133413500Y-109332000D03*
D14*
G36*
X132464102Y-109325888D02*
X132464102Y-109307466D01*
X132465065Y-109287860D01*
X132469875Y-109239029D01*
X132472754Y-109219620D01*
X132482326Y-109171495D01*
X132487096Y-109152452D01*
X132501340Y-109105497D01*
X132507951Y-109087020D01*
X132526728Y-109041687D01*
X132535123Y-109023939D01*
X132558254Y-108980666D01*
X132568340Y-108963838D01*
X132595600Y-108923039D01*
X132607295Y-108907270D01*
X132638423Y-108869341D01*
X132651603Y-108854800D01*
X132686300Y-108820103D01*
X132700841Y-108806923D01*
X132738770Y-108775795D01*
X132754539Y-108764100D01*
X132795338Y-108736840D01*
X132812166Y-108726754D01*
X132855439Y-108703623D01*
X132873187Y-108695228D01*
X132918520Y-108676451D01*
X132936997Y-108669840D01*
X132983952Y-108655596D01*
X133002995Y-108650826D01*
X133051120Y-108641254D01*
X133070529Y-108638375D01*
X133119360Y-108633565D01*
X133138966Y-108632602D01*
X133157388Y-108632602D01*
X133163500Y-108632000D01*
X133663500Y-108632000D01*
X133669612Y-108632602D01*
X133688034Y-108632602D01*
X133707640Y-108633565D01*
X133756471Y-108638375D01*
X133775880Y-108641254D01*
X133824005Y-108650826D01*
X133843048Y-108655596D01*
X133890003Y-108669840D01*
X133908480Y-108676451D01*
X133953813Y-108695228D01*
X133971561Y-108703623D01*
X134014834Y-108726754D01*
X134031662Y-108736840D01*
X134072461Y-108764100D01*
X134088230Y-108775795D01*
X134126159Y-108806923D01*
X134140700Y-108820103D01*
X134175397Y-108854800D01*
X134188577Y-108869341D01*
X134219705Y-108907270D01*
X134231400Y-108923039D01*
X134258660Y-108963838D01*
X134268746Y-108980666D01*
X134291877Y-109023939D01*
X134300272Y-109041687D01*
X134319049Y-109087020D01*
X134325660Y-109105497D01*
X134339904Y-109152452D01*
X134344674Y-109171495D01*
X134354246Y-109219620D01*
X134357125Y-109239029D01*
X134361935Y-109287860D01*
X134362898Y-109307466D01*
X134362898Y-109325888D01*
X134363500Y-109332000D01*
X134363500Y-109832000D01*
X134359657Y-109871018D01*
X134348276Y-109908537D01*
X134329794Y-109943114D01*
X134304921Y-109973421D01*
X134274614Y-109998294D01*
X134240037Y-110016776D01*
X134202518Y-110028157D01*
X134163500Y-110032000D01*
X132663500Y-110032000D01*
X132624482Y-110028157D01*
X132586963Y-110016776D01*
X132552386Y-109998294D01*
X132522079Y-109973421D01*
X132497206Y-109943114D01*
X132478724Y-109908537D01*
X132467343Y-109871018D01*
X132463500Y-109832000D01*
X132463500Y-109332000D01*
X132464102Y-109325888D01*
X132464102Y-109325888D01*
G37*
D21*
X133413500Y-110632000D03*
D14*
G36*
X132467343Y-110092982D02*
X132478724Y-110055463D01*
X132497206Y-110020886D01*
X132522079Y-109990579D01*
X132552386Y-109965706D01*
X132586963Y-109947224D01*
X132624482Y-109935843D01*
X132663500Y-109932000D01*
X132913500Y-109932000D01*
X132913500Y-109732000D01*
X132917343Y-109692982D01*
X132928724Y-109655463D01*
X132947206Y-109620886D01*
X132972079Y-109590579D01*
X133002386Y-109565706D01*
X133036963Y-109547224D01*
X133074482Y-109535843D01*
X133113500Y-109532000D01*
X133713500Y-109532000D01*
X133752518Y-109535843D01*
X133790037Y-109547224D01*
X133824614Y-109565706D01*
X133854921Y-109590579D01*
X133879794Y-109620886D01*
X133898276Y-109655463D01*
X133909657Y-109692982D01*
X133913500Y-109732000D01*
X133913500Y-109932000D01*
X134163500Y-109932000D01*
X134202518Y-109935843D01*
X134240037Y-109947224D01*
X134274614Y-109965706D01*
X134304921Y-109990579D01*
X134329794Y-110020886D01*
X134348276Y-110055463D01*
X134359657Y-110092982D01*
X134363500Y-110132000D01*
X134363500Y-110632000D01*
X134362898Y-110638112D01*
X134362898Y-110656534D01*
X134361935Y-110676140D01*
X134357125Y-110724971D01*
X134354246Y-110744380D01*
X134344674Y-110792505D01*
X134339904Y-110811548D01*
X134325660Y-110858503D01*
X134319049Y-110876980D01*
X134300272Y-110922313D01*
X134291877Y-110940061D01*
X134268746Y-110983334D01*
X134258660Y-111000162D01*
X134231400Y-111040961D01*
X134219705Y-111056730D01*
X134188577Y-111094659D01*
X134175397Y-111109200D01*
X134140700Y-111143897D01*
X134126159Y-111157077D01*
X134088230Y-111188205D01*
X134072461Y-111199900D01*
X134031662Y-111227160D01*
X134014834Y-111237246D01*
X133971561Y-111260377D01*
X133953813Y-111268772D01*
X133908480Y-111287549D01*
X133890003Y-111294160D01*
X133843048Y-111308404D01*
X133824005Y-111313174D01*
X133775880Y-111322746D01*
X133756471Y-111325625D01*
X133707640Y-111330435D01*
X133688034Y-111331398D01*
X133669612Y-111331398D01*
X133663500Y-111332000D01*
X133163500Y-111332000D01*
X133157388Y-111331398D01*
X133138966Y-111331398D01*
X133119360Y-111330435D01*
X133070529Y-111325625D01*
X133051120Y-111322746D01*
X133002995Y-111313174D01*
X132983952Y-111308404D01*
X132936997Y-111294160D01*
X132918520Y-111287549D01*
X132873187Y-111268772D01*
X132855439Y-111260377D01*
X132812166Y-111237246D01*
X132795338Y-111227160D01*
X132754539Y-111199900D01*
X132738770Y-111188205D01*
X132700841Y-111157077D01*
X132686300Y-111143897D01*
X132651603Y-111109200D01*
X132638423Y-111094659D01*
X132607295Y-111056730D01*
X132595600Y-111040961D01*
X132568340Y-111000162D01*
X132558254Y-110983334D01*
X132535123Y-110940061D01*
X132526728Y-110922313D01*
X132507951Y-110876980D01*
X132501340Y-110858503D01*
X132487096Y-110811548D01*
X132482326Y-110792505D01*
X132472754Y-110744380D01*
X132469875Y-110724971D01*
X132465065Y-110676140D01*
X132464102Y-110656534D01*
X132464102Y-110638112D01*
X132463500Y-110632000D01*
X132463500Y-110132000D01*
X132467343Y-110092982D01*
X132467343Y-110092982D01*
G37*
G04 #@! TD*
D22*
G04 #@! TO.C,JP2*
X133413500Y-105966500D03*
X133413500Y-107266500D03*
G04 #@! TD*
D21*
G04 #@! TO.C,JP3*
X117483093Y-108315569D03*
D14*
G36*
X116536936Y-107776551D02*
X116548317Y-107739032D01*
X116566799Y-107704455D01*
X116591672Y-107674148D01*
X116621979Y-107649275D01*
X116656556Y-107630793D01*
X116694075Y-107619412D01*
X116733093Y-107615569D01*
X116983093Y-107615569D01*
X116983093Y-107415569D01*
X116986936Y-107376551D01*
X116998317Y-107339032D01*
X117016799Y-107304455D01*
X117041672Y-107274148D01*
X117071979Y-107249275D01*
X117106556Y-107230793D01*
X117144075Y-107219412D01*
X117183093Y-107215569D01*
X117783093Y-107215569D01*
X117822111Y-107219412D01*
X117859630Y-107230793D01*
X117894207Y-107249275D01*
X117924514Y-107274148D01*
X117949387Y-107304455D01*
X117967869Y-107339032D01*
X117979250Y-107376551D01*
X117983093Y-107415569D01*
X117983093Y-107615569D01*
X118233093Y-107615569D01*
X118272111Y-107619412D01*
X118309630Y-107630793D01*
X118344207Y-107649275D01*
X118374514Y-107674148D01*
X118399387Y-107704455D01*
X118417869Y-107739032D01*
X118429250Y-107776551D01*
X118433093Y-107815569D01*
X118433093Y-108315569D01*
X118432491Y-108321681D01*
X118432491Y-108340103D01*
X118431528Y-108359709D01*
X118426718Y-108408540D01*
X118423839Y-108427949D01*
X118414267Y-108476074D01*
X118409497Y-108495117D01*
X118395253Y-108542072D01*
X118388642Y-108560549D01*
X118369865Y-108605882D01*
X118361470Y-108623630D01*
X118338339Y-108666903D01*
X118328253Y-108683731D01*
X118300993Y-108724530D01*
X118289298Y-108740299D01*
X118258170Y-108778228D01*
X118244990Y-108792769D01*
X118210293Y-108827466D01*
X118195752Y-108840646D01*
X118157823Y-108871774D01*
X118142054Y-108883469D01*
X118101255Y-108910729D01*
X118084427Y-108920815D01*
X118041154Y-108943946D01*
X118023406Y-108952341D01*
X117978073Y-108971118D01*
X117959596Y-108977729D01*
X117912641Y-108991973D01*
X117893598Y-108996743D01*
X117845473Y-109006315D01*
X117826064Y-109009194D01*
X117777233Y-109014004D01*
X117757627Y-109014967D01*
X117739205Y-109014967D01*
X117733093Y-109015569D01*
X117233093Y-109015569D01*
X117226981Y-109014967D01*
X117208559Y-109014967D01*
X117188953Y-109014004D01*
X117140122Y-109009194D01*
X117120713Y-109006315D01*
X117072588Y-108996743D01*
X117053545Y-108991973D01*
X117006590Y-108977729D01*
X116988113Y-108971118D01*
X116942780Y-108952341D01*
X116925032Y-108943946D01*
X116881759Y-108920815D01*
X116864931Y-108910729D01*
X116824132Y-108883469D01*
X116808363Y-108871774D01*
X116770434Y-108840646D01*
X116755893Y-108827466D01*
X116721196Y-108792769D01*
X116708016Y-108778228D01*
X116676888Y-108740299D01*
X116665193Y-108724530D01*
X116637933Y-108683731D01*
X116627847Y-108666903D01*
X116604716Y-108623630D01*
X116596321Y-108605882D01*
X116577544Y-108560549D01*
X116570933Y-108542072D01*
X116556689Y-108495117D01*
X116551919Y-108476074D01*
X116542347Y-108427949D01*
X116539468Y-108408540D01*
X116534658Y-108359709D01*
X116533695Y-108340103D01*
X116533695Y-108321681D01*
X116533093Y-108315569D01*
X116533093Y-107815569D01*
X116536936Y-107776551D01*
X116536936Y-107776551D01*
G37*
D21*
X117483093Y-107015569D03*
D14*
G36*
X116533695Y-107009457D02*
X116533695Y-106991035D01*
X116534658Y-106971429D01*
X116539468Y-106922598D01*
X116542347Y-106903189D01*
X116551919Y-106855064D01*
X116556689Y-106836021D01*
X116570933Y-106789066D01*
X116577544Y-106770589D01*
X116596321Y-106725256D01*
X116604716Y-106707508D01*
X116627847Y-106664235D01*
X116637933Y-106647407D01*
X116665193Y-106606608D01*
X116676888Y-106590839D01*
X116708016Y-106552910D01*
X116721196Y-106538369D01*
X116755893Y-106503672D01*
X116770434Y-106490492D01*
X116808363Y-106459364D01*
X116824132Y-106447669D01*
X116864931Y-106420409D01*
X116881759Y-106410323D01*
X116925032Y-106387192D01*
X116942780Y-106378797D01*
X116988113Y-106360020D01*
X117006590Y-106353409D01*
X117053545Y-106339165D01*
X117072588Y-106334395D01*
X117120713Y-106324823D01*
X117140122Y-106321944D01*
X117188953Y-106317134D01*
X117208559Y-106316171D01*
X117226981Y-106316171D01*
X117233093Y-106315569D01*
X117733093Y-106315569D01*
X117739205Y-106316171D01*
X117757627Y-106316171D01*
X117777233Y-106317134D01*
X117826064Y-106321944D01*
X117845473Y-106324823D01*
X117893598Y-106334395D01*
X117912641Y-106339165D01*
X117959596Y-106353409D01*
X117978073Y-106360020D01*
X118023406Y-106378797D01*
X118041154Y-106387192D01*
X118084427Y-106410323D01*
X118101255Y-106420409D01*
X118142054Y-106447669D01*
X118157823Y-106459364D01*
X118195752Y-106490492D01*
X118210293Y-106503672D01*
X118244990Y-106538369D01*
X118258170Y-106552910D01*
X118289298Y-106590839D01*
X118300993Y-106606608D01*
X118328253Y-106647407D01*
X118338339Y-106664235D01*
X118361470Y-106707508D01*
X118369865Y-106725256D01*
X118388642Y-106770589D01*
X118395253Y-106789066D01*
X118409497Y-106836021D01*
X118414267Y-106855064D01*
X118423839Y-106903189D01*
X118426718Y-106922598D01*
X118431528Y-106971429D01*
X118432491Y-106991035D01*
X118432491Y-107009457D01*
X118433093Y-107015569D01*
X118433093Y-107515569D01*
X118429250Y-107554587D01*
X118417869Y-107592106D01*
X118399387Y-107626683D01*
X118374514Y-107656990D01*
X118344207Y-107681863D01*
X118309630Y-107700345D01*
X118272111Y-107711726D01*
X118233093Y-107715569D01*
X116733093Y-107715569D01*
X116694075Y-107711726D01*
X116656556Y-107700345D01*
X116621979Y-107681863D01*
X116591672Y-107656990D01*
X116566799Y-107626683D01*
X116548317Y-107592106D01*
X116536936Y-107554587D01*
X116533093Y-107515569D01*
X116533093Y-107015569D01*
X116533695Y-107009457D01*
X116533695Y-107009457D01*
G37*
G04 #@! TD*
D22*
G04 #@! TO.C,JP4*
X117144800Y-114485180D03*
X117144800Y-113185180D03*
G04 #@! TD*
D21*
G04 #@! TO.C,JP5*
X139955866Y-115027927D03*
D14*
G36*
X139009709Y-114488909D02*
X139021090Y-114451390D01*
X139039572Y-114416813D01*
X139064445Y-114386506D01*
X139094752Y-114361633D01*
X139129329Y-114343151D01*
X139166848Y-114331770D01*
X139205866Y-114327927D01*
X139455866Y-114327927D01*
X139455866Y-114127927D01*
X139459709Y-114088909D01*
X139471090Y-114051390D01*
X139489572Y-114016813D01*
X139514445Y-113986506D01*
X139544752Y-113961633D01*
X139579329Y-113943151D01*
X139616848Y-113931770D01*
X139655866Y-113927927D01*
X140255866Y-113927927D01*
X140294884Y-113931770D01*
X140332403Y-113943151D01*
X140366980Y-113961633D01*
X140397287Y-113986506D01*
X140422160Y-114016813D01*
X140440642Y-114051390D01*
X140452023Y-114088909D01*
X140455866Y-114127927D01*
X140455866Y-114327927D01*
X140705866Y-114327927D01*
X140744884Y-114331770D01*
X140782403Y-114343151D01*
X140816980Y-114361633D01*
X140847287Y-114386506D01*
X140872160Y-114416813D01*
X140890642Y-114451390D01*
X140902023Y-114488909D01*
X140905866Y-114527927D01*
X140905866Y-115027927D01*
X140905264Y-115034039D01*
X140905264Y-115052461D01*
X140904301Y-115072067D01*
X140899491Y-115120898D01*
X140896612Y-115140307D01*
X140887040Y-115188432D01*
X140882270Y-115207475D01*
X140868026Y-115254430D01*
X140861415Y-115272907D01*
X140842638Y-115318240D01*
X140834243Y-115335988D01*
X140811112Y-115379261D01*
X140801026Y-115396089D01*
X140773766Y-115436888D01*
X140762071Y-115452657D01*
X140730943Y-115490586D01*
X140717763Y-115505127D01*
X140683066Y-115539824D01*
X140668525Y-115553004D01*
X140630596Y-115584132D01*
X140614827Y-115595827D01*
X140574028Y-115623087D01*
X140557200Y-115633173D01*
X140513927Y-115656304D01*
X140496179Y-115664699D01*
X140450846Y-115683476D01*
X140432369Y-115690087D01*
X140385414Y-115704331D01*
X140366371Y-115709101D01*
X140318246Y-115718673D01*
X140298837Y-115721552D01*
X140250006Y-115726362D01*
X140230400Y-115727325D01*
X140211978Y-115727325D01*
X140205866Y-115727927D01*
X139705866Y-115727927D01*
X139699754Y-115727325D01*
X139681332Y-115727325D01*
X139661726Y-115726362D01*
X139612895Y-115721552D01*
X139593486Y-115718673D01*
X139545361Y-115709101D01*
X139526318Y-115704331D01*
X139479363Y-115690087D01*
X139460886Y-115683476D01*
X139415553Y-115664699D01*
X139397805Y-115656304D01*
X139354532Y-115633173D01*
X139337704Y-115623087D01*
X139296905Y-115595827D01*
X139281136Y-115584132D01*
X139243207Y-115553004D01*
X139228666Y-115539824D01*
X139193969Y-115505127D01*
X139180789Y-115490586D01*
X139149661Y-115452657D01*
X139137966Y-115436888D01*
X139110706Y-115396089D01*
X139100620Y-115379261D01*
X139077489Y-115335988D01*
X139069094Y-115318240D01*
X139050317Y-115272907D01*
X139043706Y-115254430D01*
X139029462Y-115207475D01*
X139024692Y-115188432D01*
X139015120Y-115140307D01*
X139012241Y-115120898D01*
X139007431Y-115072067D01*
X139006468Y-115052461D01*
X139006468Y-115034039D01*
X139005866Y-115027927D01*
X139005866Y-114527927D01*
X139009709Y-114488909D01*
X139009709Y-114488909D01*
G37*
D21*
X139955866Y-113727927D03*
D14*
G36*
X139006468Y-113721815D02*
X139006468Y-113703393D01*
X139007431Y-113683787D01*
X139012241Y-113634956D01*
X139015120Y-113615547D01*
X139024692Y-113567422D01*
X139029462Y-113548379D01*
X139043706Y-113501424D01*
X139050317Y-113482947D01*
X139069094Y-113437614D01*
X139077489Y-113419866D01*
X139100620Y-113376593D01*
X139110706Y-113359765D01*
X139137966Y-113318966D01*
X139149661Y-113303197D01*
X139180789Y-113265268D01*
X139193969Y-113250727D01*
X139228666Y-113216030D01*
X139243207Y-113202850D01*
X139281136Y-113171722D01*
X139296905Y-113160027D01*
X139337704Y-113132767D01*
X139354532Y-113122681D01*
X139397805Y-113099550D01*
X139415553Y-113091155D01*
X139460886Y-113072378D01*
X139479363Y-113065767D01*
X139526318Y-113051523D01*
X139545361Y-113046753D01*
X139593486Y-113037181D01*
X139612895Y-113034302D01*
X139661726Y-113029492D01*
X139681332Y-113028529D01*
X139699754Y-113028529D01*
X139705866Y-113027927D01*
X140205866Y-113027927D01*
X140211978Y-113028529D01*
X140230400Y-113028529D01*
X140250006Y-113029492D01*
X140298837Y-113034302D01*
X140318246Y-113037181D01*
X140366371Y-113046753D01*
X140385414Y-113051523D01*
X140432369Y-113065767D01*
X140450846Y-113072378D01*
X140496179Y-113091155D01*
X140513927Y-113099550D01*
X140557200Y-113122681D01*
X140574028Y-113132767D01*
X140614827Y-113160027D01*
X140630596Y-113171722D01*
X140668525Y-113202850D01*
X140683066Y-113216030D01*
X140717763Y-113250727D01*
X140730943Y-113265268D01*
X140762071Y-113303197D01*
X140773766Y-113318966D01*
X140801026Y-113359765D01*
X140811112Y-113376593D01*
X140834243Y-113419866D01*
X140842638Y-113437614D01*
X140861415Y-113482947D01*
X140868026Y-113501424D01*
X140882270Y-113548379D01*
X140887040Y-113567422D01*
X140896612Y-113615547D01*
X140899491Y-113634956D01*
X140904301Y-113683787D01*
X140905264Y-113703393D01*
X140905264Y-113721815D01*
X140905866Y-113727927D01*
X140905866Y-114227927D01*
X140902023Y-114266945D01*
X140890642Y-114304464D01*
X140872160Y-114339041D01*
X140847287Y-114369348D01*
X140816980Y-114394221D01*
X140782403Y-114412703D01*
X140744884Y-114424084D01*
X140705866Y-114427927D01*
X139205866Y-114427927D01*
X139166848Y-114424084D01*
X139129329Y-114412703D01*
X139094752Y-114394221D01*
X139064445Y-114369348D01*
X139039572Y-114339041D01*
X139021090Y-114304464D01*
X139009709Y-114266945D01*
X139005866Y-114227927D01*
X139005866Y-113727927D01*
X139006468Y-113721815D01*
X139006468Y-113721815D01*
G37*
G04 #@! TD*
D22*
G04 #@! TO.C,JP6*
X139955866Y-111822927D03*
X139955866Y-110522927D03*
G04 #@! TD*
D21*
G04 #@! TO.C,JP7*
X137352366Y-113649427D03*
D14*
G36*
X136402968Y-113643315D02*
X136402968Y-113624893D01*
X136403931Y-113605287D01*
X136408741Y-113556456D01*
X136411620Y-113537047D01*
X136421192Y-113488922D01*
X136425962Y-113469879D01*
X136440206Y-113422924D01*
X136446817Y-113404447D01*
X136465594Y-113359114D01*
X136473989Y-113341366D01*
X136497120Y-113298093D01*
X136507206Y-113281265D01*
X136534466Y-113240466D01*
X136546161Y-113224697D01*
X136577289Y-113186768D01*
X136590469Y-113172227D01*
X136625166Y-113137530D01*
X136639707Y-113124350D01*
X136677636Y-113093222D01*
X136693405Y-113081527D01*
X136734204Y-113054267D01*
X136751032Y-113044181D01*
X136794305Y-113021050D01*
X136812053Y-113012655D01*
X136857386Y-112993878D01*
X136875863Y-112987267D01*
X136922818Y-112973023D01*
X136941861Y-112968253D01*
X136989986Y-112958681D01*
X137009395Y-112955802D01*
X137058226Y-112950992D01*
X137077832Y-112950029D01*
X137096254Y-112950029D01*
X137102366Y-112949427D01*
X137602366Y-112949427D01*
X137608478Y-112950029D01*
X137626900Y-112950029D01*
X137646506Y-112950992D01*
X137695337Y-112955802D01*
X137714746Y-112958681D01*
X137762871Y-112968253D01*
X137781914Y-112973023D01*
X137828869Y-112987267D01*
X137847346Y-112993878D01*
X137892679Y-113012655D01*
X137910427Y-113021050D01*
X137953700Y-113044181D01*
X137970528Y-113054267D01*
X138011327Y-113081527D01*
X138027096Y-113093222D01*
X138065025Y-113124350D01*
X138079566Y-113137530D01*
X138114263Y-113172227D01*
X138127443Y-113186768D01*
X138158571Y-113224697D01*
X138170266Y-113240466D01*
X138197526Y-113281265D01*
X138207612Y-113298093D01*
X138230743Y-113341366D01*
X138239138Y-113359114D01*
X138257915Y-113404447D01*
X138264526Y-113422924D01*
X138278770Y-113469879D01*
X138283540Y-113488922D01*
X138293112Y-113537047D01*
X138295991Y-113556456D01*
X138300801Y-113605287D01*
X138301764Y-113624893D01*
X138301764Y-113643315D01*
X138302366Y-113649427D01*
X138302366Y-114149427D01*
X138298523Y-114188445D01*
X138287142Y-114225964D01*
X138268660Y-114260541D01*
X138243787Y-114290848D01*
X138213480Y-114315721D01*
X138178903Y-114334203D01*
X138141384Y-114345584D01*
X138102366Y-114349427D01*
X136602366Y-114349427D01*
X136563348Y-114345584D01*
X136525829Y-114334203D01*
X136491252Y-114315721D01*
X136460945Y-114290848D01*
X136436072Y-114260541D01*
X136417590Y-114225964D01*
X136406209Y-114188445D01*
X136402366Y-114149427D01*
X136402366Y-113649427D01*
X136402968Y-113643315D01*
X136402968Y-113643315D01*
G37*
D21*
X137352366Y-114949427D03*
D14*
G36*
X136406209Y-114410409D02*
X136417590Y-114372890D01*
X136436072Y-114338313D01*
X136460945Y-114308006D01*
X136491252Y-114283133D01*
X136525829Y-114264651D01*
X136563348Y-114253270D01*
X136602366Y-114249427D01*
X136852366Y-114249427D01*
X136852366Y-114049427D01*
X136856209Y-114010409D01*
X136867590Y-113972890D01*
X136886072Y-113938313D01*
X136910945Y-113908006D01*
X136941252Y-113883133D01*
X136975829Y-113864651D01*
X137013348Y-113853270D01*
X137052366Y-113849427D01*
X137652366Y-113849427D01*
X137691384Y-113853270D01*
X137728903Y-113864651D01*
X137763480Y-113883133D01*
X137793787Y-113908006D01*
X137818660Y-113938313D01*
X137837142Y-113972890D01*
X137848523Y-114010409D01*
X137852366Y-114049427D01*
X137852366Y-114249427D01*
X138102366Y-114249427D01*
X138141384Y-114253270D01*
X138178903Y-114264651D01*
X138213480Y-114283133D01*
X138243787Y-114308006D01*
X138268660Y-114338313D01*
X138287142Y-114372890D01*
X138298523Y-114410409D01*
X138302366Y-114449427D01*
X138302366Y-114949427D01*
X138301764Y-114955539D01*
X138301764Y-114973961D01*
X138300801Y-114993567D01*
X138295991Y-115042398D01*
X138293112Y-115061807D01*
X138283540Y-115109932D01*
X138278770Y-115128975D01*
X138264526Y-115175930D01*
X138257915Y-115194407D01*
X138239138Y-115239740D01*
X138230743Y-115257488D01*
X138207612Y-115300761D01*
X138197526Y-115317589D01*
X138170266Y-115358388D01*
X138158571Y-115374157D01*
X138127443Y-115412086D01*
X138114263Y-115426627D01*
X138079566Y-115461324D01*
X138065025Y-115474504D01*
X138027096Y-115505632D01*
X138011327Y-115517327D01*
X137970528Y-115544587D01*
X137953700Y-115554673D01*
X137910427Y-115577804D01*
X137892679Y-115586199D01*
X137847346Y-115604976D01*
X137828869Y-115611587D01*
X137781914Y-115625831D01*
X137762871Y-115630601D01*
X137714746Y-115640173D01*
X137695337Y-115643052D01*
X137646506Y-115647862D01*
X137626900Y-115648825D01*
X137608478Y-115648825D01*
X137602366Y-115649427D01*
X137102366Y-115649427D01*
X137096254Y-115648825D01*
X137077832Y-115648825D01*
X137058226Y-115647862D01*
X137009395Y-115643052D01*
X136989986Y-115640173D01*
X136941861Y-115630601D01*
X136922818Y-115625831D01*
X136875863Y-115611587D01*
X136857386Y-115604976D01*
X136812053Y-115586199D01*
X136794305Y-115577804D01*
X136751032Y-115554673D01*
X136734204Y-115544587D01*
X136693405Y-115517327D01*
X136677636Y-115505632D01*
X136639707Y-115474504D01*
X136625166Y-115461324D01*
X136590469Y-115426627D01*
X136577289Y-115412086D01*
X136546161Y-115374157D01*
X136534466Y-115358388D01*
X136507206Y-115317589D01*
X136497120Y-115300761D01*
X136473989Y-115257488D01*
X136465594Y-115239740D01*
X136446817Y-115194407D01*
X136440206Y-115175930D01*
X136425962Y-115128975D01*
X136421192Y-115109932D01*
X136411620Y-115061807D01*
X136408741Y-115042398D01*
X136403931Y-114993567D01*
X136402968Y-114973961D01*
X136402968Y-114955539D01*
X136402366Y-114949427D01*
X136402366Y-114449427D01*
X136406209Y-114410409D01*
X136406209Y-114410409D01*
G37*
G04 #@! TD*
D22*
G04 #@! TO.C,JP8*
X137352366Y-110537927D03*
X137352366Y-111837927D03*
G04 #@! TD*
D14*
G04 #@! TO.C,R1*
G36*
X139188631Y-95503943D02*
X139221341Y-95508795D01*
X139253417Y-95516829D01*
X139284551Y-95527969D01*
X139314444Y-95542107D01*
X139342807Y-95559107D01*
X139369367Y-95578805D01*
X139393868Y-95601012D01*
X139416075Y-95625513D01*
X139435773Y-95652073D01*
X139452773Y-95680436D01*
X139466911Y-95710329D01*
X139478051Y-95741463D01*
X139486085Y-95773539D01*
X139490937Y-95806249D01*
X139492560Y-95839276D01*
X139492560Y-96715364D01*
X139490937Y-96748391D01*
X139486085Y-96781101D01*
X139478051Y-96813177D01*
X139466911Y-96844311D01*
X139452773Y-96874204D01*
X139435773Y-96902567D01*
X139416075Y-96929127D01*
X139393868Y-96953628D01*
X139369367Y-96975835D01*
X139342807Y-96995533D01*
X139314444Y-97012533D01*
X139284551Y-97026671D01*
X139253417Y-97037811D01*
X139221341Y-97045845D01*
X139188631Y-97050697D01*
X139155604Y-97052320D01*
X138029516Y-97052320D01*
X137996489Y-97050697D01*
X137963779Y-97045845D01*
X137931703Y-97037811D01*
X137900569Y-97026671D01*
X137870676Y-97012533D01*
X137842313Y-96995533D01*
X137815753Y-96975835D01*
X137791252Y-96953628D01*
X137769045Y-96929127D01*
X137749347Y-96902567D01*
X137732347Y-96874204D01*
X137718209Y-96844311D01*
X137707069Y-96813177D01*
X137699035Y-96781101D01*
X137694183Y-96748391D01*
X137692560Y-96715364D01*
X137692560Y-95839276D01*
X137694183Y-95806249D01*
X137699035Y-95773539D01*
X137707069Y-95741463D01*
X137718209Y-95710329D01*
X137732347Y-95680436D01*
X137749347Y-95652073D01*
X137769045Y-95625513D01*
X137791252Y-95601012D01*
X137815753Y-95578805D01*
X137842313Y-95559107D01*
X137870676Y-95542107D01*
X137900569Y-95527969D01*
X137931703Y-95516829D01*
X137963779Y-95508795D01*
X137996489Y-95503943D01*
X138029516Y-95502320D01*
X139155604Y-95502320D01*
X139188631Y-95503943D01*
X139188631Y-95503943D01*
G37*
D15*
X138592560Y-96277320D03*
D14*
G36*
X139188631Y-97553943D02*
X139221341Y-97558795D01*
X139253417Y-97566829D01*
X139284551Y-97577969D01*
X139314444Y-97592107D01*
X139342807Y-97609107D01*
X139369367Y-97628805D01*
X139393868Y-97651012D01*
X139416075Y-97675513D01*
X139435773Y-97702073D01*
X139452773Y-97730436D01*
X139466911Y-97760329D01*
X139478051Y-97791463D01*
X139486085Y-97823539D01*
X139490937Y-97856249D01*
X139492560Y-97889276D01*
X139492560Y-98765364D01*
X139490937Y-98798391D01*
X139486085Y-98831101D01*
X139478051Y-98863177D01*
X139466911Y-98894311D01*
X139452773Y-98924204D01*
X139435773Y-98952567D01*
X139416075Y-98979127D01*
X139393868Y-99003628D01*
X139369367Y-99025835D01*
X139342807Y-99045533D01*
X139314444Y-99062533D01*
X139284551Y-99076671D01*
X139253417Y-99087811D01*
X139221341Y-99095845D01*
X139188631Y-99100697D01*
X139155604Y-99102320D01*
X138029516Y-99102320D01*
X137996489Y-99100697D01*
X137963779Y-99095845D01*
X137931703Y-99087811D01*
X137900569Y-99076671D01*
X137870676Y-99062533D01*
X137842313Y-99045533D01*
X137815753Y-99025835D01*
X137791252Y-99003628D01*
X137769045Y-98979127D01*
X137749347Y-98952567D01*
X137732347Y-98924204D01*
X137718209Y-98894311D01*
X137707069Y-98863177D01*
X137699035Y-98831101D01*
X137694183Y-98798391D01*
X137692560Y-98765364D01*
X137692560Y-97889276D01*
X137694183Y-97856249D01*
X137699035Y-97823539D01*
X137707069Y-97791463D01*
X137718209Y-97760329D01*
X137732347Y-97730436D01*
X137749347Y-97702073D01*
X137769045Y-97675513D01*
X137791252Y-97651012D01*
X137815753Y-97628805D01*
X137842313Y-97609107D01*
X137870676Y-97592107D01*
X137900569Y-97577969D01*
X137931703Y-97566829D01*
X137963779Y-97558795D01*
X137996489Y-97553943D01*
X138029516Y-97552320D01*
X139155604Y-97552320D01*
X139188631Y-97553943D01*
X139188631Y-97553943D01*
G37*
D15*
X138592560Y-98327320D03*
G04 #@! TD*
D14*
G04 #@! TO.C,R2*
G36*
X115101811Y-113958423D02*
X115134521Y-113963275D01*
X115166597Y-113971309D01*
X115197731Y-113982449D01*
X115227624Y-113996587D01*
X115255987Y-114013587D01*
X115282547Y-114033285D01*
X115307048Y-114055492D01*
X115329255Y-114079993D01*
X115348953Y-114106553D01*
X115365953Y-114134916D01*
X115380091Y-114164809D01*
X115391231Y-114195943D01*
X115399265Y-114228019D01*
X115404117Y-114260729D01*
X115405740Y-114293756D01*
X115405740Y-115169844D01*
X115404117Y-115202871D01*
X115399265Y-115235581D01*
X115391231Y-115267657D01*
X115380091Y-115298791D01*
X115365953Y-115328684D01*
X115348953Y-115357047D01*
X115329255Y-115383607D01*
X115307048Y-115408108D01*
X115282547Y-115430315D01*
X115255987Y-115450013D01*
X115227624Y-115467013D01*
X115197731Y-115481151D01*
X115166597Y-115492291D01*
X115134521Y-115500325D01*
X115101811Y-115505177D01*
X115068784Y-115506800D01*
X113942696Y-115506800D01*
X113909669Y-115505177D01*
X113876959Y-115500325D01*
X113844883Y-115492291D01*
X113813749Y-115481151D01*
X113783856Y-115467013D01*
X113755493Y-115450013D01*
X113728933Y-115430315D01*
X113704432Y-115408108D01*
X113682225Y-115383607D01*
X113662527Y-115357047D01*
X113645527Y-115328684D01*
X113631389Y-115298791D01*
X113620249Y-115267657D01*
X113612215Y-115235581D01*
X113607363Y-115202871D01*
X113605740Y-115169844D01*
X113605740Y-114293756D01*
X113607363Y-114260729D01*
X113612215Y-114228019D01*
X113620249Y-114195943D01*
X113631389Y-114164809D01*
X113645527Y-114134916D01*
X113662527Y-114106553D01*
X113682225Y-114079993D01*
X113704432Y-114055492D01*
X113728933Y-114033285D01*
X113755493Y-114013587D01*
X113783856Y-113996587D01*
X113813749Y-113982449D01*
X113844883Y-113971309D01*
X113876959Y-113963275D01*
X113909669Y-113958423D01*
X113942696Y-113956800D01*
X115068784Y-113956800D01*
X115101811Y-113958423D01*
X115101811Y-113958423D01*
G37*
D15*
X114505740Y-114731800D03*
D14*
G36*
X115101811Y-111908423D02*
X115134521Y-111913275D01*
X115166597Y-111921309D01*
X115197731Y-111932449D01*
X115227624Y-111946587D01*
X115255987Y-111963587D01*
X115282547Y-111983285D01*
X115307048Y-112005492D01*
X115329255Y-112029993D01*
X115348953Y-112056553D01*
X115365953Y-112084916D01*
X115380091Y-112114809D01*
X115391231Y-112145943D01*
X115399265Y-112178019D01*
X115404117Y-112210729D01*
X115405740Y-112243756D01*
X115405740Y-113119844D01*
X115404117Y-113152871D01*
X115399265Y-113185581D01*
X115391231Y-113217657D01*
X115380091Y-113248791D01*
X115365953Y-113278684D01*
X115348953Y-113307047D01*
X115329255Y-113333607D01*
X115307048Y-113358108D01*
X115282547Y-113380315D01*
X115255987Y-113400013D01*
X115227624Y-113417013D01*
X115197731Y-113431151D01*
X115166597Y-113442291D01*
X115134521Y-113450325D01*
X115101811Y-113455177D01*
X115068784Y-113456800D01*
X113942696Y-113456800D01*
X113909669Y-113455177D01*
X113876959Y-113450325D01*
X113844883Y-113442291D01*
X113813749Y-113431151D01*
X113783856Y-113417013D01*
X113755493Y-113400013D01*
X113728933Y-113380315D01*
X113704432Y-113358108D01*
X113682225Y-113333607D01*
X113662527Y-113307047D01*
X113645527Y-113278684D01*
X113631389Y-113248791D01*
X113620249Y-113217657D01*
X113612215Y-113185581D01*
X113607363Y-113152871D01*
X113605740Y-113119844D01*
X113605740Y-112243756D01*
X113607363Y-112210729D01*
X113612215Y-112178019D01*
X113620249Y-112145943D01*
X113631389Y-112114809D01*
X113645527Y-112084916D01*
X113662527Y-112056553D01*
X113682225Y-112029993D01*
X113704432Y-112005492D01*
X113728933Y-111983285D01*
X113755493Y-111963587D01*
X113783856Y-111946587D01*
X113813749Y-111932449D01*
X113844883Y-111921309D01*
X113876959Y-111913275D01*
X113909669Y-111908423D01*
X113942696Y-111906800D01*
X115068784Y-111906800D01*
X115101811Y-111908423D01*
X115101811Y-111908423D01*
G37*
D15*
X114505740Y-112681800D03*
G04 #@! TD*
D23*
G04 #@! TO.C,U1*
X130111500Y-107218500D03*
X128841500Y-107218500D03*
X127571500Y-107218500D03*
X126301500Y-107218500D03*
X125031500Y-107218500D03*
X123761500Y-107218500D03*
X122491500Y-107218500D03*
X122491500Y-112618500D03*
X123761500Y-112618500D03*
X125031500Y-112618500D03*
X126301500Y-112618500D03*
X127571500Y-112618500D03*
X128841500Y-112618500D03*
X130111500Y-112618500D03*
G04 #@! TD*
D10*
G04 #@! TO.C,REF\002A\002A*
X143418560Y-97439480D03*
G04 #@! TD*
M02*
