G04 #@! TF.GenerationSoftware,KiCad,Pcbnew,(5.0.0)*
G04 #@! TF.CreationDate,2019-01-08T22:48:22-05:00*
G04 #@! TF.ProjectId,PoE PSE,506F45205053452E6B696361645F7063,rev?*
G04 #@! TF.SameCoordinates,Original*
G04 #@! TF.FileFunction,Paste,Top*
G04 #@! TF.FilePolarity,Positive*
%FSLAX46Y46*%
G04 Gerber Fmt 4.6, Leading zero omitted, Abs format (unit mm)*
G04 Created by KiCad (PCBNEW (5.0.0)) date 01/08/19 22:48:22*
%MOMM*%
%LPD*%
G01*
G04 APERTURE LIST*
%ADD10R,2.500000X1.700000*%
%ADD11R,3.500000X3.000000*%
%ADD12R,0.900000X0.800000*%
%ADD13C,0.100000*%
%ADD14C,1.150000*%
%ADD15R,0.600000X1.700000*%
%ADD16R,1.000000X2.800000*%
%ADD17R,0.600000X1.500000*%
G04 APERTURE END LIST*
D10*
G04 #@! TO.C,D3*
X144113000Y-107315000D03*
X140113000Y-107315000D03*
G04 #@! TD*
D11*
G04 #@! TO.C,L1*
X134686040Y-97693480D03*
X124186040Y-97693480D03*
G04 #@! TD*
D12*
G04 #@! TO.C,D2*
X121078500Y-102547460D03*
X121078500Y-100647460D03*
X119078500Y-101597460D03*
G04 #@! TD*
D13*
G04 #@! TO.C,C1*
G36*
X120449598Y-108008773D02*
X120473866Y-108012373D01*
X120497665Y-108018334D01*
X120520764Y-108026599D01*
X120542943Y-108037089D01*
X120563986Y-108049701D01*
X120583692Y-108064316D01*
X120601870Y-108080792D01*
X120618346Y-108098970D01*
X120632961Y-108118676D01*
X120645573Y-108139719D01*
X120656063Y-108161898D01*
X120664328Y-108184997D01*
X120670289Y-108208796D01*
X120673889Y-108233064D01*
X120675093Y-108257568D01*
X120675093Y-108907570D01*
X120673889Y-108932074D01*
X120670289Y-108956342D01*
X120664328Y-108980141D01*
X120656063Y-109003240D01*
X120645573Y-109025419D01*
X120632961Y-109046462D01*
X120618346Y-109066168D01*
X120601870Y-109084346D01*
X120583692Y-109100822D01*
X120563986Y-109115437D01*
X120542943Y-109128049D01*
X120520764Y-109138539D01*
X120497665Y-109146804D01*
X120473866Y-109152765D01*
X120449598Y-109156365D01*
X120425094Y-109157569D01*
X119525092Y-109157569D01*
X119500588Y-109156365D01*
X119476320Y-109152765D01*
X119452521Y-109146804D01*
X119429422Y-109138539D01*
X119407243Y-109128049D01*
X119386200Y-109115437D01*
X119366494Y-109100822D01*
X119348316Y-109084346D01*
X119331840Y-109066168D01*
X119317225Y-109046462D01*
X119304613Y-109025419D01*
X119294123Y-109003240D01*
X119285858Y-108980141D01*
X119279897Y-108956342D01*
X119276297Y-108932074D01*
X119275093Y-108907570D01*
X119275093Y-108257568D01*
X119276297Y-108233064D01*
X119279897Y-108208796D01*
X119285858Y-108184997D01*
X119294123Y-108161898D01*
X119304613Y-108139719D01*
X119317225Y-108118676D01*
X119331840Y-108098970D01*
X119348316Y-108080792D01*
X119366494Y-108064316D01*
X119386200Y-108049701D01*
X119407243Y-108037089D01*
X119429422Y-108026599D01*
X119452521Y-108018334D01*
X119476320Y-108012373D01*
X119500588Y-108008773D01*
X119525092Y-108007569D01*
X120425094Y-108007569D01*
X120449598Y-108008773D01*
X120449598Y-108008773D01*
G37*
D14*
X119975093Y-108582569D03*
D13*
G36*
X120449598Y-105958773D02*
X120473866Y-105962373D01*
X120497665Y-105968334D01*
X120520764Y-105976599D01*
X120542943Y-105987089D01*
X120563986Y-105999701D01*
X120583692Y-106014316D01*
X120601870Y-106030792D01*
X120618346Y-106048970D01*
X120632961Y-106068676D01*
X120645573Y-106089719D01*
X120656063Y-106111898D01*
X120664328Y-106134997D01*
X120670289Y-106158796D01*
X120673889Y-106183064D01*
X120675093Y-106207568D01*
X120675093Y-106857570D01*
X120673889Y-106882074D01*
X120670289Y-106906342D01*
X120664328Y-106930141D01*
X120656063Y-106953240D01*
X120645573Y-106975419D01*
X120632961Y-106996462D01*
X120618346Y-107016168D01*
X120601870Y-107034346D01*
X120583692Y-107050822D01*
X120563986Y-107065437D01*
X120542943Y-107078049D01*
X120520764Y-107088539D01*
X120497665Y-107096804D01*
X120473866Y-107102765D01*
X120449598Y-107106365D01*
X120425094Y-107107569D01*
X119525092Y-107107569D01*
X119500588Y-107106365D01*
X119476320Y-107102765D01*
X119452521Y-107096804D01*
X119429422Y-107088539D01*
X119407243Y-107078049D01*
X119386200Y-107065437D01*
X119366494Y-107050822D01*
X119348316Y-107034346D01*
X119331840Y-107016168D01*
X119317225Y-106996462D01*
X119304613Y-106975419D01*
X119294123Y-106953240D01*
X119285858Y-106930141D01*
X119279897Y-106906342D01*
X119276297Y-106882074D01*
X119275093Y-106857570D01*
X119275093Y-106207568D01*
X119276297Y-106183064D01*
X119279897Y-106158796D01*
X119285858Y-106134997D01*
X119294123Y-106111898D01*
X119304613Y-106089719D01*
X119317225Y-106068676D01*
X119331840Y-106048970D01*
X119348316Y-106030792D01*
X119366494Y-106014316D01*
X119386200Y-105999701D01*
X119407243Y-105987089D01*
X119429422Y-105976599D01*
X119452521Y-105968334D01*
X119476320Y-105962373D01*
X119500588Y-105958773D01*
X119525092Y-105957569D01*
X120425094Y-105957569D01*
X120449598Y-105958773D01*
X120449598Y-105958773D01*
G37*
D14*
X119975093Y-106532569D03*
G04 #@! TD*
D13*
G04 #@! TO.C,C2*
G36*
X112818705Y-112147484D02*
X112842973Y-112151084D01*
X112866772Y-112157045D01*
X112889871Y-112165310D01*
X112912050Y-112175800D01*
X112933093Y-112188412D01*
X112952799Y-112203027D01*
X112970977Y-112219503D01*
X112987453Y-112237681D01*
X113002068Y-112257387D01*
X113014680Y-112278430D01*
X113025170Y-112300609D01*
X113033435Y-112323708D01*
X113039396Y-112347507D01*
X113042996Y-112371775D01*
X113044200Y-112396279D01*
X113044200Y-113046281D01*
X113042996Y-113070785D01*
X113039396Y-113095053D01*
X113033435Y-113118852D01*
X113025170Y-113141951D01*
X113014680Y-113164130D01*
X113002068Y-113185173D01*
X112987453Y-113204879D01*
X112970977Y-113223057D01*
X112952799Y-113239533D01*
X112933093Y-113254148D01*
X112912050Y-113266760D01*
X112889871Y-113277250D01*
X112866772Y-113285515D01*
X112842973Y-113291476D01*
X112818705Y-113295076D01*
X112794201Y-113296280D01*
X111894199Y-113296280D01*
X111869695Y-113295076D01*
X111845427Y-113291476D01*
X111821628Y-113285515D01*
X111798529Y-113277250D01*
X111776350Y-113266760D01*
X111755307Y-113254148D01*
X111735601Y-113239533D01*
X111717423Y-113223057D01*
X111700947Y-113204879D01*
X111686332Y-113185173D01*
X111673720Y-113164130D01*
X111663230Y-113141951D01*
X111654965Y-113118852D01*
X111649004Y-113095053D01*
X111645404Y-113070785D01*
X111644200Y-113046281D01*
X111644200Y-112396279D01*
X111645404Y-112371775D01*
X111649004Y-112347507D01*
X111654965Y-112323708D01*
X111663230Y-112300609D01*
X111673720Y-112278430D01*
X111686332Y-112257387D01*
X111700947Y-112237681D01*
X111717423Y-112219503D01*
X111735601Y-112203027D01*
X111755307Y-112188412D01*
X111776350Y-112175800D01*
X111798529Y-112165310D01*
X111821628Y-112157045D01*
X111845427Y-112151084D01*
X111869695Y-112147484D01*
X111894199Y-112146280D01*
X112794201Y-112146280D01*
X112818705Y-112147484D01*
X112818705Y-112147484D01*
G37*
D14*
X112344200Y-112721280D03*
D13*
G36*
X112818705Y-114197484D02*
X112842973Y-114201084D01*
X112866772Y-114207045D01*
X112889871Y-114215310D01*
X112912050Y-114225800D01*
X112933093Y-114238412D01*
X112952799Y-114253027D01*
X112970977Y-114269503D01*
X112987453Y-114287681D01*
X113002068Y-114307387D01*
X113014680Y-114328430D01*
X113025170Y-114350609D01*
X113033435Y-114373708D01*
X113039396Y-114397507D01*
X113042996Y-114421775D01*
X113044200Y-114446279D01*
X113044200Y-115096281D01*
X113042996Y-115120785D01*
X113039396Y-115145053D01*
X113033435Y-115168852D01*
X113025170Y-115191951D01*
X113014680Y-115214130D01*
X113002068Y-115235173D01*
X112987453Y-115254879D01*
X112970977Y-115273057D01*
X112952799Y-115289533D01*
X112933093Y-115304148D01*
X112912050Y-115316760D01*
X112889871Y-115327250D01*
X112866772Y-115335515D01*
X112842973Y-115341476D01*
X112818705Y-115345076D01*
X112794201Y-115346280D01*
X111894199Y-115346280D01*
X111869695Y-115345076D01*
X111845427Y-115341476D01*
X111821628Y-115335515D01*
X111798529Y-115327250D01*
X111776350Y-115316760D01*
X111755307Y-115304148D01*
X111735601Y-115289533D01*
X111717423Y-115273057D01*
X111700947Y-115254879D01*
X111686332Y-115235173D01*
X111673720Y-115214130D01*
X111663230Y-115191951D01*
X111654965Y-115168852D01*
X111649004Y-115145053D01*
X111645404Y-115120785D01*
X111644200Y-115096281D01*
X111644200Y-114446279D01*
X111645404Y-114421775D01*
X111649004Y-114397507D01*
X111654965Y-114373708D01*
X111663230Y-114350609D01*
X111673720Y-114328430D01*
X111686332Y-114307387D01*
X111700947Y-114287681D01*
X111717423Y-114269503D01*
X111735601Y-114253027D01*
X111755307Y-114238412D01*
X111776350Y-114225800D01*
X111798529Y-114215310D01*
X111821628Y-114207045D01*
X111845427Y-114201084D01*
X111869695Y-114197484D01*
X111894199Y-114196280D01*
X112794201Y-114196280D01*
X112818705Y-114197484D01*
X112818705Y-114197484D01*
G37*
D14*
X112344200Y-114771280D03*
G04 #@! TD*
D13*
G04 #@! TO.C,C3*
G36*
X126651005Y-114807704D02*
X126675273Y-114811304D01*
X126699072Y-114817265D01*
X126722171Y-114825530D01*
X126744350Y-114836020D01*
X126765393Y-114848632D01*
X126785099Y-114863247D01*
X126803277Y-114879723D01*
X126819753Y-114897901D01*
X126834368Y-114917607D01*
X126846980Y-114938650D01*
X126857470Y-114960829D01*
X126865735Y-114983928D01*
X126871696Y-115007727D01*
X126875296Y-115031995D01*
X126876500Y-115056499D01*
X126876500Y-115956501D01*
X126875296Y-115981005D01*
X126871696Y-116005273D01*
X126865735Y-116029072D01*
X126857470Y-116052171D01*
X126846980Y-116074350D01*
X126834368Y-116095393D01*
X126819753Y-116115099D01*
X126803277Y-116133277D01*
X126785099Y-116149753D01*
X126765393Y-116164368D01*
X126744350Y-116176980D01*
X126722171Y-116187470D01*
X126699072Y-116195735D01*
X126675273Y-116201696D01*
X126651005Y-116205296D01*
X126626501Y-116206500D01*
X125976499Y-116206500D01*
X125951995Y-116205296D01*
X125927727Y-116201696D01*
X125903928Y-116195735D01*
X125880829Y-116187470D01*
X125858650Y-116176980D01*
X125837607Y-116164368D01*
X125817901Y-116149753D01*
X125799723Y-116133277D01*
X125783247Y-116115099D01*
X125768632Y-116095393D01*
X125756020Y-116074350D01*
X125745530Y-116052171D01*
X125737265Y-116029072D01*
X125731304Y-116005273D01*
X125727704Y-115981005D01*
X125726500Y-115956501D01*
X125726500Y-115056499D01*
X125727704Y-115031995D01*
X125731304Y-115007727D01*
X125737265Y-114983928D01*
X125745530Y-114960829D01*
X125756020Y-114938650D01*
X125768632Y-114917607D01*
X125783247Y-114897901D01*
X125799723Y-114879723D01*
X125817901Y-114863247D01*
X125837607Y-114848632D01*
X125858650Y-114836020D01*
X125880829Y-114825530D01*
X125903928Y-114817265D01*
X125927727Y-114811304D01*
X125951995Y-114807704D01*
X125976499Y-114806500D01*
X126626501Y-114806500D01*
X126651005Y-114807704D01*
X126651005Y-114807704D01*
G37*
D14*
X126301500Y-115506500D03*
D13*
G36*
X128701005Y-114807704D02*
X128725273Y-114811304D01*
X128749072Y-114817265D01*
X128772171Y-114825530D01*
X128794350Y-114836020D01*
X128815393Y-114848632D01*
X128835099Y-114863247D01*
X128853277Y-114879723D01*
X128869753Y-114897901D01*
X128884368Y-114917607D01*
X128896980Y-114938650D01*
X128907470Y-114960829D01*
X128915735Y-114983928D01*
X128921696Y-115007727D01*
X128925296Y-115031995D01*
X128926500Y-115056499D01*
X128926500Y-115956501D01*
X128925296Y-115981005D01*
X128921696Y-116005273D01*
X128915735Y-116029072D01*
X128907470Y-116052171D01*
X128896980Y-116074350D01*
X128884368Y-116095393D01*
X128869753Y-116115099D01*
X128853277Y-116133277D01*
X128835099Y-116149753D01*
X128815393Y-116164368D01*
X128794350Y-116176980D01*
X128772171Y-116187470D01*
X128749072Y-116195735D01*
X128725273Y-116201696D01*
X128701005Y-116205296D01*
X128676501Y-116206500D01*
X128026499Y-116206500D01*
X128001995Y-116205296D01*
X127977727Y-116201696D01*
X127953928Y-116195735D01*
X127930829Y-116187470D01*
X127908650Y-116176980D01*
X127887607Y-116164368D01*
X127867901Y-116149753D01*
X127849723Y-116133277D01*
X127833247Y-116115099D01*
X127818632Y-116095393D01*
X127806020Y-116074350D01*
X127795530Y-116052171D01*
X127787265Y-116029072D01*
X127781304Y-116005273D01*
X127777704Y-115981005D01*
X127776500Y-115956501D01*
X127776500Y-115056499D01*
X127777704Y-115031995D01*
X127781304Y-115007727D01*
X127787265Y-114983928D01*
X127795530Y-114960829D01*
X127806020Y-114938650D01*
X127818632Y-114917607D01*
X127833247Y-114897901D01*
X127849723Y-114879723D01*
X127867901Y-114863247D01*
X127887607Y-114848632D01*
X127908650Y-114836020D01*
X127930829Y-114825530D01*
X127953928Y-114817265D01*
X127977727Y-114811304D01*
X128001995Y-114807704D01*
X128026499Y-114806500D01*
X128676501Y-114806500D01*
X128701005Y-114807704D01*
X128701005Y-114807704D01*
G37*
D14*
X128351500Y-115506500D03*
G04 #@! TD*
D13*
G04 #@! TO.C,C4*
G36*
X133824505Y-112129704D02*
X133848773Y-112133304D01*
X133872572Y-112139265D01*
X133895671Y-112147530D01*
X133917850Y-112158020D01*
X133938893Y-112170632D01*
X133958599Y-112185247D01*
X133976777Y-112201723D01*
X133993253Y-112219901D01*
X134007868Y-112239607D01*
X134020480Y-112260650D01*
X134030970Y-112282829D01*
X134039235Y-112305928D01*
X134045196Y-112329727D01*
X134048796Y-112353995D01*
X134050000Y-112378499D01*
X134050000Y-113028501D01*
X134048796Y-113053005D01*
X134045196Y-113077273D01*
X134039235Y-113101072D01*
X134030970Y-113124171D01*
X134020480Y-113146350D01*
X134007868Y-113167393D01*
X133993253Y-113187099D01*
X133976777Y-113205277D01*
X133958599Y-113221753D01*
X133938893Y-113236368D01*
X133917850Y-113248980D01*
X133895671Y-113259470D01*
X133872572Y-113267735D01*
X133848773Y-113273696D01*
X133824505Y-113277296D01*
X133800001Y-113278500D01*
X132899999Y-113278500D01*
X132875495Y-113277296D01*
X132851227Y-113273696D01*
X132827428Y-113267735D01*
X132804329Y-113259470D01*
X132782150Y-113248980D01*
X132761107Y-113236368D01*
X132741401Y-113221753D01*
X132723223Y-113205277D01*
X132706747Y-113187099D01*
X132692132Y-113167393D01*
X132679520Y-113146350D01*
X132669030Y-113124171D01*
X132660765Y-113101072D01*
X132654804Y-113077273D01*
X132651204Y-113053005D01*
X132650000Y-113028501D01*
X132650000Y-112378499D01*
X132651204Y-112353995D01*
X132654804Y-112329727D01*
X132660765Y-112305928D01*
X132669030Y-112282829D01*
X132679520Y-112260650D01*
X132692132Y-112239607D01*
X132706747Y-112219901D01*
X132723223Y-112201723D01*
X132741401Y-112185247D01*
X132761107Y-112170632D01*
X132782150Y-112158020D01*
X132804329Y-112147530D01*
X132827428Y-112139265D01*
X132851227Y-112133304D01*
X132875495Y-112129704D01*
X132899999Y-112128500D01*
X133800001Y-112128500D01*
X133824505Y-112129704D01*
X133824505Y-112129704D01*
G37*
D14*
X133350000Y-112703500D03*
D13*
G36*
X133824505Y-114179704D02*
X133848773Y-114183304D01*
X133872572Y-114189265D01*
X133895671Y-114197530D01*
X133917850Y-114208020D01*
X133938893Y-114220632D01*
X133958599Y-114235247D01*
X133976777Y-114251723D01*
X133993253Y-114269901D01*
X134007868Y-114289607D01*
X134020480Y-114310650D01*
X134030970Y-114332829D01*
X134039235Y-114355928D01*
X134045196Y-114379727D01*
X134048796Y-114403995D01*
X134050000Y-114428499D01*
X134050000Y-115078501D01*
X134048796Y-115103005D01*
X134045196Y-115127273D01*
X134039235Y-115151072D01*
X134030970Y-115174171D01*
X134020480Y-115196350D01*
X134007868Y-115217393D01*
X133993253Y-115237099D01*
X133976777Y-115255277D01*
X133958599Y-115271753D01*
X133938893Y-115286368D01*
X133917850Y-115298980D01*
X133895671Y-115309470D01*
X133872572Y-115317735D01*
X133848773Y-115323696D01*
X133824505Y-115327296D01*
X133800001Y-115328500D01*
X132899999Y-115328500D01*
X132875495Y-115327296D01*
X132851227Y-115323696D01*
X132827428Y-115317735D01*
X132804329Y-115309470D01*
X132782150Y-115298980D01*
X132761107Y-115286368D01*
X132741401Y-115271753D01*
X132723223Y-115255277D01*
X132706747Y-115237099D01*
X132692132Y-115217393D01*
X132679520Y-115196350D01*
X132669030Y-115174171D01*
X132660765Y-115151072D01*
X132654804Y-115127273D01*
X132651204Y-115103005D01*
X132650000Y-115078501D01*
X132650000Y-114428499D01*
X132651204Y-114403995D01*
X132654804Y-114379727D01*
X132660765Y-114355928D01*
X132669030Y-114332829D01*
X132679520Y-114310650D01*
X132692132Y-114289607D01*
X132706747Y-114269901D01*
X132723223Y-114251723D01*
X132741401Y-114235247D01*
X132761107Y-114220632D01*
X132782150Y-114208020D01*
X132804329Y-114197530D01*
X132827428Y-114189265D01*
X132851227Y-114183304D01*
X132875495Y-114179704D01*
X132899999Y-114178500D01*
X133800001Y-114178500D01*
X133824505Y-114179704D01*
X133824505Y-114179704D01*
G37*
D14*
X133350000Y-114753500D03*
G04 #@! TD*
D13*
G04 #@! TO.C,C5*
G36*
X147545585Y-105437024D02*
X147569853Y-105440624D01*
X147593652Y-105446585D01*
X147616751Y-105454850D01*
X147638930Y-105465340D01*
X147659973Y-105477952D01*
X147679679Y-105492567D01*
X147697857Y-105509043D01*
X147714333Y-105527221D01*
X147728948Y-105546927D01*
X147741560Y-105567970D01*
X147752050Y-105590149D01*
X147760315Y-105613248D01*
X147766276Y-105637047D01*
X147769876Y-105661315D01*
X147771080Y-105685819D01*
X147771080Y-106335821D01*
X147769876Y-106360325D01*
X147766276Y-106384593D01*
X147760315Y-106408392D01*
X147752050Y-106431491D01*
X147741560Y-106453670D01*
X147728948Y-106474713D01*
X147714333Y-106494419D01*
X147697857Y-106512597D01*
X147679679Y-106529073D01*
X147659973Y-106543688D01*
X147638930Y-106556300D01*
X147616751Y-106566790D01*
X147593652Y-106575055D01*
X147569853Y-106581016D01*
X147545585Y-106584616D01*
X147521081Y-106585820D01*
X146621079Y-106585820D01*
X146596575Y-106584616D01*
X146572307Y-106581016D01*
X146548508Y-106575055D01*
X146525409Y-106566790D01*
X146503230Y-106556300D01*
X146482187Y-106543688D01*
X146462481Y-106529073D01*
X146444303Y-106512597D01*
X146427827Y-106494419D01*
X146413212Y-106474713D01*
X146400600Y-106453670D01*
X146390110Y-106431491D01*
X146381845Y-106408392D01*
X146375884Y-106384593D01*
X146372284Y-106360325D01*
X146371080Y-106335821D01*
X146371080Y-105685819D01*
X146372284Y-105661315D01*
X146375884Y-105637047D01*
X146381845Y-105613248D01*
X146390110Y-105590149D01*
X146400600Y-105567970D01*
X146413212Y-105546927D01*
X146427827Y-105527221D01*
X146444303Y-105509043D01*
X146462481Y-105492567D01*
X146482187Y-105477952D01*
X146503230Y-105465340D01*
X146525409Y-105454850D01*
X146548508Y-105446585D01*
X146572307Y-105440624D01*
X146596575Y-105437024D01*
X146621079Y-105435820D01*
X147521081Y-105435820D01*
X147545585Y-105437024D01*
X147545585Y-105437024D01*
G37*
D14*
X147071080Y-106010820D03*
D13*
G36*
X147545585Y-103387024D02*
X147569853Y-103390624D01*
X147593652Y-103396585D01*
X147616751Y-103404850D01*
X147638930Y-103415340D01*
X147659973Y-103427952D01*
X147679679Y-103442567D01*
X147697857Y-103459043D01*
X147714333Y-103477221D01*
X147728948Y-103496927D01*
X147741560Y-103517970D01*
X147752050Y-103540149D01*
X147760315Y-103563248D01*
X147766276Y-103587047D01*
X147769876Y-103611315D01*
X147771080Y-103635819D01*
X147771080Y-104285821D01*
X147769876Y-104310325D01*
X147766276Y-104334593D01*
X147760315Y-104358392D01*
X147752050Y-104381491D01*
X147741560Y-104403670D01*
X147728948Y-104424713D01*
X147714333Y-104444419D01*
X147697857Y-104462597D01*
X147679679Y-104479073D01*
X147659973Y-104493688D01*
X147638930Y-104506300D01*
X147616751Y-104516790D01*
X147593652Y-104525055D01*
X147569853Y-104531016D01*
X147545585Y-104534616D01*
X147521081Y-104535820D01*
X146621079Y-104535820D01*
X146596575Y-104534616D01*
X146572307Y-104531016D01*
X146548508Y-104525055D01*
X146525409Y-104516790D01*
X146503230Y-104506300D01*
X146482187Y-104493688D01*
X146462481Y-104479073D01*
X146444303Y-104462597D01*
X146427827Y-104444419D01*
X146413212Y-104424713D01*
X146400600Y-104403670D01*
X146390110Y-104381491D01*
X146381845Y-104358392D01*
X146375884Y-104334593D01*
X146372284Y-104310325D01*
X146371080Y-104285821D01*
X146371080Y-103635819D01*
X146372284Y-103611315D01*
X146375884Y-103587047D01*
X146381845Y-103563248D01*
X146390110Y-103540149D01*
X146400600Y-103517970D01*
X146413212Y-103496927D01*
X146427827Y-103477221D01*
X146444303Y-103459043D01*
X146462481Y-103442567D01*
X146482187Y-103427952D01*
X146503230Y-103415340D01*
X146525409Y-103404850D01*
X146548508Y-103396585D01*
X146572307Y-103390624D01*
X146596575Y-103387024D01*
X146621079Y-103385820D01*
X147521081Y-103385820D01*
X147545585Y-103387024D01*
X147545585Y-103387024D01*
G37*
D14*
X147071080Y-103960820D03*
G04 #@! TD*
D13*
G04 #@! TO.C,D1*
G36*
X119664005Y-95988004D02*
X119688273Y-95991604D01*
X119712072Y-95997565D01*
X119735171Y-96005830D01*
X119757350Y-96016320D01*
X119778393Y-96028932D01*
X119798099Y-96043547D01*
X119816277Y-96060023D01*
X119832753Y-96078201D01*
X119847368Y-96097907D01*
X119859980Y-96118950D01*
X119870470Y-96141129D01*
X119878735Y-96164228D01*
X119884696Y-96188027D01*
X119888296Y-96212295D01*
X119889500Y-96236799D01*
X119889500Y-96886801D01*
X119888296Y-96911305D01*
X119884696Y-96935573D01*
X119878735Y-96959372D01*
X119870470Y-96982471D01*
X119859980Y-97004650D01*
X119847368Y-97025693D01*
X119832753Y-97045399D01*
X119816277Y-97063577D01*
X119798099Y-97080053D01*
X119778393Y-97094668D01*
X119757350Y-97107280D01*
X119735171Y-97117770D01*
X119712072Y-97126035D01*
X119688273Y-97131996D01*
X119664005Y-97135596D01*
X119639501Y-97136800D01*
X118739499Y-97136800D01*
X118714995Y-97135596D01*
X118690727Y-97131996D01*
X118666928Y-97126035D01*
X118643829Y-97117770D01*
X118621650Y-97107280D01*
X118600607Y-97094668D01*
X118580901Y-97080053D01*
X118562723Y-97063577D01*
X118546247Y-97045399D01*
X118531632Y-97025693D01*
X118519020Y-97004650D01*
X118508530Y-96982471D01*
X118500265Y-96959372D01*
X118494304Y-96935573D01*
X118490704Y-96911305D01*
X118489500Y-96886801D01*
X118489500Y-96236799D01*
X118490704Y-96212295D01*
X118494304Y-96188027D01*
X118500265Y-96164228D01*
X118508530Y-96141129D01*
X118519020Y-96118950D01*
X118531632Y-96097907D01*
X118546247Y-96078201D01*
X118562723Y-96060023D01*
X118580901Y-96043547D01*
X118600607Y-96028932D01*
X118621650Y-96016320D01*
X118643829Y-96005830D01*
X118666928Y-95997565D01*
X118690727Y-95991604D01*
X118714995Y-95988004D01*
X118739499Y-95986800D01*
X119639501Y-95986800D01*
X119664005Y-95988004D01*
X119664005Y-95988004D01*
G37*
D14*
X119189500Y-96561800D03*
D13*
G36*
X119664005Y-98038004D02*
X119688273Y-98041604D01*
X119712072Y-98047565D01*
X119735171Y-98055830D01*
X119757350Y-98066320D01*
X119778393Y-98078932D01*
X119798099Y-98093547D01*
X119816277Y-98110023D01*
X119832753Y-98128201D01*
X119847368Y-98147907D01*
X119859980Y-98168950D01*
X119870470Y-98191129D01*
X119878735Y-98214228D01*
X119884696Y-98238027D01*
X119888296Y-98262295D01*
X119889500Y-98286799D01*
X119889500Y-98936801D01*
X119888296Y-98961305D01*
X119884696Y-98985573D01*
X119878735Y-99009372D01*
X119870470Y-99032471D01*
X119859980Y-99054650D01*
X119847368Y-99075693D01*
X119832753Y-99095399D01*
X119816277Y-99113577D01*
X119798099Y-99130053D01*
X119778393Y-99144668D01*
X119757350Y-99157280D01*
X119735171Y-99167770D01*
X119712072Y-99176035D01*
X119688273Y-99181996D01*
X119664005Y-99185596D01*
X119639501Y-99186800D01*
X118739499Y-99186800D01*
X118714995Y-99185596D01*
X118690727Y-99181996D01*
X118666928Y-99176035D01*
X118643829Y-99167770D01*
X118621650Y-99157280D01*
X118600607Y-99144668D01*
X118580901Y-99130053D01*
X118562723Y-99113577D01*
X118546247Y-99095399D01*
X118531632Y-99075693D01*
X118519020Y-99054650D01*
X118508530Y-99032471D01*
X118500265Y-99009372D01*
X118494304Y-98985573D01*
X118490704Y-98961305D01*
X118489500Y-98936801D01*
X118489500Y-98286799D01*
X118490704Y-98262295D01*
X118494304Y-98238027D01*
X118500265Y-98214228D01*
X118508530Y-98191129D01*
X118519020Y-98168950D01*
X118531632Y-98147907D01*
X118546247Y-98128201D01*
X118562723Y-98110023D01*
X118580901Y-98093547D01*
X118600607Y-98078932D01*
X118621650Y-98066320D01*
X118643829Y-98055830D01*
X118666928Y-98047565D01*
X118690727Y-98041604D01*
X118714995Y-98038004D01*
X118739499Y-98036800D01*
X119639501Y-98036800D01*
X119664005Y-98038004D01*
X119664005Y-98038004D01*
G37*
D14*
X119189500Y-98611800D03*
G04 #@! TD*
D13*
G04 #@! TO.C,F1*
G36*
X144866725Y-103357384D02*
X144890993Y-103360984D01*
X144914792Y-103366945D01*
X144937891Y-103375210D01*
X144960070Y-103385700D01*
X144981113Y-103398312D01*
X145000819Y-103412927D01*
X145018997Y-103429403D01*
X145035473Y-103447581D01*
X145050088Y-103467287D01*
X145062700Y-103488330D01*
X145073190Y-103510509D01*
X145081455Y-103533608D01*
X145087416Y-103557407D01*
X145091016Y-103581675D01*
X145092220Y-103606179D01*
X145092220Y-104506181D01*
X145091016Y-104530685D01*
X145087416Y-104554953D01*
X145081455Y-104578752D01*
X145073190Y-104601851D01*
X145062700Y-104624030D01*
X145050088Y-104645073D01*
X145035473Y-104664779D01*
X145018997Y-104682957D01*
X145000819Y-104699433D01*
X144981113Y-104714048D01*
X144960070Y-104726660D01*
X144937891Y-104737150D01*
X144914792Y-104745415D01*
X144890993Y-104751376D01*
X144866725Y-104754976D01*
X144842221Y-104756180D01*
X144192219Y-104756180D01*
X144167715Y-104754976D01*
X144143447Y-104751376D01*
X144119648Y-104745415D01*
X144096549Y-104737150D01*
X144074370Y-104726660D01*
X144053327Y-104714048D01*
X144033621Y-104699433D01*
X144015443Y-104682957D01*
X143998967Y-104664779D01*
X143984352Y-104645073D01*
X143971740Y-104624030D01*
X143961250Y-104601851D01*
X143952985Y-104578752D01*
X143947024Y-104554953D01*
X143943424Y-104530685D01*
X143942220Y-104506181D01*
X143942220Y-103606179D01*
X143943424Y-103581675D01*
X143947024Y-103557407D01*
X143952985Y-103533608D01*
X143961250Y-103510509D01*
X143971740Y-103488330D01*
X143984352Y-103467287D01*
X143998967Y-103447581D01*
X144015443Y-103429403D01*
X144033621Y-103412927D01*
X144053327Y-103398312D01*
X144074370Y-103385700D01*
X144096549Y-103375210D01*
X144119648Y-103366945D01*
X144143447Y-103360984D01*
X144167715Y-103357384D01*
X144192219Y-103356180D01*
X144842221Y-103356180D01*
X144866725Y-103357384D01*
X144866725Y-103357384D01*
G37*
D14*
X144517220Y-104056180D03*
D13*
G36*
X142816725Y-103357384D02*
X142840993Y-103360984D01*
X142864792Y-103366945D01*
X142887891Y-103375210D01*
X142910070Y-103385700D01*
X142931113Y-103398312D01*
X142950819Y-103412927D01*
X142968997Y-103429403D01*
X142985473Y-103447581D01*
X143000088Y-103467287D01*
X143012700Y-103488330D01*
X143023190Y-103510509D01*
X143031455Y-103533608D01*
X143037416Y-103557407D01*
X143041016Y-103581675D01*
X143042220Y-103606179D01*
X143042220Y-104506181D01*
X143041016Y-104530685D01*
X143037416Y-104554953D01*
X143031455Y-104578752D01*
X143023190Y-104601851D01*
X143012700Y-104624030D01*
X143000088Y-104645073D01*
X142985473Y-104664779D01*
X142968997Y-104682957D01*
X142950819Y-104699433D01*
X142931113Y-104714048D01*
X142910070Y-104726660D01*
X142887891Y-104737150D01*
X142864792Y-104745415D01*
X142840993Y-104751376D01*
X142816725Y-104754976D01*
X142792221Y-104756180D01*
X142142219Y-104756180D01*
X142117715Y-104754976D01*
X142093447Y-104751376D01*
X142069648Y-104745415D01*
X142046549Y-104737150D01*
X142024370Y-104726660D01*
X142003327Y-104714048D01*
X141983621Y-104699433D01*
X141965443Y-104682957D01*
X141948967Y-104664779D01*
X141934352Y-104645073D01*
X141921740Y-104624030D01*
X141911250Y-104601851D01*
X141902985Y-104578752D01*
X141897024Y-104554953D01*
X141893424Y-104530685D01*
X141892220Y-104506181D01*
X141892220Y-103606179D01*
X141893424Y-103581675D01*
X141897024Y-103557407D01*
X141902985Y-103533608D01*
X141911250Y-103510509D01*
X141921740Y-103488330D01*
X141934352Y-103467287D01*
X141948967Y-103447581D01*
X141965443Y-103429403D01*
X141983621Y-103412927D01*
X142003327Y-103398312D01*
X142024370Y-103385700D01*
X142046549Y-103375210D01*
X142069648Y-103366945D01*
X142093447Y-103360984D01*
X142117715Y-103357384D01*
X142142219Y-103356180D01*
X142792221Y-103356180D01*
X142816725Y-103357384D01*
X142816725Y-103357384D01*
G37*
D14*
X142467220Y-104056180D03*
G04 #@! TD*
D15*
G04 #@! TO.C,J2*
X112765680Y-99750160D03*
X114015680Y-99750160D03*
D16*
X110915680Y-96400160D03*
X115865680Y-96400160D03*
G04 #@! TD*
D13*
G04 #@! TO.C,R1*
G36*
X139067065Y-95703524D02*
X139091333Y-95707124D01*
X139115132Y-95713085D01*
X139138231Y-95721350D01*
X139160410Y-95731840D01*
X139181453Y-95744452D01*
X139201159Y-95759067D01*
X139219337Y-95775543D01*
X139235813Y-95793721D01*
X139250428Y-95813427D01*
X139263040Y-95834470D01*
X139273530Y-95856649D01*
X139281795Y-95879748D01*
X139287756Y-95903547D01*
X139291356Y-95927815D01*
X139292560Y-95952319D01*
X139292560Y-96602321D01*
X139291356Y-96626825D01*
X139287756Y-96651093D01*
X139281795Y-96674892D01*
X139273530Y-96697991D01*
X139263040Y-96720170D01*
X139250428Y-96741213D01*
X139235813Y-96760919D01*
X139219337Y-96779097D01*
X139201159Y-96795573D01*
X139181453Y-96810188D01*
X139160410Y-96822800D01*
X139138231Y-96833290D01*
X139115132Y-96841555D01*
X139091333Y-96847516D01*
X139067065Y-96851116D01*
X139042561Y-96852320D01*
X138142559Y-96852320D01*
X138118055Y-96851116D01*
X138093787Y-96847516D01*
X138069988Y-96841555D01*
X138046889Y-96833290D01*
X138024710Y-96822800D01*
X138003667Y-96810188D01*
X137983961Y-96795573D01*
X137965783Y-96779097D01*
X137949307Y-96760919D01*
X137934692Y-96741213D01*
X137922080Y-96720170D01*
X137911590Y-96697991D01*
X137903325Y-96674892D01*
X137897364Y-96651093D01*
X137893764Y-96626825D01*
X137892560Y-96602321D01*
X137892560Y-95952319D01*
X137893764Y-95927815D01*
X137897364Y-95903547D01*
X137903325Y-95879748D01*
X137911590Y-95856649D01*
X137922080Y-95834470D01*
X137934692Y-95813427D01*
X137949307Y-95793721D01*
X137965783Y-95775543D01*
X137983961Y-95759067D01*
X138003667Y-95744452D01*
X138024710Y-95731840D01*
X138046889Y-95721350D01*
X138069988Y-95713085D01*
X138093787Y-95707124D01*
X138118055Y-95703524D01*
X138142559Y-95702320D01*
X139042561Y-95702320D01*
X139067065Y-95703524D01*
X139067065Y-95703524D01*
G37*
D14*
X138592560Y-96277320D03*
D13*
G36*
X139067065Y-97753524D02*
X139091333Y-97757124D01*
X139115132Y-97763085D01*
X139138231Y-97771350D01*
X139160410Y-97781840D01*
X139181453Y-97794452D01*
X139201159Y-97809067D01*
X139219337Y-97825543D01*
X139235813Y-97843721D01*
X139250428Y-97863427D01*
X139263040Y-97884470D01*
X139273530Y-97906649D01*
X139281795Y-97929748D01*
X139287756Y-97953547D01*
X139291356Y-97977815D01*
X139292560Y-98002319D01*
X139292560Y-98652321D01*
X139291356Y-98676825D01*
X139287756Y-98701093D01*
X139281795Y-98724892D01*
X139273530Y-98747991D01*
X139263040Y-98770170D01*
X139250428Y-98791213D01*
X139235813Y-98810919D01*
X139219337Y-98829097D01*
X139201159Y-98845573D01*
X139181453Y-98860188D01*
X139160410Y-98872800D01*
X139138231Y-98883290D01*
X139115132Y-98891555D01*
X139091333Y-98897516D01*
X139067065Y-98901116D01*
X139042561Y-98902320D01*
X138142559Y-98902320D01*
X138118055Y-98901116D01*
X138093787Y-98897516D01*
X138069988Y-98891555D01*
X138046889Y-98883290D01*
X138024710Y-98872800D01*
X138003667Y-98860188D01*
X137983961Y-98845573D01*
X137965783Y-98829097D01*
X137949307Y-98810919D01*
X137934692Y-98791213D01*
X137922080Y-98770170D01*
X137911590Y-98747991D01*
X137903325Y-98724892D01*
X137897364Y-98701093D01*
X137893764Y-98676825D01*
X137892560Y-98652321D01*
X137892560Y-98002319D01*
X137893764Y-97977815D01*
X137897364Y-97953547D01*
X137903325Y-97929748D01*
X137911590Y-97906649D01*
X137922080Y-97884470D01*
X137934692Y-97863427D01*
X137949307Y-97843721D01*
X137965783Y-97825543D01*
X137983961Y-97809067D01*
X138003667Y-97794452D01*
X138024710Y-97781840D01*
X138046889Y-97771350D01*
X138069988Y-97763085D01*
X138093787Y-97757124D01*
X138118055Y-97753524D01*
X138142559Y-97752320D01*
X139042561Y-97752320D01*
X139067065Y-97753524D01*
X139067065Y-97753524D01*
G37*
D14*
X138592560Y-98327320D03*
G04 #@! TD*
D13*
G04 #@! TO.C,R2*
G36*
X114980245Y-114158004D02*
X115004513Y-114161604D01*
X115028312Y-114167565D01*
X115051411Y-114175830D01*
X115073590Y-114186320D01*
X115094633Y-114198932D01*
X115114339Y-114213547D01*
X115132517Y-114230023D01*
X115148993Y-114248201D01*
X115163608Y-114267907D01*
X115176220Y-114288950D01*
X115186710Y-114311129D01*
X115194975Y-114334228D01*
X115200936Y-114358027D01*
X115204536Y-114382295D01*
X115205740Y-114406799D01*
X115205740Y-115056801D01*
X115204536Y-115081305D01*
X115200936Y-115105573D01*
X115194975Y-115129372D01*
X115186710Y-115152471D01*
X115176220Y-115174650D01*
X115163608Y-115195693D01*
X115148993Y-115215399D01*
X115132517Y-115233577D01*
X115114339Y-115250053D01*
X115094633Y-115264668D01*
X115073590Y-115277280D01*
X115051411Y-115287770D01*
X115028312Y-115296035D01*
X115004513Y-115301996D01*
X114980245Y-115305596D01*
X114955741Y-115306800D01*
X114055739Y-115306800D01*
X114031235Y-115305596D01*
X114006967Y-115301996D01*
X113983168Y-115296035D01*
X113960069Y-115287770D01*
X113937890Y-115277280D01*
X113916847Y-115264668D01*
X113897141Y-115250053D01*
X113878963Y-115233577D01*
X113862487Y-115215399D01*
X113847872Y-115195693D01*
X113835260Y-115174650D01*
X113824770Y-115152471D01*
X113816505Y-115129372D01*
X113810544Y-115105573D01*
X113806944Y-115081305D01*
X113805740Y-115056801D01*
X113805740Y-114406799D01*
X113806944Y-114382295D01*
X113810544Y-114358027D01*
X113816505Y-114334228D01*
X113824770Y-114311129D01*
X113835260Y-114288950D01*
X113847872Y-114267907D01*
X113862487Y-114248201D01*
X113878963Y-114230023D01*
X113897141Y-114213547D01*
X113916847Y-114198932D01*
X113937890Y-114186320D01*
X113960069Y-114175830D01*
X113983168Y-114167565D01*
X114006967Y-114161604D01*
X114031235Y-114158004D01*
X114055739Y-114156800D01*
X114955741Y-114156800D01*
X114980245Y-114158004D01*
X114980245Y-114158004D01*
G37*
D14*
X114505740Y-114731800D03*
D13*
G36*
X114980245Y-112108004D02*
X115004513Y-112111604D01*
X115028312Y-112117565D01*
X115051411Y-112125830D01*
X115073590Y-112136320D01*
X115094633Y-112148932D01*
X115114339Y-112163547D01*
X115132517Y-112180023D01*
X115148993Y-112198201D01*
X115163608Y-112217907D01*
X115176220Y-112238950D01*
X115186710Y-112261129D01*
X115194975Y-112284228D01*
X115200936Y-112308027D01*
X115204536Y-112332295D01*
X115205740Y-112356799D01*
X115205740Y-113006801D01*
X115204536Y-113031305D01*
X115200936Y-113055573D01*
X115194975Y-113079372D01*
X115186710Y-113102471D01*
X115176220Y-113124650D01*
X115163608Y-113145693D01*
X115148993Y-113165399D01*
X115132517Y-113183577D01*
X115114339Y-113200053D01*
X115094633Y-113214668D01*
X115073590Y-113227280D01*
X115051411Y-113237770D01*
X115028312Y-113246035D01*
X115004513Y-113251996D01*
X114980245Y-113255596D01*
X114955741Y-113256800D01*
X114055739Y-113256800D01*
X114031235Y-113255596D01*
X114006967Y-113251996D01*
X113983168Y-113246035D01*
X113960069Y-113237770D01*
X113937890Y-113227280D01*
X113916847Y-113214668D01*
X113897141Y-113200053D01*
X113878963Y-113183577D01*
X113862487Y-113165399D01*
X113847872Y-113145693D01*
X113835260Y-113124650D01*
X113824770Y-113102471D01*
X113816505Y-113079372D01*
X113810544Y-113055573D01*
X113806944Y-113031305D01*
X113805740Y-113006801D01*
X113805740Y-112356799D01*
X113806944Y-112332295D01*
X113810544Y-112308027D01*
X113816505Y-112284228D01*
X113824770Y-112261129D01*
X113835260Y-112238950D01*
X113847872Y-112217907D01*
X113862487Y-112198201D01*
X113878963Y-112180023D01*
X113897141Y-112163547D01*
X113916847Y-112148932D01*
X113937890Y-112136320D01*
X113960069Y-112125830D01*
X113983168Y-112117565D01*
X114006967Y-112111604D01*
X114031235Y-112108004D01*
X114055739Y-112106800D01*
X114955741Y-112106800D01*
X114980245Y-112108004D01*
X114980245Y-112108004D01*
G37*
D14*
X114505740Y-112681800D03*
G04 #@! TD*
D17*
G04 #@! TO.C,U1*
X130111500Y-107218500D03*
X128841500Y-107218500D03*
X127571500Y-107218500D03*
X126301500Y-107218500D03*
X125031500Y-107218500D03*
X123761500Y-107218500D03*
X122491500Y-107218500D03*
X122491500Y-112618500D03*
X123761500Y-112618500D03*
X125031500Y-112618500D03*
X126301500Y-112618500D03*
X127571500Y-112618500D03*
X128841500Y-112618500D03*
X130111500Y-112618500D03*
G04 #@! TD*
M02*
