G04 #@! TF.GenerationSoftware,KiCad,Pcbnew,(5.0.0)*
G04 #@! TF.CreationDate,2019-01-08T22:48:22-05:00*
G04 #@! TF.ProjectId,PoE PSE,506F45205053452E6B696361645F7063,rev?*
G04 #@! TF.SameCoordinates,Original*
G04 #@! TF.FileFunction,Copper,L2,Bot,Signal*
G04 #@! TF.FilePolarity,Positive*
%FSLAX46Y46*%
G04 Gerber Fmt 4.6, Leading zero omitted, Abs format (unit mm)*
G04 Created by KiCad (PCBNEW (5.0.0)) date 01/08/19 22:48:22*
%MOMM*%
%LPD*%
G01*
G04 APERTURE LIST*
G04 #@! TA.AperFunction,ComponentPad*
%ADD10C,1.500000*%
G04 #@! TD*
G04 #@! TA.AperFunction,ComponentPad*
%ADD11R,1.500000X1.500000*%
G04 #@! TD*
G04 #@! TA.AperFunction,ViaPad*
%ADD12C,0.800000*%
G04 #@! TD*
G04 #@! TA.AperFunction,Conductor*
%ADD13C,0.500000*%
G04 #@! TD*
G04 #@! TA.AperFunction,Conductor*
%ADD14C,0.250000*%
G04 #@! TD*
G04 #@! TA.AperFunction,Conductor*
%ADD15C,0.254000*%
G04 #@! TD*
G04 APERTURE END LIST*
D10*
G04 #@! TO.P,J1,8*
G04 #@! TO.N,Net-(J1-Pad8)*
X105727500Y-110998000D03*
G04 #@! TO.P,J1,7*
G04 #@! TO.N,Net-(J1-Pad7)*
X103187500Y-109728000D03*
G04 #@! TO.P,J1,6*
G04 #@! TO.N,ETH6*
X105727500Y-108458000D03*
G04 #@! TO.P,J1,5*
G04 #@! TO.N,Net-(J1-Pad5)*
X103187500Y-107188000D03*
G04 #@! TO.P,J1,4*
G04 #@! TO.N,Net-(J1-Pad4)*
X105727500Y-105918000D03*
G04 #@! TO.P,J1,3*
G04 #@! TO.N,ETH3*
X103187500Y-104648000D03*
G04 #@! TO.P,J1,2*
G04 #@! TO.N,ETH2*
X105727500Y-103378000D03*
D11*
G04 #@! TO.P,J1,1*
G04 #@! TO.N,ETH1*
X103187500Y-102108000D03*
G04 #@! TD*
G04 #@! TO.P,J3,1*
G04 #@! TO.N,ETH1*
X154432000Y-109664500D03*
D10*
G04 #@! TO.P,J3,2*
G04 #@! TO.N,ETH2*
X151892000Y-108394500D03*
G04 #@! TO.P,J3,3*
G04 #@! TO.N,ETH3*
X154432000Y-107124500D03*
G04 #@! TO.P,J3,4*
G04 #@! TO.N,Net-(C5-Pad1)*
X151892000Y-105854500D03*
G04 #@! TO.P,J3,5*
X154432000Y-104584500D03*
G04 #@! TO.P,J3,6*
G04 #@! TO.N,ETH6*
X151892000Y-103314500D03*
G04 #@! TO.P,J3,7*
G04 #@! TO.N,Net-(C5-Pad2)*
X154432000Y-102044500D03*
G04 #@! TO.P,J3,8*
X151892000Y-100774500D03*
G04 #@! TD*
D12*
G04 #@! TO.N,VSS*
X111061500Y-99758500D03*
X117094000Y-105092500D03*
X112331500Y-111442500D03*
X133413500Y-104394000D03*
X128905000Y-105537000D03*
X126301500Y-105600500D03*
X125031500Y-105600500D03*
X123761500Y-105600500D03*
X131699000Y-113792000D03*
X135636000Y-110490000D03*
X110921800Y-101879400D03*
X112750600Y-101930200D03*
G04 #@! TO.N,Net-(C5-Pad2)*
X123761500Y-110807500D03*
X125095000Y-110871000D03*
X146367500Y-108013500D03*
G04 #@! TO.N,Net-(JP5-Pad2)*
X141351000Y-112903000D03*
X127571500Y-110934500D03*
G04 #@! TO.N,Net-(JP7-Pad2)*
X135509000Y-112839500D03*
X128905000Y-110998000D03*
G04 #@! TD*
D13*
G04 #@! TO.N,Net-(C5-Pad2)*
X125031500Y-110807500D02*
X125095000Y-110871000D01*
X123761500Y-110807500D02*
X125031500Y-110807500D01*
X146367500Y-106299000D02*
X151892000Y-100774500D01*
X140181962Y-116586000D02*
X146367500Y-110400462D01*
X128714500Y-116586000D02*
X140181962Y-116586000D01*
X125095000Y-110871000D02*
X125095000Y-112966500D01*
X125095000Y-112966500D02*
X128714500Y-116586000D01*
X146367500Y-110400462D02*
X146367500Y-108013500D01*
X146367500Y-108013500D02*
X146367500Y-106299000D01*
X125095000Y-112706685D02*
X125095000Y-112966500D01*
X123761500Y-111373185D02*
X125095000Y-112706685D01*
X123761500Y-110807500D02*
X123761500Y-111373185D01*
D14*
G04 #@! TO.N,ETH6*
X152952660Y-103314500D02*
X151892000Y-103314500D01*
X155705502Y-104016502D02*
X155003500Y-103314500D01*
X155705502Y-105152498D02*
X155705502Y-104016502D01*
X153035997Y-106929501D02*
X154174498Y-105791000D01*
X155003500Y-103314500D02*
X152952660Y-103314500D01*
X105727500Y-108458000D02*
X106802501Y-109533001D01*
X154174498Y-105791000D02*
X155067000Y-105791000D01*
X106802501Y-115756001D02*
X107315000Y-116268500D01*
X106802501Y-109533001D02*
X106802501Y-115756001D01*
X155067000Y-105791000D02*
X155705502Y-105152498D01*
X127583814Y-116268500D02*
X128599814Y-117284500D01*
X107315000Y-116268500D02*
X127583814Y-116268500D01*
X128599814Y-117284500D02*
X141224000Y-117284500D01*
X141224000Y-117284500D02*
X148399500Y-110109000D01*
X148399500Y-110109000D02*
X148399500Y-108140500D01*
X149610499Y-106929501D02*
X151511000Y-106929501D01*
X148399500Y-108140500D02*
X149610499Y-106929501D01*
X151197999Y-106929501D02*
X151511000Y-106929501D01*
X151511000Y-106929501D02*
X153035997Y-106929501D01*
G04 #@! TO.N,ETH3*
X103187500Y-104648000D02*
X100774500Y-107061000D01*
X100774500Y-107061000D02*
X100774500Y-112647590D01*
X100774500Y-112647590D02*
X105601910Y-117475000D01*
X153682001Y-107874499D02*
X154432000Y-107124500D01*
X153682001Y-108195501D02*
X153682001Y-107874499D01*
X152408001Y-109469501D02*
X153682001Y-108195501D01*
X152408001Y-109469501D02*
X152404499Y-109469501D01*
X105601910Y-117475000D02*
X127444500Y-117475000D01*
X143692982Y-118184520D02*
X152408001Y-109469501D01*
X128154020Y-118184520D02*
X143692982Y-118184520D01*
X127444500Y-117475000D02*
X128154020Y-118184520D01*
G04 #@! TO.N,ETH2*
X104977501Y-104127999D02*
X105727500Y-103378000D01*
X104652499Y-104453001D02*
X104977501Y-104127999D01*
X104652499Y-115510999D02*
X104652499Y-104453001D01*
X128402510Y-117734510D02*
X127386510Y-116718510D01*
X141410400Y-117734510D02*
X128402510Y-117734510D01*
X105283000Y-116141500D02*
X104652499Y-115510999D01*
X105860010Y-116718510D02*
X105283000Y-116141500D01*
X151892000Y-108394500D02*
X150177500Y-108394500D01*
X150177500Y-108394500D02*
X148849510Y-109722490D01*
X127386510Y-116718510D02*
X105860010Y-116718510D01*
X148849510Y-109722490D02*
X148849509Y-110295401D01*
X148849509Y-110295401D02*
X141410400Y-117734510D01*
G04 #@! TO.N,ETH1*
X102187500Y-102108000D02*
X100203000Y-104092500D01*
X103187500Y-102108000D02*
X102187500Y-102108000D01*
X100203000Y-108204000D02*
X100203000Y-112712500D01*
X100203000Y-108204000D02*
X100203000Y-108334502D01*
X100203000Y-104092500D02*
X100203000Y-108204000D01*
X100203000Y-112712500D02*
X105473500Y-117983000D01*
X109851498Y-117983000D02*
X109982000Y-117983000D01*
X127127000Y-117983000D02*
X109537500Y-117983000D01*
X127190500Y-117983000D02*
X127127000Y-117983000D01*
X109537500Y-117983000D02*
X109982000Y-117983000D01*
X105473500Y-117983000D02*
X109537500Y-117983000D01*
X154432000Y-109664500D02*
X152849412Y-109664500D01*
X152849412Y-109664500D02*
X143879382Y-118634530D01*
X143879382Y-118634530D02*
X127842030Y-118634530D01*
X127842030Y-118634530D02*
X127190500Y-117983000D01*
D13*
G04 #@! TO.N,Net-(JP5-Pad2)*
X141351000Y-112903000D02*
X141351000Y-114109500D01*
X141351000Y-114109500D02*
X141351000Y-114427000D01*
X141351000Y-114427000D02*
X140208000Y-115570000D01*
X127571500Y-114097502D02*
X127571500Y-110934500D01*
X140208000Y-115570000D02*
X129043998Y-115570000D01*
X129043998Y-115570000D02*
X127571500Y-114097502D01*
G04 #@! TO.N,Net-(JP7-Pad2)*
X135509000Y-112839500D02*
X135509000Y-113665000D01*
X135509000Y-113665000D02*
X134429500Y-114744500D01*
X134429500Y-114744500D02*
X129413000Y-114744500D01*
X129413000Y-114744500D02*
X128905000Y-114236500D01*
X128905000Y-114236500D02*
X128905000Y-110998000D01*
G04 #@! TD*
D15*
G04 #@! TO.N,VSS*
G36*
X155910608Y-103146806D02*
X155599494Y-102835693D01*
X155606147Y-102829040D01*
X155817000Y-102319994D01*
X155817000Y-101769006D01*
X155606147Y-101259960D01*
X155216540Y-100870353D01*
X154707494Y-100659500D01*
X154156506Y-100659500D01*
X153647460Y-100870353D01*
X153257853Y-101259960D01*
X153047000Y-101769006D01*
X153047000Y-102319994D01*
X153144135Y-102554500D01*
X153076312Y-102554500D01*
X153066147Y-102529960D01*
X152676540Y-102140353D01*
X152445130Y-102044500D01*
X152676540Y-101948647D01*
X153066147Y-101559040D01*
X153277000Y-101049994D01*
X153277000Y-100499006D01*
X153066147Y-99989960D01*
X152676540Y-99600353D01*
X152167494Y-99389500D01*
X151616506Y-99389500D01*
X151107460Y-99600353D01*
X150717853Y-99989960D01*
X150507000Y-100499006D01*
X150507000Y-100907921D01*
X145803345Y-105611577D01*
X145729452Y-105660951D01*
X145680078Y-105734844D01*
X145680076Y-105734846D01*
X145533848Y-105953691D01*
X145465163Y-106299000D01*
X145482501Y-106386165D01*
X145482500Y-107445492D01*
X145332500Y-107807626D01*
X145332500Y-108219374D01*
X145482501Y-108581509D01*
X145482500Y-110033883D01*
X142370791Y-113145593D01*
X142386000Y-113108874D01*
X142386000Y-112697126D01*
X142228431Y-112316720D01*
X141937280Y-112025569D01*
X141556874Y-111868000D01*
X141145126Y-111868000D01*
X140764720Y-112025569D01*
X140473569Y-112316720D01*
X140316000Y-112697126D01*
X140316000Y-113108874D01*
X140466000Y-113471008D01*
X140466001Y-114022332D01*
X140466000Y-114022336D01*
X140466000Y-114060421D01*
X139841422Y-114685000D01*
X135740579Y-114685000D01*
X136073156Y-114352423D01*
X136147049Y-114303049D01*
X136226151Y-114184666D01*
X136342652Y-114010310D01*
X136370792Y-113868838D01*
X136394000Y-113752165D01*
X136394000Y-113752161D01*
X136411337Y-113665000D01*
X136394000Y-113577839D01*
X136394000Y-113407507D01*
X136544000Y-113045374D01*
X136544000Y-112633626D01*
X136386431Y-112253220D01*
X136095280Y-111962069D01*
X135714874Y-111804500D01*
X135303126Y-111804500D01*
X134922720Y-111962069D01*
X134631569Y-112253220D01*
X134474000Y-112633626D01*
X134474000Y-113045374D01*
X134592050Y-113330372D01*
X134062922Y-113859500D01*
X129790000Y-113859500D01*
X129790000Y-111566007D01*
X129940000Y-111203874D01*
X129940000Y-110792126D01*
X129782431Y-110411720D01*
X129491280Y-110120569D01*
X129110874Y-109963000D01*
X128699126Y-109963000D01*
X128318720Y-110120569D01*
X128270000Y-110169289D01*
X128157780Y-110057069D01*
X127777374Y-109899500D01*
X127365626Y-109899500D01*
X126985220Y-110057069D01*
X126694069Y-110348220D01*
X126536500Y-110728626D01*
X126536500Y-111140374D01*
X126686501Y-111502509D01*
X126686500Y-113306422D01*
X125980000Y-112599922D01*
X125980000Y-111439007D01*
X126130000Y-111076874D01*
X126130000Y-110665126D01*
X125972431Y-110284720D01*
X125681280Y-109993569D01*
X125300874Y-109836000D01*
X124889126Y-109836000D01*
X124680296Y-109922500D01*
X124329507Y-109922500D01*
X123967374Y-109772500D01*
X123555626Y-109772500D01*
X123175220Y-109930069D01*
X122884069Y-110221220D01*
X122726500Y-110601626D01*
X122726500Y-111013374D01*
X122864475Y-111346477D01*
X122859163Y-111373185D01*
X122876500Y-111460346D01*
X122876500Y-111460350D01*
X122927848Y-111718495D01*
X122990281Y-111811931D01*
X123070300Y-111931687D01*
X123123452Y-112011234D01*
X123197345Y-112060608D01*
X124214866Y-113078130D01*
X124261348Y-113311810D01*
X124456951Y-113604549D01*
X124530846Y-113653924D01*
X126385421Y-115508500D01*
X107629802Y-115508500D01*
X107562501Y-115441200D01*
X107562501Y-109607848D01*
X107577389Y-109533001D01*
X107562501Y-109458154D01*
X107562501Y-109458149D01*
X107518405Y-109236464D01*
X107350430Y-108985072D01*
X107286974Y-108942672D01*
X107102335Y-108758034D01*
X107112500Y-108733494D01*
X107112500Y-108182506D01*
X106901647Y-107673460D01*
X106512040Y-107283853D01*
X106280630Y-107188000D01*
X106512040Y-107092147D01*
X106901647Y-106702540D01*
X107112500Y-106193494D01*
X107112500Y-105642506D01*
X106901647Y-105133460D01*
X106512040Y-104743853D01*
X106280630Y-104648000D01*
X106512040Y-104552147D01*
X106901647Y-104162540D01*
X107112500Y-103653494D01*
X107112500Y-103102506D01*
X106901647Y-102593460D01*
X106512040Y-102203853D01*
X106002994Y-101993000D01*
X105452006Y-101993000D01*
X104942960Y-102203853D01*
X104584940Y-102561873D01*
X104584940Y-101358000D01*
X104535657Y-101110235D01*
X104395309Y-100900191D01*
X104185265Y-100759843D01*
X103937500Y-100710560D01*
X102437500Y-100710560D01*
X102189735Y-100759843D01*
X101979691Y-100900191D01*
X101839343Y-101110235D01*
X101790060Y-101358000D01*
X101790060Y-101459517D01*
X101703918Y-101517076D01*
X101639571Y-101560071D01*
X101597171Y-101623527D01*
X99872717Y-103347982D01*
X99921386Y-97014802D01*
X141283560Y-97014802D01*
X141283560Y-97864158D01*
X141608594Y-98648860D01*
X142209180Y-99249446D01*
X142993882Y-99574480D01*
X143843238Y-99574480D01*
X144627940Y-99249446D01*
X145228526Y-98648860D01*
X145553560Y-97864158D01*
X145553560Y-97014802D01*
X145228526Y-96230100D01*
X144627940Y-95629514D01*
X143843238Y-95304480D01*
X142993882Y-95304480D01*
X142209180Y-95629514D01*
X141608594Y-96230100D01*
X141283560Y-97014802D01*
X99921386Y-97014802D01*
X99945714Y-93849242D01*
X155942088Y-93806150D01*
X155910608Y-103146806D01*
X155910608Y-103146806D01*
G37*
X155910608Y-103146806D02*
X155599494Y-102835693D01*
X155606147Y-102829040D01*
X155817000Y-102319994D01*
X155817000Y-101769006D01*
X155606147Y-101259960D01*
X155216540Y-100870353D01*
X154707494Y-100659500D01*
X154156506Y-100659500D01*
X153647460Y-100870353D01*
X153257853Y-101259960D01*
X153047000Y-101769006D01*
X153047000Y-102319994D01*
X153144135Y-102554500D01*
X153076312Y-102554500D01*
X153066147Y-102529960D01*
X152676540Y-102140353D01*
X152445130Y-102044500D01*
X152676540Y-101948647D01*
X153066147Y-101559040D01*
X153277000Y-101049994D01*
X153277000Y-100499006D01*
X153066147Y-99989960D01*
X152676540Y-99600353D01*
X152167494Y-99389500D01*
X151616506Y-99389500D01*
X151107460Y-99600353D01*
X150717853Y-99989960D01*
X150507000Y-100499006D01*
X150507000Y-100907921D01*
X145803345Y-105611577D01*
X145729452Y-105660951D01*
X145680078Y-105734844D01*
X145680076Y-105734846D01*
X145533848Y-105953691D01*
X145465163Y-106299000D01*
X145482501Y-106386165D01*
X145482500Y-107445492D01*
X145332500Y-107807626D01*
X145332500Y-108219374D01*
X145482501Y-108581509D01*
X145482500Y-110033883D01*
X142370791Y-113145593D01*
X142386000Y-113108874D01*
X142386000Y-112697126D01*
X142228431Y-112316720D01*
X141937280Y-112025569D01*
X141556874Y-111868000D01*
X141145126Y-111868000D01*
X140764720Y-112025569D01*
X140473569Y-112316720D01*
X140316000Y-112697126D01*
X140316000Y-113108874D01*
X140466000Y-113471008D01*
X140466001Y-114022332D01*
X140466000Y-114022336D01*
X140466000Y-114060421D01*
X139841422Y-114685000D01*
X135740579Y-114685000D01*
X136073156Y-114352423D01*
X136147049Y-114303049D01*
X136226151Y-114184666D01*
X136342652Y-114010310D01*
X136370792Y-113868838D01*
X136394000Y-113752165D01*
X136394000Y-113752161D01*
X136411337Y-113665000D01*
X136394000Y-113577839D01*
X136394000Y-113407507D01*
X136544000Y-113045374D01*
X136544000Y-112633626D01*
X136386431Y-112253220D01*
X136095280Y-111962069D01*
X135714874Y-111804500D01*
X135303126Y-111804500D01*
X134922720Y-111962069D01*
X134631569Y-112253220D01*
X134474000Y-112633626D01*
X134474000Y-113045374D01*
X134592050Y-113330372D01*
X134062922Y-113859500D01*
X129790000Y-113859500D01*
X129790000Y-111566007D01*
X129940000Y-111203874D01*
X129940000Y-110792126D01*
X129782431Y-110411720D01*
X129491280Y-110120569D01*
X129110874Y-109963000D01*
X128699126Y-109963000D01*
X128318720Y-110120569D01*
X128270000Y-110169289D01*
X128157780Y-110057069D01*
X127777374Y-109899500D01*
X127365626Y-109899500D01*
X126985220Y-110057069D01*
X126694069Y-110348220D01*
X126536500Y-110728626D01*
X126536500Y-111140374D01*
X126686501Y-111502509D01*
X126686500Y-113306422D01*
X125980000Y-112599922D01*
X125980000Y-111439007D01*
X126130000Y-111076874D01*
X126130000Y-110665126D01*
X125972431Y-110284720D01*
X125681280Y-109993569D01*
X125300874Y-109836000D01*
X124889126Y-109836000D01*
X124680296Y-109922500D01*
X124329507Y-109922500D01*
X123967374Y-109772500D01*
X123555626Y-109772500D01*
X123175220Y-109930069D01*
X122884069Y-110221220D01*
X122726500Y-110601626D01*
X122726500Y-111013374D01*
X122864475Y-111346477D01*
X122859163Y-111373185D01*
X122876500Y-111460346D01*
X122876500Y-111460350D01*
X122927848Y-111718495D01*
X122990281Y-111811931D01*
X123070300Y-111931687D01*
X123123452Y-112011234D01*
X123197345Y-112060608D01*
X124214866Y-113078130D01*
X124261348Y-113311810D01*
X124456951Y-113604549D01*
X124530846Y-113653924D01*
X126385421Y-115508500D01*
X107629802Y-115508500D01*
X107562501Y-115441200D01*
X107562501Y-109607848D01*
X107577389Y-109533001D01*
X107562501Y-109458154D01*
X107562501Y-109458149D01*
X107518405Y-109236464D01*
X107350430Y-108985072D01*
X107286974Y-108942672D01*
X107102335Y-108758034D01*
X107112500Y-108733494D01*
X107112500Y-108182506D01*
X106901647Y-107673460D01*
X106512040Y-107283853D01*
X106280630Y-107188000D01*
X106512040Y-107092147D01*
X106901647Y-106702540D01*
X107112500Y-106193494D01*
X107112500Y-105642506D01*
X106901647Y-105133460D01*
X106512040Y-104743853D01*
X106280630Y-104648000D01*
X106512040Y-104552147D01*
X106901647Y-104162540D01*
X107112500Y-103653494D01*
X107112500Y-103102506D01*
X106901647Y-102593460D01*
X106512040Y-102203853D01*
X106002994Y-101993000D01*
X105452006Y-101993000D01*
X104942960Y-102203853D01*
X104584940Y-102561873D01*
X104584940Y-101358000D01*
X104535657Y-101110235D01*
X104395309Y-100900191D01*
X104185265Y-100759843D01*
X103937500Y-100710560D01*
X102437500Y-100710560D01*
X102189735Y-100759843D01*
X101979691Y-100900191D01*
X101839343Y-101110235D01*
X101790060Y-101358000D01*
X101790060Y-101459517D01*
X101703918Y-101517076D01*
X101639571Y-101560071D01*
X101597171Y-101623527D01*
X99872717Y-103347982D01*
X99921386Y-97014802D01*
X141283560Y-97014802D01*
X141283560Y-97864158D01*
X141608594Y-98648860D01*
X142209180Y-99249446D01*
X142993882Y-99574480D01*
X143843238Y-99574480D01*
X144627940Y-99249446D01*
X145228526Y-98648860D01*
X145553560Y-97864158D01*
X145553560Y-97014802D01*
X145228526Y-96230100D01*
X144627940Y-95629514D01*
X143843238Y-95304480D01*
X142993882Y-95304480D01*
X142209180Y-95629514D01*
X141608594Y-96230100D01*
X141283560Y-97014802D01*
X99921386Y-97014802D01*
X99945714Y-93849242D01*
X155942088Y-93806150D01*
X155910608Y-103146806D01*
G04 #@! TD*
M02*
