M48
;DRILL file {KiCad (5.0.0)} date 01/08/19 22:48:32
;FORMAT={-:-/ absolute / inch / decimal}
FMAT,2
INCH,TZ
T1C0.0157
T2C0.0299
%
G90
G05
M72
T1
X4.367Y-4.011
X4.3725Y-3.9275
X4.4225Y-4.3875
X4.439Y-4.013
X4.61Y-4.1375
X4.8725Y-4.1575
X4.8725Y-4.3625
X4.9225Y-4.1575
X4.925Y-4.365
X4.9725Y-4.1575
X5.0225Y-4.3675
X5.075Y-4.155
X5.075Y-4.37
X5.185Y-4.48
X5.2525Y-4.11
X5.335Y-4.4425
X5.34Y-4.35
X5.565Y-4.445
X5.7625Y-4.2525
T2
X4.0625Y-4.02
X4.0625Y-4.12
X4.0625Y-4.22
X4.0625Y-4.32
X4.1625Y-4.07
X4.1625Y-4.17
X4.1625Y-4.27
X4.1625Y-4.37
X5.98Y-3.9675
X5.98Y-4.0675
X5.98Y-4.1675
X5.98Y-4.2675
X6.08Y-4.0175
X6.08Y-4.1175
X6.08Y-4.2175
X6.08Y-4.3175
T0
M30
