G04 #@! TF.GenerationSoftware,KiCad,Pcbnew,(5.0.0)*
G04 #@! TF.CreationDate,2019-01-08T23:41:56-05:00*
G04 #@! TF.ProjectId,Relay Breakout,52656C617920427265616B6F75742E6B,rev?*
G04 #@! TF.SameCoordinates,Original*
G04 #@! TF.FileFunction,Soldermask,Top*
G04 #@! TF.FilePolarity,Negative*
%FSLAX46Y46*%
G04 Gerber Fmt 4.6, Leading zero omitted, Abs format (unit mm)*
G04 Created by KiCad (PCBNEW (5.0.0)) date 01/08/19 23:41:56*
%MOMM*%
%LPD*%
G01*
G04 APERTURE LIST*
%ADD10R,2.100000X1.000000*%
%ADD11R,3.200000X1.400000*%
%ADD12R,2.100000X2.100000*%
%ADD13O,2.100000X2.100000*%
%ADD14C,1.000000*%
%ADD15C,0.100000*%
%ADD16R,1.400000X1.900000*%
%ADD17R,1.550000X0.950000*%
%ADD18C,1.825000*%
%ADD19C,3.400000*%
G04 APERTURE END LIST*
D10*
G04 #@! TO.C,J1*
X106667040Y-92626120D03*
X106667040Y-91376120D03*
X106667040Y-90126120D03*
X106667040Y-88876120D03*
X106667040Y-87626120D03*
X106667040Y-86376120D03*
D11*
X103317040Y-94476120D03*
X103317040Y-84526120D03*
G04 #@! TD*
D12*
G04 #@! TO.C,J2*
X129352040Y-84251800D03*
D13*
X129352040Y-81711800D03*
G04 #@! TD*
G04 #@! TO.C,J3*
X129346960Y-87970360D03*
D12*
X129346960Y-90510360D03*
G04 #@! TD*
G04 #@! TO.C,J4*
X129311400Y-96748600D03*
D13*
X129311400Y-94208600D03*
G04 #@! TD*
D12*
G04 #@! TO.C,J5*
X124444760Y-81701640D03*
G04 #@! TD*
G04 #@! TO.C,J6*
X119893080Y-81711800D03*
G04 #@! TD*
G04 #@! TO.C,J7*
X115341400Y-81742280D03*
G04 #@! TD*
D14*
G04 #@! TO.C,JP1*
X125054120Y-94300040D03*
D15*
G36*
X124515102Y-95246197D02*
X124477583Y-95234816D01*
X124443006Y-95216334D01*
X124412699Y-95191461D01*
X124387826Y-95161154D01*
X124369344Y-95126577D01*
X124357963Y-95089058D01*
X124354120Y-95050040D01*
X124354120Y-94800040D01*
X124154120Y-94800040D01*
X124115102Y-94796197D01*
X124077583Y-94784816D01*
X124043006Y-94766334D01*
X124012699Y-94741461D01*
X123987826Y-94711154D01*
X123969344Y-94676577D01*
X123957963Y-94639058D01*
X123954120Y-94600040D01*
X123954120Y-94000040D01*
X123957963Y-93961022D01*
X123969344Y-93923503D01*
X123987826Y-93888926D01*
X124012699Y-93858619D01*
X124043006Y-93833746D01*
X124077583Y-93815264D01*
X124115102Y-93803883D01*
X124154120Y-93800040D01*
X124354120Y-93800040D01*
X124354120Y-93550040D01*
X124357963Y-93511022D01*
X124369344Y-93473503D01*
X124387826Y-93438926D01*
X124412699Y-93408619D01*
X124443006Y-93383746D01*
X124477583Y-93365264D01*
X124515102Y-93353883D01*
X124554120Y-93350040D01*
X125554120Y-93350040D01*
X125593138Y-93353883D01*
X125630657Y-93365264D01*
X125665234Y-93383746D01*
X125695541Y-93408619D01*
X125720414Y-93438926D01*
X125738896Y-93473503D01*
X125750277Y-93511022D01*
X125754120Y-93550040D01*
X125754120Y-95050040D01*
X125750277Y-95089058D01*
X125738896Y-95126577D01*
X125720414Y-95161154D01*
X125695541Y-95191461D01*
X125665234Y-95216334D01*
X125630657Y-95234816D01*
X125593138Y-95246197D01*
X125554120Y-95250040D01*
X124554120Y-95250040D01*
X124515102Y-95246197D01*
X124515102Y-95246197D01*
G37*
D16*
X123754120Y-94300040D03*
G04 #@! TD*
G04 #@! TO.C,JP2*
X118536960Y-89133680D03*
D14*
X119836960Y-89133680D03*
D15*
G36*
X119297942Y-90079837D02*
X119260423Y-90068456D01*
X119225846Y-90049974D01*
X119195539Y-90025101D01*
X119170666Y-89994794D01*
X119152184Y-89960217D01*
X119140803Y-89922698D01*
X119136960Y-89883680D01*
X119136960Y-89633680D01*
X118936960Y-89633680D01*
X118897942Y-89629837D01*
X118860423Y-89618456D01*
X118825846Y-89599974D01*
X118795539Y-89575101D01*
X118770666Y-89544794D01*
X118752184Y-89510217D01*
X118740803Y-89472698D01*
X118736960Y-89433680D01*
X118736960Y-88833680D01*
X118740803Y-88794662D01*
X118752184Y-88757143D01*
X118770666Y-88722566D01*
X118795539Y-88692259D01*
X118825846Y-88667386D01*
X118860423Y-88648904D01*
X118897942Y-88637523D01*
X118936960Y-88633680D01*
X119136960Y-88633680D01*
X119136960Y-88383680D01*
X119140803Y-88344662D01*
X119152184Y-88307143D01*
X119170666Y-88272566D01*
X119195539Y-88242259D01*
X119225846Y-88217386D01*
X119260423Y-88198904D01*
X119297942Y-88187523D01*
X119336960Y-88183680D01*
X120336960Y-88183680D01*
X120375978Y-88187523D01*
X120413497Y-88198904D01*
X120448074Y-88217386D01*
X120478381Y-88242259D01*
X120503254Y-88272566D01*
X120521736Y-88307143D01*
X120533117Y-88344662D01*
X120536960Y-88383680D01*
X120536960Y-89883680D01*
X120533117Y-89922698D01*
X120521736Y-89960217D01*
X120503254Y-89994794D01*
X120478381Y-90025101D01*
X120448074Y-90049974D01*
X120413497Y-90068456D01*
X120375978Y-90079837D01*
X120336960Y-90083680D01*
X119336960Y-90083680D01*
X119297942Y-90079837D01*
X119297942Y-90079837D01*
G37*
G04 #@! TD*
D14*
G04 #@! TO.C,JP3*
X113872800Y-85785960D03*
D15*
G36*
X113333782Y-86732117D02*
X113296263Y-86720736D01*
X113261686Y-86702254D01*
X113231379Y-86677381D01*
X113206506Y-86647074D01*
X113188024Y-86612497D01*
X113176643Y-86574978D01*
X113172800Y-86535960D01*
X113172800Y-86285960D01*
X112972800Y-86285960D01*
X112933782Y-86282117D01*
X112896263Y-86270736D01*
X112861686Y-86252254D01*
X112831379Y-86227381D01*
X112806506Y-86197074D01*
X112788024Y-86162497D01*
X112776643Y-86124978D01*
X112772800Y-86085960D01*
X112772800Y-85485960D01*
X112776643Y-85446942D01*
X112788024Y-85409423D01*
X112806506Y-85374846D01*
X112831379Y-85344539D01*
X112861686Y-85319666D01*
X112896263Y-85301184D01*
X112933782Y-85289803D01*
X112972800Y-85285960D01*
X113172800Y-85285960D01*
X113172800Y-85035960D01*
X113176643Y-84996942D01*
X113188024Y-84959423D01*
X113206506Y-84924846D01*
X113231379Y-84894539D01*
X113261686Y-84869666D01*
X113296263Y-84851184D01*
X113333782Y-84839803D01*
X113372800Y-84835960D01*
X114372800Y-84835960D01*
X114411818Y-84839803D01*
X114449337Y-84851184D01*
X114483914Y-84869666D01*
X114514221Y-84894539D01*
X114539094Y-84924846D01*
X114557576Y-84959423D01*
X114568957Y-84996942D01*
X114572800Y-85035960D01*
X114572800Y-86535960D01*
X114568957Y-86574978D01*
X114557576Y-86612497D01*
X114539094Y-86647074D01*
X114514221Y-86677381D01*
X114483914Y-86702254D01*
X114449337Y-86720736D01*
X114411818Y-86732117D01*
X114372800Y-86735960D01*
X113372800Y-86735960D01*
X113333782Y-86732117D01*
X113333782Y-86732117D01*
G37*
D16*
X112572800Y-85785960D03*
G04 #@! TD*
D17*
G04 #@! TO.C,U1*
X123494800Y-96504760D03*
X123494800Y-97304760D03*
X125394800Y-96504760D03*
X125394800Y-97304760D03*
G04 #@! TD*
G04 #@! TO.C,U2*
X120121760Y-92255240D03*
X120121760Y-91455240D03*
X118221760Y-92255240D03*
X118221760Y-91455240D03*
G04 #@! TD*
G04 #@! TO.C,U3*
X112364520Y-88275160D03*
X112364520Y-89075160D03*
X114264520Y-88275160D03*
X114264520Y-89075160D03*
G04 #@! TD*
D15*
G04 #@! TO.C,F1*
G36*
X109884347Y-93368822D02*
X109915427Y-93373432D01*
X109945906Y-93381067D01*
X109975490Y-93391652D01*
X110003894Y-93405086D01*
X110030844Y-93421239D01*
X110056082Y-93439957D01*
X110079363Y-93461057D01*
X110100463Y-93484338D01*
X110119181Y-93509576D01*
X110135334Y-93536526D01*
X110148768Y-93564930D01*
X110159353Y-93594514D01*
X110166988Y-93624993D01*
X110171598Y-93656073D01*
X110173140Y-93687456D01*
X110173140Y-95197104D01*
X110171598Y-95228487D01*
X110166988Y-95259567D01*
X110159353Y-95290046D01*
X110148768Y-95319630D01*
X110135334Y-95348034D01*
X110119181Y-95374984D01*
X110100463Y-95400222D01*
X110079363Y-95423503D01*
X110056082Y-95444603D01*
X110030844Y-95463321D01*
X110003894Y-95479474D01*
X109975490Y-95492908D01*
X109945906Y-95503493D01*
X109915427Y-95511128D01*
X109884347Y-95515738D01*
X109852964Y-95517280D01*
X108668316Y-95517280D01*
X108636933Y-95515738D01*
X108605853Y-95511128D01*
X108575374Y-95503493D01*
X108545790Y-95492908D01*
X108517386Y-95479474D01*
X108490436Y-95463321D01*
X108465198Y-95444603D01*
X108441917Y-95423503D01*
X108420817Y-95400222D01*
X108402099Y-95374984D01*
X108385946Y-95348034D01*
X108372512Y-95319630D01*
X108361927Y-95290046D01*
X108354292Y-95259567D01*
X108349682Y-95228487D01*
X108348140Y-95197104D01*
X108348140Y-93687456D01*
X108349682Y-93656073D01*
X108354292Y-93624993D01*
X108361927Y-93594514D01*
X108372512Y-93564930D01*
X108385946Y-93536526D01*
X108402099Y-93509576D01*
X108420817Y-93484338D01*
X108441917Y-93461057D01*
X108465198Y-93439957D01*
X108490436Y-93421239D01*
X108517386Y-93405086D01*
X108545790Y-93391652D01*
X108575374Y-93381067D01*
X108605853Y-93373432D01*
X108636933Y-93368822D01*
X108668316Y-93367280D01*
X109852964Y-93367280D01*
X109884347Y-93368822D01*
X109884347Y-93368822D01*
G37*
D18*
X109260640Y-94442280D03*
D15*
G36*
X112859347Y-93368822D02*
X112890427Y-93373432D01*
X112920906Y-93381067D01*
X112950490Y-93391652D01*
X112978894Y-93405086D01*
X113005844Y-93421239D01*
X113031082Y-93439957D01*
X113054363Y-93461057D01*
X113075463Y-93484338D01*
X113094181Y-93509576D01*
X113110334Y-93536526D01*
X113123768Y-93564930D01*
X113134353Y-93594514D01*
X113141988Y-93624993D01*
X113146598Y-93656073D01*
X113148140Y-93687456D01*
X113148140Y-95197104D01*
X113146598Y-95228487D01*
X113141988Y-95259567D01*
X113134353Y-95290046D01*
X113123768Y-95319630D01*
X113110334Y-95348034D01*
X113094181Y-95374984D01*
X113075463Y-95400222D01*
X113054363Y-95423503D01*
X113031082Y-95444603D01*
X113005844Y-95463321D01*
X112978894Y-95479474D01*
X112950490Y-95492908D01*
X112920906Y-95503493D01*
X112890427Y-95511128D01*
X112859347Y-95515738D01*
X112827964Y-95517280D01*
X111643316Y-95517280D01*
X111611933Y-95515738D01*
X111580853Y-95511128D01*
X111550374Y-95503493D01*
X111520790Y-95492908D01*
X111492386Y-95479474D01*
X111465436Y-95463321D01*
X111440198Y-95444603D01*
X111416917Y-95423503D01*
X111395817Y-95400222D01*
X111377099Y-95374984D01*
X111360946Y-95348034D01*
X111347512Y-95319630D01*
X111336927Y-95290046D01*
X111329292Y-95259567D01*
X111324682Y-95228487D01*
X111323140Y-95197104D01*
X111323140Y-93687456D01*
X111324682Y-93656073D01*
X111329292Y-93624993D01*
X111336927Y-93594514D01*
X111347512Y-93564930D01*
X111360946Y-93536526D01*
X111377099Y-93509576D01*
X111395817Y-93484338D01*
X111416917Y-93461057D01*
X111440198Y-93439957D01*
X111465436Y-93421239D01*
X111492386Y-93405086D01*
X111520790Y-93391652D01*
X111550374Y-93381067D01*
X111580853Y-93373432D01*
X111611933Y-93368822D01*
X111643316Y-93367280D01*
X112827964Y-93367280D01*
X112859347Y-93368822D01*
X112859347Y-93368822D01*
G37*
D18*
X112235640Y-94442280D03*
G04 #@! TD*
D19*
G04 #@! TO.C,REF\002A\002A*
X110210600Y-81447640D03*
G04 #@! TD*
M02*
