G04 #@! TF.GenerationSoftware,KiCad,Pcbnew,(5.0.0)*
G04 #@! TF.CreationDate,2019-01-08T23:41:56-05:00*
G04 #@! TF.ProjectId,Relay Breakout,52656C617920427265616B6F75742E6B,rev?*
G04 #@! TF.SameCoordinates,Original*
G04 #@! TF.FileFunction,Copper,L1,Top,Signal*
G04 #@! TF.FilePolarity,Positive*
%FSLAX46Y46*%
G04 Gerber Fmt 4.6, Leading zero omitted, Abs format (unit mm)*
G04 Created by KiCad (PCBNEW (5.0.0)) date 01/08/19 23:41:56*
%MOMM*%
%LPD*%
G01*
G04 APERTURE LIST*
G04 #@! TA.AperFunction,SMDPad,CuDef*
%ADD10R,1.700000X0.600000*%
G04 #@! TD*
G04 #@! TA.AperFunction,SMDPad,CuDef*
%ADD11R,2.800000X1.000000*%
G04 #@! TD*
G04 #@! TA.AperFunction,ComponentPad*
%ADD12R,1.700000X1.700000*%
G04 #@! TD*
G04 #@! TA.AperFunction,ComponentPad*
%ADD13O,1.700000X1.700000*%
G04 #@! TD*
G04 #@! TA.AperFunction,SMDPad,CuDef*
%ADD14C,1.000000*%
G04 #@! TD*
G04 #@! TA.AperFunction,Conductor*
%ADD15C,0.100000*%
G04 #@! TD*
G04 #@! TA.AperFunction,SMDPad,CuDef*
%ADD16R,1.000000X1.500000*%
G04 #@! TD*
G04 #@! TA.AperFunction,SMDPad,CuDef*
%ADD17R,1.150000X0.550000*%
G04 #@! TD*
G04 #@! TA.AperFunction,SMDPad,CuDef*
%ADD18C,1.425000*%
G04 #@! TD*
G04 #@! TA.AperFunction,ViaPad*
%ADD19C,0.800000*%
G04 #@! TD*
G04 #@! TA.AperFunction,Conductor*
%ADD20C,0.250000*%
G04 #@! TD*
G04 #@! TA.AperFunction,Conductor*
%ADD21C,0.500000*%
G04 #@! TD*
G04 #@! TA.AperFunction,Conductor*
%ADD22C,0.254000*%
G04 #@! TD*
G04 APERTURE END LIST*
D10*
G04 #@! TO.P,J1,1*
G04 #@! TO.N,Net-(F1-Pad1)*
X106667040Y-92626120D03*
G04 #@! TO.P,J1,2*
G04 #@! TO.N,GPIO3*
X106667040Y-91376120D03*
G04 #@! TO.P,J1,3*
G04 #@! TO.N,GPIO2*
X106667040Y-90126120D03*
G04 #@! TO.P,J1,4*
G04 #@! TO.N,GPIO1*
X106667040Y-88876120D03*
G04 #@! TO.P,J1,5*
G04 #@! TO.N,3V3DC*
X106667040Y-87626120D03*
G04 #@! TO.P,J1,6*
G04 #@! TO.N,5VDC*
X106667040Y-86376120D03*
D11*
G04 #@! TO.P,J1,MP*
G04 #@! TO.N,N/C*
X103317040Y-94476120D03*
X103317040Y-84526120D03*
G04 #@! TD*
D12*
G04 #@! TO.P,J2,1*
G04 #@! TO.N,Net-(J2-Pad1)*
X129352040Y-84251800D03*
D13*
G04 #@! TO.P,J2,2*
G04 #@! TO.N,GND*
X129352040Y-81711800D03*
G04 #@! TD*
G04 #@! TO.P,J3,2*
G04 #@! TO.N,GND*
X129346960Y-87970360D03*
D12*
G04 #@! TO.P,J3,1*
G04 #@! TO.N,Net-(J3-Pad1)*
X129346960Y-90510360D03*
G04 #@! TD*
G04 #@! TO.P,J4,1*
G04 #@! TO.N,Net-(J4-Pad1)*
X129311400Y-96748600D03*
D13*
G04 #@! TO.P,J4,2*
G04 #@! TO.N,GND*
X129311400Y-94208600D03*
G04 #@! TD*
D12*
G04 #@! TO.P,J5,1*
G04 #@! TO.N,Net-(J5-Pad1)*
X124444760Y-81701640D03*
G04 #@! TD*
G04 #@! TO.P,J6,1*
G04 #@! TO.N,Net-(J6-Pad1)*
X119893080Y-81711800D03*
G04 #@! TD*
G04 #@! TO.P,J7,1*
G04 #@! TO.N,Net-(J7-Pad1)*
X115341400Y-81742280D03*
G04 #@! TD*
D14*
G04 #@! TO.P,JP1,1*
G04 #@! TO.N,Net-(J5-Pad1)*
X125054120Y-94300040D03*
D15*
G04 #@! TD*
G04 #@! TO.N,Net-(J5-Pad1)*
G04 #@! TO.C,JP1*
G36*
X124554120Y-94600040D02*
X124154120Y-94600040D01*
X124154120Y-94000040D01*
X124554120Y-94000040D01*
X124554120Y-93550040D01*
X125554120Y-93550040D01*
X125554120Y-95050040D01*
X124554120Y-95050040D01*
X124554120Y-94600040D01*
X124554120Y-94600040D01*
G37*
D16*
G04 #@! TO.P,JP1,2*
G04 #@! TO.N,3V3DC*
X123754120Y-94300040D03*
G04 #@! TD*
G04 #@! TO.P,JP2,2*
G04 #@! TO.N,5VDC*
X118536960Y-89133680D03*
D14*
G04 #@! TO.P,JP2,1*
G04 #@! TO.N,Net-(J6-Pad1)*
X119836960Y-89133680D03*
D15*
G04 #@! TD*
G04 #@! TO.N,Net-(J6-Pad1)*
G04 #@! TO.C,JP2*
G36*
X119336960Y-89433680D02*
X118936960Y-89433680D01*
X118936960Y-88833680D01*
X119336960Y-88833680D01*
X119336960Y-88383680D01*
X120336960Y-88383680D01*
X120336960Y-89883680D01*
X119336960Y-89883680D01*
X119336960Y-89433680D01*
X119336960Y-89433680D01*
G37*
D14*
G04 #@! TO.P,JP3,1*
G04 #@! TO.N,Net-(J7-Pad1)*
X113872800Y-85785960D03*
D15*
G04 #@! TD*
G04 #@! TO.N,Net-(J7-Pad1)*
G04 #@! TO.C,JP3*
G36*
X113372800Y-86085960D02*
X112972800Y-86085960D01*
X112972800Y-85485960D01*
X113372800Y-85485960D01*
X113372800Y-85035960D01*
X114372800Y-85035960D01*
X114372800Y-86535960D01*
X113372800Y-86535960D01*
X113372800Y-86085960D01*
X113372800Y-86085960D01*
G37*
D16*
G04 #@! TO.P,JP3,2*
G04 #@! TO.N,5VDC*
X112572800Y-85785960D03*
G04 #@! TD*
D17*
G04 #@! TO.P,U1,1*
G04 #@! TO.N,GPIO3*
X123494800Y-96504760D03*
G04 #@! TO.P,U1,2*
G04 #@! TO.N,GND*
X123494800Y-97304760D03*
G04 #@! TO.P,U1,4*
G04 #@! TO.N,Net-(J5-Pad1)*
X125394800Y-96504760D03*
G04 #@! TO.P,U1,3*
G04 #@! TO.N,Net-(J4-Pad1)*
X125394800Y-97304760D03*
G04 #@! TD*
G04 #@! TO.P,U2,3*
G04 #@! TO.N,Net-(J3-Pad1)*
X120121760Y-92255240D03*
G04 #@! TO.P,U2,4*
G04 #@! TO.N,Net-(J6-Pad1)*
X120121760Y-91455240D03*
G04 #@! TO.P,U2,2*
G04 #@! TO.N,GND*
X118221760Y-92255240D03*
G04 #@! TO.P,U2,1*
G04 #@! TO.N,GPIO2*
X118221760Y-91455240D03*
G04 #@! TD*
G04 #@! TO.P,U3,1*
G04 #@! TO.N,GPIO1*
X112364520Y-88275160D03*
G04 #@! TO.P,U3,2*
G04 #@! TO.N,GND*
X112364520Y-89075160D03*
G04 #@! TO.P,U3,4*
G04 #@! TO.N,Net-(J7-Pad1)*
X114264520Y-88275160D03*
G04 #@! TO.P,U3,3*
G04 #@! TO.N,Net-(J2-Pad1)*
X114264520Y-89075160D03*
G04 #@! TD*
D15*
G04 #@! TO.N,Net-(F1-Pad1)*
G04 #@! TO.C,F1*
G36*
X109747644Y-93568484D02*
X109771913Y-93572084D01*
X109795711Y-93578045D01*
X109818811Y-93586310D01*
X109840989Y-93596800D01*
X109862033Y-93609413D01*
X109881738Y-93624027D01*
X109899917Y-93640503D01*
X109916393Y-93658682D01*
X109931007Y-93678387D01*
X109943620Y-93699431D01*
X109954110Y-93721609D01*
X109962375Y-93744709D01*
X109968336Y-93768507D01*
X109971936Y-93792776D01*
X109973140Y-93817280D01*
X109973140Y-95067280D01*
X109971936Y-95091784D01*
X109968336Y-95116053D01*
X109962375Y-95139851D01*
X109954110Y-95162951D01*
X109943620Y-95185129D01*
X109931007Y-95206173D01*
X109916393Y-95225878D01*
X109899917Y-95244057D01*
X109881738Y-95260533D01*
X109862033Y-95275147D01*
X109840989Y-95287760D01*
X109818811Y-95298250D01*
X109795711Y-95306515D01*
X109771913Y-95312476D01*
X109747644Y-95316076D01*
X109723140Y-95317280D01*
X108798140Y-95317280D01*
X108773636Y-95316076D01*
X108749367Y-95312476D01*
X108725569Y-95306515D01*
X108702469Y-95298250D01*
X108680291Y-95287760D01*
X108659247Y-95275147D01*
X108639542Y-95260533D01*
X108621363Y-95244057D01*
X108604887Y-95225878D01*
X108590273Y-95206173D01*
X108577660Y-95185129D01*
X108567170Y-95162951D01*
X108558905Y-95139851D01*
X108552944Y-95116053D01*
X108549344Y-95091784D01*
X108548140Y-95067280D01*
X108548140Y-93817280D01*
X108549344Y-93792776D01*
X108552944Y-93768507D01*
X108558905Y-93744709D01*
X108567170Y-93721609D01*
X108577660Y-93699431D01*
X108590273Y-93678387D01*
X108604887Y-93658682D01*
X108621363Y-93640503D01*
X108639542Y-93624027D01*
X108659247Y-93609413D01*
X108680291Y-93596800D01*
X108702469Y-93586310D01*
X108725569Y-93578045D01*
X108749367Y-93572084D01*
X108773636Y-93568484D01*
X108798140Y-93567280D01*
X109723140Y-93567280D01*
X109747644Y-93568484D01*
X109747644Y-93568484D01*
G37*
D18*
G04 #@! TD*
G04 #@! TO.P,F1,1*
G04 #@! TO.N,Net-(F1-Pad1)*
X109260640Y-94442280D03*
D15*
G04 #@! TO.N,GND*
G04 #@! TO.C,F1*
G36*
X112722644Y-93568484D02*
X112746913Y-93572084D01*
X112770711Y-93578045D01*
X112793811Y-93586310D01*
X112815989Y-93596800D01*
X112837033Y-93609413D01*
X112856738Y-93624027D01*
X112874917Y-93640503D01*
X112891393Y-93658682D01*
X112906007Y-93678387D01*
X112918620Y-93699431D01*
X112929110Y-93721609D01*
X112937375Y-93744709D01*
X112943336Y-93768507D01*
X112946936Y-93792776D01*
X112948140Y-93817280D01*
X112948140Y-95067280D01*
X112946936Y-95091784D01*
X112943336Y-95116053D01*
X112937375Y-95139851D01*
X112929110Y-95162951D01*
X112918620Y-95185129D01*
X112906007Y-95206173D01*
X112891393Y-95225878D01*
X112874917Y-95244057D01*
X112856738Y-95260533D01*
X112837033Y-95275147D01*
X112815989Y-95287760D01*
X112793811Y-95298250D01*
X112770711Y-95306515D01*
X112746913Y-95312476D01*
X112722644Y-95316076D01*
X112698140Y-95317280D01*
X111773140Y-95317280D01*
X111748636Y-95316076D01*
X111724367Y-95312476D01*
X111700569Y-95306515D01*
X111677469Y-95298250D01*
X111655291Y-95287760D01*
X111634247Y-95275147D01*
X111614542Y-95260533D01*
X111596363Y-95244057D01*
X111579887Y-95225878D01*
X111565273Y-95206173D01*
X111552660Y-95185129D01*
X111542170Y-95162951D01*
X111533905Y-95139851D01*
X111527944Y-95116053D01*
X111524344Y-95091784D01*
X111523140Y-95067280D01*
X111523140Y-93817280D01*
X111524344Y-93792776D01*
X111527944Y-93768507D01*
X111533905Y-93744709D01*
X111542170Y-93721609D01*
X111552660Y-93699431D01*
X111565273Y-93678387D01*
X111579887Y-93658682D01*
X111596363Y-93640503D01*
X111614542Y-93624027D01*
X111634247Y-93609413D01*
X111655291Y-93596800D01*
X111677469Y-93586310D01*
X111700569Y-93578045D01*
X111724367Y-93572084D01*
X111748636Y-93568484D01*
X111773140Y-93567280D01*
X112698140Y-93567280D01*
X112722644Y-93568484D01*
X112722644Y-93568484D01*
G37*
D18*
G04 #@! TD*
G04 #@! TO.P,F1,2*
G04 #@! TO.N,GND*
X112235640Y-94442280D03*
D19*
G04 #@! TO.N,GND*
X111500920Y-96433640D03*
X113314480Y-96377760D03*
X111526320Y-97962720D03*
X113299240Y-98003360D03*
X112369600Y-90200480D03*
X118221760Y-93426280D03*
X121711720Y-97312480D03*
G04 #@! TO.N,3V3DC*
X108198920Y-87833200D03*
X114208560Y-92242640D03*
G04 #@! TO.N,Net-(J2-Pad1)*
X115727480Y-89143840D03*
X121218960Y-86212680D03*
G04 #@! TO.N,Net-(J5-Pad1)*
X126166880Y-92511880D03*
G04 #@! TO.N,Net-(J6-Pad1)*
X119898160Y-87457280D03*
G04 #@! TO.N,Net-(J7-Pad1)*
X115290600Y-85796120D03*
G04 #@! TD*
D20*
G04 #@! TO.N,GND*
X112364520Y-89075160D02*
X112364520Y-90195400D01*
X112364520Y-90195400D02*
X112369600Y-90200480D01*
X118221760Y-92255240D02*
X118221760Y-93426280D01*
X123494800Y-97304760D02*
X121719440Y-97304760D01*
X121719440Y-97304760D02*
X121711720Y-97312480D01*
G04 #@! TO.N,GPIO3*
X122669800Y-96504760D02*
X121653800Y-95488760D01*
X123494800Y-96504760D02*
X122669800Y-96504760D01*
X121653800Y-95488760D02*
X116291360Y-95488760D01*
X112178720Y-91376120D02*
X106667040Y-91376120D01*
X116291360Y-95488760D02*
X112178720Y-91376120D01*
G04 #@! TO.N,GPIO2*
X117396760Y-91455240D02*
X118221760Y-91455240D01*
X116867630Y-90926110D02*
X117396760Y-91455240D01*
X108567030Y-90926110D02*
X116867630Y-90926110D01*
X107767040Y-90126120D02*
X108567030Y-90926110D01*
X106667040Y-90126120D02*
X107767040Y-90126120D01*
G04 #@! TO.N,GPIO1*
X112364520Y-88275160D02*
X109844840Y-88275160D01*
X109243880Y-88876120D02*
X106667040Y-88876120D01*
X109844840Y-88275160D02*
X109243880Y-88876120D01*
D21*
G04 #@! TO.N,3V3DC*
X106667040Y-87626120D02*
X107991840Y-87626120D01*
X107991840Y-87626120D02*
X108198920Y-87833200D01*
X116831645Y-94300040D02*
X123704110Y-94300040D01*
X114774245Y-92242640D02*
X116831645Y-94300040D01*
X114208560Y-92242640D02*
X114774245Y-92242640D01*
G04 #@! TO.N,Net-(J2-Pad1)*
X114264520Y-89075160D02*
X115658800Y-89075160D01*
X115658800Y-89075160D02*
X115727480Y-89143840D01*
X121218960Y-86212680D02*
X124962920Y-86212680D01*
X126923800Y-84251800D02*
X129352040Y-84251800D01*
X124962920Y-86212680D02*
X126923800Y-84251800D01*
G04 #@! TO.N,Net-(J3-Pad1)*
X120121760Y-92255240D02*
X124960480Y-92255240D01*
X126705360Y-90510360D02*
X129346960Y-90510360D01*
X124960480Y-92255240D02*
X126705360Y-90510360D01*
G04 #@! TO.N,Net-(J4-Pad1)*
X128755240Y-97304760D02*
X129311400Y-96748600D01*
X125394800Y-97304760D02*
X128755240Y-97304760D01*
G04 #@! TO.N,Net-(J5-Pad1)*
X125394800Y-94640720D02*
X125054120Y-94300040D01*
X125394800Y-96504760D02*
X125394800Y-94640720D01*
X126166880Y-93187280D02*
X125054120Y-94300040D01*
X126166880Y-92511880D02*
X126166880Y-93187280D01*
G04 #@! TO.N,Net-(J6-Pad1)*
X120121760Y-89418480D02*
X119836960Y-89133680D01*
X120121760Y-91455240D02*
X120121760Y-89418480D01*
X119898160Y-89072480D02*
X119836960Y-89133680D01*
X119898160Y-87457280D02*
X119898160Y-89072480D01*
G04 #@! TO.N,Net-(J7-Pad1)*
X114264520Y-86177680D02*
X113872800Y-85785960D01*
X114264520Y-88275160D02*
X114264520Y-86177680D01*
X113882960Y-85796120D02*
X113872800Y-85785960D01*
X115290600Y-85796120D02*
X113882960Y-85796120D01*
G04 #@! TD*
D22*
G04 #@! TO.N,5VDC*
G36*
X108941810Y-79697084D02*
X108400634Y-80238260D01*
X108075600Y-81022962D01*
X108075600Y-81872318D01*
X108400634Y-82657020D01*
X109001220Y-83257606D01*
X109785922Y-83582640D01*
X110635278Y-83582640D01*
X111419980Y-83257606D01*
X112020566Y-82657020D01*
X112345600Y-81872318D01*
X112345600Y-81022962D01*
X112291470Y-80892280D01*
X113843960Y-80892280D01*
X113843960Y-82592280D01*
X113893243Y-82840045D01*
X114033591Y-83050089D01*
X114243635Y-83190437D01*
X114491400Y-83239720D01*
X116191400Y-83239720D01*
X116439165Y-83190437D01*
X116649209Y-83050089D01*
X116789557Y-82840045D01*
X116838840Y-82592280D01*
X116838840Y-80892280D01*
X116832778Y-80861800D01*
X118395640Y-80861800D01*
X118395640Y-82561800D01*
X118444923Y-82809565D01*
X118585271Y-83019609D01*
X118795315Y-83159957D01*
X119043080Y-83209240D01*
X120743080Y-83209240D01*
X120990845Y-83159957D01*
X121200889Y-83019609D01*
X121341237Y-82809565D01*
X121390520Y-82561800D01*
X121390520Y-80861800D01*
X121388500Y-80851640D01*
X122947320Y-80851640D01*
X122947320Y-82551640D01*
X122996603Y-82799405D01*
X123136951Y-83009449D01*
X123346995Y-83149797D01*
X123594760Y-83199080D01*
X125294760Y-83199080D01*
X125542525Y-83149797D01*
X125752569Y-83009449D01*
X125892917Y-82799405D01*
X125942200Y-82551640D01*
X125942200Y-80851640D01*
X125892917Y-80603875D01*
X125752569Y-80393831D01*
X125542525Y-80253483D01*
X125294760Y-80204200D01*
X123594760Y-80204200D01*
X123346995Y-80253483D01*
X123136951Y-80393831D01*
X122996603Y-80603875D01*
X122947320Y-80851640D01*
X121388500Y-80851640D01*
X121341237Y-80614035D01*
X121200889Y-80403991D01*
X120990845Y-80263643D01*
X120743080Y-80214360D01*
X119043080Y-80214360D01*
X118795315Y-80263643D01*
X118585271Y-80403991D01*
X118444923Y-80614035D01*
X118395640Y-80861800D01*
X116832778Y-80861800D01*
X116789557Y-80644515D01*
X116649209Y-80434471D01*
X116439165Y-80294123D01*
X116191400Y-80244840D01*
X114491400Y-80244840D01*
X114243635Y-80294123D01*
X114033591Y-80434471D01*
X113893243Y-80644515D01*
X113843960Y-80892280D01*
X112291470Y-80892280D01*
X112020566Y-80238260D01*
X111480915Y-79698609D01*
X128831780Y-79709032D01*
X129295980Y-79771148D01*
X129685286Y-79933374D01*
X130019341Y-80190832D01*
X130275376Y-80525974D01*
X130284910Y-80549130D01*
X129931458Y-80312961D01*
X129498296Y-80226800D01*
X129205784Y-80226800D01*
X128772622Y-80312961D01*
X128281415Y-80641175D01*
X127953201Y-81132382D01*
X127837948Y-81711800D01*
X127953201Y-82291218D01*
X128281415Y-82782425D01*
X128299659Y-82794616D01*
X128254275Y-82803643D01*
X128044231Y-82943991D01*
X127903883Y-83154035D01*
X127861562Y-83366800D01*
X127010959Y-83366800D01*
X126923799Y-83349463D01*
X126836639Y-83366800D01*
X126836635Y-83366800D01*
X126578490Y-83418148D01*
X126578488Y-83418149D01*
X126578489Y-83418149D01*
X126359645Y-83564376D01*
X126359644Y-83564377D01*
X126285751Y-83613751D01*
X126236377Y-83687644D01*
X124596342Y-85327680D01*
X121786967Y-85327680D01*
X121424834Y-85177680D01*
X121013086Y-85177680D01*
X120632680Y-85335249D01*
X120341529Y-85626400D01*
X120183960Y-86006806D01*
X120183960Y-86418554D01*
X120202376Y-86463015D01*
X120104034Y-86422280D01*
X119692286Y-86422280D01*
X119311880Y-86579849D01*
X119020729Y-86871000D01*
X118863160Y-87251406D01*
X118863160Y-87663154D01*
X118898586Y-87748680D01*
X118822710Y-87748680D01*
X118663960Y-87907430D01*
X118663960Y-88252385D01*
X118479151Y-88375871D01*
X118409960Y-88479422D01*
X118409960Y-87907430D01*
X118251210Y-87748680D01*
X117910651Y-87748680D01*
X117677262Y-87845353D01*
X117498633Y-88023981D01*
X117401960Y-88257370D01*
X117401960Y-88847930D01*
X117560710Y-89006680D01*
X118289520Y-89006680D01*
X118289520Y-89260680D01*
X117560710Y-89260680D01*
X117401960Y-89419430D01*
X117401960Y-90009990D01*
X117498633Y-90243379D01*
X117677262Y-90422007D01*
X117910651Y-90518680D01*
X118251210Y-90518680D01*
X118409960Y-90359930D01*
X118409960Y-89787938D01*
X118479151Y-89891489D01*
X118663960Y-90014975D01*
X118663960Y-90359930D01*
X118822710Y-90518680D01*
X119163269Y-90518680D01*
X119199328Y-90503744D01*
X119236760Y-90511189D01*
X119236760Y-90623667D01*
X119171760Y-90667099D01*
X119044525Y-90582083D01*
X118796760Y-90532800D01*
X117646760Y-90532800D01*
X117565320Y-90548999D01*
X117457961Y-90441640D01*
X117415559Y-90378181D01*
X117164167Y-90210206D01*
X116942482Y-90166110D01*
X116942477Y-90166110D01*
X116867630Y-90151222D01*
X116792783Y-90166110D01*
X115964087Y-90166110D01*
X116313760Y-90021271D01*
X116604911Y-89730120D01*
X116762480Y-89349714D01*
X116762480Y-88937966D01*
X116604911Y-88557560D01*
X116313760Y-88266409D01*
X115933354Y-88108840D01*
X115521606Y-88108840D01*
X115486960Y-88123191D01*
X115486960Y-88000160D01*
X115437677Y-87752395D01*
X115297329Y-87542351D01*
X115149520Y-87443587D01*
X115149520Y-86831120D01*
X115496474Y-86831120D01*
X115876880Y-86673551D01*
X116168031Y-86382400D01*
X116325600Y-86001994D01*
X116325600Y-85590246D01*
X116168031Y-85209840D01*
X115876880Y-84918689D01*
X115496474Y-84761120D01*
X115084726Y-84761120D01*
X114974641Y-84806718D01*
X114970957Y-84788195D01*
X114830609Y-84578151D01*
X114620565Y-84437803D01*
X114372800Y-84388520D01*
X113372800Y-84388520D01*
X113235168Y-84415896D01*
X113199109Y-84400960D01*
X112858550Y-84400960D01*
X112699800Y-84559710D01*
X112699800Y-84904665D01*
X112514991Y-85028151D01*
X112445800Y-85131702D01*
X112445800Y-84559710D01*
X112287050Y-84400960D01*
X111946491Y-84400960D01*
X111713102Y-84497633D01*
X111534473Y-84676261D01*
X111437800Y-84909650D01*
X111437800Y-85500210D01*
X111596550Y-85658960D01*
X112325360Y-85658960D01*
X112325360Y-85912960D01*
X111596550Y-85912960D01*
X111437800Y-86071710D01*
X111437800Y-86662270D01*
X111534473Y-86895659D01*
X111713102Y-87074287D01*
X111946491Y-87170960D01*
X112287050Y-87170960D01*
X112445800Y-87012210D01*
X112445800Y-86440218D01*
X112514991Y-86543769D01*
X112699800Y-86667255D01*
X112699800Y-87012210D01*
X112858550Y-87170960D01*
X113199109Y-87170960D01*
X113235168Y-87156024D01*
X113372800Y-87183400D01*
X113379521Y-87183400D01*
X113379520Y-87443587D01*
X113314520Y-87487019D01*
X113187285Y-87402003D01*
X112939520Y-87352720D01*
X111789520Y-87352720D01*
X111541755Y-87402003D01*
X111372405Y-87515160D01*
X109919688Y-87515160D01*
X109844840Y-87500272D01*
X109769992Y-87515160D01*
X109769988Y-87515160D01*
X109596445Y-87549680D01*
X109548302Y-87559256D01*
X109448234Y-87626120D01*
X109296911Y-87727231D01*
X109254511Y-87790687D01*
X109233920Y-87811278D01*
X109233920Y-87627326D01*
X109076351Y-87246920D01*
X108785200Y-86955769D01*
X108404794Y-86798200D01*
X108345728Y-86798200D01*
X108337150Y-86792468D01*
X108152040Y-86755647D01*
X108152040Y-86661870D01*
X107993290Y-86503120D01*
X106794040Y-86503120D01*
X106794040Y-86523120D01*
X106540040Y-86523120D01*
X106540040Y-86503120D01*
X105340790Y-86503120D01*
X105182040Y-86661870D01*
X105182040Y-86802429D01*
X105266694Y-87006801D01*
X105218883Y-87078355D01*
X105169600Y-87326120D01*
X105169600Y-87926120D01*
X105218883Y-88173885D01*
X105270490Y-88251120D01*
X105218883Y-88328355D01*
X105169600Y-88576120D01*
X105169600Y-89176120D01*
X105218883Y-89423885D01*
X105270490Y-89501120D01*
X105218883Y-89578355D01*
X105169600Y-89826120D01*
X105169600Y-90426120D01*
X105218883Y-90673885D01*
X105270490Y-90751120D01*
X105218883Y-90828355D01*
X105169600Y-91076120D01*
X105169600Y-91500591D01*
X104978517Y-91623817D01*
X104837530Y-91827557D01*
X104785244Y-92069742D01*
X104764592Y-93338139D01*
X104717040Y-93328680D01*
X101917040Y-93328680D01*
X101900291Y-93332012D01*
X101892980Y-85949811D01*
X105182040Y-85949811D01*
X105182040Y-86090370D01*
X105340790Y-86249120D01*
X106540040Y-86249120D01*
X106540040Y-85599870D01*
X106794040Y-85599870D01*
X106794040Y-86249120D01*
X107993290Y-86249120D01*
X108152040Y-86090370D01*
X108152040Y-85949811D01*
X108055367Y-85716422D01*
X107876739Y-85537793D01*
X107643350Y-85441120D01*
X106952790Y-85441120D01*
X106794040Y-85599870D01*
X106540040Y-85599870D01*
X106381290Y-85441120D01*
X105690730Y-85441120D01*
X105457341Y-85537793D01*
X105278713Y-85716422D01*
X105182040Y-85949811D01*
X101892980Y-85949811D01*
X101892701Y-85668719D01*
X101917040Y-85673560D01*
X104717040Y-85673560D01*
X104964805Y-85624277D01*
X105174849Y-85483929D01*
X105315197Y-85273885D01*
X105364480Y-85026120D01*
X105364480Y-84026120D01*
X105315197Y-83778355D01*
X105174849Y-83568311D01*
X104964805Y-83427963D01*
X104717040Y-83378680D01*
X101917040Y-83378680D01*
X101890439Y-83383971D01*
X101888426Y-81352199D01*
X101950423Y-80888890D01*
X102112649Y-80499584D01*
X102370107Y-80165529D01*
X102705249Y-79909494D01*
X103095595Y-79748776D01*
X103516448Y-79693825D01*
X108941810Y-79697084D01*
X108941810Y-79697084D01*
G37*
X108941810Y-79697084D02*
X108400634Y-80238260D01*
X108075600Y-81022962D01*
X108075600Y-81872318D01*
X108400634Y-82657020D01*
X109001220Y-83257606D01*
X109785922Y-83582640D01*
X110635278Y-83582640D01*
X111419980Y-83257606D01*
X112020566Y-82657020D01*
X112345600Y-81872318D01*
X112345600Y-81022962D01*
X112291470Y-80892280D01*
X113843960Y-80892280D01*
X113843960Y-82592280D01*
X113893243Y-82840045D01*
X114033591Y-83050089D01*
X114243635Y-83190437D01*
X114491400Y-83239720D01*
X116191400Y-83239720D01*
X116439165Y-83190437D01*
X116649209Y-83050089D01*
X116789557Y-82840045D01*
X116838840Y-82592280D01*
X116838840Y-80892280D01*
X116832778Y-80861800D01*
X118395640Y-80861800D01*
X118395640Y-82561800D01*
X118444923Y-82809565D01*
X118585271Y-83019609D01*
X118795315Y-83159957D01*
X119043080Y-83209240D01*
X120743080Y-83209240D01*
X120990845Y-83159957D01*
X121200889Y-83019609D01*
X121341237Y-82809565D01*
X121390520Y-82561800D01*
X121390520Y-80861800D01*
X121388500Y-80851640D01*
X122947320Y-80851640D01*
X122947320Y-82551640D01*
X122996603Y-82799405D01*
X123136951Y-83009449D01*
X123346995Y-83149797D01*
X123594760Y-83199080D01*
X125294760Y-83199080D01*
X125542525Y-83149797D01*
X125752569Y-83009449D01*
X125892917Y-82799405D01*
X125942200Y-82551640D01*
X125942200Y-80851640D01*
X125892917Y-80603875D01*
X125752569Y-80393831D01*
X125542525Y-80253483D01*
X125294760Y-80204200D01*
X123594760Y-80204200D01*
X123346995Y-80253483D01*
X123136951Y-80393831D01*
X122996603Y-80603875D01*
X122947320Y-80851640D01*
X121388500Y-80851640D01*
X121341237Y-80614035D01*
X121200889Y-80403991D01*
X120990845Y-80263643D01*
X120743080Y-80214360D01*
X119043080Y-80214360D01*
X118795315Y-80263643D01*
X118585271Y-80403991D01*
X118444923Y-80614035D01*
X118395640Y-80861800D01*
X116832778Y-80861800D01*
X116789557Y-80644515D01*
X116649209Y-80434471D01*
X116439165Y-80294123D01*
X116191400Y-80244840D01*
X114491400Y-80244840D01*
X114243635Y-80294123D01*
X114033591Y-80434471D01*
X113893243Y-80644515D01*
X113843960Y-80892280D01*
X112291470Y-80892280D01*
X112020566Y-80238260D01*
X111480915Y-79698609D01*
X128831780Y-79709032D01*
X129295980Y-79771148D01*
X129685286Y-79933374D01*
X130019341Y-80190832D01*
X130275376Y-80525974D01*
X130284910Y-80549130D01*
X129931458Y-80312961D01*
X129498296Y-80226800D01*
X129205784Y-80226800D01*
X128772622Y-80312961D01*
X128281415Y-80641175D01*
X127953201Y-81132382D01*
X127837948Y-81711800D01*
X127953201Y-82291218D01*
X128281415Y-82782425D01*
X128299659Y-82794616D01*
X128254275Y-82803643D01*
X128044231Y-82943991D01*
X127903883Y-83154035D01*
X127861562Y-83366800D01*
X127010959Y-83366800D01*
X126923799Y-83349463D01*
X126836639Y-83366800D01*
X126836635Y-83366800D01*
X126578490Y-83418148D01*
X126578488Y-83418149D01*
X126578489Y-83418149D01*
X126359645Y-83564376D01*
X126359644Y-83564377D01*
X126285751Y-83613751D01*
X126236377Y-83687644D01*
X124596342Y-85327680D01*
X121786967Y-85327680D01*
X121424834Y-85177680D01*
X121013086Y-85177680D01*
X120632680Y-85335249D01*
X120341529Y-85626400D01*
X120183960Y-86006806D01*
X120183960Y-86418554D01*
X120202376Y-86463015D01*
X120104034Y-86422280D01*
X119692286Y-86422280D01*
X119311880Y-86579849D01*
X119020729Y-86871000D01*
X118863160Y-87251406D01*
X118863160Y-87663154D01*
X118898586Y-87748680D01*
X118822710Y-87748680D01*
X118663960Y-87907430D01*
X118663960Y-88252385D01*
X118479151Y-88375871D01*
X118409960Y-88479422D01*
X118409960Y-87907430D01*
X118251210Y-87748680D01*
X117910651Y-87748680D01*
X117677262Y-87845353D01*
X117498633Y-88023981D01*
X117401960Y-88257370D01*
X117401960Y-88847930D01*
X117560710Y-89006680D01*
X118289520Y-89006680D01*
X118289520Y-89260680D01*
X117560710Y-89260680D01*
X117401960Y-89419430D01*
X117401960Y-90009990D01*
X117498633Y-90243379D01*
X117677262Y-90422007D01*
X117910651Y-90518680D01*
X118251210Y-90518680D01*
X118409960Y-90359930D01*
X118409960Y-89787938D01*
X118479151Y-89891489D01*
X118663960Y-90014975D01*
X118663960Y-90359930D01*
X118822710Y-90518680D01*
X119163269Y-90518680D01*
X119199328Y-90503744D01*
X119236760Y-90511189D01*
X119236760Y-90623667D01*
X119171760Y-90667099D01*
X119044525Y-90582083D01*
X118796760Y-90532800D01*
X117646760Y-90532800D01*
X117565320Y-90548999D01*
X117457961Y-90441640D01*
X117415559Y-90378181D01*
X117164167Y-90210206D01*
X116942482Y-90166110D01*
X116942477Y-90166110D01*
X116867630Y-90151222D01*
X116792783Y-90166110D01*
X115964087Y-90166110D01*
X116313760Y-90021271D01*
X116604911Y-89730120D01*
X116762480Y-89349714D01*
X116762480Y-88937966D01*
X116604911Y-88557560D01*
X116313760Y-88266409D01*
X115933354Y-88108840D01*
X115521606Y-88108840D01*
X115486960Y-88123191D01*
X115486960Y-88000160D01*
X115437677Y-87752395D01*
X115297329Y-87542351D01*
X115149520Y-87443587D01*
X115149520Y-86831120D01*
X115496474Y-86831120D01*
X115876880Y-86673551D01*
X116168031Y-86382400D01*
X116325600Y-86001994D01*
X116325600Y-85590246D01*
X116168031Y-85209840D01*
X115876880Y-84918689D01*
X115496474Y-84761120D01*
X115084726Y-84761120D01*
X114974641Y-84806718D01*
X114970957Y-84788195D01*
X114830609Y-84578151D01*
X114620565Y-84437803D01*
X114372800Y-84388520D01*
X113372800Y-84388520D01*
X113235168Y-84415896D01*
X113199109Y-84400960D01*
X112858550Y-84400960D01*
X112699800Y-84559710D01*
X112699800Y-84904665D01*
X112514991Y-85028151D01*
X112445800Y-85131702D01*
X112445800Y-84559710D01*
X112287050Y-84400960D01*
X111946491Y-84400960D01*
X111713102Y-84497633D01*
X111534473Y-84676261D01*
X111437800Y-84909650D01*
X111437800Y-85500210D01*
X111596550Y-85658960D01*
X112325360Y-85658960D01*
X112325360Y-85912960D01*
X111596550Y-85912960D01*
X111437800Y-86071710D01*
X111437800Y-86662270D01*
X111534473Y-86895659D01*
X111713102Y-87074287D01*
X111946491Y-87170960D01*
X112287050Y-87170960D01*
X112445800Y-87012210D01*
X112445800Y-86440218D01*
X112514991Y-86543769D01*
X112699800Y-86667255D01*
X112699800Y-87012210D01*
X112858550Y-87170960D01*
X113199109Y-87170960D01*
X113235168Y-87156024D01*
X113372800Y-87183400D01*
X113379521Y-87183400D01*
X113379520Y-87443587D01*
X113314520Y-87487019D01*
X113187285Y-87402003D01*
X112939520Y-87352720D01*
X111789520Y-87352720D01*
X111541755Y-87402003D01*
X111372405Y-87515160D01*
X109919688Y-87515160D01*
X109844840Y-87500272D01*
X109769992Y-87515160D01*
X109769988Y-87515160D01*
X109596445Y-87549680D01*
X109548302Y-87559256D01*
X109448234Y-87626120D01*
X109296911Y-87727231D01*
X109254511Y-87790687D01*
X109233920Y-87811278D01*
X109233920Y-87627326D01*
X109076351Y-87246920D01*
X108785200Y-86955769D01*
X108404794Y-86798200D01*
X108345728Y-86798200D01*
X108337150Y-86792468D01*
X108152040Y-86755647D01*
X108152040Y-86661870D01*
X107993290Y-86503120D01*
X106794040Y-86503120D01*
X106794040Y-86523120D01*
X106540040Y-86523120D01*
X106540040Y-86503120D01*
X105340790Y-86503120D01*
X105182040Y-86661870D01*
X105182040Y-86802429D01*
X105266694Y-87006801D01*
X105218883Y-87078355D01*
X105169600Y-87326120D01*
X105169600Y-87926120D01*
X105218883Y-88173885D01*
X105270490Y-88251120D01*
X105218883Y-88328355D01*
X105169600Y-88576120D01*
X105169600Y-89176120D01*
X105218883Y-89423885D01*
X105270490Y-89501120D01*
X105218883Y-89578355D01*
X105169600Y-89826120D01*
X105169600Y-90426120D01*
X105218883Y-90673885D01*
X105270490Y-90751120D01*
X105218883Y-90828355D01*
X105169600Y-91076120D01*
X105169600Y-91500591D01*
X104978517Y-91623817D01*
X104837530Y-91827557D01*
X104785244Y-92069742D01*
X104764592Y-93338139D01*
X104717040Y-93328680D01*
X101917040Y-93328680D01*
X101900291Y-93332012D01*
X101892980Y-85949811D01*
X105182040Y-85949811D01*
X105182040Y-86090370D01*
X105340790Y-86249120D01*
X106540040Y-86249120D01*
X106540040Y-85599870D01*
X106794040Y-85599870D01*
X106794040Y-86249120D01*
X107993290Y-86249120D01*
X108152040Y-86090370D01*
X108152040Y-85949811D01*
X108055367Y-85716422D01*
X107876739Y-85537793D01*
X107643350Y-85441120D01*
X106952790Y-85441120D01*
X106794040Y-85599870D01*
X106540040Y-85599870D01*
X106381290Y-85441120D01*
X105690730Y-85441120D01*
X105457341Y-85537793D01*
X105278713Y-85716422D01*
X105182040Y-85949811D01*
X101892980Y-85949811D01*
X101892701Y-85668719D01*
X101917040Y-85673560D01*
X104717040Y-85673560D01*
X104964805Y-85624277D01*
X105174849Y-85483929D01*
X105315197Y-85273885D01*
X105364480Y-85026120D01*
X105364480Y-84026120D01*
X105315197Y-83778355D01*
X105174849Y-83568311D01*
X104964805Y-83427963D01*
X104717040Y-83378680D01*
X101917040Y-83378680D01*
X101890439Y-83383971D01*
X101888426Y-81352199D01*
X101950423Y-80888890D01*
X102112649Y-80499584D01*
X102370107Y-80165529D01*
X102705249Y-79909494D01*
X103095595Y-79748776D01*
X103516448Y-79693825D01*
X108941810Y-79697084D01*
G04 #@! TO.N,Net-(F1-Pad1)*
G36*
X110296786Y-92291264D02*
X110295975Y-92875291D01*
X110251782Y-92903759D01*
X110110695Y-93107430D01*
X110058289Y-93349589D01*
X110018909Y-95697040D01*
X105488285Y-95697040D01*
X105544286Y-92257580D01*
X105569275Y-92274277D01*
X105817040Y-92323560D01*
X107517040Y-92323560D01*
X107764805Y-92274277D01*
X107803775Y-92248238D01*
X110296786Y-92291264D01*
X110296786Y-92291264D01*
G37*
X110296786Y-92291264D02*
X110295975Y-92875291D01*
X110251782Y-92903759D01*
X110110695Y-93107430D01*
X110058289Y-93349589D01*
X110018909Y-95697040D01*
X105488285Y-95697040D01*
X105544286Y-92257580D01*
X105569275Y-92274277D01*
X105817040Y-92323560D01*
X107517040Y-92323560D01*
X107764805Y-92274277D01*
X107803775Y-92248238D01*
X110296786Y-92291264D01*
G04 #@! TO.N,GND*
G36*
X110888140Y-94156530D02*
X111046890Y-94315280D01*
X112108640Y-94315280D01*
X112108640Y-94295280D01*
X112362640Y-94295280D01*
X112362640Y-94315280D01*
X113424390Y-94315280D01*
X113583140Y-94156530D01*
X113583140Y-93855341D01*
X114021370Y-94293571D01*
X114043341Y-98292012D01*
X110737474Y-98292674D01*
X110797272Y-94728030D01*
X110888140Y-94728030D01*
X110888140Y-95443590D01*
X110984813Y-95676979D01*
X111163442Y-95855607D01*
X111396831Y-95952280D01*
X111949890Y-95952280D01*
X112108640Y-95793530D01*
X112108640Y-94569280D01*
X112362640Y-94569280D01*
X112362640Y-95793530D01*
X112521390Y-95952280D01*
X113074449Y-95952280D01*
X113307838Y-95855607D01*
X113486467Y-95676979D01*
X113583140Y-95443590D01*
X113583140Y-94728030D01*
X113424390Y-94569280D01*
X112362640Y-94569280D01*
X112108640Y-94569280D01*
X111046890Y-94569280D01*
X110888140Y-94728030D01*
X110797272Y-94728030D01*
X110818150Y-93483521D01*
X110888140Y-93481405D01*
X110888140Y-94156530D01*
X110888140Y-94156530D01*
G37*
X110888140Y-94156530D02*
X111046890Y-94315280D01*
X112108640Y-94315280D01*
X112108640Y-94295280D01*
X112362640Y-94295280D01*
X112362640Y-94315280D01*
X113424390Y-94315280D01*
X113583140Y-94156530D01*
X113583140Y-93855341D01*
X114021370Y-94293571D01*
X114043341Y-98292012D01*
X110737474Y-98292674D01*
X110797272Y-94728030D01*
X110888140Y-94728030D01*
X110888140Y-95443590D01*
X110984813Y-95676979D01*
X111163442Y-95855607D01*
X111396831Y-95952280D01*
X111949890Y-95952280D01*
X112108640Y-95793530D01*
X112108640Y-94569280D01*
X112362640Y-94569280D01*
X112362640Y-95793530D01*
X112521390Y-95952280D01*
X113074449Y-95952280D01*
X113307838Y-95855607D01*
X113486467Y-95676979D01*
X113583140Y-95443590D01*
X113583140Y-94728030D01*
X113424390Y-94569280D01*
X112362640Y-94569280D01*
X112108640Y-94569280D01*
X111046890Y-94569280D01*
X110888140Y-94728030D01*
X110797272Y-94728030D01*
X110818150Y-93483521D01*
X110888140Y-93481405D01*
X110888140Y-94156530D01*
G04 #@! TD*
M02*
