G04 #@! TF.GenerationSoftware,KiCad,Pcbnew,(5.0.0)*
G04 #@! TF.CreationDate,2019-01-08T23:41:56-05:00*
G04 #@! TF.ProjectId,Relay Breakout,52656C617920427265616B6F75742E6B,rev?*
G04 #@! TF.SameCoordinates,Original*
G04 #@! TF.FileFunction,Paste,Top*
G04 #@! TF.FilePolarity,Positive*
%FSLAX46Y46*%
G04 Gerber Fmt 4.6, Leading zero omitted, Abs format (unit mm)*
G04 Created by KiCad (PCBNEW (5.0.0)) date 01/08/19 23:41:56*
%MOMM*%
%LPD*%
G01*
G04 APERTURE LIST*
%ADD10R,1.700000X0.600000*%
%ADD11R,2.800000X1.000000*%
%ADD12R,1.150000X0.550000*%
%ADD13C,0.100000*%
%ADD14C,1.425000*%
G04 APERTURE END LIST*
D10*
G04 #@! TO.C,J1*
X106667040Y-92626120D03*
X106667040Y-91376120D03*
X106667040Y-90126120D03*
X106667040Y-88876120D03*
X106667040Y-87626120D03*
X106667040Y-86376120D03*
D11*
X103317040Y-94476120D03*
X103317040Y-84526120D03*
G04 #@! TD*
D12*
G04 #@! TO.C,U1*
X123494800Y-96504760D03*
X123494800Y-97304760D03*
X125394800Y-96504760D03*
X125394800Y-97304760D03*
G04 #@! TD*
G04 #@! TO.C,U2*
X120121760Y-92255240D03*
X120121760Y-91455240D03*
X118221760Y-92255240D03*
X118221760Y-91455240D03*
G04 #@! TD*
G04 #@! TO.C,U3*
X112364520Y-88275160D03*
X112364520Y-89075160D03*
X114264520Y-88275160D03*
X114264520Y-89075160D03*
G04 #@! TD*
D13*
G04 #@! TO.C,F1*
G36*
X109747644Y-93568484D02*
X109771913Y-93572084D01*
X109795711Y-93578045D01*
X109818811Y-93586310D01*
X109840989Y-93596800D01*
X109862033Y-93609413D01*
X109881738Y-93624027D01*
X109899917Y-93640503D01*
X109916393Y-93658682D01*
X109931007Y-93678387D01*
X109943620Y-93699431D01*
X109954110Y-93721609D01*
X109962375Y-93744709D01*
X109968336Y-93768507D01*
X109971936Y-93792776D01*
X109973140Y-93817280D01*
X109973140Y-95067280D01*
X109971936Y-95091784D01*
X109968336Y-95116053D01*
X109962375Y-95139851D01*
X109954110Y-95162951D01*
X109943620Y-95185129D01*
X109931007Y-95206173D01*
X109916393Y-95225878D01*
X109899917Y-95244057D01*
X109881738Y-95260533D01*
X109862033Y-95275147D01*
X109840989Y-95287760D01*
X109818811Y-95298250D01*
X109795711Y-95306515D01*
X109771913Y-95312476D01*
X109747644Y-95316076D01*
X109723140Y-95317280D01*
X108798140Y-95317280D01*
X108773636Y-95316076D01*
X108749367Y-95312476D01*
X108725569Y-95306515D01*
X108702469Y-95298250D01*
X108680291Y-95287760D01*
X108659247Y-95275147D01*
X108639542Y-95260533D01*
X108621363Y-95244057D01*
X108604887Y-95225878D01*
X108590273Y-95206173D01*
X108577660Y-95185129D01*
X108567170Y-95162951D01*
X108558905Y-95139851D01*
X108552944Y-95116053D01*
X108549344Y-95091784D01*
X108548140Y-95067280D01*
X108548140Y-93817280D01*
X108549344Y-93792776D01*
X108552944Y-93768507D01*
X108558905Y-93744709D01*
X108567170Y-93721609D01*
X108577660Y-93699431D01*
X108590273Y-93678387D01*
X108604887Y-93658682D01*
X108621363Y-93640503D01*
X108639542Y-93624027D01*
X108659247Y-93609413D01*
X108680291Y-93596800D01*
X108702469Y-93586310D01*
X108725569Y-93578045D01*
X108749367Y-93572084D01*
X108773636Y-93568484D01*
X108798140Y-93567280D01*
X109723140Y-93567280D01*
X109747644Y-93568484D01*
X109747644Y-93568484D01*
G37*
D14*
X109260640Y-94442280D03*
D13*
G36*
X112722644Y-93568484D02*
X112746913Y-93572084D01*
X112770711Y-93578045D01*
X112793811Y-93586310D01*
X112815989Y-93596800D01*
X112837033Y-93609413D01*
X112856738Y-93624027D01*
X112874917Y-93640503D01*
X112891393Y-93658682D01*
X112906007Y-93678387D01*
X112918620Y-93699431D01*
X112929110Y-93721609D01*
X112937375Y-93744709D01*
X112943336Y-93768507D01*
X112946936Y-93792776D01*
X112948140Y-93817280D01*
X112948140Y-95067280D01*
X112946936Y-95091784D01*
X112943336Y-95116053D01*
X112937375Y-95139851D01*
X112929110Y-95162951D01*
X112918620Y-95185129D01*
X112906007Y-95206173D01*
X112891393Y-95225878D01*
X112874917Y-95244057D01*
X112856738Y-95260533D01*
X112837033Y-95275147D01*
X112815989Y-95287760D01*
X112793811Y-95298250D01*
X112770711Y-95306515D01*
X112746913Y-95312476D01*
X112722644Y-95316076D01*
X112698140Y-95317280D01*
X111773140Y-95317280D01*
X111748636Y-95316076D01*
X111724367Y-95312476D01*
X111700569Y-95306515D01*
X111677469Y-95298250D01*
X111655291Y-95287760D01*
X111634247Y-95275147D01*
X111614542Y-95260533D01*
X111596363Y-95244057D01*
X111579887Y-95225878D01*
X111565273Y-95206173D01*
X111552660Y-95185129D01*
X111542170Y-95162951D01*
X111533905Y-95139851D01*
X111527944Y-95116053D01*
X111524344Y-95091784D01*
X111523140Y-95067280D01*
X111523140Y-93817280D01*
X111524344Y-93792776D01*
X111527944Y-93768507D01*
X111533905Y-93744709D01*
X111542170Y-93721609D01*
X111552660Y-93699431D01*
X111565273Y-93678387D01*
X111579887Y-93658682D01*
X111596363Y-93640503D01*
X111614542Y-93624027D01*
X111634247Y-93609413D01*
X111655291Y-93596800D01*
X111677469Y-93586310D01*
X111700569Y-93578045D01*
X111724367Y-93572084D01*
X111748636Y-93568484D01*
X111773140Y-93567280D01*
X112698140Y-93567280D01*
X112722644Y-93568484D01*
X112722644Y-93568484D01*
G37*
D14*
X112235640Y-94442280D03*
G04 #@! TD*
M02*
