M48
;DRILL file {KiCad (5.0.0)} date 01/08/19 23:41:58
;FORMAT={-:-/ absolute / inch / decimal}
FMAT,2
INCH,TZ
T1C0.0157
T2C0.0394
%
G90
G05
M72
T1
X4.2598Y-3.458
X4.3898Y-3.7966
X4.3908Y-3.8568
X4.424Y-3.5512
X4.4606Y-3.8584
X4.4612Y-3.7944
X4.4964Y-3.6316
X4.539Y-3.3778
X4.5562Y-3.5096
X4.6544Y-3.6782
X4.7204Y-3.4432
X4.7724Y-3.3942
X4.7918Y-3.8312
X4.9672Y-3.6422
T2
X4.7202Y-3.217
X5.0926Y-3.217
X5.0926Y-3.317
X4.8994Y-3.2166
X4.541Y-3.2182
X5.091Y-3.709
X5.091Y-3.809
X5.0924Y-3.4634
X5.0924Y-3.5634
T0
M30
