G04 #@! TF.GenerationSoftware,KiCad,Pcbnew,(5.0.0)*
G04 #@! TF.CreationDate,2019-01-08T23:41:56-05:00*
G04 #@! TF.ProjectId,Relay Breakout,52656C617920427265616B6F75742E6B,rev?*
G04 #@! TF.SameCoordinates,Original*
G04 #@! TF.FileFunction,Copper,L2,Bot,Signal*
G04 #@! TF.FilePolarity,Positive*
%FSLAX46Y46*%
G04 Gerber Fmt 4.6, Leading zero omitted, Abs format (unit mm)*
G04 Created by KiCad (PCBNEW (5.0.0)) date 01/08/19 23:41:56*
%MOMM*%
%LPD*%
G01*
G04 APERTURE LIST*
G04 #@! TA.AperFunction,ComponentPad*
%ADD10R,1.700000X1.700000*%
G04 #@! TD*
G04 #@! TA.AperFunction,ComponentPad*
%ADD11O,1.700000X1.700000*%
G04 #@! TD*
G04 #@! TA.AperFunction,ViaPad*
%ADD12C,0.800000*%
G04 #@! TD*
G04 #@! TA.AperFunction,Conductor*
%ADD13C,0.500000*%
G04 #@! TD*
G04 #@! TA.AperFunction,Conductor*
%ADD14C,0.254000*%
G04 #@! TD*
G04 APERTURE END LIST*
D10*
G04 #@! TO.P,J2,1*
G04 #@! TO.N,Net-(J2-Pad1)*
X129352040Y-84251800D03*
D11*
G04 #@! TO.P,J2,2*
G04 #@! TO.N,GND*
X129352040Y-81711800D03*
G04 #@! TD*
G04 #@! TO.P,J3,2*
G04 #@! TO.N,GND*
X129346960Y-87970360D03*
D10*
G04 #@! TO.P,J3,1*
G04 #@! TO.N,Net-(J3-Pad1)*
X129346960Y-90510360D03*
G04 #@! TD*
G04 #@! TO.P,J4,1*
G04 #@! TO.N,Net-(J4-Pad1)*
X129311400Y-96748600D03*
D11*
G04 #@! TO.P,J4,2*
G04 #@! TO.N,GND*
X129311400Y-94208600D03*
G04 #@! TD*
D10*
G04 #@! TO.P,J5,1*
G04 #@! TO.N,Net-(J5-Pad1)*
X124444760Y-81701640D03*
G04 #@! TD*
G04 #@! TO.P,J6,1*
G04 #@! TO.N,Net-(J6-Pad1)*
X119893080Y-81711800D03*
G04 #@! TD*
G04 #@! TO.P,J7,1*
G04 #@! TO.N,Net-(J7-Pad1)*
X115341400Y-81742280D03*
G04 #@! TD*
D12*
G04 #@! TO.N,GND*
X111500920Y-96433640D03*
X113314480Y-96377760D03*
X111526320Y-97962720D03*
X113299240Y-98003360D03*
X112369600Y-90200480D03*
X118221760Y-93426280D03*
X121711720Y-97312480D03*
G04 #@! TO.N,3V3DC*
X108198920Y-87833200D03*
X114208560Y-92242640D03*
G04 #@! TO.N,Net-(J2-Pad1)*
X115727480Y-89143840D03*
X121218960Y-86212680D03*
G04 #@! TO.N,Net-(J5-Pad1)*
X126166880Y-92511880D03*
G04 #@! TO.N,Net-(J6-Pad1)*
X119898160Y-87457280D03*
G04 #@! TO.N,Net-(J7-Pad1)*
X115290600Y-85796120D03*
G04 #@! TD*
D13*
G04 #@! TO.N,3V3DC*
X108598919Y-88233199D02*
X108598919Y-90818919D01*
X108198920Y-87833200D02*
X108598919Y-88233199D01*
X108598919Y-90818919D02*
X110022640Y-92242640D01*
X110022640Y-92242640D02*
X114208560Y-92242640D01*
G04 #@! TO.N,Net-(J2-Pad1)*
X121218960Y-87394482D02*
X121218960Y-86212680D01*
X115727480Y-89143840D02*
X119469602Y-89143840D01*
X119469602Y-89143840D02*
X121218960Y-87394482D01*
G04 #@! TO.N,Net-(J5-Pad1)*
X124444760Y-81701640D02*
X124444760Y-90789760D01*
X124444760Y-90789760D02*
X126166880Y-92511880D01*
G04 #@! TO.N,Net-(J6-Pad1)*
X119893080Y-81711800D02*
X119893080Y-87452200D01*
X119893080Y-87452200D02*
X119898160Y-87457280D01*
G04 #@! TO.N,Net-(J7-Pad1)*
X115341400Y-81742280D02*
X115341400Y-85745320D01*
X115341400Y-85745320D02*
X115290600Y-85796120D01*
G04 #@! TD*
D14*
G04 #@! TO.N,GND*
G36*
X108941810Y-79697084D02*
X108400634Y-80238260D01*
X108075600Y-81022962D01*
X108075600Y-81872318D01*
X108400634Y-82657020D01*
X109001220Y-83257606D01*
X109785922Y-83582640D01*
X110635278Y-83582640D01*
X111419980Y-83257606D01*
X112020566Y-82657020D01*
X112345600Y-81872318D01*
X112345600Y-81022962D01*
X112291470Y-80892280D01*
X113843960Y-80892280D01*
X113843960Y-82592280D01*
X113893243Y-82840045D01*
X114033591Y-83050089D01*
X114243635Y-83190437D01*
X114456400Y-83232758D01*
X114456401Y-85166608D01*
X114413169Y-85209840D01*
X114255600Y-85590246D01*
X114255600Y-86001994D01*
X114413169Y-86382400D01*
X114704320Y-86673551D01*
X115084726Y-86831120D01*
X115496474Y-86831120D01*
X115876880Y-86673551D01*
X116168031Y-86382400D01*
X116325600Y-86001994D01*
X116325600Y-85590246D01*
X116226400Y-85350756D01*
X116226400Y-83232758D01*
X116439165Y-83190437D01*
X116649209Y-83050089D01*
X116789557Y-82840045D01*
X116838840Y-82592280D01*
X116838840Y-80892280D01*
X116789557Y-80644515D01*
X116649209Y-80434471D01*
X116439165Y-80294123D01*
X116191400Y-80244840D01*
X114491400Y-80244840D01*
X114243635Y-80294123D01*
X114033591Y-80434471D01*
X113893243Y-80644515D01*
X113843960Y-80892280D01*
X112291470Y-80892280D01*
X112020566Y-80238260D01*
X111480915Y-79698609D01*
X128831780Y-79709032D01*
X129295980Y-79771148D01*
X129685286Y-79933374D01*
X130019341Y-80190832D01*
X130275376Y-80525974D01*
X130302943Y-80592928D01*
X130233398Y-80516617D01*
X129708932Y-80270314D01*
X129479040Y-80390981D01*
X129479040Y-81584800D01*
X129499040Y-81584800D01*
X129499040Y-81838800D01*
X129479040Y-81838800D01*
X129479040Y-81858800D01*
X129225040Y-81858800D01*
X129225040Y-81838800D01*
X128031885Y-81838800D01*
X127910564Y-82068690D01*
X128080395Y-82478724D01*
X128357748Y-82783061D01*
X128254275Y-82803643D01*
X128044231Y-82943991D01*
X127903883Y-83154035D01*
X127854600Y-83401800D01*
X127854600Y-85101800D01*
X127903883Y-85349565D01*
X128044231Y-85559609D01*
X128254275Y-85699957D01*
X128502040Y-85749240D01*
X130202040Y-85749240D01*
X130449805Y-85699957D01*
X130504195Y-85663615D01*
X130505131Y-87078921D01*
X130228318Y-86775177D01*
X129703852Y-86528874D01*
X129473960Y-86649541D01*
X129473960Y-87843360D01*
X129493960Y-87843360D01*
X129493960Y-88097360D01*
X129473960Y-88097360D01*
X129473960Y-88117360D01*
X129219960Y-88117360D01*
X129219960Y-88097360D01*
X128026805Y-88097360D01*
X127905484Y-88327250D01*
X128075315Y-88737284D01*
X128352668Y-89041621D01*
X128249195Y-89062203D01*
X128039151Y-89202551D01*
X127898803Y-89412595D01*
X127849520Y-89660360D01*
X127849520Y-91360360D01*
X127898803Y-91608125D01*
X128039151Y-91818169D01*
X128249195Y-91958517D01*
X128496960Y-92007800D01*
X130196960Y-92007800D01*
X130444725Y-91958517D01*
X130508329Y-91916018D01*
X130509284Y-93360739D01*
X130192758Y-93013417D01*
X129668292Y-92767114D01*
X129438400Y-92887781D01*
X129438400Y-94081600D01*
X129458400Y-94081600D01*
X129458400Y-94335600D01*
X129438400Y-94335600D01*
X129438400Y-94355600D01*
X129184400Y-94355600D01*
X129184400Y-94335600D01*
X127991245Y-94335600D01*
X127869924Y-94565490D01*
X128039755Y-94975524D01*
X128317108Y-95279861D01*
X128213635Y-95300443D01*
X128003591Y-95440791D01*
X127863243Y-95650835D01*
X127813960Y-95898600D01*
X127813960Y-97598600D01*
X127863243Y-97846365D01*
X128003591Y-98056409D01*
X128213635Y-98196757D01*
X128461400Y-98246040D01*
X129091031Y-98246040D01*
X128792759Y-98284986D01*
X128777481Y-98289062D01*
X103567457Y-98294109D01*
X103103732Y-98232058D01*
X102714424Y-98069831D01*
X102380370Y-97812375D01*
X102124334Y-97477231D01*
X101963616Y-97086882D01*
X101903554Y-96626893D01*
X101900806Y-93851710D01*
X127869924Y-93851710D01*
X127991245Y-94081600D01*
X129184400Y-94081600D01*
X129184400Y-92887781D01*
X128954508Y-92767114D01*
X128430042Y-93013417D01*
X128039755Y-93441676D01*
X127869924Y-93851710D01*
X101900806Y-93851710D01*
X101894641Y-87627326D01*
X107163920Y-87627326D01*
X107163920Y-88039074D01*
X107321489Y-88419480D01*
X107612640Y-88710631D01*
X107713919Y-88752582D01*
X107713920Y-90731754D01*
X107696582Y-90818919D01*
X107765267Y-91164228D01*
X107911495Y-91383073D01*
X107911497Y-91383075D01*
X107960871Y-91456968D01*
X108034764Y-91506342D01*
X109335217Y-92806796D01*
X109384591Y-92880689D01*
X109458484Y-92930063D01*
X109458485Y-92930064D01*
X109583231Y-93013417D01*
X109677330Y-93076292D01*
X109935475Y-93127640D01*
X109935479Y-93127640D01*
X110022640Y-93144977D01*
X110109801Y-93127640D01*
X113640553Y-93127640D01*
X114002686Y-93277640D01*
X114414434Y-93277640D01*
X114794840Y-93120071D01*
X115085991Y-92828920D01*
X115243560Y-92448514D01*
X115243560Y-92036766D01*
X115085991Y-91656360D01*
X114794840Y-91365209D01*
X114414434Y-91207640D01*
X114002686Y-91207640D01*
X113640553Y-91357640D01*
X110389219Y-91357640D01*
X109483919Y-90452341D01*
X109483919Y-88937966D01*
X114692480Y-88937966D01*
X114692480Y-89349714D01*
X114850049Y-89730120D01*
X115141200Y-90021271D01*
X115521606Y-90178840D01*
X115933354Y-90178840D01*
X116295487Y-90028840D01*
X119382441Y-90028840D01*
X119469602Y-90046177D01*
X119556763Y-90028840D01*
X119556767Y-90028840D01*
X119814912Y-89977492D01*
X120107651Y-89781889D01*
X120157027Y-89707993D01*
X121783116Y-88081905D01*
X121857009Y-88032531D01*
X121990199Y-87833200D01*
X122052612Y-87739792D01*
X122067856Y-87663154D01*
X122103960Y-87481647D01*
X122103960Y-87481643D01*
X122121297Y-87394482D01*
X122103960Y-87307321D01*
X122103960Y-86780687D01*
X122253960Y-86418554D01*
X122253960Y-86006806D01*
X122096391Y-85626400D01*
X121805240Y-85335249D01*
X121424834Y-85177680D01*
X121013086Y-85177680D01*
X120778080Y-85275022D01*
X120778080Y-83202278D01*
X120990845Y-83159957D01*
X121200889Y-83019609D01*
X121341237Y-82809565D01*
X121390520Y-82561800D01*
X121390520Y-80861800D01*
X121388500Y-80851640D01*
X122947320Y-80851640D01*
X122947320Y-82551640D01*
X122996603Y-82799405D01*
X123136951Y-83009449D01*
X123346995Y-83149797D01*
X123559760Y-83192118D01*
X123559761Y-90702595D01*
X123542423Y-90789760D01*
X123611108Y-91135069D01*
X123757336Y-91353914D01*
X123757338Y-91353916D01*
X123806712Y-91427809D01*
X123880605Y-91477183D01*
X125139449Y-92736028D01*
X125289449Y-93098160D01*
X125580600Y-93389311D01*
X125961006Y-93546880D01*
X126372754Y-93546880D01*
X126753160Y-93389311D01*
X127044311Y-93098160D01*
X127201880Y-92717754D01*
X127201880Y-92306006D01*
X127044311Y-91925600D01*
X126753160Y-91634449D01*
X126391028Y-91484449D01*
X125329760Y-90423182D01*
X125329760Y-87613470D01*
X127905484Y-87613470D01*
X128026805Y-87843360D01*
X129219960Y-87843360D01*
X129219960Y-86649541D01*
X128990068Y-86528874D01*
X128465602Y-86775177D01*
X128075315Y-87203436D01*
X127905484Y-87613470D01*
X125329760Y-87613470D01*
X125329760Y-83192118D01*
X125542525Y-83149797D01*
X125752569Y-83009449D01*
X125892917Y-82799405D01*
X125942200Y-82551640D01*
X125942200Y-81354910D01*
X127910564Y-81354910D01*
X128031885Y-81584800D01*
X129225040Y-81584800D01*
X129225040Y-80390981D01*
X128995148Y-80270314D01*
X128470682Y-80516617D01*
X128080395Y-80944876D01*
X127910564Y-81354910D01*
X125942200Y-81354910D01*
X125942200Y-80851640D01*
X125892917Y-80603875D01*
X125752569Y-80393831D01*
X125542525Y-80253483D01*
X125294760Y-80204200D01*
X123594760Y-80204200D01*
X123346995Y-80253483D01*
X123136951Y-80393831D01*
X122996603Y-80603875D01*
X122947320Y-80851640D01*
X121388500Y-80851640D01*
X121341237Y-80614035D01*
X121200889Y-80403991D01*
X120990845Y-80263643D01*
X120743080Y-80214360D01*
X119043080Y-80214360D01*
X118795315Y-80263643D01*
X118585271Y-80403991D01*
X118444923Y-80614035D01*
X118395640Y-80861800D01*
X118395640Y-82561800D01*
X118444923Y-82809565D01*
X118585271Y-83019609D01*
X118795315Y-83159957D01*
X119008080Y-83202278D01*
X119008081Y-86901535D01*
X118863160Y-87251406D01*
X118863160Y-87663154D01*
X119020729Y-88043560D01*
X119169516Y-88192347D01*
X119103024Y-88258840D01*
X116295487Y-88258840D01*
X115933354Y-88108840D01*
X115521606Y-88108840D01*
X115141200Y-88266409D01*
X114850049Y-88557560D01*
X114692480Y-88937966D01*
X109483919Y-88937966D01*
X109483919Y-88320359D01*
X109501256Y-88233198D01*
X109483919Y-88146035D01*
X109483919Y-88146034D01*
X109432571Y-87887889D01*
X109236968Y-87595150D01*
X109214326Y-87580021D01*
X109076351Y-87246920D01*
X108785200Y-86955769D01*
X108404794Y-86798200D01*
X107993046Y-86798200D01*
X107612640Y-86955769D01*
X107321489Y-87246920D01*
X107163920Y-87627326D01*
X101894641Y-87627326D01*
X101888426Y-81352199D01*
X101950423Y-80888890D01*
X102112649Y-80499584D01*
X102370107Y-80165529D01*
X102705249Y-79909494D01*
X103095595Y-79748776D01*
X103516448Y-79693825D01*
X108941810Y-79697084D01*
X108941810Y-79697084D01*
G37*
X108941810Y-79697084D02*
X108400634Y-80238260D01*
X108075600Y-81022962D01*
X108075600Y-81872318D01*
X108400634Y-82657020D01*
X109001220Y-83257606D01*
X109785922Y-83582640D01*
X110635278Y-83582640D01*
X111419980Y-83257606D01*
X112020566Y-82657020D01*
X112345600Y-81872318D01*
X112345600Y-81022962D01*
X112291470Y-80892280D01*
X113843960Y-80892280D01*
X113843960Y-82592280D01*
X113893243Y-82840045D01*
X114033591Y-83050089D01*
X114243635Y-83190437D01*
X114456400Y-83232758D01*
X114456401Y-85166608D01*
X114413169Y-85209840D01*
X114255600Y-85590246D01*
X114255600Y-86001994D01*
X114413169Y-86382400D01*
X114704320Y-86673551D01*
X115084726Y-86831120D01*
X115496474Y-86831120D01*
X115876880Y-86673551D01*
X116168031Y-86382400D01*
X116325600Y-86001994D01*
X116325600Y-85590246D01*
X116226400Y-85350756D01*
X116226400Y-83232758D01*
X116439165Y-83190437D01*
X116649209Y-83050089D01*
X116789557Y-82840045D01*
X116838840Y-82592280D01*
X116838840Y-80892280D01*
X116789557Y-80644515D01*
X116649209Y-80434471D01*
X116439165Y-80294123D01*
X116191400Y-80244840D01*
X114491400Y-80244840D01*
X114243635Y-80294123D01*
X114033591Y-80434471D01*
X113893243Y-80644515D01*
X113843960Y-80892280D01*
X112291470Y-80892280D01*
X112020566Y-80238260D01*
X111480915Y-79698609D01*
X128831780Y-79709032D01*
X129295980Y-79771148D01*
X129685286Y-79933374D01*
X130019341Y-80190832D01*
X130275376Y-80525974D01*
X130302943Y-80592928D01*
X130233398Y-80516617D01*
X129708932Y-80270314D01*
X129479040Y-80390981D01*
X129479040Y-81584800D01*
X129499040Y-81584800D01*
X129499040Y-81838800D01*
X129479040Y-81838800D01*
X129479040Y-81858800D01*
X129225040Y-81858800D01*
X129225040Y-81838800D01*
X128031885Y-81838800D01*
X127910564Y-82068690D01*
X128080395Y-82478724D01*
X128357748Y-82783061D01*
X128254275Y-82803643D01*
X128044231Y-82943991D01*
X127903883Y-83154035D01*
X127854600Y-83401800D01*
X127854600Y-85101800D01*
X127903883Y-85349565D01*
X128044231Y-85559609D01*
X128254275Y-85699957D01*
X128502040Y-85749240D01*
X130202040Y-85749240D01*
X130449805Y-85699957D01*
X130504195Y-85663615D01*
X130505131Y-87078921D01*
X130228318Y-86775177D01*
X129703852Y-86528874D01*
X129473960Y-86649541D01*
X129473960Y-87843360D01*
X129493960Y-87843360D01*
X129493960Y-88097360D01*
X129473960Y-88097360D01*
X129473960Y-88117360D01*
X129219960Y-88117360D01*
X129219960Y-88097360D01*
X128026805Y-88097360D01*
X127905484Y-88327250D01*
X128075315Y-88737284D01*
X128352668Y-89041621D01*
X128249195Y-89062203D01*
X128039151Y-89202551D01*
X127898803Y-89412595D01*
X127849520Y-89660360D01*
X127849520Y-91360360D01*
X127898803Y-91608125D01*
X128039151Y-91818169D01*
X128249195Y-91958517D01*
X128496960Y-92007800D01*
X130196960Y-92007800D01*
X130444725Y-91958517D01*
X130508329Y-91916018D01*
X130509284Y-93360739D01*
X130192758Y-93013417D01*
X129668292Y-92767114D01*
X129438400Y-92887781D01*
X129438400Y-94081600D01*
X129458400Y-94081600D01*
X129458400Y-94335600D01*
X129438400Y-94335600D01*
X129438400Y-94355600D01*
X129184400Y-94355600D01*
X129184400Y-94335600D01*
X127991245Y-94335600D01*
X127869924Y-94565490D01*
X128039755Y-94975524D01*
X128317108Y-95279861D01*
X128213635Y-95300443D01*
X128003591Y-95440791D01*
X127863243Y-95650835D01*
X127813960Y-95898600D01*
X127813960Y-97598600D01*
X127863243Y-97846365D01*
X128003591Y-98056409D01*
X128213635Y-98196757D01*
X128461400Y-98246040D01*
X129091031Y-98246040D01*
X128792759Y-98284986D01*
X128777481Y-98289062D01*
X103567457Y-98294109D01*
X103103732Y-98232058D01*
X102714424Y-98069831D01*
X102380370Y-97812375D01*
X102124334Y-97477231D01*
X101963616Y-97086882D01*
X101903554Y-96626893D01*
X101900806Y-93851710D01*
X127869924Y-93851710D01*
X127991245Y-94081600D01*
X129184400Y-94081600D01*
X129184400Y-92887781D01*
X128954508Y-92767114D01*
X128430042Y-93013417D01*
X128039755Y-93441676D01*
X127869924Y-93851710D01*
X101900806Y-93851710D01*
X101894641Y-87627326D01*
X107163920Y-87627326D01*
X107163920Y-88039074D01*
X107321489Y-88419480D01*
X107612640Y-88710631D01*
X107713919Y-88752582D01*
X107713920Y-90731754D01*
X107696582Y-90818919D01*
X107765267Y-91164228D01*
X107911495Y-91383073D01*
X107911497Y-91383075D01*
X107960871Y-91456968D01*
X108034764Y-91506342D01*
X109335217Y-92806796D01*
X109384591Y-92880689D01*
X109458484Y-92930063D01*
X109458485Y-92930064D01*
X109583231Y-93013417D01*
X109677330Y-93076292D01*
X109935475Y-93127640D01*
X109935479Y-93127640D01*
X110022640Y-93144977D01*
X110109801Y-93127640D01*
X113640553Y-93127640D01*
X114002686Y-93277640D01*
X114414434Y-93277640D01*
X114794840Y-93120071D01*
X115085991Y-92828920D01*
X115243560Y-92448514D01*
X115243560Y-92036766D01*
X115085991Y-91656360D01*
X114794840Y-91365209D01*
X114414434Y-91207640D01*
X114002686Y-91207640D01*
X113640553Y-91357640D01*
X110389219Y-91357640D01*
X109483919Y-90452341D01*
X109483919Y-88937966D01*
X114692480Y-88937966D01*
X114692480Y-89349714D01*
X114850049Y-89730120D01*
X115141200Y-90021271D01*
X115521606Y-90178840D01*
X115933354Y-90178840D01*
X116295487Y-90028840D01*
X119382441Y-90028840D01*
X119469602Y-90046177D01*
X119556763Y-90028840D01*
X119556767Y-90028840D01*
X119814912Y-89977492D01*
X120107651Y-89781889D01*
X120157027Y-89707993D01*
X121783116Y-88081905D01*
X121857009Y-88032531D01*
X121990199Y-87833200D01*
X122052612Y-87739792D01*
X122067856Y-87663154D01*
X122103960Y-87481647D01*
X122103960Y-87481643D01*
X122121297Y-87394482D01*
X122103960Y-87307321D01*
X122103960Y-86780687D01*
X122253960Y-86418554D01*
X122253960Y-86006806D01*
X122096391Y-85626400D01*
X121805240Y-85335249D01*
X121424834Y-85177680D01*
X121013086Y-85177680D01*
X120778080Y-85275022D01*
X120778080Y-83202278D01*
X120990845Y-83159957D01*
X121200889Y-83019609D01*
X121341237Y-82809565D01*
X121390520Y-82561800D01*
X121390520Y-80861800D01*
X121388500Y-80851640D01*
X122947320Y-80851640D01*
X122947320Y-82551640D01*
X122996603Y-82799405D01*
X123136951Y-83009449D01*
X123346995Y-83149797D01*
X123559760Y-83192118D01*
X123559761Y-90702595D01*
X123542423Y-90789760D01*
X123611108Y-91135069D01*
X123757336Y-91353914D01*
X123757338Y-91353916D01*
X123806712Y-91427809D01*
X123880605Y-91477183D01*
X125139449Y-92736028D01*
X125289449Y-93098160D01*
X125580600Y-93389311D01*
X125961006Y-93546880D01*
X126372754Y-93546880D01*
X126753160Y-93389311D01*
X127044311Y-93098160D01*
X127201880Y-92717754D01*
X127201880Y-92306006D01*
X127044311Y-91925600D01*
X126753160Y-91634449D01*
X126391028Y-91484449D01*
X125329760Y-90423182D01*
X125329760Y-87613470D01*
X127905484Y-87613470D01*
X128026805Y-87843360D01*
X129219960Y-87843360D01*
X129219960Y-86649541D01*
X128990068Y-86528874D01*
X128465602Y-86775177D01*
X128075315Y-87203436D01*
X127905484Y-87613470D01*
X125329760Y-87613470D01*
X125329760Y-83192118D01*
X125542525Y-83149797D01*
X125752569Y-83009449D01*
X125892917Y-82799405D01*
X125942200Y-82551640D01*
X125942200Y-81354910D01*
X127910564Y-81354910D01*
X128031885Y-81584800D01*
X129225040Y-81584800D01*
X129225040Y-80390981D01*
X128995148Y-80270314D01*
X128470682Y-80516617D01*
X128080395Y-80944876D01*
X127910564Y-81354910D01*
X125942200Y-81354910D01*
X125942200Y-80851640D01*
X125892917Y-80603875D01*
X125752569Y-80393831D01*
X125542525Y-80253483D01*
X125294760Y-80204200D01*
X123594760Y-80204200D01*
X123346995Y-80253483D01*
X123136951Y-80393831D01*
X122996603Y-80603875D01*
X122947320Y-80851640D01*
X121388500Y-80851640D01*
X121341237Y-80614035D01*
X121200889Y-80403991D01*
X120990845Y-80263643D01*
X120743080Y-80214360D01*
X119043080Y-80214360D01*
X118795315Y-80263643D01*
X118585271Y-80403991D01*
X118444923Y-80614035D01*
X118395640Y-80861800D01*
X118395640Y-82561800D01*
X118444923Y-82809565D01*
X118585271Y-83019609D01*
X118795315Y-83159957D01*
X119008080Y-83202278D01*
X119008081Y-86901535D01*
X118863160Y-87251406D01*
X118863160Y-87663154D01*
X119020729Y-88043560D01*
X119169516Y-88192347D01*
X119103024Y-88258840D01*
X116295487Y-88258840D01*
X115933354Y-88108840D01*
X115521606Y-88108840D01*
X115141200Y-88266409D01*
X114850049Y-88557560D01*
X114692480Y-88937966D01*
X109483919Y-88937966D01*
X109483919Y-88320359D01*
X109501256Y-88233198D01*
X109483919Y-88146035D01*
X109483919Y-88146034D01*
X109432571Y-87887889D01*
X109236968Y-87595150D01*
X109214326Y-87580021D01*
X109076351Y-87246920D01*
X108785200Y-86955769D01*
X108404794Y-86798200D01*
X107993046Y-86798200D01*
X107612640Y-86955769D01*
X107321489Y-87246920D01*
X107163920Y-87627326D01*
X101894641Y-87627326D01*
X101888426Y-81352199D01*
X101950423Y-80888890D01*
X102112649Y-80499584D01*
X102370107Y-80165529D01*
X102705249Y-79909494D01*
X103095595Y-79748776D01*
X103516448Y-79693825D01*
X108941810Y-79697084D01*
G04 #@! TD*
M02*
